####
#
# OBJ File Generated by Meshlab
#
####
# Object deer.obj
#
# Vertices: 169
# Faces: 330
#
####
vn -0.753479 -0.499714 -0.427264
v 0.054904 -0.060435 -0.513732
vn -0.003864 0.003945 -0.999985
v 0.264985 0.017976 -0.523272
vn 0.250273 -0.557553 -0.791516
v 0.771823 -0.276215 -0.523024
vn 0.621971 -0.728266 0.287716
v 0.911074 -0.200074 -0.516008
vn 0.910811 0.412500 0.016368
v 1.004995 0.007154 -0.521851
vn -0.099016 -0.919729 -0.379860
v 0.459081 -0.363670 -0.522724
vn 0.617979 0.701457 -0.355049
v 0.810191 0.217142 -0.521960
vn 0.901454 -0.427685 0.066830
v 1.001248 -0.095163 -0.519566
vn 0.228198 0.923579 -0.308104
v 0.605306 0.360727 -0.520862
vn -0.321152 0.868969 -0.376504
v 0.243773 0.261757 -0.520463
vn -0.594273 0.584073 -0.552900
v 0.054360 0.142980 -0.520684
vn 0.205314 -0.549622 -0.809792
v -0.460655 -0.289662 -0.404395
vn 0.629368 -0.486550 0.605941
v 0.824833 -0.145465 -0.398897
vn -0.451348 -0.606250 -0.654787
v 0.258239 -0.258900 -0.522345
vn 0.153773 -0.934083 0.322246
v 0.551686 -0.299732 -0.380296
vn -0.736289 0.112370 -0.667271
v 0.030911 0.088628 -0.520949
vn 0.451170 -0.809929 -0.374781
v -0.194490 -0.264407 -0.326699
vn -0.843919 0.532319 -0.066609
v 0.056958 0.132155 -0.330275
vn 0.473519 -0.877051 -0.081001
v -0.403179 -0.272726 -0.255539
vn 0.096152 0.666126 -0.739616
v -0.263787 -0.189596 -0.343957
vn -0.871404 -0.447042 -0.202011
v 0.014043 -0.016598 -0.424541
vn 0.474877 -0.746336 0.466343
v 0.724291 -0.215636 -0.372565
vn 0.727607 0.450867 0.517018
v 0.847384 0.105847 -0.446166
vn -0.877282 0.092459 -0.470986
v -0.016492 -0.018434 -0.276512
vn -0.547521 0.836196 -0.031581
v 0.124386 0.190296 -0.402203
vn -0.476460 0.825311 -0.303063
v -0.272502 -0.108268 -0.189185
vn -0.636126 -0.769545 -0.056072
v 0.146033 -0.156699 -0.433488
vn -0.911906 0.409953 -0.019132
v -0.484970 -0.245072 -0.333465
vn 0.158329 -0.969617 -0.186480
v -0.227843 -0.215602 -0.153439
vn -0.440449 -0.839739 -0.317559
v 0.085465 -0.176677 -0.205872
vn 0.399569 0.838246 0.371063
v 0.638218 0.279040 -0.411701
vn -0.353269 -0.929665 0.104519
v 0.325667 -0.256794 -0.342918
vn 0.209143 -0.102919 -0.972454
v -0.116098 -0.127584 -0.209374
vn -0.177989 0.979377 0.095610
v 0.275050 0.245127 -0.206811
vn 0.759186 -0.063479 0.647771
v 0.869585 -0.052513 -0.396733
vn -0.744308 0.662445 0.084690
v -0.419939 0.537621 -0.031959
vn 0.376021 -0.925599 -0.043303
v -0.142792 -0.238813 -0.106501
vn 0.063382 0.252130 -0.965615
v -0.213025 0.364473 -0.118860
vn 0.622360 0.774019 0.116459
v -0.113981 0.353154 -0.007911
vn 0.658311 -0.407323 0.633020
v 0.623675 -0.100950 -0.051117
vn 0.803102 0.204935 0.559490
v 0.741597 0.038397 -0.168310
vn -0.068178 -0.989238 0.129459
v -0.369310 -0.292444 -0.153466
vn 0.541101 0.711419 0.448433
v 0.609355 0.203935 -0.144200
vn -0.826794 0.208230 0.522544
v -0.393264 -0.246840 -0.153373
vn -0.304245 -0.925665 0.224899
v -0.228392 -0.186923 -0.010514
vn -0.095178 -0.995442 0.006002
v 0.267493 -0.247911 -0.133464
vn -0.533641 0.342536 -0.773237
v -0.110485 0.064973 -0.125002
vn 0.310661 0.711112 -0.630722
v -0.066694 0.193838 -0.085182
vn -0.851456 0.381901 -0.359407
v -0.234921 -0.064113 -0.066950
vn -0.552706 0.763799 -0.333359
v 0.042507 0.171981 -0.185433
vn 0.419567 0.884926 0.202164
v -0.048054 0.236420 0.042871
vn 0.060977 0.953151 0.296284
v 0.522395 0.284156 -0.338392
vn 0.336243 0.923552 0.184370
v -0.212425 0.326836 0.039506
vn 0.398063 -0.740404 0.541616
v 0.491907 -0.175514 -0.028634
vn 0.083086 0.016047 -0.996413
v -0.508375 -0.314666 -0.059032
vn -0.048244 -0.985830 -0.160658
v -0.039978 -0.184685 -0.053995
vn -0.659931 0.404456 -0.633171
v -0.588463 -0.320176 -0.029686
vn -0.490430 -0.330864 -0.806230
v -0.624292 -0.484494 0.000645
vn -0.885625 -0.150449 -0.439356
v -0.216733 0.188267 -0.037415
vn -0.427609 0.233241 -0.873355
v -0.336296 -0.103231 0.015247
vn -0.572262 -0.082895 0.815870
v -0.407164 -0.214530 0.059087
vn 0.669210 -0.395351 0.629170
v -0.514775 -0.405652 -0.000679
vn -0.743821 -0.438581 0.504359
v -0.326085 0.360178 0.074411
vn 0.783140 -0.620404 -0.042325
v -0.559101 -0.502014 0.007499
vn -0.558592 0.488353 0.670437
v -0.649244 -0.306973 0.020341
vn 0.254443 0.573359 0.778792
v -0.593236 -0.439349 0.044467
vn 0.286766 0.795377 0.533986
v 0.446493 0.175331 0.021979
vn -0.892158 0.449220 -0.047495
v -0.463030 -0.104061 0.050261
vn 0.475789 -0.829853 -0.291494
v -0.327118 -0.232165 0.024266
vn -0.024342 0.665014 0.746434
v -0.351083 0.434857 0.087294
vn 0.029584 0.996905 0.072839
v 0.142026 0.215494 0.025191
vn -0.046924 0.751274 -0.658320
v -0.764161 -0.374202 0.077158
vn -0.903009 0.401580 -0.152670
v -0.328994 -0.026221 0.101002
vn 0.000000 0.000000 0.000000
v -0.473810 -0.060597 0.088715
vn -0.911933 0.317690 0.259714
v -0.209852 0.189638 0.073547
vn -0.786799 -0.595977 -0.160498
v -0.688274 -0.492298 0.065436
vn 0.619119 0.245848 0.745822
v 0.569990 0.052622 0.008490
vn -0.104582 0.562769 0.819972
v -0.183044 0.342090 0.108379
vn 0.133224 0.813815 0.565648
v -0.127169 0.182749 0.170222
vn -0.848021 -0.062681 -0.526243
v -0.863770 -0.342246 0.140945
vn 0.354289 0.934753 0.026775
v -0.189064 0.162156 0.120480
vn -0.776964 -0.321739 0.541120
v -0.332370 -0.095862 0.143555
vn -0.070662 0.537376 -0.840377
v -0.261955 0.191963 0.116249
vn -0.043025 -0.987801 0.149658
v -0.229538 -0.180694 0.061508
vn -0.204787 0.300294 0.931604
v -0.832720 -0.327300 0.159666
vn -0.765980 -0.093688 -0.636000
v -0.307426 0.113968 0.144317
vn 0.000000 0.000000 0.000000
v -0.647781 -0.064294 0.172538
vn -0.462424 -0.549730 -0.695673
v -0.469199 0.153408 0.192693
vn -0.072423 -0.986047 -0.149888
v 0.033291 -0.237515 0.077657
vn -0.274227 0.570514 -0.774154
v -0.311328 0.361210 0.194358
vn -0.926073 -0.038199 0.375406
v -0.304949 -0.061460 0.228975
vn 0.253251 0.822537 0.509211
v 0.142098 0.141495 0.193614
vn 0.725717 0.151728 0.671054
v 0.226602 0.006922 0.230792
vn -0.888680 -0.007175 0.458472
v -0.316395 0.056468 0.214478
vn 0.229592 0.719189 0.655785
v -0.676168 -0.465683 0.134534
vn -0.251635 -0.561153 0.788535
v -0.380160 0.158458 0.199036
vn 0.304100 0.948810 -0.085339
v -0.718047 -0.455604 0.286274
vn 0.875856 -0.428662 0.221640
v -0.644178 -0.547443 0.226063
vn -0.858551 -0.262466 0.440457
v -0.356039 0.287350 0.236574
vn -0.776976 0.496715 -0.386760
v -0.405153 0.214203 0.198531
vn -0.212836 -0.966845 0.141111
v -0.087057 -0.250707 0.224957
vn 0.000000 0.000000 0.000000
v -0.896435 -0.260782 0.292432
vn -0.725614 -0.337730 0.599520
v -0.249449 -0.150240 0.307172
vn 0.904485 -0.299751 0.303408
v 0.224528 -0.099319 0.186344
vn -0.642285 -0.648065 -0.409246
v -0.697470 -0.549356 0.173660
vn -0.501623 -0.599904 0.623289
v -0.568488 0.131561 0.268252
vn -0.599574 0.209929 0.772295
v -0.216614 0.004612 0.374385
vn 0.263693 0.024914 0.964285
v -0.263393 0.272436 0.244800
vn -0.988248 0.063973 -0.138831
v -0.435686 0.403521 0.287102
vn -0.540467 -0.821174 0.183216
v -0.738526 -0.528537 0.281735
vn -0.113078 -0.984337 -0.135259
v -0.135815 -0.236521 0.183772
vn -0.126313 -0.959304 0.252548
v -0.085147 -0.209400 0.309506
vn 0.000000 0.000000 0.000000
v -0.542604 0.448286 0.301761
vn -0.171214 0.592438 0.787212
v -0.218301 0.130228 0.269047
vn -0.434461 0.627149 -0.646473
v -0.381020 0.483382 0.279215
vn 0.053474 0.693989 0.717997
v -0.048499 0.066687 0.345547
vn -0.259102 -0.954102 0.150185
v -0.172256 -0.259622 0.254307
vn 0.930056 -0.367378 -0.005445
v 0.221767 -0.209181 0.429959
vn 0.460624 -0.879260 0.121354
v 0.175286 -0.228527 0.114007
vn -0.921444 0.376712 0.095021
v -0.816973 -0.396414 0.308320
vn 0.880317 0.428345 -0.203870
v -0.284767 0.421845 0.274415
vn 0.034353 0.821722 0.568853
v -0.098722 0.136366 0.271881
vn 0.216959 -0.975683 -0.031159
v 0.150295 -0.259107 0.270831
vn -0.125585 -0.739089 0.661797
v -0.386131 0.459938 0.387588
vn 0.443355 0.747451 0.494725
v 0.161686 0.024041 0.365570
vn -0.707949 -0.259889 0.656709
v -0.753486 -0.480518 0.335810
vn -0.578294 -0.609815 0.541942
v -0.099299 -0.165516 0.410187
vn 0.000000 0.000000 0.000000
v -0.878134 -0.322223 0.383273
vn 0.239670 0.648266 -0.722710
v -0.304662 0.542643 0.352282
vn -0.386395 0.251102 0.887495
v -0.098636 -0.074730 0.421113
vn -0.452657 0.257149 -0.853801
v -0.687076 0.486508 0.439086
vn -0.385064 0.912088 -0.140788
v -0.473070 0.580581 0.427539
vn 0.926183 0.313919 0.208903
v 0.232395 -0.088025 0.398224
vn -0.042563 0.583416 0.811058
v -0.120230 0.037687 0.375040
vn -0.145624 0.715648 0.683112
v 0.050086 -0.018313 0.435503
vn -0.181034 -0.358268 0.915899
v -0.654147 0.498511 0.489405
vn 0.000000 0.000000 0.000000
v -0.740756 0.365032 0.542219
vn -0.674249 -0.514639 0.529656
v -0.455858 0.524558 0.485292
vn 0.183186 0.799784 0.571654
v 0.145205 -0.067636 0.510507
vn -0.333340 -0.615470 -0.714200
v -0.455324 0.522811 0.405949
vn 0.178626 -0.866235 0.466616
v -0.598341 -0.503140 0.480602
vn 0.317380 -0.927083 0.199469
v 0.171335 -0.302498 0.555746
vn -0.393340 -0.500038 -0.771522
v -0.428087 0.502715 0.592731
vn 0.473871 -0.855388 -0.209183
v -0.358090 0.509840 0.562974
vn -0.439018 0.878171 0.189946
v -0.667524 -0.429841 0.591224
vn -0.563876 0.399617 0.722739
v -0.026437 -0.128673 0.513439
vn -0.562050 -0.424558 0.709824
v 0.082323 -0.283779 0.628367
vn 0.786318 0.220137 0.577273
v 0.198017 -0.162001 0.619401
vn 0.519436 0.753770 0.402514
v -0.359404 0.565867 0.564913
vn 0.229788 -0.271325 0.934655
v 0.130760 -0.250890 0.654048
vn 0.000000 0.000000 0.000000
v -0.631840 0.366692 0.665237
vn -0.233288 0.484777 0.842952
v 0.124184 -0.154388 0.633263
vn -0.732605 0.606245 -0.309448
v -0.534877 0.475272 0.637104
vn 0.620451 -0.480043 -0.620161
v -0.384617 0.373954 0.672666
vn -0.666166 -0.735323 0.124591
v -0.538508 0.435043 0.674781
vn -0.078449 0.551087 0.830752
v -0.426873 0.465351 0.691627
vn -0.934765 -0.178967 -0.306896
v -0.428594 0.332459 0.735773
vn 0.039456 -0.902768 -0.428313
v -0.363110 0.264322 0.752675
vn 0.089111 -0.656489 0.749054
v -0.472099 0.122827 0.832927
vn 0.133620 0.335702 0.932443
v -0.368214 0.322169 0.794742
vn 0.587660 -0.514952 0.624083
v -0.197589 0.247188 0.820259
vn -0.816642 0.408123 -0.408083
v 0.317818 -0.025844 -0.433778
vn -0.408298 0.816447 0.408298
v 0.317818 -0.025844 -0.512052
vn -0.333685 -0.666936 -0.666221
v 0.317818 0.068104 -0.433778
vn 0.407941 -0.816364 0.408820
v 0.130077 0.068104 -0.512052
vn 0.816497 -0.408248 -0.408248
v 0.130077 0.068104 -0.433778
vn 0.666669 0.333365 0.666649
v 0.130077 -0.025844 -0.512052
vn 0.333333 0.666667 -0.666667
v 0.130077 -0.025844 -0.433778
vn -0.666432 -0.333238 0.666949
v 0.317772 0.067982 -0.512063
# 169 vertices, 0 vertices normals

f 16//16 11//11 2//2
f 1//1 16//16 14//14
f 14//14 16//16 2//2
f 11//11 10//10 2//2
f 27//27 1//1 14//14
f 2//2 10//10 9//9
f 6//6 14//14 2//2
f 6//6 2//2 3//3
f 2//2 9//9 7//7
f 2//2 7//7 3//3
f 3//3 7//7 5//5
f 4//4 3//3 8//8
f 3//3 5//5 8//8
f 4//4 22//22 3//3
f 7//7 23//23 5//5
f 15//15 6//6 3//3
f 22//22 15//15 3//3
f 35//35 5//5 23//23
f 9//9 52//52 31//31
f 7//7 9//9 31//31
f 35//35 8//8 5//5
f 9//9 10//10 52//52
f 8//8 13//13 4//4
f 18//18 11//11 16//16
f 25//25 10//10 11//11
f 13//13 8//8 35//35
f 21//21 16//16 1//1
f 1//1 27//27 21//21
f 20//20 17//17 12//12
f 32//32 14//14 6//6
f 4//4 13//13 22//22
f 20//20 12//12 28//28
f 18//18 25//25 11//11
f 26//26 20//20 28//28
f 17//17 19//19 12//12
f 32//32 6//6 15//15
f 10//10 34//34 52//52
f 31//31 43//43 7//7
f 7//7 43//43 23//23
f 14//14 32//32 27//27
f 34//34 10//10 25//25
f 41//41 35//35 23//23
f 24//24 16//16 21//21
f 33//33 20//20 26//26
f 24//24 18//18 16//16
f 24//24 21//21 30//30
f 28//28 12//12 42//42
f 12//12 19//19 42//42
f 19//19 17//17 29//29
f 20//20 33//33 17//17
f 43//43 41//41 23//23
f 37//37 29//29 17//17
f 27//27 30//30 21//21
f 30//30 27//27 32//32
f 15//15 46//46 32//32
f 24//24 33//33 47//47
f 13//13 40//40 22//22
f 28//28 44//44 26//26
f 37//37 17//17 33//33
f 24//24 50//50 18//18
f 18//18 50//50 25//25
f 43//43 31//31 52//52
f 50//50 24//24 47//47
f 24//24 30//30 33//33
f 54//54 15//15 22//22
f 25//25 50//50 34//34
f 36//36 39//39 38//38
f 48//48 50//50 47//47
f 30//30 32//32 46//46
f 40//40 54//54 22//22
f 19//19 29//29 42//42
f 26//26 47//47 33//33
f 44//44 28//28 42//42
f 35//35 40//40 13//13
f 29//29 37//37 42//42
f 45//45 49//49 44//44
f 56//56 33//33 30//30
f 41//41 40//40 35//35
f 42//42 37//37 45//45
f 44//44 42//42 45//45
f 49//49 26//26 44//44
f 56//56 37//37 33//33
f 48//48 39//39 51//51
f 36//36 38//38 59//59
f 48//48 38//38 39//39
f 46//46 15//15 54//54
f 52//52 67//67 43//43
f 47//47 26//26 49//49
f 56//56 45//45 37//37
f 43//43 77//77 41//41
f 36//36 63//63 70//70
f 56//56 84//84 45//45
f 36//36 59//59 63//63
f 36//36 70//70 53//53
f 36//36 53//53 39//39
f 56//56 30//30 46//46
f 48//48 71//71 50//50
f 50//50 71//71 34//34
f 48//48 47//47 38//38
f 34//34 67//67 52//52
f 77//77 43//43 67//67
f 62//62 64//64 55//55
f 55//55 69//69 62//62
f 51//51 71//71 48//48
f 64//64 58//58 55//55
f 47//47 59//59 38//38
f 77//77 40//40 41//41
f 59//59 47//47 49//49
f 71//71 67//67 34//34
f 56//56 46//46 89//89
f 55//55 58//58 57//57
f 55//55 60//60 69//69
f 63//63 59//59 75//75
f 55//55 57//57 61//61
f 49//49 45//45 60//60
f 45//45 69//69 60//60
f 66//66 57//57 58//58
f 66//66 65//65 57//57
f 57//57 65//65 61//61
f 69//69 45//45 84//84
f 62//62 65//65 66//66
f 61//61 60//60 55//55
f 119//119 46//46 54//54
f 70//70 78//78 53//53
f 61//61 68//68 60//60
f 49//49 60//60 73//73
f 61//61 65//65 62//62
f 61//61 62//62 69//69
f 84//84 56//56 111//111
f 53//53 78//78 39//39
f 111//111 56//56 89//89
f 89//89 46//46 119//119
f 72//72 58//58 76//76
f 49//49 73//73 59//59
f 79//79 51//51 39//39
f 105//105 76//76 58//58
f 105//105 58//58 64//64
f 66//66 64//64 62//62
f 60//60 68//68 73//73
f 92//92 71//71 51//51
f 104//104 119//119 54//54
f 58//58 72//72 66//66
f 68//68 87//87 74//74
f 78//78 79//79 39//39
f 82//82 68//68 61//61
f 75//75 59//59 73//73
f 79//79 92//92 51//51
f 64//64 98//98 105//105
f 75//75 73//73 86//86
f 61//61 69//69 84//84
f 81//81 75//75 83//83
f 63//63 75//75 78//78
f 78//78 70//70 63//63
f 72//72 95//95 66//66
f 73//73 68//68 82//82
f 74//74 68//68 82//82
f 75//75 79//79 78//78
f 72//72 76//76 80//80
f 74//74 82//82 68//68
f 95//95 64//64 66//66
f 80//80 85//85 72//72
f 80//80 76//76 85//85
f 83//83 75//75 86//86
f 71//71 92//92 67//67
f 85//85 76//76 95//95
f 68//68 74//74 87//87
f 61//61 84//84 82//82
f 86//86 73//73 94//94
f 93//93 104//104 54//54
f 72//72 85//85 95//95
f 89//89 119//119 123//123
f 95//95 76//76 105//105
f 86//86 100//100 83//83
f 67//67 93//93 77//77
f 40//40 93//93 54//54
f 91//91 94//94 73//73
f 121//121 83//83 90//90
f 93//93 40//40 77//77
f 85//85 80//80 102//102
f 122//122 92//92 79//79
f 96//96 88//88 86//86
f 100//100 86//86 88//88
f 121//121 81//81 83//83
f 94//94 96//96 86//86
f 73//73 82//82 91//91
f 121//121 108//108 81//81
f 100//100 90//90 83//83
f 98//98 64//64 95//95
f 81//81 79//79 75//75
f 89//89 123//123 101//101
f 85//85 102//102 80//80
f 99//99 90//90 100//100
f 82//82 103//103 91//91
f 79//79 81//81 108//108
f 95//95 105//105 97//97
f 82//82 84//84 117//117
f 111//111 89//89 101//101
f 95//95 97//97 98//98
f 99//99 100//100 96//96
f 117//117 103//103 82//82
f 99//99 115//115 90//90
f 108//108 99//99 96//96
f 92//92 93//93 67//67
f 100//100 106//106 96//96
f 106//106 88//88 96//96
f 96//96 94//94 108//108
f 91//91 107//107 94//94
f 97//97 105//105 120//120
f 115//115 99//99 109//109
f 88//88 106//106 100//100
f 108//108 94//94 114//114
f 79//79 108//108 114//114
f 117//117 84//84 111//111
f 110//110 120//120 105//105
f 110//110 105//105 98//98
f 90//90 115//115 121//121
f 113//113 115//115 109//109
f 112//112 111//111 101//101
f 114//114 122//122 79//79
f 114//114 94//94 107//107
f 124//124 108//108 121//121
f 112//112 117//117 111//111
f 92//92 122//122 116//116
f 104//104 118//118 119//119
f 124//124 99//99 108//108
f 124//124 109//109 99//99
f 133//133 104//104 93//93
f 97//97 141//141 98//98
f 112//112 101//101 123//123
f 92//92 125//125 93//93
f 110//110 126//126 120//120
f 128//128 126//126 120//120
f 120//120 126//126 97//97
f 121//121 115//115 129//129
f 127//127 103//103 117//117
f 125//125 92//92 116//116
f 98//98 141//141 110//110
f 103//103 107//107 91//91
f 93//93 125//125 133//133
f 119//119 118//118 123//123
f 113//113 109//109 115//115
f 112//112 127//127 117//117
f 115//115 109//109 124//124
f 128//128 120//120 126//126
f 129//129 115//115 124//124
f 134//134 116//116 122//122
f 140//140 129//129 124//124
f 131//131 132//132 140//140
f 103//103 130//130 107//107
f 114//114 134//134 122//122
f 129//129 124//124 121//121
f 134//134 114//114 107//107
f 134//134 130//130 116//116
f 140//140 132//132 129//129
f 103//103 127//127 130//130
f 125//125 116//116 135//135
f 126//126 110//110 141//141
f 116//116 130//130 135//135
f 123//123 142//142 112//112
f 130//130 134//134 107//107
f 139//139 133//133 125//125
f 126//126 145//145 97//97
f 133//133 118//118 104//104
f 131//131 136//136 132//132
f 136//136 131//131 140//140
f 142//142 127//127 112//112
f 138//138 140//140 124//124
f 125//125 135//135 139//139
f 137//137 136//136 131//131
f 137//137 131//131 136//136
f 135//135 130//130 146//146
f 145//145 126//126 141//141
f 127//127 146//146 130//130
f 149//149 124//124 129//129
f 142//142 147//147 127//127
f 132//132 136//136 138//138
f 132//132 149//149 129//129
f 145//145 141//141 97//97
f 136//136 140//140 138//138
f 118//118 142//142 123//123
f 138//138 124//124 144//144
f 143//143 138//138 144//144
f 135//135 146//146 139//139
f 139//139 148//148 133//133
f 149//149 144//144 124//124
f 148//148 118//118 133//133
f 149//149 132//132 138//138
f 127//127 147//147 146//146
f 149//149 138//138 143//143
f 148//148 142//142 118//118
f 146//146 152//152 139//139
f 142//142 150//150 147//147
f 139//139 152//152 148//148
f 143//143 144//144 154//154
f 148//148 150//150 142//142
f 143//143 154//154 155//155
f 155//155 153//153 143//143
f 143//143 153//153 149//149
f 149//149 154//154 144//144
f 146//146 147//147 152//152
f 153//153 156//156 149//149
f 155//155 154//154 156//156
f 152//152 150//150 148//148
f 156//156 154//154 149//149
f 150//150 152//152 147//147
f 153//153 155//155 151//151
f 153//153 151//151 155//155
f 156//156 153//153 155//155
f 157//157 156//156 154//154
f 154//154 158//158 157//157
f 154//154 156//156 160//160
f 160//160 156//156 157//157
f 158//158 154//154 161//161
f 160//160 161//161 154//154
f 159//159 157//157 158//158
f 159//159 160//160 157//157
f 161//161 160//160 158//158
f 160//160 159//159 158//158
f 162//162 169//169 163//163
f 162//162 164//164 169//169
f 164//164 165//165 169//169
f 164//164 166//166 165//165
f 166//166 167//167 165//165
f 166//166 168//168 167//167
f 168//168 163//163 167//167
f 168//168 162//162 163//163
f 168//168 164//164 162//162
f 168//168 166//166 164//164
f 163//163 169//169 167//167
f 165//165 167//167 169//169
# 330 faces, 0 coords texture

# End of File
