####
#
# OBJ File Generated by Meshlab
#
####
# Object deer.obj
#
# Vertices: 832
# Faces: 1652
#
####
vn 0.231813 0.212217 -0.949330
v -0.108878 0.089571 0.249973
vn -0.822765 0.536826 -0.186748
v -0.164679 0.084295 0.288557
vn -0.601132 -0.496384 -0.626294
v -0.136888 0.008367 0.267776
vn 0.234029 0.971759 0.030252
v -0.085361 0.115600 0.301767
vn 0.295881 -0.955219 -0.003266
v -0.101144 -0.011550 0.289544
vn -0.794489 -0.470327 0.384162
v -0.163459 0.039841 0.339604
vn 0.998943 0.020997 0.040888
v -0.045450 0.052916 0.310198
vn -0.063281 0.193971 0.978964
v -0.129026 0.075166 0.369025
vn -0.176721 -0.652793 -0.736635
v -0.129527 -0.261121 0.183019
vn 0.761988 0.058067 -0.644983
v -0.079904 -0.196792 0.172684
vn -0.591905 0.529864 -0.607365
v -0.154709 -0.158353 0.181835
vn -0.841752 -0.537855 0.046530
v -0.180522 -0.236362 0.226399
vn 0.369813 0.874887 0.312747
v -0.099388 -0.151602 0.240262
vn 0.774367 -0.029384 0.632055
v -0.066437 -0.209979 0.240016
vn -0.421605 0.129287 0.897515
v -0.174079 -0.198136 0.255817
vn 0.335039 -0.860351 0.384115
v -0.097940 -0.263150 0.234383
vn -0.568328 0.007610 -0.822767
v 0.032499 0.041966 -0.521907
vn -0.337105 0.261012 -0.904562
v 0.071461 0.137242 -0.523240
vn -0.615514 -0.606843 -0.502876
v 0.104091 -0.116774 -0.513968
vn -0.232347 -0.224439 -0.946384
v 0.110422 -0.099471 -0.523493
vn 0.217248 -0.062523 -0.974112
v 0.198497 0.033896 -0.523345
vn -0.652376 -0.736126 -0.180343
v 0.137945 -0.151967 -0.501609
vn -0.520315 -0.534709 -0.665852
v 0.164849 -0.171195 -0.521752
vn 0.058136 -0.946825 -0.316454
v 0.236060 0.038643 -0.523287
vn -0.263490 0.413500 -0.871545
v 0.186661 0.225462 -0.522382
vn 0.248419 0.337017 -0.908134
v 0.222314 0.004109 -0.522950
vn -0.237776 -0.301254 -0.923422
v 0.232378 -0.225574 -0.523328
vn -0.266387 -0.019640 0.963666
v 0.302659 0.045725 -0.512630
vn -0.414246 0.908098 -0.061305
v 0.238188 0.262970 -0.514565
vn -0.576747 0.280223 0.767358
v 0.309062 0.011863 -0.523319
vn 0.009055 0.298405 -0.954396
v 0.271546 -0.014826 -0.523306
vn -0.081093 0.333198 -0.939363
v 0.529121 0.334594 -0.521838
vn -0.045255 0.969945 -0.239077
v 0.549221 0.347462 -0.518953
vn 0.094397 -0.558628 -0.824029
v 0.568751 -0.334627 -0.523176
vn 0.115684 0.414175 -0.902816
v 0.617637 0.333826 -0.522855
vn 0.092988 -0.265407 -0.959642
v 0.707310 -0.294213 -0.523257
vn 0.367082 0.750099 -0.550093
v 0.697465 0.310207 -0.521831
vn 0.348014 0.409384 -0.843381
v 0.760066 0.263728 -0.523126
vn 0.448523 0.441896 -0.776888
v 0.790422 0.236837 -0.522692
vn 0.035857 -0.040939 -0.998518
v 0.844292 -0.184172 -0.523234
vn 0.440041 0.468511 -0.766069
v 0.846750 0.178563 -0.522864
vn 0.500956 -0.724225 -0.473858
v 0.898964 -0.204267 -0.519219
vn 0.255072 0.196617 -0.946721
v 0.919890 0.107119 -0.522823
vn 0.794510 -0.607250 -0.000685
v 0.977032 -0.130465 -0.520049
vn 0.073920 -0.018506 -0.997092
v 0.952211 -0.074812 -0.522518
vn 0.057532 0.016265 -0.998211
v 0.943653 0.004006 -0.522967
vn 0.926744 0.346037 0.146303
v 0.995907 0.004197 -0.519449
vn -0.801861 -0.403250 -0.440918
v 0.044831 -0.038664 -0.514181
vn 0.229379 0.966937 -0.111441
v 0.622728 0.341972 -0.513769
vn 0.820047 0.554971 -0.139747
v 0.966863 0.052947 -0.516830
vn -0.229189 -0.398646 -0.888005
v 0.325152 -0.294873 -0.523291
vn -0.241723 -0.918590 -0.312670
v 0.416899 -0.345190 -0.520961
vn -0.096310 0.489927 -0.866427
v 0.409379 0.310522 -0.522416
vn 0.398200 -0.800485 -0.447952
v 0.795017 -0.263168 -0.519944
vn 0.719997 0.690530 -0.069082
v 0.907692 0.128491 -0.518444
vn 0.256983 -0.959324 -0.116866
v 0.609964 -0.333775 -0.508505
vn 0.373038 -0.908155 0.189991
v 0.714400 -0.298402 -0.508343
vn -0.529960 -0.812979 -0.241263
v 0.288503 -0.278361 -0.514389
vn 0.052644 -0.986089 0.157659
v 0.505802 -0.353469 -0.506347
vn 0.675479 0.720520 0.156775
v 0.787444 0.245446 -0.509045
vn 0.728596 0.025523 -0.684468
v 1.002626 -0.036570 -0.518037
vn 0.875690 -0.315419 0.365621
v 0.999358 -0.088745 -0.515937
vn -0.244546 0.969277 0.026446
v 0.412085 0.318363 -0.508813
vn 0.682813 0.658693 0.316055
v 0.838977 0.187133 -0.511928
vn -0.732525 0.581186 -0.354444
v 0.062961 0.152507 -0.512212
vn -0.263596 0.842440 -0.469907
v 0.339383 0.299345 -0.522038
vn 0.580143 0.813680 0.036859
v 0.741204 0.287453 -0.512732
vn -0.884581 0.232418 -0.404349
v 0.035516 0.085881 -0.510657
vn -0.503086 0.861238 -0.071930
v 0.155309 0.216303 -0.503071
vn -0.439545 -0.890449 0.117905
v 0.350029 -0.313469 -0.506002
vn 0.402983 0.902645 0.151121
v 0.683084 0.318077 -0.506793
vn 0.534466 -0.585060 0.609960
v 0.877739 -0.190515 -0.479576
vn -0.022978 0.935984 0.351292
v 0.509751 0.306864 -0.452060
vn 0.631368 0.299025 0.715513
v 0.911838 0.036424 -0.465272
vn 0.140473 -0.606622 -0.782482
v -0.421696 -0.290401 -0.390772
vn -0.361330 0.916137 0.173590
v 0.219944 0.229109 -0.445943
vn -0.610059 -0.773012 -0.174010
v 0.233587 -0.239898 -0.513015
vn 0.455647 -0.734223 0.503292
v 0.781473 -0.230539 -0.454991
vn 0.585913 -0.392112 0.709193
v 0.898018 -0.132042 -0.460778
vn -0.983560 -0.031971 -0.177726
v 0.022911 0.025216 -0.468455
vn -0.878724 -0.437539 -0.190801
v 0.030106 -0.029270 -0.442380
vn 0.669820 -0.271362 0.691161
v 0.900899 -0.105175 -0.449343
vn -0.743990 -0.662591 -0.086322
v 0.082127 -0.088415 -0.448871
vn -0.181443 0.974834 -0.129524
v 0.475194 0.332371 -0.510050
vn -0.537218 0.778116 -0.325471
v 0.109764 0.179959 -0.512614
vn -0.621434 -0.774083 0.120891
v 0.197283 -0.202763 -0.485769
vn 0.114548 -0.932295 0.343081
v 0.539339 -0.318033 -0.443583
vn 0.285594 -0.881515 0.375989
v 0.599881 -0.307474 -0.449437
vn 0.673921 0.056167 0.736665
v 0.913385 -0.040182 -0.446087
vn 0.561436 0.684791 0.464597
v 0.713129 0.243427 -0.437766
vn -0.032800 0.553113 -0.832460
v -0.390088 -0.235782 -0.373413
vn -0.161962 0.949011 0.270456
v 0.434495 0.285721 -0.410035
vn -0.933631 0.354363 -0.052539
v 0.024517 0.079685 -0.418286
vn -0.074037 -0.937476 0.340085
v 0.472836 -0.323657 -0.447215
vn 0.442132 0.727535 0.524606
v 0.700587 0.268786 -0.459068
vn -0.181732 -0.965309 -0.187486
v -0.462059 -0.288227 -0.391562
vn -0.301006 0.929708 0.212222
v 0.289209 0.254411 -0.447926
vn 0.184462 0.872609 0.452247
v 0.600552 0.296185 -0.438339
vn 0.624008 0.474706 0.620700
v 0.873523 0.099591 -0.467401
vn -0.571644 0.295719 -0.765358
v -0.463717 -0.268560 -0.391656
vn 0.397137 -0.215256 -0.892158
v -0.247561 -0.250114 -0.353810
vn -0.252854 -0.902441 0.348806
v 0.422051 -0.315563 -0.447681
vn 0.159952 -0.973250 -0.164924
v -0.314444 -0.282074 -0.338940
vn 0.612576 -0.520689 0.594671
v 0.821717 -0.159719 -0.405840
vn -0.455147 -0.857567 0.239627
v 0.322872 -0.268660 -0.433781
vn -0.271745 0.926396 0.260664
v 0.359559 0.277442 -0.448658
vn 0.403840 -0.866393 0.293727
v 0.626745 -0.268244 -0.376964
vn 0.664683 0.599500 0.445866
v 0.797574 0.177474 -0.460492
vn -0.992777 0.014136 -0.119141
v 0.006596 0.014305 -0.389484
vn -0.615163 -0.768970 -0.173953
v 0.131437 -0.144061 -0.418882
vn 0.306769 -0.930697 -0.199239
v -0.238870 -0.274715 -0.306926
vn -0.487714 -0.870685 -0.063576
v 0.209973 -0.191244 -0.392316
vn -0.354516 -0.931339 0.083229
v 0.343490 -0.266567 -0.370833
vn 0.443080 0.848436 0.289545
v 0.631429 0.237771 -0.296849
vn 0.767383 0.275593 0.578941
v 0.869021 0.018674 -0.411769
vn -0.707664 0.705931 -0.029547
v 0.070174 0.141948 -0.384225
vn -0.034396 -0.961756 0.271739
v -0.356595 -0.273928 -0.290091
vn -0.010616 0.685464 -0.728029
v -0.306459 -0.198797 -0.348983
vn 0.225064 -0.967927 -0.111641
v -0.399043 -0.261751 -0.271367
vn 0.199290 0.670883 -0.714283
v -0.236673 -0.176483 -0.328626
vn -0.961624 0.240926 -0.131278
v 0.010151 0.028975 -0.328619
vn 0.566999 -0.674191 0.473264
v 0.768021 -0.182326 -0.374831
vn -0.730383 -0.637024 -0.246456
v 0.056968 -0.102699 -0.339292
vn 0.458412 -0.802967 0.380923
v 0.695923 -0.234119 -0.380340
vn 0.761655 0.478232 0.437236
v 0.816815 0.114356 -0.403482
vn -0.890969 -0.304795 -0.336562
v 0.002511 -0.043058 -0.292885
vn -0.669961 0.724834 -0.160524
v 0.068920 0.174369 -0.256601
vn -0.230047 0.883739 -0.407534
v -0.370041 -0.183183 -0.311938
vn 0.370803 0.860743 0.348749
v 0.634690 0.264381 -0.377723
vn -0.844664 0.423543 -0.327345
v 0.013192 0.066613 -0.261171
vn -0.532487 -0.818242 -0.216649
v 0.131833 -0.184346 -0.324949
vn 0.797446 -0.293751 0.527058
v 0.818114 -0.077367 -0.336014
vn -0.968082 -0.180201 0.174199
v -0.472553 -0.280869 -0.314306
vn -0.068653 -0.908303 0.412641
v -0.251555 -0.255136 -0.239567
vn 0.226295 -0.925932 0.302391
v 0.541175 -0.264609 -0.261382
vn -0.561925 0.826994 0.017924
v -0.351371 -0.161612 -0.227036
vn -0.547513 -0.691212 -0.471652
v 0.043540 -0.127836 -0.236011
vn -0.434402 -0.872809 0.222483
v -0.408886 -0.283348 -0.205880
vn 0.729359 -0.571118 -0.376642
v -0.156183 -0.245200 -0.260513
vn -0.238127 -0.953802 0.183187
v 0.419810 -0.291170 -0.368609
vn 0.179147 0.948089 0.262741
v 0.564961 0.282113 -0.371879
vn -0.320544 0.886852 -0.332784
v -0.301498 -0.136601 -0.226304
vn 0.730594 0.066997 -0.679517
v -0.172941 -0.199996 -0.297768
vn -0.828980 0.238725 -0.505769
v -0.010819 0.009078 -0.277600
vn -0.473785 0.880559 -0.011976
v 0.148809 0.198347 -0.402724
vn -0.285507 0.958336 -0.008812
v 0.233779 0.230849 -0.325743
vn -0.388957 -0.918993 -0.064534
v 0.286081 -0.238330 -0.337784
vn 0.706897 -0.514552 0.485317
v 0.796985 -0.123638 -0.341292
vn -0.680664 0.715238 -0.158529
v -0.464922 -0.227405 -0.330826
vn -0.393491 -0.901682 -0.179263
v 0.188811 -0.215760 -0.278373
vn 0.271374 0.645289 -0.714114
v -0.176214 -0.123531 -0.221300
vn -0.080199 -0.978125 0.191936
v -0.187655 -0.268405 -0.235434
vn -0.624881 -0.208172 -0.752455
v -0.034734 -0.035411 -0.253720
vn 0.848111 0.303546 0.434244
v 0.805636 0.055998 -0.317260
vn -0.085137 0.863247 -0.497550
v -0.252027 -0.146431 -0.250644
vn 0.864092 -0.078437 -0.497184
v -0.129652 -0.178309 -0.216239
vn 0.234961 0.047893 -0.970824
v -0.111890 -0.123149 -0.195256
vn 0.632518 -0.666064 0.395322
v 0.715545 -0.188333 -0.305391
vn -0.655176 0.374806 -0.655946
v -0.062424 -0.007065 -0.221228
vn -0.346925 0.936676 -0.047764
v 0.131251 0.210352 -0.243310
vn -0.272895 -0.961944 0.013867
v 0.336035 -0.261244 -0.283207
vn -0.012239 -0.966970 0.254595
v 0.470570 -0.288605 -0.326032
vn 0.484940 -0.833343 -0.265279
v -0.366348 -0.267471 -0.225800
vn 0.117178 -0.959569 0.255924
v -0.300687 -0.247158 -0.220741
vn -0.242288 -0.374891 -0.894848
v -0.058186 -0.084609 -0.214581
vn -0.218528 0.975805 0.007116
v 0.234323 0.236148 -0.207082
vn -0.188276 0.978973 0.078506
v 0.356764 0.261450 -0.327004
vn 0.753044 0.534261 0.384044
v 0.761772 0.136518 -0.320000
vn 0.830343 0.001808 0.557250
v 0.840450 -0.031814 -0.360708
vn -0.850235 0.491620 -0.188176
v 0.039407 0.120857 -0.267517
vn -0.025352 0.985197 0.169543
v 0.475773 0.270358 -0.294864
vn 0.481881 -0.799749 0.358039
v 0.634991 -0.218648 -0.232103
vn 0.857905 -0.002332 0.513803
v 0.759628 0.003257 -0.197302
vn 0.352863 -0.576150 -0.737251
v -0.091229 -0.144727 -0.181524
vn -0.650027 0.540999 -0.533652
v 0.007114 0.126420 -0.188178
vn 0.712649 -0.533959 0.454993
v 0.736062 -0.110735 -0.230084
vn 0.788911 0.354469 0.501967
v 0.730472 0.077470 -0.184833
vn -0.682946 0.478235 -0.552156
v -0.021636 0.057384 -0.207901
vn -0.842651 0.371273 0.389995
v -0.430528 -0.225787 -0.241879
vn 0.383965 -0.891032 -0.242143
v -0.303615 -0.234558 -0.172713
vn -0.189129 -0.937876 0.290892
v -0.206371 -0.225131 -0.190972
vn -0.459201 0.862566 -0.212402
v 0.049626 0.175986 -0.171183
vn 0.779289 -0.377412 0.500269
v 0.737919 -0.064913 -0.188186
vn -0.136415 0.315404 -0.939101
v -0.137321 -0.086833 -0.187517
vn -0.310526 -0.873698 -0.374467
v 0.025529 -0.167616 -0.167225
vn -0.249709 -0.965747 -0.070555
v 0.264554 -0.249284 -0.240529
vn -0.730375 0.552486 0.401636
v -0.355471 -0.180864 -0.167009
vn 0.248319 -0.899780 0.358796
v 0.536056 -0.237288 -0.184142
vn 0.641512 0.684015 0.347255
v 0.715024 0.176322 -0.296467
vn 0.422029 -0.695581 -0.581428
v -0.249839 -0.238336 -0.143733
vn 0.915384 -0.397857 -0.061493
v -0.134069 -0.245059 -0.179548
vn 0.580359 0.747814 0.322424
v 0.657965 0.206984 -0.258267
vn -0.070884 0.991432 0.109714
v 0.386589 0.261118 -0.249022
vn 0.576106 -0.787915 -0.217468
v -0.222070 -0.253797 -0.126153
vn 0.093554 -0.956426 0.276582
v -0.186673 -0.212395 -0.106208
vn 0.258020 0.723105 -0.640737
v -0.256283 0.445446 -0.077160
vn 0.421416 -0.900324 0.108741
v -0.148971 -0.258962 -0.176594
vn -0.493260 -0.829323 -0.262521
v 0.095118 -0.167775 -0.226014
vn 0.417603 -0.782871 0.461217
v 0.588714 -0.209105 -0.159467
vn -0.450447 0.235900 -0.861074
v -0.141286 -0.061782 -0.181403
vn -0.273230 0.961927 -0.006483
v 0.133528 0.204953 -0.129854
vn 0.363159 -0.827380 -0.428437
v -0.364127 -0.292102 -0.188598
vn 0.383292 0.413258 -0.826017
v -0.188088 0.377177 -0.116427
vn 0.017735 -0.823452 -0.567109
v -0.041206 -0.153238 -0.160724
vn -0.187215 0.812017 -0.552792
v -0.003845 0.178828 -0.111024
vn -0.074682 -0.986914 0.142908
v 0.362182 -0.260630 -0.226330
vn 0.931597 -0.340990 -0.125905
v -0.129685 -0.208124 -0.165286
vn 0.553559 0.832130 0.033638
v -0.180889 0.398815 -0.068435
vn -0.020902 0.980849 0.193647
v 0.347414 0.245276 -0.160606
vn -0.315177 0.712443 -0.626968
v -0.207750 -0.069683 -0.164167
vn 0.673245 -0.573990 0.466129
v 0.682013 -0.149363 -0.191440
vn 0.750931 0.098569 0.652984
v 0.699151 0.017835 -0.115784
vn -0.060082 -0.989069 0.134661
v -0.345806 -0.292269 -0.144578
vn -0.215827 -0.065256 -0.974249
v -0.237417 0.363592 -0.103513
vn -0.331971 -0.804384 0.492709
v -0.170963 -0.239279 -0.119027
vn 0.615993 0.633751 0.467880
v 0.639730 0.152159 -0.127201
vn -0.651220 0.723636 -0.228613
v -0.218196 -0.059901 -0.131841
vn 0.237967 0.935387 0.261578
v 0.541744 0.249955 -0.211131
vn 0.689850 0.520596 0.503078
v 0.663309 0.127859 -0.129179
vn 0.119119 0.967722 -0.222090
v -0.367293 0.514259 -0.041578
vn -0.369834 0.038661 -0.928293
v -0.331263 0.430281 -0.079916
vn -0.731923 -0.097546 0.674369
v -0.380574 -0.254037 -0.137950
vn 0.163674 -0.932444 0.322116
v -0.171843 -0.190960 -0.061926
vn -0.927921 0.151354 -0.340667
v -0.427984 0.495570 -0.017743
vn 0.583369 -0.709277 -0.395735
v -0.107325 -0.191198 -0.125942
vn -0.164543 0.983964 0.068850
v 0.259414 0.241443 -0.172717
vn -0.108962 -0.993855 -0.019484
v 0.213220 -0.238824 -0.129910
vn 0.100421 -0.945831 0.308738
v 0.448308 -0.248991 -0.175889
vn 0.604613 -0.624907 0.493896
v 0.628897 -0.162897 -0.138512
vn 0.291847 -0.941414 -0.169010
v -0.040864 -0.172356 -0.089540
vn -0.357922 -0.906468 -0.224071
v 0.140995 -0.212544 -0.173867
vn -0.636337 0.771390 0.005668
v -0.277840 -0.103621 -0.141308
vn -0.621244 0.412058 -0.666532
v -0.160902 0.016563 -0.106541
vn -0.471401 -0.326880 -0.819104
v -0.283011 0.352257 -0.086440
vn -0.596146 0.426328 -0.680334
v -0.093296 0.055724 -0.151068
vn 0.550698 -0.814918 0.180669
v -0.132272 -0.224956 -0.113356
vn 0.196067 -0.940082 0.278932
v -0.095391 -0.212385 -0.058119
vn -0.495830 0.471461 -0.729299
v -0.066815 0.116931 -0.138377
vn 0.244750 0.501239 -0.829974
v -0.083188 0.203829 -0.089306
vn -0.416313 -0.244150 -0.875828
v -0.221736 0.272943 -0.082427
vn 0.333695 -0.836746 -0.434170
v -0.061751 -0.174562 -0.139479
vn 0.048207 -0.985164 0.164706
v 0.284986 -0.238113 -0.097809
vn 0.673384 0.300245 0.675579
v 0.625191 0.086097 -0.058627
vn -0.713692 0.138989 0.686532
v -0.300751 -0.207999 -0.081073
vn -0.235421 0.180107 -0.955059
v -0.128442 0.136474 -0.100836
vn 0.089433 -0.955937 0.279618
v 0.392877 -0.246619 -0.151498
vn 0.479718 0.792723 0.376113
v 0.590300 0.207568 -0.148543
vn -0.818831 0.495930 -0.289082
v -0.226805 -0.065323 -0.086718
vn -0.732219 -0.489225 -0.473829
v -0.334511 0.357548 -0.047683
vn -0.184712 0.972101 -0.144572
v 0.083461 0.190802 -0.111721
vn 0.395304 -0.740784 0.543116
v 0.538581 -0.183389 -0.082180
vn -0.147951 -0.682288 0.715957
v -0.292855 -0.259284 -0.087890
vn 0.497196 -0.841096 -0.212964
v -0.087287 -0.208534 -0.077975
vn 0.321334 0.851894 0.413546
v 0.536966 0.215125 -0.111712
vn 0.499303 0.748753 0.435964
v -0.255316 0.437688 -0.026522
vn 0.493485 0.668380 0.556543
v 0.566660 0.176507 -0.075862
vn 0.360869 0.856154 0.369829
v -0.130371 0.356848 -0.008589
vn 0.778887 0.565347 -0.271512
v -0.128706 0.361132 -0.039438
vn 0.834380 0.397045 -0.382315
v -0.103091 0.279112 -0.035862
vn -0.124497 0.968249 -0.216783
v 0.018054 0.191552 -0.078656
vn -0.253258 -0.930140 -0.265894
v 0.016559 -0.189210 -0.073988
vn 0.547825 -0.606425 0.576312
v 0.604091 -0.135578 -0.078693
vn -0.583598 -0.625043 0.518397
v -0.244742 -0.192510 -0.017345
vn 0.088600 0.800018 0.593399
v -0.402905 0.477871 0.029151
vn 0.565544 0.755249 -0.331300
v -0.063980 0.231008 -0.031504
vn -0.029848 0.990504 0.134205
v 0.229444 0.228022 -0.078940
vn -0.939842 0.265914 0.214443
v -0.254003 -0.119115 -0.065352
vn 0.078901 0.963621 0.255359
v 0.463894 0.247616 -0.159429
vn -0.725096 -0.488588 -0.485301
v -0.263389 0.274000 -0.050993
vn -0.198749 -0.968437 -0.150428
v 0.127204 -0.241620 -0.047931
vn 0.354792 0.161768 -0.920844
v -0.134213 0.267370 -0.094312
vn 0.020731 0.960717 0.276756
v 0.384580 0.231839 -0.099138
vn 0.538470 0.696210 0.474702
v -0.281742 0.402921 0.021283
vn 0.251011 -0.851598 0.460190
v 0.492243 -0.203967 -0.085356
vn 0.188922 -0.935239 0.299394
v 0.363158 -0.214910 -0.051010
vn 0.715560 -0.342370 0.608898
v 0.669640 -0.063703 -0.089177
vn -0.796924 -0.603582 0.024534
v -0.377734 0.399758 0.012409
vn -0.414522 -0.077204 -0.906758
v -0.176877 0.175832 -0.094307
vn 0.362116 0.715662 0.597243
v -0.192773 0.380251 -0.012748
vn 0.429218 0.854032 0.293939
v -0.318571 0.429593 0.072656
vn 0.714870 0.694529 0.081181
v -0.086924 0.320871 0.039160
vn 0.079355 0.981990 -0.171460
v 0.011565 0.203501 -0.026048
vn 0.169152 -0.908835 0.381323
v 0.427288 -0.202920 -0.054337
vn 0.384805 0.696695 0.605426
v 0.494021 0.180963 -0.026512
vn -0.041242 -0.996442 0.073498
v -0.133981 -0.192337 -0.008951
vn 0.158478 -0.987362 -0.001124
v -0.072060 -0.189210 -0.039229
vn 0.183527 0.790717 0.584024
v -0.158349 0.352658 0.006608
vn -0.103212 0.985463 -0.134945
v 0.081900 0.210545 -0.008959
vn 0.095864 0.248226 -0.963947
v -0.425132 -0.259486 -0.044060
vn -0.780905 -0.624443 -0.016065
v -0.320649 0.329736 -0.006841
vn -0.663624 -0.680706 -0.310229
v -0.248889 -0.155962 -0.005606
vn -0.580054 0.031096 -0.813985
v -0.174239 0.090450 -0.083754
vn 0.529696 0.788494 0.312570
v -0.226736 0.335107 0.038610
vn 0.509703 -0.335470 -0.792251
v -0.419167 -0.305823 -0.040602
vn -0.783313 -0.094794 -0.614357
v -0.208206 0.139487 -0.048892
vn 0.270891 0.961684 -0.042210
v -0.190015 0.311830 0.050654
vn 0.125868 -0.985445 0.114259
v 0.228349 -0.238432 -0.037814
vn 0.046867 0.958045 0.282759
v 0.328939 0.212457 -0.034942
vn 0.299095 -0.831848 0.467516
v 0.412943 -0.185048 -0.008614
vn -0.246308 0.355293 -0.901720
v -0.587984 -0.318961 -0.034151
vn -0.181137 0.740942 -0.646679
v -0.566814 -0.305325 -0.025173
vn -0.345674 0.638471 -0.687651
v -0.490423 -0.274388 -0.037526
vn -0.767318 -0.593571 0.242687
v -0.300520 0.321358 0.036640
vn -0.175477 -0.955177 -0.238421
v -0.031365 -0.197847 0.005231
vn 0.204010 0.867733 0.453233
v 0.459245 0.207920 -0.045473
vn -0.726952 -0.417995 -0.544812
v -0.590286 -0.371465 -0.024070
vn -0.231990 -0.066086 -0.970471
v -0.551015 -0.383050 -0.052651
vn -0.880630 -0.473754 0.006974
v -0.269398 0.261764 0.001728
vn 0.450044 0.589594 0.670701
v 0.503005 0.154680 -0.007521
vn 0.650635 -0.132900 0.747671
v 0.610775 -0.039944 -0.026435
vn -0.357040 -0.533978 -0.766413
v -0.612966 -0.502146 0.003333
vn 0.435047 -0.669334 -0.602268
v -0.552403 -0.475933 -0.016201
vn -0.519663 0.853346 -0.041843
v -0.500353 -0.259527 -0.000896
vn 0.567261 0.481238 0.668300
v 0.571581 0.127809 -0.035102
vn 0.648275 0.088836 0.756206
v 0.595316 0.012708 -0.013443
vn -0.747001 0.153727 -0.646805
v -0.235477 0.029202 -0.039027
vn 0.806766 0.473204 -0.353845
v -0.065952 0.255156 0.034748
vn -0.441500 0.633914 -0.635004
v -0.423585 -0.214932 -0.014150
vn -0.841599 0.078188 -0.534413
v -0.268248 -0.039015 -0.014237
vn 0.717338 -0.647033 -0.258408
v -0.485677 -0.369649 -0.039200
vn -0.695185 0.168775 0.698736
v -0.425263 0.466201 0.025003
vn 0.706958 -0.706732 -0.027210
v -0.408454 -0.310125 -0.014133
vn -0.850588 0.212599 -0.480938
v -0.253371 0.080517 -0.009598
vn -0.996263 0.072056 0.047631
v -0.590855 -0.394299 -0.007337
vn -0.397051 -0.615788 0.680555
v -0.614766 -0.336823 0.018499
vn 0.167192 0.875740 0.452908
v 0.371638 0.187813 0.021627
vn 0.416409 -0.659853 0.625458
v 0.538155 -0.146771 -0.035495
vn 0.563320 -0.406925 0.719084
v 0.568075 -0.096620 -0.017127
vn -0.786520 0.481420 0.386809
v -0.452474 -0.223825 0.042947
vn -0.102177 0.325557 -0.939985
v -0.369133 -0.188626 -0.007643
vn 0.640604 -0.402248 -0.654082
v -0.318307 -0.192049 0.016642
vn -0.139696 -0.289320 -0.946984
v -0.284009 -0.151591 0.002024
vn -0.764588 -0.397815 0.507098
v -0.226865 0.224354 0.053937
vn -0.674298 0.294702 -0.677107
v -0.628524 -0.466138 0.007737
vn -0.264233 0.248995 0.931763
v -0.476182 -0.267285 0.036075
vn 0.258208 -0.267557 0.928300
v -0.489065 -0.334690 0.029054
vn 0.550596 -0.682504 0.480657
v -0.469244 -0.347337 0.004664
vn -0.000676 0.193032 -0.981192
v -0.335352 -0.130564 0.002173
vn -0.634025 -0.433979 0.640058
v -0.325939 0.374495 0.086142
vn -0.685158 -0.567035 -0.457199
v -0.666677 -0.312008 0.004088
vn -0.178381 0.907828 0.379511
v -0.571508 -0.295225 0.010830
vn 0.846501 -0.368870 0.383890
v -0.555735 -0.484418 0.024122
vn -0.784563 0.367501 -0.499404
v -0.415040 -0.168423 0.021873
vn 0.413813 -0.629378 0.657755
v 0.419109 -0.146628 0.038308
vn 0.277991 -0.925024 -0.258943
v -0.605325 -0.535204 0.054425
vn -0.212972 0.051624 0.975693
v -0.573634 -0.336696 0.035446
vn 0.508362 -0.293799 0.809475
v -0.532993 -0.400329 0.032019
vn 0.075907 0.966936 0.243460
v 0.216115 0.214061 0.009671
vn -0.342035 -0.824425 0.450928
v -0.669343 -0.308958 0.038549
vn -0.339679 0.928797 0.148168
v -0.612778 -0.437445 0.034256
vn 0.089861 0.475907 0.874893
v -0.577745 -0.435130 0.039638
vn 0.156075 0.915606 0.370549
v 0.277802 0.196525 0.035460
vn 0.463130 0.477765 0.746493
v 0.471671 0.114934 0.043824
vn -0.328024 0.440104 -0.835888
v -0.677650 -0.267056 0.014141
vn -0.576472 -0.239973 -0.781084
v -0.426329 -0.124189 0.038893
vn 0.042746 0.991830 0.120191
v 0.054905 0.209132 0.042124
vn -0.367247 -0.806039 0.464146
v -0.446836 -0.124024 0.067813
vn 0.534872 0.838288 0.105762
v -0.027238 0.221958 0.067462
vn -0.724609 -0.423516 -0.543669
v -0.695885 -0.475469 0.057704
vn 0.316450 0.870456 0.377049
v -0.609181 -0.447023 0.067707
vn 0.514834 -0.741912 0.429549
v -0.367723 -0.253152 0.036578
vn 0.054564 0.575739 0.815811
v -0.297003 0.406483 0.105683
vn 0.505645 0.848080 -0.158377
v -0.206763 0.352348 0.096832
vn -0.103577 0.993651 0.043932
v 0.153153 0.219997 -0.018925
vn -0.289916 0.158806 -0.943785
v -0.751653 -0.407621 0.067205
vn 0.311162 0.905734 0.287793
v -0.623958 -0.281831 0.020010
vn -0.940704 -0.194957 0.277610
v -0.416976 -0.164395 0.055056
vn -0.160227 0.523720 -0.836687
v -0.397923 -0.090082 0.040316
vn -0.411816 0.490188 -0.768195
v -0.289979 -0.089208 0.023466
vn -0.830950 0.449613 -0.327675
v -0.322437 -0.045305 0.077676
vn 0.502808 -0.858663 -0.099411
v -0.316847 -0.202491 0.058154
vn 0.382808 0.916650 0.114941
v -0.113070 0.310530 0.078216
vn 0.356986 0.637261 0.682979
v 0.415752 0.145525 0.055804
vn 0.135672 -0.446352 0.884513
v -0.425328 -0.291754 0.031508
vn -0.178044 0.972082 -0.152828
v -0.363377 -0.070318 0.067638
vn -0.830843 0.452534 -0.323903
v -0.274048 0.110829 0.081976
vn -0.116742 -0.990930 -0.066557
v -0.253092 -0.170736 0.072494
vn -0.285890 0.693991 -0.660790
v -0.507284 -0.064552 0.067344
vn -0.112123 0.549815 -0.827727
v -0.463263 -0.069651 0.052041
vn -0.338287 -0.939701 -0.050247
v -0.200190 -0.182649 0.041266
vn 0.534314 0.659648 0.528558
v -0.083995 0.284630 0.079982
vn -0.104055 -0.983554 -0.147629
v 0.070766 -0.237496 0.045777
vn 0.460228 0.372354 0.805942
v 0.407542 0.072666 0.100376
vn -0.864998 -0.492552 0.095761
v -0.728708 -0.263935 0.063681
vn -0.124237 0.777245 -0.616810
v -0.663371 -0.442217 0.048295
vn -0.554407 -0.443375 0.704309
v -0.402583 -0.151775 0.080886
vn 0.152257 0.969511 0.192005
v -0.455617 -0.057822 0.081028
vn -0.985610 0.091809 -0.141929
v -0.230957 0.146254 -0.012476
vn -0.537985 -0.162399 0.827163
v -0.158176 0.218238 0.124206
vn -0.150135 -0.939041 -0.309291
v -0.146486 -0.200141 0.075646
vn 0.449472 0.837809 0.309922
v -0.149898 0.333179 0.100970
vn -0.623020 -0.779243 0.068017
v -0.751317 -0.439173 0.095320
vn -0.583997 -0.719271 -0.376293
v -0.666322 -0.539988 0.101347
vn 0.780656 0.323148 0.534932
v -0.602242 -0.491862 0.101830
vn -0.382610 -0.374260 0.844713
v -0.368119 -0.187371 0.096929
vn 0.010394 -0.727366 0.686171
v -0.313994 -0.170071 0.124420
vn 0.049725 0.341102 0.938710
v -0.243801 0.367999 0.111886
vn 0.299288 0.738227 0.604523
v 0.253339 0.153208 0.131271
vn 0.560796 0.231089 0.795051
v 0.507532 0.046982 0.049510
vn 0.137148 0.663838 -0.735193
v -0.784253 -0.353719 0.094059
vn -0.441199 -0.275243 0.854157
v -0.213047 0.263517 0.105596
vn -0.105327 0.131074 0.985762
v -0.161747 0.286271 0.120145
vn 0.780906 -0.599215 0.176427
v -0.605329 -0.533484 0.104712
vn 0.573038 -0.101377 0.813235
v 0.506779 -0.018114 0.055018
vn 0.163002 0.972302 0.167507
v -0.713936 -0.237680 0.045131
vn 0.103594 0.406250 0.907871
v -0.100954 0.198597 0.145502
vn 0.355249 -0.777214 0.519361
v 0.276590 -0.200292 0.075946
vn 0.358637 0.656546 0.663571
v 0.331226 0.150472 0.093708
vn 0.542762 0.074051 0.836616
v 0.413585 0.014031 0.115446
vn 0.286462 -0.024212 0.957786
v -0.673771 -0.283335 0.058800
vn -0.760848 0.645405 0.067547
v -0.213981 0.178268 0.070870
vn 0.588255 -0.797247 0.135476
v -0.635130 -0.553579 0.166549
vn -0.475830 -0.295164 -0.828532
v -0.517021 -0.087953 0.067984
vn 0.318622 0.156446 0.934882
v -0.478572 -0.073997 0.110275
vn -0.689147 0.481337 0.541656
v -0.358536 -0.088332 0.117070
vn 0.246811 -0.960427 -0.129089
v 0.134145 -0.240644 0.088584
vn 0.488358 -0.424303 0.762544
v 0.481637 -0.068607 0.058752
vn -0.652036 -0.083741 -0.753549
v -0.828567 -0.347775 0.109822
vn -0.294832 0.138920 0.945397
v -0.398782 -0.109661 0.110867
vn -0.362787 0.737690 0.569385
v -0.145549 0.174895 0.103131
vn -0.357656 0.826783 0.434180
v -0.113080 0.173020 0.159058
vn 0.603181 -0.768903 -0.212041
v 0.163216 -0.241179 0.141188
vn -0.572305 -0.428471 0.699199
v -0.720091 -0.444847 0.116782
vn 0.525333 -0.259376 0.810401
v 0.388353 -0.041986 0.125582
vn -0.095554 -0.984796 -0.145076
v -0.664699 -0.555231 0.148301
vn -0.545832 0.066859 -0.835223
v -0.602087 -0.069557 0.125762
vn -0.240493 -0.962297 -0.127077
v -0.510473 -0.109787 0.089088
vn -0.516344 -0.231189 0.824585
v -0.345181 -0.122880 0.129959
vn 0.056587 0.819865 -0.569754
v -0.232699 0.180902 0.121452
vn 0.556273 0.823617 -0.110525
v -0.212755 0.179885 0.142645
vn -0.155061 -0.927524 -0.340082
v -0.101050 -0.219692 0.092480
vn 0.161876 0.856228 0.490582
v -0.056589 0.188193 0.141047
vn -0.956223 -0.284887 -0.066907
v -0.689284 -0.504590 0.115313
vn 0.293304 -0.666591 0.685295
v -0.489999 -0.102537 0.101908
vn 0.077531 0.993234 0.086461
v -0.548235 -0.053402 0.116437
vn -0.938617 0.192907 -0.285979
v -0.316268 0.019631 0.091806
vn 0.432182 -0.513258 0.741475
v 0.396360 -0.099899 0.087434
vn 0.517874 0.855394 -0.010408
v -0.709229 -0.408523 0.088310
vn 0.274034 0.631138 0.725651
v -0.705416 -0.425309 0.109234
vn -0.232698 -0.878158 -0.417960
v -0.203572 -0.211165 0.112317
vn 0.437682 0.467969 0.767750
v 0.290690 0.109587 0.152020
vn -0.355196 -0.837461 0.415326
v -0.825326 -0.370211 0.147313
vn 0.375711 -0.018430 0.926554
v -0.781552 -0.381334 0.136490
vn -0.764807 0.002126 -0.644255
v -0.651879 -0.045943 0.150573
vn -0.350857 -0.935327 0.045421
v -0.582687 -0.107328 0.142649
vn -0.112186 0.281164 -0.953080
v -0.283749 0.200862 0.123102
vn 0.654853 0.533826 -0.534974
v -0.229348 0.220290 0.159546
vn 0.505145 -0.511696 0.694979
v 0.266346 -0.116004 0.145671
vn 0.372130 0.910063 -0.182495
v -0.840754 -0.306216 0.145166
vn -0.692743 0.202720 -0.692107
v -0.295825 0.119438 0.129587
vn 0.452453 -0.262367 0.852320
v 0.331672 -0.036741 0.168067
vn -0.864336 -0.029449 -0.502051
v -0.880071 -0.322911 0.162466
vn -0.764158 -0.362417 0.533588
v -0.317417 -0.109008 0.163822
vn 0.218896 -0.972705 -0.076999
v 0.141053 -0.263411 0.189280
vn -0.566601 -0.548070 -0.615291
v -0.351245 0.133067 0.166340
vn 0.534969 0.844833 -0.008111
v -0.196229 0.160155 0.170280
vn -0.310706 -0.837759 0.449023
v -0.881569 -0.324213 0.203699
vn 0.931155 0.075975 0.356621
v -0.620176 -0.522556 0.163050
vn 0.361069 0.031275 0.932015
v -0.578232 -0.075047 0.160471
vn -0.990317 -0.114003 -0.079219
v -0.315212 0.081026 0.160824
vn -0.960941 0.220164 0.167691
v -0.334401 -0.050001 0.131894
vn -0.137264 0.383466 -0.913297
v -0.307560 0.243292 0.142551
vn -0.076511 0.227666 0.970729
v -0.639243 -0.054681 0.171478
vn -0.262039 -0.197268 -0.944680
v -0.405968 0.173215 0.162013
vn -0.429585 0.058130 -0.901154
v -0.326350 0.186529 0.146889
vn 0.102183 0.413680 -0.904670
v -0.289107 0.299262 0.172823
vn 0.522846 0.451685 -0.722920
v -0.246731 0.247227 0.168870
vn 0.020854 -0.970950 -0.238372
v -0.072640 -0.235714 0.154285
vn 0.125445 0.906115 0.404004
v 0.025715 0.178618 0.146006
vn -0.054143 -0.992709 -0.107692
v 0.058848 -0.248231 0.122118
vn -0.537843 0.505134 -0.674955
v -0.358273 0.221485 0.173095
vn -0.502614 0.314604 -0.805235
v -0.328347 0.283433 0.173241
vn -0.977411 0.081043 0.195192
v -0.315385 -0.026517 0.176487
vn 0.208072 0.798169 0.565360
v 0.143963 0.148119 0.188342
vn -0.597486 -0.692238 0.404745
v -0.349347 0.127933 0.196946
vn -0.985863 -0.014358 0.166939
v -0.326383 0.026759 0.174706
vn 0.875680 0.342728 0.340178
v -0.222131 0.217682 0.206112
vn 0.063796 0.922770 0.380033
v 0.118377 0.174060 0.143162
vn 0.478713 0.594808 0.645784
v 0.190107 0.090860 0.219063
vn -0.844021 -0.477407 -0.244357
v -0.713579 -0.532784 0.192695
vn 0.895663 0.406206 -0.181064
v -0.235582 0.268050 0.199316
vn -0.419424 -0.851778 -0.313940
v -0.205267 -0.228579 0.150298
vn -0.144219 -0.981335 -0.127214
v -0.039853 -0.243293 0.149034
vn 0.682226 -0.720825 0.122393
v 0.187561 -0.210067 0.125085
vn 0.488462 0.276370 0.827662
v 0.329978 0.037264 0.164569
vn 0.733005 -0.087295 0.674599
v -0.840225 -0.330936 0.176165
vn -0.724409 0.649939 0.229806
v -0.679567 -0.479836 0.152036
vn 0.793955 -0.435886 0.423838
v -0.646765 -0.538479 0.226544
vn -0.455469 0.045162 -0.889105
v -0.465146 0.172581 0.180550
vn -0.058557 -0.998242 -0.009207
v 0.053294 -0.248600 0.188691
vn -0.025445 -0.989501 0.142266
v -0.663574 -0.558181 0.207226
vn -0.733062 0.186612 -0.654061
v -0.349496 0.307860 0.194049
vn -0.938549 -0.044759 0.342232
v -0.304873 -0.015269 0.211680
vn -0.604928 -0.764144 0.223933
v -0.279203 -0.151340 0.140164
vn 0.143250 0.928498 0.342594
v -0.195858 0.169498 0.222553
vn -0.003910 -0.993947 -0.109795
v -0.136762 -0.239572 0.158962
vn 0.448801 0.790143 0.417435
v -0.650675 -0.473258 0.144910
vn 0.095185 -0.954662 0.282064
v -0.421302 0.155666 0.202639
vn 0.148661 0.961549 -0.230919
v -0.697792 -0.471444 0.239605
vn 0.054253 0.075614 0.995660
v -0.416921 0.179187 0.215162
vn -0.123799 -0.980592 0.152032
v 0.000512 -0.250158 0.260894
vn 0.732386 -0.672435 -0.106965
v 0.187898 -0.230123 0.210043
vn 0.933917 0.296740 0.199359
v -0.673729 -0.495363 0.277171
vn -0.583545 -0.082587 0.807870
v -0.343395 0.236416 0.238834
vn -0.248191 0.375418 -0.893008
v -0.319006 0.370591 0.202146
vn 0.409691 0.461737 -0.786735
v -0.288926 0.360195 0.200913
vn 0.134425 0.844362 0.518636
v 0.046960 0.130676 0.222308
vn 0.687242 0.171833 0.705813
v 0.237117 0.017610 0.212992
vn 0.279553 0.934816 -0.219020
v -0.874898 -0.278191 0.209000
vn -0.950677 0.186406 -0.247922
v -0.361022 0.265638 0.207555
vn -0.970305 -0.188989 0.150966
v -0.365804 0.319766 0.234022
vn -0.941228 -0.017792 0.337303
v -0.321244 -0.080744 0.199705
vn 0.141417 0.855184 0.498659
v -0.074956 0.156510 0.232953
vn -0.236030 -0.970569 0.047818
v -0.092716 -0.256343 0.193960
vn 0.838936 -0.257079 0.479684
v -0.864256 -0.301432 0.231906
vn -0.322653 0.945068 -0.052359
v -0.461727 0.203781 0.202725
vn -0.482537 0.513620 0.709473
v -0.388972 0.209602 0.204083
vn 0.121588 0.504584 -0.854758
v -0.319126 0.411901 0.220309
vn -0.029272 -0.985150 0.169184
v -0.064060 -0.246921 0.236297
vn -0.970893 0.163156 -0.175351
v -0.900969 -0.287038 0.228276
vn -0.451989 -0.191923 0.871132
v -0.335629 0.151441 0.227169
vn -0.869972 -0.365736 0.330736
v -0.297059 -0.115862 0.234629
vn 0.889311 0.149447 0.432194
v -0.259495 0.311653 0.236202
vn 0.767217 -0.641092 -0.019475
v -0.144458 -0.248417 0.179536
vn 0.671796 -0.290100 0.681566
v 0.247730 -0.071294 0.180248
vn -0.245970 -0.349324 -0.904141
v -0.558410 0.117459 0.238843
vn -0.830681 -0.079681 0.551018
v -0.268257 -0.064644 0.275234
vn 0.437752 0.313367 0.842718
v -0.241882 0.196885 0.235014
vn -0.168233 0.402539 0.899811
v -0.222766 0.127294 0.261534
vn 0.845447 -0.530810 0.058830
v -0.155291 -0.214732 0.214512
vn 0.035185 -0.955908 0.291553
v -0.703791 -0.525207 0.315356
vn -0.346140 0.924910 0.157253
v -0.508112 0.178153 0.230072
vn -0.756500 -0.172811 0.630749
v -0.297434 0.073932 0.229707
vn 0.850524 0.426273 -0.308059
v -0.274709 0.361902 0.220052
vn -0.707550 -0.704537 0.054782
v -0.221714 -0.234093 0.233736
vn -0.339760 -0.111988 0.933821
v -0.278977 0.117177 0.254139
vn -0.199799 -0.961412 -0.189121
v -0.187860 -0.256008 0.196458
vn -0.116468 -0.992216 0.044080
v 0.074227 -0.249720 0.290469
vn -0.808336 0.135600 -0.572892
v -0.734948 -0.496658 0.234278
vn -0.558870 0.674806 0.481976
v -0.625014 0.135427 0.261905
vn -0.121717 0.005121 0.992552
v -0.296841 0.188714 0.248246
vn -0.861485 0.015307 0.507553
v -0.289032 0.011446 0.286185
vn 0.389401 -0.168666 0.905494
v -0.279703 0.281947 0.248712
vn 0.635641 -0.769734 0.058905
v -0.148287 -0.253517 0.238348
vn -0.404573 -0.852073 0.332102
v -0.093973 -0.248668 0.243271
vn -0.084049 -0.993867 0.071856
v -0.025284 -0.254381 0.222677
vn -0.643397 0.146553 -0.751374
v -0.358030 0.393811 0.238821
vn -0.838771 0.305993 0.450368
v -0.295166 0.046910 0.252190
vn -0.547554 -0.819165 0.170741
v -0.106300 -0.230903 0.199221
vn 0.944197 -0.295732 -0.145034
v 0.213853 -0.166963 0.203333
vn 0.906094 -0.335079 0.258293
v 0.226257 -0.135445 0.182130
vn 0.363487 -0.138944 0.921180
v -0.506072 0.140815 0.263257
vn -0.247405 0.266937 -0.931416
v -0.412014 0.446440 0.265891
vn -0.296632 -0.233171 0.926089
v -0.325430 0.276088 0.251233
vn -0.621827 -0.781980 -0.042870
v -0.719928 -0.530872 0.245495
vn -0.431460 0.802641 -0.411836
v -0.525963 0.457501 0.289533
vn -0.227860 -0.332512 -0.915159
v -0.510221 0.414060 0.270580
vn -0.120927 -0.992162 0.031497
v -0.115524 -0.225238 0.257528
vn 0.257442 0.766124 0.588879
v 0.142239 0.098987 0.243646
vn 0.997507 -0.063987 -0.029745
v 0.222051 -0.136676 0.246898
vn -0.727497 -0.256921 -0.636191
v -0.790253 -0.451852 0.291473
vn 0.200669 -0.962808 -0.180922
v -0.503691 0.119343 0.236747
vn -0.032548 0.333541 0.942173
v -0.571077 0.140732 0.268850
vn -0.202204 0.602917 -0.771755
v -0.351442 0.463821 0.249744
vn -0.363751 -0.523247 0.770648
v -0.344754 0.330408 0.274786
vn 0.260206 -0.892359 -0.368765
v -0.141943 -0.221885 0.242730
vn -0.325933 -0.906504 0.268362
v -0.050993 -0.231966 0.285673
vn 0.543887 0.699906 0.462945
v 0.174062 0.058681 0.283555
vn 0.835084 -0.538278 -0.113539
v 0.211785 -0.210911 0.240725
vn -0.356701 -0.911041 -0.206806
v -0.654135 0.113647 0.244498
vn -0.098582 0.921890 0.374700
v -0.454450 0.468430 0.288804
vn -0.291958 -0.895436 0.336088
v -0.189962 -0.253090 0.248599
vn 0.599740 -0.795112 0.090050
v -0.148948 -0.250760 0.259958
vn -0.161020 -0.092713 0.982587
v -0.890692 -0.263884 0.300843
vn -0.787352 -0.452332 -0.418895
v -0.593665 0.394545 0.324909
vn 0.035544 -0.763805 0.644468
v -0.568959 0.109254 0.263492
vn -0.575694 0.319962 0.752463
v -0.252554 0.091206 0.257334
vn 0.003707 -0.924959 0.380048
v -0.090462 -0.206051 0.293797
vn -0.722715 -0.690906 -0.018225
v -0.760288 -0.504054 0.291756
vn 0.233545 -0.972271 -0.012082
v 0.140640 -0.259428 0.248156
vn 0.911307 -0.411392 -0.016621
v 0.216608 -0.195374 0.280418
vn -0.723294 -0.690297 0.018348
v -0.384648 0.369833 0.275998
vn -0.121374 0.832747 -0.540185
v -0.355247 0.537733 0.346787
vn 0.678802 0.587956 -0.439926
v -0.304270 0.481243 0.287608
vn -0.639758 0.390424 0.662026
v -0.224203 0.043337 0.342155
vn -0.189310 -0.771729 0.607121
v -0.166644 -0.228982 0.286652
vn 0.432568 -0.900565 0.043217
v -0.128731 -0.235571 0.270526
vn 0.181923 0.767050 0.615255
v -0.020007 0.105110 0.297639
vn 0.906295 0.359422 0.222362
v 0.218042 0.012058 0.256300
vn -0.310489 0.261462 -0.913912
v -0.808203 -0.407575 0.297368
vn -0.806127 -0.129863 0.577317
v -0.268355 -0.122823 0.287505
vn -0.686649 -0.583801 0.433231
v -0.227879 -0.204348 0.272927
vn -0.381515 0.768547 0.513597
v -0.203044 0.129968 0.283157
vn 0.223559 0.866296 -0.446712
v -0.746797 -0.433361 0.287149
vn -0.660602 0.746427 -0.080324
v -0.395979 0.483467 0.312295
vn 0.151501 -0.590788 0.792475
v -0.322919 0.383306 0.310868
vn -0.764006 -0.077953 0.640483
v -0.234749 -0.060858 0.316701
vn 0.203098 0.807678 0.553541
v 0.092227 0.073077 0.290681
vn 0.985901 -0.160225 -0.048239
v 0.227792 -0.172195 0.289966
vn -0.476727 0.618689 0.624464
v -0.187653 0.105054 0.326215
vn 0.988261 -0.049590 0.144502
v 0.222546 -0.074712 0.239308
vn -0.018825 -0.015063 0.999709
v -0.574486 0.395919 0.340462
vn 0.050197 -0.993372 0.103408
v -0.546951 0.386543 0.316081
vn -0.136084 -0.950083 -0.280756
v -0.432489 0.401377 0.280817
vn -0.304471 -0.951087 0.052252
v 0.013801 -0.228967 0.386441
vn 0.722065 -0.687707 -0.075375
v 0.200493 -0.234309 0.294200
vn 0.998841 -0.033813 -0.034268
v 0.223204 -0.113043 0.280713
vn -0.162781 -0.934324 0.317083
v -0.089257 -0.194063 0.352731
vn 0.516126 0.730609 0.447018
v 0.190817 0.022198 0.337745
vn -0.015403 0.512688 0.858437
v -0.755367 -0.447298 0.325905
vn -0.625576 -0.128241 0.769551
v -0.177646 -0.075489 0.385963
vn 0.028185 0.769012 -0.638613
v -0.827697 -0.362997 0.331054
vn -0.815008 -0.218531 -0.536661
v -0.859807 -0.387965 0.338062
vn -0.415444 -0.596784 0.686480
v -0.804685 -0.437633 0.338258
vn -0.650578 -0.460136 0.604172
v -0.760244 -0.488633 0.326318
vn -0.204316 0.580910 0.787908
v -0.084937 0.111589 0.299771
vn 0.902691 -0.052989 0.427013
v -0.292102 0.413532 0.299382
vn -0.655710 -0.059570 0.752659
v -0.199756 -0.011214 0.382914
vn 0.591307 0.402546 0.698794
v -0.114954 0.106924 0.295911
vn -0.127487 0.675385 0.726362
v -0.058031 0.062389 0.344464
vn 0.509596 0.826011 0.240869
v -0.866011 -0.329928 0.375933
vn -0.102791 -0.351697 0.930453
v -0.472053 0.411451 0.305944
vn -0.344592 0.615978 0.708398
v -0.084115 0.042732 0.354824
vn 0.005213 0.783405 0.621490
v 0.018183 0.041598 0.359723
vn 0.402465 -0.912732 -0.070303
v 0.177674 -0.250941 0.352480
vn -0.711001 -0.630855 0.310642
v -0.705968 -0.504629 0.411285
vn -0.820346 0.149207 -0.552060
v -0.397448 0.494040 0.361914
vn 0.387307 0.658651 0.645114
v -0.114616 0.042895 0.318999
vn -0.360760 0.436914 0.823990
v -0.092117 0.079324 0.299542
vn 0.968307 0.230701 0.095705
v 0.229955 -0.029324 0.314816
vn 0.635651 0.304586 0.709348
v -0.810711 -0.386366 0.349137
vn -0.196099 -0.770873 0.606052
v -0.374178 0.400221 0.335775
vn 0.337256 -0.694201 0.635880
v -0.343957 0.461466 0.386484
vn -0.606183 -0.329402 0.723904
v -0.192113 -0.138831 0.365958
vn 0.697532 0.608114 0.379009
v -0.114132 0.027569 0.356316
vn -0.374900 -0.907765 0.188185
v -0.050524 -0.202980 0.395374
vn 0.127616 0.804713 0.579786
v 0.039447 0.063952 0.320467
vn 0.100050 0.824693 0.556660
v 0.091733 0.031200 0.377252
vn 0.403229 0.914747 -0.025381
v -0.693138 -0.453295 0.369555
vn 0.002601 -0.506480 -0.862248
v -0.673158 0.481366 0.442457
vn -0.822667 -0.230229 0.519821
v -0.403775 0.431209 0.346991
vn 0.238900 0.777280 0.582033
v -0.137820 0.125565 0.314954
vn 0.961311 0.215084 0.172106
v -0.121946 0.072851 0.344104
vn -0.053681 -0.994896 -0.085437
v 0.121073 -0.257990 0.341491
vn -0.784381 0.395719 0.477654
v -0.724950 -0.471603 0.379240
vn -0.810512 0.494642 -0.313687
v -0.706438 0.475661 0.463598
vn -0.332930 0.304367 -0.892479
v -0.437304 0.536892 0.397848
vn -0.481449 -0.690988 0.539206
v -0.123691 -0.167980 0.389963
vn 0.821995 -0.566082 -0.062248
v 0.210626 -0.224489 0.355108
vn -0.788199 -0.005290 0.615397
v -0.888960 -0.338281 0.386080
vn -0.553792 -0.806543 0.206890
v -0.417502 0.495554 0.398791
vn -0.272237 0.747593 -0.605798
v -0.392262 0.559302 0.394118
vn 0.952785 0.303091 0.018366
v -0.303607 0.500551 0.332799
vn -0.315744 0.346674 0.883246
v -0.174696 0.022955 0.390023
vn -0.211539 0.144078 0.966692
v -0.137351 -0.059340 0.411320
vn -0.543688 -0.056450 0.837387
v -0.141761 -0.107201 0.403327
vn -0.268920 -0.483478 -0.833025
v -0.726456 0.387913 0.485723
vn -0.402375 -0.799556 -0.445874
v -0.444892 0.505843 0.407559
vn 0.742549 0.536636 0.400803
v 0.212349 -0.067470 0.413397
vn -0.122048 -0.574863 -0.809096
v -0.520907 0.521345 0.419516
vn -0.166007 0.741986 -0.649537
v -0.497322 0.564246 0.415043
vn 0.994973 0.050236 0.086627
v 0.231405 -0.084504 0.373973
vn 0.997825 -0.065839 0.003254
v 0.220966 -0.125871 0.344614
vn -0.210078 0.966291 0.148828
v -0.552278 0.565987 0.449250
vn -0.243030 -0.601969 0.760637
v -0.389566 0.456332 0.379575
vn -0.434550 0.588229 -0.682022
v -0.622733 0.533518 0.432438
vn 0.431905 0.595019 0.677798
v -0.131820 0.082153 0.369007
vn -0.202114 0.603032 0.771688
v -0.023672 0.011224 0.389150
vn 0.669712 0.394604 0.629106
v -0.121458 0.052695 0.379898
vn -0.352889 0.580248 0.734017
v -0.017736 -0.015796 0.414216
vn 0.940552 -0.177063 0.289845
v -0.322110 0.527653 0.409066
vn -0.523895 -0.838087 0.152134
v -0.041538 -0.200996 0.440134
vn -0.225939 -0.961777 -0.154716
v 0.107367 -0.274869 0.425177
vn -0.085007 0.721278 0.687410
v 0.038646 -0.010906 0.422670
vn -0.670983 0.741018 -0.025943
v -0.682441 -0.451478 0.477324
vn -0.334553 0.645669 0.686430
v -0.656350 0.515988 0.491583
vn -0.127082 0.934051 0.333764
v -0.432609 0.568650 0.464652
vn 0.536980 0.817415 -0.208531
v -0.326103 0.555949 0.394011
vn -0.074857 0.583922 0.808351
v -0.079230 -0.031090 0.382897
vn 0.276088 -0.945803 -0.170974
v 0.161320 -0.263731 0.410676
vn 0.733511 -0.580600 -0.353364
v -0.663679 -0.507466 0.384921
vn -0.309183 0.482314 0.819621
v -0.096766 -0.072873 0.425528
vn -0.257734 -0.945940 0.196901
v -0.416935 0.496488 0.437553
vn 0.530945 0.713630 -0.456979
v -0.658726 -0.470365 0.399997
vn -0.773881 -0.339171 0.534856
v -0.069350 -0.155978 0.456536
vn -0.362097 0.634464 0.682891
v -0.048298 -0.047060 0.415399
vn -0.121841 0.985761 -0.115888
v -0.415215 0.577450 0.438748
vn 0.962783 -0.270273 -0.000963
v 0.221851 -0.211797 0.437069
vn -0.406433 0.557585 0.723817
v -0.051906 -0.082817 0.454503
vn -0.264362 0.700047 0.663361
v 0.026516 -0.044746 0.455172
vn 0.587286 0.701669 0.403429
v 0.180072 -0.067697 0.456558
vn 0.953487 0.246057 0.174122
v 0.225827 -0.126874 0.463176
vn 0.328840 -0.721682 0.609131
v -0.725426 0.332163 0.546854
vn -0.968021 0.217499 0.125016
v -0.746534 0.400460 0.514526
vn -0.079927 -0.978589 0.189672
v -0.517709 0.511448 0.448666
vn 0.729122 -0.674045 -0.118512
v -0.665980 0.460720 0.474873
vn -0.024151 -0.007307 0.999682
v -0.549504 0.540626 0.483728
vn 0.341427 0.800283 0.492925
v 0.147243 -0.035485 0.441326
vn 0.343785 -0.867753 0.358909
v -0.586734 0.506859 0.457142
vn -0.243498 -0.566182 0.787494
v -0.444898 0.525069 0.482424
vn 0.652374 -0.675316 0.344030
v -0.353097 0.507194 0.455211
vn 0.086374 0.791189 0.605442
v 0.100192 -0.020508 0.434619
vn 0.676557 0.278636 -0.681639
v -0.618398 -0.487801 0.450287
vn 0.169918 -0.820706 -0.545499
v -0.613193 -0.510321 0.457125
vn -0.369717 -0.822695 0.431836
v -0.418462 0.523417 0.502170
vn 0.624897 -0.766433 -0.148607
v 0.192718 -0.254282 0.448311
vn 0.963363 -0.264464 -0.044611
v 0.214737 -0.225035 0.503389
vn 0.027337 0.216296 0.975945
v -0.689291 0.467756 0.505461
vn -0.091918 0.842507 0.530785
v 0.099064 -0.064960 0.506445
vn -0.201639 -0.965072 0.167263
v -0.640729 -0.508176 0.473525
vn 0.526877 0.773788 -0.351644
v -0.561514 -0.496869 0.487952
vn -0.172584 0.374719 0.910934
v -0.471831 0.548374 0.486383
vn -0.008062 -0.993333 -0.115001
v 0.130210 -0.288468 0.486052
vn -0.422987 -0.785552 0.451652
v -0.673809 -0.486182 0.516647
vn 0.593860 0.793374 -0.133746
v -0.629967 -0.459088 0.478420
vn 0.161719 -0.736036 -0.657342
v -0.503208 -0.555780 0.511525
vn -0.583660 -0.709462 -0.394975
v -0.410734 0.516248 0.534018
vn -0.323619 -0.704215 0.631943
v -0.570202 -0.536026 0.506146
vn 0.597580 0.528035 -0.603388
v -0.476291 -0.532911 0.507761
vn -0.555259 0.468316 0.687290
v -0.035508 -0.107555 0.484445
vn -0.428652 -0.901603 -0.058054
v 0.080785 -0.268891 0.469982
vn 0.077712 0.852838 0.516361
v 0.128117 -0.085949 0.552802
vn -0.980084 0.005791 0.198499
v -0.691512 -0.464675 0.500430
vn 0.243904 -0.634372 0.733541
v -0.634939 -0.491738 0.503927
vn 0.171115 0.346556 0.922290
v -0.494447 -0.532159 0.526809
vn 0.567271 0.602675 0.561237
v -0.626064 -0.470530 0.500566
vn -0.606001 -0.794756 0.033564
v 0.011885 -0.229169 0.514066
vn -0.701433 0.495831 0.511999
v -0.413673 0.559177 0.500927
vn 0.762621 -0.210307 0.611702
v -0.456180 -0.559191 0.518202
vn -0.365432 0.714107 0.597085
v 0.030512 -0.108822 0.534964
vn 0.273113 -0.954421 -0.120377
v 0.173208 -0.273845 0.497863
vn 0.572488 0.733663 0.366055
v 0.181151 -0.089773 0.501804
vn 0.450074 -0.883222 -0.131726
v 0.195475 -0.275950 0.505367
vn -0.146805 0.914756 0.376390
v -0.382608 0.560627 0.573699
vn 0.896173 0.293043 0.333167
v 0.220456 -0.156483 0.568137
vn -0.893527 0.449010 0.000337
v -0.412245 0.539869 0.545521
vn 0.891416 0.402119 0.208992
v -0.344876 0.565276 0.512911
vn 0.845146 -0.456082 0.278779
v 0.210176 -0.268214 0.565360
vn 0.613100 -0.786638 -0.072858
v -0.351791 0.518307 0.539736
vn -0.372137 0.904643 -0.207692
v -0.675222 -0.419007 0.552649
vn -0.339934 -0.698299 0.629939
v -0.665202 -0.446117 0.575836
vn -0.698959 0.315897 0.641611
v -0.011262 -0.152650 0.546083
vn 0.505954 -0.802798 0.315477
v 0.182790 -0.268919 0.583851
vn 0.928283 0.194416 0.317008
v -0.357365 0.518548 0.596481
vn -0.411749 0.687194 0.598521
v 0.058762 -0.124981 0.572122
vn -0.512564 -0.857350 0.047210
v 0.063492 -0.273101 0.583677
vn 0.363839 -0.918700 -0.153661
v 0.111310 -0.297520 0.593533
vn -0.340305 -0.934756 0.102097
v 0.106500 -0.284254 0.543106
vn 0.554857 0.628139 0.545505
v 0.180414 -0.138602 0.589807
vn 0.932139 -0.059662 0.357152
v -0.648919 -0.421704 0.576184
vn 0.731563 -0.610779 -0.302925
v -0.363363 0.504049 0.568443
vn 0.427276 -0.712005 -0.557211
v -0.369061 0.466564 0.605821
vn -0.163330 -0.985423 0.047593
v 0.119379 -0.265117 0.583854
vn -0.024532 -0.983500 0.179236
v 0.144704 -0.291309 0.577785
vn -0.810178 -0.442812 0.384095
v 0.024095 -0.237290 0.570990
vn 0.807413 0.036878 0.588833
v 0.198815 -0.187342 0.607377
vn -0.331058 -0.662649 0.671786
v -0.680953 -0.420217 0.613817
vn 0.158633 0.737424 0.656537
v 0.145688 -0.120939 0.595052
vn 0.068084 -0.845753 0.529213
v 0.143410 -0.274008 0.629547
vn 0.201452 0.973756 0.105909
v -0.661228 -0.396901 0.625885
vn -0.456456 -0.407284 -0.791055
v -0.439282 0.481167 0.611013
vn -0.623584 0.751660 -0.214824
v -0.438341 0.520155 0.617805
vn -0.186282 0.642654 0.743166
v 0.147276 -0.141621 0.621674
vn 0.631608 -0.283955 0.721416
v 0.183211 -0.237462 0.622331
vn -0.674726 0.113364 -0.729310
v -0.630520 0.377013 0.649770
vn -0.481445 0.423422 -0.767414
v -0.572371 0.450039 0.637903
vn 0.009221 0.774895 0.632023
v 0.102080 -0.130447 0.609583
vn -0.233793 0.309894 -0.921578
v -0.517510 0.471398 0.630285
vn -0.315392 -0.678633 0.663314
v 0.093313 -0.282705 0.627716
vn 0.548129 0.251897 0.797560
v 0.174029 -0.186015 0.638222
vn -0.701600 0.340560 0.625920
v 0.032602 -0.176135 0.600154
vn 0.327127 -0.557422 0.763065
v 0.124111 -0.261376 0.639857
vn -0.015779 -0.965470 -0.260037
v -0.492006 0.449003 0.649290
vn 0.987512 -0.024934 0.155560
v -0.359744 0.479003 0.631063
vn -0.081112 0.550799 0.830687
v 0.132642 -0.169459 0.613886
vn 0.357825 -0.585496 -0.727431
v -0.392384 0.417802 0.639590
vn 0.835763 0.192209 0.514350
v 0.125014 -0.168242 0.647976
vn 0.726992 0.220509 0.650276
v 0.119574 -0.187290 0.622999
vn -0.264990 0.462262 0.846224
v 0.094493 -0.158340 0.653414
vn 0.345228 -0.526027 -0.777247
v -0.577263 0.407923 0.644807
vn 0.992094 -0.020821 -0.123756
v -0.370897 0.401762 0.673519
vn -0.685805 -0.234461 0.688984
v 0.056341 -0.221794 0.634604
vn 0.118492 -0.667349 0.735258
v -0.620164 0.328438 0.658984
vn 0.045448 0.255628 0.965706
v 0.129374 -0.213464 0.652029
vn -0.420884 0.892783 0.160607
v -0.550658 0.481098 0.665505
vn -0.379581 -0.681333 -0.625862
v -0.425319 0.414957 0.646785
vn 0.174353 -0.074558 0.981857
v 0.107946 -0.211260 0.660845
vn 0.112098 0.842672 0.526628
v -0.391585 0.539494 0.613074
vn -0.687797 0.447915 0.571233
v -0.596177 0.438107 0.676452
vn 0.484205 0.499756 0.718185
v -0.389683 0.478524 0.663602
vn 0.157374 -0.277205 0.947835
v -0.559096 0.447469 0.682717
vn -0.499927 -0.559283 0.661268
v -0.471836 0.457017 0.678674
vn -0.224969 0.676664 0.701081
v -0.481020 0.488270 0.679168
vn -0.031070 -0.464910 -0.884813
v -0.382288 0.337339 0.703786
vn 0.603303 -0.341066 -0.720902
v -0.374156 0.366618 0.690407
vn -0.588712 -0.304582 -0.748764
v -0.410307 0.310302 0.726533
vn -0.434997 0.337059 0.834967
v -0.441985 0.430917 0.698936
vn 0.633353 0.229026 -0.739196
v -0.316498 0.304284 0.745764
vn -0.070993 0.563613 0.822983
v -0.404579 0.379420 0.748477
vn 0.125170 -0.601880 -0.788716
v -0.366689 0.276946 0.736956
vn -0.952660 -0.302962 -0.025561
v -0.437503 0.384747 0.706781
vn -0.750513 -0.422786 -0.507919
v -0.421607 0.326354 0.733698
vn 0.057292 -0.596201 -0.800789
v -0.430916 0.210627 0.774549
vn 0.488911 0.610830 0.622779
v -0.385547 0.420605 0.709861
vn -0.930548 0.168092 0.325309
v -0.428084 0.321916 0.762521
vn 0.706723 0.647848 0.284316
v -0.352869 0.342154 0.756040
vn -0.099832 0.531785 0.840975
v -0.387875 0.329736 0.780615
vn 0.170239 -0.977393 0.125389
v -0.347068 0.265612 0.769489
vn 0.702877 -0.471538 0.532556
v -0.392010 0.242730 0.792023
vn -0.945356 0.201382 -0.256412
v -0.459555 0.188581 0.802850
vn -0.123949 0.289915 0.948992
v -0.416881 0.279771 0.801417
vn 0.007759 -0.136885 0.990557
v -0.349893 0.286137 0.798051
vn 0.223763 0.748066 0.624762
v -0.292466 0.303520 0.800462
vn -0.028052 -0.635099 0.771921
v -0.228351 0.246418 0.826083
vn 0.272169 -0.773771 -0.572016
v -0.249323 0.246785 0.786186
vn -0.651054 0.379007 0.657633
v -0.447561 0.221220 0.809558
vn 0.903156 0.350465 -0.247958
v -0.207922 0.264751 0.813735
vn -0.823773 -0.422321 -0.378210
v -0.486490 0.129463 0.821063
vn -0.385662 0.074348 0.919640
v -0.472705 0.147259 0.833725
vn 0.342482 0.061726 0.937494
v -0.424307 0.190473 0.822429
vn 0.717854 -0.673058 0.177984
v -0.432913 0.146519 0.815648
vn -0.816499 0.408246 -0.408245
v 0.317818 -0.025844 -0.433778
vn -0.275507 0.534950 0.798702
v 0.317818 -0.025844 -0.512052
vn -0.333336 -0.666669 -0.666663
v 0.317818 0.068104 -0.433778
vn 0.333332 -0.666666 0.666668
v 0.130077 0.068104 -0.512052
vn 0.816497 -0.408248 -0.408248
v 0.130077 0.068104 -0.433778
vn 0.436436 0.218218 0.872872
v 0.130077 -0.025844 -0.512052
vn 0.333333 0.666667 -0.666667
v 0.130077 -0.025844 -0.433778
vn 0.590472 0.790595 0.162179
v 0.222558 0.004943 -0.512052
vn 0.256528 -0.594254 0.762270
v 0.223663 0.038117 -0.512052
vn -0.455643 -0.435296 0.776471
v 0.317817 0.068103 -0.512052
vn -0.278994 0.604568 0.746097
v 0.284464 -0.012541 -0.512052
# 832 vertices, 0 vertices normals

f 1//1 7//7 5//5
f 1//1 5//5 3//3
f 1//1 3//3 2//2
f 1//1 4//4 7//7
f 2//2 4//4 1//1
f 3//3 6//6 2//2
f 2//2 8//8 4//4
f 5//5 6//6 3//3
f 2//2 6//6 8//8
f 4//4 8//8 7//7
f 7//7 8//8 5//5
f 5//5 8//8 6//6
f 9//9 11//11 10//10
f 9//9 10//10 16//16
f 11//11 9//9 12//12
f 10//10 11//11 13//13
f 10//10 14//14 16//16
f 12//12 15//15 11//11
f 10//10 13//13 14//14
f 11//11 15//15 13//13
f 9//9 16//16 12//12
f 16//16 15//15 12//12
f 16//16 14//14 15//15
f 13//13 15//15 14//14
f 20//20 19//19 48//48
f 17//17 18//18 21//21
f 48//48 17//17 20//20
f 20//20 17//17 21//21
f 18//18 65//65 85//85
f 18//18 25//25 21//21
f 22//22 19//19 20//20
f 18//18 85//85 25//25
f 23//23 22//22 20//20
f 23//23 20//20 26//26
f 21//21 25//25 24//24
f 20//20 21//21 26//26
f 23//23 26//26 27//27
f 77//77 23//23 27//27
f 24//24 25//25 66//66
f 27//27 26//26 31//31
f 25//25 29//29 66//66
f 58//58 27//27 51//51
f 24//24 30//30 28//28
f 24//24 66//66 53//53
f 51//51 27//27 31//31
f 51//51 31//31 36//36
f 31//31 30//30 24//24
f 24//24 53//53 31//31
f 36//36 34//34 51//51
f 52//52 51//51 34//34
f 31//31 53//53 32//32
f 31//31 32//32 35//35
f 53//53 84//84 32//32
f 32//32 33//33 35//35
f 35//35 33//33 49//49
f 35//35 37//37 38//38
f 31//31 35//35 38//38
f 38//38 39//39 31//31
f 31//31 39//39 36//36
f 54//54 36//36 40//40
f 39//39 41//41 36//36
f 54//54 40//40 42//42
f 40//40 36//36 46//46
f 36//36 41//41 43//43
f 36//36 43//43 46//46
f 42//42 40//40 45//45
f 40//40 46//46 45//45
f 42//42 45//45 44//44
f 45//45 46//46 61//61
f 44//44 45//45 62//62
f 46//46 43//43 50//50
f 47//47 46//46 50//50
f 47//47 61//61 46//46
f 62//62 45//45 61//61
f 68//68 18//18 17//17
f 68//68 65//65 18//18
f 52//52 34//34 59//59
f 34//34 36//36 56//56
f 38//38 37//37 67//67
f 39//39 38//38 60//60
f 41//41 55//55 43//43
f 55//55 41//41 64//64
f 25//25 85//85 69//69
f 70//70 58//58 51//51
f 53//53 63//63 84//84
f 32//32 84//84 33//33
f 35//35 49//49 71//71
f 35//35 71//71 37//37
f 67//67 37//37 71//71
f 36//36 54//54 57//57
f 67//67 60//60 38//38
f 39//39 60//60 64//64
f 39//39 64//64 41//41
f 43//43 55//55 50//50
f 22//22 23//23 86//86
f 58//58 77//77 27//27
f 52//52 70//70 51//51
f 66//66 63//63 53//53
f 34//34 56//56 59//59
f 56//56 36//36 57//57
f 77//77 86//86 23//23
f 25//25 69//69 29//29
f 42//42 78//78 54//54
f 64//64 99//99 55//55
f 72//72 42//42 44//44
f 55//55 99//99 50//50
f 47//47 50//50 74//74
f 62//62 79//79 44//44
f 33//33 84//84 73//73
f 49//49 33//33 98//98
f 88//88 56//56 57//57
f 71//71 95//95 67//67
f 47//47 89//89 61//61
f 83//83 48//48 19//19
f 29//29 97//97 66//66
f 105//105 58//58 70//70
f 56//56 88//88 59//59
f 72//72 78//78 42//42
f 82//82 79//79 62//62
f 29//29 76//76 97//97
f 66//66 106//106 63//63
f 59//59 102//102 52//52
f 94//94 59//59 87//87
f 124//124 88//88 57//57
f 99//99 64//64 108//108
f 74//74 50//50 99//99
f 80//80 17//17 48//48
f 93//93 65//65 68//68
f 69//69 76//76 29//29
f 94//94 102//102 59//59
f 33//33 73//73 98//98
f 60//60 67//67 95//95
f 60//60 90//90 64//64
f 89//89 62//62 61//61
f 80//80 68//68 17//17
f 71//71 49//49 98//98
f 60//60 95//95 90//90
f 90//90 108//108 64//64
f 47//47 74//74 89//89
f 96//96 100//100 75//75
f 100//100 91//91 75//75
f 81//81 48//48 83//83
f 86//86 112//112 22//22
f 58//58 105//105 77//77
f 97//97 106//106 66//66
f 63//63 106//106 92//92
f 63//63 92//92 84//84
f 108//108 125//125 99//99
f 44//44 79//79 72//72
f 116//116 65//65 93//93
f 145//145 69//69 85//85
f 69//69 145//145 76//76
f 105//105 86//86 77//77
f 88//88 87//87 59//59
f 82//82 62//62 89//89
f 81//81 80//80 48//48
f 19//19 22//22 83//83
f 98//98 95//95 71//71
f 78//78 57//57 54//54
f 22//22 110//110 83//83
f 102//102 70//70 52//52
f 74//74 115//115 89//89
f 105//105 112//112 86//86
f 57//57 78//78 124//124
f 75//75 101//101 103//103
f 109//109 80//80 81//81
f 84//84 92//92 73//73
f 88//88 124//124 107//107
f 129//129 95//95 98//98
f 91//91 101//101 75//75
f 102//102 105//105 70//70
f 141//141 98//98 73//73
f 80//80 93//93 68//68
f 85//85 65//65 116//116
f 140//140 102//102 94//94
f 72//72 104//104 78//78
f 79//79 104//104 72//72
f 91//91 100//100 149//149
f 101//101 91//91 118//118
f 116//116 145//145 85//85
f 99//99 115//115 74//74
f 93//93 80//80 109//109
f 92//92 171//171 73//73
f 115//115 169//169 89//89
f 128//128 91//91 149//149
f 103//103 117//117 75//75
f 101//101 118//118 120//120
f 140//140 94//94 162//162
f 78//78 122//122 124//124
f 99//99 125//125 115//115
f 96//96 133//133 100//100
f 91//91 128//128 118//118
f 111//111 103//103 101//101
f 22//22 112//112 110//110
f 162//162 94//94 87//87
f 95//95 129//129 90//90
f 169//169 82//82 89//89
f 104//104 122//122 78//78
f 82//82 104//104 79//79
f 123//123 81//81 83//83
f 123//123 83//83 110//110
f 97//97 167//167 106//106
f 140//140 105//105 102//102
f 106//106 167//167 92//92
f 171//171 141//141 73//73
f 90//90 189//189 108//108
f 108//108 168//168 125//125
f 117//117 96//96 75//75
f 105//105 147//147 112//112
f 149//149 100//100 133//133
f 105//105 140//140 113//113
f 148//148 122//122 104//104
f 97//97 146//146 167//167
f 129//129 114//114 90//90
f 120//120 143//143 101//101
f 131//131 110//110 112//112
f 146//146 97//97 76//76
f 105//105 113//113 147//147
f 135//135 88//88 107//107
f 189//189 168//168 108//108
f 132//132 104//104 82//82
f 119//119 96//96 117//117
f 87//87 88//88 135//135
f 132//132 148//148 104//104
f 154//154 115//115 125//125
f 117//117 103//103 111//111
f 81//81 126//126 109//109
f 145//145 146//146 76//76
f 132//132 82//82 169//169
f 121//121 93//93 109//109
f 114//114 189//189 90//90
f 128//128 155//155 118//118
f 118//118 155//155 120//120
f 126//126 81//81 123//123
f 116//116 93//93 170//170
f 110//110 131//131 123//123
f 141//141 129//129 98//98
f 155//155 128//128 142//142
f 111//111 101//101 143//143
f 126//126 121//121 109//109
f 127//127 116//116 170//170
f 151//151 120//120 155//155
f 121//121 126//126 144//144
f 131//131 112//112 150//150
f 114//114 192//192 189//189
f 158//158 124//124 122//122
f 158//158 122//122 148//148
f 154//154 169//169 115//115
f 164//164 119//119 117//117
f 121//121 170//170 93//93
f 126//126 123//123 137//137
f 150//150 112//112 147//147
f 167//167 171//171 92//92
f 135//135 162//162 87//87
f 134//134 164//164 117//117
f 121//121 144//144 130//130
f 147//147 113//113 161//161
f 124//124 172//172 107//107
f 133//133 96//96 138//138
f 136//136 142//142 128//128
f 161//161 113//113 140//140
f 158//158 172//172 124//124
f 96//96 119//119 138//138
f 136//136 128//128 149//149
f 117//117 111//111 134//134
f 120//120 151//151 143//143
f 139//139 111//111 143//143
f 144//144 126//126 153//153
f 168//168 154//154 125//125
f 170//170 121//121 130//130
f 145//145 116//116 127//127
f 145//145 160//160 146//146
f 152//152 111//111 139//139
f 146//146 166//166 167//167
f 141//141 114//114 129//129
f 154//154 168//168 177//177
f 152//152 134//134 111//111
f 136//136 149//149 179//179
f 131//131 137//137 123//123
f 145//145 127//127 160//160
f 198//198 131//131 150//150
f 186//186 147//147 161//161
f 143//143 151//151 156//156
f 165//165 157//157 184//184
f 153//153 126//126 137//137
f 137//137 131//131 198//198
f 167//167 193//193 171//171
f 176//176 158//158 148//148
f 179//179 149//149 133//133
f 165//165 200//200 153//153
f 144//144 153//153 159//159
f 165//165 153//153 137//137
f 162//162 206//206 140//140
f 218//218 114//114 141//141
f 164//164 163//163 119//119
f 155//155 142//142 210//210
f 151//151 155//155 210//210
f 181//181 134//134 152//152
f 151//151 184//184 157//157
f 156//156 151//151 157//157
f 153//153 200//200 159//159
f 156//156 139//139 143//143
f 130//130 144//144 178//178
f 150//150 147//147 186//186
f 161//161 140//140 206//206
f 169//169 173//173 132//132
f 119//119 202//202 138//138
f 181//181 164//164 134//134
f 184//184 200//200 165//165
f 178//178 144//144 159//159
f 167//167 166//166 193//193
f 172//172 135//135 107//107
f 132//132 183//183 148//148
f 154//154 173//173 169//169
f 164//164 181//181 180//180
f 156//156 157//157 174//174
f 165//165 174//174 157//157
f 160//160 166//166 146//146
f 176//176 211//211 158//158
f 202//202 119//119 163//163
f 179//179 187//187 136//136
f 232//232 142//142 136//136
f 180//180 163//163 164//164
f 191//191 139//139 156//156
f 130//130 175//175 170//170
f 170//170 182//182 127//127
f 231//231 150//150 186//186
f 218//218 141//141 171//171
f 211//211 172//172 158//158
f 168//168 189//189 219//219
f 175//175 130//130 178//178
f 228//228 162//162 135//135
f 154//154 177//177 173//173
f 191//191 197//197 139//139
f 197//197 152//152 139//139
f 165//165 204//204 174//174
f 165//165 137//137 204//204
f 170//170 175//175 182//182
f 183//183 176//176 148//148
f 187//187 232//232 136//136
f 156//156 207//207 191//191
f 204//204 137//137 185//185
f 127//127 182//182 160//160
f 206//206 186//186 161//161
f 193//193 268//268 171//171
f 173//173 183//183 132//132
f 138//138 179//179 133//133
f 142//142 232//232 210//210
f 184//184 151//151 210//210
f 228//228 206//206 162//162
f 172//172 188//188 135//135
f 215//215 181//181 152//152
f 268//268 218//218 171//171
f 174//174 225//225 156//156
f 247//247 192//192 114//114
f 190//190 180//180 181//181
f 197//197 215//215 152//152
f 225//225 207//207 156//156
f 150//150 231//231 198//198
f 199//199 188//188 172//172
f 218//218 247//247 114//114
f 216//216 219//219 189//189
f 222//222 187//187 179//179
f 163//163 180//180 202//202
f 160//160 182//182 201//201
f 216//216 189//189 192//192
f 210//210 200//200 184//184
f 159//159 200//200 233//233
f 241//241 174//174 204//204
f 227//227 186//186 206//206
f 226//226 193//193 166//166
f 246//246 206//206 228//228
f 202//202 180//180 190//190
f 195//195 190//190 181//181
f 195//195 181//181 215//215
f 182//182 175//175 205//205
f 182//182 205//205 260//260
f 185//185 137//137 198//198
f 182//182 250//250 201//201
f 188//188 228//228 135//135
f 168//168 219//219 177//177
f 220//220 196//196 221//221
f 214//214 196//196 203//203
f 159//159 235//235 178//178
f 174//174 241//241 225//225
f 160//160 201//201 166//166
f 221//221 224//224 220//220
f 194//194 190//190 195//195
f 196//196 208//208 203//203
f 205//205 175//175 238//238
f 231//231 186//186 227//227
f 193//193 226//226 209//209
f 177//177 212//212 173//173
f 196//196 214//214 221//221
f 207//207 236//236 191//191
f 250//250 182//182 260//260
f 229//229 199//199 172//172
f 213//213 138//138 202//202
f 202//202 190//190 213//213
f 217//217 233//233 210//210
f 210//210 233//233 200//200
f 236//236 197//197 191//191
f 193//193 209//209 272//272
f 193//193 272//272 268//268
f 222//222 179//179 138//138
f 213//213 222//222 138//138
f 175//175 178//178 235//235
f 214//214 203//203 271//271
f 183//183 211//211 176//176
f 190//190 194//194 213//213
f 232//232 217//217 210//210
f 223//223 194//194 195//195
f 235//235 159//159 233//233
f 235//235 238//238 175//175
f 225//225 236//236 207//207
f 172//172 211//211 229//229
f 244//244 187//187 222//222
f 244//244 267//267 187//187
f 230//230 204//204 185//185
f 205//205 282//282 260//260
f 185//185 198//198 231//231
f 173//173 276//276 183//183
f 236//236 215//215 197//197
f 205//205 239//239 265//265
f 247//247 218//218 254//254
f 192//192 247//247 216//216
f 240//240 214//214 271//271
f 239//239 271//271 265//265
f 227//227 206//206 242//242
f 242//242 206//206 246//246
f 213//213 194//194 252//252
f 252//252 194//194 223//223
f 221//221 214//214 234//234
f 222//222 213//213 252//252
f 267//267 232//232 187//187
f 217//217 232//232 248//248
f 253//253 236//236 225//225
f 241//241 204//204 230//230
f 271//271 258//258 259//259
f 282//282 205//205 265//265
f 199//199 274//274 188//188
f 276//276 211//211 183//183
f 252//252 244//244 222//222
f 224//224 221//221 249//249
f 255//255 196//196 220//220
f 238//238 245//245 205//205
f 261//261 230//230 185//185
f 271//271 203//203 258//258
f 271//271 259//259 265//265
f 201//201 226//226 166//166
f 228//228 188//188 274//274
f 268//268 254//254 218//218
f 212//212 276//276 173//173
f 215//215 236//236 195//195
f 225//225 241//241 253//253
f 208//208 258//258 203//203
f 236//236 237//237 195//195
f 205//205 245//245 239//239
f 255//255 208//208 196//196
f 177//177 243//243 212//212
f 263//263 252//252 223//223
f 235//235 233//233 238//238
f 274//274 283//283 228//228
f 256//256 247//247 254//254
f 249//249 221//221 234//234
f 264//264 255//255 220//220
f 234//234 214//214 240//240
f 283//283 246//246 228//228
f 276//276 229//229 211//211
f 248//248 232//232 267//267
f 220//220 224//224 264//264
f 233//233 217//217 248//248
f 237//237 223//223 195//195
f 253//253 237//237 236//236
f 208//208 257//257 258//258
f 201//201 266//266 226//226
f 226//226 266//266 209//209
f 268//268 305//305 254//254
f 251//251 274//274 199//199
f 234//234 240//240 269//269
f 241//241 230//230 253//253
f 231//231 227//227 270//270
f 219//219 243//243 177//177
f 234//234 269//269 249//249
f 239//239 245//245 271//271
f 208//208 255//255 279//279
f 231//231 261//261 185//185
f 247//247 256//256 216//216
f 224//224 277//277 321//321
f 238//238 233//233 245//245
f 208//208 279//279 257//257
f 201//201 364//364 266//266
f 199//199 262//262 251//251
f 262//262 199//199 229//229
f 263//263 267//267 244//244
f 237//237 285//285 223//223
f 230//230 237//237 253//253
f 286//286 230//230 261//261
f 242//242 246//246 275//275
f 244//244 252//252 263//263
f 224//224 249//249 277//277
f 255//255 264//264 273//273
f 237//237 230//230 286//286
f 271//271 245//245 278//278
f 255//255 273//273 279//279
f 209//209 298//298 272//272
f 290//290 277//277 249//249
f 269//269 290//290 249//249
f 261//261 231//231 270//270
f 258//258 281//281 259//259
f 260//260 288//288 250//250
f 250//250 364//364 201//201
f 297//297 242//242 275//275
f 278//278 245//245 292//292
f 281//281 317//317 259//259
f 297//297 227//227 242//242
f 246//246 283//283 275//275
f 305//305 284//284 254//254
f 284//284 256//256 254//254
f 229//229 276//276 262//262
f 224//224 321//321 264//264
f 245//245 233//233 292//292
f 271//271 278//278 240//240
f 286//286 285//285 237//237
f 287//287 257//257 279//279
f 265//265 358//358 282//282
f 260//260 282//282 288//288
f 250//250 288//288 364//364
f 310//310 276//276 212//212
f 270//270 227//227 297//297
f 266//266 298//298 209//209
f 327//327 251//251 262//262
f 314//314 216//216 256//256
f 267//267 319//319 248//248
f 279//279 273//273 293//293
f 279//279 293//293 287//287
f 304//304 286//286 261//261
f 261//261 270//270 304//304
f 265//265 259//259 317//317
f 257//257 281//281 258//258
f 268//268 272//272 305//305
f 216//216 314//314 219//219
f 248//248 316//316 233//233
f 299//299 283//283 274//274
f 251//251 327//327 274//274
f 314//314 243//243 219//219
f 291//291 319//319 267//267
f 263//263 291//291 267//267
f 320//320 312//312 307//307
f 307//307 294//294 320//320
f 307//307 289//289 294//294
f 292//292 233//233 316//316
f 269//269 240//240 295//295
f 263//263 223//223 285//285
f 287//287 293//293 296//296
f 257//257 287//287 281//281
f 358//358 356//356 282//282
f 306//306 300//300 307//307
f 300//300 301//301 307//307
f 307//307 301//301 302//302
f 302//302 289//289 307//307
f 277//277 290//290 303//303
f 319//319 316//316 248//248
f 264//264 280//280 273//273
f 317//317 358//358 265//265
f 262//262 328//328 327//327
f 315//315 212//212 243//243
f 312//312 311//311 307//307
f 320//320 294//294 322//322
f 308//308 269//269 295//295
f 269//269 308//308 290//290
f 295//295 278//278 292//292
f 278//278 295//295 240//240
f 287//287 381//381 281//281
f 327//327 299//299 274//274
f 256//256 309//309 314//314
f 328//328 262//262 276//276
f 315//315 310//310 212//212
f 295//295 292//292 316//316
f 280//280 293//293 273//273
f 285//285 286//286 304//304
f 281//281 358//358 317//317
f 352//352 298//298 266//266
f 298//298 326//326 272//272
f 309//309 256//256 284//284
f 310//310 328//328 276//276
f 290//290 308//308 303//303
f 304//304 270//270 382//382
f 282//282 356//356 288//288
f 266//266 364//364 348//348
f 283//283 299//299 275//275
f 334//334 307//307 311//311
f 324//324 306//306 307//307
f 307//307 334//334 324//324
f 322//322 337//337 320//320
f 318//318 289//289 302//302
f 294//294 289//289 331//331
f 303//303 339//339 277//277
f 280//280 264//264 321//321
f 323//323 295//295 316//316
f 305//305 272//272 326//326
f 300//300 366//366 301//301
f 302//302 301//301 313//313
f 289//289 330//330 331//331
f 295//295 388//388 308//308
f 285//285 380//380 263//263
f 266//266 348//348 352//352
f 289//289 318//318 330//330
f 322//322 294//294 331//331
f 339//339 321//321 277//277
f 303//303 308//308 333//333
f 308//308 388//388 333//333
f 280//280 321//321 362//362
f 287//287 372//372 381//381
f 288//288 356//356 364//364
f 320//320 342//342 312//312
f 330//330 318//318 343//343
f 280//280 363//363 293//293
f 300//300 306//306 340//340
f 300//300 354//354 366//366
f 324//324 325//325 306//306
f 301//301 341//341 313//313
f 337//337 347//347 320//320
f 302//302 313//313 329//329
f 291//291 263//263 380//380
f 287//287 296//296 372//372
f 243//243 399//399 315//315
f 341//341 301//301 366//366
f 347//347 342//342 320//320
f 318//318 302//302 329//329
f 330//330 338//338 331//331
f 319//319 332//332 369//369
f 319//319 291//291 332//332
f 291//291 371//371 332//332
f 390//390 285//285 304//304
f 281//281 381//381 358//358
f 352//352 326//326 298//298
f 373//373 284//284 305//305
f 243//243 314//314 399//399
f 310//310 315//315 404//404
f 340//340 354//354 300//300
f 340//340 306//306 325//325
f 350//350 324//324 334//334
f 322//322 361//361 337//337
f 331//331 338//338 332//332
f 295//295 323//323 388//388
f 363//363 296//296 293//293
f 309//309 353//353 314//314
f 404//404 328//328 310//310
f 324//324 346//346 325//325
f 351//351 324//324 350//350
f 351//351 346//346 324//324
f 343//343 355//355 330//330
f 322//322 331//331 361//361
f 332//332 371//371 331//331
f 362//362 363//363 280//280
f 382//382 270//270 297//297
f 327//327 344//344 299//299
f 417//417 327//327 328//328
f 313//313 341//341 335//335
f 337//337 336//336 347//347
f 374//374 336//336 337//337
f 355//355 368//368 330//330
f 330//330 368//368 338//338
f 332//332 338//338 369//369
f 371//371 291//291 377//377
f 321//321 339//339 362//362
f 314//314 353//353 399//399
f 399//399 404//404 315//315
f 347//347 346//346 351//351
f 329//329 313//313 335//335
f 329//329 343//343 318//318
f 297//297 275//275 407//407
f 407//407 275//275 299//299
f 417//417 344//344 327//327
f 417//417 328//328 404//404
f 359//359 334//334 311//311
f 385//385 350//350 334//334
f 311//311 312//312 345//345
f 351//351 342//342 347//347
f 336//336 346//346 347//347
f 335//335 341//341 346//346
f 337//337 361//361 374//374
f 333//333 339//339 303//303
f 333//333 388//388 411//411
f 363//363 391//391 296//296
f 344//344 407//407 299//299
f 305//305 326//326 373//373
f 284//284 353//353 309//309
f 312//312 342//342 345//345
f 367//367 355//355 343//343
f 331//331 371//371 361//361
f 319//319 369//369 370//370
f 353//353 284//284 373//373
f 334//334 359//359 385//385
f 341//341 366//366 346//346
f 335//335 346//346 336//336
f 335//335 336//336 374//374
f 355//355 379//379 368//368
f 368//368 369//369 338//338
f 390//390 380//380 285//285
f 390//390 304//304 431//431
f 296//296 391//391 372//372
f 349//349 340//340 325//325
f 325//325 346//346 366//366
f 351//351 350//350 360//360
f 380//380 377//377 291//291
f 431//431 304//304 382//382
f 382//382 297//297 416//416
f 408//408 326//326 352//352
f 365//365 385//385 359//359
f 366//366 410//410 325//325
f 413//413 379//379 355//355
f 367//367 343//343 329//329
f 355//355 367//367 357//357
f 379//379 375//375 368//368
f 316//316 436//436 323//323
f 397//397 362//362 339//339
f 432//432 358//358 381//381
f 344//344 437//437 407//407
f 393//393 359//359 311//311
f 410//410 349//349 325//325
f 385//385 360//360 350//350
f 374//374 329//329 335//335
f 395//395 374//374 361//361
f 388//388 323//323 376//376
f 411//411 420//420 333//333
f 339//339 333//333 401//401
f 339//339 401//401 397//397
f 364//364 478//478 348//348
f 353//353 383//383 399//399
f 354//354 340//340 384//384
f 405//405 366//366 354//354
f 393//393 311//311 345//345
f 351//351 394//394 342//342
f 379//379 413//413 378//378
f 427//427 355//355 357//357
f 369//369 368//368 375//375
f 369//369 375//375 370//370
f 411//411 388//388 376//376
f 401//401 333//333 389//389
f 362//362 397//397 363//363
f 469//469 356//356 358//358
f 356//356 478//478 364//364
f 478//478 352//352 348//348
f 398//398 408//408 352//352
f 384//384 405//405 354//354
f 340//340 349//349 384//384
f 410//410 366//366 405//405
f 345//345 342//342 403//403
f 329//329 374//374 395//395
f 356//356 469//469 478//478
f 484//484 297//297 407//407
f 448//448 407//407 437//437
f 373//373 326//326 408//408
f 417//417 437//437 344//344
f 365//365 359//359 392//392
f 438//438 385//385 365//365
f 394//394 403//403 342//342
f 413//413 355//355 427//427
f 387//387 379//379 378//378
f 386//386 357//357 367//367
f 387//387 375//375 379//379
f 436//436 316//316 319//319
f 333//333 420//420 389//389
f 391//391 363//363 397//397
f 484//484 416//416 297//297
f 365//365 400//400 438//438
f 385//385 438//438 360//360
f 413//413 426//426 378//378
f 395//395 386//386 367//367
f 395//395 367//367 329//329
f 396//396 361//361 371//371
f 436//436 319//319 370//370
f 391//391 381//381 372//372
f 391//391 406//406 381//381
f 432//432 381//381 406//406
f 382//382 416//416 470//470
f 360//360 394//394 351//351
f 419//419 357//357 386//386
f 376//376 323//323 436//436
f 377//377 380//380 440//440
f 440//440 380//380 390//390
f 421//421 389//389 420//420
f 432//432 469//469 358//358
f 373//373 383//383 353//353
f 409//409 404//404 399//399
f 384//384 349//349 410//410
f 345//345 425//425 393//393
f 434//434 427//427 357//357
f 376//376 436//436 450//450
f 396//396 371//371 377//377
f 420//420 411//411 429//429
f 401//401 389//389 402//402
f 402//402 397//397 401//401
f 391//391 402//402 406//406
f 382//382 483//483 431//431
f 382//382 470//470 483//483
f 373//373 408//408 383//383
f 365//365 418//418 400//400
f 438//438 439//439 360//360
f 413//413 427//427 445//445
f 370//370 375//375 415//415
f 396//396 395//395 361//361
f 397//397 402//402 391//391
f 359//359 423//423 392//392
f 433//433 423//423 359//359
f 425//425 345//345 403//403
f 378//378 426//426 435//435
f 378//378 435//435 387//387
f 387//387 435//435 414//414
f 414//414 434//434 357//357
f 414//414 357//357 419//419
f 389//389 406//406 402//402
f 383//383 409//409 399//399
f 365//365 392//392 418//418
f 439//439 497//497 360//360
f 412//412 425//425 403//403
f 387//387 414//414 419//419
f 387//387 419//419 375//375
f 386//386 395//395 428//428
f 497//497 394//394 360//360
f 375//375 419//419 415//415
f 428//428 419//419 386//386
f 436//436 370//370 461//461
f 429//429 430//430 420//420
f 389//389 421//421 406//406
f 431//431 483//483 468//468
f 408//408 441//441 485//485
f 418//418 449//449 400//400
f 418//418 392//392 442//442
f 359//359 393//393 433//433
f 409//409 424//424 404//404
f 424//424 417//417 404//404
f 377//377 440//440 482//482
f 352//352 478//478 474//474
f 398//398 441//441 408//408
f 383//383 408//408 485//485
f 384//384 410//410 405//405
f 439//439 423//423 487//487
f 461//461 370//370 415//415
f 411//411 376//376 450//450
f 429//429 411//411 450//450
f 422//422 416//416 484//484
f 352//352 474//474 398//398
f 449//449 438//438 400//400
f 443//443 392//392 423//423
f 443//443 423//423 439//439
f 487//487 423//423 433//433
f 497//497 439//439 487//487
f 394//394 458//458 403//403
f 413//413 445//445 426//426
f 427//427 434//434 445//445
f 463//463 459//459 435//435
f 414//414 435//435 459//459
f 428//428 415//415 419//419
f 396//396 428//428 395//395
f 396//396 377//377 494//494
f 430//430 456//456 420//420
f 424//424 437//437 417//417
f 418//418 442//442 452//452
f 443//443 442//442 392//392
f 433//433 393//393 480//480
f 434//434 414//414 459//459
f 461//461 473//473 436//436
f 450//450 436//436 460//460
f 390//390 431//431 440//440
f 452//452 449//449 418//418
f 426//426 444//444 435//435
f 435//435 444//444 463//463
f 459//459 445//445 434//434
f 476//476 460//460 436//436
f 450//450 446//446 429//429
f 447//447 430//430 429//429
f 416//416 422//422 454//454
f 451//451 448//448 437//437
f 449//449 443//443 438//438
f 438//438 443//443 439//439
f 444//444 426//426 445//445
f 446//446 462//462 447//447
f 446//446 447//447 429//429
f 377//377 482//482 494//494
f 421//421 420//420 456//456
f 406//406 421//421 432//432
f 470//470 416//416 454//454
f 487//487 433//433 480//480
f 415//415 428//428 453//453
f 450//450 465//465 446//446
f 383//383 485//485 409//409
f 424//424 451//451 437//437
f 452//452 442//442 457//457
f 425//425 412//412 491//491
f 453//453 461//461 415//415
f 460//460 455//455 450//450
f 473//473 476//476 436//436
f 494//494 453//453 396//396
f 447//447 462//462 467//467
f 483//483 470//470 490//490
f 448//448 484//484 407//407
f 451//451 409//409 485//485
f 451//451 424//424 409//409
f 463//463 444//444 445//445
f 394//394 497//497 458//458
f 465//465 450//450 455//455
f 396//396 453//453 428//428
f 431//431 468//468 496//496
f 449//449 452//452 509//509
f 449//449 486//486 443//443
f 486//486 442//442 443//443
f 393//393 425//425 480//480
f 458//458 412//412 403//403
f 445//445 459//459 463//463
f 462//462 446//446 465//465
f 462//462 466//466 467//467
f 513//513 469//469 432//432
f 484//484 502//502 422//422
f 452//452 520//520 509//509
f 442//442 486//486 457//457
f 488//488 412//412 458//458
f 498//498 464//464 455//455
f 465//465 455//455 464//464
f 472//472 466//466 462//462
f 447//447 456//456 430//430
f 489//489 516//516 464//464
f 464//464 471//471 465//465
f 460//460 475//475 455//455
f 462//462 465//465 471//471
f 461//461 453//453 512//512
f 447//447 477//477 456//456
f 440//440 431//431 482//482
f 431//431 496//496 482//482
f 398//398 474//474 479//479
f 480//480 425//425 491//491
f 464//464 516//516 471//471
f 471//471 472//472 462//462
f 512//512 473//473 461//461
f 472//472 505//505 466//466
f 457//457 520//520 452//452
f 471//471 516//516 517//517
f 533//533 475//475 460//460
f 506//506 467//467 466//466
f 467//467 481//481 447//447
f 513//513 507//507 469//469
f 507//507 478//478 469//469
f 490//490 470//470 454//454
f 448//448 551//551 484//484
f 441//441 398//398 479//479
f 509//509 486//486 449//449
f 503//503 458//458 497//497
f 475//475 498//498 455//455
f 505//505 472//472 492//492
f 453//453 494//494 522//522
f 506//506 534//534 467//467
f 467//467 534//534 481//481
f 447//447 481//481 477//477
f 456//456 495//495 421//421
f 537//537 482//482 496//496
f 483//483 490//490 546//546
f 478//478 507//507 474//474
f 486//486 515//515 457//457
f 487//487 480//480 539//539
f 480//480 491//491 555//555
f 487//487 499//499 497//497
f 488//488 491//491 412//412
f 510//510 472//472 471//471
f 492//492 472//472 510//510
f 453//453 522//522 512//512
f 495//495 456//456 477//477
f 432//432 421//421 495//495
f 485//485 441//441 508//508
f 473//473 493//493 476//476
f 466//466 505//505 506//506
f 514//514 496//496 468//468
f 422//422 502//502 454//454
f 485//485 508//508 451//451
f 487//487 539//539 499//499
f 500//500 498//498 475//475
f 460//460 548//548 533//533
f 476//476 548//548 460//460
f 493//493 473//473 512//512
f 494//494 482//482 535//535
f 537//537 496//496 524//524
f 559//559 479//479 474//474
f 509//509 515//515 486//486
f 555//555 539//539 480//480
f 489//489 532//532 516//516
f 510//510 471//471 517//517
f 534//534 523//523 481//481
f 432//432 495//495 513//513
f 468//468 483//483 519//519
f 525//525 448//448 451//451
f 497//497 499//499 503//503
f 498//498 562//562 464//464
f 475//475 521//521 500//500
f 504//504 510//510 517//517
f 511//511 492//492 510//510
f 477//477 481//481 523//523
f 524//524 496//496 530//530
f 546//546 490//490 501//501
f 454//454 580//580 490//490
f 502//502 484//484 550//550
f 484//484 551//551 550//550
f 489//489 464//464 562//562
f 517//517 500//500 521//521
f 475//475 533//533 521//521
f 549//549 530//530 496//496
f 549//549 496//496 514//514
f 519//519 483//483 546//546
f 508//508 525//525 451//451
f 504//504 517//517 521//521
f 506//506 505//505 518//518
f 493//493 548//548 476//476
f 592//592 522//522 494//494
f 535//535 482//482 537//537
f 507//507 559//559 474//474
f 511//511 547//547 492//492
f 541//541 504//504 521//521
f 505//505 492//492 547//547
f 518//518 534//534 506//506
f 527//527 493//493 512//512
f 522//522 527//527 512//512
f 523//523 543//543 477//477
f 477//477 543//543 528//528
f 514//514 468//468 519//519
f 580//580 538//538 490//490
f 479//479 508//508 441//441
f 525//525 551//551 448//448
f 500//500 552//552 498//498
f 500//500 517//517 516//516
f 504//504 511//511 510//510
f 518//518 584//584 534//534
f 534//534 617//617 523//523
f 528//528 495//495 477//477
f 503//503 488//488 458//458
f 532//532 489//489 526//526
f 552//552 562//562 498//498
f 547//547 518//518 505//505
f 521//521 536//536 541//541
f 533//533 536//536 521//521
f 527//527 542//542 493//493
f 509//509 520//520 574//574
f 499//499 539//539 594//594
f 489//489 562//562 526//526
f 547//547 511//511 582//582
f 511//511 504//504 554//554
f 542//542 548//548 493//493
f 580//580 454//454 502//502
f 503//503 531//531 488//488
f 526//526 540//540 532//532
f 532//532 500//500 516//516
f 541//541 536//536 529//529
f 522//522 591//591 527//527
f 528//528 541//541 529//529
f 494//494 535//535 592//592
f 544//544 537//537 524//524
f 530//530 544//544 524//524
f 504//504 541//541 554//554
f 533//533 577//577 536//536
f 529//529 495//495 528//528
f 537//537 544//544 572//572
f 545//545 514//514 519//519
f 502//502 569//569 580//580
f 502//502 550//550 569//569
f 560//560 550//550 551//551
f 509//509 574//574 515//515
f 561//561 594//594 539//539
f 531//531 579//579 555//555
f 531//531 555//555 491//491
f 582//582 553//553 547//547
f 511//511 554//554 565//565
f 547//547 564//564 518//518
f 518//518 564//564 584//584
f 543//543 541//541 528//528
f 577//577 533//533 548//548
f 597//597 527//527 591//591
f 495//495 529//529 593//593
f 572//572 535//535 537//537
f 530//530 549//549 566//566
f 501//501 490//490 538//538
f 559//559 507//507 588//588
f 574//574 457//457 515//515
f 488//488 531//531 491//491
f 526//526 570//570 540//540
f 500//500 532//532 552//552
f 556//556 553//553 557//557
f 582//582 604//604 553//553
f 511//511 565//565 582//582
f 547//547 553//553 564//564
f 543//543 554//554 541//541
f 592//592 591//591 522//522
f 549//549 558//558 566//566
f 549//549 514//514 545//545
f 545//545 519//519 578//578
f 580//580 569//569 606//606
f 508//508 601//601 525//525
f 457//457 574//574 520//520
f 539//539 555//555 579//579
f 575//575 556//556 557//557
f 563//563 532//532 540//540
f 556//556 571//571 553//553
f 557//557 553//553 604//604
f 584//584 617//617 534//534
f 600//600 577//577 548//548
f 529//529 536//536 577//577
f 558//558 549//549 545//545
f 559//559 588//588 598//598
f 601//601 551//551 525//525
f 539//539 579//579 561//561
f 552//552 576//576 562//562
f 563//563 552//552 532//532
f 553//553 595//595 564//564
f 593//593 513//513 495//495
f 530//530 573//573 544//544
f 573//573 530//530 566//566
f 567//567 519//519 546//546
f 568//568 479//479 559//559
f 590//590 594//594 561//561
f 576//576 570//570 526//526
f 576//576 526//526 562//562
f 553//553 571//571 595//595
f 543//543 523//523 617//617
f 542//542 585//585 548//548
f 600//600 548//548 585//585
f 529//529 577//577 593//593
f 573//573 572//572 544//544
f 479//479 568//568 508//508
f 568//568 589//589 508//508
f 589//589 601//601 508//508
f 604//604 603//603 557//557
f 595//595 583//583 564//564
f 565//565 554//554 543//543
f 596//596 543//543 617//617
f 592//592 535//535 572//572
f 587//587 573//573 566//566
f 587//587 566//566 558//558
f 616//616 588//588 513//513
f 507//507 513//513 588//588
f 538//538 580//580 644//644
f 606//606 569//569 581//581
f 599//599 569//569 550//550
f 560//560 599//599 550//550
f 601//601 560//560 551//551
f 576//576 552//552 563//563
f 618//618 542//542 527//527
f 586//586 592//592 572//572
f 573//573 586//586 572//572
f 578//578 519//519 567//567
f 567//567 546//546 501//501
f 559//559 598//598 568//568
f 599//599 581//581 569//569
f 632//632 604//604 582//582
f 584//584 564//564 583//583
f 596//596 565//565 543//543
f 593//593 577//577 600//600
f 634//634 591//591 592//592
f 593//593 642//642 513//513
f 587//587 586//586 573//573
f 602//602 575//575 603//603
f 557//557 603//603 575//575
f 622//622 603//603 604//604
f 558//558 578//578 587//587
f 578//578 558//558 545//545
f 588//588 637//637 598//598
f 590//590 561//561 613//613
f 531//531 615//615 579//579
f 499//499 594//594 639//639
f 503//503 499//499 639//639
f 570//570 576//576 540//540
f 540//540 576//576 563//563
f 596//596 582//582 565//565
f 585//585 542//542 618//618
f 587//587 608//608 586//586
f 644//644 580//580 625//625
f 560//560 607//607 599//599
f 630//630 601//601 589//589
f 594//594 590//590 612//612
f 556//556 575//575 602//602
f 596//596 632//632 582//582
f 584//584 653//653 617//617
f 597//597 618//618 527//527
f 586//586 634//634 592//592
f 608//608 587//587 578//578
f 513//513 619//619 616//616
f 578//578 567//567 608//608
f 601//601 607//607 560//560
f 613//613 612//612 590//590
f 613//613 650//650 612//612
f 639//639 681//681 503//503
f 584//584 583//583 653//653
f 605//605 501//501 538//538
f 568//568 609//609 589//589
f 579//579 614//614 561//561
f 594//594 612//612 631//631
f 579//579 615//615 614//614
f 632//632 622//622 604//604
f 611//611 618//618 597//597
f 513//513 642//642 619//619
f 636//636 567//567 501//501
f 588//588 616//616 620//620
f 568//568 598//598 609//609
f 580//580 606//606 625//625
f 630//630 607//607 601//601
f 561//561 614//614 613//613
f 531//531 626//626 615//615
f 556//556 602//602 571//571
f 602//602 603//603 622//622
f 632//632 596//596 633//633
f 607//607 663//663 599//599
f 612//612 650//650 621//621
f 631//631 610//610 594//594
f 594//594 610//610 639//639
f 627//627 583//583 595//595
f 653//653 583//583 678//678
f 648//648 634//634 586//586
f 616//616 619//619 629//629
f 638//638 598//598 637//637
f 638//638 609//609 598//598
f 581//581 649//649 606//606
f 599//599 649//649 581//581
f 662//662 607//607 630//630
f 614//614 615//615 610//610
f 503//503 681//681 531//531
f 634//634 611//611 597//597
f 634//634 597//597 591//591
f 593//593 600//600 642//642
f 538//538 644//644 605//605
f 620//620 637//637 588//588
f 620//620 624//624 637//637
f 589//589 609//609 630//630
f 621//621 631//631 612//612
f 571//571 602//602 622//622
f 596//596 617//617 633//633
f 636//636 608//608 567//567
f 629//629 620//620 616//616
f 501//501 605//605 636//636
f 606//606 649//649 625//625
f 631//631 614//614 610//610
f 639//639 684//684 681//681
f 571//571 622//622 595//595
f 622//622 632//632 641//641
f 641//641 627//627 595//595
f 633//633 617//617 653//653
f 618//618 654//654 585//585
f 608//608 648//648 586//586
f 628//628 629//629 619//619
f 629//629 623//623 620//620
f 645//645 610//610 615//615
f 645//645 615//615 626//626
f 610//610 645//645 639//639
f 595//595 622//622 641//641
f 628//628 619//619 643//643
f 663//663 607//607 662//662
f 650//650 613//613 614//614
f 614//614 631//631 650//650
f 650//650 631//631 621//621
f 654//654 600//600 585//585
f 667//667 619//619 642//642
f 628//628 643//643 635//635
f 640//640 646//646 666//666
f 660//660 661//661 647//647
f 641//641 651//651 627//627
f 652//652 583//583 627//627
f 628//628 623//623 629//629
f 624//624 638//638 637//637
f 693//693 694//694 657//657
f 660//660 640//640 666//666
f 658//658 660//660 647//647
f 658//658 647//647 627//627
f 647//647 652//652 627//627
f 651//651 658//658 627//627
f 671//671 653//653 678//678
f 618//618 611//611 655//655
f 619//619 667//667 643//643
f 628//628 635//635 623//623
f 609//609 659//659 630//630
f 681//681 684//684 703//703
f 657//657 646//646 640//640
f 646//646 676//676 666//666
f 666//666 661//661 660//660
f 665//665 641//641 632//632
f 634//634 656//656 611//611
f 618//618 655//655 654//654
f 600//600 667//667 642//642
f 663//663 688//688 599//599
f 666//666 664//664 661//661
f 583//583 652//652 678//678
f 635//635 643//643 669//669
f 623//623 668//668 620//620
f 620//620 668//668 624//624
f 694//694 646//646 657//657
f 665//665 651//651 641//641
f 665//665 632//632 633//633
f 671//671 633//633 653//653
f 667//667 600//600 654//654
f 656//656 655//655 611//611
f 669//669 679//679 635//635
f 635//635 679//679 623//623
f 649//649 706//706 625//625
f 661//661 687//687 647//647
f 647//647 687//687 652//652
f 671//671 701//701 633//633
f 669//669 667//667 654//654
f 634//634 648//648 656//656
f 643//643 667//667 669//669
f 624//624 668//668 674//674
f 638//638 624//624 674//674
f 638//638 702//702 609//609
f 625//625 680//680 644//644
f 659//659 662//662 630//630
f 662//662 692//692 663//663
f 626//626 531//531 681//681
f 660//660 658//658 695//695
f 623//623 679//679 668//668
f 644//644 673//673 605//605
f 651//651 683//683 658//658
f 655//655 669//669 654//654
f 648//648 608//608 636//636
f 672//672 636//636 605//605
f 670//670 668//668 679//679
f 688//688 649//649 599//599
f 640//640 696//696 657//657
f 682//682 655//655 656//656
f 674//674 668//668 670//670
f 638//638 674//674 702//702
f 698//698 659//659 609//609
f 645//645 675//675 639//639
f 703//703 684//684 715//715
f 661//661 677//677 687//687
f 652//652 687//687 678//678
f 636//636 672//672 648//648
f 625//625 706//706 680//680
f 692//692 688//688 663//663
f 646//646 708//708 676//676
f 666//666 676//676 664//664
f 696//696 640//640 699//699
f 640//640 660//660 699//699
f 695//695 658//658 683//683
f 661//661 664//664 677//677
f 633//633 651//651 665//665
f 669//669 655//655 679//679
f 673//673 672//672 605//605
f 688//688 706//706 649//649
f 626//626 675//675 645//645
f 699//699 660//660 695//695
f 683//683 651//651 633//633
f 679//679 655//655 682//682
f 670//670 679//679 686//686
f 673//673 644//644 680//680
f 609//609 702//702 698//698
f 659//659 692//692 662//662
f 626//626 723//723 675//675
f 701//701 705//705 633//633
f 685//685 656//656 648//648
f 648//648 672//672 685//685
f 679//679 682//682 686//686
f 691//691 659//659 698//698
f 675//675 684//684 639//639
f 681//681 704//704 710//710
f 704//704 681//681 703//703
f 694//694 708//708 646//646
f 686//686 690//690 670//670
f 626//626 681//681 710//710
f 693//693 657//657 696//696
f 682//682 656//656 689//689
f 690//690 686//686 689//689
f 670//670 690//690 674//674
f 700//700 695//695 683//683
f 705//705 683//683 633//633
f 686//686 682//682 689//689
f 714//714 626//626 710//710
f 694//694 693//693 708//708
f 685//685 720//720 656//656
f 673//673 721//721 672//672
f 707//707 706//706 688//688
f 659//659 691//691 692//692
f 678//678 737//737 671//671
f 708//708 696//696 699//699
f 737//737 701//701 671//671
f 689//689 656//656 720//720
f 690//690 689//689 720//720
f 721//721 727//727 672//672
f 674//674 690//690 702//702
f 731//731 680//680 706//706
f 715//715 711//711 703//703
f 664//664 697//697 677//677
f 705//705 700//700 683//683
f 721//721 673//673 713//713
f 703//703 716//716 704//704
f 664//664 676//676 697//697
f 700//700 697//697 695//695
f 687//687 737//737 678//678
f 731//731 706//706 733//733
f 692//692 707//707 688//688
f 740//740 715//715 684//684
f 708//708 693//693 696//696
f 676//676 699//699 697//697
f 697//697 699//699 695//695
f 697//697 712//712 677//677
f 702//702 709//709 698//698
f 707//707 733//733 706//706
f 702//702 690//690 709//709
f 709//709 722//722 698//698
f 680//680 713//713 673//673
f 680//680 731//731 713//713
f 722//722 691//691 698//698
f 691//691 722//722 732//732
f 718//718 704//704 716//716
f 716//716 703//703 711//711
f 676//676 708//708 699//699
f 705//705 701//701 739//739
f 727//727 685//685 672//672
f 704//704 718//718 710//710
f 711//711 719//719 716//716
f 697//697 700//700 712//712
f 677//677 712//712 728//728
f 717//717 705//705 739//739
f 691//691 732//732 692//692
f 740//740 684//684 675//675
f 710//710 724//724 714//714
f 718//718 724//724 710//710
f 712//712 700//700 728//728
f 690//690 720//720 730//730
f 715//715 726//726 711//711
f 711//711 726//726 725//725
f 700//700 705//705 728//728
f 742//742 720//720 685//685
f 690//690 730//730 709//709
f 675//675 723//723 740//740
f 729//729 716//716 719//719
f 677//677 728//728 687//687
f 732//732 735//735 692//692
f 724//724 718//718 726//726
f 711//711 725//725 719//719
f 705//705 717//717 728//728
f 737//737 687//687 734//734
f 737//737 739//739 701//701
f 727//727 755//755 685//685
f 730//730 720//720 742//742
f 748//748 727//727 721//721
f 748//748 721//721 713//713
f 735//735 707//707 692//692
f 726//726 718//718 725//725
f 717//717 736//736 728//728
f 751//751 717//717 739//739
f 734//734 687//687 728//728
f 707//707 738//738 733//733
f 626//626 714//714 723//723
f 750//750 724//724 726//726
f 725//725 729//729 719//719
f 685//685 755//755 742//742
f 726//726 715//715 740//740
f 718//718 716//716 725//725
f 731//731 754//754 713//713
f 740//740 750//750 726//726
f 750//750 741//741 724//724
f 725//725 716//716 729//729
f 727//727 748//748 746//746
f 724//724 741//741 714//714
f 734//734 728//728 736//736
f 748//748 713//713 754//754
f 731//731 743//743 754//754
f 722//722 758//758 732//732
f 743//743 731//731 733//733
f 733//733 738//738 743//743
f 714//714 741//741 723//723
f 746//746 755//755 727//727
f 758//758 749//749 732//732
f 709//709 730//730 722//722
f 735//735 738//738 707//707
f 741//741 740//740 723//723
f 741//741 757//757 740//740
f 744//744 739//739 737//737
f 742//742 745//745 730//730
f 717//717 751//751 752//752
f 722//722 730//730 745//745
f 740//740 757//757 760//760
f 752//752 761//761 717//717
f 736//736 788//788 734//734
f 737//737 734//734 744//744
f 751//751 739//739 744//744
f 771//771 742//742 755//755
f 746//746 748//748 753//753
f 760//760 750//750 740//740
f 717//717 761//761 736//736
f 747//747 746//746 753//753
f 748//748 754//754 753//753
f 732//732 749//749 735//735
f 735//735 756//756 738//738
f 742//742 771//771 745//745
f 736//736 762//762 788//788
f 745//745 767//767 722//722
f 749//749 756//756 735//735
f 756//756 743//743 738//738
f 736//736 761//761 762//762
f 743//743 759//759 754//754
f 722//722 767//767 758//758
f 761//761 752//752 776//776
f 734//734 788//788 744//744
f 782//782 771//771 755//755
f 771//771 767//767 745//745
f 769//769 746//746 747//747
f 764//764 759//759 743//743
f 756//756 764//764 743//743
f 786//786 761//761 776//776
f 744//744 774//774 751//751
f 752//752 751//751 774//774
f 755//755 746//746 782//782
f 758//758 767//767 775//775
f 758//758 775//775 763//763
f 754//754 759//759 753//753
f 763//763 749//749 758//758
f 761//761 786//786 773//773
f 759//759 764//764 772//772
f 756//756 749//749 770//770
f 750//750 757//757 741//741
f 760//760 757//757 750//750
f 780//780 765//765 766//766
f 773//773 768//768 761//761
f 770//770 764//764 756//756
f 783//783 765//765 780//780
f 766//766 768//768 780//780
f 744//744 788//788 774//774
f 746//746 769//769 782//782
f 766//766 785//785 768//768
f 768//768 773//773 780//780
f 761//761 768//768 762//762
f 774//774 776//776 752//752
f 767//767 771//771 779//779
f 747//747 772//772 769//769
f 753//753 772//772 747//747
f 775//775 767//767 777//777
f 772//772 753//753 759//759
f 763//763 770//770 749//749
f 774//774 788//788 790//790
f 771//771 782//782 779//779
f 775//775 777//777 778//778
f 775//775 778//778 784//784
f 768//768 793//793 762//762
f 788//788 762//762 793//793
f 767//767 779//779 777//777
f 772//772 784//784 787//787
f 764//764 784//784 772//772
f 763//763 784//784 770//770
f 784//784 764//764 770//770
f 766//766 765//765 789//789
f 766//766 789//789 785//785
f 773//773 786//786 792//792
f 781//781 776//776 774//774
f 782//782 769//769 787//787
f 787//787 769//769 772//772
f 777//777 787//787 778//778
f 775//775 784//784 763//763
f 778//778 787//787 784//784
f 768//768 785//785 793//793
f 786//786 776//776 795//795
f 790//790 781//781 774//774
f 787//787 779//779 782//782
f 777//777 779//779 787//787
f 780//780 791//791 783//783
f 786//786 795//795 794//794
f 795//795 776//776 781//781
f 785//785 789//789 791//791
f 773//773 791//791 780//780
f 788//788 793//793 790//790
f 789//789 765//765 783//783
f 793//793 785//785 791//791
f 791//791 773//773 792//792
f 793//793 791//791 792//792
f 791//791 789//789 783//783
f 801//801 792//792 786//786
f 786//786 794//794 802//802
f 786//786 802//802 801//801
f 793//793 797//797 790//790
f 796//796 802//802 794//794
f 797//797 793//793 792//792
f 792//792 801//801 797//797
f 790//790 797//797 804//804
f 806//806 795//795 781//781
f 804//804 781//781 790//790
f 781//781 804//804 806//806
f 805//805 797//797 801//801
f 799//799 797//797 805//805
f 804//804 797//797 799//799
f 794//794 795//795 798//798
f 798//798 800//800 794//794
f 796//796 794//794 800//800
f 806//806 798//798 795//795
f 803//803 796//796 800//800
f 805//805 801//801 802//802
f 798//798 815//815 800//800
f 808//808 803//803 800//800
f 802//802 796//796 805//805
f 799//799 805//805 807//807
f 800//800 815//815 808//808
f 798//798 806//806 813//813
f 806//806 799//799 807//807
f 806//806 804//804 799//799
f 803//803 808//808 809//809
f 817//817 798//798 813//813
f 805//805 796//796 810//810
f 803//803 810//810 796//796
f 807//807 805//805 811//811
f 809//809 821//821 803//803
f 815//815 798//798 817//817
f 816//816 811//811 805//805
f 807//807 813//813 806//806
f 810//810 816//816 805//805
f 812//812 807//807 811//811
f 809//809 808//808 812//812
f 808//808 815//815 814//814
f 809//809 812//812 811//811
f 807//807 812//812 813//813
f 814//814 812//812 808//808
f 814//814 813//813 812//812
f 810//810 803//803 818//818
f 821//821 818//818 803//803
f 811//811 820//820 809//809
f 819//819 810//810 818//818
f 816//816 810//810 819//819
f 809//809 820//820 821//821
f 813//813 814//814 817//817
f 814//814 815//815 817//817
f 816//816 820//820 811//811
f 816//816 819//819 820//820
f 819//819 821//821 820//820
f 819//819 818//818 821//821
f 822//822 831//831 823//823
f 822//822 824//824 831//831
f 824//824 825//825 831//831
f 824//824 826//826 825//825
f 826//826 827//827 825//825
f 826//826 828//828 827//827
f 828//828 823//823 827//827
f 828//828 822//822 823//823
f 828//828 824//824 822//822
f 828//828 826//826 824//824
f 831//831 28//28 823//823
f 28//28 832//832 823//823
f 831//831 825//825 830//830
f 823//823 832//832 827//827
f 832//832 829//829 827//827
f 825//825 827//827 830//830
f 829//829 830//830 827//827
f 21//21 24//24 830//830
f 830//830 829//829 21//21
f 26//26 21//21 829//829
f 31//31 26//26 829//829
f 829//829 832//832 31//31
f 832//832 30//30 31//31
f 30//30 832//832 28//28
f 831//831 24//24 28//28
f 24//24 831//831 830//830
# 1652 faces, 0 coords texture

# End of File
