####
#
# OBJ File Generated by Meshlab
#
####
# Object dragon.obj
#
# Vertices: 539
# Faces: 1074
#
####
vn 0.612628 -0.044311 0.789128
v 0.299965 0.251728 -0.618943
vn 0.768022 0.043625 0.638936
v 0.249131 -0.195497 -0.377656
vn 0.065721 -0.391164 -0.917971
v 0.043658 0.052264 -0.980688
vn 0.510187 -0.853134 -0.108962
v 0.138966 -0.317110 -0.382616
vn 0.041034 0.884501 -0.464730
v 0.216358 0.449650 -0.912078
vn 0.015751 0.332461 -0.942986
v 0.218410 0.399636 -0.980672
vn 0.023603 0.406281 0.913443
v 0.119996 -0.050605 -0.253503
vn 0.870405 -0.427431 -0.244330
v 0.267837 0.009702 -0.721175
vn 0.144004 -0.061483 -0.987665
v 0.186628 0.273451 -0.980688
vn 0.853179 0.348413 0.388194
v 0.129763 -0.249771 -0.137341
vn 0.018368 -0.985736 -0.167296
v 0.013468 -0.401900 0.464114
vn 0.352693 -0.931519 0.088769
v 0.048602 -0.434624 0.173897
vn 0.764625 -0.644380 0.011068
v 0.079365 -0.410783 0.012502
vn 0.971091 0.229737 0.064829
v 0.096915 -0.317798 0.190296
vn 0.489190 -0.810186 -0.322942
v 0.121143 -0.266827 -0.525548
vn -0.136261 0.840121 0.525004
v 0.006196 -0.132380 -0.039654
vn 0.102560 -0.989875 -0.098131
v 0.003315 -0.441116 -0.231814
vn 0.184894 0.775141 -0.604128
v 0.023780 0.791351 -0.925797
vn 0.582818 0.781486 0.222718
v 0.042439 0.802729 -0.665985
vn 0.300876 -0.929039 -0.215314
v 0.002341 0.605763 -0.461824
vn -0.069961 0.887735 0.455008
v 0.003372 0.728833 -0.500595
vn -0.345156 -0.835875 0.426826
v 0.006898 0.589431 -0.055772
vn 0.384970 -0.872026 -0.302273
v 0.078498 -0.399972 0.545862
vn 0.182303 0.432935 0.882798
v 0.004928 -0.263604 0.796647
vn 0.854496 -0.477238 -0.205135
v 0.121822 -0.400977 0.631652
vn 0.805410 -0.592424 -0.018656
v 0.083943 -0.360881 0.421711
vn 0.647554 0.290375 0.704526
v 0.166739 0.224267 -0.411799
vn 0.458687 -0.604474 -0.651320
v 0.150389 -0.042172 -0.852378
vn -0.418407 0.907470 0.037869
v -0.015216 -0.153865 0.634581
vn 0.853897 0.286840 0.434262
v 0.097741 -0.355425 0.743263
vn 0.838528 0.521392 0.158182
v 0.083709 -0.220168 0.684583
vn 0.604271 0.288415 0.742747
v 0.047073 -0.477903 0.972647
vn -0.195424 -0.403150 0.894024
v 0.065438 -0.568069 0.938259
vn 0.811062 0.306416 0.498285
v 0.037423 -0.406720 0.803584
vn -0.766654 0.610611 0.198483
v 0.044166 -0.457439 0.720170
vn -0.629855 -0.730710 -0.263335
v 0.037968 -0.477624 0.869655
vn -0.321839 -0.881216 -0.346234
v 0.052486 -0.287206 0.622984
vn -0.780170 0.610631 0.135881
v 0.055983 -0.443339 0.686681
vn 0.324931 -0.780035 -0.534758
v -0.034826 -0.311227 0.676048
vn 0.149824 0.878634 0.453382
v -0.013221 -0.418944 0.604782
vn -0.310850 -0.949692 0.038181
v 0.006763 -0.258292 0.443446
vn -0.999634 -0.003274 -0.026854
v 0.087112 -0.332334 0.629796
vn -0.441628 0.897065 -0.015471
v 0.039147 -0.339701 0.422747
vn -0.373615 0.921334 -0.107499
v 0.019670 -0.391880 0.209018
vn -0.927847 -0.368054 -0.060297
v 0.039805 -0.315638 0.146415
vn -0.055677 -0.990785 -0.123469
v 0.005971 -0.287409 0.057617
vn -0.836730 0.546947 -0.027070
v 0.095191 -0.355136 -0.107365
vn -0.065093 -0.941351 -0.331090
v 0.034354 -0.250222 -0.134035
vn -0.926888 -0.275762 -0.254623
v 0.119887 -0.215336 -0.249139
vn -0.619721 -0.709279 -0.335960
v 0.093815 -0.281814 -0.110537
vn -0.022442 0.948864 0.314887
v 0.003789 -0.352417 -0.164143
vn -0.795263 0.574941 0.192355
v 0.113597 -0.300950 -0.255195
vn 0.025328 0.898236 0.438784
v -0.015559 -0.275820 -0.345090
vn -0.632205 0.608005 0.480256
v 0.136329 -0.150946 -0.508438
vn -0.974261 0.058672 -0.217655
v 0.158669 -0.146869 -0.458206
vn -0.100364 -0.792741 -0.601239
v 0.038460 -0.193572 -0.249854
vn -0.779544 -0.201951 -0.592897
v 0.167419 0.003004 -0.464479
vn -0.989119 0.123432 -0.080055
v 0.172121 -0.067948 -0.461892
vn -0.678185 -0.340851 -0.651065
v 0.116861 -0.077227 -0.370370
vn -0.187081 0.876158 0.444238
v 0.074055 -0.253264 -0.371342
vn 0.051697 -0.547529 -0.835188
v -0.094806 0.129236 -0.523124
vn -0.961694 0.267198 0.061229
v 0.197345 0.009906 -0.515556
vn -0.975089 0.221627 0.009110
v 0.184020 -0.030147 -0.486297
vn -0.946135 0.301348 0.118402
v 0.210607 0.050903 -0.546899
vn -0.693723 0.502192 0.516286
v 0.117238 -0.137817 -0.542043
vn -0.645901 0.517975 0.560816
v 0.098289 -0.121451 -0.575420
vn -0.206692 0.817600 0.537409
v 0.023035 -0.141246 -0.593482
vn -0.921252 0.335000 0.197658
v 0.231196 0.119764 -0.597342
vn -0.874339 0.371810 0.311912
v 0.227443 0.177026 -0.647997
vn -0.823187 -0.563721 -0.067684
v 0.240379 0.269384 -0.661479
vn -0.248162 -0.508318 -0.824639
v 0.141989 0.143911 -0.533475
vn -0.526870 0.544298 0.652800
v 0.066161 -0.081407 -0.635820
vn -0.012760 -0.829182 -0.558834
v 0.032062 0.293363 -0.621665
vn -0.102801 -0.931726 0.348309
v 0.149794 0.295890 -0.651974
vn -0.274502 -0.779004 -0.563738
v 0.179133 0.284181 -0.616212
vn -0.528547 0.532637 0.661011
v 0.051727 -0.008383 -0.693968
vn -0.108159 0.190588 0.975694
v 0.023947 0.048746 -0.751409
vn -0.039658 -0.498975 0.865709
v 0.157103 0.245271 -0.694072
vn -0.023023 -0.265549 0.963823
v 0.113294 0.155619 -0.727142
vn -0.397707 0.275593 0.875145
v 0.111960 0.109484 -0.739792
vn -0.646714 -0.161485 0.745441
v 0.230058 0.226057 -0.706638
vn -0.521686 0.268860 0.809665
v 0.173657 0.161074 -0.727019
vn -0.360040 0.022610 0.932663
v 0.202061 0.187259 -0.719316
vn -0.010146 -0.568833 0.822391
v -0.000091 0.257984 -0.693671
vn -0.714968 -0.447800 -0.536931
v 0.042654 -0.411131 0.763239
vn -0.966328 -0.141758 -0.214744
v 0.105496 -0.211402 -0.347559
vn 0.732358 0.476799 0.486123
v 0.101510 0.645917 0.049121
vn 0.327987 -0.871579 -0.364383
v 0.060428 -0.298761 -0.593106
vn 0.573909 0.394575 0.717592
v 0.094851 0.040810 -0.314857
vn -0.058984 -0.660552 -0.748460
v 0.001475 -0.167698 -0.772655
vn 0.865777 0.400672 -0.299821
v 0.219833 0.062355 -0.392878
vn -0.415396 0.839275 -0.350804
v 0.195381 0.132634 -0.345800
vn 0.064035 -0.132783 -0.989074
v 0.223268 -0.157005 -0.598518
vn 0.792202 0.593891 0.140393
v 0.279699 -0.063480 -0.499250
vn -0.173870 -0.684685 -0.707796
v 0.229159 -0.248782 -0.584864
vn 0.917588 -0.303812 0.256381
v 0.364941 -0.213287 -0.498089
vn 0.466620 0.667367 0.580420
v 0.210983 0.412657 -0.569691
vn 0.282977 -0.516090 -0.808440
v 0.308094 0.202030 -0.844506
vn 0.580385 -0.349377 -0.735587
v 0.189178 0.123236 -0.980787
vn 0.643355 -0.697341 -0.315928
v 0.139227 -0.243986 -0.648989
vn 0.977409 -0.118697 0.174878
v 0.236120 -0.063339 -0.374141
vn 0.879358 -0.308509 0.362701
v 0.189688 -0.237149 -0.315212
vn 0.807205 -0.154801 0.569611
v 0.177788 -0.108995 -0.283441
vn 0.269977 0.741677 0.614026
v 0.220439 0.500787 -0.688969
vn 0.573977 -0.075597 -0.815375
v 0.279427 0.355360 -0.980766
vn 0.871840 0.409248 0.269095
v 0.209216 0.078258 -0.417008
vn 0.941282 0.315324 0.120660
v 0.396244 0.341010 -0.739088
vn 0.862759 0.216738 0.456806
v 0.408482 0.289970 -0.645317
vn 0.302651 -0.622692 0.721566
v 0.398003 0.074394 -0.684305
vn 0.192628 0.722327 -0.664182
v 0.259327 0.463706 -0.964398
vn -0.383573 -0.123213 -0.915254
v 0.348668 0.310779 -0.870189
vn 0.183293 0.140283 0.972998
v 0.334394 0.332371 -0.603125
vn 0.687539 0.719134 -0.100675
v 0.319634 0.469117 -0.840619
vn 0.597335 0.730722 0.330510
v 0.314560 0.476562 -0.688187
vn 0.977529 0.127088 0.168184
v 0.427494 0.271952 -0.812314
vn 0.782568 -0.588667 -0.202629
v 0.429920 0.080614 -0.789568
vn -0.591071 -0.795935 -0.130853
v 0.341589 0.073759 -0.767548
vn -0.342558 -0.513362 -0.786838
v 0.360944 0.117175 -0.859649
vn 0.783779 0.583100 -0.213742
v 0.396928 0.355846 -0.902794
vn 0.714408 0.628402 -0.307785
v 0.371978 0.391275 -0.805277
vn 0.779871 0.528430 0.335503
v 0.418588 0.281165 -0.929445
vn 0.641402 0.611181 0.463747
v 0.462667 0.240946 -0.902609
vn -0.822464 0.458476 -0.336680
v 0.356586 0.302080 -0.979258
vn -0.838429 0.235532 0.491489
v 0.350803 0.174156 -0.923021
vn -0.724575 -0.383327 0.572757
v 0.398580 0.171931 -0.889574
vn 0.144152 -0.176214 -0.973740
v 0.445148 0.152347 -0.980258
vn 0.356058 -0.078812 0.931134
v 0.440988 0.158710 -0.878970
vn 0.522093 -0.247249 0.816264
v 0.521215 0.120625 -0.892604
vn 0.729104 0.358411 -0.583051
v 0.519099 0.135065 -0.979882
vn 0.442742 0.387873 -0.808415
v 0.416304 0.282972 -0.980664
vn -0.211805 -0.194227 0.957817
v 0.373659 0.116020 -0.893197
vn 0.045760 -0.058634 -0.997230
v 0.419184 0.108935 -0.980258
vn 0.562586 -0.430829 -0.705609
v 0.537226 -0.039954 -0.980713
vn 0.844272 0.146469 0.515512
v 0.501259 0.067587 -0.925653
vn -0.557074 -0.258657 -0.789155
v 0.352525 0.097892 -0.980724
vn 0.805763 0.102800 0.583248
v 0.456582 0.031807 -0.932109
vn -0.311580 -0.694544 0.648481
v 0.417677 -0.022053 -0.931502
vn -0.795587 -0.121362 0.593560
v 0.312731 0.014709 -0.903728
vn 0.466992 -0.878419 -0.101478
v 0.339011 -0.263614 -0.543316
vn 0.609151 -0.612324 0.503979
v 0.239879 -0.280215 -0.403935
vn 0.153351 -0.689499 -0.707866
v 0.336652 -0.196998 -0.672789
vn 0.461891 0.759273 0.458434
v 0.363833 -0.065405 -0.538422
vn -0.656891 -0.429011 -0.620035
v 0.339201 -0.081102 -0.748656
vn 0.309832 -0.798368 0.516346
v 0.216260 -0.051983 -0.267680
vn 0.782159 -0.615148 0.099093
v 0.227833 -0.051480 -0.339629
vn 0.906677 0.169936 -0.386081
v 0.263989 0.000668 -0.302424
vn 0.770494 -0.623165 -0.134184
v 0.321576 0.008889 -0.202857
vn 0.922453 0.242134 -0.300751
v 0.347491 0.041394 -0.135374
vn 0.319273 -0.943682 0.086769
v 0.311907 0.011415 -0.164639
vn -0.800542 0.447184 0.398946
v 0.204987 0.077642 -0.253527
vn 0.728170 0.334390 -0.598291
v 0.241311 0.130004 -0.350693
vn 0.888894 0.270057 -0.370049
v 0.390765 0.070303 0.072621
vn 0.844083 0.225668 -0.486413
v 0.266211 0.049223 -0.202347
vn -0.819661 -0.203747 0.535390
v 0.251197 0.054136 -0.153044
vn -0.630280 -0.769898 0.100024
v 0.438981 0.013345 0.215599
vn -0.445674 0.860579 -0.246533
v 0.231828 0.153805 -0.330819
vn -0.785564 0.609626 0.106042
v 0.248577 0.177058 -0.231704
vn -0.865681 0.478641 0.146626
v 0.382857 0.278358 0.053535
vn 0.198657 0.737731 -0.645204
v 0.280461 0.199678 -0.234580
vn -0.937036 0.007456 0.349153
v 0.318851 0.082445 -0.005228
vn -0.951780 0.231845 0.200905
v 0.283824 0.134410 -0.071064
vn -0.852284 0.267543 0.449480
v 0.434261 0.274233 0.196463
vn 0.897808 -0.037090 -0.438823
v 0.549968 0.332280 0.355588
vn 0.267693 -0.494801 -0.826748
v 0.574350 0.013999 -0.963403
vn -0.230610 -0.694029 0.682014
v 0.484556 0.002648 -0.938353
vn 0.591013 -0.426894 -0.684445
v 0.470189 -0.033765 -0.980552
vn 0.000000 -0.447214 -0.894427
v 0.309882 -0.064362 -0.980616
vn 0.550731 -0.830553 0.082923
v 0.056272 -0.593501 0.889319
vn -0.008211 -0.999893 0.012138
v 0.010292 -0.457112 0.018705
vn 0.679647 -0.723735 -0.119530
v 0.118218 -0.379999 -0.307710
vn 0.402734 -0.836736 -0.371049
v 0.073383 -0.361945 -0.456029
vn 0.126197 -0.773193 -0.621488
v 0.050855 -0.244034 -0.706124
vn 0.062816 -0.569870 -0.819331
v 0.000473 -0.092267 -0.858134
vn 0.020631 -0.583780 -0.811650
v 0.044656 -0.042777 -0.870137
vn 0.439014 -0.877636 0.192412
v 0.311627 0.141067 -0.730627
vn 0.806630 -0.444347 -0.389748
v 0.254240 0.087616 -0.831680
vn 0.637309 0.553592 -0.536072
v 0.121940 0.726424 -0.981132
vn 0.876289 0.454084 0.161011
v 0.062875 0.801510 -0.802777
vn -0.127088 0.989559 0.067983
v 0.459263 0.441280 0.077390
vn -0.905625 0.365660 0.214794
v 0.329569 0.245997 -0.134245
vn 0.750172 0.643473 0.152267
v 0.049414 -0.255532 0.128410
vn -0.061172 0.986896 0.149314
v -0.010598 -0.184066 0.132992
vn 0.780489 0.621472 -0.067898
v 0.028241 -0.236573 0.347646
vn 0.688268 0.722556 0.064807
v 0.032341 -0.175114 0.623332
vn 0.015084 0.573708 0.818921
v -0.001904 0.334794 -0.367013
vn -0.035969 0.851990 0.522321
v -0.001219 0.482932 -0.550787
vn 0.138754 0.567187 0.811817
v 0.000497 0.015456 -0.190311
vn 0.853176 -0.516367 0.073864
v 0.129609 -0.354729 -0.135109
vn 0.709345 -0.636485 -0.302848
v 0.472005 0.014535 0.143764
vn 0.643832 0.657215 -0.391852
v 0.444992 0.058236 0.216204
vn -0.132263 0.984437 -0.115718
v -0.000999 -0.188780 0.330188
vn 0.227849 0.745595 -0.626237
v 0.271540 -0.098344 -0.587126
vn 0.621782 -0.525458 -0.580759
v 0.167431 -0.198381 -0.616852
vn 0.561198 -0.603819 -0.566091
v 0.138292 -0.157120 -0.738105
vn 0.929979 0.297927 -0.215356
v 0.310963 0.068749 -0.108134
vn 0.906022 -0.180731 -0.382701
v 0.392666 0.214507 0.022563
vn -0.835686 0.546057 -0.058750
v 0.349277 0.324684 -0.090800
vn 0.813071 0.311737 -0.491666
v 0.302608 0.084540 -0.167820
vn 0.868839 0.120106 -0.480305
v 0.400177 0.341439 -0.094788
vn 0.770251 0.570475 -0.285081
v 0.440704 0.055107 0.053910
vn -0.980121 -0.126275 0.153025
v 0.413361 0.070604 0.229961
vn 0.940704 0.098464 -0.324623
v 0.448870 0.359618 0.083207
vn -0.567893 0.715816 0.406331
v 0.545501 0.467533 0.223413
vn 0.938153 -0.275072 -0.210249
v 0.388634 0.317382 -0.048456
vn -0.859005 0.297344 0.416770
v 0.343925 0.286937 -0.023058
vn 0.917576 -0.171920 -0.358467
v 0.495641 0.365709 0.189722
vn -0.908334 0.355225 0.220783
v 0.364602 0.257478 0.083490
vn 0.932086 -0.041295 -0.359875
v 0.508003 0.147847 0.335236
vn 0.958196 -0.151906 -0.242455
v 0.541545 0.192911 0.400957
vn 0.952300 -0.203559 -0.227351
v 0.512395 0.030781 0.316796
vn 0.715533 -0.681395 0.153994
v 0.625992 0.356744 0.866317
vn 0.764482 0.640307 0.074659
v 0.489498 0.035281 0.221615
vn -0.059092 0.916362 -0.395966
v 0.509016 0.366648 0.278679
vn 0.664066 0.022417 0.747338
v 0.511826 -0.091064 0.595016
vn 0.984394 -0.169240 -0.048229
v 0.565068 0.291030 0.695953
vn 0.978825 -0.204541 -0.008051
v 0.547395 0.177364 0.529480
vn 0.992442 -0.118043 -0.033527
v 0.585515 0.395259 0.477413
vn 0.815742 0.395851 -0.421744
v 0.578525 0.456234 0.426807
vn 0.545802 -0.830658 -0.110032
v 0.507711 -0.040885 0.374152
vn 0.878938 0.468154 -0.091101
v 0.607633 0.533764 0.700857
vn 0.963818 0.216602 -0.155362
v 0.607354 0.515294 0.588175
vn 0.382753 0.679971 -0.625411
v 0.520474 0.374940 0.320107
vn -0.919895 0.161595 0.357324
v 0.515498 0.368320 0.661995
vn -0.999558 0.024312 0.017115
v 0.395322 0.090065 0.316050
vn -0.715325 -0.300251 0.630999
v 0.464825 0.064379 0.646189
vn 0.982669 0.169112 -0.075911
v 0.473524 0.008593 0.295001
vn 0.812260 0.582580 0.028882
v 0.647820 0.518370 0.845627
vn -0.773581 0.481300 0.412218
v 0.584442 0.523407 0.738679
vn 0.980297 0.004116 -0.197485
v 0.477670 0.140178 0.232489
vn 0.804232 -0.176239 -0.567582
v 0.477194 0.148567 0.191995
vn 0.934746 -0.043523 -0.352642
v 0.583697 0.347995 0.400259
vn 0.836888 -0.508917 0.201548
v 0.499022 0.022292 0.558286
vn -0.952315 0.283848 -0.111922
v 0.430949 0.183388 0.278866
vn -0.364440 0.854157 -0.370943
v 0.542152 0.538141 0.522374
vn -0.825820 0.517500 -0.224089
v 0.466309 0.349830 0.333356
vn -0.883595 0.408663 0.228592
v 0.542947 0.531402 0.644729
vn -0.958398 0.251105 0.135718
v 0.513932 0.458156 0.592381
vn -0.962915 0.119886 0.241706
v 0.452247 0.119470 0.587745
vn -0.727565 -0.666378 0.163060
v 0.475618 -0.056901 0.531930
vn -0.271904 0.817091 0.508360
v 0.619937 0.530122 0.841515
vn -0.736360 -0.192847 0.648524
v 0.512557 0.151429 0.704857
vn -0.802139 -0.156539 0.576254
v 0.578582 0.354896 0.855117
vn 0.559310 -0.685822 0.465641
v 0.539327 0.067793 0.662954
vn -0.010442 -0.547264 0.836895
v 0.578767 0.286532 0.837932
vn 0.897360 0.365559 0.247209
v 0.044198 0.608466 -0.292130
vn 0.979155 -0.197611 0.046960
v 0.268410 0.039611 -0.645844
vn 0.754222 -0.438459 -0.488777
v 0.222214 -0.125233 -0.618380
vn 0.233054 -0.450736 0.861698
v 0.668849 0.373203 0.982062
vn 0.082235 0.991395 0.101852
v 0.576439 0.573318 0.639471
vn 0.855053 -0.140739 -0.499075
v 0.592314 0.364447 0.795811
vn 0.957883 -0.065885 -0.279497
v 0.549173 0.192561 0.701496
vn 0.926264 -0.246913 -0.284727
v 0.605094 0.295363 0.803736
vn 0.975459 0.187688 0.115125
v 0.686785 0.433098 0.913171
vn 0.865994 -0.147164 -0.477908
v 0.640463 0.457337 0.807353
vn 0.092385 0.714851 0.693147
v 0.004307 0.562010 -0.716217
vn 0.593527 0.342491 -0.728304
v 0.176081 0.443809 -0.980685
vn 0.957214 0.243286 0.156696
v 0.148672 0.608611 -0.876287
vn 0.748341 0.620220 -0.235186
v 0.161005 0.510828 -0.836992
vn 0.283893 0.939132 -0.193486
v 0.232705 0.510422 -0.777404
vn 0.607118 0.633332 0.479895
v 0.127256 0.581989 -0.790071
vn -0.996034 0.055026 0.069911
v -0.236377 -0.043865 -0.375335
vn -0.700078 -0.555082 -0.449194
v -0.200323 -0.055729 -0.799829
vn -0.935102 -0.353800 0.020235
v -0.271942 0.013692 -0.689452
vn -0.569846 0.059753 0.819576
v -0.299412 0.256051 -0.615985
vn -0.689824 -0.719334 -0.081865
v -0.141295 -0.318015 -0.386192
vn -0.580167 0.570967 0.580864
v -0.086097 -0.150467 -0.176259
vn -0.296631 -0.625082 -0.721999
v -0.129592 -0.047430 -0.855731
vn -0.896013 0.339446 0.286247
v -0.199075 0.096520 -0.401735
vn -0.654181 -0.422966 0.627015
v -0.182551 -0.095142 -0.289204
vn 0.029275 0.941289 -0.336330
v -0.216021 0.452937 -0.911272
vn -0.967109 -0.017208 0.253780
v -0.152818 -0.286822 -0.187651
vn -0.802583 0.545270 0.241954
v -0.070255 -0.245215 0.002989
vn -0.998461 -0.026698 0.048616
v -0.093722 -0.312515 0.245745
vn -0.404037 -0.912483 0.064254
v -0.059407 -0.430076 0.111144
vn -0.296668 0.614195 0.731268
v -0.091431 0.022736 -0.310201
vn -0.721562 -0.449943 -0.526213
v -0.200832 0.079021 -0.920875
vn -0.814896 0.579541 0.008785
v -0.034935 -0.256258 0.286312
vn -0.917152 -0.398512 0.004572
v -0.044324 0.733901 -0.731289
vn -0.658095 0.713002 0.241949
v -0.044852 0.808068 -0.695642
vn -0.933004 0.289097 0.214305
v -0.041971 0.635404 -0.354608
vn -0.058161 -0.996991 -0.051239
v 0.002033 0.541725 -0.208883
vn -0.786614 0.530423 0.316055
v -0.092342 -0.250064 0.705267
vn -0.144054 -0.930756 -0.336068
v 0.012095 -0.495184 0.670883
vn -0.956486 -0.291776 0.001283
v -0.110515 -0.370519 0.678957
vn -0.797324 0.326397 0.507680
v -0.130811 -0.235062 -0.157087
vn -0.259737 -0.875040 -0.408463
v -0.067573 -0.296448 -0.601692
vn -0.279117 -0.097937 -0.955250
v -0.180743 0.267890 -0.980687
vn -0.484996 -0.820298 0.303133
v -0.029850 -0.396199 0.368940
vn -0.095993 -0.939054 -0.330096
v -0.036987 -0.430182 0.538900
vn -0.199165 0.835653 0.511876
v 0.000488 -0.180459 0.837077
vn -0.284954 0.568519 0.771743
v -0.006873 -0.360495 0.815340
vn -0.776585 0.551930 0.303792
v -0.051604 -0.218711 0.690591
vn -0.789161 0.614160 -0.005615
v -0.048602 -0.201726 0.629220
vn -0.898823 -0.435881 0.046093
v -0.085528 -0.520368 0.844241
vn -0.553413 -0.695871 0.457709
v -0.067430 -0.522803 0.958460
vn 0.520228 -0.011413 0.853951
v -0.034865 -0.561227 0.913565
vn 0.523212 -0.666445 -0.531132
v -0.040391 -0.401022 0.764681
vn 0.996712 -0.026617 -0.076531
v -0.084229 -0.361118 0.636129
vn 0.684894 -0.725701 -0.065403
v -0.063586 -0.287136 0.559886
vn -0.455154 0.809279 0.371353
v 0.055206 -0.347536 0.514810
vn 0.665689 0.720348 0.194824
v -0.060716 -0.330540 0.496597
vn 0.931203 -0.363907 -0.020805
v -0.039174 -0.311998 0.150896
vn 0.170136 -0.982024 0.081752
v -0.012265 -0.277733 0.267996
vn 0.542346 0.829715 -0.132038
v -0.027841 -0.356299 0.354082
vn -0.042562 0.991370 0.123994
v 0.005992 -0.388068 -0.007228
vn 0.738155 -0.612571 -0.282637
v -0.080116 -0.285479 -0.055700
vn 0.696475 0.717162 -0.024541
v -0.064771 -0.377354 -0.021028
vn 0.822843 0.555203 0.121161
v -0.114698 -0.323103 -0.210382
vn 0.658774 -0.602913 -0.450014
v -0.110468 -0.222285 -0.230336
vn 0.095490 -0.632920 -0.768306
v -0.066716 -0.057600 -0.375962
vn 0.901947 0.392271 0.180598
v -0.156063 -0.161163 -0.472724
vn 0.961074 -0.068862 -0.267572
v -0.107991 -0.204319 -0.351576
vn 0.975906 0.218172 0.003019
v -0.184406 -0.029944 -0.486127
vn 0.982410 0.164348 -0.088661
v -0.197374 0.009908 -0.515554
vn 0.957702 0.274747 0.085566
v -0.210764 0.050847 -0.546965
vn 0.782572 -0.233893 -0.576953
v -0.126118 -0.070477 -0.387415
vn 0.067357 0.741140 0.667963
v 0.000408 -0.110189 -0.644212
vn 0.223782 0.837227 0.498971
v -0.046844 -0.163494 -0.546596
vn 0.594084 0.565095 0.572479
v -0.098316 -0.121451 -0.575420
vn 0.603903 0.518472 0.605382
v -0.065957 -0.081421 -0.636424
vn 0.699091 0.506675 0.504532
v -0.120394 -0.141674 -0.536830
vn 0.935295 0.324394 0.141393
v -0.231592 0.120620 -0.597916
vn 0.582570 -0.368086 -0.724654
v -0.170783 0.084027 -0.505355
vn 0.233795 0.578140 0.781725
v -0.025296 -0.019733 -0.716452
vn 0.019234 -0.908172 0.418155
v -0.000032 0.296933 -0.658625
vn 0.693742 -0.391028 0.604830
v -0.237621 0.255521 -0.685259
vn 0.943345 -0.078347 -0.322431
v -0.236367 0.175389 -0.626047
vn 0.551756 -0.833609 0.025734
v -0.219026 0.291143 -0.644168
vn 0.260070 -0.856461 -0.445912
v -0.184531 0.297136 -0.625253
vn 0.319921 0.155264 0.934636
v -0.108777 0.107228 -0.741668
vn -0.016231 -0.259390 0.965636
v -0.000110 0.142221 -0.746765
vn 0.023264 -0.588505 0.808159
v -0.157919 0.252053 -0.690985
vn 0.616895 0.100715 0.780575
v -0.202810 0.186511 -0.717850
vn -0.696237 -0.714564 -0.068205
v -0.092104 -0.420830 0.610391
vn 0.980626 0.138486 -0.138545
v -0.170162 -0.074326 -0.460021
vn 0.052118 -0.712310 0.699927
v -0.002623 0.635740 0.124297
vn -0.236172 0.837164 0.493335
v -0.060726 0.686801 0.124125
vn 0.560134 0.255621 -0.787977
v -0.259058 -0.155724 -0.637706
vn -0.560225 -0.613136 -0.556967
v -0.138994 -0.215605 -0.706238
vn -0.459252 -0.840929 0.286227
v -0.218783 -0.299244 -0.406217
vn 0.211624 -0.572114 -0.792402
v -0.225057 -0.238838 -0.584332
vn -0.631706 0.673897 0.383158
v -0.281321 -0.065099 -0.488331
vn -0.758702 -0.110603 0.641980
v -0.254178 -0.229184 -0.382513
vn -0.639137 0.359966 0.679653
v -0.173140 0.280798 -0.448528
vn -0.663357 -0.505592 -0.551664
v -0.164981 -0.195516 -0.623862
vn -0.533271 -0.505112 -0.678590
v -0.109904 -0.169426 -0.739492
vn -0.595574 0.296210 0.746693
v -0.068606 0.184498 -0.334751
vn -0.564052 -0.415013 -0.713869
v -0.294370 0.227617 -0.867518
vn -0.893448 0.277965 0.352826
v -0.069714 0.768985 -0.796781
vn -0.346525 0.769852 0.535955
v -0.249261 0.463652 -0.695322
vn -0.051399 0.980458 -0.189897
v -0.244238 0.512148 -0.863031
vn -0.125538 0.697152 -0.705846
v -0.252851 0.445080 -0.979332
vn -0.497568 -0.146394 -0.854983
v -0.270278 0.348033 -0.980627
vn -0.845832 -0.330256 0.418926
v -0.184492 -0.233122 -0.308111
vn -0.736484 0.628410 -0.250384
v -0.356840 0.403869 -0.840363
vn -0.181358 -0.234984 0.954930
v -0.352226 0.226460 -0.618668
vn 0.326933 -0.510552 -0.795268
v -0.361848 0.116102 -0.860018
vn -0.837009 0.234450 0.494418
v -0.405561 0.304872 -0.647102
vn -0.478570 -0.594821 0.645878
v -0.308808 0.144509 -0.670965
vn -0.670396 0.729920 0.133369
v -0.332117 0.474915 -0.747212
vn -0.749211 0.452871 -0.483311
v -0.300295 0.453298 -0.932113
vn 0.247389 -0.293865 -0.923278
v -0.352072 0.321067 -0.870443
vn -0.139333 0.387211 0.911402
v -0.308265 0.397477 -0.613528
vn 0.592287 -0.769132 -0.240067
v -0.339690 0.076316 -0.769440
vn -0.595854 -0.601244 0.532414
v -0.427043 0.075384 -0.711961
vn -0.502795 0.649651 0.570220
v -0.205392 0.428016 -0.583737
vn -0.801282 -0.552546 -0.229436
v -0.426871 0.074860 -0.794540
vn -0.475443 -0.295747 0.828546
v -0.417129 0.194735 -0.882844
vn -0.956512 0.287145 0.051315
v -0.397820 0.332945 -0.736775
vn -0.968854 0.243341 0.045901
v -0.417350 0.312451 -0.795373
vn -0.579662 0.531647 -0.617530
v -0.409132 0.307265 -0.980248
vn 0.840652 0.299385 -0.451301
v -0.359069 0.309713 -0.980437
vn -0.875309 0.483160 -0.019771
v -0.452759 0.248315 -0.924603
vn 0.861254 0.093033 0.499587
v -0.352757 0.186420 -0.915076
vn 0.561098 -0.136329 -0.816446
v -0.326311 0.027107 -0.980680
vn 0.065727 -0.189165 0.979743
v -0.377102 0.120480 -0.891059
vn -0.875157 0.427563 0.226472
v -0.417757 0.293030 -0.886528
vn -0.579297 0.348606 -0.736810
v -0.469477 0.189809 -0.980661
vn -0.640423 0.153486 0.752530
v -0.492635 0.158537 -0.878844
vn -0.218000 -0.563895 -0.796554
v -0.466538 0.112281 -0.980567
vn -0.146207 -0.607379 0.780842
v -0.370916 0.080783 -0.909979
vn -0.499569 -0.856751 0.128096
v -0.475060 0.051259 -0.909919
vn -0.255453 -0.584510 -0.770124
v -0.433787 0.075009 -0.980433
vn -0.737754 -0.547775 0.394540
v -0.462450 0.022089 -0.931550
vn 0.520032 -0.852845 0.047141
v -0.442789 -0.049572 -0.980140
vn 0.549459 -0.310278 0.775772
v -0.301184 0.025559 -0.904769
vn 0.615345 0.782729 0.093196
v -0.320896 -0.027648 -0.592889
vn -0.794396 -0.051155 0.605242
v -0.344636 -0.195315 -0.459485
vn -0.819490 -0.572859 0.016398
v -0.365575 -0.242214 -0.545130
vn 0.870800 0.069745 -0.486665
v -0.310320 -0.074179 -0.683485
vn 0.069139 -0.625249 -0.777357
v -0.318494 -0.189942 -0.678713
vn 0.461486 0.846365 -0.265890
v -0.332969 0.015129 -0.748634
vn -0.777553 0.527283 0.342614
v -0.386382 -0.025266 -0.631301
vn 0.435437 -0.883136 -0.174546
v -0.364431 -0.108707 -0.739783
vn -0.876280 -0.462343 -0.135544
v -0.393863 -0.108659 -0.675799
vn -0.111933 -0.923005 -0.368148
v -0.295100 -0.276438 -0.546300
vn 0.004325 0.352378 0.935848
v -0.134252 -0.028595 -0.254239
vn 0.381294 -0.419428 0.823829
v -0.176152 -0.034838 -0.240487
vn 0.079494 0.988262 0.130454
v -0.231258 0.168033 -0.355687
vn -0.816727 0.510040 -0.269844
v -0.463030 0.049967 0.089356
vn -0.971655 0.229545 -0.056526
v -0.492305 0.030117 0.210954
vn -0.735761 0.453149 -0.503301
v -0.263499 0.057227 -0.207821
vn -0.465657 -0.860611 -0.206186
v -0.478721 0.011329 0.189466
vn 0.641687 0.575656 0.506811
v -0.205000 0.086303 -0.250977
vn -0.868550 0.269836 -0.415702
v -0.456488 0.053790 0.246200
vn 0.908805 0.111939 0.401924
v -0.244322 0.069823 -0.163262
vn -0.792440 0.514255 -0.327994
v -0.390426 0.072133 0.068895
vn 0.131295 0.553475 -0.822452
v -0.331772 0.263472 -0.166289
vn -0.864560 0.199974 -0.461027
v -0.403196 0.353143 -0.079688
vn -0.963630 0.048497 -0.262801
v -0.316276 0.071248 -0.075532
vn -0.952424 -0.272971 -0.135554
v -0.545919 0.458174 0.208525
vn 0.917055 0.147293 0.370561
v -0.360658 0.237922 0.002085
vn -0.954159 -0.232760 -0.188158
v -0.369454 0.213434 -0.041858
vn -0.829938 0.354164 -0.431012
v -0.316632 0.058132 -0.161499
vn 0.069772 -0.923408 0.377424
v -0.537393 0.061374 -0.915972
vn -0.853750 0.012021 -0.520544
v -0.574436 0.090283 -0.973382
vn -0.391408 -0.575554 -0.718010
v -0.372897 0.090800 -0.980719
vn -0.557110 -0.829968 -0.027960
v -0.333936 -0.017580 -0.937036
vn -0.390649 0.263568 -0.882001
v -0.130094 0.691077 -0.980688
vn -0.064659 -0.980257 0.186858
v 0.011144 -0.434475 0.258541
vn 0.056894 -0.996473 -0.061683
v -0.000848 -0.456777 -0.123769
vn -0.749108 -0.662379 -0.009564
v -0.113240 -0.388072 -0.222521
vn -0.734854 -0.677448 0.032473
v -0.095096 -0.393922 -0.035024
vn -0.489928 -0.849157 -0.197240
v -0.097478 -0.397613 -0.322228
vn -0.428665 -0.829345 -0.358375
v -0.079312 -0.359658 -0.454865
vn 0.109228 -0.954628 -0.277046
v 0.033821 -0.414702 -0.334010
vn -0.379885 -0.845963 -0.374210
v -0.123563 -0.268472 -0.526581
vn -0.945941 -0.297672 -0.128792
v -0.308834 0.104176 -0.701387
vn -0.343414 -0.461903 -0.817749
v -0.123423 0.065279 -0.980710
vn -0.665905 -0.639268 -0.384587
v -0.314154 0.154076 -0.727376
vn -0.781850 -0.222659 -0.582352
v -0.279115 0.184247 -0.888375
vn 0.902722 0.317515 0.290304
v -0.425305 0.239748 0.200607
vn -0.542862 0.807149 0.231974
v -0.489075 0.376844 0.208195
vn 0.901950 0.272922 0.334665
v -0.379380 0.272500 0.085057
vn 0.936068 -0.081462 0.342258
v -0.363843 0.102717 0.120188
vn -0.448105 0.383165 -0.807704
v -0.170001 0.452798 -0.980687
vn -0.797084 0.548976 -0.251559
v -0.173988 0.489612 -0.905975
vn -0.676269 0.687131 -0.265538
v -0.120157 0.764313 -0.936220
vn -0.067738 0.989783 -0.125467
v 0.001358 0.827420 -0.873448
vn 0.898403 -0.062374 0.434720
v -0.268358 0.100397 -0.077001
vn 0.880043 0.448932 0.154872
v -0.348899 0.320938 -0.032308
vn -0.922757 -0.216007 -0.319155
v -0.395608 0.300817 0.003510
vn -0.785678 0.584139 0.203695
v -0.028043 -0.188928 0.011017
vn -0.808379 -0.561546 0.176605
v -0.069301 -0.394029 0.276195
vn -0.855901 -0.504461 -0.113810
v -0.316415 0.003092 -0.217949
vn -0.502104 -0.381245 -0.776237
v -0.213090 -0.150391 -0.606060
vn 0.425065 -0.833566 0.352827
v -0.295871 0.019011 -0.137608
vn -0.773198 -0.545514 -0.323387
v -0.340657 0.015131 -0.159413
vn 0.673983 -0.737512 0.042698
v -0.437609 0.011622 0.219578
vn -0.884701 -0.186732 -0.427123
v -0.431134 0.313062 0.061203
vn 0.218387 0.966359 -0.135858
v -0.452498 0.413754 0.053465
vn 0.871382 0.392433 -0.294430
v -0.467832 0.304694 0.295940
vn 0.991736 -0.111903 0.062750
v -0.415258 0.070138 0.269526
vn -0.982076 -0.005116 -0.188417
v -0.484997 0.116528 0.261215
vn -0.970578 -0.165359 -0.175026
v -0.537318 0.185071 0.402056
vn -0.975221 -0.172844 -0.138093
v -0.511030 0.062246 0.588476
vn -0.967990 -0.243435 -0.061108
v -0.466191 -0.003305 0.362609
vn -0.980532 -0.195818 -0.014572
v -0.567308 0.264635 0.564918
vn -0.610969 -0.686408 0.394412
v -0.490864 -0.024364 0.569925
vn -0.933535 0.030937 -0.357149
v -0.551983 0.323501 0.359654
vn 0.847611 0.440445 -0.295912
v -0.458539 0.337973 0.334629
vn 0.545304 0.735337 -0.402396
v -0.520989 0.492203 0.468918
vn -0.928752 0.370653 -0.006052
v -0.606528 0.553305 0.633670
vn -0.916891 -0.399129 0.002706
v -0.508140 0.038738 0.402948
vn -0.855736 -0.307508 -0.416120
v -0.451766 0.279191 0.128259
vn -0.819908 -0.571625 -0.031551
v -0.491514 -0.057931 0.435694
vn 0.995728 0.069325 -0.060992
v -0.399893 0.116200 0.308830
vn -0.871764 -0.154971 -0.464770
v -0.480837 0.181094 0.181472
vn -0.868857 -0.442905 -0.221184
v -0.505234 0.015006 0.319035
vn -0.761551 0.476828 -0.438948
v -0.599422 0.494771 0.494805
vn -0.946816 -0.028582 -0.320504
v -0.582869 0.389827 0.416370
vn -0.957274 -0.048019 -0.285168
v -0.550132 0.201351 0.707909
vn 0.063137 0.809487 -0.583733
v -0.513027 0.372136 0.312559
vn 0.958969 0.156036 0.236710
v -0.463147 0.218120 0.574812
vn 0.458303 0.885133 -0.080604
v -0.554698 0.569775 0.578464
vn 0.953926 0.269276 0.132349
v -0.499693 0.417347 0.563653
vn -0.808267 -0.399550 0.432509
v -0.519648 -0.102145 0.637947
vn 0.876044 -0.462948 0.135006
v -0.471288 -0.046077 0.513676
vn 0.811169 -0.032824 0.583890
v -0.509624 0.145178 0.697560
vn 0.573559 0.722606 0.385837
v -0.586114 0.542247 0.734050
vn -0.958661 0.095070 -0.268200
v -0.611066 0.493839 0.764982
vn -0.683474 -0.723147 -0.099607
v -0.662156 0.370263 0.926015
vn 0.817566 0.316776 0.480872
v -0.606969 0.477846 0.850676
vn -0.615703 -0.348550 0.706698
v -0.684049 0.378168 0.992974
vn -0.176099 -0.618030 0.766178
v -0.536099 0.110872 0.706471
vn -0.980902 -0.134652 0.140357
v -0.258859 0.033158 -0.564014
vn 0.463053 -0.529550 0.710745
v -0.573261 0.335366 0.846425
vn 0.909066 0.216787 0.355813
v -0.544539 0.482064 0.681437
vn 0.830850 -0.214782 0.513377
v -0.461905 0.066082 0.641570
vn -0.945883 -0.062466 -0.318438
v -0.665277 0.441563 0.867431
vn -0.943264 -0.307431 0.125455
v -0.595924 0.254322 0.786983
vn -0.878537 -0.451958 -0.154618
v -0.615508 0.336645 0.831679
vn -0.635801 0.757759 0.146827
v -0.646399 0.518922 0.872287
vn -0.169558 -0.176240 0.969634
v -0.000847 0.673825 -0.757927
vn -0.440805 0.882265 0.165227
v -0.200439 0.518733 -0.711152
vn -0.920954 0.379930 0.086589
v -0.151312 0.581233 -0.862710
vn -0.362178 0.681153 0.636285
v -0.116547 0.557909 -0.763598
vn -0.427883 0.878642 -0.211909
v 0.339040 0.024836 -0.736526
vn -0.788107 -0.001946 -0.615535
v 0.288447 -0.132928 -0.666721
vn -0.905013 0.294665 -0.306796
v 0.352037 -0.036888 -0.844729
vn 0.525636 -0.847560 -0.073135
v 0.388658 -0.102082 -0.733437
vn 0.974933 0.184696 0.124065
v 0.409747 -0.043987 -0.704720
vn -0.412464 0.905454 -0.100132
v 0.301054 -0.106898 -0.980610
vn 0.868902 -0.144088 0.473549
v 0.420473 -0.229877 -0.932555
vn 0.817845 0.514291 -0.258136
v 0.423193 -0.095786 -0.897312
vn 0.367685 0.169779 -0.914321
v 0.401301 -0.129472 -0.980635
vn 0.331621 -0.508107 0.794893
v 0.407005 -0.314940 -0.918074
vn -0.524802 -0.158078 0.836418
v 0.318940 -0.199373 -0.930917
vn -0.403528 -0.905596 -0.130621
v 0.355281 -0.361020 -0.977428
vn -0.654275 -0.724469 -0.216954
v 0.265836 -0.255220 -0.980327
vn 1.000000 0.000000 0.000000
v 0.295969 -0.429250 -0.972941
vn -0.164981 -0.193170 0.967195
v 0.322567 -0.273368 -0.915166
vn -0.185517 -0.234017 0.954369
v 0.198835 -0.240060 -0.932358
vn -0.410715 -0.191785 -0.891365
v 0.138540 -0.271748 -0.980680
vn 0.846128 -0.416551 -0.332495
v 0.403539 -0.355775 -0.981770
vn 0.000000 -0.707107 0.707107
v 0.386701 -0.434086 -0.960380
vn 0.592546 -0.415650 -0.690018
v 0.282260 -0.378036 -0.980665
vn -0.784823 -0.384381 0.486111
v 0.240303 -0.395491 -0.938698
vn 0.957574 0.287860 0.013768
v -0.335487 -0.107053 -0.888773
vn -0.466462 0.801042 -0.375159
v -0.403813 -0.057365 -0.858139
vn -0.995758 0.092015 0.000216
v -0.423184 -0.050627 -0.772859
vn 0.573762 0.045218 0.817773
v -0.331938 -0.183609 -0.934033
vn -0.788080 -0.203685 0.580898
v -0.404295 -0.201496 -0.923816
vn 0.655270 0.740932 -0.147108
v -0.316111 -0.108903 -0.980741
vn 0.406692 -0.027647 0.913147
v -0.273399 -0.234093 -0.926055
vn -0.538133 0.189754 -0.821223
v -0.398257 -0.135010 -0.980638
vn -0.708665 -0.133966 0.692710
v -0.432345 -0.328819 -0.931093
vn 0.042487 -0.391867 -0.919040
v -0.302571 -0.321788 -0.979721
vn 0.591284 -0.202235 0.780695
v -0.321992 -0.288811 -0.933837
vn 0.064803 -0.143354 0.987548
v -0.374908 -0.270551 -0.917081
vn 0.815329 -0.435090 -0.382014
v -0.249719 -0.353743 -0.977856
vn 0.764559 0.435716 -0.474975
v -0.256556 -0.161626 -0.979979
vn 0.555029 -0.550687 0.623447
v -0.388710 -0.379044 -0.943135
vn -0.348376 -0.614812 -0.707560
v -0.421857 -0.406898 -0.981681
vn 0.000000 0.000000 0.000000
v -0.182182 -0.284357 -0.972484
vn -0.006940 -0.398090 -0.917320
v -0.364917 -0.295923 -0.978940
vn -0.406821 -0.481717 0.776173
v -0.319118 -0.401293 -0.944893
vn 0.887040 -0.447438 -0.113837
v -0.290470 -0.453063 -0.979946
vn -0.429634 -0.775483 0.462646
v -0.274177 -0.368271 -0.926399
# 539 vertices, 0 vertices normals

f 91//91 101//101 94//94
f 28//28 194//194 173//173
f 173//173 174//174 28//28
f 89//89 27//27 185//185
f 1//1 27//27 106//106
f 97//97 27//27 1//1
f 4//4 140//140 102//102
f 97//97 1//1 104//104
f 5//5 110//110 6//6
f 187//187 7//7 89//89
f 187//187 10//10 7//7
f 15//15 4//4 171//171
f 27//27 97//97 185//185
f 420//420 12//12 26//26
f 10//10 181//181 14//14
f 26//26 14//14 31//31
f 102//102 170//170 4//4
f 10//10 187//187 16//16
f 14//14 181//181 183//183
f 494//494 178//178 20//20
f 245//245 19//19 21//21
f 20//20 245//245 281//281
f 22//22 281//281 245//245
f 22//22 245//245 280//280
f 170//170 102//102 188//188
f 184//184 24//24 31//31
f 23//23 26//26 25//25
f 12//12 13//13 26//26
f 25//25 283//283 23//23
f 98//98 9//9 105//105
f 13//13 169//169 421//421
f 181//181 10//10 16//16
f 183//183 184//184 31//31
f 24//24 30//30 31//31
f 184//184 290//290 24//24
f 184//184 29//29 290//290
f 23//23 283//283 289//289
f 24//24 34//34 30//30
f 34//34 168//168 30//30
f 168//168 33//33 296//296
f 291//291 34//34 24//24
f 36//36 33//33 32//32
f 36//36 32//32 295//295
f 35//35 296//296 33//33
f 38//38 35//35 85//85
f 36//36 85//85 35//35
f 297//297 85//85 36//36
f 85//85 42//42 38//38
f 85//85 37//37 42//42
f 85//85 297//297 39//39
f 39//39 37//37 85//85
f 42//42 300//300 38//38
f 300//300 40//40 38//38
f 42//42 43//43 300//300
f 42//42 37//37 41//41
f 45//45 43//43 42//42
f 43//43 301//301 300//300
f 41//41 45//45 42//42
f 44//44 304//304 43//43
f 45//45 41//41 303//303
f 44//44 43//43 45//45
f 45//45 303//303 46//46
f 47//47 305//305 44//44
f 50//50 45//45 46//46
f 45//45 50//50 47//47
f 46//46 48//48 50//50
f 47//47 51//51 305//305
f 52//52 51//51 47//47
f 50//50 48//48 56//56
f 49//49 50//50 56//56
f 47//47 50//50 49//49
f 52//52 60//60 51//51
f 56//56 310//310 59//59
f 59//59 86//86 49//49
f 49//49 56//56 59//59
f 60//60 53//53 51//51
f 52//52 55//55 54//54
f 52//52 86//86 55//55
f 58//58 59//59 57//57
f 60//60 52//52 54//54
f 67//67 53//53 60//60
f 61//61 71//71 310//310
f 310//310 71//71 59//59
f 57//57 62//62 63//63
f 57//57 63//63 58//58
f 64//64 57//57 68//68
f 64//64 62//62 57//57
f 59//59 71//71 57//57
f 67//67 60//60 54//54
f 54//54 65//65 67//67
f 67//67 65//65 66//66
f 67//67 66//66 72//72
f 72//72 317//317 67//67
f 70//70 68//68 57//57
f 69//69 68//68 70//70
f 70//70 57//57 71//71
f 324//324 317//317 72//72
f 71//71 73//73 75//75
f 73//73 325//325 74//74
f 74//74 75//75 73//73
f 69//69 70//70 81//81
f 71//71 75//75 70//70
f 74//74 70//70 75//75
f 77//77 324//324 76//76
f 324//324 72//72 76//76
f 79//79 331//331 77//77
f 77//77 80//80 79//79
f 78//78 79//79 83//83
f 83//83 81//81 78//78
f 79//79 80//80 82//82
f 82//82 83//83 79//79
f 81//81 70//70 78//78
f 70//70 74//74 78//78
f 78//78 74//74 84//84
f 325//325 84//84 74//74
f 78//78 84//84 331//331
f 331//331 79//79 78//78
f 168//168 283//283 25//25
f 33//33 36//36 35//35
f 44//44 45//45 47//47
f 49//49 52//52 47//47
f 52//52 49//49 86//86
f 55//55 86//86 59//59
f 55//55 59//59 58//58
f 22//22 87//87 336//336
f 337//337 87//87 22//22
f 336//336 87//87 337//337
f 191//191 184//184 183//183
f 193//193 95//95 15//15
f 192//192 93//93 247//247
f 94//94 106//106 91//91
f 15//15 100//100 193//193
f 172//172 88//88 286//286
f 88//88 172//172 100//100
f 140//140 4//4 139//139
f 94//94 101//101 2//2
f 192//192 499//499 93//93
f 94//94 192//192 106//106
f 93//93 499//499 95//95
f 95//95 4//4 15//15
f 99//99 9//9 98//98
f 7//7 92//92 106//106
f 7//7 106//106 89//89
f 106//106 27//27 89//89
f 194//194 100//100 172//172
f 90//90 194//194 172//172
f 113//113 107//107 120//120
f 107//107 113//113 114//114
f 103//103 2//2 101//101
f 103//103 101//101 145//145
f 102//102 2//2 103//103
f 260//260 178//178 494//494
f 102//102 103//103 10//10
f 102//102 10//10 188//188
f 10//10 14//14 188//188
f 26//26 31//31 30//30
f 30//30 25//25 26//26
f 33//33 34//34 32//32
f 6//6 110//110 105//105
f 140//140 2//2 102//102
f 105//105 111//111 98//98
f 2//2 140//140 96//96
f 141//141 95//95 499//499
f 106//106 192//192 246//246
f 112//112 109//109 108//108
f 118//118 111//111 125//125
f 108//108 107//107 114//114
f 104//104 114//114 259//259
f 109//109 117//117 116//116
f 107//107 108//108 109//109
f 107//107 109//109 116//116
f 108//108 114//114 112//112
f 109//109 1//1 175//175
f 117//117 109//109 175//175
f 98//98 117//117 175//175
f 113//113 110//110 259//259
f 110//110 120//120 105//105
f 105//105 120//120 111//111
f 112//112 1//1 109//109
f 259//259 114//114 113//113
f 112//112 104//104 1//1
f 114//114 104//104 112//112
f 120//120 110//110 113//113
f 115//115 125//125 127//127
f 125//125 116//116 118//118
f 117//117 118//118 116//116
f 118//118 117//117 98//98
f 120//120 107//107 115//115
f 259//259 110//110 5//5
f 118//118 98//98 111//111
f 125//125 115//115 116//116
f 107//107 116//116 115//115
f 127//127 121//121 119//119
f 115//115 127//127 119//119
f 119//119 120//120 115//115
f 123//123 125//125 111//111
f 120//120 123//123 111//111
f 123//123 120//120 119//119
f 130//130 123//123 119//119
f 119//119 121//121 130//130
f 124//124 123//123 135//135
f 130//130 121//121 122//122
f 123//123 124//124 125//125
f 130//130 122//122 129//129
f 129//129 122//122 128//128
f 124//124 131//131 125//125
f 127//127 122//122 121//121
f 126//126 128//128 127//127
f 134//134 126//126 127//127
f 164//164 128//128 126//126
f 125//125 131//131 127//127
f 128//128 122//122 127//127
f 136//136 132//132 131//131
f 132//132 136//136 166//166
f 135//135 137//137 131//131
f 138//138 135//135 131//131
f 132//132 165//165 131//131
f 126//126 134//134 133//133
f 131//131 165//165 127//127
f 165//165 134//134 127//127
f 133//133 134//134 165//165
f 137//137 136//136 131//131
f 137//137 135//135 166//166
f 138//138 131//131 124//124
f 138//138 124//124 135//135
f 167//167 138//138 135//135
f 94//94 142//142 192//192
f 4//4 95//95 139//139
f 96//96 140//140 139//139
f 96//96 142//142 2//2
f 142//142 94//94 2//2
f 139//139 95//95 141//141
f 96//96 139//139 141//141
f 141//141 501//501 96//96
f 142//142 498//498 192//192
f 96//96 502//502 142//142
f 502//502 96//96 501//501
f 498//498 142//142 502//502
f 499//499 192//192 498//498
f 501//501 141//141 143//143
f 499//499 143//143 141//141
f 147//147 144//144 145//145
f 145//145 144//144 103//103
f 146//146 101//101 151//151
f 145//145 101//101 146//146
f 151//151 101//101 91//91
f 197//197 199//199 159//159
f 200//200 195//195 152//152
f 200//200 148//148 195//195
f 154//154 149//149 155//155
f 200//200 190//190 212//212
f 150//150 7//7 154//154
f 150//150 92//92 7//7
f 92//92 151//151 91//91
f 156//156 151//151 92//92
f 106//106 92//92 91//91
f 149//149 154//154 144//144
f 150//150 157//157 156//156
f 196//196 152//152 195//195
f 151//151 153//153 146//146
f 103//103 7//7 10//10
f 154//154 7//7 144//144
f 7//7 103//103 144//144
f 153//153 159//159 198//198
f 154//154 180//180 150//150
f 154//154 155//155 160//160
f 156//156 92//92 150//150
f 180//180 157//157 150//150
f 153//153 151//151 159//159
f 199//199 198//198 159//159
f 153//153 198//198 146//146
f 156//156 159//159 151//151
f 154//154 160//160 161//161
f 154//154 161//161 180//180
f 205//205 161//161 160//160
f 179//179 202//202 204//204
f 206//206 213//213 229//229
f 213//213 163//163 229//229
f 129//129 128//128 164//164
f 132//132 133//133 165//165
f 137//137 166//166 136//136
f 135//135 138//138 167//167
f 18//18 177//177 419//419
f 23//23 289//289 11//11
f 288//288 26//26 11//11
f 420//420 26//26 288//288
f 13//13 12//12 169//169
f 188//188 13//13 421//421
f 188//188 421//421 17//17
f 426//426 170//170 17//17
f 170//170 188//188 17//17
f 170//170 426//426 171//171
f 171//171 426//426 425//425
f 4//4 170//170 171//171
f 15//15 171//171 88//88
f 100//100 15//15 88//88
f 247//247 194//194 8//8
f 246//246 247//247 8//8
f 194//194 90//90 173//173
f 8//8 194//194 28//28
f 176//176 8//8 28//28
f 176//176 175//175 8//8
f 246//246 8//8 175//175
f 174//174 3//3 28//28
f 99//99 176//176 28//28
f 194//194 193//193 100//100
f 175//175 176//176 98//98
f 99//99 98//98 176//176
f 207//207 201//201 162//162
f 162//162 233//233 213//213
f 207//207 203//203 158//158
f 158//158 205//205 160//160
f 160//160 207//207 158//158
f 178//178 177//177 18//18
f 177//177 178//178 257//257
f 439//439 178//178 18//18
f 19//19 178//178 439//439
f 280//280 245//245 21//21
f 205//205 197//197 161//161
f 197//197 179//179 199//199
f 205//205 202//202 179//179
f 204//204 202//202 196//196
f 197//197 180//180 161//161
f 32//32 34//34 291//291
f 183//183 181//181 182//182
f 185//185 187//187 89//89
f 182//182 181//181 16//16
f 191//191 183//183 182//182
f 97//97 186//186 185//185
f 186//186 97//97 255//255
f 14//14 13//13 188//188
f 26//26 13//13 14//14
f 168//168 25//25 30//30
f 147//147 146//146 148//148
f 147//147 148//148 149//149
f 212//212 189//189 200//200
f 200//200 189//189 149//149
f 149//149 148//148 200//200
f 208//208 163//163 209//209
f 155//155 149//149 189//189
f 190//190 200//200 152//152
f 147//147 149//149 144//144
f 147//147 145//145 146//146
f 183//183 31//31 14//14
f 26//26 23//23 11//11
f 168//168 34//34 33//33
f 193//193 194//194 247//247
f 93//93 193//193 247//247
f 196//196 195//195 204//204
f 199//199 179//179 204//204
f 197//197 205//205 179//179
f 198//198 199//199 195//195
f 199//199 204//204 195//195
f 195//195 148//148 198//198
f 148//148 146//146 198//198
f 152//152 196//196 202//202
f 160//160 155//155 201//201
f 201//201 207//207 160//160
f 202//202 206//206 152//152
f 203//203 162//162 206//206
f 159//159 157//157 180//180
f 205//205 158//158 202//202
f 159//159 156//156 157//157
f 203//203 207//207 162//162
f 202//202 158//158 203//203
f 197//197 159//159 180//180
f 203//203 206//206 202//202
f 162//162 201//201 233//233
f 226//226 212//212 190//190
f 229//229 163//163 208//208
f 208//208 209//209 210//210
f 211//211 242//242 244//244
f 239//239 155//155 219//219
f 209//209 217//217 216//216
f 219//219 226//226 214//214
f 239//239 224//224 201//201
f 155//155 239//239 201//201
f 163//163 213//213 222//222
f 212//212 219//219 189//189
f 214//214 239//239 219//219
f 251//251 243//243 232//232
f 221//221 216//216 217//217
f 215//215 216//216 221//221
f 210//210 216//216 232//232
f 220//220 215//215 221//221
f 216//216 215//215 251//251
f 214//214 226//226 232//232
f 226//226 230//230 210//210
f 231//231 163//163 222//222
f 223//223 228//228 236//236
f 213//213 233//233 235//235
f 223//223 238//238 225//225
f 233//233 201//201 224//224
f 249//249 236//236 228//228
f 234//234 222//222 235//235
f 235//235 222//222 213//213
f 213//213 206//206 162//162
f 190//190 152//152 206//206
f 226//226 219//219 212//212
f 229//229 208//208 210//210
f 230//230 229//229 210//210
f 219//219 155//155 189//189
f 210//210 209//209 216//216
f 229//229 230//230 206//206
f 226//226 190//190 230//230
f 217//217 218//218 221//221
f 231//231 218//218 217//217
f 190//190 206//206 230//230
f 209//209 231//231 217//217
f 231//231 209//209 163//163
f 210//210 232//232 226//226
f 231//231 222//222 218//218
f 234//234 218//218 222//222
f 251//251 250//250 252//252
f 239//239 225//225 224//224
f 232//232 239//239 214//214
f 249//249 220//220 221//221
f 240//240 220//220 228//228
f 234//234 221//221 218//218
f 234//234 249//249 221//221
f 224//224 235//235 233//233
f 238//238 237//237 224//224
f 237//237 235//235 224//224
f 236//236 237//237 223//223
f 237//237 234//234 235//235
f 236//236 234//234 237//237
f 238//238 223//223 237//237
f 238//238 224//224 225//225
f 234//234 236//236 249//249
f 232//232 216//216 251//251
f 239//239 232//232 225//225
f 242//242 228//228 241//241
f 241//241 225//225 243//243
f 228//228 242//242 240//240
f 244//244 242//242 241//241
f 254//254 252//252 250//250
f 248//248 240//240 242//242
f 248//248 253//253 240//240
f 243//243 244//244 241//241
f 253//253 227//227 240//240
f 19//19 20//20 178//178
f 19//19 245//245 20//20
f 175//175 1//1 246//246
f 247//247 246//246 192//192
f 106//106 246//246 1//1
f 211//211 248//248 242//242
f 211//211 253//253 248//248
f 250//250 251//251 215//215
f 249//249 228//228 220//220
f 228//228 223//223 225//225
f 225//225 241//241 228//228
f 220//220 250//250 215//215
f 220//220 254//254 250//250
f 254//254 220//220 227//227
f 244//244 243//243 252//252
f 244//244 252//252 211//211
f 251//251 252//252 243//243
f 254//254 211//211 252//252
f 211//211 254//254 253//253
f 254//254 227//227 253//253
f 243//243 225//225 232//232
f 240//240 227//227 220//220
f 494//494 255//255 260//260
f 255//255 97//97 260//260
f 257//257 258//258 256//256
f 177//177 257//257 256//256
f 256//256 258//258 5//5
f 258//258 259//259 5//5
f 256//256 5//5 6//6
f 259//259 260//260 104//104
f 260//260 258//258 257//257
f 178//178 260//260 257//257
f 260//260 97//97 104//104
f 259//259 258//258 260//260
f 273//273 289//289 334//334
f 354//354 340//340 265//265
f 287//287 348//348 353//353
f 436//436 352//352 270//270
f 268//268 275//275 347//347
f 263//263 446//446 486//486
f 427//427 425//425 265//265
f 344//344 185//185 366//366
f 266//266 285//285 272//272
f 443//443 272//272 277//277
f 443//443 277//277 182//182
f 282//282 277//277 273//273
f 288//288 11//11 273//273
f 185//185 344//344 347//347
f 270//270 351//351 495//495
f 20//20 278//278 494//494
f 280//280 21//21 279//279
f 278//278 20//20 280//280
f 280//280 20//20 281//281
f 280//280 281//281 22//22
f 24//24 290//290 292//292
f 334//334 283//283 284//284
f 282//282 24//24 292//292
f 264//264 344//344 366//366
f 397//397 285//285 266//266
f 268//268 347//347 344//344
f 423//423 421//421 169//169
f 273//273 277//277 272//272
f 277//277 282//282 293//293
f 12//12 274//274 169//169
f 293//293 292//292 29//29
f 290//290 29//29 292//292
f 282//282 291//291 24//24
f 282//282 284//284 294//294
f 292//292 293//293 282//282
f 291//291 282//282 294//294
f 295//295 291//291 294//294
f 295//295 294//294 296//296
f 168//168 296//296 294//294
f 295//295 297//297 36//36
f 295//295 296//296 297//297
f 297//297 296//296 298//298
f 298//298 39//39 297//297
f 40//40 35//35 38//38
f 296//296 35//35 40//40
f 298//298 296//296 40//40
f 299//299 39//39 298//298
f 298//298 40//40 301//301
f 37//37 299//299 41//41
f 37//37 39//39 299//299
f 40//40 300//300 301//301
f 299//299 301//301 302//302
f 303//303 299//299 302//302
f 301//301 43//43 304//304
f 304//304 302//302 301//301
f 303//303 41//41 299//299
f 304//304 44//44 307//307
f 304//304 307//307 302//302
f 46//46 303//303 302//302
f 306//306 46//46 302//302
f 44//44 305//305 307//307
f 308//308 306//306 307//307
f 48//48 46//46 306//306
f 307//307 305//305 51//51
f 307//307 51//51 308//308
f 48//48 309//309 56//56
f 48//48 306//306 309//309
f 309//309 306//306 308//308
f 51//51 53//53 308//308
f 310//310 56//56 309//309
f 309//309 308//308 312//312
f 308//308 311//311 312//312
f 311//311 335//335 312//312
f 316//316 312//312 335//335
f 309//309 312//312 316//316
f 310//310 316//316 323//323
f 316//316 310//310 309//309
f 321//321 311//311 318//318
f 318//318 311//311 308//308
f 318//318 308//308 53//53
f 61//61 310//310 323//323
f 313//313 314//314 316//316
f 313//313 316//316 335//335
f 323//323 314//314 315//315
f 315//315 322//322 323//323
f 323//323 316//316 314//314
f 53//53 67//67 318//318
f 67//67 317//317 318//318
f 318//318 317//317 319//319
f 319//319 321//321 318//318
f 317//317 320//320 319//319
f 61//61 73//73 71//71
f 327//327 323//323 322//322
f 61//61 323//323 329//329
f 320//320 317//317 324//324
f 73//73 329//329 325//325
f 73//73 61//61 329//329
f 327//327 326//326 328//328
f 328//328 329//329 327//327
f 327//327 329//329 323//323
f 77//77 330//330 324//324
f 77//77 331//331 330//330
f 332//332 330//330 331//331
f 84//84 332//332 331//331
f 84//84 325//325 332//332
f 332//332 325//325 329//329
f 328//328 332//332 329//329
f 332//332 328//328 326//326
f 332//332 326//326 333//333
f 330//330 332//332 333//333
f 283//283 294//294 284//284
f 301//301 299//299 298//298
f 306//306 302//302 307//307
f 337//337 22//22 336//336
f 342//342 268//268 338//338
f 341//341 446//446 345//345
f 90//90 172//172 339//339
f 261//261 268//268 342//342
f 427//427 341//341 345//345
f 339//339 427//427 345//345
f 397//397 275//275 399//399
f 397//397 266//266 275//275
f 342//342 343//343 261//261
f 446//446 341//341 338//338
f 396//396 427//427 340//340
f 340//340 427//427 265//265
f 341//341 427//427 396//396
f 191//191 182//182 277//277
f 344//344 264//264 268//268
f 276//276 428//428 430//430
f 187//187 275//275 16//16
f 275//275 266//266 16//16
f 363//363 264//264 350//350
f 399//399 275//275 268//268
f 338//338 268//268 486//486
f 90//90 339//339 346//346
f 355//355 369//369 360//360
f 343//343 354//354 261//261
f 261//261 354//354 269//269
f 269//269 354//354 271//271
f 264//264 366//366 350//350
f 361//361 352//352 353//353
f 340//340 354//354 343//343
f 353//353 348//348 362//362
f 271//271 354//354 422//422
f 444//444 273//273 271//271
f 271//271 423//423 444//444
f 387//387 342//342 338//338
f 338//338 341//341 391//391
f 391//391 390//390 338//338
f 387//387 338//338 390//390
f 357//357 368//368 362//362
f 369//369 358//358 360//360
f 359//359 356//356 365//365
f 357//357 362//362 364//364
f 358//358 369//369 365//365
f 365//365 356//356 358//358
f 359//359 364//364 430//430
f 430//430 364//364 348//348
f 361//361 351//351 352//352
f 360//360 351//351 361//361
f 362//362 361//361 353//353
f 360//360 350//350 351//351
f 350//350 360//360 363//363
f 356//356 359//359 264//264
f 355//355 360//360 361//361
f 361//361 362//362 355//355
f 359//359 365//365 364//364
f 365//365 367//367 364//364
f 360//360 358//358 363//363
f 357//357 367//367 368//368
f 365//365 369//369 367//367
f 364//364 362//362 348//348
f 364//364 367//367 357//357
f 352//352 351//351 270//270
f 363//363 358//358 356//356
f 356//356 264//264 363//363
f 369//369 370//370 367//367
f 369//369 355//355 370//370
f 370//370 368//368 367//367
f 368//368 370//370 377//377
f 377//377 370//370 355//355
f 372//372 362//362 374//374
f 355//355 372//372 371//371
f 355//355 371//371 377//377
f 362//362 372//372 355//355
f 371//371 373//373 377//377
f 374//374 375//375 372//372
f 371//371 378//378 373//373
f 379//379 377//377 373//373
f 374//374 362//362 368//368
f 368//368 376//376 374//374
f 377//377 379//379 368//368
f 379//379 415//415 380//380
f 379//379 380//380 382//382
f 376//376 368//368 379//379
f 386//386 376//376 381//381
f 386//386 374//374 376//376
f 382//382 376//376 379//379
f 379//379 373//373 378//378
f 379//379 378//378 416//416
f 416//416 415//415 379//379
f 376//376 382//382 383//383
f 417//417 381//381 385//385
f 418//418 381//381 417//417
f 381//381 418//418 386//386
f 382//382 380//380 383//383
f 384//384 376//376 383//383
f 384//384 383//383 417//417
f 376//376 384//384 381//381
f 385//385 381//381 384//384
f 386//386 375//375 374//374
f 396//396 340//340 389//389
f 388//388 389//389 340//340
f 340//340 343//343 388//388
f 388//388 343//343 342//342
f 393//393 388//388 342//342
f 393//393 389//389 388//388
f 387//387 393//393 342//342
f 389//389 393//393 395//395
f 389//389 391//391 396//396
f 391//391 389//389 395//395
f 390//390 392//392 387//387
f 393//393 387//387 392//392
f 393//393 392//392 521//521
f 394//394 390//390 391//391
f 395//395 394//394 391//391
f 391//391 341//341 396//396
f 269//269 397//397 398//398
f 269//269 445//445 261//261
f 398//398 397//397 404//404
f 261//261 402//402 399//399
f 261//261 399//399 268//268
f 404//404 406//406 398//398
f 406//406 447//447 398//398
f 409//409 451//451 441//441
f 441//441 408//408 409//409
f 403//403 400//400 448//448
f 435//435 447//447 440//440
f 404//404 397//397 399//399
f 486//486 268//268 264//264
f 435//435 440//440 412//412
f 272//272 285//285 271//271
f 272//272 271//271 273//273
f 273//273 284//284 282//282
f 397//397 269//269 271//271
f 271//271 285//285 397//397
f 398//398 447//447 445//445
f 445//445 269//269 398//398
f 408//408 402//402 414//414
f 449//449 435//435 453//453
f 404//404 399//399 402//402
f 450//450 410//410 407//407
f 450//450 413//413 410//410
f 441//441 451//451 434//434
f 408//408 406//406 404//404
f 440//440 441//441 412//412
f 414//414 410//410 413//413
f 454//454 460//460 433//433
f 380//380 415//415 416//416
f 418//418 375//375 386//386
f 418//418 417//417 375//375
f 443//443 266//266 272//272
f 191//191 277//277 293//293
f 439//439 18//18 438//438
f 438//438 18//18 419//419
f 294//294 283//283 168//168
f 289//289 283//283 334//334
f 288//288 273//273 444//444
f 288//288 444//444 420//420
f 420//420 274//274 12//12
f 274//274 420//420 444//444
f 423//423 169//169 274//274
f 421//421 422//422 17//17
f 421//421 423//423 422//422
f 426//426 17//17 424//424
f 422//422 424//424 17//17
f 424//424 265//265 425//425
f 424//424 422//422 265//265
f 426//426 424//424 425//425
f 286//286 171//171 425//425
f 425//425 427//427 286//286
f 286//286 88//88 171//171
f 339//339 172//172 286//286
f 427//427 339//339 286//286
f 262//262 446//446 263//263
f 262//262 345//345 446//446
f 267//267 346//346 262//262
f 346//346 267//267 90//90
f 173//173 90//90 267//267
f 346//346 345//345 262//262
f 267//267 174//174 173//173
f 428//428 262//262 263//263
f 429//429 267//267 276//276
f 267//267 429//429 174//174
f 3//3 174//174 429//429
f 267//267 262//262 276//276
f 262//262 428//428 276//276
f 359//359 428//428 263//263
f 345//345 346//346 339//339
f 431//431 430//430 348//348
f 431//431 276//276 430//430
f 276//276 431//431 429//429
f 430//430 428//428 359//359
f 287//287 431//431 348//348
f 431//431 287//287 429//429
f 435//435 434//434 432//432
f 434//434 435//435 412//412
f 349//349 279//279 439//439
f 438//438 349//349 439//439
f 279//279 19//19 439//439
f 21//21 19//19 279//279
f 406//406 408//408 441//441
f 413//413 450//450 442//442
f 450//450 451//451 442//442
f 32//32 291//291 295//295
f 187//187 185//185 347//347
f 275//275 187//187 347//347
f 186//186 366//366 185//185
f 266//266 443//443 16//16
f 495//495 366//366 497//497
f 437//437 495//495 496//496
f 16//16 443//443 182//182
f 29//29 191//191 293//293
f 366//366 186//186 497//497
f 422//422 354//354 265//265
f 444//444 423//423 274//274
f 289//289 273//273 11//11
f 284//284 273//273 334//334
f 423//423 271//271 422//422
f 448//448 400//400 414//414
f 403//403 401//401 400//400
f 445//445 414//414 402//402
f 414//414 445//445 448//448
f 460//460 454//454 455//455
f 407//407 414//414 400//400
f 448//448 447//447 403//403
f 403//403 447//447 449//449
f 414//414 407//407 410//410
f 261//261 445//445 402//402
f 447//447 448//448 445//445
f 191//191 29//29 184//184
f 447//447 406//406 440//440
f 413//413 442//442 409//409
f 406//406 441//441 440//440
f 409//409 414//414 413//413
f 408//408 414//414 409//409
f 449//449 447//447 435//435
f 407//407 405//405 465//465
f 432//432 434//434 433//433
f 451//451 411//411 433//433
f 407//407 465//465 450//450
f 442//442 451//451 409//409
f 408//408 404//404 402//402
f 433//433 411//411 465//465
f 434//434 412//412 441//441
f 411//411 450//450 465//465
f 434//434 451//451 433//433
f 411//411 451//451 450//450
f 400//400 405//405 407//407
f 453//453 432//432 452//452
f 449//449 466//466 403//403
f 487//487 492//492 491//491
f 487//487 482//482 492//492
f 478//478 466//466 449//449
f 455//455 464//464 458//458
f 481//481 493//493 480//480
f 401//401 405//405 400//400
f 460//460 473//473 433//433
f 458//458 463//463 470//470
f 458//458 470//470 471//471
f 456//456 458//458 464//464
f 471//471 455//455 458//458
f 458//458 472//472 463//463
f 469//469 468//468 405//405
f 471//471 473//473 460//460
f 453//453 435//435 432//432
f 488//488 489//489 474//474
f 452//452 473//473 461//461
f 463//463 480//480 475//475
f 461//461 473//473 462//462
f 473//473 432//432 433//433
f 432//432 473//473 452//452
f 464//464 457//457 459//459
f 479//479 488//488 480//480
f 459//459 456//456 464//464
f 465//465 468//468 433//433
f 488//488 475//475 480//480
f 466//466 457//457 405//405
f 466//466 405//405 401//401
f 455//455 469//469 464//464
f 457//457 469//469 405//405
f 478//478 449//449 453//453
f 466//466 401//401 403//403
f 489//489 478//478 467//467
f 467//467 478//478 453//453
f 467//467 453//453 452//452
f 461//461 467//467 452//452
f 433//433 468//468 454//454
f 468//468 469//469 454//454
f 454//454 469//469 455//455
f 405//405 468//468 465//465
f 460//460 455//455 471//471
f 457//457 464//464 469//469
f 471//471 470//470 473//473
f 475//475 462//462 470//470
f 470//470 462//462 473//473
f 492//492 472//472 491//491
f 472//472 492//492 481//481
f 479//479 485//485 489//489
f 478//478 459//459 477//477
f 463//463 475//475 470//470
f 461//461 476//476 467//467
f 476//476 461//461 462//462
f 488//488 474//474 476//476
f 476//476 462//462 475//475
f 488//488 476//476 475//475
f 467//467 474//474 489//489
f 467//467 476//476 474//474
f 477//477 457//457 466//466
f 477//477 459//459 457//457
f 466//466 478//478 477//477
f 472//472 458//458 456//456
f 480//480 483//483 487//487
f 487//487 479//479 480//480
f 479//479 487//487 485//485
f 483//483 480//480 493//493
f 481//481 492//492 490//490
f 484//484 483//483 493//493
f 472//472 456//456 491//491
f 490//490 484//484 493//493
f 485//485 487//487 491//491
f 349//349 278//278 279//279
f 278//278 280//280 279//279
f 359//359 486//486 264//264
f 486//486 359//359 263//263
f 446//446 338//338 486//486
f 487//487 483//483 484//484
f 482//482 487//487 484//484
f 459//459 485//485 456//456
f 481//481 480//480 463//463
f 459//459 478//478 489//489
f 481//481 463//463 472//472
f 479//479 489//489 488//488
f 491//491 456//456 485//485
f 490//490 492//492 482//482
f 490//490 482//482 484//484
f 459//459 489//489 485//485
f 493//493 481//481 490//490
f 255//255 494//494 497//497
f 186//186 255//255 497//497
f 497//497 494//494 349//349
f 349//349 494//494 278//278
f 436//436 437//437 496//496
f 436//436 496//496 419//419
f 437//437 270//270 495//495
f 436//436 270//270 437//437
f 496//496 495//495 497//497
f 496//496 349//349 438//438
f 351//351 350//350 495//495
f 349//349 496//496 497//497
f 438//438 419//419 496//496
f 495//495 350//350 366//366
f 498//498 143//143 499//499
f 498//498 505//505 500//500
f 143//143 498//498 500//500
f 505//505 498//498 502//502
f 505//505 501//501 504//504
f 503//503 500//500 505//505
f 501//501 505//505 502//502
f 501//501 143//143 500//500
f 501//501 500//500 508//508
f 505//505 506//506 503//503
f 503//503 508//508 500//500
f 508//508 504//504 501//501
f 513//513 508//508 503//503
f 504//504 506//506 505//505
f 514//514 513//513 503//503
f 507//507 509//509 515//515
f 512//512 509//509 507//507
f 507//507 504//504 512//512
f 512//512 504//504 508//508
f 516//516 507//507 515//515
f 504//504 515//515 506//506
f 504//504 507//507 515//515
f 512//512 508//508 510//510
f 510//510 509//509 512//512
f 510//510 512//512 517//517
f 511//511 512//512 509//509
f 512//512 511//511 509//509
f 512//512 510//510 518//518
f 517//517 518//518 510//510
f 512//512 518//518 517//517
f 513//513 510//510 508//508
f 513//513 514//514 510//510
f 515//515 507//507 516//516
f 521//521 395//395 393//393
f 395//395 521//521 394//394
f 394//394 392//392 390//390
f 521//521 392//392 520//520
f 523//523 394//394 521//521
f 392//392 394//394 519//519
f 519//519 524//524 520//520
f 520//520 524//524 526//526
f 520//520 523//523 521//521
f 522//522 519//519 394//394
f 520//520 392//392 519//519
f 523//523 522//522 394//394
f 526//526 523//523 520//520
f 519//519 522//522 524//524
f 522//522 532//532 524//524
f 523//523 526//526 527//527
f 533//533 536//536 530//530
f 532//532 522//522 525//525
f 530//530 523//523 527//527
f 527//527 533//533 530//530
f 529//529 525//525 530//530
f 525//525 522//522 530//530
f 530//530 522//522 523//523
f 534//534 536//536 533//533
f 526//526 534//534 527//527
f 525//525 529//529 528//528
f 531//531 525//525 539//539
f 525//525 531//531 532//532
f 536//536 537//537 530//530
f 529//529 530//530 537//537
f 538//538 529//529 537//537
f 528//528 529//529 538//538
f 539//539 525//525 528//528
f 525//525 532//532 535//535
f 525//525 535//535 532//532
f 533//533 527//527 534//534
f 537//537 536//536 538//538
f 531//531 539//539 528//528
f 417//417 383//383 380//380
f 380//380 375//375 417//417
f 378//378 375//375 380//380
f 380//380 416//416 378//378
f 375//375 371//371 372//372
f 132//132 166//166 135//135
f 130//130 132//132 135//135
f 132//132 130//130 126//126
f 130//130 129//129 126//126
f 135//135 123//123 130//130
f 193//193 93//93 95//95
f 436//436 419//419 9//9
f 9//9 287//287 436//436
f 9//9 3//3 287//287
f 6//6 9//9 256//256
f 105//105 9//9 6//6
f 353//353 436//436 287//287
f 429//429 287//287 3//3
f 99//99 3//3 9//9
f 436//436 353//353 352//352
f 3//3 99//99 28//28
f 514//514 503//503 506//506
f 506//506 510//510 514//514
f 506//506 509//509 510//510
f 506//506 515//515 509//509
f 526//526 524//524 532//532
f 532//532 528//528 526//526
f 532//532 531//531 528//528
f 528//528 536//536 526//526
f 536//536 534//534 526//526
f 528//528 538//538 536//536
f 333//333 326//326 327//327
f 333//333 327//327 322//322
f 330//330 333//333 322//322
f 324//324 330//330 322//322
f 324//324 322//322 315//315
f 320//320 324//324 315//315
f 320//320 315//315 314//314
f 319//319 320//320 314//314
f 319//319 314//314 313//313
f 321//321 319//319 313//313
f 321//321 313//313 335//335
f 311//311 321//321 335//335
f 193//193 93//93 247//247
f 193//193 247//247 93//93
f 69//69 81//81 83//83
f 69//69 83//83 82//82
f 68//68 69//69 82//82
f 68//68 82//82 80//80
f 80//80 77//77 76//76
f 68//68 80//80 76//76
f 64//64 68//68 76//76
f 64//64 76//76 72//72
f 62//62 64//64 72//72
f 62//62 72//72 66//66
f 63//63 62//62 66//66
f 63//63 66//66 65//65
f 58//58 63//63 65//65
f 58//58 65//65 54//54
f 55//55 58//58 54//54
f 256//256 9//9 419//419
f 126//126 133//133 132//132
f 256//256 419//419 177//177
f 417//417 385//385 384//384
f 126//126 129//129 164//164
f 375//375 378//378 371//371
# 1074 faces, 0 coords texture

# End of File
