####
#
# OBJ File Generated by Meshlab
#
####
# Object original.obj
#
# Vertices: 502
# Faces: 1000
#
####
v -0.319804 -0.870130 -0.391814
v -0.344961 -0.871126 -0.322350
v -0.205312 -0.869637 -0.435768
v -0.013387 -0.868688 -0.526616
v -0.244664 -0.749651 -0.314643
v -0.294158 -0.871845 -0.280403
v -0.078753 -0.846469 -0.483693
v -0.129365 -0.869820 -0.438684
v -0.062469 -0.779388 -0.401360
v 0.051846 -0.756658 -0.533131
v -0.346429 -0.781883 -0.113979
v 0.056747 -0.710343 -0.491332
v 0.110364 -0.726209 -0.560639
v -0.410197 -0.874285 -0.087784
v -0.313777 -0.872723 -0.213693
v -0.203704 -0.742882 -0.370034
v -0.018793 -0.757602 -0.466284
v -0.579525 0.710510 0.032646
v -0.122457 -0.757531 -0.317781
v -0.550772 0.923199 -0.019577
v 0.101156 -0.828775 -0.522771
v 0.173085 -0.695714 -0.533692
v -0.111918 -0.585467 -0.348250
v -0.466685 0.846984 0.077662
v -0.411068 1.056480 -0.054731
v -0.519338 1.062991 0.016478
v 0.043258 -0.705066 -0.457215
v -0.542885 0.868821 0.048991
v -0.383069 0.972251 -0.108322
v -0.506948 1.048363 0.092774
v -0.453829 1.196140 0.039078
v -0.475145 1.094688 -0.033312
v -0.242146 -0.782790 -0.163444
v -0.434310 0.750581 -0.014850
v -0.524823 0.658104 0.057670
v -0.237368 0.913889 -0.182115
v -0.480026 0.965464 0.010999
v -0.360190 0.908083 -0.070882
v -0.238905 -0.672688 -0.147961
v -0.168875 -0.733926 -0.252459
v 0.021320 -0.624201 -0.383115
v -0.527961 0.624612 0.053628
v -0.469908 0.834027 0.010894
v -0.367419 1.005932 -0.043946
v 0.175137 -0.767723 -0.535326
v -0.234433 -0.742794 -0.205191
v -0.097205 -0.603346 -0.289485
v -0.316534 0.799582 -0.084812
v 0.155403 -0.869627 -0.461759
v 0.151902 -0.800742 -0.450881
v -0.110844 0.916116 -0.183413
v -0.019457 1.189096 -0.329024
v -0.069873 -0.557506 -0.205199
v 0.026662 -0.531102 -0.316387
v -0.336296 0.700899 -0.027963
v -0.396686 0.890975 0.047986
v -0.450753 1.149370 0.080061
v -0.049872 1.345825 -0.231677
v -0.180875 -0.719127 -0.135441
v 0.140117 -0.576128 -0.447822
v 0.069227 -0.594364 -0.399483
v -0.510645 0.609901 0.135525
v -0.178798 0.854780 -0.192454
v -0.268156 1.031831 -0.069341
v -0.250045 0.951329 -0.111504
v -0.428900 1.016910 0.034182
v -0.124368 0.998026 -0.158349
v 0.049293 1.157021 -0.316180
v -0.403701 1.147076 0.027299
v -0.151878 1.242225 -0.232809
v -0.350619 -0.874663 -0.065822
v -0.321353 -0.849148 0.013827
v -0.011124 -0.448732 -0.334684
v -0.392819 0.832991 0.043938
v -0.263206 0.708043 -0.053690
v 0.217245 -0.711872 -0.424532
v -0.248306 -0.707934 -0.078660
v -0.205694 -0.542475 -0.100827
v -0.107448 -0.524421 -0.194091
v -0.172179 -0.409646 -0.107879
v -0.438563 0.666385 0.049532
v -0.132637 0.814432 -0.162562
v -0.470981 0.890309 0.171005
v -0.322725 0.982426 0.015540
v -0.015390 1.073387 -0.201738
v -0.310392 1.125591 0.002186
v -0.129808 1.187461 -0.259908
v 0.205346 -0.840362 -0.394344
v 0.304048 -0.842288 -0.459711
v -0.275792 -0.775760 -0.007738
v -0.145251 -0.573995 -0.124845
v 0.119367 -0.363534 -0.287196
v -0.080886 -0.370677 -0.185618
v 0.112956 -0.214078 -0.221028
v -0.236342 -0.437523 -0.064511
v -0.431309 0.630202 0.196954
v -0.170617 0.756303 -0.115642
v -0.350758 1.230568 0.089683
v 0.092971 1.214166 -0.330106
v -0.475639 1.203997 0.140098
v -0.125782 1.301110 -0.168405
v 0.261896 -0.870013 -0.436576
v 0.261087 -0.859433 -0.466334
v 0.210503 -0.760496 -0.376537
v 0.220410 -0.624891 -0.418393
v 0.213211 -0.507410 -0.400763
v -0.111856 -0.457788 -0.110709
v -0.109366 -0.331599 -0.110347
v -0.167677 -0.271500 -0.090652
v -0.465608 0.741554 0.138586
v -0.446236 0.709686 0.059986
v 0.010335 1.075290 -0.275028
v -0.351031 -0.875655 0.009627
v 0.009590 -0.444612 -0.257102
v -0.319328 -0.832313 0.069528
v 0.257531 -0.799048 -0.435993
v -0.250277 -0.779996 0.009632
v -0.206008 -0.197676 -0.064343
v -0.097585 -0.087605 -0.106446
v -0.114277 -0.082620 -0.043385
v -0.071091 0.845601 -0.140253
v -0.445379 0.808001 0.179527
v -0.090992 1.123177 -0.147331
v -0.434185 1.170828 0.170917
v -0.112735 1.188112 -0.098083
v 0.010159 1.309998 -0.312743
v -0.387724 -0.870949 0.102366
v 0.234788 -0.703715 -0.329620
v -0.204564 -0.554119 -0.005651
v -0.017493 -0.455678 -0.169019
v -0.040159 -0.306463 -0.144647
v -0.074477 -0.211181 -0.135713
v -0.177311 -0.034046 -0.063814
v -0.191195 0.025666 -0.035133
v -0.414004 0.712652 0.089534
v -0.366888 0.746183 0.179064
v -0.011324 0.733910 -0.099248
v -0.437522 0.974144 0.188711
v 0.086787 0.977363 -0.189016
v 0.135108 1.109721 -0.199707
v 0.246902 -0.843498 -0.354755
v 0.158125 -0.419874 -0.361875
v -0.191544 -0.230723 0.018282
v -0.099488 -0.202195 -0.080638
v 0.004970 -0.271982 -0.174627
v -0.150335 0.309266 -0.038577
v -0.355773 0.820754 0.099744
v -0.321535 0.904573 0.101548
v -0.409842 0.869682 0.178906
v -0.342560 1.056052 0.118841
v -0.023087 0.997112 -0.157953
v -0.177326 1.078890 -0.102474
v -0.047173 1.081870 -0.097012
v 0.136380 1.247475 -0.281159
v 0.281585 -0.871288 -0.339016
v -0.230793 -0.728234 0.066756
v 0.157251 -0.158273 -0.234475
v -0.026939 0.077687 -0.160096
v -0.038430 -0.052726 -0.099525
v -0.093179 0.207376 -0.069560
v -0.012501 0.272773 -0.098530
v -0.061147 0.256728 -0.094846
v -0.045442 0.315356 -0.129406
v -0.067499 0.890330 -0.162773
v -0.206751 1.090895 0.035191
v 0.154258 1.161778 -0.292696
v -0.335612 1.239032 0.227219
v -0.399263 1.267074 0.243407
v 0.064524 1.331855 -0.163962
v -0.414406 1.321303 0.158167
v -0.353571 -0.824481 0.139815
v 0.051343 -0.281411 -0.177330
v -0.119822 0.198632 -0.021722
v -0.293212 0.716655 0.009013
v -0.148504 0.756878 -0.028606
v -0.219472 0.941453 0.080687
v -0.298036 0.972979 0.149112
v -0.242077 -0.877875 0.171887
v 0.043733 -0.053400 -0.186512
v -0.182027 0.056391 0.021196
v -0.167201 0.239178 0.022205
v -0.088664 0.460518 -0.031430
v -0.053251 0.608328 -0.082584
v -0.102991 0.596681 -0.023551
v 0.001648 0.558194 -0.113010
v -0.386923 0.728608 0.258960
v -0.394869 1.024978 0.236980
v -0.023103 1.078105 -0.061249
v 0.075873 1.076359 -0.167814
v -0.325678 1.175416 0.165451
v -0.034287 1.306077 -0.100122
v 0.102989 -0.141413 -0.161850
v 0.076905 0.063093 -0.171943
v 0.027864 0.049472 -0.130769
v 0.054478 0.412282 -0.146992
v -0.022096 0.440952 -0.084078
v 0.012974 0.751361 -0.117570
v -0.070440 0.732489 -0.063337
v -0.427984 1.027731 0.311447
v 0.253029 -0.711655 -0.270634
v -0.221812 -0.324329 0.112401
v 0.065993 -0.063010 -0.123089
v -0.180887 0.251240 0.089165
v 0.027135 0.203800 -0.134829
v -0.146632 0.514970 0.051450
v -0.267705 0.832423 0.062270
v -0.213644 0.988117 0.098091
v -0.383531 1.148426 0.172312
v 0.010488 1.186363 -0.042334
v -0.245010 -0.580804 0.101072
v 0.273396 -0.583827 -0.307364
v -0.215778 -0.113075 0.093014
v 0.148792 0.191295 -0.182921
v 0.039236 0.569241 -0.110552
v 0.191247 0.909412 -0.194257
v -0.367829 1.096402 0.197724
v -0.314217 1.313223 0.274709
v 0.154104 1.221745 -0.148682
v -0.196607 -0.733777 0.101056
v -0.195133 -0.588515 0.124464
v 0.246329 -0.266933 -0.254957
v 0.130377 0.350836 -0.120612
v 0.082286 0.619688 -0.136997
v -0.180682 0.816867 0.064494
v -0.410017 0.972788 0.307508
v -0.257803 -0.836863 0.134098
v 0.263398 -0.541009 -0.206981
v -0.161071 -0.544705 0.093897
v 0.285193 -0.456572 -0.296712
v 0.305784 -0.328988 -0.252328
v -0.168093 -0.024222 0.113500
v 0.113610 0.485849 -0.127935
v -0.114869 0.680962 0.023890
v -0.362410 0.913051 0.283058
v -0.080786 0.956774 0.063042
v -0.049797 1.044111 -0.028436
v -0.125155 1.015499 0.086450
v -0.394791 1.130353 0.277184
v 0.059941 1.290554 -0.080182
v -0.215805 1.426393 0.363348
v 0.339388 -0.872132 -0.277164
v 0.231054 -0.138930 -0.184066
v 0.245467 0.109924 -0.141036
v 0.127755 -0.058132 -0.133191
v 0.151308 -0.092978 -0.174629
v 0.175356 0.310296 -0.173354
v 0.083143 0.705997 -0.134732
v -0.104926 0.824762 -0.007756
v -0.095759 0.895578 0.056676
v -0.412585 0.847353 0.295741
v 0.178401 1.053257 -0.148780
v 0.145123 1.081691 -0.108770
v 0.079745 1.166700 -0.084370
v -0.149326 -0.767632 0.154721
v 0.266051 -0.512628 -0.203645
v 0.098591 1.056945 -0.021117
v -0.394874 1.349816 0.241877
v -0.300493 1.388227 0.215738
v 0.297316 -0.807447 -0.258912
v -0.148136 0.315517 0.141819
v 0.127974 0.777064 -0.141464
v 0.254729 -0.531462 -0.141742
v -0.121159 -0.027701 0.158315
v 0.148258 0.077416 -0.117997
v 0.154523 0.579720 -0.102825
v 0.257956 -0.797313 -0.263740
v -0.124309 -0.538981 0.141124
v 0.303346 -0.321773 -0.074172
v -0.144450 -0.390026 0.114573
v -0.122176 -0.203334 0.162980
v 0.143500 0.678469 -0.137965
v 0.205636 0.735244 -0.108047
v 0.318321 0.956714 -0.205990
v 0.037682 1.019879 0.034866
v 0.269154 -0.164753 -0.213417
v 0.305159 0.273590 -0.081675
v -0.105621 0.607610 0.125780
v 0.245080 0.758774 -0.131732
v -0.223997 1.470084 0.296213
v 0.320089 -0.858981 -0.216578
v 0.318021 -0.748124 -0.190959
v -0.107620 0.233347 0.185088
v 0.232133 0.226398 -0.100351
v 0.215794 0.404953 -0.102246
v 0.229574 0.496862 -0.156396
v -0.040711 0.916820 0.137773
v 0.228478 1.087939 -0.075906
v -0.202647 1.403957 0.325340
v 0.293504 -0.789628 -0.095288
v 0.305207 -0.093207 -0.152695
v 0.261223 0.307006 -0.122112
v -0.077790 0.463901 0.198144
v 0.232436 0.371223 -0.078187
v 0.249814 0.877747 -0.203017
v -0.106794 -0.626397 0.214833
v 0.309710 0.171133 -0.084879
v 0.241864 0.570298 -0.050783
v -0.033116 0.791010 0.143382
v 0.315546 0.648042 -0.058449
v 0.289785 1.020220 -0.194682
v 0.121242 1.031492 0.033819
v 0.160239 1.064581 -0.014746
v -0.169095 -0.831510 0.203982
v 0.364897 -0.819898 -0.124537
v 0.255634 -0.655023 -0.083988
v 0.294201 -0.593976 -0.145788
v -0.112581 -0.176508 0.210235
v 0.289897 0.342880 -0.062313
v -0.223050 1.469647 0.351935
v 0.284584 -0.595060 0.020836
v -0.078324 -0.074588 0.247464
v 0.300633 0.531031 -0.085957
v 0.271712 0.448811 -0.043410
v 0.068544 0.816711 0.157687
v 0.079515 0.960774 0.093405
v -0.122233 -0.878829 0.240462
v -0.025836 -0.748680 0.170762
v 0.265219 -0.457861 0.027163
v -0.058559 -0.458859 0.204909
v -0.083146 -0.440722 0.236703
v -0.029402 -0.486764 0.170179
v -0.045709 -0.185318 0.199671
v 0.325258 0.336205 -0.040943
v 0.306278 0.427953 -0.058653
v 0.340986 0.958567 -0.145837
v -0.079022 -0.751443 0.252288
v -0.056096 -0.615203 0.238456
v 0.296063 -0.478631 -0.032183
v 0.338017 -0.186005 -0.119708
v -0.035044 0.039691 0.212589
v -0.068369 0.276071 0.228017
v 0.410202 0.634419 -0.079959
v 0.338726 1.027912 -0.098234
v 0.083706 -0.878789 0.230632
v -0.049012 -0.878977 0.274001
v 0.258273 -0.493588 -0.035232
v 0.338835 0.044333 -0.089925
v -0.023134 0.480426 0.218364
v -0.086886 1.474899 0.293383
v 0.424811 -0.874097 -0.130725
v 0.040198 -0.789516 0.185684
v 0.010814 0.157385 0.241579
v 0.312323 0.766233 -0.156918
v -0.118018 1.408594 0.368337
v -0.059581 1.414642 0.301553
v 0.337667 -0.757116 -0.009858
v 0.099017 -0.611438 0.162095
v 0.029388 -0.505468 0.201046
v 0.302403 -0.171874 0.025075
v 0.359194 -0.112189 -0.097158
v 0.003921 -0.172924 0.222521
v 0.252019 0.639192 -0.042291
v 0.230798 1.035507 0.000765
v 0.017535 -0.878461 0.249437
v 0.321088 0.566976 0.050689
v 0.019963 0.708858 0.189052
v 0.076156 0.649203 0.219476
v 0.317539 -0.875759 -0.004597
v 0.033797 -0.692543 0.194193
v 0.092526 -0.762424 0.180568
v 0.108885 -0.610877 0.238727
v 0.364122 0.148195 -0.033457
v 0.349386 0.185350 -0.058892
v 0.019862 0.475423 0.244832
v 0.381454 0.589090 -0.073729
v 0.290554 -0.811719 -0.000554
v 0.077940 0.512746 0.250495
v 0.303116 0.687577 0.019655
v 0.164342 0.790921 0.155833
v 0.228437 0.924840 0.129944
v 0.358648 1.021064 -0.015968
v 0.349056 -0.840668 0.065714
v 0.247850 -0.607108 0.076907
v 0.187892 -0.668747 0.124310
v 0.150345 -0.671439 0.187917
v 0.156240 -0.572157 0.171362
v 0.083263 -0.370148 0.232465
v 0.299999 -0.289363 0.076228
v 0.052490 0.142600 0.260834
v 0.023863 0.327016 0.258503
v 0.399343 0.779462 -0.119337
v 0.240572 0.812468 0.130617
v 0.282586 0.903906 0.037811
v 0.171173 -0.438679 0.176829
v 0.038073 -0.375716 0.280387
v 0.062404 -0.156219 0.234156
v 0.086873 0.131592 0.251678
v 0.360082 0.326333 0.006888
v 0.121385 0.642594 0.218132
v 0.276976 0.803897 0.011238
v 0.355839 0.946933 0.003749
v 0.111053 -0.877906 0.163696
v 0.144538 -0.836239 0.187419
v 0.278616 -0.877775 0.144916
v 0.267456 -0.414963 0.108717
v 0.012695 -0.488203 0.339990
v 0.109876 -0.464289 0.249939
v 0.185096 -0.505937 0.134769
v 0.080519 -0.207937 0.265860
v 0.057124 -0.061072 0.295248
v 0.078831 -0.053709 0.262270
v 0.334022 0.507956 0.046969
v 0.120104 0.713348 0.205219
v 0.289322 0.724354 0.124229
v 0.488618 0.837242 -0.061067
v 0.179593 -0.875239 0.230786
v 0.205956 -0.771795 0.109615
v 0.276774 -0.717369 0.125885
v 0.267075 -0.570923 0.131126
v 0.061432 -0.220817 0.319386
v 0.343847 0.020129 0.035499
v 0.108726 0.430240 0.260166
v 0.476139 0.601855 -0.018413
v 0.154156 0.693090 0.234680
v 0.295616 0.088992 0.138900
v 0.357226 0.657735 0.046707
v 0.314933 0.622341 0.080484
v 0.261876 0.485616 0.186840
v 0.360310 0.711343 0.118057
v 0.308324 0.798480 0.103325
v 0.144141 -0.509584 0.209934
v 0.351371 -0.389071 0.099123
v 0.091117 0.192969 0.286679
v 0.325172 0.251637 0.137675
v 0.142080 0.530016 0.259566
v 0.384244 0.552670 0.057329
v 0.328073 0.479168 0.112855
v 0.218831 0.531174 0.242145
v 0.213907 0.676583 0.196584
v 0.181030 0.513839 0.275901
v 0.373905 0.664464 0.078761
v 0.285065 0.760318 0.188469
v 0.321259 0.850972 0.053038
v 0.208298 -0.314312 0.231064
v 0.327538 -0.237349 0.144842
v 0.435582 0.517870 0.046043
v 0.296537 0.576802 0.124301
v 0.273048 0.827066 0.173108
v 0.183293 -0.491838 0.273379
v 0.289388 -0.356281 0.232672
v 0.463498 0.523139 -0.023763
v 0.234894 0.491290 0.225027
v 0.221129 0.715094 0.263091
v 0.440548 0.873154 0.023639
v 0.407380 0.886914 0.091443
v 0.202697 -0.163152 0.244841
v 0.193363 -0.047897 0.309512
v 0.217682 -0.018473 0.243944
v 0.277636 0.091967 0.197680
v 0.190883 0.122979 0.268044
v 0.196990 0.386263 0.261844
v 0.180336 -0.414480 0.293265
v 0.111623 -0.419639 0.379362
v 0.315895 -0.259783 0.197091
v 0.187675 0.151604 0.321976
v 0.144103 0.204196 0.333142
v 0.230258 0.381612 0.274889
v 0.565740 0.673782 -0.018439
v 0.388730 0.799437 0.136780
v 0.207802 -0.422516 0.375942
v 0.127284 0.005004 0.351386
v 0.163642 -0.032441 0.340544
v 0.246505 0.283229 0.270431
v 0.297871 0.196709 0.244741
v 0.402123 0.529893 0.155352
v 0.510414 0.843354 0.003522
v 0.198890 -0.300139 0.294726
v 0.283310 -0.120798 0.199842
v 0.247211 0.186328 0.283276
v 0.449885 0.385020 0.101156
v 0.411497 0.424415 0.126523
v 0.482493 0.653802 0.053577
v 0.577506 0.766370 0.020451
v 0.154590 -0.398573 0.415510
v 0.206330 -0.298130 0.324504
v 0.289515 -0.000203 0.302334
v 0.504182 0.490954 0.067341
v 0.158466 -0.158793 0.378232
v 0.254055 -0.224330 0.266069
v 0.459412 0.420481 0.113939
v 0.482760 0.520235 0.089752
v 0.555255 0.864410 0.078377
v 0.346558 -0.375614 0.203600
v 0.369373 -0.214746 0.259900
v 0.502813 0.570521 0.153507
v 0.501295 0.824417 0.110062
v 0.280809 -0.228661 0.327013
v 0.527603 0.366445 0.088804
v 0.611543 0.405423 0.014359
v 0.541404 0.569690 0.035755
v 0.573129 0.619915 0.061678
v 0.634063 0.722766 0.044746
v 0.559077 0.517237 0.071305
v 0.651121 0.578759 0.021027
v 0.552070 0.643954 0.132125
v 0.473999 0.734453 0.168445
v 0.286583 -0.347211 0.325777
v 0.402628 -0.301456 0.278060
v 0.663282 0.482534 0.046152
v 0.510495 0.781628 0.158470
v 0.678173 0.612259 0.052531
v 0.603732 0.763445 0.099138
# 502 vertices, 0 vertices normals

f 1 3 6
f 1 16 3
f 1 5 16
f 2 1 6
f 4 7 17
f 1 2 5
f 4 8 7
f 7 8 9
f 19 8 3
f 4 10 21
f 4 12 10
f 4 17 12
f 7 9 17
f 5 2 40
f 9 27 17
f 9 8 19
f 3 16 19
f 27 9 41
f 18 28 20
f 15 14 11
f 6 15 46
f 40 2 6
f 12 13 10
f 23 16 5
f 18 20 43
f 26 37 20
f 8 4 358
f 40 6 46
f 5 40 23
f 43 20 37
f 3 8 6
f 15 11 33
f 13 12 22
f 18 42 35
f 34 42 18
f 34 18 43
f 18 24 28
f 26 32 37
f 4 21 49
f 14 15 71
f 46 15 33
f 16 23 19
f 12 17 27
f 29 36 38
f 21 10 50
f 41 9 19
f 27 41 61
f 114 23 47
f 36 29 65
f 25 37 32
f 32 26 31
f 8 358 6
f 13 45 10
f 23 40 47
f 22 12 60
f 12 27 60
f 24 18 35
f 29 38 37
f 29 37 25
f 29 25 44
f 20 30 26
f 32 69 25
f 69 32 31
f 45 50 10
f 33 11 39
f 27 61 60
f 19 23 54
f 54 23 73
f 43 38 48
f 43 37 38
f 24 20 28
f 126 87 70
f 50 45 103
f 59 33 39
f 40 53 47
f 79 40 46
f 105 22 60
f 41 19 54
f 55 42 34
f 34 48 55
f 34 43 48
f 48 63 82
f 38 36 51
f 30 20 24
f 25 69 44
f 87 52 112
f 52 87 126
f 49 21 50
f 14 71 11
f 45 13 22
f 77 11 71
f 39 11 77
f 46 33 59
f 53 114 47
f 40 79 53
f 54 73 92
f 73 23 114
f 42 62 35
f 42 55 81
f 35 111 24
f 63 48 51
f 48 38 51
f 24 66 30
f 36 65 67
f 65 29 44
f 64 44 69
f 31 26 57
f 99 52 126
f 126 70 58
f 71 113 72
f 46 59 79
f 61 41 54
f 35 62 111
f 75 55 48
f 97 75 48
f 82 97 48
f 111 74 24
f 56 24 74
f 24 56 66
f 65 44 64
f 64 69 86
f 57 30 66
f 26 30 57
f 52 99 68
f 58 70 101
f 89 45 116
f 116 45 76
f 45 22 76
f 142 60 61
f 55 174 81
f 84 66 56
f 67 65 152
f 84 57 66
f 87 112 85
f 68 112 52
f 4 49 358
f 49 50 88
f 103 45 89
f 71 72 90
f 77 71 90
f 39 91 59
f 39 77 78
f 79 59 91
f 79 91 107
f 91 39 78
f 42 81 62
f 81 96 62
f 63 164 82
f 164 63 51
f 51 36 67
f 64 152 65
f 98 69 31
f 57 100 31
f 15 6 316
f 22 105 76
f 105 60 106
f 142 61 92
f 61 54 92
f 80 78 95
f 73 114 94
f 92 73 157
f 73 94 157
f 55 75 174
f 74 111 110
f 122 83 74
f 56 74 83
f 87 85 123
f 70 87 125
f 49 88 102
f 50 103 88
f 77 95 78
f 91 78 80
f 60 142 106
f 79 107 93
f 80 95 109
f 109 95 118
f 111 62 110
f 135 96 81
f 135 81 174
f 152 64 165
f 57 84 150
f 57 150 100
f 166 68 154
f 87 123 125
f 68 99 154
f 101 70 125
f 99 126 154
f 358 49 155
f 113 127 115
f 113 115 72
f 72 117 90
f 116 76 104
f 77 90 117
f 95 77 117
f 117 129 95
f 91 80 107
f 114 53 130
f 53 79 130
f 79 93 130
f 132 93 108
f 93 107 108
f 95 129 118
f 131 93 132
f 110 62 96
f 135 147 136
f 147 135 206
f 74 110 122
f 121 82 164
f 56 83 138
f 64 86 165
f 100 150 124
f 86 69 98
f 98 31 170
f 31 100 170
f 113 71 316
f 102 103 89
f 49 102 155
f 103 102 88
f 104 76 128
f 114 130 172
f 94 114 172
f 93 131 130
f 107 80 108
f 80 109 108
f 109 118 133
f 133 118 134
f 97 82 121
f 150 56 138
f 84 56 150
f 164 51 67
f 123 85 153
f 126 58 169
f 127 171 115
f 118 129 143
f 132 108 119
f 109 133 120
f 133 134 146
f 75 175 174
f 175 75 97
f 164 67 151
f 112 68 140
f 85 189 153
f 68 166 140
f 165 86 98
f 124 168 100
f 170 100 257
f 154 126 169
f 72 115 117
f 129 117 156
f 172 130 145
f 119 108 144
f 108 109 144
f 144 109 120
f 118 143 134
f 120 133 173
f 158 162 163
f 136 147 149
f 147 148 149
f 151 188 153
f 139 151 153
f 150 208 124
f 100 168 257
f 101 125 191
f 15 316 71
f 127 113 178
f 141 116 200
f 116 104 200
f 117 115 156
f 145 130 131
f 131 132 159
f 179 159 158
f 159 179 145
f 119 144 120
f 159 119 160
f 158 159 162
f 146 173 133
f 146 134 181
f 135 136 186
f 135 174 224
f 175 97 121
f 121 137 198
f 137 121 197
f 67 152 236
f 150 138 208
f 236 152 165
f 125 123 153
f 165 98 190
f 58 101 191
f 127 178 171
f 89 116 155
f 105 106 229
f 129 210 143
f 159 145 131
f 132 119 159
f 143 180 134
f 179 158 194
f 158 163 194
f 163 161 194
f 160 119 120
f 159 160 162
f 160 120 173
f 134 180 181
f 183 163 162
f 96 135 186
f 110 96 186
f 122 110 186
f 206 135 224
f 197 121 164
f 176 148 147
f 149 148 187
f 189 139 153
f 124 208 167
f 169 58 239
f 58 191 239
f 113 316 178
f 102 89 155
f 141 155 116
f 104 128 200
f 156 115 220
f 129 156 210
f 221 106 142
f 221 142 92
f 172 192 94
f 172 145 192
f 145 179 192
f 202 179 194
f 194 161 204
f 160 182 162
f 146 181 184
f 182 146 184
f 196 163 183
f 224 174 175
f 121 198 248
f 175 121 248
f 149 187 234
f 164 151 139
f 187 148 177
f 151 67 188
f 166 154 218
f 218 154 169
f 98 170 258
f 115 171 220
f 156 220 210
f 211 76 105
f 229 106 230
f 106 221 230
f 245 94 192
f 193 194 204
f 181 180 203
f 160 173 182
f 161 163 196
f 205 184 181
f 146 182 173
f 183 162 182
f 195 196 185
f 198 183 184
f 214 185 197
f 185 137 197
f 224 175 248
f 83 250 225
f 148 176 177
f 138 83 225
f 67 236 188
f 190 177 207
f 187 177 216
f 190 207 165
f 177 190 216
f 138 199 208
f 239 191 209
f 178 226 171
f 266 141 200
f 220 171 226
f 210 201 143
f 143 201 212
f 180 143 212
f 193 202 194
f 203 180 212
f 213 193 204
f 181 203 205
f 204 161 195
f 196 195 161
f 214 195 185
f 185 196 137
f 196 183 137
f 184 183 182
f 184 205 233
f 137 183 198
f 184 233 198
f 261 164 139
f 83 122 250
f 138 225 199
f 85 112 189
f 189 112 140
f 167 208 238
f 166 218 140
f 168 124 217
f 76 211 128
f 105 229 211
f 92 157 242
f 192 179 202
f 204 195 213
f 223 214 197
f 197 247 223
f 261 247 197
f 197 164 261
f 136 149 250
f 122 186 250
f 224 248 249
f 176 147 206
f 176 207 177
f 207 237 165
f 125 153 209
f 125 209 191
f 124 167 217
f 190 98 167
f 316 6 358
f 220 226 219
f 201 210 220
f 221 92 275
f 212 201 231
f 245 192 244
f 202 193 244
f 213 195 246
f 198 233 248
f 136 250 186
f 261 139 215
f 206 224 235
f 274 188 236
f 208 199 238
f 153 188 209
f 218 169 239
f 155 141 241
f 358 155 241
f 141 266 241
f 219 226 254
f 219 228 220
f 128 211 227
f 275 92 242
f 242 157 243
f 244 192 202
f 203 212 231
f 193 213 264
f 222 195 214
f 222 214 232
f 223 232 214
f 247 261 271
f 149 234 250
f 224 249 235
f 176 206 237
f 176 237 207
f 187 199 225
f 236 165 237
f 251 139 189
f 187 216 238
f 238 216 190
f 190 167 238
f 239 209 253
f 167 98 240
f 98 258 240
f 257 168 309
f 258 170 257
f 226 178 254
f 227 211 229
f 227 229 255
f 255 229 230
f 220 228 269
f 269 201 220
f 201 269 231
f 157 94 245
f 244 193 264
f 222 246 195
f 285 232 223
f 233 205 277
f 265 247 271
f 206 235 237
f 234 187 225
f 235 236 237
f 189 252 251
f 199 187 238
f 252 189 253
f 189 140 253
f 188 256 209
f 256 253 209
f 253 140 218
f 167 240 217
f 266 259 241
f 291 213 246
f 284 222 232
f 285 284 232
f 248 233 249
f 250 234 225
f 188 274 256
f 253 218 239
f 241 259 281
f 128 227 200
f 200 227 262
f 269 270 231
f 243 157 245
f 245 244 243
f 243 244 264
f 203 231 263
f 203 263 260
f 205 203 260
f 285 223 265
f 223 247 265
f 271 261 272
f 294 278 272
f 261 215 272
f 294 272 215
f 294 215 300
f 215 139 251
f 240 258 288
f 280 241 281
f 228 219 254
f 267 228 254
f 269 228 267
f 270 263 231
f 264 213 283
f 233 277 249
f 343 278 294
f 273 294 300
f 215 251 300
f 252 253 256
f 254 178 303
f 266 200 262
f 255 262 227
f 221 275 329
f 290 275 242
f 283 243 264
f 205 260 277
f 236 235 274
f 274 235 286
f 168 217 240
f 168 240 309
f 316 358 392
f 259 266 306
f 267 295 269
f 230 221 329
f 242 243 296
f 283 213 291
f 222 293 246
f 222 284 293
f 277 260 282
f 249 277 298
f 235 249 286
f 300 251 287
f 251 252 287
f 252 256 302
f 279 258 257
f 303 178 316
f 280 281 289
f 295 267 254
f 243 276 296
f 243 283 276
f 263 282 260
f 324 291 246
f 292 277 282
f 285 265 297
f 286 249 298
f 258 279 288
f 289 281 305
f 254 303 326
f 295 254 326
f 281 259 306
f 306 266 262
f 269 295 307
f 269 307 270
f 268 255 230
f 230 329 268
f 270 307 263
f 242 296 290
f 324 246 293
f 293 284 313
f 265 271 297
f 352 271 272
f 256 274 301
f 287 252 302
f 340 241 280
f 262 255 328
f 263 307 282
f 283 291 308
f 292 282 331
f 284 285 313
f 298 277 292
f 297 271 352
f 294 273 325
f 302 256 301
f 358 241 340
f 306 262 328
f 350 275 290
f 290 296 337
f 276 283 308
f 285 297 312
f 325 273 300
f 279 257 309
f 316 392 334
f 304 280 289
f 289 305 310
f 281 306 336
f 327 317 321
f 327 321 319
f 307 295 320
f 311 307 320
f 329 275 350
f 337 296 363
f 282 307 311
f 285 312 313
f 343 294 325
f 274 286 315
f 327 295 326
f 321 317 348
f 281 336 305
f 336 306 328
f 255 268 328
f 319 321 322
f 290 337 350
f 282 311 331
f 308 323 276
f 278 343 299
f 298 356 314
f 298 314 286
f 286 314 315
f 315 301 274
f 333 300 287
f 287 302 353
f 303 316 335
f 340 280 304
f 326 303 335
f 310 305 318
f 295 327 320
f 327 319 320
f 321 348 351
f 320 319 311
f 319 322 311
f 321 351 322
f 337 363 362
f 331 338 292
f 352 272 368
f 278 299 368
f 272 278 368
f 381 343 325
f 333 325 300
f 345 288 279
f 345 279 339
f 316 334 335
f 334 341 317
f 335 334 317
f 304 289 346
f 335 317 326
f 317 341 359
f 318 305 336
f 322 330 311
f 311 330 331
f 324 293 313
f 312 355 313
f 338 298 292
f 299 332 365
f 299 343 332
f 301 370 302
f 333 287 371
f 345 344 288
f 339 279 309
f 317 327 326
f 348 317 359
f 268 329 349
f 330 322 351
f 296 276 323
f 342 331 330
f 331 342 338
f 308 291 324
f 338 356 298
f 381 332 343
f 301 315 370
f 358 340 304
f 304 366 358
f 341 334 354
f 304 346 366
f 330 351 342
f 308 324 402
f 352 417 297
f 356 357 314
f 381 325 405
f 353 302 370
f 288 344 240
f 359 341 360
f 328 268 349
f 363 296 323
f 338 342 380
f 338 380 364
f 313 355 324
f 364 356 338
f 312 297 417
f 325 333 405
f 353 371 287
f 309 344 339
f 334 392 360
f 366 346 373
f 392 393 347
f 392 347 360
f 359 360 361
f 310 318 395
f 336 328 318
f 329 350 349
f 350 337 411
f 411 337 362
f 323 308 402
f 364 357 356
f 332 381 413
f 333 371 391
f 240 344 309
f 346 289 310
f 373 346 310
f 393 375 347
f 361 360 347
f 351 348 377
f 386 351 377
f 349 350 411
f 351 386 342
f 363 323 388
f 402 324 355
f 417 352 368
f 369 315 314
f 315 369 370
f 383 353 370
f 405 333 391
f 344 345 339
f 360 341 354
f 366 372 358
f 372 366 373
f 375 374 376
f 375 376 347
f 374 408 398
f 361 347 376
f 374 398 376
f 348 397 377
f 328 349 378
f 342 386 379
f 379 386 401
f 342 379 380
f 362 363 388
f 357 364 367
f 312 417 355
f 368 299 416
f 314 357 403
f 403 369 314
f 383 390 433
f 390 383 382
f 354 334 360
f 393 406 375
f 348 359 397
f 376 398 384
f 310 395 373
f 397 385 377
f 379 367 380
f 388 323 402
f 367 364 380
f 365 332 441
f 416 299 365
f 357 389 403
f 433 390 420
f 382 383 370
f 392 358 394
f 374 375 407
f 374 407 408
f 407 375 406
f 361 376 421
f 396 385 397
f 377 385 399
f 386 377 399
f 386 399 401
f 349 411 415
f 379 401 387
f 387 367 379
f 365 441 436
f 367 389 357
f 420 390 382
f 382 370 369
f 391 383 433
f 466 405 444
f 391 371 383
f 383 371 353
f 392 394 406
f 372 373 408
f 408 373 409
f 397 359 361
f 361 421 397
f 373 395 409
f 398 395 384
f 328 378 422
f 385 410 399
f 400 399 410
f 399 400 401
f 378 349 415
f 401 400 423
f 387 401 423
f 424 411 362
f 367 387 412
f 388 402 427
f 367 412 389
f 441 332 413
f 417 368 416
f 389 414 403
f 458 381 405
f 444 405 391
f 393 392 406
f 398 408 409
f 398 409 395
f 318 328 422
f 318 422 395
f 384 395 440
f 378 415 435
f 424 362 388
f 423 412 387
f 388 427 424
f 402 355 426
f 365 436 416
f 412 425 389
f 417 426 355
f 389 425 430
f 414 389 430
f 458 413 381
f 403 414 369
f 443 404 432
f 382 369 438
f 438 420 382
f 433 444 391
f 394 407 406
f 421 376 439
f 452 397 421
f 385 396 410
f 411 424 415
f 416 436 426
f 416 426 417
f 437 404 429
f 433 420 445
f 358 372 394
f 396 397 452
f 435 422 378
f 423 400 461
f 418 427 437
f 442 418 428
f 430 428 414
f 437 429 418
f 437 419 404
f 428 429 414
f 428 418 429
f 490 413 458
f 443 429 404
f 419 432 404
f 443 369 414
f 438 369 443
f 376 384 439
f 439 384 434
f 410 396 453
f 439 434 452
f 440 395 422
f 418 424 427
f 451 428 430
f 431 472 419
f 444 433 445
f 372 408 394
f 408 407 394
f 422 435 483
f 452 434 467
f 467 434 446
f 435 415 468
f 400 410 461
f 468 415 449
f 448 450 446
f 423 461 412
f 449 415 424
f 412 456 425
f 424 418 464
f 418 442 464
f 402 426 427
f 427 426 471
f 426 436 471
f 490 441 413
f 420 459 445
f 420 438 459
f 421 439 452
f 396 452 453
f 434 384 497
f 454 483 435
f 467 446 475
f 469 450 448
f 446 450 447
f 447 450 455
f 461 456 412
f 451 455 450
f 449 424 464
f 425 456 430
f 463 464 442
f 457 442 428
f 436 477 470
f 490 477 441
f 480 481 465
f 485 472 431
f 414 429 443
f 458 405 473
f 432 438 443
f 466 444 482
f 452 460 453
f 440 422 483
f 434 497 479
f 410 453 474
f 434 479 446
f 454 435 468
f 475 446 447
f 446 479 448
f 410 478 461
f 455 451 430
f 451 450 457
f 456 455 430
f 471 436 470
f 428 451 457
f 436 441 477
f 427 465 437
f 431 465 485
f 465 431 437
f 437 431 419
f 432 459 438
f 445 459 486
f 384 440 497
f 483 454 484
f 454 468 484
f 469 448 476
f 456 462 455
f 457 450 463
f 463 469 464
f 463 442 457
f 465 481 485
f 405 466 473
f 500 486 459
f 460 452 467
f 410 474 478
f 475 462 478
f 462 475 447
f 462 447 455
f 468 449 484
f 448 479 476
f 478 462 461
f 461 462 456
f 450 469 463
f 488 477 489
f 471 480 465
f 427 471 465
f 489 477 490
f 490 458 491
f 444 445 482
f 460 467 475
f 484 449 464
f 471 470 480
f 470 477 480
f 491 458 492
f 419 472 496
f 419 496 432
f 459 432 496
f 473 466 482
f 492 473 482
f 498 440 483
f 487 479 497
f 460 475 478
f 460 478 474
f 479 487 476
f 476 464 469
f 477 488 480
f 488 493 481
f 499 489 490
f 458 473 492
f 453 460 474
f 483 484 498
f 494 490 491
f 491 492 494
f 459 496 500
f 445 486 482
f 484 464 476
f 488 489 493
f 481 480 488
f 494 499 490
f 481 493 495
f 481 495 485
f 486 500 502
f 489 499 493
f 472 485 496
f 500 495 502
f 502 492 482
f 499 494 501
f 495 493 501
f 494 492 501
f 486 502 482
f 487 484 476
f 493 499 501
f 485 495 496
f 502 495 501
f 496 495 500
f 440 498 497
f 498 484 487
f 501 492 502
f 487 497 498
# 1000 faces, 0 coords texture

# End of File
