####
#
# OBJ File Generated by Meshlab
#
####
# Object centaur5.obj
#
# Vertices: 791
# Faces: 1576
#
####
vn 0.632436 0.774468 -0.014979
v -0.009258 0.508286 -0.305035
vn 0.872249 0.432482 -0.228345
v 0.004306 0.478518 -0.348446
vn -0.310511 0.137295 -0.940602
v -0.033100 0.171720 -0.393346
vn -0.662095 0.160848 -0.731955
v -0.062146 0.187816 -0.377765
vn -0.968981 0.183498 -0.165542
v -0.118358 0.182882 -0.278310
vn -0.615096 -0.052478 0.786704
v -0.061462 0.236629 -0.122562
vn -0.256346 -0.008543 0.966547
v -0.020678 0.246544 -0.098890
vn -0.453746 0.144644 -0.879314
v -0.051642 0.229035 -0.374037
vn -0.615783 -0.101646 -0.781332
v -0.068698 0.232077 -0.357637
vn -0.914000 -0.292554 -0.281099
v -0.108672 0.269097 -0.310194
vn -0.974619 -0.216345 -0.057551
v -0.115984 0.264838 -0.273178
vn 0.250612 0.933098 0.257919
v -0.027588 0.516760 -0.258499
vn -0.419960 0.790930 0.445042
v -0.026576 0.492854 -0.189618
vn -0.665273 0.530087 0.525756
v -0.088383 0.449866 -0.201745
vn -0.878010 0.258958 0.402540
v -0.115433 0.407690 -0.208042
vn -0.946042 0.226200 0.232029
v -0.129420 0.423913 -0.259897
vn -0.769918 0.461127 0.441122
v -0.105376 0.455702 -0.231307
vn -0.818640 0.278601 0.502205
v -0.093576 0.395718 -0.160945
vn -0.632038 0.399822 0.663830
v -0.075281 0.414696 -0.147733
vn -0.123807 0.272490 0.954160
v -0.003392 0.370216 -0.096611
vn -0.437001 0.512943 0.738864
v -0.024312 0.457900 -0.142426
vn -0.288320 0.015772 0.957404
v -0.027618 0.314615 -0.094262
vn -0.766532 0.160333 0.621870
v -0.085842 0.359032 -0.136897
vn -0.455732 0.222610 0.861831
v -0.046099 0.357370 -0.106260
vn -0.690607 -0.065265 0.720280
v -0.088086 0.288450 -0.129199
vn -0.919134 0.072412 0.387234
v -0.114196 0.358837 -0.190155
vn -0.895419 0.081144 0.437767
v -0.098277 0.310322 -0.148743
vn -0.940395 -0.108275 0.322387
v -0.116552 0.281695 -0.179338
vn -0.981286 -0.185308 0.052327
v -0.127269 0.293323 -0.256995
vn -0.955353 -0.245537 0.164356
v -0.111408 0.254256 -0.200051
vn -0.965554 0.017039 0.259646
v -0.122033 0.320747 -0.215984
vn -0.986236 0.010208 0.165027
v -0.132003 0.372997 -0.248462
vn -0.012072 0.135343 -0.990725
v 0.016547 0.166802 -0.402221
vn -0.871385 0.082348 -0.483640
v -0.103507 0.189422 -0.333388
vn -0.626226 -0.277898 -0.728432
v -0.095476 0.247770 -0.347170
vn -0.549391 -0.163390 -0.819435
v -0.081899 0.232643 -0.340412
vn -0.519642 0.075802 -0.851015
v -0.090014 0.183331 -0.342871
vn -0.856961 -0.141574 0.495555
v -0.092102 0.244479 -0.154675
vn -0.996232 0.052215 -0.069251
v -0.113666 0.212712 -0.249204
vn -0.977480 -0.023030 -0.209765
v -0.099285 0.250275 -0.325251
vn 0.033833 0.797613 -0.602220
v 0.016648 0.472901 -0.320871
vn -0.020047 0.406542 0.913412
v 0.015146 0.455108 -0.130310
vn 0.029077 0.937639 -0.346393
v 0.017458 0.497239 -0.274906
vn 0.221739 0.924417 0.310298
v 0.059557 0.508527 -0.222802
vn 0.819373 0.562827 0.108879
v 0.035039 0.502717 -0.174768
vn 0.462006 0.689971 0.557216
v 0.063942 0.476549 -0.169121
vn -0.835137 0.504127 -0.220002
v 0.029695 0.484977 -0.337021
vn -0.907914 0.284570 -0.307753
v 0.030937 0.453824 -0.383294
vn 0.112194 0.102895 -0.988345
v 0.046481 0.247696 -0.381309
vn 0.989174 0.066403 0.130863
v 0.145008 0.213300 -0.222849
vn 0.929631 0.161475 0.331228
v 0.140910 0.192857 -0.183906
vn 0.352952 0.503756 0.788451
v 0.042776 0.462594 -0.138398
vn -0.097089 0.963022 -0.251321
v 0.016626 0.513293 -0.214869
vn 0.276753 0.131178 -0.951946
v 0.063281 0.171121 -0.394734
vn 0.583903 0.114578 -0.803697
v 0.097805 0.175475 -0.379042
vn 0.967131 0.194890 -0.163327
v 0.161790 0.147117 -0.273461
vn 0.796055 0.109837 0.595175
v 0.118928 0.199213 -0.144935
vn 0.316548 0.027864 -0.948167
v 0.089654 0.230215 -0.372571
vn 0.841034 -0.179733 -0.510252
v 0.129642 0.253834 -0.347116
vn 0.923778 -0.272881 -0.268645
v 0.142952 0.270509 -0.310828
vn 0.167478 0.891112 0.421746
v 0.082352 0.510036 -0.226289
vn 0.274720 0.961414 -0.014589
v 0.027288 0.514456 -0.210625
vn 0.630865 0.426203 0.648351
v 0.110971 0.414987 -0.149433
vn 0.603846 0.611101 0.511786
v 0.111190 0.492096 -0.231675
vn 0.900696 0.235443 0.365121
v 0.157285 0.410625 -0.227184
vn 0.812600 0.244204 0.529193
v 0.124557 0.392763 -0.154454
vn 0.455899 0.173760 0.872905
v 0.081635 0.354172 -0.106739
vn 0.258071 0.313260 0.913930
v 0.063739 0.374962 -0.104551
vn 0.462503 -0.017817 0.886439
v 0.078827 0.307905 -0.101890
vn 0.738617 0.133175 0.660840
v 0.120301 0.351028 -0.135021
vn 0.765741 -0.063266 0.640030
v 0.127019 0.285439 -0.134279
vn 0.911914 0.102298 0.397427
v 0.141631 0.315109 -0.170222
vn 0.902700 0.089180 0.420927
v 0.138026 0.356901 -0.166997
vn 0.928866 -0.133685 0.345450
v 0.146700 0.278367 -0.166971
vn 0.989338 -0.116286 0.087683
v 0.163692 0.309119 -0.255021
vn 0.954176 0.027010 0.298024
v 0.154628 0.364629 -0.207133
vn 0.974775 -0.040494 0.219485
v 0.157868 0.291234 -0.216490
vn 0.022518 0.501664 -0.864769
v 0.016688 0.408725 -0.379655
vn 0.108801 0.039982 0.993259
v 0.034778 0.319577 -0.088687
vn 0.596574 -0.184223 -0.781128
v 0.116924 0.232449 -0.340047
vn 0.961052 -0.246207 -0.125547
v 0.150515 0.262888 -0.267986
vn 0.963224 -0.247646 0.104266
v 0.150647 0.260643 -0.218252
vn 0.878481 -0.144673 0.455346
v 0.126281 0.243897 -0.154805
vn 0.794624 0.456232 0.400532
v 0.140059 0.454179 -0.231706
vn 0.992740 0.047024 -0.110711
v 0.144999 0.221549 -0.256292
vn -0.867652 0.461133 -0.185841
v 0.041107 0.495991 -0.360104
vn -0.279151 -0.222967 -0.934002
v 0.036302 0.351806 -0.402918
vn 0.000745 -0.165310 -0.986241
v 0.016350 0.344560 -0.389921
vn -0.723599 0.090255 -0.684294
v 0.037025 0.416950 -0.414154
vn -0.591342 0.805249 -0.043455
v 0.048477 0.510469 -0.300201
vn -0.013272 -0.191534 -0.981396
v 0.064468 0.261277 -0.377199
vn -0.077370 -0.221545 -0.972076
v 0.046007 0.290271 -0.382281
vn -0.104841 -0.363824 -0.925549
v 0.084441 0.261110 -0.373384
vn 0.765363 -0.457653 -0.452519
v 0.127021 0.304626 -0.394669
vn 0.969780 -0.222435 -0.100248
v 0.162199 0.302291 -0.287219
vn 0.869110 -0.413009 -0.272159
v 0.152195 0.321062 -0.348910
vn 0.982977 -0.163646 -0.083528
v 0.161445 0.335470 -0.331170
vn -0.631917 0.764825 -0.125397
v 0.056734 0.525841 -0.330316
vn -0.164732 0.981516 0.097419
v 0.077161 0.535322 -0.297394
vn -0.179686 0.976941 0.115322
v 0.059612 0.515752 -0.262455
vn 0.499947 0.863012 -0.072548
v 0.126579 0.522295 -0.325263
vn 0.992130 0.125125 -0.004679
v 0.169785 0.435102 -0.337280
vn 0.997032 0.046640 -0.061257
v 0.166829 0.417930 -0.390850
vn 0.994682 0.006618 0.102778
v 0.166558 0.370206 -0.249493
vn 0.932343 0.306787 0.191360
v 0.163743 0.443045 -0.285804
vn 0.835982 -0.464765 -0.291765
v 0.135092 0.314688 -0.375577
vn 0.660575 0.691058 0.293393
v 0.123180 0.519078 -0.283987
vn 0.889871 0.455962 0.015089
v 0.155533 0.475340 -0.323687
vn 0.132840 -0.588565 -0.797462
v 0.097795 0.275333 -0.385946
vn -0.767378 0.525466 -0.367447
v 0.045057 0.491661 -0.392359
vn -0.726877 0.459229 0.510645
v 0.094060 0.572103 -0.434362
vn -0.963494 0.025234 -0.266536
v 0.068194 0.501571 -0.448698
vn -0.447150 -0.211688 -0.869048
v 0.098308 0.499807 -0.483820
vn -0.976180 0.019018 -0.216129
v 0.080295 0.578637 -0.487116
vn -0.653963 0.639879 0.403592
v 0.095387 0.629615 -0.464070
vn 0.971973 0.081990 -0.220332
v 0.131815 0.580376 -0.482509
vn 0.850734 0.396870 0.344595
v 0.139607 0.551040 -0.430696
vn 0.586221 -0.107436 -0.802996
v 0.128868 0.530140 -0.490885
vn 0.960853 0.072454 -0.267418
v 0.145940 0.527118 -0.468132
vn 0.961029 0.265325 0.077623
v 0.149421 0.480784 -0.412757
vn 0.012175 0.824306 0.566013
v 0.106631 0.538656 -0.392229
vn -0.191706 0.980540 -0.042319
v 0.082995 0.521782 -0.359505
vn -0.102800 -0.496648 -0.861843
v 0.107211 0.329368 -0.432665
vn -0.581403 -0.221643 -0.782844
v 0.104465 0.449247 -0.478079
vn 0.053291 -0.235237 -0.970476
v 0.122237 0.456386 -0.485066
vn -0.302911 -0.340278 -0.890200
v 0.109499 0.384437 -0.454668
vn -0.388653 -0.431586 -0.814053
v 0.084368 0.323658 -0.420819
vn -0.627416 -0.198869 -0.752862
v 0.085701 0.405512 -0.447765
vn -0.724738 0.115987 -0.679192
v 0.067183 0.457087 -0.433042
vn -0.762811 0.642428 0.073523
v 0.078426 0.523126 -0.389258
vn -0.457819 -0.158974 -0.874717
v 0.043964 0.400770 -0.417817
vn -0.645213 0.120341 -0.754466
v 0.044028 0.453203 -0.415389
vn -0.540187 -0.260712 -0.800142
v 0.062283 0.288860 -0.383775
vn -0.486202 -0.127732 -0.864461
v 0.055620 0.424690 -0.426965
vn -0.620908 -0.128141 -0.773339
v 0.065357 0.406634 -0.432594
vn 0.658481 0.746413 0.096285
v 0.124520 0.516436 -0.356674
vn 0.682783 0.599018 0.418312
v 0.122200 0.532172 -0.395608
vn 0.943819 0.317785 -0.090659
v 0.160581 0.454863 -0.392799
vn 0.721156 -0.120958 -0.682131
v 0.137606 0.439343 -0.470727
vn 0.966067 0.074998 -0.247164
v 0.150626 0.468263 -0.445988
vn 0.883085 -0.373729 -0.283702
v 0.159196 0.367320 -0.418245
vn 0.883339 -0.115227 -0.454350
v 0.159651 0.404222 -0.437076
vn 0.987199 0.039390 -0.154550
v 0.166517 0.401455 -0.412935
vn 0.261001 -0.381891 -0.886587
v 0.131196 0.386519 -0.457894
vn 0.644766 -0.289246 -0.707541
v 0.147029 0.389188 -0.450948
vn 0.719228 -0.450434 -0.528980
v 0.146093 0.353978 -0.430419
vn 0.544077 -0.570523 -0.615210
v 0.127243 0.328897 -0.429776
vn -0.884163 0.429076 -0.184795
v 0.076243 0.777503 -0.743902
vn -0.375157 0.682511 0.627245
v 0.094521 0.774554 -0.694849
vn -0.860276 -0.425193 -0.281312
v 0.080875 0.727705 -0.734566
vn 0.818873 0.541522 0.190265
v 0.152611 0.777132 -0.727268
vn -0.021820 0.488806 -0.872120
v 0.105592 0.780372 -0.768959
vn 0.791496 -0.458337 -0.404303
v 0.141425 0.721399 -0.734660
vn 0.687037 0.662547 -0.298348
v -0.011057 0.507712 -0.371566
vn 0.894824 0.264727 -0.359457
v -0.001823 0.465985 -0.394279
vn 0.775652 0.069564 -0.627315
v -0.000220 0.408127 -0.411012
vn -0.093451 0.072677 -0.992968
v -0.013125 0.257457 -0.379969
vn 0.107065 -0.160589 -0.981197
v 0.002826 0.288789 -0.378227
vn 0.177314 0.983347 -0.039865
v -0.037829 0.540122 -0.311111
vn 0.259070 -0.300071 -0.918063
v -0.027968 0.288706 -0.383687
vn -0.027785 -0.388044 -0.921222
v -0.050160 0.261110 -0.373384
vn -0.946531 -0.265092 -0.183862
v -0.125857 0.343538 -0.356619
vn 0.457854 0.857420 -0.234948
v -0.021697 0.529058 -0.336244
vn -0.287501 0.803556 0.521191
v -0.051749 0.508468 -0.222923
vn 0.283698 0.914592 0.288160
v -0.041817 0.535535 -0.279600
vn -0.586047 0.793863 0.162263
v -0.091489 0.522320 -0.286600
vn -0.986701 0.160983 -0.022470
v -0.133575 0.436914 -0.370360
vn -0.924853 0.378354 0.038668
v -0.129252 0.464080 -0.322651
vn -0.969460 -0.218704 -0.110976
v -0.127071 0.301507 -0.291546
vn -0.999604 0.028135 0.000965
v -0.135791 0.430041 -0.334337
vn -0.871255 0.406790 0.274659
v -0.116042 0.473588 -0.274731
vn -0.174448 -0.536412 -0.825730
v -0.080166 0.336905 -0.436854
vn -0.857081 -0.427736 -0.287147
v -0.100169 0.321848 -0.382289
vn -0.780739 -0.455575 -0.427666
v -0.092352 0.309268 -0.397771
vn -0.262548 -0.596520 -0.758441
v -0.066555 0.269143 -0.382215
vn 0.676992 0.503992 0.536352
v -0.056712 0.554102 -0.379527
vn 0.823478 0.410415 -0.391719
v -0.030974 0.494188 -0.402144
vn 0.509795 0.004115 -0.860286
v -0.073066 0.504951 -0.469681
vn 0.950063 0.012703 -0.311801
v -0.045788 0.594400 -0.446544
vn -0.299001 -0.194407 -0.934240
v -0.077530 0.594625 -0.467672
vn -0.455171 0.508610 0.730846
v -0.078992 0.647397 -0.412947
vn -0.961928 0.266960 0.058543
v -0.097835 0.602746 -0.439933
vn -0.918156 0.141209 -0.370201
v -0.112140 0.544006 -0.441541
vn -0.391980 0.026839 -0.919582
v -0.091105 0.498863 -0.470820
vn -0.874019 0.322234 0.363671
v -0.104240 0.560763 -0.395292
vn 0.150127 -0.255708 -0.955026
v -0.076206 0.401611 -0.456597
vn 0.255049 -0.430402 -0.865855
v -0.065446 0.342435 -0.438977
vn 0.313175 -0.100789 -0.944332
v -0.078084 0.462967 -0.470518
vn 0.523615 -0.362857 -0.770819
v -0.048132 0.325597 -0.421269
vn 0.545124 -0.122275 -0.829390
v -0.059460 0.414236 -0.451461
vn 0.818205 0.103832 -0.565473
v -0.037878 0.483055 -0.427674
vn 0.633447 0.042995 -0.772591
v -0.044032 0.452651 -0.438498
vn 0.681204 0.698879 -0.218012
v -0.036273 0.517908 -0.376485
vn 0.198543 -0.180182 -0.963387
v -0.009058 0.396441 -0.416827
vn 0.508522 0.362459 -0.781043
v -0.013618 0.465933 -0.416397
vn 0.261867 -0.272182 -0.925928
v -0.011946 0.320938 -0.392267
vn 0.627958 0.123523 -0.768382
v -0.021340 0.437204 -0.425746
vn 0.569027 -0.133602 -0.811393
v -0.031077 0.419578 -0.432605
vn -0.475723 0.569666 0.670200
v -0.084723 0.543887 -0.370150
vn 0.044571 0.997489 0.055040
v -0.055311 0.525401 -0.341916
vn -0.657865 0.738164 0.149423
v -0.091634 0.517114 -0.340877
vn -0.978771 0.184989 -0.088242
v -0.117857 0.489020 -0.416651
vn -0.919108 0.354333 0.172302
v -0.116377 0.482017 -0.390057
vn -0.682534 -0.178218 -0.708792
v -0.112983 0.409658 -0.453183
vn -0.280363 -0.172918 -0.944191
v -0.097817 0.413617 -0.462254
vn -0.797366 0.049064 -0.601498
v -0.106352 0.478148 -0.457182
vn -0.910524 0.029624 -0.412394
v -0.125267 0.421753 -0.435411
vn -0.884074 -0.300075 -0.358285
v -0.125819 0.383539 -0.422198
vn -0.985066 -0.002151 -0.172166
v -0.132810 0.414349 -0.413899
vn -0.798536 -0.415781 -0.435277
v -0.111812 0.367380 -0.435344
vn -0.363554 -0.458247 -0.811072
v -0.093634 0.340583 -0.436275
vn -0.869854 0.472732 0.140993
v -0.117379 0.859250 -0.619935
vn 0.760271 0.559848 -0.329483
v -0.045603 0.867818 -0.633479
vn 0.579126 0.436475 0.688551
v -0.046232 0.832749 -0.582428
vn -0.475759 -0.258096 0.840857
v -0.099403 0.827108 -0.579583
vn -0.208556 0.799341 -0.563524
v -0.094540 0.874607 -0.640450
vn -0.066941 0.431045 0.899844
v 0.011532 0.501976 -0.153185
vn -0.996123 0.022027 0.085165
v -0.005559 0.552950 -0.165220
vn 0.032618 -0.263561 -0.964091
v 0.015512 0.550534 -0.191327
vn 0.048217 0.695403 -0.717001
v 0.013608 0.527610 -0.192043
vn -0.397033 0.910922 -0.112188
v -0.000436 0.511009 -0.205980
vn -0.015239 0.108498 0.993980
v 0.015823 0.530672 -0.151414
vn 0.953878 -0.146339 0.262111
v 0.038693 0.546815 -0.163130
vn -0.776877 -0.341143 -0.529229
v -0.015314 0.688369 -0.252995
vn -0.085416 -0.523207 -0.847914
v 0.015181 0.682537 -0.268308
vn -0.983900 0.040457 0.174080
v -0.016988 0.641268 -0.197924
vn 0.253753 -0.508525 -0.822807
v 0.021115 0.593810 -0.213814
vn -0.760709 -0.368051 -0.534659
v -0.007379 0.588832 -0.195737
vn -0.614995 0.240914 0.750827
v -0.004949 0.647946 -0.181734
vn 0.996021 -0.024920 0.085560
v 0.050932 0.642899 -0.197536
vn 0.459137 0.286221 0.840994
v 0.039504 0.650045 -0.182408
vn -0.090038 0.327008 0.940722
v 0.011209 0.620944 -0.163221
vn 0.397968 0.306449 0.864703
v 0.027989 0.648698 -0.181311
vn -0.833441 0.548334 -0.068608
v -0.008250 0.980313 -0.229474
vn -0.441066 0.137610 0.886862
v 0.003846 0.999218 -0.203151
vn -0.792036 0.337134 -0.508939
v -0.014494 0.948887 -0.267024
vn -0.870541 -0.113243 0.478888
v -0.004928 0.880666 -0.256521
vn -0.983161 -0.012701 0.182297
v -0.016910 0.873051 -0.281054
vn 0.523807 0.851567 0.021437
v 0.034074 0.983214 -0.223881
vn 0.213656 0.404835 -0.889078
v 0.026654 0.938264 -0.295699
vn 0.727580 0.584623 -0.358947
v 0.045511 0.968490 -0.250889
vn -0.060915 0.788478 -0.612039
v 0.017129 0.963066 -0.281006
vn 0.630963 -0.054486 0.773897
v 0.032335 0.875896 -0.246049
vn 0.926101 0.091546 0.366001
v 0.043639 0.973392 -0.232169
vn 0.551435 -0.130011 0.824024
v 0.030984 0.948721 -0.217893
vn -0.947274 0.152785 0.281654
v -0.128134 0.121919 -0.201378
vn -0.978065 0.080004 0.192322
v -0.109233 0.210611 -0.210812
vn -0.212005 -0.043459 -0.976302
v -0.027491 0.120916 -0.399065
vn -0.536363 -0.004561 -0.843975
v -0.066764 0.123111 -0.381559
vn -0.950817 0.057096 -0.304447
v -0.129968 0.099058 -0.297897
vn -0.870629 0.138427 0.472063
v -0.099244 0.193564 -0.167051
vn -0.448171 0.172482 0.877150
v -0.029861 0.194215 -0.098541
vn -0.563265 0.259408 0.784500
v -0.033502 0.111244 -0.077380
vn -0.740412 0.178693 0.647966
v -0.078174 0.122028 -0.118712
vn -0.685794 0.092871 0.721846
v -0.063234 0.207414 -0.122691
vn -0.614443 0.217820 0.758297
v -0.053208 0.096500 -0.088848
vn -0.844924 0.151775 0.512902
v -0.107335 0.141207 -0.160019
vn -0.820523 0.069775 0.567339
v -0.100273 0.073649 -0.135488
vn -0.898740 0.037407 0.436883
v -0.117982 0.059234 -0.160643
vn -0.992238 -0.083538 -0.092118
v -0.137809 0.054065 -0.252031
vn -0.991111 0.133011 -0.002567
v -0.138403 0.104136 -0.251834
vn -0.982196 -0.028201 0.185729
v -0.137129 0.060822 -0.217476
vn -0.821505 -0.256705 -0.509149
v -0.118226 0.041912 -0.311567
vn -0.817963 -0.095823 -0.567234
v -0.111449 0.083429 -0.337012
vn -0.942308 -0.169828 -0.288468
v -0.131193 0.045883 -0.283021
vn -0.608752 -0.349205 -0.712374
v -0.088288 0.039697 -0.345075
vn -0.603842 -0.150610 -0.782746
v -0.074097 0.080204 -0.371565
vn -0.433876 -0.374597 -0.819408
v -0.050082 0.039127 -0.369159
vn -0.236060 -0.368481 -0.899165
v -0.026306 0.037079 -0.376882
vn -0.351556 -0.250831 -0.901938
v -0.039969 0.080583 -0.389007
vn -0.805473 -0.354868 -0.474639
v -0.113295 -0.001564 -0.290792
vn -0.932004 -0.278405 -0.232075
v -0.125638 0.003408 -0.266090
vn -0.572846 -0.217760 -0.790208
v -0.063703 -0.036825 -0.318440
vn -0.760587 0.082486 -0.643975
v -0.106381 0.130633 -0.338924
vn -0.001604 0.219557 0.975598
v 0.018030 0.206881 -0.089733
vn -0.068947 -0.236778 -0.969114
v 0.003635 0.083606 -0.396974
vn -0.299168 0.318921 0.899326
v -0.006646 0.156831 -0.077560
vn 0.967446 -0.154547 0.200408
v 0.163929 0.022524 -0.201651
vn 0.978136 -0.003098 0.207944
v 0.171585 0.063230 -0.219377
vn 0.956622 0.148387 0.250711
v 0.165907 0.116453 -0.212921
vn 0.376938 -0.100897 -0.920727
v 0.078737 0.104136 -0.392420
vn 0.095956 -0.057483 -0.993724
v 0.041557 0.121497 -0.402830
vn 0.658048 0.049259 -0.751363
v 0.104775 0.117190 -0.378522
vn 0.954947 0.155407 -0.252834
v 0.146273 0.172501 -0.313643
vn 0.747338 0.065524 -0.661205
v 0.139951 0.152982 -0.336888
vn 0.254848 0.025518 0.966644
v 0.052269 0.238230 -0.098094
vn 0.420876 0.211975 0.882003
v 0.065276 0.184054 -0.097043
vn 0.497412 0.296785 0.815169
v 0.053633 0.119445 -0.070089
vn 0.624964 -0.001115 0.780653
v 0.095072 0.220807 -0.123918
vn 0.869972 0.167187 0.463893
v 0.148359 0.138232 -0.169791
vn 0.996218 -0.082617 -0.026898
v 0.172090 0.054065 -0.252031
vn 0.986856 0.051122 -0.153303
v 0.170904 0.099797 -0.266704
vn 0.989061 0.141075 0.043073
v 0.171182 0.109972 -0.237327
vn 0.823286 -0.092953 -0.559964
v 0.150197 0.083720 -0.328894
vn 0.942458 0.032517 -0.332739
v 0.163476 0.090620 -0.300607
vn 0.631790 -0.146633 -0.761144
v 0.118292 0.083343 -0.365849
vn 0.627629 -0.342379 -0.699184
v 0.124707 0.039727 -0.343145
vn 0.713932 0.175492 0.677867
v 0.104283 0.085707 -0.101082
vn 0.395552 -0.344938 -0.851209
v 0.084363 0.039127 -0.369159
vn 0.249929 -0.375964 -0.892293
v 0.057446 0.041412 -0.379317
vn 0.171903 -0.262925 -0.949379
v 0.051481 0.081991 -0.394465
vn 0.878052 0.086235 0.470732
v 0.148561 0.091444 -0.157487
vn 0.819788 -0.269517 -0.505281
v 0.152767 0.034411 -0.307734
vn 0.945335 -0.201024 -0.256770
v 0.165405 0.032902 -0.277134
vn 0.618073 -0.399287 -0.677167
v 0.123683 -0.002877 -0.317606
vn 0.432928 -0.403436 -0.806110
v 0.081710 -0.005950 -0.346361
vn 0.022303 -0.370188 -0.928689
v 0.015947 0.024936 -0.378504
vn 0.133046 0.348893 0.927670
v 0.027855 0.166192 -0.078052
vn -0.926170 -0.108695 0.361102
v -0.114742 0.005261 -0.159720
vn 0.221380 -0.917145 -0.331415
v -0.020457 -0.258812 -0.261186
vn -0.305937 -0.949328 0.071963
v -0.060767 -0.265843 -0.202889
vn 0.153670 0.302045 0.940826
v 0.024046 0.063710 -0.034785
vn 0.320479 -0.132409 -0.937956
v 0.005934 -0.105696 -0.324210
vn -0.522110 0.262761 0.811393
v -0.022293 0.037172 -0.040705
vn -0.945134 0.088450 0.314480
v -0.112953 -0.085331 -0.135375
vn -0.989554 0.107224 0.096360
v -0.124259 -0.114155 -0.187778
vn -0.899601 0.116998 0.420748
v -0.085272 -0.080895 -0.074897
vn -0.978781 -0.087328 0.185367
v -0.110419 -0.166024 -0.146121
vn -0.732118 -0.653196 0.193231
v -0.096058 -0.244698 -0.188784
vn -0.621394 -0.704973 0.341881
v -0.091794 -0.222300 -0.147612
vn -0.920012 -0.272471 0.281670
v -0.106370 -0.178969 -0.127396
vn -0.942493 -0.013168 0.333966
v -0.098522 -0.106700 -0.103320
vn -0.850622 0.197605 0.487232
v -0.065723 -0.026663 -0.064828
vn -0.514181 0.529435 0.674771
v -0.034907 -0.069628 -0.012353
vn -0.638660 0.245972 0.729117
v -0.036869 -0.000211 -0.041489
vn -0.355876 0.249672 0.900564
v -0.012856 0.013290 -0.029957
vn -0.725828 0.188059 0.661670
v -0.063931 0.041874 -0.079244
vn -0.874084 0.028542 0.484936
v -0.079667 -0.001169 -0.098688
vn -0.974467 -0.223526 0.021214
v -0.131861 0.013897 -0.224357
vn -0.999998 0.001312 -0.001181
v -0.109878 -0.053785 -0.207322
vn -0.823266 -0.293610 -0.485825
v -0.105181 -0.034369 -0.276511
vn -0.731388 -0.241817 -0.637648
v -0.087167 -0.039055 -0.296166
vn -0.279532 -0.268639 -0.921789
v -0.037735 -0.034355 -0.337688
vn -0.205963 0.310143 0.928111
v 0.007983 0.067156 -0.036850
vn -0.163866 -0.317803 -0.933889
v 0.015761 -0.163722 -0.308224
vn 0.016055 -0.580190 -0.814323
v 0.016135 -0.221449 -0.283021
vn -0.332052 -0.911627 0.242233
v -0.051534 -0.245969 -0.153309
vn -0.960951 0.084874 0.263380
v -0.104747 -0.039120 -0.149403
vn 0.091397 -0.888580 -0.449525
v 0.008981 -0.237615 -0.272108
vn -0.117378 -0.332904 -0.935627
v -0.008477 -0.063151 -0.335969
vn 0.987059 0.149699 0.057489
v 0.156514 -0.100168 -0.198747
vn 0.405348 -0.914122 -0.008628
v 0.108668 -0.262168 -0.199891
vn -0.082782 -0.930597 -0.356561
v 0.062790 -0.264103 -0.258094
vn 0.606461 0.250277 0.754696
v 0.068965 0.013941 -0.043838
vn 0.971809 -0.090141 0.217858
v 0.157725 -0.130352 -0.182109
vn 0.951892 0.134358 0.275407
v 0.147332 -0.079287 -0.136594
vn 0.940420 -0.002795 0.340002
v 0.134541 -0.103918 -0.107589
vn 0.932133 -0.234223 0.276164
v 0.142920 -0.176694 -0.130998
vn 0.758777 -0.634851 -0.145678
v 0.134557 -0.245714 -0.209726
vn 0.944080 -0.012811 0.329466
v 0.111515 -0.133514 -0.047727
vn 0.837928 0.199215 0.508124
v 0.101467 -0.039696 -0.059138
vn 0.373835 0.275442 0.885652
v 0.036952 0.008440 -0.023827
vn -0.746435 -0.511916 -0.425179
v 0.049691 -0.218129 -0.302350
vn 0.270127 -0.520782 -0.809826
v 0.061625 -0.244870 -0.291593
vn 0.514781 0.267351 0.814570
v 0.053937 0.048822 -0.043067
vn 0.748301 0.184135 0.637291
v 0.096822 0.033326 -0.075177
vn 0.938613 0.066099 0.338580
v 0.132121 -0.032656 -0.132160
vn 0.824466 0.049430 0.563749
v 0.117715 0.030245 -0.106686
vn 0.907688 -0.026247 0.418824
v 0.149207 0.036508 -0.154708
vn 0.971664 -0.236339 0.003748
v 0.164680 0.009067 -0.226636
vn 0.999085 0.042740 -0.001387
v 0.144849 -0.051313 -0.200052
vn 0.948981 -0.208888 -0.236221
v 0.141976 -0.055478 -0.252592
vn 0.809122 -0.294736 -0.508382
v 0.137985 -0.035463 -0.278910
vn 0.663413 -0.156868 -0.731626
v 0.102682 -0.040878 -0.314237
vn 0.221604 -0.361158 -0.905791
v 0.055574 -0.028625 -0.347828
vn 0.379844 -0.222629 -0.897862
v 0.070777 -0.041557 -0.336820
vn -0.055666 -0.251409 -0.966279
v 0.033681 -0.080961 -0.329385
vn 0.074958 -0.996713 -0.030724
v 0.023304 -0.255420 -0.165310
vn -0.169229 -0.981816 0.086018
v 0.058988 -0.262597 -0.222190
vn 0.332499 -0.909507 0.249481
v 0.094353 -0.243178 -0.145320
vn 0.990305 0.130786 -0.046809
v 0.159760 -0.115977 -0.231853
vn 0.962497 0.027661 -0.269880
v 0.159183 -0.159249 -0.269073
vn 0.899577 0.321218 -0.295941
v 0.152129 -0.097850 -0.252706
vn -0.209538 0.059657 -0.975979
v 0.049550 -0.091592 -0.327864
vn 0.581937 -0.646245 -0.493677
v 0.102339 -0.239355 -0.231131
vn 0.630535 -0.747591 -0.208647
v 0.128700 -0.232599 -0.230694
vn -0.736998 -0.040495 -0.674681
v 0.040554 -0.139088 -0.329024
vn -0.893112 -0.293529 -0.340869
v 0.043221 -0.196769 -0.313501
vn 0.885738 -0.449265 -0.116748
v 0.150201 -0.205332 -0.269159
vn 0.390571 0.597739 -0.700116
v 0.112302 -0.144403 -0.320641
vn 0.722612 0.369015 -0.584517
v 0.143015 -0.109700 -0.281376
vn 0.831323 0.165783 -0.530488
v 0.136338 -0.173090 -0.317103
vn -0.669924 0.114715 -0.733514
v 0.050502 -0.164614 -0.360848
vn 0.565671 -0.786209 -0.248781
v 0.095495 -0.235631 -0.249173
vn 0.547381 -0.533674 -0.644644
v 0.081328 -0.231298 -0.262662
vn 0.759258 -0.376311 -0.530958
v 0.088718 -0.256320 -0.258152
vn 0.553968 0.050320 -0.831016
v 0.098283 -0.115170 -0.319922
vn 0.814337 -0.022267 -0.579966
v 0.119117 -0.087803 -0.297141
vn 0.560078 0.319998 -0.764143
v 0.102284 -0.139787 -0.319948
vn 0.070556 0.419954 -0.904799
v 0.057040 -0.131854 -0.355997
vn 0.467330 0.235000 -0.852278
v 0.070689 -0.112656 -0.332478
vn 0.331113 0.371289 -0.867473
v 0.074692 -0.167408 -0.361268
vn 0.971573 -0.223483 0.078109
v 0.158889 -0.188368 -0.234303
vn 0.521647 0.409114 -0.748673
v 0.078780 -0.141375 -0.332847
vn 0.785263 0.321791 -0.528974
v 0.138448 -0.082283 -0.262226
vn 0.965372 -0.228442 0.125985
v 0.148239 -0.187448 -0.197230
vn 0.150088 -0.572212 -0.806255
v 0.096525 -0.304719 -0.327324
vn -0.701593 -0.402611 -0.587938
v 0.075148 -0.319389 -0.311734
vn -0.981002 -0.193929 -0.005160
v 0.055138 -0.275746 -0.306668
vn -0.229561 0.268329 0.935575
v 0.085102 -0.318892 -0.239172
vn -0.988841 0.000396 0.148976
v 0.069273 -0.325549 -0.272009
vn 0.758979 -0.379055 -0.529403
v 0.121210 -0.291783 -0.319893
vn 0.710569 0.067897 0.700344
v 0.121160 -0.271445 -0.260237
vn 0.971811 -0.214655 0.097498
v 0.134483 -0.277997 -0.300698
vn 0.117610 -0.381453 -0.916876
v 0.095304 -0.251618 -0.353353
vn -0.842672 0.070249 0.533826
v 0.067025 -0.266091 -0.266857
vn -0.978776 -0.198422 0.051243
v 0.049432 -0.218753 -0.319648
vn -0.946857 -0.168448 -0.274021
v 0.047552 -0.199653 -0.352382
vn 0.681184 0.298721 -0.668397
v 0.116898 -0.182038 -0.351857
vn 0.299921 0.154795 -0.941322
v 0.097445 -0.192596 -0.368802
vn -0.405554 -0.162332 -0.899541
v 0.055923 -0.206732 -0.364442
vn -0.041717 -0.228190 0.972723
v 0.104724 -0.239992 -0.266347
vn 0.711097 -0.636366 0.298965
v 0.134288 -0.216801 -0.282582
vn 0.956873 -0.213942 -0.196525
v 0.140076 -0.223150 -0.322858
vn 0.676734 -0.139973 -0.722799
v 0.121407 -0.242312 -0.344147
vn 0.713975 0.122444 0.689382
v 0.101601 -0.325296 -0.244859
vn 0.983861 -0.107043 0.143384
v 0.116830 -0.325047 -0.273293
vn 0.866469 -0.115993 0.485568
v 0.111955 -0.370442 -0.237980
vn 0.960114 0.038669 -0.276922
v 0.112977 -0.357229 -0.267554
vn -0.904152 -0.058815 -0.423143
v 0.068891 -0.364863 -0.276174
vn -0.822792 -0.565478 -0.056985
v 0.067682 -0.407856 -0.415545
vn 0.102331 -0.957525 -0.269580
v 0.090528 -0.425951 -0.425204
vn -0.986095 -0.146200 0.079011
v 0.064253 -0.371268 -0.255231
vn -0.397200 -0.144403 0.906300
v 0.081500 -0.368463 -0.217975
vn 0.256565 -0.935505 0.242911
v 0.089068 -0.405427 -0.255763
vn -0.681532 -0.731774 -0.004530
v 0.076225 -0.396921 -0.258697
vn -0.838220 -0.542719 0.053331
v 0.078621 -0.397290 -0.366978
vn 0.974980 -0.150280 -0.163801
v 0.117026 -0.400722 -0.420700
vn 0.161557 0.965166 -0.205802
v 0.090796 -0.352186 -0.309653
vn 0.956636 -0.281172 0.076098
v 0.116922 -0.377207 -0.257074
vn -0.122524 0.937893 0.324568
v 0.087494 -0.366930 -0.399398
vn 0.848180 -0.469692 0.244907
v 0.108681 -0.391604 -0.364152
vn 0.826010 -0.491222 -0.276420
v 0.109876 -0.378276 -0.296085
vn 0.347754 0.604914 0.716343
v 0.112224 -0.311936 -0.427053
vn -0.589927 0.071768 0.804261
v 0.062110 -0.312399 -0.430535
vn 0.220792 -0.619164 -0.753583
v 0.090740 -0.360146 -0.482239
vn -0.511763 0.653676 -0.557500
v 0.082337 -0.293755 -0.505124
vn 0.952916 0.075252 -0.293750
v 0.132203 -0.301422 -0.474340
vn -0.837978 0.246423 -0.486898
v -0.116757 -0.128431 -0.278914
vn -0.019809 0.011294 -0.999740
v -0.021097 -0.079121 -0.330562
vn -0.569370 -0.644268 -0.510624
v -0.049746 -0.257800 -0.261070
vn -0.554462 -0.810458 -0.189021
v -0.070223 -0.240249 -0.238487
vn -0.629227 0.158319 -0.760926
v -0.067417 -0.129250 -0.317717
vn -0.301041 0.449851 -0.840838
v -0.044254 -0.162170 -0.355318
vn 0.853810 -0.290884 0.431735
v -0.022613 -0.236842 -0.299218
vn 0.642314 -0.011466 -0.766356
v -0.016891 -0.182340 -0.361689
vn 0.810167 -0.208216 -0.547974
v -0.006152 -0.177474 -0.320878
vn -0.944491 0.269485 -0.187925
v -0.121994 -0.099997 -0.237825
vn -0.990268 -0.070834 -0.119803
v -0.129804 -0.166001 -0.242968
vn -0.672369 -0.706920 -0.219511
v -0.095392 -0.237414 -0.222393
vn -0.484759 0.511065 -0.709804
v -0.080734 -0.147306 -0.320979
vn -0.818045 0.256922 -0.514580
v -0.102636 -0.088815 -0.270267
vn 0.131201 0.324972 -0.936579
v -0.019825 -0.117269 -0.345828
vn -0.094578 -0.606416 -0.789503
v -0.026823 -0.238945 -0.295079
vn -0.449661 -0.807519 -0.381730
v -0.048905 -0.237141 -0.264936
vn -0.840884 -0.051343 -0.538774
v -0.094646 -0.076587 -0.279481
vn -0.936486 -0.237476 -0.258069
v -0.109124 -0.050633 -0.252756
vn -0.491761 0.286599 -0.822211
v -0.034150 -0.135563 -0.334754
vn -0.929963 -0.365497 0.039755
v -0.123087 -0.194075 -0.242491
vn -0.931007 -0.361549 -0.050089
v -0.105498 -0.213225 -0.284251
vn -0.200162 -0.971804 -0.124632
v -0.045778 -0.267930 -0.226882
vn -0.946151 -0.306416 0.104440
v -0.108900 -0.211252 -0.205527
vn -0.961502 -0.141442 0.235603
v -0.119846 -0.143656 -0.179252
vn 0.580602 -0.092879 0.808872
v -0.049356 -0.326527 -0.282193
vn 0.981432 -0.179900 0.066541
v -0.022989 -0.282451 -0.322581
vn 0.993965 -0.076329 0.078793
v -0.034376 -0.332763 -0.319418
vn -0.640369 -0.115064 0.759399
v -0.064409 -0.343837 -0.285635
vn -0.751372 -0.211404 -0.625098
v -0.077621 -0.338372 -0.332082
vn -0.927989 -0.065255 -0.366848
v -0.104202 -0.233021 -0.337588
vn -0.988491 -0.093664 0.118793
v -0.080880 -0.332564 -0.313244
vn -0.180286 0.233760 -0.955433
v -0.061145 -0.187659 -0.366480
vn 0.425210 -0.035076 -0.904415
v -0.025282 -0.197577 -0.362812
vn -0.214193 -0.216142 -0.952578
v -0.065678 -0.289812 -0.360355
vn 0.698669 -0.175176 -0.693668
v -0.034137 -0.283395 -0.356466
vn 0.956433 -0.197647 -0.214877
v -0.015744 -0.219073 -0.333757
vn -0.645711 0.352372 -0.677415
v -0.082464 -0.177288 -0.349225
vn 0.067998 -0.718602 0.692090
v -0.065374 -0.241809 -0.273775
vn -0.789740 -0.429063 0.438424
v -0.101772 -0.233827 -0.285860
vn -0.915244 0.135956 -0.379267
v -0.105826 -0.166117 -0.305966
vn -0.982342 -0.163969 0.090106
v -0.106483 -0.237991 -0.317687
vn -0.637195 -0.059155 -0.768429
v -0.089632 -0.246320 -0.354984
vn 0.205540 -0.109941 0.972454
v -0.052883 -0.365305 -0.279684
vn -0.848609 -0.259260 0.461136
v -0.079481 -0.381044 -0.304314
vn 0.614246 0.788749 0.024021
v -0.047783 -0.332578 -0.452685
vn 0.002072 0.830608 0.556854
v -0.056533 -0.330304 -0.453364
vn -0.445873 0.871745 0.203119
v -0.059215 -0.349025 -0.352289
vn -0.101035 -0.753790 0.649301
v -0.058467 -0.397308 -0.290755
vn 0.291808 -0.956383 0.013441
v -0.045473 -0.410156 -0.326233
vn 0.965349 -0.222118 0.136984
v -0.029583 -0.384975 -0.312612
vn 0.464070 -0.801656 -0.376811
v -0.048867 -0.389977 -0.371029
vn -0.259965 -0.961092 -0.093385
v -0.056890 -0.381521 -0.415630
vn -0.888255 -0.417330 -0.191933
v -0.073302 -0.368630 -0.479391
vn -0.977684 0.113962 0.176485
v -0.071210 -0.356053 -0.443092
vn -0.916841 -0.337304 -0.213608
v -0.073005 -0.374405 -0.363096
vn -0.645785 -0.756241 -0.105169
v -0.066526 -0.402766 -0.327404
vn -0.984966 0.057024 -0.163066
v -0.083434 -0.375248 -0.326584
vn 0.957929 -0.286581 0.015592
v -0.040918 -0.358682 -0.428752
vn 0.840245 0.175160 -0.513134
v -0.041336 -0.358104 -0.338793
vn 0.776341 0.506224 -0.375542
v -0.023547 -0.242354 -0.528521
vn -0.079892 0.572125 -0.816266
v -0.054206 -0.249405 -0.556195
vn -0.484512 0.763001 0.427876
v -0.081659 -0.255336 -0.478705
vn -0.599666 -0.786717 0.146553
v -0.039624 -0.224133 -0.044861
vn -0.514630 -0.850879 0.105647
v -0.015929 -0.251774 -0.058123
vn 0.860221 -0.499211 0.103957
v 0.097476 -0.210364 -0.035204
vn 0.453395 -0.881718 0.130410
v 0.048491 -0.250156 -0.018910
vn -0.610580 -0.761864 0.216231
v -0.055402 -0.232214 -0.114623
vn -0.951209 -0.269162 0.150843
v -0.061418 -0.183304 -0.002290
vn -0.687124 -0.702329 0.185995
v -0.048095 -0.244949 -0.123552
vn -0.712854 -0.667172 0.216150
v -0.064419 -0.213666 -0.049215
vn -0.823174 0.317153 0.470954
v -0.063977 -0.095216 -0.028680
vn -0.937890 0.346916 0.003276
v -0.059939 -0.118571 0.010147
vn -0.950930 -0.026939 0.308232
v -0.077535 -0.142086 -0.050273
vn -0.895362 -0.358361 0.264393
v -0.076709 -0.205746 -0.086620
vn -0.659367 -0.715057 0.232226
v -0.069370 -0.218191 -0.089932
vn -0.296400 -0.954039 0.044234
v -0.030495 -0.254677 -0.109307
vn 0.036008 -0.998897 0.030134
v 0.035563 -0.259255 -0.099662
vn -0.036339 0.431433 0.901413
v 0.015159 -0.058021 0.001251
vn 0.650214 -0.680214 0.338423
v 0.117138 -0.225395 -0.136756
vn 0.641360 -0.740323 0.201440
v 0.077991 -0.224720 -0.067010
vn 0.287213 0.767549 0.573042
v 0.045389 -0.069988 0.000336
vn 0.654428 0.493533 0.572843
v 0.077942 -0.083196 -0.011959
vn 0.917801 0.271693 0.289523
v 0.097640 -0.108954 -0.020743
vn 0.801587 -0.520705 0.293811
v 0.109947 -0.207018 -0.084782
vn 0.998326 -0.005776 0.057554
v 0.097669 -0.169139 0.010951
vn 0.464302 -0.881427 0.086664
v 0.068750 -0.251578 -0.101991
vn 0.124764 0.811248 -0.571237
v -0.012219 -0.069583 0.031518
vn -0.208844 0.903178 0.375039
v -0.010992 -0.074384 0.010483
vn -0.263339 -0.949886 0.168431
v -0.013130 -0.248805 -0.004071
vn -0.938370 -0.252151 -0.236395
v -0.076546 -0.125598 0.087062
vn 0.075263 -0.978835 0.190308
v 0.026225 -0.230737 0.097118
vn -0.855703 0.106354 -0.506420
v -0.067768 -0.089360 0.048948
vn -0.645499 0.723680 -0.244168
v -0.036810 -0.091944 0.017652
vn 0.006685 0.802433 -0.596705
v -0.022469 -0.036169 0.062489
vn -0.513983 -0.846993 0.135734
v -0.042800 -0.215894 0.090302
vn -0.878414 -0.477541 -0.018515
v -0.071386 -0.177274 0.124431
vn -0.721588 -0.684060 0.106641
v -0.047119 -0.218407 -0.019376
vn -0.997334 -0.061771 -0.038853
v -0.064184 -0.158580 0.015639
vn -0.858069 -0.513143 -0.020053
v -0.060659 -0.197952 0.055730
vn 0.830743 0.479869 -0.282121
v 0.093170 -0.101189 0.028700
vn -0.050684 0.849675 -0.524865
v 0.047400 -0.067005 0.031533
vn -0.366460 -0.920256 0.137240
v -0.009539 -0.234135 0.051416
vn 0.947261 -0.148991 -0.283722
v 0.107151 -0.121490 0.077941
vn -0.189916 0.793455 -0.578239
v 0.047938 -0.019765 0.080183
vn 0.656424 -0.747080 0.104777
v 0.092556 -0.198515 0.105084
vn 0.025255 0.992490 0.119691
v 0.015433 -0.085125 0.015447
vn -0.104403 0.774714 -0.623633
v 0.016624 -0.041419 0.090152
vn 0.545097 -0.824776 0.150382
v 0.077479 -0.216906 0.059524
vn 0.901581 -0.432384 -0.014019
v 0.093873 -0.200582 0.050958
vn 0.194868 -0.960657 0.197899
v 0.034085 -0.231918 0.064828
vn -0.276285 0.658655 -0.699886
v -0.039952 -0.043301 0.057937
vn -0.636743 0.487495 -0.597418
v -0.089848 -0.047956 0.089450
vn -0.864946 -0.390642 -0.315065
v -0.098406 -0.093610 0.104925
vn -0.260279 -0.382417 0.886573
v -0.056412 -0.062976 0.268048
vn -0.323894 0.899173 0.294245
v -0.066878 -0.000836 0.268457
vn 0.265669 0.962864 0.048100
v -0.012910 0.017965 0.206230
vn -0.832375 0.418160 -0.363723
v -0.115004 -0.034243 0.141075
vn -0.091665 0.989019 -0.115925
v -0.033378 0.014696 0.180191
vn -0.146028 0.895348 -0.420747
v -0.041370 -0.002240 0.135225
vn -0.158895 -0.763115 0.626424
v -0.029727 -0.173931 0.232767
vn -0.806295 -0.470038 -0.359100
v -0.100943 -0.124658 0.183889
vn -0.444147 0.773007 -0.452984
v -0.082100 -0.010516 0.131587
vn -0.257953 0.941790 -0.215620
v -0.072086 0.011358 0.163497
vn 0.461205 0.872288 -0.162492
v 0.006564 0.003988 0.152023
vn 0.115676 0.949508 0.291640
v -0.019205 0.011229 0.250092
vn -0.931605 -0.350381 -0.096665
v -0.091849 -0.138324 0.152542
vn -0.623889 -0.779634 -0.054159
v -0.070750 -0.191054 0.177972
vn -0.627926 -0.774327 -0.078273
v -0.062047 -0.180342 0.159218
vn -0.010234 -0.958276 0.285661
v -0.000896 -0.199210 0.167219
vn 0.034400 -0.836826 0.546387
v 0.015384 -0.188772 0.205048
vn -0.897257 -0.409024 -0.166220
v -0.093339 -0.106551 0.124052
vn -0.256366 -0.434763 0.863283
v -0.030366 -0.139951 0.260448
vn 0.510486 0.722704 -0.465943
v 0.008015 -0.007771 0.115230
vn 0.013989 0.917386 -0.397752
v -0.012703 -0.004668 0.107378
vn -0.301377 0.799685 -0.519303
v -0.067345 -0.022817 0.095781
vn -0.886486 0.021629 -0.462250
v -0.105297 -0.066415 0.100883
vn -0.315184 -0.868300 0.383032
v -0.028328 -0.207115 0.151145
vn 0.051662 -0.998304 -0.026839
v -0.003988 -0.205308 0.181710
vn 0.325005 0.704861 -0.630510
v 0.082493 -0.034378 0.069626
vn 0.824146 0.151411 -0.545764
v 0.130126 -0.060834 0.087070
vn 0.323366 0.833822 0.447410
v 0.106455 -0.004427 0.272294
vn 0.136718 0.942949 0.303570
v 0.071688 0.008163 0.257428
vn 0.082226 0.996541 -0.012044
v 0.060088 0.018229 0.201941
vn 0.278464 0.958129 0.066683
v 0.098780 0.006042 0.206178
vn 0.082423 0.933574 -0.348779
v 0.054625 0.004007 0.134106
vn 0.143568 0.989056 -0.034017
v 0.084392 0.010423 0.192226
vn 0.342776 0.406171 0.847071
v 0.075691 -0.020354 0.303561
vn 0.156252 -0.352175 0.922799
v 0.080864 -0.094251 0.264403
vn 0.914391 -0.313347 -0.256326
v 0.128150 -0.136211 0.170811
vn 0.224133 -0.763304 0.605914
v 0.069864 -0.172626 0.231403
vn 0.379571 -0.905737 0.188592
v 0.086452 -0.199039 0.183356
vn 0.760835 -0.613466 -0.211634
v 0.117203 -0.174412 0.174595
vn 0.506659 0.758782 -0.409324
v 0.132232 -0.008068 0.157631
vn 0.288747 0.946768 -0.142325
v 0.106473 0.011384 0.162691
vn -0.460503 0.886094 -0.052674
v 0.037654 0.012643 0.181211
vn -0.288180 0.936714 0.198796
v 0.048765 0.011265 0.243967
vn -0.442652 0.805320 -0.394359
v 0.029133 -0.007818 0.109870
vn 0.429005 -0.900972 -0.064840
v 0.082368 -0.193224 0.158824
vn 0.930899 -0.358652 -0.069251
v 0.133723 -0.099848 0.147367
vn 0.141289 0.989885 0.012876
v 0.017023 -0.009216 0.205054
vn 0.948827 -0.250287 -0.192571
v 0.123156 -0.132157 0.123630
vn 0.225394 -0.902942 0.365914
v 0.059608 -0.211184 0.142317
vn 0.110649 -0.602729 0.790237
v 0.053484 -0.154610 0.254939
vn 0.051510 0.944866 -0.323380
v 0.016785 -0.012574 0.124471
vn 0.441376 0.754191 -0.486192
v 0.107950 -0.017284 0.108465
vn 0.908610 -0.301236 -0.289282
v 0.124672 -0.105783 0.110677
vn 0.266983 0.957255 0.111279
v 0.011415 -0.006127 0.258113
vn 0.021717 -0.593647 0.804433
v -0.001094 -0.155260 0.251326
vn -0.090030 -0.939060 0.331754
v 0.021819 -0.199512 0.192553
vn -0.486710 0.343619 0.803144
v -0.036070 -0.018668 0.306713
vn -0.000148 0.906339 0.422551
v 0.012169 -0.017418 0.314878
vn -0.857237 0.442533 0.263265
v -0.018123 -0.047113 0.329725
vn -0.703970 -0.393617 0.591178
v -0.026535 -0.073174 0.287992
vn 0.168705 -0.610582 0.773775
v 0.035626 -0.125114 0.270963
vn -0.023147 0.850880 0.524850
v 0.037700 -0.011457 0.302118
vn -0.370938 0.917901 0.140938
v 0.033054 -0.002766 0.263025
vn -0.031174 -0.062348 -0.997567
v 0.037572 -0.134713 0.311060
vn -0.001835 -0.968874 -0.247547
v 0.015287 -0.164388 0.309210
vn 0.850677 -0.514575 -0.107526
v 0.060942 -0.147190 0.352465
vn 0.779935 -0.396402 0.484322
v 0.053015 -0.147326 0.411128
vn 0.415640 0.440549 0.795713
v 0.046012 -0.062549 0.430735
vn 0.211747 -0.396946 0.893083
v 0.035691 -0.118484 0.437943
vn -0.358235 -0.059300 0.931746
v -0.001344 -0.097647 0.441433
vn 0.696286 0.558187 0.451235
v 0.052077 -0.045381 0.323315
vn 0.611735 -0.363674 0.702511
v 0.069350 -0.058525 0.278852
vn 0.907539 0.376469 0.186127
v 0.065214 -0.060546 0.397984
vn 0.999887 0.009814 -0.011363
v 0.065313 -0.085515 0.337940
vn 0.804144 0.042073 -0.592944
v 0.061410 -0.111416 0.305705
vn -0.031174 -0.062348 -0.997567
v -0.006856 -0.129054 0.310341
vn -0.556074 -0.798459 -0.230749
v 0.013683 -0.107292 0.278682
vn -0.950073 -0.087215 -0.299591
v -0.029399 -0.093268 0.314823
vn -0.915294 0.389025 0.104387
v -0.033655 -0.071971 0.382543
vn 0.076368 -0.968958 0.235136
v 0.018914 -0.175361 0.389602
vn -0.945398 -0.115093 0.304920
v -0.032378 -0.113274 0.403612
vn -0.601609 0.488414 0.632075
v -0.015187 -0.065253 0.426288
vn -0.518198 -0.651658 0.553907
v -0.012939 -0.163961 0.403825
vn -0.149317 0.950532 0.272385
v 0.005521 -0.034172 0.383095
vn -0.068613 -0.594671 -0.801036
v 0.014480 -0.150967 0.275208
vn -0.771810 -0.613796 -0.166023
v -0.025907 -0.148453 0.353718
vn -0.379909 -0.755834 -0.533277
v -0.104704 -0.094035 0.186271
vn -0.562344 -0.753458 0.340692
v -0.167389 -0.103792 0.196473
vn -0.687131 0.709803 -0.155018
v -0.103110 -0.006337 0.168830
vn -0.427143 -0.698016 0.574737
v -0.113634 -0.113564 0.241814
vn -0.433836 0.892871 0.120699
v -0.133923 -0.009886 0.223305
vn -0.776275 0.128889 0.617078
v -0.164209 -0.061544 0.251575
vn -0.407239 0.903224 0.135438
v -0.089591 -0.004651 0.231066
vn -0.288813 -0.443297 0.848572
v -0.126629 -0.081774 0.273509
vn -0.414751 0.412591 0.811018
v -0.093276 -0.028234 0.276932
vn -0.380130 -0.585526 -0.716003
v -0.119573 -0.072922 0.146721
vn -0.672404 0.564457 0.478813
v -0.209162 -0.049900 0.146169
vn -0.522134 -0.373009 0.766968
v -0.231640 -0.091308 0.133083
vn -0.218410 0.961100 0.169065
v -0.176856 -0.029283 0.148478
vn 0.333408 0.783470 -0.524418
v -0.151578 -0.041229 0.112671
vn -0.616372 -0.595935 0.514729
v -0.194106 -0.114168 0.164996
vn 0.680938 -0.459762 -0.570036
v -0.187147 -0.084991 0.085084
vn -0.766469 0.425729 0.480917
v -0.186054 -0.055534 0.183188
vn -0.248436 0.923570 -0.292058
v -0.120315 -0.033818 0.164392
vn 0.718586 0.066892 -0.692213
v -0.142606 -0.059957 0.110458
vn 0.092832 -0.983711 -0.153929
v -0.164208 -0.127862 0.150070
vn 0.623713 -0.547461 -0.557915
v -0.153146 -0.102580 0.135680
vn -0.664305 0.617984 -0.420469
v -0.250349 -0.078613 0.072289
vn -0.409939 0.893928 -0.181227
v -0.222275 -0.043399 0.099284
vn 0.281856 0.385566 -0.878576
v -0.204181 -0.063602 0.069506
vn -0.130194 0.334849 -0.933234
v -0.243606 -0.106487 0.048223
vn -0.814685 0.372424 0.444509
v -0.245431 -0.071939 0.117288
vn -0.943890 0.319475 0.083705
v -0.273213 -0.121349 0.083831
vn 0.779412 -0.429286 0.456322
v -0.208564 -0.141186 0.102447
vn -0.794832 0.114367 0.595955
v -0.268312 -0.132421 0.106443
vn 0.795397 -0.404538 -0.451322
v -0.218950 -0.141974 0.069244
vn -0.286484 -0.182403 0.940562
v -0.238898 -0.113949 0.127850
vn 0.322090 -0.089318 -0.942486
v -0.245825 -0.144405 0.045468
vn -0.639756 0.308338 -0.704018
v -0.274241 -0.136503 0.050333
vn 0.539168 -0.436543 0.720227
v -0.270967 -0.230508 0.083417
vn -0.732243 0.152222 -0.663814
v -0.295457 -0.207096 0.052910
vn -0.829043 -0.068051 0.555029
v -0.298057 -0.228310 0.072409
vn 0.729796 -0.018573 -0.683412
v -0.274129 -0.223029 0.055669
vn 0.988219 0.107504 -0.108936
v -0.244459 -0.255029 0.056132
vn 0.477641 0.163980 -0.863116
v -0.280968 -0.263303 0.021405
vn -0.623587 -0.763124 0.169648
v -0.290690 -0.280013 0.058314
vn 0.573880 -0.500526 -0.648179
v 0.138622 -0.083898 0.185572
vn 0.022103 -0.583297 0.811958
v 0.136491 -0.108110 0.252961
vn 0.824993 0.545608 0.147306
v 0.196005 -0.036424 0.233932
vn 0.445822 0.864582 0.231819
v 0.153114 -0.007277 0.235376
vn 0.649611 0.706056 -0.281941
v 0.161533 -0.018991 0.199260
vn 0.751141 -0.226151 -0.620196
v 0.161056 -0.061608 0.170420
vn 0.297623 -0.005400 0.954668
v 0.164550 -0.064866 0.281446
vn 0.594565 -0.639698 0.487113
v 0.134295 -0.136322 0.226716
vn 0.876715 0.263459 -0.402442
v 0.151137 -0.044271 0.128195
vn -0.046539 0.053048 -0.997507
v 0.216981 -0.138887 0.158664
vn 0.090277 -0.495155 0.864101
v 0.206404 -0.148036 0.238675
vn -0.597478 -0.634514 -0.490318
v 0.181866 -0.179876 0.190234
vn -0.334303 -0.801975 0.495053
v 0.189770 -0.184454 0.233729
vn 0.638617 0.567181 -0.520071
v 0.244046 -0.128475 0.175189
vn 0.789202 0.597134 0.143500
v 0.219687 -0.093302 0.210680
vn 0.569988 0.171232 0.803613
v 0.237206 -0.132124 0.231913
vn -0.461590 -0.606783 0.647108
v 0.158413 -0.144674 0.235231
vn 0.343037 -0.275307 0.898071
v 0.196061 -0.133764 0.255907
vn -0.402522 -0.207776 -0.891518
v 0.181671 -0.139791 0.177926
vn 0.431295 0.447926 -0.783164
v 0.193039 -0.086276 0.176538
vn -0.022668 -0.958149 -0.285370
v 0.142839 -0.134584 0.206698
vn 0.885985 0.409711 0.217183
v 0.279167 -0.168310 0.197489
vn 0.801167 -0.155378 0.577917
v 0.272690 -0.208598 0.213717
vn 0.840421 0.067159 -0.537757
v 0.284797 -0.186747 0.177754
vn 0.682035 -0.520378 -0.513844
v 0.259088 -0.247618 0.183189
vn -0.053270 -0.124235 -0.990822
v 0.251053 -0.193086 0.161825
vn -0.720441 -0.342274 -0.603170
v 0.217557 -0.191993 0.181029
vn -0.191941 0.116852 0.974425
v 0.234894 -0.187325 0.238418
vn 0.709699 -0.604573 0.361689
v 0.173447 -0.333022 0.237105
vn -0.472125 0.575800 0.667497
v 0.146366 -0.306058 0.243695
vn 0.154823 -0.014745 0.987832
v 0.220979 -0.241195 0.242485
vn -0.855325 0.501427 0.130344
v 0.182759 -0.232111 0.213801
vn -0.738595 0.324009 -0.591182
v 0.155594 -0.292895 0.221105
vn -0.627161 0.106779 -0.771536
v 0.198322 -0.232472 0.185028
vn -0.090368 -0.287710 -0.953445
v 0.220547 -0.256301 0.177718
vn 0.747997 -0.575451 0.330691
v 0.230934 -0.283601 0.218650
vn -0.181049 -0.377554 -0.908116
v 0.176020 -0.305691 0.205391
vn 0.366936 -0.699198 -0.613580
v 0.223313 -0.285123 0.191868
vn -0.075921 -0.554953 -0.828410
v 0.157418 -0.333060 0.215569
vn -0.823754 0.346679 -0.448601
v 0.107166 -0.334596 0.224226
vn -0.342927 -0.231427 0.910408
v 0.112620 -0.350828 0.276121
vn 0.308948 -0.938230 -0.155804
v 0.133156 -0.375026 0.263518
vn -0.966888 0.241543 0.082363
v 0.098155 0.635286 -0.528294
vn 0.874450 0.444410 0.194516
v 0.115796 0.639430 -0.538920
vn 0.202612 -0.665332 -0.718528
v 0.112757 0.587954 -0.521240
vn -0.954351 -0.220860 -0.201084
v 0.088437 0.616188 -0.533160
vn -0.647951 0.716890 0.257349
v 0.098797 0.657171 -0.540796
vn 0.507733 0.802804 0.312592
v 0.111324 0.654439 -0.536858
vn 0.944184 0.226597 0.239103
v 0.127302 0.669937 -0.625374
vn 0.998388 0.046728 -0.032210
v 0.131639 0.610557 -0.517443
vn 0.591235 0.638274 0.492998
v 0.112031 0.628560 -0.462202
vn 0.345388 0.793001 0.501854
v 0.116241 0.696874 -0.638078
vn -0.959640 0.199066 0.198657
v 0.092669 0.676590 -0.633727
vn -0.405739 -0.878159 -0.253402
v 0.104686 0.652385 -0.643531
vn 0.755209 -0.636817 -0.155318
v 0.124925 0.657289 -0.635458
vn -0.820711 -0.452231 -0.349171
v 0.088041 0.668692 -0.677391
vn 0.620600 -0.675714 -0.397827
v 0.134222 0.660768 -0.679832
vn -0.631024 0.377296 0.677832
v 0.098617 0.736750 -0.684874
vn -0.964378 -0.229708 -0.131184
v 0.091585 0.711929 -0.694281
vn 0.906451 0.245917 0.343325
v 0.132677 0.719158 -0.682370
vn 0.034959 -0.697330 -0.715897
v 0.114197 0.692420 -0.699040
vn 0.547512 0.264575 0.793870
v 0.125678 0.741059 -0.686172
vn -0.527209 -0.587008 -0.614388
v -0.084928 0.631053 -0.488801
vn -0.996390 0.046419 -0.071084
v -0.097713 0.631131 -0.453637
vn -0.681462 -0.549451 -0.483438
v -0.097031 0.722556 -0.623216
vn 0.744880 0.494461 0.447953
v -0.058448 0.643359 -0.416355
vn 0.904087 -0.207171 -0.373773
v -0.050426 0.637272 -0.479892
vn 0.706018 0.620527 0.341299
v -0.065355 0.678029 -0.476083
vn 0.903145 0.279032 0.326298
v -0.057590 0.738065 -0.580211
vn -0.607244 0.601557 0.519021
v -0.079452 0.723974 -0.538656
vn -0.896821 -0.405165 -0.177634
v -0.089630 0.709841 -0.579536
vn -0.987508 0.152783 0.038540
v -0.089735 0.669757 -0.498958
vn -0.315088 0.816386 0.483976
v -0.076214 0.664166 -0.435430
vn 0.434968 -0.779221 -0.451239
v -0.066318 0.708904 -0.585227
vn 0.738266 -0.102590 0.666663
v -0.056621 0.791678 -0.605516
vn 0.610478 -0.377567 -0.696247
v -0.057095 0.732797 -0.619750
vn -0.946194 -0.162854 0.279634
v -0.109462 0.807567 -0.621754
vn -0.591536 -0.203136 -0.780270
v -0.098039 0.810444 -0.648301
vn -0.979157 -0.061486 -0.193575
v -0.101128 0.762058 -0.605943
vn -0.205042 0.550366 0.809355
v -0.085923 0.762404 -0.579207
vn 0.692546 -0.082472 -0.716644
v -0.058596 0.811216 -0.649549
vn -0.473439 -0.431961 -0.767637
v -0.007368 0.692120 -0.263048
vn -0.813170 0.273771 0.513619
v -0.006068 0.716595 -0.223824
vn -0.445266 0.225270 0.866598
v 0.007233 0.783402 -0.229167
vn -0.990942 0.074468 0.111751
v -0.016446 0.721531 -0.256740
vn 0.826844 -0.256080 -0.500752
v 0.052321 0.705985 -0.260233
vn 0.996191 -0.024329 -0.083736
v 0.051262 0.788528 -0.289207
vn 0.020975 -0.348256 -0.937165
v 0.017460 0.755442 -0.299747
vn 0.820529 0.246620 0.515665
v 0.040476 0.727313 -0.228123
vn 0.542835 0.239401 0.804995
v 0.028080 0.776206 -0.230336
vn -0.424953 -0.209101 -0.880733
v -0.005309 0.791622 -0.305820
vn -0.884586 -0.036564 -0.464942
v -0.014314 0.805449 -0.302652
vn -0.887555 0.064078 0.456224
v 0.000301 0.806190 -0.254992
vn -0.678618 0.182124 -0.711554
v -0.010624 0.882598 -0.301758
vn -0.948187 0.086346 0.305755
v -0.012844 0.781149 -0.269866
vn -0.445736 -0.141476 0.883914
v 0.006532 0.867362 -0.238319
vn -0.093479 0.077066 -0.992634
v 0.017100 0.861899 -0.314720
vn 0.648851 0.085871 -0.756054
v 0.046913 0.878908 -0.301366
vn 0.529957 -0.183981 -0.827826
v 0.039216 0.789912 -0.305646
vn 0.887515 0.058109 0.457099
v 0.043927 0.810806 -0.259693
vn 0.919108 -0.052566 0.390482
v 0.048781 0.876849 -0.268521
vn 0.115359 -0.108561 -0.987374
v 0.020210 0.808689 -0.313250
vn 0.981992 0.112036 -0.152118
v 0.053259 0.889934 -0.284725
vn 0.110844 -0.631359 -0.767528
v 0.095287 -0.378360 -0.453582
vn -0.963378 -0.223893 -0.147564
v 0.064458 -0.354353 -0.457756
vn 0.903320 -0.249666 0.348827
v 0.115030 -0.354881 -0.444373
vn 0.988692 0.139978 -0.053808
v -0.029800 -0.354245 -0.479397
vn 0.288123 -0.691467 -0.662464
v -0.050826 -0.374942 -0.497759
vn 0.985429 -0.128255 -0.111719
v -0.028005 -0.307243 -0.494005
vn -0.980246 -0.091351 0.175422
v -0.073437 -0.303274 -0.488308
vn -0.920088 -0.223772 -0.321502
v -0.099974 -0.261552 -0.528777
vn 0.310361 0.396638 0.863918
v -0.036871 -0.248955 -0.475451
vn 0.076955 -0.527958 -0.845777
v -0.048986 -0.315163 -0.511706
# 791 vertices, 0 vertices normals

f 37//37 274//274 34//34
f 174//174 40//40 10//10
f 164//164 14//14 13//13
f 24//24 25//25 22//22
f 20//20 22//22 79//79
f 24//24 21//21 19//19
f 2//2 41//41 78//78
f 156//156 78//78 88//88
f 8//8 3//3 4//4
f 37//37 34//34 35//35
f 37//37 35//35 36//36
f 11//11 39//39 247//247
f 11//11 247//247 30//30
f 38//38 251//251 255//255
f 38//38 255//255 6//6
f 79//79 22//22 7//7
f 7//7 22//22 25//25
f 7//7 25//25 6//6
f 33//33 3//3 157//157
f 154//154 163//163 1//1
f 154//154 1//1 2//2
f 36//36 9//9 4//4
f 36//36 4//4 37//37
f 40//40 34//34 5//5
f 40//40 5//5 39//39
f 247//247 251//251 38//38
f 40//40 39//39 10//10
f 30//30 247//247 38//38
f 13//13 217//217 221//221
f 154//154 2//2 155//155
f 1//1 221//221 53//53
f 4//4 249//249 274//274
f 34//34 274//274 250//250
f 9//9 175//175 161//161
f 9//9 161//161 8//8
f 12//12 13//13 221//221
f 24//24 23//23 25//25
f 217//217 13//13 21//21
f 220//220 53//53 221//221
f 217//217 21//21 42//42
f 21//21 20//20 42//42
f 6//6 25//25 38//38
f 11//11 10//10 39//39
f 40//40 35//35 34//34
f 175//175 36//36 35//35
f 175//175 35//35 174//174
f 9//9 8//8 4//4
f 3//3 8//8 157//157
f 157//157 8//8 161//161
f 157//157 49//49 33//33
f 33//33 248//248 3//3
f 3//3 248//248 249//249
f 3//3 249//249 4//4
f 34//34 250//250 5//5
f 251//251 254//254 255//255
f 6//6 255//255 252//252
f 6//6 252//252 7//7
f 7//7 252//252 275//275
f 78//78 156//156 155//155
f 155//155 2//2 78//78
f 163//163 159//159 1//1
f 1//1 159//159 165//165
f 1//1 165//165 12//12
f 2//2 1//1 43//43
f 2//2 43//43 41//41
f 1//1 53//53 43//43
f 12//12 164//164 13//13
f 21//21 13//13 14//14
f 21//21 14//14 19//19
f 12//12 221//221 1//1
f 23//23 24//24 19//19
f 24//24 20//20 21//21
f 20//20 24//24 22//22
f 286//286 7//7 275//275
f 79//79 7//7 286//286
f 282//282 248//248 33//33
f 9//9 36//36 175//175
f 4//4 274//274 37//37
f 174//174 35//35 40//40
f 31//31 28//28 27//27
f 23//23 19//19 18//18
f 18//18 15//15 26//26
f 28//28 30//30 38//38
f 32//32 16//16 170//170
f 169//169 29//29 32//32
f 11//11 29//29 169//169
f 14//14 164//164 17//17
f 17//17 16//16 15//15
f 17//17 15//15 14//14
f 27//27 23//23 26//26
f 29//29 30//30 28//28
f 32//32 31//31 26//26
f 169//169 10//10 11//11
f 166//166 171//171 17//17
f 166//166 17//17 164//164
f 171//171 16//16 17//17
f 32//32 170//170 169//169
f 11//11 30//30 29//29
f 38//38 25//25 28//28
f 32//32 26//26 15//15
f 32//32 15//15 16//16
f 14//14 15//15 18//18
f 14//14 18//18 19//19
f 26//26 23//23 18//18
f 23//23 27//27 25//25
f 27//27 28//28 25//25
f 29//29 28//28 31//31
f 29//29 31//31 32//32
f 26//26 31//31 27//27
f 46//46 64//64 61//61
f 20//20 79//79 68//68
f 68//68 52//52 42//42
f 68//68 42//42 20//20
f 44//44 62//62 45//45
f 78//78 41//41 47//47
f 78//78 47//47 48//48
f 58//58 55//55 54//54
f 80//80 59//59 285//285
f 289//289 57//57 83//83
f 289//289 69//69 286//286
f 89//89 88//88 78//78
f 89//89 78//78 48//48
f 49//49 54//54 33//33
f 47//47 90//90 98//98
f 47//47 98//98 86//86
f 46//46 61//61 44//44
f 217//217 52//52 46//46
f 80//80 55//55 58//58
f 85//85 56//56 284//284
f 85//85 284//284 59//59
f 83//83 51//51 50//50
f 60//60 85//85 59//59
f 60//60 59//59 94//94
f 50//50 85//85 81//81
f 83//83 50//50 82//82
f 60//60 94//94 106//106
f 80//80 109//109 94//94
f 44//44 45//45 46//46
f 43//43 90//90 47//47
f 51//51 280//280 50//50
f 62//62 100//100 53//53
f 54//54 281//281 282//282
f 85//85 293//293 56//56
f 91//91 58//58 49//49
f 58//58 93//93 109//109
f 45//45 62//62 220//220
f 46//46 45//45 217//217
f 53//53 100//100 90//90
f 83//83 71//71 289//289
f 71//71 69//69 289//289
f 69//69 79//79 286//286
f 83//83 57//57 51//51
f 50//50 81//81 82//82
f 81//81 85//85 60//60
f 284//284 285//285 59//59
f 94//94 59//59 80//80
f 49//49 58//58 54//54
f 93//93 58//58 91//91
f 54//54 282//282 33//33
f 55//55 283//283 281//281
f 55//55 281//281 54//54
f 50//50 280//280 293//293
f 50//50 293//293 85//85
f 286//286 287//287 289//289
f 49//49 157//157 158//158
f 49//49 158//158 92//92
f 86//86 48//48 47//47
f 100//100 99//99 90//90
f 41//41 43//43 47//47
f 90//90 43//43 53//53
f 100//100 44//44 61//61
f 52//52 63//63 46//46
f 63//63 64//64 46//46
f 100//100 62//62 44//44
f 63//63 68//68 67//67
f 63//63 67//67 70//70
f 52//52 68//68 63//63
f 79//79 69//69 67//67
f 79//79 67//67 68//68
f 69//69 71//71 70//70
f 69//69 70//70 67//67
f 42//42 52//52 217//217
f 109//109 80//80 58//58
f 220//220 62//62 53//53
f 80//80 285//285 283//283
f 80//80 283//283 55//55
f 72//72 74//74 77//77
f 66//66 63//63 70//70
f 73//73 76//76 65//65
f 73//73 65//65 66//66
f 64//64 63//63 84//84
f 104//104 105//105 65//65
f 64//64 107//107 61//61
f 81//81 95//95 82//82
f 74//74 83//83 82//82
f 72//72 73//73 70//70
f 72//72 70//70 71//71
f 75//75 77//77 82//82
f 76//76 77//77 75//75
f 76//76 75//75 104//104
f 95//95 75//75 82//82
f 81//81 60//60 96//96
f 81//81 96//96 95//95
f 84//84 65//65 105//105
f 95//95 104//104 75//75
f 74//74 71//71 83//83
f 65//65 76//76 104//104
f 63//63 66//66 65//65
f 63//63 65//65 84//84
f 66//66 70//70 73//73
f 71//71 74//74 72//72
f 82//82 77//77 74//74
f 73//73 72//72 77//77
f 73//73 77//77 76//76
f 99//99 98//98 90//90
f 87//87 131//131 92//92
f 87//87 92//92 88//88
f 89//89 110//110 132//132
f 86//86 98//98 110//110
f 91//91 133//133 127//127
f 91//91 127//127 93//93
f 48//48 86//86 110//110
f 87//87 88//88 89//89
f 92//92 158//158 88//88
f 61//61 99//99 100//100
f 123//123 147//147 109//109
f 109//109 93//93 127//127
f 110//110 98//98 122//122
f 132//132 131//131 87//87
f 132//132 87//87 89//89
f 91//91 49//49 92//92
f 91//91 92//92 133//133
f 110//110 89//89 48//48
f 109//109 127//127 123//123
f 109//109 147//147 94//94
f 102//102 105//105 104//104
f 108//108 107//107 105//105
f 106//106 96//96 60//60
f 101//101 136//136 122//122
f 108//108 138//138 136//136
f 141//141 106//106 146//146
f 97//97 96//96 141//141
f 97//97 141//141 143//143
f 95//95 96//96 97//97
f 99//99 101//101 122//122
f 84//84 107//107 64//64
f 102//102 97//97 103//103
f 104//104 95//95 97//97
f 147//147 146//146 106//106
f 147//147 106//106 94//94
f 97//97 143//143 103//103
f 103//103 138//138 102//102
f 138//138 108//108 102//102
f 101//101 108//108 136//136
f 141//141 96//96 106//106
f 107//107 101//101 99//99
f 107//107 108//108 101//101
f 105//105 107//107 84//84
f 105//105 102//102 108//108
f 97//97 102//102 104//104
f 122//122 98//98 99//99
f 99//99 61//61 107//107
f 120//120 136//136 138//138
f 120//120 140//140 119//119
f 140//140 139//139 119//119
f 118//118 116//116 119//119
f 112//112 130//130 111//111
f 124//124 129//129 112//112
f 124//124 112//112 113//113
f 112//112 114//114 113//113
f 111//111 121//121 729//729
f 113//113 118//118 125//125
f 130//130 121//121 111//111
f 139//139 142//142 145//145
f 120//120 138//138 143//143
f 120//120 143//143 140//140
f 110//110 130//130 129//129
f 110//110 129//129 132//132
f 132//132 129//129 134//134
f 128//128 135//135 129//129
f 144//144 126//126 125//125
f 130//130 110//110 122//122
f 122//122 121//121 130//130
f 122//122 136//136 121//121
f 121//121 117//117 729//729
f 729//729 117//117 116//116
f 113//113 114//114 723//723
f 728//728 729//729 116//116
f 723//723 116//116 118//118
f 117//117 119//119 116//116
f 118//118 139//139 125//125
f 117//117 120//120 119//119
f 121//121 137//137 117//117
f 124//124 125//125 126//126
f 133//133 92//92 134//134
f 133//133 134//134 135//135
f 125//125 139//139 144//144
f 141//141 142//142 143//143
f 144//144 145//145 146//146
f 144//144 146//146 147//147
f 135//135 134//134 129//129
f 126//126 123//123 127//127
f 126//126 127//127 128//128
f 144//144 147//147 123//123
f 144//144 123//123 126//126
f 128//128 127//127 133//133
f 128//128 133//133 135//135
f 136//136 137//137 121//121
f 136//136 120//120 137//137
f 143//143 138//138 103//103
f 143//143 142//142 140//140
f 146//146 145//145 142//142
f 146//146 142//142 141//141
f 144//144 139//139 145//145
f 128//128 124//124 126//126
f 113//113 125//125 124//124
f 113//113 723//723 118//118
f 115//115 111//111 729//729
f 114//114 111//111 115//115
f 114//114 112//112 111//111
f 129//129 124//124 128//128
f 130//130 112//112 129//129
f 139//139 140//140 142//142
f 119//119 139//139 118//118
f 117//117 137//137 120//120
f 723//723 728//728 116//116
f 134//134 92//92 131//131
f 134//134 131//131 132//132
f 152//152 150//150 148//148
f 148//148 150//150 149//149
f 152//152 153//153 150//150
f 151//151 153//153 152//152
f 149//149 736//736 740//740
f 149//149 740//740 151//151
f 152//152 149//149 151//151
f 148//148 149//149 152//152
f 149//149 150//150 736//736
f 740//740 153//153 151//151
f 163//163 154//154 200//200
f 174//174 211//211 172//172
f 158//158 196//196 194//194
f 161//161 189//189 160//160
f 161//161 160//160 157//157
f 156//156 88//88 194//194
f 12//12 165//165 164//164
f 175//175 172//172 187//187
f 187//187 189//189 161//161
f 187//187 161//161 175//175
f 155//155 156//156 195//195
f 155//155 195//195 154//154
f 156//156 194//194 195//195
f 158//158 157//157 160//160
f 158//158 160//160 196//196
f 194//194 88//88 158//158
f 173//173 174//174 10//10
f 174//174 172//172 175//175
f 170//170 16//16 168//168
f 10//10 169//169 162//162
f 10//10 162//162 173//173
f 168//168 201//201 203//203
f 168//168 167//167 170//170
f 162//162 170//170 167//167
f 208//208 210//210 173//173
f 200//200 159//159 163//163
f 209//209 208//208 162//162
f 166//166 164//164 165//165
f 174//174 173//173 210//210
f 174//174 210//210 211//211
f 169//169 170//170 162//162
f 167//167 209//209 162//162
f 201//201 168//168 166//166
f 166//166 159//159 200//200
f 166//166 200//200 201//201
f 173//173 162//162 208//208
f 159//159 166//166 165//165
f 166//166 168//168 171//171
f 168//168 16//16 171//171
f 203//203 201//201 199//199
f 185//185 183//183 202//202
f 183//183 182//182 180//180
f 178//178 180//180 179//179
f 745//745 179//179 180//180
f 184//184 188//188 205//205
f 180//180 178//178 184//184
f 744//744 181//181 176//176
f 209//209 167//167 202//202
f 197//197 191//191 177//177
f 197//197 177//177 195//195
f 192//192 198//198 190//190
f 205//205 188//188 186//186
f 200//200 154//154 193//193
f 200//200 193//193 176//176
f 188//188 190//190 186//186
f 177//177 176//176 193//193
f 184//184 206//206 183//183
f 183//183 206//206 202//202
f 186//186 187//187 172//172
f 190//190 189//189 187//187
f 192//192 188//188 178//178
f 192//192 178//178 191//191
f 198//198 197//197 196//196
f 198//198 196//196 160//160
f 205//205 204//204 206//206
f 207//207 209//209 202//202
f 207//207 202//202 206//206
f 209//209 207//207 208//208
f 211//211 210//210 204//204
f 211//211 204//204 205//205
f 188//188 192//192 190//190
f 192//192 191//191 197//197
f 192//192 197//197 198//198
f 195//195 177//177 193//193
f 190//190 187//187 186//186
f 186//186 172//172 211//211
f 186//186 211//211 205//205
f 198//198 160//160 189//189
f 198//198 189//189 190//190
f 200//200 199//199 201//201
f 168//168 203//203 167//167
f 203//203 202//202 167//167
f 208//208 207//207 204//204
f 208//208 204//204 210//210
f 200//200 176//176 199//199
f 199//199 176//176 181//181
f 188//188 184//184 178//178
f 179//179 745//745 744//744
f 744//744 176//176 179//179
f 176//176 177//177 179//179
f 179//179 191//191 178//178
f 179//179 177//177 191//191
f 181//181 742//742 182//182
f 182//182 199//199 181//181
f 182//182 185//185 199//199
f 182//182 183//183 185//185
f 184//184 183//183 180//180
f 207//207 206//206 204//204
f 205//205 206//206 184//184
f 202//202 203//203 185//185
f 203//203 199//199 185//185
f 180//180 741//741 745//745
f 744//744 751//751 181//181
f 193//193 154//154 195//195
f 195//195 194//194 196//196
f 195//195 196//196 197//197
f 213//213 214//214 759//759
f 213//213 759//759 216//216
f 755//755 212//212 756//756
f 759//759 756//756 216//216
f 215//215 214//214 212//212
f 212//212 214//214 216//216
f 213//213 216//216 214//214
f 215//215 212//212 755//755
f 212//212 216//216 756//756
f 217//217 223//223 222//222
f 221//221 218//218 220//220
f 218//218 219//219 220//220
f 222//222 218//218 217//217
f 221//221 217//217 218//218
f 228//228 227//227 219//219
f 228//228 218//218 226//226
f 229//229 218//218 222//222
f 219//219 218//218 228//228
f 226//226 218//218 229//229
f 223//223 45//45 219//219
f 219//219 45//45 220//220
f 223//223 217//217 45//45
f 232//232 222//222 233//233
f 231//231 222//222 223//223
f 223//223 219//219 227//227
f 232//232 229//229 222//222
f 229//229 761//761 226//226
f 763//763 226//226 761//761
f 226//226 224//224 228//228
f 224//224 226//226 763//763
f 761//761 229//229 232//232
f 761//761 232//232 762//762
f 225//225 224//224 760//760
f 227//227 224//224 225//225
f 233//233 768//768 232//232
f 231//231 767//767 233//233
f 227//227 225//225 764//764
f 767//767 231//231 230//230
f 767//767 230//230 764//764
f 768//768 233//233 767//767
f 764//764 230//230 227//227
f 231//231 233//233 222//222
f 223//223 230//230 231//231
f 227//227 230//230 223//223
f 228//228 224//224 227//227
f 244//244 241//241 239//239
f 774//774 245//245 235//235
f 238//238 236//236 772//772
f 238//238 237//237 234//234
f 235//235 237//237 774//774
f 236//236 240//240 772//772
f 234//234 237//237 235//235
f 242//242 236//236 234//234
f 236//236 242//242 240//240
f 236//236 238//238 234//234
f 240//240 776//776 775//775
f 239//239 245//245 244//244
f 234//234 235//235 239//239
f 235//235 245//245 239//239
f 244//244 779//779 781//781
f 244//244 781//781 241//241
f 242//242 239//239 241//241
f 244//244 243//243 779//779
f 242//242 241//241 240//240
f 240//240 781//781 776//776
f 241//241 781//781 240//240
f 245//245 243//243 244//244
f 234//234 239//239 242//242
f 285//285 296//296 283//283
f 256//256 253//253 252//252
f 268//268 333//333 273//273
f 268//268 273//273 266//266
f 266//266 332//332 271//271
f 266//266 271//271 263//263
f 265//265 272//272 329//329
f 265//265 329//329 260//260
f 254//254 251//251 257//257
f 247//247 39//39 261//261
f 247//247 261//261 246//246
f 261//261 5//5 250//250
f 249//249 248//248 270//270
f 249//249 270//270 267//267
f 270//270 248//248 276//276
f 246//246 257//257 251//251
f 246//246 251//251 247//247
f 259//259 262//262 309//309
f 246//246 262//262 259//259
f 256//256 255//255 254//254
f 257//257 259//259 258//258
f 262//262 261//261 260//260
f 265//265 250//250 264//264
f 265//265 264//264 263//263
f 266//266 264//264 267//267
f 327//327 256//256 254//254
f 270//270 269//269 268//268
f 309//309 328//328 258//258
f 309//309 258//258 259//259
f 457//457 272//272 271//271
f 457//457 271//271 331//331
f 333//333 269//269 340//340
f 246//246 259//259 257//257
f 267//267 264//264 274//274
f 267//267 274//274 249//249
f 261//261 39//39 5//5
f 261//261 262//262 246//246
f 262//262 260//260 329//329
f 250//250 265//265 260//260
f 250//250 260//260 261//261
f 265//265 263//263 271//271
f 265//265 271//271 272//272
f 264//264 266//266 263//263
f 266//266 273//273 332//332
f 270//270 268//268 266//266
f 270//270 266//266 267//267
f 276//276 307//307 269//269
f 276//276 269//269 270//270
f 268//268 269//269 333//333
f 329//329 309//309 262//262
f 272//272 457//457 329//329
f 332//332 331//331 271//271
f 307//307 340//340 269//269
f 252//252 277//277 275//275
f 277//277 252//252 253//253
f 253//253 256//256 327//327
f 255//255 256//256 252//252
f 327//327 254//254 258//258
f 327//327 258//258 328//328
f 257//257 258//258 254//254
f 276//276 248//248 282//282
f 264//264 250//250 274//274
f 287//287 288//288 298//298
f 287//287 298//298 289//289
f 308//308 288//288 287//287
f 307//307 300//300 365//365
f 297//297 305//305 306//306
f 297//297 306//306 299//299
f 303//303 305//305 297//297
f 291//291 360//360 304//304
f 287//287 286//286 275//275
f 290//290 57//57 298//298
f 295//295 284//284 56//56
f 295//295 56//56 292//292
f 296//296 281//281 283//283
f 302//302 279//279 280//280
f 302//302 280//280 290//290
f 291//291 292//292 293//293
f 291//291 293//293 279//279
f 303//303 294//294 295//295
f 303//303 295//295 304//304
f 358//358 298//298 356//356
f 299//299 300//300 301//301
f 299//299 301//301 281//281
f 359//359 302//302 358//358
f 363//363 303//303 304//304
f 363//363 304//304 362//362
f 305//305 363//363 364//364
f 366//366 365//365 306//306
f 282//282 281//281 301//301
f 56//56 293//293 292//292
f 290//290 280//280 51//51
f 51//51 57//57 290//290
f 57//57 289//289 298//298
f 280//280 279//279 293//293
f 359//359 278//278 279//279
f 359//359 279//279 302//302
f 278//278 360//360 291//291
f 278//278 291//291 279//279
f 292//292 291//291 304//304
f 292//292 304//304 295//295
f 294//294 303//303 297//297
f 294//294 297//297 296//296
f 366//366 306//306 305//305
f 366//366 305//305 364//364
f 296//296 297//297 299//299
f 296//296 299//299 281//281
f 301//301 300//300 307//307
f 306//306 365//365 300//300
f 306//306 300//300 299//299
f 360//360 362//362 304//304
f 303//303 363//363 305//305
f 365//365 367//367 307//307
f 288//288 308//308 312//312
f 275//275 308//308 287//287
f 356//356 298//298 288//288
f 356//356 288//288 355//355
f 358//358 302//302 298//298
f 298//298 302//302 290//290
f 312//312 308//308 334//334
f 334//334 308//308 277//277
f 276//276 301//301 307//307
f 282//282 301//301 276//276
f 277//277 308//308 275//275
f 285//285 284//284 295//295
f 285//285 295//295 294//294
f 294//294 296//296 285//285
f 463//463 318//318 322//322
f 318//318 321//321 322//322
f 448//448 316//316 330//330
f 352//352 312//312 517//517
f 341//341 393//393 371//371
f 312//312 334//334 326//326
f 517//517 326//326 324//324
f 517//517 312//312 326//326
f 506//506 514//514 320//320
f 334//334 277//277 314//314
f 314//314 253//253 327//327
f 314//314 327//327 325//325
f 333//333 440//440 458//458
f 332//332 443//443 456//456
f 332//332 456//456 331//331
f 335//335 447//447 313//313
f 457//457 330//330 329//329
f 309//309 329//329 330//330
f 368//368 461//461 310//310
f 311//311 450//450 461//461
f 319//319 311//311 337//337
f 310//310 339//339 368//368
f 512//512 510//510 317//317
f 311//311 461//461 337//337
f 440//440 340//340 313//313
f 326//326 314//314 325//325
f 325//325 324//324 326//326
f 440//440 313//313 453//453
f 313//313 447//447 453//453
f 454//454 339//339 310//310
f 450//450 311//311 319//319
f 337//337 320//320 319//319
f 338//338 309//309 330//330
f 457//457 452//452 330//330
f 461//461 441//441 310//310
f 441//441 454//454 310//310
f 457//457 331//331 456//456
f 443//443 332//332 273//273
f 273//273 333//333 458//458
f 273//273 458//458 443//443
f 333//333 340//340 440//440
f 336//336 454//454 447//447
f 336//336 447//447 335//335
f 338//338 328//328 309//309
f 328//328 323//323 327//327
f 323//323 325//325 327//327
f 314//314 277//277 253//253
f 314//314 326//326 334//334
f 325//325 323//323 510//510
f 317//317 323//323 315//315
f 506//506 320//320 337//337
f 514//514 513//513 321//321
f 514//514 321//321 320//320
f 513//513 512//512 321//321
f 321//321 512//512 322//322
f 317//317 510//510 323//323
f 510//510 324//324 325//325
f 336//336 339//339 454//454
f 335//335 313//313 367//367
f 367//367 313//313 340//340
f 322//322 512//512 317//317
f 461//461 368//368 337//337
f 338//338 323//323 328//328
f 316//316 463//463 315//315
f 330//330 316//316 338//338
f 338//338 315//315 323//323
f 315//315 322//322 317//317
f 319//319 320//320 321//321
f 319//319 321//321 462//462
f 463//463 316//316 449//449
f 316//316 315//315 338//338
f 463//463 322//322 315//315
f 330//330 452//452 448//448
f 319//319 462//462 450//450
f 318//318 462//462 321//321
f 448//448 449//449 316//316
f 517//517 520//520 352//352
f 347//347 351//351 350//350
f 523//523 348//348 350//350
f 344//344 521//521 351//351
f 355//355 288//288 312//312
f 356//356 355//355 344//344
f 391//391 374//374 366//366
f 360//360 361//361 362//362
f 361//361 360//360 278//278
f 366//366 364//364 387//387
f 368//368 369//369 370//370
f 351//351 522//522 350//350
f 354//354 343//343 336//336
f 377//377 367//367 374//374
f 351//351 357//357 356//356
f 339//339 343//343 369//369
f 370//370 342//342 518//518
f 335//335 378//378 353//353
f 342//342 370//370 369//369
f 357//357 361//361 278//278
f 357//357 278//278 359//359
f 361//361 395//395 362//362
f 367//367 377//377 335//335
f 378//378 335//335 377//377
f 353//353 354//354 336//336
f 353//353 336//336 335//335
f 343//343 354//354 386//386
f 362//362 388//388 363//363
f 364//364 363//363 388//388
f 364//364 388//388 387//387
f 387//387 391//391 366//366
f 374//374 367//367 365//365
f 374//374 365//365 366//366
f 359//359 358//358 357//357
f 358//358 356//356 357//357
f 312//312 352//352 355//355
f 352//352 521//521 344//344
f 352//352 344//344 355//355
f 344//344 351//351 356//356
f 357//357 351//351 346//346
f 518//518 348//348 523//523
f 347//347 350//350 348//348
f 351//351 347//347 346//346
f 521//521 352//352 520//520
f 336//336 343//343 339//339
f 307//307 367//367 340//340
f 339//339 369//369 368//368
f 351//351 521//521 522//522
f 386//386 342//342 343//343
f 342//342 369//369 343//343
f 349//349 518//518 342//342
f 348//348 396//396 347//347
f 346//346 347//347 345//345
f 361//361 357//357 341//341
f 361//361 341//341 371//371
f 341//341 345//345 393//393
f 341//341 357//357 346//346
f 393//393 345//345 396//396
f 346//346 345//345 341//341
f 347//347 396//396 345//345
f 348//348 518//518 349//349
f 361//361 373//373 395//395
f 349//349 396//396 348//348
f 342//342 375//375 349//349
f 391//391 394//394 392//392
f 408//408 378//378 377//377
f 383//383 408//408 377//377
f 386//386 384//384 375//375
f 386//386 375//375 342//342
f 349//349 375//375 376//376
f 391//391 387//387 394//394
f 354//354 385//385 386//386
f 395//395 388//388 362//362
f 387//387 388//388 389//389
f 394//394 387//387 389//389
f 376//376 375//375 384//384
f 374//374 390//390 383//383
f 374//374 383//383 377//377
f 386//386 385//385 384//384
f 354//354 353//353 385//385
f 389//389 388//388 395//395
f 374//374 391//391 390//390
f 378//378 407//407 353//353
f 382//382 380//380 381//381
f 376//376 413//413 379//379
f 394//394 389//389 380//380
f 394//394 380//380 392//392
f 372//372 371//371 393//393
f 380//380 389//389 395//395
f 380//380 395//395 381//381
f 373//373 381//381 395//395
f 410//410 411//411 392//392
f 393//393 396//396 376//376
f 393//393 376//376 379//379
f 372//372 379//379 382//382
f 383//383 392//392 411//411
f 372//372 373//373 371//371
f 373//373 361//361 371//371
f 380//380 410//410 392//392
f 373//373 372//372 381//381
f 393//393 379//379 372//372
f 372//372 382//382 381//381
f 413//413 414//414 379//379
f 392//392 383//383 390//390
f 408//408 383//383 411//411
f 407//407 378//378 408//408
f 376//376 396//396 349//349
f 410//410 380//380 409//409
f 391//391 392//392 390//390
f 376//376 384//384 413//413
f 379//379 414//414 382//382
f 409//409 380//380 382//382
f 412//412 385//385 353//353
f 414//414 413//413 403//403
f 414//414 403//403 404//404
f 416//416 417//417 404//404
f 402//402 404//404 417//417
f 416//416 418//418 417//417
f 407//407 399//399 406//406
f 406//406 401//401 400//400
f 401//401 399//399 398//398
f 420//420 423//423 401//401
f 401//401 423//423 424//424
f 401//401 424//424 400//400
f 420//420 397//397 419//419
f 400//400 403//403 412//412
f 424//424 418//418 416//416
f 405//405 398//398 411//411
f 419//419 418//418 430//430
f 402//402 419//419 397//397
f 398//398 399//399 408//408
f 402//402 397//397 405//405
f 402//402 405//405 415//415
f 412//412 413//413 384//384
f 410//410 409//409 415//415
f 410//410 415//415 405//405
f 405//405 411//411 410//410
f 382//382 414//414 415//415
f 382//382 415//415 409//409
f 384//384 385//385 412//412
f 398//398 408//408 411//411
f 416//416 403//403 400//400
f 419//419 429//429 420//420
f 416//416 400//400 424//424
f 353//353 406//406 412//412
f 400//400 412//412 406//406
f 405//405 397//397 398//398
f 397//397 420//420 398//398
f 401//401 398//398 420//420
f 406//406 399//399 401//401
f 353//353 407//407 406//406
f 408//408 399//399 407//407
f 418//418 419//419 417//417
f 419//419 402//402 417//417
f 412//412 403//403 413//413
f 404//404 403//403 416//416
f 414//414 404//404 402//402
f 414//414 402//402 415//415
f 424//424 426//426 425//425
f 425//425 418//418 424//424
f 424//424 423//423 426//426
f 425//425 430//430 418//418
f 429//429 431//431 427//427
f 427//427 432//432 433//433
f 427//427 433//433 426//426
f 428//428 431//431 432//432
f 432//432 427//427 421//421
f 432//432 421//421 422//422
f 430//430 433//433 419//419
f 421//421 427//427 431//431
f 427//427 420//420 429//429
f 423//423 420//420 426//426
f 426//426 420//420 427//427
f 422//422 428//428 432//432
f 429//429 432//432 431//431
f 433//433 432//432 429//429
f 433//433 430//430 425//425
f 433//433 425//425 426//426
f 429//429 419//419 433//433
f 435//435 434//434 437//437
f 436//436 438//438 784//784
f 434//434 435//435 784//784
f 783//783 435//435 437//437
f 437//437 434//434 438//438
f 437//437 436//436 783//783
f 438//438 436//436 437//437
f 434//434 784//784 438//438
f 784//784 435//435 783//783
f 450//450 442//442 461//461
f 444//444 458//458 453//453
f 439//439 449//449 448//448
f 460//460 442//442 450//450
f 462//462 318//318 463//463
f 447//447 454//454 455//455
f 442//442 455//455 441//441
f 461//461 442//442 441//441
f 441//441 455//455 454//454
f 452//452 457//457 456//456
f 452//452 456//456 443//443
f 453//453 458//458 440//440
f 453//453 447//447 446//446
f 455//455 445//445 447//447
f 477//477 455//455 442//442
f 439//439 451//451 479//479
f 459//459 462//462 463//463
f 459//459 463//463 449//449
f 444//444 451//451 458//458
f 446//446 444//444 453//453
f 452//452 443//443 451//451
f 449//449 460//460 459//459
f 444//444 472//472 471//471
f 477//477 445//445 455//455
f 445//445 475//475 447//447
f 444//444 471//471 451//451
f 449//449 439//439 479//479
f 479//479 460//460 449//449
f 459//459 460//460 450//450
f 459//459 450//450 462//462
f 446//446 472//472 444//444
f 439//439 448//448 452//452
f 439//439 452//452 451//451
f 475//475 446//446 447//447
f 476//476 451//451 471//471
f 443//443 458//458 451//451
f 479//479 451//451 476//476
f 478//478 442//442 460//460
f 477//477 478//478 467//467
f 480//480 470//470 467//467
f 470//470 483//483 467//467
f 464//464 466//466 465//465
f 464//464 465//465 445//445
f 466//466 474//474 465//465
f 466//466 489//489 498//498
f 482//482 489//489 466//466
f 474//474 498//498 473//473
f 464//464 477//477 467//467
f 475//475 472//472 446//446
f 477//477 442//442 478//478
f 487//487 482//482 483//483
f 496//496 468//468 498//498
f 470//470 480//480 469//469
f 470//470 469//469 468//468
f 473//473 468//468 481//481
f 471//471 474//474 473//473
f 460//460 479//479 480//480
f 460//460 480//480 478//478
f 481//481 471//471 473//473
f 471//471 481//481 476//476
f 479//479 469//469 480//480
f 471//471 472//472 474//474
f 476//476 481//481 469//469
f 476//476 469//469 479//479
f 489//489 482//482 487//487
f 467//467 482//482 464//464
f 464//464 445//445 477//477
f 474//474 466//466 498//498
f 466//466 464//464 482//482
f 475//475 445//445 465//465
f 475//475 465//465 474//474
f 475//475 474//474 472//472
f 482//482 467//467 483//483
f 470//470 468//468 496//496
f 470//470 496//496 483//483
f 498//498 468//468 473//473
f 467//467 478//478 480//480
f 468//468 469//469 481//481
f 484//484 785//785 485//485
f 483//483 496//496 495//495
f 488//488 489//489 487//487
f 487//487 495//495 488//488
f 487//487 483//483 495//495
f 494//494 496//496 486//486
f 491//491 494//494 493//493
f 493//493 492//492 491//491
f 491//491 497//497 490//490
f 484//484 497//497 785//785
f 486//486 484//484 485//485
f 490//490 494//494 491//491
f 497//497 484//484 498//498
f 488//488 490//490 489//489
f 786//786 497//497 491//491
f 495//495 494//494 490//490
f 495//495 490//490 488//488
f 498//498 486//486 496//496
f 786//786 491//491 492//492
f 484//484 486//486 498//498
f 786//786 785//785 497//497
f 497//497 498//498 490//490
f 498//498 489//489 490//490
f 485//485 493//493 486//486
f 494//494 486//486 493//493
f 496//496 494//494 495//495
f 787//787 499//499 790//790
f 791//791 789//789 500//500
f 499//499 787//787 791//791
f 499//499 791//791 500//500
f 790//790 499//499 501//501
f 789//789 501//501 500//500
f 501//501 789//789 788//788
f 500//500 501//501 499//499
f 502//502 508//508 503//503
f 528//528 505//505 549//549
f 528//528 516//516 505//505
f 528//528 503//503 516//516
f 503//503 528//528 536//536
f 503//503 536//536 502//502
f 505//505 525//525 519//519
f 504//504 548//548 505//505
f 504//504 505//505 519//519
f 548//548 504//504 524//524
f 525//525 505//505 516//516
f 502//502 509//509 514//514
f 502//502 514//514 506//506
f 513//513 507//507 512//512
f 512//512 507//507 537//537
f 510//510 511//511 532//532
f 511//511 510//510 512//512
f 508//508 337//337 515//515
f 511//511 512//512 537//537
f 513//513 509//509 507//507
f 513//513 514//514 509//509
f 508//508 502//502 506//506
f 515//515 368//368 516//516
f 508//508 506//506 337//337
f 532//532 324//324 510//510
f 527//527 324//324 532//532
f 368//368 515//515 337//337
f 509//509 536//536 507//507
f 509//509 502//502 536//536
f 508//508 515//515 503//503
f 515//515 516//516 503//503
f 517//517 527//527 545//545
f 527//527 517//517 324//324
f 525//525 516//516 368//368
f 519//519 523//523 504//504
f 350//350 524//524 504//504
f 370//370 518//518 519//519
f 524//524 350//350 522//522
f 525//525 370//370 519//519
f 368//368 370//370 525//525
f 519//519 518//518 523//523
f 504//504 523//523 350//350
f 545//545 520//520 517//517
f 546//546 545//545 526//526
f 537//537 531//531 511//511
f 545//545 527//527 526//526
f 546//546 526//526 572//572
f 575//575 551//551 531//531
f 531//531 551//551 532//532
f 551//551 550//550 532//532
f 531//531 552//552 575//575
f 531//531 529//529 552//552
f 535//535 538//538 534//534
f 534//534 541//541 530//530
f 530//530 576//576 534//534
f 533//533 550//550 574//574
f 535//535 534//534 576//576
f 572//572 526//526 533//533
f 572//572 533//533 573//573
f 541//541 538//538 536//536
f 507//507 538//538 537//537
f 536//536 528//528 541//541
f 536//536 538//538 507//507
f 526//526 532//532 550//550
f 526//526 550//550 533//533
f 511//511 531//531 532//532
f 531//531 537//537 529//529
f 537//537 535//535 529//529
f 537//537 538//538 535//535
f 534//534 538//538 541//541
f 526//526 527//527 532//532
f 548//548 542//542 600//600
f 544//544 549//549 547//547
f 603//603 596//596 546//546
f 539//539 578//578 579//579
f 540//540 543//543 578//578
f 544//544 547//547 548//548
f 549//549 530//530 541//541
f 542//542 605//605 600//600
f 549//549 544//544 530//530
f 546//546 540//540 545//545
f 601//601 530//530 544//544
f 543//543 540//540 546//546
f 543//543 546//546 596//596
f 520//520 540//540 539//539
f 549//549 505//505 547//547
f 541//541 528//528 549//549
f 539//539 524//524 522//522
f 505//505 548//548 547//547
f 542//542 524//524 539//539
f 539//539 540//540 578//578
f 524//524 542//542 548//548
f 542//542 539//539 579//579
f 545//545 540//540 520//520
f 521//521 539//539 522//522
f 521//521 520//520 539//539
f 610//610 606//606 564//564
f 529//529 535//535 570//570
f 584//584 593//593 592//592
f 683//683 583//583 682//682
f 595//595 615//615 614//614
f 600//600 544//544 548//548
f 555//555 554//554 564//564
f 646//646 553//553 647//647
f 645//645 554//554 557//557
f 554//554 645//645 647//647
f 557//557 554//554 555//555
f 556//556 648//648 656//656
f 556//556 656//656 641//641
f 609//609 564//564 554//554
f 647//647 609//609 554//554
f 553//553 612//612 609//609
f 553//553 609//609 647//647
f 610//610 564//564 609//609
f 556//556 561//561 551//551
f 641//641 561//561 556//556
f 561//561 641//641 562//562
f 641//641 645//645 562//562
f 562//562 645//645 557//557
f 557//557 555//555 563//563
f 558//558 561//561 562//562
f 557//557 558//558 562//562
f 552//552 648//648 575//575
f 570//570 648//648 552//552
f 648//648 556//556 575//575
f 556//556 551//551 575//575
f 573//573 557//557 563//563
f 573//573 563//563 572//572
f 558//558 557//557 573//573
f 606//606 555//555 564//564
f 546//546 572//572 603//603
f 533//533 574//574 558//558
f 550//550 551//551 574//574
f 552//552 529//529 570//570
f 574//574 561//561 558//558
f 574//574 551//551 561//561
f 555//555 606//606 599//599
f 606//606 610//610 615//615
f 555//555 599//599 563//563
f 603//603 563//563 599//599
f 603//603 572//572 563//563
f 558//558 573//573 533//533
f 566//566 559//559 642//642
f 567//567 566//566 560//560
f 570//570 565//565 639//639
f 570//570 639//639 648//648
f 565//565 560//560 639//639
f 559//559 571//571 642//642
f 560//560 565//565 567//567
f 567//567 565//565 535//535
f 642//642 571//571 553//553
f 565//565 570//570 535//535
f 576//576 568//568 567//567
f 577//577 568//568 569//569
f 576//576 530//530 601//601
f 612//612 553//553 571//571
f 608//608 569//569 568//568
f 577//577 566//566 567//567
f 577//577 567//567 568//568
f 612//612 571//571 607//607
f 607//607 571//571 559//559
f 559//559 577//577 569//569
f 559//559 566//566 577//577
f 612//612 607//607 629//629
f 607//607 559//559 569//569
f 567//567 535//535 576//576
f 568//568 576//576 601//601
f 582//582 581//581 583//583
f 580//580 586//586 685//685
f 586//586 624//624 685//685
f 583//583 585//585 582//582
f 595//595 581//581 582//582
f 581//581 580//580 583//583
f 592//592 683//683 687//687
f 580//580 581//581 586//586
f 586//586 623//623 624//624
f 586//586 581//581 614//614
f 687//687 604//604 592//592
f 592//592 604//604 584//584
f 585//585 593//593 584//584
f 583//583 683//683 593//593
f 583//583 593//593 585//585
f 594//594 582//582 584//584
f 584//584 582//582 585//585
f 594//594 595//595 582//582
f 687//687 684//684 605//605
f 605//605 684//684 598//598
f 596//596 594//594 584//584
f 682//682 583//583 580//580
f 595//595 614//614 581//581
f 604//604 579//579 578//578
f 596//596 584//584 543//543
f 584//584 578//578 543//543
f 584//584 604//604 578//578
f 687//687 579//579 604//604
f 687//687 605//605 579//579
f 596//596 603//603 594//594
f 599//599 606//606 615//615
f 594//594 599//599 615//615
f 594//594 615//615 595//595
f 594//594 603//603 599//599
f 542//542 579//579 605//605
f 597//597 591//591 590//590
f 686//686 602//602 589//589
f 590//590 591//591 686//686
f 699//699 686//686 591//591
f 686//686 589//589 590//590
f 680//680 587//587 602//602
f 602//602 587//587 613//613
f 624//624 613//613 587//587
f 699//699 591//591 588//588
f 600//600 598//598 588//588
f 679//679 598//598 684//684
f 686//686 680//680 602//602
f 588//588 591//591 597//597
f 598//598 679//679 588//588
f 685//685 624//624 587//587
f 597//597 608//608 568//568
f 607//607 613//613 629//629
f 569//569 602//602 613//613
f 588//588 544//544 600//600
f 598//598 600//600 605//605
f 597//597 568//568 601//601
f 608//608 597//597 590//590
f 569//569 613//613 607//607
f 608//608 590//590 589//589
f 608//608 589//589 602//602
f 569//569 608//608 602//602
f 597//597 544//544 588//588
f 601//601 544//544 597//597
f 609//609 611//611 610//610
f 612//612 630//630 611//611
f 614//614 615//615 610//610
f 609//609 612//612 611//611
f 612//612 629//629 630//630
f 614//614 623//623 586//586
f 624//624 626//626 613//613
f 613//613 626//626 629//629
f 610//610 623//623 614//614
f 637//637 618//618 617//617
f 630//630 633//633 631//631
f 626//626 623//623 625//625
f 632//632 617//617 618//618
f 618//618 625//625 619//619
f 619//619 625//625 620//620
f 621//621 619//619 620//620
f 622//622 621//621 620//620
f 619//619 621//621 632//632
f 627//627 637//637 629//629
f 626//626 627//627 629//629
f 625//625 618//618 626//626
f 636//636 623//623 610//610
f 625//625 623//623 636//636
f 620//620 625//625 636//636
f 623//623 626//626 624//624
f 626//626 618//618 627//627
f 619//619 632//632 618//618
f 618//618 637//637 627//627
f 628//628 617//617 616//616
f 617//617 628//628 616//616
f 633//633 638//638 635//635
f 634//634 631//631 633//633
f 634//634 633//633 622//622
f 622//622 633//633 635//635
f 620//620 634//634 622//622
f 622//622 635//635 621//621
f 632//632 621//621 635//635
f 637//637 630//630 629//629
f 611//611 630//630 631//631
f 636//636 611//611 631//631
f 636//636 631//631 634//634
f 636//636 610//610 611//611
f 636//636 634//634 620//620
f 632//632 638//638 617//617
f 635//635 638//638 632//632
f 638//638 633//633 630//630
f 637//637 638//638 630//630
f 637//637 617//617 638//638
f 560//560 566//566 642//642
f 560//560 642//642 640//640
f 655//655 644//644 643//643
f 645//645 643//643 647//647
f 645//645 656//656 643//643
f 644//644 647//647 643//643
f 642//642 646//646 640//640
f 646//646 642//642 553//553
f 655//655 643//643 656//656
f 640//640 646//646 644//644
f 644//644 646//646 647//647
f 639//639 560//560 640//640
f 641//641 656//656 645//645
f 653//653 655//655 650//650
f 639//639 640//640 658//658
f 655//655 649//649 650//650
f 650//650 649//649 664//664
f 658//658 653//653 650//650
f 654//654 658//658 650//650
f 657//657 662//662 652//652
f 649//649 661//661 664//664
f 662//662 657//657 654//654
f 661//661 649//649 651//651
f 658//658 654//654 659//659
f 651//651 649//649 655//655
f 652//652 661//661 651//651
f 655//655 640//640 644//644
f 657//657 648//648 654//654
f 655//655 653//653 640//640
f 658//658 659//659 639//639
f 653//653 658//658 640//640
f 659//659 654//654 648//648
f 659//659 648//648 639//639
f 651//651 655//655 656//656
f 656//656 648//648 657//657
f 656//656 657//657 652//652
f 652//652 651//651 656//656
f 664//664 661//661 660//660
f 669//669 666//666 650//650
f 660//660 662//662 663//663
f 661//661 662//662 660//660
f 654//654 650//650 666//666
f 654//654 666//666 668//668
f 665//665 673//673 674//674
f 675//675 673//673 670//670
f 669//669 667//667 674//674
f 669//669 672//672 666//666
f 665//665 667//667 664//664
f 668//668 666//666 672//672
f 668//668 672//672 675//675
f 664//664 667//667 669//669
f 664//664 669//669 650//650
f 665//665 664//664 660//660
f 667//667 665//665 674//674
f 662//662 654//654 670//670
f 670//670 654//654 668//668
f 670//670 668//668 675//675
f 663//663 662//662 670//670
f 670//670 673//673 671//671
f 671//671 663//663 670//670
f 661//661 652//652 662//662
f 660//660 663//663 671//671
f 665//665 660//660 671//671
f 671//671 673//673 665//665
f 676//676 678//678 675//675
f 677//677 678//678 673//673
f 677//677 673//673 675//675
f 674//674 678//678 672//672
f 678//678 677//677 675//675
f 675//675 672//672 676//676
f 673//673 678//678 674//674
f 669//669 674//674 672//672
f 678//678 676//676 672//672
f 699//699 588//588 679//679
f 683//683 684//684 687//687
f 684//684 697//697 679//679
f 587//587 680//680 685//685
f 685//685 680//680 696//696
f 681//681 682//682 685//685
f 682//682 681//681 683//683
f 698//698 683//683 681//681
f 593//593 683//683 592//592
f 699//699 680//680 686//686
f 681//681 685//685 696//696
f 695//695 696//696 680//680
f 695//695 680//680 699//699
f 681//681 693//693 698//698
f 693//693 681//681 696//696
f 683//683 698//698 684//684
f 685//685 682//682 580//580
f 700//700 694//694 701//701
f 689//689 695//695 691//691
f 689//689 696//696 695//695
f 697//697 690//690 699//699
f 692//692 700//700 702//702
f 700//700 692//692 693//693
f 705//705 706//706 689//689
f 702//702 704//704 688//688
f 702//702 688//688 692//692
f 694//694 706//706 701//701
f 705//705 689//689 691//691
f 690//690 705//705 691//691
f 706//706 694//694 689//689
f 694//694 700//700 693//693
f 705//705 697//697 688//688
f 705//705 688//688 704//704
f 697//697 699//699 679//679
f 692//692 688//688 698//698
f 695//695 699//699 691//691
f 699//699 690//690 691//691
f 690//690 697//697 705//705
f 693//693 696//696 694//694
f 696//696 689//689 694//694
f 684//684 698//698 697//697
f 698//698 688//688 697//697
f 698//698 693//693 692//692
f 717//717 711//711 715//715
f 701//701 702//702 700//700
f 701//701 703//703 702//702
f 701//701 706//706 709//709
f 708//708 707//707 709//709
f 708//708 710//710 711//711
f 715//715 711//711 712//712
f 712//712 704//704 713//713
f 709//709 706//706 710//710
f 708//708 709//709 710//710
f 710//710 706//706 705//705
f 704//704 712//712 705//705
f 712//712 710//710 705//705
f 712//712 711//711 710//710
f 714//714 701//701 709//709
f 709//709 707//707 714//714
f 713//713 715//715 712//712
f 703//703 713//713 704//704
f 716//716 713//713 703//703
f 716//716 715//715 713//713
f 702//702 703//703 704//704
f 714//714 716//716 703//703
f 707//707 716//716 714//714
f 714//714 703//703 701//701
f 715//715 716//716 707//707
f 707//707 708//708 719//719
f 717//717 715//715 707//707
f 717//717 707//707 720//720
f 720//720 719//719 717//717
f 719//719 718//718 717//717
f 718//718 719//719 708//708
f 718//718 711//711 717//717
f 719//719 720//720 707//707
f 718//718 708//708 711//711
f 738//738 730//730 727//727
f 727//727 735//735 738//738
f 730//730 738//738 736//736
f 729//729 728//728 722//722
f 735//735 727//727 733//733
f 721//721 114//114 115//115
f 721//721 115//115 725//725
f 731//731 724//724 721//721
f 734//734 731//731 736//736
f 727//727 728//728 733//733
f 736//736 731//731 730//730
f 732//732 731//731 734//734
f 726//726 730//730 725//725
f 722//722 727//727 730//730
f 723//723 724//724 732//732
f 733//733 728//728 723//723
f 732//732 734//734 735//735
f 115//115 729//729 726//726
f 115//115 726//726 725//725
f 733//733 732//732 735//735
f 732//732 724//724 731//731
f 730//730 731//731 725//725
f 731//731 721//721 725//725
f 723//723 114//114 724//724
f 114//114 721//721 724//724
f 732//732 733//733 723//723
f 730//730 726//726 722//722
f 722//722 728//728 727//727
f 729//729 722//722 726//726
f 153//153 738//738 739//739
f 739//739 735//735 734//734
f 738//738 735//735 739//739
f 736//736 150//150 737//737
f 150//150 153//153 739//739
f 153//153 740//740 738//738
f 739//739 737//737 150//150
f 734//734 737//737 739//739
f 734//734 736//736 737//737
f 738//738 740//740 736//736
f 742//742 751//751 750//750
f 749//749 741//741 750//750
f 750//750 748//748 749//749
f 749//749 752//752 741//741
f 746//746 745//745 747//747
f 752//752 745//745 741//741
f 746//746 747//747 748//748
f 758//758 748//748 747//747
f 752//752 747//747 745//745
f 180//180 182//182 742//742
f 180//180 742//742 741//741
f 752//752 743//743 754//754
f 748//748 751//751 746//746
f 743//743 752//752 749//749
f 754//754 747//747 752//752
f 751//751 744//744 746//746
f 746//746 744//744 745//745
f 743//743 749//749 748//748
f 743//743 748//748 757//757
f 757//757 748//748 758//758
f 741//741 742//742 750//750
f 748//748 750//750 751//751
f 751//751 742//742 181//181
f 759//759 214//214 753//753
f 755//755 753//753 215//215
f 756//756 757//757 755//755
f 756//756 759//759 754//754
f 758//758 753//753 755//755
f 753//753 747//747 754//754
f 214//214 215//215 753//753
f 754//754 757//757 756//756
f 759//759 753//753 754//754
f 758//758 747//747 753//753
f 743//743 757//757 754//754
f 757//757 758//758 755//755
f 763//763 773//773 770//770
f 766//766 769//769 780//780
f 761//761 771//771 773//773
f 224//224 770//770 769//769
f 224//224 769//769 760//760
f 760//760 769//769 766//766
f 760//760 766//766 225//225
f 763//763 770//770 224//224
f 762//762 771//771 761//761
f 763//763 761//761 773//773
f 762//762 232//232 768//768
f 768//768 243//243 762//762
f 767//767 778//778 768//768
f 765//765 778//778 767//767
f 780//780 777//777 766//766
f 764//764 777//777 765//765
f 766//766 777//777 764//764
f 764//764 765//765 767//767
f 766//766 764//764 225//225
f 770//770 775//775 769//769
f 762//762 774//774 771//771
f 775//775 780//780 769//769
f 770//770 773//773 238//238
f 774//774 762//762 243//243
f 772//772 775//775 770//770
f 774//774 237//237 771//771
f 238//238 773//773 771//771
f 238//238 771//771 237//237
f 240//240 775//775 772//772
f 772//772 770//770 238//238
f 777//777 780//780 776//776
f 768//768 778//778 243//243
f 779//779 765//765 781//781
f 777//777 776//776 765//765
f 781//781 765//765 776//776
f 779//779 778//778 765//765
f 243//243 778//778 779//779
f 776//776 780//780 775//775
f 774//774 243//243 245//245
f 428//428 784//784 431//431
f 782//782 784//784 428//428
f 431//431 783//783 421//421
f 784//784 783//783 431//431
f 422//422 421//421 782//782
f 782//782 428//428 422//422
f 421//421 783//783 782//782
f 782//782 783//783 436//436
f 782//782 436//436 784//784
f 789//789 791//791 788//788
f 790//790 501//501 788//788
f 791//791 787//787 786//786
f 790//790 788//788 485//485
f 485//485 785//785 787//787
f 493//493 788//788 492//492
f 485//485 787//787 790//790
f 787//787 785//785 786//786
f 485//485 788//788 493//493
f 492//492 788//788 786//786
f 786//786 788//788 791//791
# 1576 faces, 0 coords texture

# End of File
