####
#
# OBJ File Generated by Meshlab
#
####
# Object centaur1.obj
#
# Vertices: 791
# Faces: 1576
#
####
vn -0.303857 0.647378 0.698979
v -0.023247 0.485685 -0.323512
vn -0.305724 0.811475 -0.498037
v -0.016721 0.491365 -0.374423
vn 0.076935 0.970148 -0.229985
v -0.052345 0.472415 -0.441526
vn 0.582626 0.645566 -0.493753
v -0.026795 0.438398 -0.487070
vn -0.815812 -0.006798 0.578277
v -0.118940 0.237226 -0.241286
vn -0.944414 -0.083942 0.317862
v -0.136359 0.213365 -0.278851
vn -0.063390 -0.114546 -0.991393
v -0.019961 0.087886 -0.472147
vn -0.530770 -0.140772 -0.835743
v -0.086842 0.103008 -0.454997
vn -0.982496 0.068537 -0.173218
v -0.145410 0.147430 -0.362375
vn -0.435051 0.205276 0.876694
v -0.061142 0.247688 -0.194914
vn -0.197440 -0.254387 -0.946734
v -0.060924 0.171277 -0.470083
vn -0.269595 -0.588365 -0.762329
v -0.101580 0.182392 -0.462527
vn -0.959940 -0.276556 -0.045078
v -0.150699 0.195746 -0.401167
vn -0.416221 0.900857 0.123355
v -0.059003 0.474093 -0.363594
vn -0.358308 0.753174 0.551674
v -0.037928 0.473231 -0.312019
vn -0.574747 0.737632 0.354352
v -0.086375 0.438264 -0.314648
vn -0.341811 0.935879 0.085418
v -0.079068 0.473081 -0.403871
vn -0.729625 0.542293 0.416612
v -0.114775 0.402340 -0.297266
vn -0.849031 0.410779 0.332275
v -0.140577 0.385056 -0.331827
vn -0.507954 0.581229 0.635732
v -0.094781 0.400328 -0.273262
vn -0.165205 0.566871 0.807072
v -0.036755 0.382814 -0.226870
vn -0.284769 0.444296 0.849416
v -0.048710 0.365674 -0.220676
vn -0.329162 0.245764 0.911730
v -0.057598 0.317169 -0.204583
vn -0.544065 0.371995 0.752072
v -0.086905 0.353743 -0.233047
vn -0.909478 0.208530 0.359674
v -0.151481 0.303557 -0.304155
vn -0.872585 0.270531 0.406705
v -0.141553 0.345466 -0.302675
vn -0.736838 0.367614 0.567388
v -0.118624 0.352384 -0.262240
vn -0.887803 -0.032753 0.459057
v -0.146877 0.267976 -0.266821
vn -0.792603 0.253287 0.554640
v -0.124014 0.299780 -0.244691
vn -0.641856 0.103353 0.759829
v -0.116112 0.283298 -0.230370
vn -0.959393 -0.238902 0.149970
v -0.169764 0.241651 -0.362451
vn -0.937318 0.214376 0.274731
v -0.166155 0.346736 -0.366598
vn 0.014105 -0.521607 -0.853069
v -0.008857 0.246765 -0.496830
vn -0.018410 -0.373749 -0.927347
v -0.006696 0.280088 -0.518802
vn -0.293007 0.461516 -0.837347
v -0.008103 0.369963 -0.501615
vn -0.199756 0.152493 -0.967907
v -0.007993 0.331745 -0.519492
vn -0.896153 -0.136780 -0.422138
v -0.132988 0.124646 -0.409616
vn -0.789248 -0.429685 -0.438702
v -0.147014 0.184402 -0.427263
vn -0.594063 -0.450443 -0.666476
v -0.122010 0.165649 -0.435834
vn -0.669101 -0.204779 -0.714401
v -0.119612 0.119998 -0.420352
vn -0.641595 0.727473 0.243186
v -0.119195 0.440522 -0.390219
vn -0.998629 -0.012995 0.050713
v -0.146144 0.174578 -0.333952
vn 0.233533 0.622763 -0.746745
v -0.008361 0.426404 -0.470416
vn 0.032739 0.685819 0.727035
v -0.008471 0.447317 -0.277231
vn 0.654860 0.634127 -0.411147
v 0.002608 0.489998 -0.362972
vn 0.371228 0.667421 0.645553
v 0.005119 0.488292 -0.322704
vn -0.602120 0.634293 -0.484896
v 0.007008 0.439994 -0.483459
vn -0.761476 0.318333 -0.564640
v 0.006003 0.397126 -0.514046
vn -0.012486 -0.181969 -0.983225
v -0.032306 0.176179 -0.474164
vn 0.096344 0.904834 -0.414722
v -0.007250 0.481579 -0.396684
vn -0.041416 0.965737 -0.256197
v 0.026282 0.481092 -0.400322
vn -0.107979 0.770641 -0.628055
v 0.055043 0.448694 -0.518555
vn 0.250907 -0.121460 -0.960361
v 0.039476 0.091946 -0.465232
vn 0.761282 -0.121061 -0.637019
v 0.091366 0.112713 -0.433984
vn 0.539071 -0.125641 -0.832837
v 0.071652 0.102891 -0.453619
vn 0.974905 0.051492 -0.216583
v 0.125158 0.142292 -0.377633
vn 0.693706 0.261203 0.671227
v 0.078419 0.200988 -0.204330
vn 0.178196 0.358960 0.916184
v 0.012771 0.226320 -0.179109
vn 0.137919 -0.143764 -0.979954
v 0.023467 0.147020 -0.471453
vn 0.528578 -0.236403 -0.815303
v 0.074641 0.156966 -0.459049
vn 0.622406 -0.438613 -0.648251
v 0.105106 0.169687 -0.431324
vn 0.323174 0.945429 0.041496
v 0.057639 0.476189 -0.401650
vn 0.579462 0.779928 0.236510
v 0.080947 0.461741 -0.396884
vn 0.459042 0.773931 0.436247
v 0.031305 0.461205 -0.303317
vn 0.747754 0.627234 0.217812
v 0.116292 0.426926 -0.388311
vn 0.781714 0.355898 0.512112
v 0.101434 0.370402 -0.271900
vn 0.619217 0.610022 0.494412
v 0.087306 0.409034 -0.288635
vn 0.254877 0.560620 0.787873
v 0.032404 0.381327 -0.231178
vn 0.108945 0.312506 0.943648
v 0.009269 0.327673 -0.200239
vn 0.473690 0.409894 0.779490
v 0.067017 0.358459 -0.233383
vn 0.429884 0.207691 0.878672
v 0.055380 0.312926 -0.210389
vn 0.904231 0.077646 0.419926
v 0.127609 0.273838 -0.269633
vn 0.680603 0.152669 0.716569
v 0.101088 0.290927 -0.233194
vn 0.979601 -0.019029 0.200049
v 0.149557 0.277136 -0.346416
vn 0.916912 0.213337 0.337284
v 0.130372 0.346478 -0.317506
vn 0.963276 -0.001564 0.268508
v 0.141691 0.270423 -0.309885
vn 0.770445 -0.109052 -0.628110
v 0.115032 0.115262 -0.409123
vn 0.891464 -0.336840 -0.303035
v 0.125453 0.187975 -0.429518
vn 0.717818 -0.128444 -0.684280
v 0.102608 0.120209 -0.419171
vn 0.926053 -0.227854 0.300846
v 0.132627 0.238614 -0.297493
vn 0.851011 -0.163305 0.499111
v 0.118862 0.252497 -0.254152
vn 0.611568 0.073711 0.787751
v 0.077354 0.261748 -0.217141
vn 0.950035 -0.099272 0.295938
v 0.110366 0.230273 -0.258719
vn 0.857252 0.073745 0.509589
v 0.102216 0.211488 -0.238732
vn 0.994324 -0.094239 0.049389
v 0.129624 0.179769 -0.341421
vn -0.590108 -0.226459 -0.774912
v 0.037729 0.320728 -0.560242
vn -0.303286 -0.522110 -0.797132
v 0.031029 0.269162 -0.529232
vn -0.050172 -0.362159 -0.930765
v 0.026505 0.196326 -0.478607
vn 0.568606 0.753497 -0.330045
v 0.110624 0.442908 -0.504313
vn -0.652912 0.301258 -0.694946
v 0.038342 0.370048 -0.560139
vn -0.036976 -0.430561 -0.901804
v 0.051035 0.186716 -0.473842
vn 0.333444 -0.623491 -0.707159
v 0.094833 0.189304 -0.467248
vn 0.702915 -0.698050 -0.136515
v 0.144164 0.226870 -0.516863
vn 0.907419 -0.414643 0.068283
v 0.154253 0.251647 -0.453045
vn 0.960268 -0.267674 0.078973
v 0.148286 0.239111 -0.365500
vn -0.458547 0.512698 -0.725862
v 0.042014 0.427511 -0.529855
vn -0.008776 0.956247 -0.292429
v 0.055017 0.467773 -0.478100
vn 0.569175 0.822047 -0.016689
v 0.102066 0.458491 -0.465907
vn 0.992480 -0.065782 0.103229
v 0.162697 0.273084 -0.470022
vn 0.855538 0.517075 0.026230
v 0.139048 0.410025 -0.454373
vn 0.949594 0.305083 0.072075
v 0.154005 0.377358 -0.450880
vn 0.901152 0.405468 -0.153366
v 0.152442 0.374362 -0.503292
vn 0.967595 0.148338 0.204343
v 0.148332 0.342067 -0.365007
vn 0.991682 -0.080103 0.100747
v 0.155403 0.271959 -0.401127
vn 0.989414 0.130947 0.062552
v 0.161052 0.346622 -0.456264
vn 0.876868 0.398099 0.269479
v 0.137999 0.383592 -0.367474
vn 0.890665 -0.453507 -0.032352
v 0.135827 0.227768 -0.444398
vn 0.513411 -0.790587 -0.333739
v 0.122008 0.201863 -0.469891
vn -0.659608 0.702998 -0.265917
v 0.079508 0.404116 -0.584980
vn -0.825881 -0.382470 -0.414292
v 0.076752 0.352253 -0.646142
vn -0.780793 0.615179 0.109167
v 0.096210 0.427845 -0.668091
vn -0.555020 0.829073 -0.067755
v 0.094911 0.446305 -0.707622
vn 0.312468 -0.841806 -0.440144
v 0.116670 0.372029 -0.702912
vn -0.128673 -0.718713 -0.683297
v 0.119356 0.303554 -0.635064
vn 0.977110 0.195829 -0.083107
v 0.137010 0.397382 -0.687278
vn 0.833323 0.541705 0.110130
v 0.140720 0.399518 -0.626408
vn 0.970004 -0.052901 -0.237261
v 0.151957 0.354978 -0.644709
vn -0.235811 0.798093 -0.554474
v 0.075893 0.413590 -0.546786
vn 0.001255 -0.866511 -0.499157
v 0.114234 0.218636 -0.520842
vn -0.236475 -0.755640 -0.610809
v 0.118060 0.279482 -0.608050
vn -0.141113 -0.766544 -0.626496
v 0.086259 0.219433 -0.513749
vn -0.433731 -0.655332 -0.618399
v 0.097599 0.255811 -0.557153
vn -0.666252 -0.470620 -0.578468
v 0.078169 0.297905 -0.581852
vn -0.868851 0.044309 -0.493087
v 0.066271 0.353647 -0.588920
vn -0.294742 -0.566748 -0.769366
v 0.056562 0.211159 -0.488423
vn -0.461217 -0.542665 -0.701992
v 0.055601 0.278881 -0.548249
vn 0.053918 0.998357 0.019393
v 0.103834 0.411357 -0.581514
vn 0.699701 0.714435 -0.000732
v 0.116769 0.405373 -0.576487
vn 0.523852 0.765001 -0.374637
v 0.114189 0.414491 -0.540490
vn 0.410375 0.874562 0.258329
v 0.115043 0.418986 -0.626576
vn 0.920863 0.387745 0.040818
v 0.149547 0.353810 -0.572452
vn 0.991539 0.117119 -0.055975
v 0.167711 0.305309 -0.529241
vn 0.945861 0.313450 -0.084239
v 0.162412 0.343050 -0.518793
vn 0.684546 -0.513043 -0.517865
v 0.142659 0.289974 -0.609607
vn 0.985571 -0.010340 -0.168948
v 0.154704 0.322495 -0.592805
vn 0.958331 -0.261502 -0.114973
v 0.168879 0.268394 -0.521817
vn 0.533433 -0.702953 -0.470433
v 0.148840 0.250498 -0.555995
vn -0.835005 -0.455655 -0.308456
v 0.113738 0.245549 -0.997829
vn -0.045251 -0.998304 -0.036639
v 0.145492 0.228594 -0.997834
vn 0.664033 -0.193050 -0.722352
v 0.190518 0.254674 -0.999031
vn -0.505744 0.396727 -0.766049
v 0.114914 0.300261 -0.998354
vn 0.595260 0.742539 -0.307085
v 0.170886 0.312420 -0.994055
vn 0.534428 -0.156201 -0.830655
v -0.044584 0.300413 -0.545828
vn 0.074942 -0.375725 -0.923696
v -0.014212 0.209297 -0.480633
vn 0.144006 0.934598 -0.325250
v -0.068287 0.466889 -0.480018
vn 0.717157 0.229608 -0.658001
v -0.025734 0.377784 -0.525774
vn -0.946631 -0.317141 0.057550
v -0.173291 0.251339 -0.426998
vn -0.988383 -0.069941 0.134936
v -0.183236 0.275988 -0.448924
vn 0.457881 0.599235 -0.656706
v -0.062680 0.434869 -0.527120
vn 0.004865 0.839798 -0.542877
v -0.089849 0.445314 -0.526841
vn -0.637390 0.734260 -0.233659
v -0.130870 0.441996 -0.517680
vn -0.492514 0.869106 -0.045656
v -0.115544 0.461324 -0.469239
vn -0.971062 0.228254 0.070272
v -0.184054 0.354454 -0.480982
vn -0.982346 0.186893 -0.008174
v -0.187047 0.339032 -0.512388
vn -0.870252 0.492601 -0.002172
v -0.162040 0.403778 -0.476775
vn -0.980681 -0.012223 0.195230
v -0.168398 0.266443 -0.337566
vn -0.757751 0.612958 0.223822
v -0.138374 0.423976 -0.399495
vn -0.890666 0.417003 0.181170
v -0.162796 0.386867 -0.403031
vn -0.800094 0.594902 0.077081
v -0.147943 0.422773 -0.441497
vn -0.824351 -0.565176 -0.031955
v -0.154555 0.218390 -0.462709
vn -0.448338 -0.785786 -0.426067
v -0.128035 0.195105 -0.469362
vn 0.206101 -0.895390 -0.394714
v -0.145751 0.270800 -0.630834
vn 0.928583 -0.302334 -0.215238
v -0.121541 0.330671 -0.712569
vn 0.283227 0.896285 -0.341255
v -0.134176 0.385789 -0.750262
vn -0.182155 -0.975030 -0.127029
v -0.150513 0.312577 -0.716894
vn -0.502402 0.863624 -0.041790
v -0.144806 0.383085 -0.702901
vn -0.998070 0.062096 0.000817
v -0.174047 0.342899 -0.704270
vn -0.981086 -0.095691 -0.168268
v -0.184858 0.319682 -0.651229
vn -0.847614 0.530550 -0.008197
v -0.167817 0.366088 -0.640510
vn -0.390834 -0.865838 -0.312368
v -0.154130 0.217350 -0.504398
vn 0.224322 -0.842723 -0.489385
v -0.136335 0.242924 -0.551169
vn 0.074266 -0.806877 -0.586032
v -0.124453 0.220750 -0.519035
vn 0.633635 0.723369 -0.274308
v -0.121621 0.379649 -0.646721
vn 0.727457 -0.545257 -0.416535
v -0.101449 0.292889 -0.591516
vn 0.865840 0.014367 -0.500114
v -0.096396 0.334815 -0.610157
vn 0.649909 0.412750 -0.638166
v -0.077087 0.383508 -0.565961
vn 0.570253 -0.385192 -0.725561
v -0.070315 0.324759 -0.571237
vn 0.215726 -0.541627 -0.812467
v -0.057674 0.278102 -0.540212
vn 0.103542 -0.575358 -0.811321
v -0.079782 0.210511 -0.488379
vn 0.189380 -0.581914 -0.790893
v -0.061037 0.241206 -0.509980
vn 0.478711 -0.615946 -0.625657
v -0.088599 0.275418 -0.553064
vn -0.423649 0.890626 -0.165250
v -0.142360 0.390641 -0.600668
vn 0.204634 0.770491 -0.603712
v -0.101782 0.411072 -0.562066
vn -0.500587 0.740195 -0.448914
v -0.135359 0.412092 -0.561129
vn -0.946731 0.310762 -0.084417
v -0.182363 0.326504 -0.579515
vn -0.874848 0.457424 -0.159386
v -0.167499 0.387594 -0.511377
vn -0.689832 -0.644093 -0.330569
v -0.173807 0.287762 -0.646977
vn -0.921391 -0.340151 -0.187976
v -0.179707 0.278930 -0.595402
vn -0.987973 -0.081832 -0.131194
v -0.193036 0.283457 -0.540299
vn -0.965932 -0.238890 0.099534
v -0.192967 0.267327 -0.506658
vn -0.433683 -0.828132 -0.355128
v -0.167263 0.247465 -0.556962
vn -0.803951 -0.580675 -0.128376
v -0.182817 0.242588 -0.516738
vn -0.024090 -0.945409 -0.324994
v -0.204244 0.125121 -0.997917
vn 0.993327 -0.109721 -0.035520
v -0.154594 0.156592 -0.992113
vn 0.373586 0.339451 -0.863253
v -0.160644 0.199658 -0.996456
vn -0.856037 -0.191029 -0.480321
v -0.235718 0.156342 -0.998516
vn -0.932550 0.310291 0.184581
v -0.227407 0.187206 -0.953116
vn -0.509646 0.763715 -0.396232
v -0.218035 0.211435 -0.995822
vn -0.988153 0.050014 -0.145095
v -0.025983 0.537338 -0.350453
vn -0.128347 0.690661 0.711698
v -0.010938 0.587312 -0.378742
vn -0.174908 -0.332048 -0.926904
v -0.009731 0.524602 -0.368790
vn 0.828037 0.025770 0.560081
v 0.015573 0.529258 -0.337947
vn 0.066295 0.624238 0.778416
v 0.001367 0.558138 -0.344598
vn 0.642708 -0.676029 -0.360431
v 0.014608 0.534791 -0.371567
vn -0.979285 0.072636 -0.189008
v -0.001970 0.613986 -0.504512
vn -0.528347 -0.750195 -0.397565
v 0.001400 0.548349 -0.416443
vn -0.844425 0.532303 0.059990
v -0.015276 0.606092 -0.430624
vn -0.248430 0.871535 0.422741
v 0.005731 0.612833 -0.419779
vn 0.366929 0.727121 0.580223
v 0.029585 0.622499 -0.429925
vn 0.920270 0.023875 0.390554
v 0.024246 0.553596 -0.362102
vn -0.508649 -0.752038 -0.419184
v 0.016622 0.572337 -0.489791
vn -0.105534 -0.929429 0.353587
v 0.205720 0.723176 -0.506954
vn 0.416759 -0.766088 0.489306
v 0.259436 0.737144 -0.472223
vn -0.108702 -0.355972 0.928153
v 0.229065 0.735753 -0.475761
vn -0.234729 0.871177 0.431223
v 0.180468 0.781292 -0.494698
vn -0.347885 0.020629 0.937310
v 0.177227 0.750187 -0.484923
vn -0.377742 -0.704584 0.600727
v 0.190012 0.728263 -0.492625
vn 0.328115 0.801739 0.499555
v 0.243835 0.771212 -0.497183
vn 0.683271 -0.563550 -0.464277
v 0.218733 0.735017 -0.538554
vn 0.911091 -0.147649 -0.384855
v 0.265297 0.755507 -0.484912
vn 0.015926 0.873739 -0.486135
v 0.154797 0.780043 -0.583477
vn 0.509661 0.737227 -0.443557
v 0.198606 0.780068 -0.548572
vn 0.742938 -0.007192 -0.669321
v 0.202693 0.745688 -0.558608
vn 0.541832 -0.805451 -0.240141
v 0.217465 0.730957 -0.523441
vn -0.956977 0.001778 0.290157
v -0.155484 0.045594 -0.249521
vn -0.220397 -0.254671 -0.941577
v -0.053621 0.044208 -0.457448
vn -0.550945 -0.221594 -0.804584
v -0.095743 0.051599 -0.440271
vn -0.935225 0.023083 -0.353301
v -0.151849 0.088960 -0.371055
vn -0.982485 0.182189 -0.039117
v -0.158589 0.121533 -0.312934
vn -0.974475 0.135070 -0.179317
v -0.158719 0.106682 -0.339935
vn -0.810980 0.218933 0.542568
v -0.112894 0.199205 -0.224523
vn -0.951592 0.193214 0.239042
v -0.140677 0.174450 -0.269835
vn -0.177202 0.315006 0.932400
v -0.035191 0.232673 -0.182079
vn -0.390140 0.395645 0.831418
v -0.053902 0.191453 -0.170501
vn -0.619555 0.366843 0.693958
v -0.071638 0.113605 -0.142306
vn -0.323410 0.518864 0.791319
v -0.029223 0.140245 -0.129314
vn -0.775081 0.251869 0.579492
v -0.115458 0.143926 -0.201667
vn -0.641204 0.206977 0.738930
v -0.087646 0.225865 -0.207486
vn -0.869945 0.130594 0.475542
v -0.139800 0.088622 -0.217566
vn -0.916702 0.178326 0.357571
v -0.151953 0.108979 -0.248965
vn -0.982938 -0.172235 -0.064561
v -0.159294 0.003346 -0.300920
vn -0.993037 -0.013874 -0.116979
v -0.164698 0.058229 -0.323863
vn -0.990761 0.079904 0.109581
v -0.165854 0.074694 -0.295738
vn -0.989188 -0.100840 0.106481
v -0.161254 0.027062 -0.277870
vn -0.814175 -0.388367 -0.431612
v -0.135087 -0.041756 -0.349112
vn -0.865872 -0.195009 -0.460692
v -0.141523 0.024870 -0.380955
vn -0.948413 -0.133683 -0.287476
v -0.156066 0.039990 -0.354991
vn -0.925050 -0.297528 -0.236135
v -0.150348 -0.022441 -0.326047
vn -0.509519 -0.553307 -0.658970
v -0.089330 -0.066140 -0.381748
vn -0.593257 -0.347932 -0.725941
v -0.097234 -0.003002 -0.419400
vn -0.723958 -0.291447 -0.625254
v -0.121281 0.008660 -0.401978
vn -0.657660 -0.508950 -0.555386
v -0.113960 -0.056302 -0.366297
vn -0.365996 -0.621927 -0.692281
v -0.061892 -0.071233 -0.395999
vn -0.102590 -0.585506 -0.804150
v -0.028718 -0.071550 -0.406685
vn -0.332711 -0.425089 -0.841786
v -0.061744 -0.010056 -0.435630
vn -0.907342 0.104774 0.407128
v -0.135990 0.021635 -0.197889
vn -0.967033 -0.253520 0.023985
v -0.143234 -0.068716 -0.255666
vn -0.978492 -0.133655 0.157129
v -0.145483 -0.046664 -0.235607
vn -0.769723 -0.550288 -0.323590
v -0.118930 -0.108375 -0.295339
vn -0.897729 -0.413752 -0.151299
v -0.134136 -0.092619 -0.276651
vn -0.542642 -0.678720 -0.494852
v -0.087286 -0.123126 -0.317783
vn -0.147092 -0.714457 -0.684044
v -0.013764 -0.128617 -0.358079
vn -0.358656 -0.734790 -0.575717
v -0.047511 -0.131198 -0.340683
vn 0.001363 -0.410398 -0.911906
v -0.003968 -0.009493 -0.444339
vn -0.797606 0.231930 0.556806
v -0.102649 0.072692 -0.159094
vn -0.761832 -0.104069 -0.639361
v -0.136154 0.070906 -0.400747
vn 0.144318 -0.562200 -0.814312
v 0.020716 -0.066443 -0.410068
vn -0.032467 0.502728 0.863835
v -0.009409 0.171926 -0.145316
vn 0.965801 0.148783 0.212348
v 0.157966 -0.012418 -0.213100
vn 0.930979 0.227524 0.285500
v 0.149493 0.060809 -0.231494
vn 0.942325 0.293058 0.161679
v 0.145797 0.100206 -0.261470
vn 0.953007 0.260624 0.154444
v 0.130346 0.153433 -0.284587
vn 0.375046 -0.226876 -0.898815
v 0.053902 0.046983 -0.451833
vn 0.119471 -0.260953 -0.957930
v 0.018359 0.043808 -0.460788
vn 0.648909 -0.143521 -0.747207
v 0.078894 0.051599 -0.440271
vn 0.933314 0.017254 -0.358646
v 0.147681 0.046621 -0.351424
vn 0.971857 0.229743 -0.052069
v 0.137125 0.137974 -0.321790
vn 0.904562 0.239779 0.352525
v 0.120296 0.167646 -0.255446
vn 0.356285 0.445316 0.821434
v 0.036702 0.198563 -0.173528
vn 0.436378 0.261782 0.860839
v 0.044957 0.232941 -0.192226
vn 0.154554 0.694041 0.703150
v 0.005118 0.100619 -0.100083
vn 0.639562 0.370176 0.673744
v 0.077903 0.174422 -0.189234
vn 0.799872 0.314148 0.511387
v 0.103580 0.171103 -0.222253
vn 0.873864 0.323027 0.363339
v 0.133005 0.101327 -0.218838
vn 0.998339 0.037971 -0.043337
v 0.162599 0.015842 -0.285329
vn 0.975243 0.123927 -0.183146
v 0.154641 0.063712 -0.320562
vn 0.978755 0.204961 -0.005496
v 0.154878 0.079277 -0.289651
vn 0.980936 0.154340 0.118083
v 0.160798 0.039109 -0.261880
vn 0.885762 -0.240498 -0.396971
v 0.146132 -0.030403 -0.336035
vn 0.843282 -0.119846 -0.523939
v 0.135341 0.028883 -0.375649
vn 0.968919 -0.067175 -0.238084
v 0.157806 -0.010179 -0.311489
vn 0.642918 -0.451162 -0.618958
v 0.104864 -0.058336 -0.373025
vn 0.551130 -0.316299 -0.772147
v 0.092618 -0.000291 -0.415998
vn 0.715680 -0.181189 -0.674517
v 0.116199 0.012144 -0.397516
vn 0.761430 -0.347197 -0.547428
v 0.127808 -0.046439 -0.355158
vn 0.545285 0.550324 0.632303
v 0.043477 0.087899 -0.108884
vn 0.463029 -0.508332 -0.726087
v 0.077794 -0.065861 -0.390011
vn 0.323078 -0.570104 -0.755382
v 0.049485 -0.068425 -0.402006
vn 0.301151 -0.392665 -0.868977
v 0.053347 -0.007682 -0.434886
vn 0.856055 0.301784 0.419639
v 0.135626 0.032158 -0.179915
vn 0.732479 0.383272 0.562651
v 0.105409 0.070626 -0.157539
vn 0.998090 0.004229 0.061629
v 0.163030 -0.044230 -0.231944
vn 0.874356 -0.373635 -0.309676
v 0.150941 -0.087022 -0.274860
vn 0.973430 -0.177651 -0.144476
v 0.161210 -0.068820 -0.253861
vn 0.746168 -0.500180 -0.439378
v 0.133098 -0.101111 -0.294260
vn 0.359805 -0.652309 -0.667109
v 0.059571 -0.125136 -0.348226
vn 0.556856 -0.596704 -0.577802
v 0.091740 -0.122404 -0.326302
vn 0.128884 -0.694908 -0.707454
v 0.030662 -0.123074 -0.362250
vn -0.965921 -0.078982 0.246491
v -0.134380 -0.069849 -0.189808
vn 0.260012 -0.944655 -0.200053
v 0.062356 -0.282222 -0.081954
vn -0.763587 -0.497016 0.412202
v -0.092196 -0.255300 -0.018371
vn -0.363721 -0.685993 0.630176
v -0.060639 -0.263707 -0.002958
vn -0.990900 -0.134341 -0.008330
v -0.114836 -0.116793 -0.143263
vn -0.337429 0.658486 0.672709
v -0.027667 0.088157 -0.090569
vn -0.934194 0.346445 0.085194
v -0.097442 -0.012849 -0.060891
vn -0.993484 -0.095296 0.062521
v -0.127937 -0.159781 -0.093176
vn -0.990743 -0.076572 0.112097
v -0.120168 -0.173534 -0.054437
vn -0.992580 0.120675 -0.014937
v -0.126725 -0.103875 -0.085371
vn -0.024429 -0.855494 0.517236
v 0.001030 -0.286793 -0.017198
vn -0.946386 -0.202045 0.252053
v -0.115602 -0.183357 -0.004197
vn -0.913020 0.405569 0.043681
v -0.097936 -0.029853 0.018125
vn -0.982081 0.153432 0.109434
v -0.116184 -0.083494 -0.041153
vn -0.765012 0.633068 0.118244
v -0.078224 0.000265 0.007101
vn -0.616019 0.653397 0.439992
v -0.059668 0.057797 -0.083958
vn -0.589818 0.502542 0.632113
v -0.052425 0.092278 -0.112931
vn -0.804783 0.361428 0.470845
v -0.092624 0.046313 -0.127221
vn -0.891066 0.372601 0.259171
v -0.090355 0.018456 -0.088044
vn -0.948663 0.074969 0.307274
v -0.126263 -0.034617 -0.153473
vn -0.985557 0.148033 0.082243
v -0.115181 -0.067814 -0.115346
vn -0.960032 -0.243579 0.137869
v -0.131610 -0.090841 -0.193191
vn -0.692392 -0.676243 -0.251572
v -0.102082 -0.150871 -0.241727
vn -0.884052 -0.466987 -0.019386
v -0.118298 -0.133587 -0.219590
vn -0.548929 -0.749074 -0.370897
v -0.068927 -0.170495 -0.260855
vn -0.012452 -0.813632 -0.581246
v 0.002304 -0.172115 -0.307077
vn 0.037003 -0.688559 0.724235
v 0.015040 -0.221168 0.046930
vn 0.010504 -0.913731 0.406184
v 0.033343 -0.275099 -0.021974
vn 0.098069 -0.856643 -0.506503
v 0.015423 -0.206261 -0.251117
vn -0.146968 0.847435 0.510151
v -0.011913 0.077099 -0.067459
vn 0.883013 0.335464 0.328256
v 0.131875 -0.022652 -0.120766
vn 0.220638 -0.955558 0.195517
v 0.055720 -0.288496 -0.033755
vn 0.622332 -0.259758 0.738396
v 0.117296 -0.170087 0.047601
vn 0.450596 -0.828878 -0.331548
v 0.058887 -0.225576 -0.199831
vn 0.501217 -0.783074 -0.368208
v 0.080064 -0.207354 -0.225308
vn 0.366036 0.829810 0.421229
v 0.031250 0.054545 -0.040433
vn 0.633635 0.674442 0.378991
v 0.069461 0.042606 -0.070955
vn 0.708282 0.648814 0.278167
v 0.077795 0.017124 -0.031955
vn 0.851058 0.458930 0.255114
v 0.140232 -0.059351 -0.051617
vn 0.928287 0.347166 0.133259
v 0.160547 -0.102496 -0.062946
vn 0.863204 0.187940 0.468568
v 0.153883 -0.111957 -0.031397
vn 0.834359 0.439405 0.332818
v 0.118215 -0.050344 -0.017934
vn 0.892124 0.076599 0.445249
v 0.140212 -0.145813 0.020007
vn 0.890461 0.237636 0.388083
v 0.141914 -0.113046 -0.016871
vn 0.888486 -0.347137 0.300148
v 0.149933 -0.212587 -0.015477
vn 0.493798 -0.700082 0.515799
v 0.129174 -0.229417 -0.004382
vn 0.206498 -0.782448 0.587481
v 0.059868 -0.266150 0.003790
vn 0.745625 0.169564 0.644432
v 0.099876 -0.109451 0.061625
vn 0.822280 0.304678 0.480652
v 0.087804 -0.044158 0.047624
vn 0.854678 0.299525 0.424040
v 0.125708 -0.099650 0.026380
vn 0.590907 0.788231 0.171816
v 0.047594 0.015168 0.030951
vn 0.752624 0.498884 0.429734
v 0.093767 0.039980 -0.117909
vn 0.866915 0.446468 0.221640
v 0.123447 -0.030474 -0.085833
vn 0.976962 0.077704 0.198767
v 0.153949 -0.070998 -0.152052
vn 0.936043 0.339515 -0.092485
v 0.148969 -0.086019 -0.125388
vn 0.841090 -0.524166 -0.133486
v 0.147408 -0.125550 -0.222271
vn 0.980535 -0.193574 0.032861
v 0.157756 -0.102356 -0.200117
vn 0.679882 -0.678026 -0.279359
v 0.116804 -0.151931 -0.253955
vn 0.573979 -0.698765 -0.426937
v 0.086202 -0.168085 -0.277897
vn 0.269565 -0.769592 -0.578846
v 0.054519 -0.166347 -0.303622
vn 0.394100 -0.614444 0.683479
v 0.088082 -0.217240 0.032598
vn 0.466561 -0.823697 0.322249
v 0.098688 -0.254790 -0.037176
vn 0.963622 0.265945 -0.026588
v 0.170575 -0.120113 -0.099186
vn 0.699420 -0.713606 -0.039719
v 0.127922 -0.244253 -0.038246
vn 0.718594 -0.671401 -0.181226
v 0.120208 -0.227271 -0.063274
vn 0.754079 -0.656392 -0.022687
v 0.113023 -0.157375 -0.203089
vn 0.952029 0.097094 0.290197
v 0.167999 -0.144296 -0.057423
vn 0.826263 -0.563285 0.000101
v 0.147629 -0.214992 -0.054219
vn 0.900541 -0.163122 0.403011
v 0.159804 -0.179337 -0.042946
vn 0.121627 0.264807 -0.956600
v 0.115174 -0.197044 -0.210059
vn 0.898345 0.260825 -0.353479
v 0.162587 -0.162799 -0.145315
vn 0.888681 0.179880 -0.421768
v 0.165643 -0.130268 -0.130577
vn -0.352645 -0.750937 -0.558333
v 0.071497 -0.218919 -0.184856
vn 0.658082 -0.508185 -0.555587
v 0.094796 -0.249126 -0.118294
vn 0.781269 -0.500782 -0.372608
v 0.105648 -0.230520 -0.096190
vn 0.524085 0.443605 -0.727014
v 0.137297 -0.152190 -0.167990
vn 0.434547 -0.636224 -0.637486
v 0.084240 -0.204519 -0.199750
vn 0.993175 -0.097859 0.063460
v 0.176090 -0.171611 -0.082766
vn 0.984823 -0.011213 0.173200
v 0.164086 -0.205619 -0.123845
vn 0.800366 -0.554809 -0.227159
v 0.114148 -0.251841 -0.082595
vn 0.620713 0.117895 -0.775123
v 0.104788 -0.166130 -0.189188
vn 0.949052 -0.146455 -0.279017
v 0.147899 -0.118629 -0.143568
vn 0.973194 -0.041922 0.226135
v 0.153295 -0.173013 -0.022453
vn 0.360826 -0.668524 -0.650293
v 0.142116 -0.318743 -0.133201
vn -0.453688 0.424090 0.783783
v 0.114274 -0.310690 -0.047221
vn -0.987774 -0.155354 0.012932
v 0.105906 -0.328647 -0.080688
vn -0.659637 -0.378153 -0.649522
v 0.122889 -0.355617 -0.092683
vn 0.557814 0.396873 0.728928
v 0.133924 -0.316837 -0.046726
vn 0.941414 0.058781 0.332090
v 0.169459 -0.251816 -0.113447
vn 0.510654 0.357894 0.781757
v 0.148720 -0.272606 -0.068537
vn 0.950423 0.047894 0.307249
v 0.157724 -0.314969 -0.080566
vn 0.939484 -0.267752 -0.213728
v 0.162503 -0.299593 -0.128665
vn -0.893177 0.136874 0.428370
v 0.089723 -0.260817 -0.103412
vn -0.921851 -0.379377 -0.079146
v 0.087275 -0.272074 -0.140406
vn -0.006594 -0.950439 -0.310841
v 0.075013 -0.233372 -0.146331
vn -0.493171 -0.636886 -0.592586
v 0.106020 -0.297508 -0.152075
vn 0.705144 0.276191 -0.653062
v 0.149938 -0.197710 -0.191353
vn 0.496014 -0.137875 -0.857299
v 0.138291 -0.219873 -0.202468
vn -0.043249 -0.446983 -0.893496
v 0.116787 -0.237875 -0.203829
vn 0.182579 -0.324328 0.928158
v 0.138907 -0.229577 -0.094587
vn 0.987122 -0.159967 -0.000248
v 0.171336 -0.272819 -0.126361
vn 0.985362 -0.002627 -0.170458
v 0.173320 -0.234616 -0.151067
vn 0.732388 -0.277255 -0.621882
v 0.160441 -0.258358 -0.167384
vn 0.861638 0.185186 -0.472531
v 0.161234 -0.178184 -0.160358
vn 0.780962 -0.602374 0.165056
v 0.165239 -0.204990 -0.090018
vn 0.864152 0.317869 0.390129
v 0.155200 -0.342209 -0.054533
vn 0.998909 0.003797 0.046535
v 0.158867 -0.365396 -0.043301
vn -0.073734 0.872023 -0.483878
v 0.134411 -0.362407 -0.102992
vn -0.564604 0.057524 0.823355
v 0.112657 -0.359034 -0.015287
vn 0.227679 -0.832323 0.505373
v 0.136977 -0.400216 -0.040870
vn -0.912953 -0.401986 -0.070168
v 0.106575 -0.378870 -0.049992
vn -0.344092 -0.866413 0.361842
v 0.150051 -0.427661 -0.148240
vn -0.997708 -0.012817 -0.066443
v 0.141091 -0.415811 -0.165578
vn 0.753345 0.657625 0.001067
v 0.166964 -0.405120 -0.184612
vn 0.954897 0.296936 0.000007
v 0.157688 -0.376346 -0.083439
vn 0.567780 0.139694 0.811241
v 0.138755 -0.356570 -0.017931
vn 0.943798 -0.180622 0.276805
v 0.171831 -0.411425 -0.151030
vn -0.897930 -0.347193 -0.270514
v 0.121956 -0.386086 -0.089550
vn -0.919102 0.167599 -0.356599
v 0.135219 -0.368984 -0.305654
vn 0.218381 -0.406147 -0.887330
v 0.175628 -0.390996 -0.326451
vn -0.138853 0.969923 -0.199923
v 0.149712 -0.341774 -0.262329
vn 0.839870 0.407326 -0.358754
v 0.215776 -0.378066 -0.293087
vn -0.873282 -0.334032 -0.354685
v -0.112740 -0.227220 -0.135566
vn -0.654778 -0.074338 -0.752157
v -0.099633 -0.194822 -0.169798
vn -0.190283 -0.955670 0.224693
v -0.047204 -0.289682 -0.063073
vn -0.290560 -0.818272 -0.495991
v -0.027997 -0.180376 -0.285750
vn 0.985027 -0.152276 -0.080829
v 0.013123 -0.268077 -0.178784
vn 0.493838 -0.788218 -0.367201
v 0.017250 -0.277345 -0.123509
vn -0.941591 -0.010238 -0.336602
v -0.121645 -0.185138 -0.133324
vn -0.924652 -0.379105 0.036042
v -0.117754 -0.233513 -0.097668
vn -0.574651 -0.793935 0.198604
v -0.086644 -0.271451 -0.034619
vn -0.658098 -0.721782 0.214330
v -0.079599 -0.272317 -0.065064
vn -0.928022 -0.358574 0.100993
v -0.105741 -0.233567 -0.052564
vn -0.502290 0.078897 -0.861092
v -0.058413 -0.241380 -0.186407
vn 0.566494 -0.607302 -0.557019
v 0.017249 -0.242655 -0.185285
vn 0.202929 -0.978747 0.029562
v 0.006499 -0.303626 -0.066977
vn -0.819555 -0.395108 -0.414994
v -0.088197 -0.179389 -0.177104
vn -0.479312 -0.342130 -0.808212
v -0.046410 -0.218761 -0.188014
vn -0.020131 -0.717805 -0.695953
v 0.004166 -0.235149 -0.204411
vn -0.872941 -0.487703 0.010940
v -0.086228 -0.279098 -0.118941
vn -0.873212 -0.239851 -0.424232
v -0.085144 -0.251500 -0.163092
vn -0.233407 0.086041 -0.968565
v -0.026752 -0.335060 -0.219941
vn 0.311745 0.178810 -0.933189
v -0.005754 -0.339694 -0.218655
vn 0.180105 -0.607135 0.773918
v -0.039608 -0.310899 -0.100635
vn 0.985762 0.037644 -0.163877
v 0.017888 -0.340940 -0.189068
vn 0.787974 -0.175086 0.590290
v 0.002522 -0.353314 -0.139096
vn 0.979490 -0.014741 0.200955
v 0.014747 -0.386905 -0.184311
vn -0.576865 -0.131551 -0.806177
v -0.019072 -0.406713 -0.215691
vn -0.911067 -0.377073 0.166651
v -0.029479 -0.401581 -0.178793
vn -0.886147 -0.408430 -0.218927
v -0.047602 -0.374967 -0.192460
vn -0.851325 -0.130775 -0.508079
v -0.062744 -0.331826 -0.193698
vn -0.671998 -0.124642 -0.729989
v -0.046174 -0.341807 -0.211364
vn 0.024092 0.095312 -0.995156
v -0.028627 -0.256445 -0.201262
vn 0.735209 -0.614580 0.285936
v -0.003927 -0.293122 -0.121291
vn 0.960664 0.009595 0.277549
v 0.013870 -0.311454 -0.159689
vn 0.721511 0.135370 -0.679041
v 0.004636 -0.299623 -0.202287
vn -0.503258 -0.596430 0.625302
v -0.059962 -0.321122 -0.111444
vn -0.894646 -0.427500 0.129816
v -0.066118 -0.339270 -0.139909
vn -0.939038 -0.338971 -0.057498
v -0.069467 -0.326741 -0.168691
vn -0.634347 -0.511915 0.579264
v -0.016284 -0.421684 -0.169043
vn -0.910085 -0.226363 -0.347140
v -0.028602 -0.407050 -0.201527
vn 0.760368 0.279780 -0.586143
v 0.010251 -0.402544 -0.219582
vn 0.236415 -0.354371 0.904726
v -0.002915 -0.414331 -0.159132
vn 0.174520 -0.468108 0.866267
v 0.002610 -0.446935 -0.161787
vn -0.725142 -0.503428 0.469818
v -0.016534 -0.457230 -0.187931
vn -0.955569 -0.095740 -0.278785
v -0.028859 -0.440524 -0.204180
vn -0.865352 -0.473868 -0.163142
v -0.006084 -0.432469 -0.378541
vn 0.019467 -0.982909 0.183060
v 0.008820 -0.476910 -0.195510
vn -0.557229 -0.828019 -0.062287
v 0.004826 -0.440485 -0.333518
vn 0.982084 -0.122313 0.143355
v 0.030941 -0.447392 -0.205423
vn 0.967119 -0.000544 -0.254323
v 0.023625 -0.437280 -0.248987
vn 0.973228 0.175409 0.148520
v 0.025720 -0.427011 -0.308045
vn 0.559736 -0.828451 0.019113
v 0.017684 -0.442708 -0.321676
vn -0.981594 0.154460 0.112319
v -0.003913 -0.427448 -0.342138
vn -0.928622 -0.263733 -0.260973
v -0.010516 -0.442313 -0.257639
vn -0.712784 -0.677057 -0.183120
v -0.020263 -0.454941 -0.218505
vn 0.206136 0.929189 0.306783
v 0.011151 -0.394651 -0.344607
vn 0.148154 -0.947299 -0.284033
v 0.008182 -0.461145 -0.247821
vn -0.261471 0.536257 -0.802534
v 0.003200 -0.412890 -0.223944
vn 0.919512 0.385502 -0.076720
v 0.040141 -0.325567 -0.449104
vn -0.172289 0.811176 0.558847
v 0.018683 -0.314479 -0.404147
vn -0.754307 0.627464 0.193157
v -0.028026 -0.335074 -0.410613
vn 0.114111 0.307834 -0.944572
v 0.018055 -0.347088 -0.485467
vn 0.907812 -0.318446 -0.272890
v 0.038644 -0.375688 -0.418193
vn -0.840453 -0.444395 -0.310084
v -0.031398 -0.358472 -0.460530
vn -0.315707 -0.713614 0.625367
v -0.029472 -0.164107 0.080946
vn -0.664995 -0.483418 0.569288
v -0.060109 -0.143216 0.070126
vn -0.932037 0.326403 -0.157382
v -0.099298 -0.025770 0.064352
vn -0.284299 -0.527239 0.800745
v -0.042342 -0.206017 0.056872
vn -0.284417 0.926928 0.244769
v -0.027122 0.035141 0.014810
vn -0.979246 0.024646 0.201172
v -0.117993 -0.129792 -0.006464
vn -0.678361 -0.341603 0.650488
v -0.093693 -0.185745 0.034260
vn -0.330920 -0.591082 0.735605
v -0.053591 -0.218048 0.039101
vn -0.964822 -0.253831 0.068468
v -0.093681 -0.081146 0.073305
vn -0.523612 0.847417 -0.087836
v -0.059281 0.024510 0.048231
vn 0.430678 -0.334999 0.838029
v 0.094061 -0.170916 0.055473
vn 0.205828 -0.565516 0.798641
v 0.030770 -0.174377 0.078658
vn 0.779717 0.580246 0.235281
v 0.075806 -0.009319 0.031397
vn 0.581845 -0.001199 0.813299
v 0.091606 -0.120198 0.073733
vn 0.360219 -0.434048 0.825739
v 0.074988 -0.187396 0.065572
vn 0.128737 0.974887 0.181720
v 0.005356 0.033925 0.017876
vn -0.727626 0.428673 -0.535537
v -0.096438 0.004553 0.094959
vn -0.361628 0.815392 -0.452063
v -0.069552 0.026636 0.089964
vn -0.726553 -0.671259 -0.146737
v -0.091724 -0.109561 0.113875
vn 0.274540 0.935972 -0.220417
v -0.055137 0.037611 0.124664
vn -0.880626 -0.325041 -0.344740
v -0.116428 -0.076928 0.141108
vn -0.250916 -0.967952 0.010511
v -0.034355 -0.139295 0.116327
vn -0.457549 -0.852740 -0.251959
v -0.075513 -0.131838 0.131634
vn -0.182539 -0.982749 -0.029733
v -0.047570 -0.143195 0.142430
vn 0.140138 0.931999 -0.334274
v -0.070460 0.050331 0.133815
vn -0.800753 0.274040 -0.532633
v -0.154323 0.010456 0.164128
vn -0.400727 0.792378 -0.459951
v -0.088470 0.046523 0.126860
vn -0.905516 -0.052934 -0.420998
v -0.109790 -0.025942 0.109201
vn -0.157237 0.948624 -0.274572
v 0.000450 0.044398 0.104899
vn 0.624058 -0.781185 0.017366
v 0.045083 -0.126083 0.155058
vn -0.668812 0.740275 -0.068438
v -0.040824 0.070284 0.226998
vn 0.955912 0.066217 -0.286092
v 0.069092 -0.017308 0.163238
vn 0.555978 0.768628 -0.316385
v 0.041265 0.028906 0.114494
vn -0.066536 0.908795 -0.411903
v 0.009593 0.061374 0.132117
vn -0.323481 0.901062 -0.288872
v -0.033389 0.034250 0.149364
vn 0.759267 -0.196148 0.620516
v 0.067611 -0.095069 0.088899
vn 0.943168 0.329683 -0.041754
v 0.060626 -0.004130 0.105191
vn 0.155341 -0.946191 0.283888
v 0.007195 -0.139125 0.122545
vn 0.728740 -0.645280 0.229240
v 0.036806 -0.124765 0.116926
vn -0.117445 0.993060 -0.006167
v -0.024533 0.024951 0.056900
vn -0.271602 0.948778 -0.161405
v -0.100718 0.057632 0.183116
vn -0.834047 -0.269916 -0.481156
v -0.135593 -0.035389 0.153933
vn -0.495326 -0.015995 0.868560
v -0.110354 -0.027344 0.394784
vn -0.344248 0.725438 0.596014
v -0.121305 0.017853 0.357741
vn -0.202851 -0.804323 0.558495
v -0.105279 -0.088241 0.322586
vn -0.340902 0.839506 0.423103
v -0.129615 0.034558 0.308047
vn -0.189821 -0.827923 0.527741
v -0.070878 -0.129158 0.302673
vn -0.260808 -0.539654 0.800471
v -0.137870 -0.046895 0.360600
vn -0.185033 -0.968319 0.167696
v -0.083033 -0.148484 0.243881
vn -0.147455 -0.952072 -0.267985
v -0.086412 -0.149834 0.207418
vn -0.404871 0.910453 -0.084588
v -0.148414 0.044651 0.236786
vn -0.223289 0.964024 0.144223
v -0.114468 0.052410 0.261050
vn -0.389778 0.907946 0.153971
v -0.146522 0.050974 0.273307
vn 0.003274 0.921151 0.389191
v -0.084954 0.051629 0.313287
vn -0.805319 -0.362419 -0.469163
v -0.143058 -0.097577 0.222315
vn -0.606986 -0.640791 -0.470058
v -0.117962 -0.130498 0.203169
vn -0.846021 -0.384791 -0.369032
v -0.153353 -0.049947 0.203127
vn -0.927534 -0.104377 -0.358868
v -0.178617 -0.003103 0.206373
vn 0.093946 0.983459 0.154861
v -0.073048 0.069136 0.243366
vn -0.701387 -0.681314 -0.209445
v -0.106317 -0.112300 0.169227
vn 0.231296 -0.937931 -0.258432
v -0.022060 -0.143432 0.203751
vn 0.315409 -0.943862 0.098191
v -0.027614 -0.146919 0.220788
vn 0.290997 -0.859225 0.420777
v -0.038509 -0.133414 0.285181
vn -0.000516 0.751969 0.659199
v -0.077348 0.000955 0.379448
vn 0.145739 0.980206 -0.133998
v -0.068816 0.068999 0.205921
vn -0.309513 0.950879 0.005512
v -0.109922 0.058000 0.225579
vn -0.545649 0.790353 -0.278584
v -0.132727 0.045014 0.180185
vn -0.090130 0.985138 -0.146217
v -0.047509 0.058469 0.225211
vn -0.312461 0.878978 0.360230
v -0.050920 0.040547 0.287723
vn -0.265305 -0.823781 -0.500996
v -0.073255 -0.136033 0.186157
vn -0.480401 0.804183 -0.350006
v -0.012820 0.064386 0.162622
vn 0.982196 -0.160447 -0.097711
v 0.076650 -0.057344 0.150183
vn 0.548915 -0.487687 0.678862
v 0.023202 -0.031635 0.366264
vn 0.057816 0.789007 0.611657
v 0.007936 0.042699 0.366809
vn 0.240625 0.159877 0.957361
v 0.066162 0.006905 0.384093
vn 0.299212 -0.606115 0.736951
v 0.034840 -0.059278 0.340833
vn 0.031906 0.929625 0.367124
v 0.015628 0.058964 0.319311
vn -0.127459 0.925653 0.356258
v -0.011201 0.061297 0.325603
vn -0.130606 0.975528 0.176881
v -0.014916 0.077344 0.269442
vn 0.684760 -0.696807 0.213457
v 0.086987 -0.087843 0.284924
vn 0.884780 -0.345650 -0.312553
v 0.083686 -0.095362 0.222705
vn 0.934324 -0.250844 -0.253211
v 0.102211 -0.062612 0.273201
vn 0.541595 -0.803448 -0.247279
v 0.061005 -0.125034 0.216571
vn 0.384205 -0.667444 0.637891
v 0.052716 -0.090627 0.318102
vn 0.542730 -0.815700 0.200194
v -0.006720 -0.088178 0.348222
vn 0.376868 0.044779 0.925184
v 0.013049 -0.014111 0.405068
vn 0.348158 0.910234 -0.224186
v 0.046073 0.077278 0.211965
vn 0.290286 0.955645 -0.049763
v 0.061248 0.072415 0.254008
vn -0.024435 0.993347 0.112534
v 0.007767 0.072521 0.266119
vn 0.039093 0.958149 0.283589
v 0.032460 0.079411 0.295779
vn -0.649160 0.729643 0.214970
v -0.039463 0.065555 0.278249
vn 0.988193 0.153090 0.006146
v 0.101564 0.032774 0.244592
vn 0.925875 0.022465 -0.377163
v 0.086480 -0.057617 0.225862
vn 0.820549 -0.091372 -0.564226
v 0.088677 -0.016494 0.266069
vn 0.735951 0.655779 -0.168317
v 0.088296 0.052136 0.224543
vn 0.830160 -0.423104 -0.363067
v 0.065222 -0.095173 0.199106
vn 0.245693 -0.949377 -0.195749
v -0.007792 -0.133249 0.193984
vn 0.208201 -0.927983 0.309031
v -0.020836 -0.131105 0.260839
vn 0.969199 -0.095854 -0.226859
v 0.083601 -0.011148 0.211983
vn -0.533062 0.719190 0.445658
v -0.025912 0.040346 0.355841
vn -0.203034 0.970704 -0.128496
v -0.017173 0.078480 0.212788
vn 0.023095 0.998550 -0.048620
v 0.011811 0.078526 0.211259
vn 0.756335 0.547080 -0.358694
v 0.078419 0.047274 0.186167
vn 0.932561 0.122745 -0.339504
v 0.088159 0.036915 0.198840
vn -0.391755 0.792235 0.467859
v -0.044782 0.008023 0.367482
vn 0.025322 -0.851560 0.523646
v -0.000642 -0.116465 0.312740
vn 0.247327 -0.907253 0.340179
v 0.021506 -0.126838 0.287703
vn 0.147531 -0.988355 -0.037278
v 0.002501 -0.142191 0.222036
vn -0.536095 -0.698061 0.474672
v -0.099042 -0.053143 0.378659
vn 0.159930 -0.985125 0.062854
v -0.037356 -0.087961 0.346357
vn -0.173830 0.583227 0.793492
v -0.023943 -0.011922 0.406612
vn 0.904198 -0.379507 0.195959
v 0.004744 -0.066241 0.359675
vn 0.901645 -0.217049 -0.374067
v 0.008776 -0.103567 0.392059
vn 0.205661 -0.795605 -0.569839
v -0.012928 -0.167159 0.385116
vn 0.000000 0.000000 0.000000
v -0.010232 -0.138306 0.395400
vn 0.978243 0.177916 0.106705
v 0.005786 -0.082088 0.431132
vn 0.649593 -0.532254 0.542895
v -0.008459 -0.158995 0.502352
vn 0.779673 0.537655 0.320995
v -0.000915 -0.066352 0.486253
vn 0.527911 -0.072096 0.846234
v -0.016075 -0.104328 0.525273
vn 0.479432 0.646017 0.593976
v -0.019235 -0.045058 0.418489
vn 0.901610 -0.420533 0.101248
v 0.010184 -0.151327 0.451510
vn 0.000000 0.000000 0.000000
v -0.058643 -0.140524 0.394353
vn -0.736359 -0.675215 0.043127
v -0.075142 -0.178968 0.455300
vn -0.844383 0.173783 0.506771
v -0.098811 -0.094121 0.504821
vn -0.403522 -0.294219 0.866374
v -0.072276 -0.120721 0.521718
vn -0.000912 0.484234 0.874938
v -0.041524 -0.072199 0.526656
vn 0.002164 -0.597346 -0.801980
v -0.050817 -0.128588 0.366143
vn -0.983153 0.177093 -0.045263
v -0.098384 -0.080399 0.445258
vn -0.830465 0.323190 0.453736
v -0.084792 -0.053188 0.412756
vn -0.290718 0.916130 0.276023
v -0.060568 -0.039375 0.478340
vn -0.463539 -0.871444 0.160365
v -0.066387 -0.094336 0.344774
vn 0.123854 -0.849398 0.513014
v -0.038958 -0.174528 0.501339
vn 0.024324 -0.976748 -0.213005
v -0.035838 -0.174507 0.428053
vn -0.771628 -0.462698 -0.436463
v -0.082119 -0.120711 0.390807
vn -0.836612 0.525270 -0.155472
v -0.174940 0.020908 0.225558
vn -0.691456 0.643898 0.327542
v -0.242054 -0.046525 0.269034
vn -0.247990 -0.696468 0.673374
v -0.201210 -0.104003 0.328974
vn -0.628661 0.104319 0.770651
v -0.203734 -0.045115 0.347311
vn -0.632803 0.175317 -0.754204
v -0.182165 -0.024371 0.240649
vn -0.516322 0.335972 0.787740
v -0.163966 -0.025187 0.360658
vn -0.600837 -0.798746 -0.031622
v -0.151335 -0.117034 0.262963
vn -0.645471 0.728672 0.228920
v -0.186649 0.002181 0.316574
vn 0.470506 -0.303104 -0.828705
v -0.243223 -0.109147 0.202416
vn -0.673705 0.262439 0.690831
v -0.276875 -0.079567 0.265415
vn -0.379811 -0.573415 0.725906
v -0.255140 -0.113290 0.266475
vn 0.075059 -0.883540 0.462303
v -0.234553 -0.145506 0.248497
vn 0.490114 -0.746529 -0.449980
v -0.206482 -0.135255 0.222888
vn 0.190808 -0.969144 0.156053
v -0.182299 -0.110903 0.273492
vn -0.273954 -0.438851 -0.855780
v -0.160058 -0.079512 0.253969
vn -0.273802 0.874041 -0.401354
v -0.218007 -0.035120 0.236656
vn -0.445544 0.861906 -0.242092
v -0.279818 -0.061953 0.201743
vn 0.314040 0.369819 -0.874421
v -0.220649 -0.063135 0.208336
vn -0.706102 -0.099991 0.701015
v -0.246066 -0.096567 0.285428
vn -0.659563 0.003050 0.751643
v -0.314004 -0.108273 0.241757
vn 0.240909 0.274738 -0.930850
v -0.298540 -0.103309 0.171506
vn -0.297460 0.166770 -0.940056
v -0.310994 -0.179695 0.145056
vn -0.864351 0.408587 -0.293179
v -0.329627 -0.099289 0.193446
vn -0.941329 -0.328175 0.078748
v -0.300033 -0.296709 0.148519
vn 0.852421 -0.149282 0.501092
v -0.262822 -0.265835 0.165215
vn -0.199585 -0.443739 0.873649
v -0.299538 -0.202220 0.211774
vn 0.534203 -0.725779 0.433442
v -0.277255 -0.147207 0.229228
vn 0.934807 0.347115 -0.075151
v -0.256804 -0.166425 0.190554
vn 0.735354 0.364066 -0.571586
v -0.269906 -0.169392 0.163011
vn -0.886522 -0.217854 0.408190
v -0.329073 -0.170409 0.198839
vn -0.936435 -0.053111 -0.346798
v -0.330460 -0.202060 0.159164
vn 0.072032 0.472755 -0.878245
v -0.273286 -0.303299 0.133819
vn 0.063009 -0.824564 0.562249
v -0.268743 -0.343493 0.154457
vn 0.611287 0.236320 -0.755302
v -0.244436 -0.316573 0.115863
vn -0.393334 0.027135 -0.918995
v -0.280183 -0.330295 0.106270
vn 0.184389 -0.653686 0.733958
v 0.096262 -0.047022 0.363250
vn 0.576819 -0.758245 0.303880
v 0.091922 -0.072066 0.313050
vn 0.688557 0.698414 0.195211
v 0.079901 0.063088 0.276677
vn 0.672510 -0.738665 0.045874
v 0.134108 -0.047293 0.331333
vn 0.195399 0.565911 0.800977
v 0.099574 0.028701 0.368492
vn 0.134634 0.853300 0.503739
v 0.055812 0.039083 0.344772
vn 0.131724 0.416139 0.899710
v 0.177000 0.074749 0.320911
vn 0.358785 -0.608006 -0.708238
v 0.185654 0.021500 0.246170
vn 0.526670 0.083740 0.845935
v 0.166353 0.038256 0.324169
vn -0.232410 0.794740 0.560691
v 0.131098 0.079542 0.309065
vn -0.481837 0.856298 -0.185975
v 0.154299 0.106234 0.267665
vn 0.812212 -0.578391 -0.075997
v 0.218711 0.035644 0.271638
vn -0.281660 -0.116765 -0.952383
v 0.147859 0.035307 0.256917
vn 0.504974 -0.863108 -0.006762
v 0.183258 0.002141 0.283682
vn 0.086358 0.893215 -0.441259
v 0.086113 0.048383 0.278114
vn 0.347105 -0.603679 -0.717697
v 0.124842 -0.013846 0.276902
vn 0.677017 -0.174936 0.714875
v 0.151121 -0.006857 0.353828
vn 0.682765 -0.683706 0.257638
v 0.165206 0.002002 0.302488
vn -0.404986 0.119408 -0.906492
v 0.126735 0.060863 0.253718
vn -0.298222 -0.202392 -0.932792
v 0.164078 0.024018 0.245717
vn 0.128054 -0.867822 -0.480091
v 0.152068 -0.003631 0.262438
vn 0.653699 -0.331126 0.680465
v 0.298979 0.095289 0.248267
vn 0.458395 0.190856 0.868014
v 0.244233 0.098978 0.286645
vn -0.434210 0.303150 -0.848270
v 0.185477 0.094393 0.242258
vn -0.111689 0.945981 0.304378
v 0.238580 0.142534 0.257622
vn 0.657640 -0.503799 0.560086
v 0.230789 0.059458 0.287237
vn -0.007145 -0.463891 -0.885864
v 0.207454 0.069156 0.234881
vn 0.355840 -0.925973 0.126302
v 0.267024 0.064262 0.249443
vn 0.036927 -0.949472 -0.311671
v 0.363045 0.099184 0.165840
vn -0.439427 -0.019566 -0.898065
v 0.252668 0.101659 0.202458
vn -0.257863 0.870189 -0.419855
v 0.271171 0.148171 0.218551
vn 0.428948 0.758264 0.490958
v 0.315363 0.136572 0.231174
vn -0.696971 0.621962 -0.356925
v 0.342449 0.121888 0.163277
vn 0.876075 0.237646 0.419543
v 0.375028 0.123570 0.180672
vn 0.283858 -0.727439 -0.624706
v 0.350644 0.117461 0.105695
vn 0.278723 0.492334 -0.824573
v 0.379953 0.140979 0.117922
vn -0.921706 -0.149440 -0.357946
v 0.341692 0.122942 0.135539
vn -0.595098 0.803647 0.003251
v 0.349956 0.161373 0.125748
vn 0.219507 0.934781 -0.279287
v 0.136884 0.370080 -0.860856
vn -0.796838 0.434069 -0.420277
v 0.105778 0.417672 -0.757127
vn -0.313823 -0.936467 0.156666
v 0.114676 0.364751 -0.743404
vn -0.782182 -0.562877 0.267137
v 0.119644 0.309115 -0.887851
vn -0.106460 -0.808581 0.578673
v 0.145594 0.289495 -0.913284
vn -0.954780 -0.229282 -0.189277
v 0.084747 0.392877 -0.706042
vn -0.969227 -0.104083 -0.223083
v 0.098403 0.390773 -0.744275
vn -0.949235 -0.301875 0.088461
v 0.116303 0.340657 -0.862953
vn -0.847523 0.439965 -0.296875
v 0.117916 0.371126 -0.832143
vn 0.425375 -0.720179 0.548086
v 0.146295 0.326105 -0.850947
vn 0.937161 0.255019 0.238107
v 0.165750 0.342194 -0.873630
vn 0.843810 0.519003 -0.136458
v 0.127376 0.404236 -0.750746
vn 0.286143 0.871549 -0.398150
v 0.115914 0.427685 -0.752325
vn 0.720260 0.692474 -0.041294
v 0.116792 0.442290 -0.703240
vn 0.990845 -0.113940 0.072414
v 0.139638 0.390899 -0.738248
vn 0.923710 0.357812 0.136857
v 0.150251 0.354077 -0.849189
vn -0.978463 0.006740 -0.206312
v 0.122759 0.301450 -0.928537
vn -0.791072 0.453329 -0.410728
v 0.121527 0.342180 -0.918215
vn 0.401462 0.738644 -0.541511
v 0.156652 0.353129 -0.915888
vn 0.966520 -0.188269 0.174340
v 0.168026 0.309284 -0.906567
vn -0.041279 0.978816 -0.200537
v 0.144398 0.319763 -0.959116
vn 0.851544 -0.221805 0.475053
v 0.180549 0.266387 -0.948160
vn -0.891044 -0.226708 0.393249
v 0.115573 0.269340 -0.953621
vn -0.066785 -0.706662 0.704393
v -0.185163 0.233152 -0.857511
vn 0.521240 -0.835609 0.173399
v -0.144233 0.300086 -0.771995
vn 0.933047 -0.335039 -0.131044
v -0.121086 0.331418 -0.730623
vn 0.382395 0.568327 -0.728545
v -0.150211 0.339525 -0.796904
vn 0.954840 0.025130 -0.296057
v -0.147876 0.330426 -0.781011
vn 0.985503 -0.169407 0.009267
v -0.161606 0.256821 -0.861656
vn -0.946502 0.188673 0.261794
v -0.198493 0.263571 -0.856544
vn -0.827080 -0.477622 0.296336
v -0.173163 0.307110 -0.760154
vn -0.942977 0.314946 -0.107722
v -0.169341 0.331807 -0.772501
vn -0.677688 0.634875 -0.371042
v -0.162418 0.343890 -0.785338
vn -0.914992 0.387680 -0.111775
v -0.175450 0.345853 -0.734557
vn -0.523193 0.779638 -0.344142
v -0.188758 0.268896 -0.887264
vn 0.724833 0.503423 -0.470301
v -0.171251 0.264127 -0.889030
vn 0.930279 0.257405 -0.261388
v -0.172770 0.225092 -0.930461
vn 0.367839 -0.695519 0.617210
v -0.186053 0.161921 -0.936302
vn 0.350565 -0.748607 0.562753
v -0.172970 0.209013 -0.882689
vn -0.932969 -0.072882 0.352501
v -0.221098 0.230598 -0.879809
vn -0.296429 0.775622 -0.557262
v -0.198312 0.253427 -0.923365
vn -0.929971 -0.189350 0.315119
v -0.215431 0.208000 -0.914301
vn 0.011193 0.964876 -0.262465
v -0.190530 0.218581 -0.958642
vn -0.607059 -0.569104 0.554617
v -0.215645 0.161071 -0.940269
vn -0.899778 0.332802 -0.282209
v 0.028594 0.675313 -0.552202
vn 0.408605 0.139895 0.901927
v 0.110730 0.684794 -0.529379
vn -0.580579 0.747742 0.322195
v 0.015011 0.637855 -0.500437
vn -0.220310 0.844232 0.488606
v 0.034764 0.641539 -0.485889
vn 0.219280 0.719175 0.659320
v 0.060790 0.647821 -0.488244
vn 0.708266 -0.573434 0.411743
v 0.131536 0.680540 -0.556310
vn -0.333787 -0.406070 -0.850702
v 0.056730 0.648598 -0.579175
vn -0.016665 -0.672860 -0.739582
v 0.059009 0.617313 -0.560321
vn 0.589411 -0.700860 -0.401733
v 0.116607 0.673968 -0.575956
vn 0.627471 -0.676117 -0.386195
v 0.085620 0.638509 -0.563107
vn 0.831289 -0.555735 0.010803
v 0.095548 0.643389 -0.539107
vn -0.610964 -0.495648 -0.617297
v 0.015855 0.597634 -0.526235
vn 0.466139 -0.831738 -0.301541
v 0.056349 0.578601 -0.511532
vn 0.935404 -0.243109 0.256742
v 0.065281 0.597500 -0.477297
vn 0.823385 0.198839 0.531507
v 0.054350 0.617216 -0.456608
vn -0.634106 -0.162636 -0.755949
v 0.037852 0.654774 -0.574576
vn -0.488062 0.868668 -0.084915
v 0.123535 0.774992 -0.570262
vn -0.673472 0.636537 0.375839
v 0.060241 0.711747 -0.551000
vn -0.617321 0.262138 0.741754
v 0.126257 0.756363 -0.534010
vn 0.023700 0.393395 0.919064
v 0.096291 0.695998 -0.540043
vn 0.032390 -0.474311 0.879761
v 0.153044 0.718264 -0.543146
vn 0.301399 -0.923767 0.236249
v 0.169761 0.711157 -0.547999
vn -0.768020 0.461916 -0.443597
v 0.064113 0.715244 -0.584201
vn -0.664071 0.697227 -0.269971
v 0.089219 0.748095 -0.582878
vn -0.248380 -0.448552 0.858550
v 0.134876 0.735823 -0.532708
vn -0.185632 0.359861 0.914353
v 0.083695 0.707814 -0.541267
vn -0.358326 0.056906 -0.931860
v 0.084989 0.699416 -0.608458
vn 0.222522 -0.543875 -0.809125
v 0.093268 0.675328 -0.605268
vn -0.162569 0.444114 -0.881098
v 0.117852 0.743181 -0.605772
vn 0.605281 -0.733240 -0.309829
v 0.172972 0.713117 -0.569913
vn 0.462307 0.206873 -0.862251
v 0.166531 0.757507 -0.594734
vn 0.321245 -0.242542 -0.915410
v 0.132102 0.715177 -0.604463
vn 0.567795 -0.427067 -0.703721
v 0.160870 0.719991 -0.592945
vn -0.384343 0.861291 0.332352
v 0.153159 -0.399292 -0.203286
vn -0.484149 -0.833782 -0.265343
v 0.145532 -0.451479 -0.208627
vn 0.834332 -0.510597 0.207800
v 0.184680 -0.450762 -0.194792
vn 0.914503 -0.402277 -0.043102
v 0.187647 -0.403889 -0.238992
vn -0.869620 -0.437436 -0.228931
v 0.141561 -0.417500 -0.238247
vn 0.405309 0.675030 0.616489
v 0.190583 -0.347100 -0.252015
vn -0.809816 0.373981 0.452036
v 0.137093 -0.373855 -0.244834
vn 0.994215 -0.106183 0.016160
v 0.041654 -0.419423 -0.370152
vn 0.124469 -0.801753 -0.584550
v 0.029428 -0.443119 -0.386400
vn -0.284173 -0.950816 -0.123270
v 0.011178 -0.445580 -0.372259
vn 0.084488 -0.784652 -0.614153
v 0.013802 -0.396740 -0.413074
vn -0.612509 0.386836 0.689340
v 0.000493 -0.371373 -0.384959
vn -0.943554 -0.291585 0.157109
v -0.011218 -0.376815 -0.401832
vn 0.623330 0.492868 0.607076
v 0.032541 -0.368465 -0.389880
# 791 vertices, 0 vertices normals

f 40//40 266//266 37//37
f 16//16 18//18 20//20
f 82//82 84//84 81//81
f 81//81 73//73 82//82
f 107//107 95//95 85//85
f 24//24 30//30 23//23
f 22//22 69//69 21//21
f 22//22 21//21 20//20
f 22//22 20//20 24//24
f 15//15 16//16 20//20
f 146//146 4//4 43//43
f 146//146 43//43 35//35
f 143//143 36//36 34//34
f 11//11 8//8 12//12
f 40//40 37//37 38//38
f 40//40 38//38 39//39
f 31//31 42//42 6//6
f 5//5 231//231 238//238
f 69//69 23//23 233//233
f 10//10 23//23 30//30
f 10//10 30//30 238//238
f 15//15 20//20 21//21
f 50//50 3//3 2//2
f 13//13 9//9 42//42
f 160//160 13//13 147//147
f 44//44 46//46 15//15
f 15//15 21//21 44//44
f 3//3 4//4 145//145
f 7//7 226//226 8//8
f 8//8 227//227 266//266
f 8//8 266//266 40//40
f 37//37 266//266 228//228
f 37//37 228//228 9//9
f 9//9 230//230 229//229
f 9//9 229//229 42//42
f 10//10 234//234 233//233
f 39//39 161//161 12//12
f 3//3 17//17 14//14
f 1//1 14//14 15//15
f 45//45 50//50 2//2
f 50//50 4//4 3//3
f 1//1 15//15 46//46
f 238//238 30//30 5//5
f 10//10 233//233 23//23
f 232//232 231//231 5//5
f 232//232 5//5 6//6
f 31//31 13//13 42//42
f 13//13 38//38 37//37
f 13//13 37//37 9//9
f 161//161 39//39 38//38
f 39//39 12//12 8//8
f 39//39 8//8 40//40
f 7//7 8//8 11//11
f 7//7 11//11 49//49
f 49//49 59//59 7//7
f 8//8 226//226 227//227
f 9//9 228//228 230//230
f 42//42 229//229 232//232
f 238//238 234//234 10//10
f 34//34 33//33 178//178
f 34//34 178//178 143//143
f 4//4 146//146 149//149
f 146//146 35//35 36//36
f 149//149 145//145 4//4
f 4//4 50//50 43//43
f 15//15 14//14 16//16
f 3//3 14//14 2//2
f 14//14 1//1 2//2
f 69//69 22//22 23//23
f 22//22 24//24 23//23
f 69//69 233//233 58//58
f 274//274 226//226 7//7
f 160//160 161//161 38//38
f 42//42 232//232 6//6
f 160//160 38//38 13//13
f 147//147 13//13 31//31
f 25//25 156//156 28//28
f 29//29 30//30 24//24
f 27//27 24//24 20//20
f 27//27 20//20 18//18
f 18//18 16//16 41//41
f 28//28 6//6 5//5
f 16//16 17//17 41//41
f 157//157 158//158 19//19
f 157//157 19//19 18//18
f 29//29 27//27 26//26
f 29//29 26//26 25//25
f 30//30 29//29 28//28
f 31//31 28//28 156//156
f 32//32 25//25 26//26
f 152//152 157//157 41//41
f 152//152 41//41 17//17
f 31//31 6//6 28//28
f 5//5 30//30 28//28
f 17//17 16//16 14//14
f 157//157 18//18 41//41
f 32//32 26//26 19//19
f 32//32 19//19 158//158
f 26//26 27//27 18//18
f 26//26 18//18 19//19
f 27//27 29//29 24//24
f 29//29 25//25 28//28
f 156//156 25//25 32//32
f 21//21 69//69 68//68
f 68//68 44//44 21//21
f 70//70 67//67 68//68
f 47//47 43//43 50//50
f 35//35 43//43 47//47
f 35//35 47//47 48//48
f 60//60 55//55 53//53
f 60//60 53//53 59//59
f 61//61 78//78 77//77
f 61//61 77//77 79//79
f 80//80 85//85 95//95
f 82//82 57//57 84//84
f 280//280 57//57 82//82
f 82//82 71//71 280//280
f 86//86 34//34 36//36
f 86//86 36//36 90//90
f 59//59 53//53 7//7
f 47//47 52//52 96//96
f 47//47 96//96 48//48
f 45//45 64//64 62//62
f 46//46 44//44 64//64
f 79//79 54//54 61//61
f 85//85 56//56 78//78
f 85//85 272//272 277//277
f 83//83 278//278 272//272
f 83//83 272//272 85//85
f 85//85 78//78 107//107
f 83//83 85//85 80//80
f 59//59 49//49 88//88
f 50//50 51//51 47//47
f 97//97 52//52 47//47
f 280//280 69//69 58//58
f 53//53 273//273 274//274
f 54//54 79//79 275//275
f 54//54 275//275 55//55
f 56//56 276//276 77//77
f 277//277 286//286 56//56
f 84//84 283//283 278//278
f 58//58 279//279 280//280
f 91//91 59//59 88//88
f 60//60 92//92 61//61
f 51//51 62//62 97//97
f 82//82 73//73 71//71
f 64//64 45//45 46//46
f 96//96 90//90 48//48
f 44//44 68//68 64//64
f 47//47 51//51 97//97
f 71//71 69//69 280//280
f 83//83 84//84 278//278
f 56//56 77//77 78//78
f 108//108 78//78 61//61
f 54//54 55//55 60//60
f 54//54 60//60 61//61
f 92//92 60//60 59//59
f 92//92 59//59 91//91
f 53//53 274//274 7//7
f 55//55 275//275 273//273
f 55//55 273//273 53//53
f 56//56 286//286 276//276
f 57//57 283//283 84//84
f 88//88 49//49 144//144
f 36//36 35//35 48//48
f 36//36 48//48 90//90
f 67//67 63//63 64//64
f 64//64 63//63 62//62
f 45//45 51//51 50//50
f 62//62 51//51 45//45
f 64//64 68//68 67//67
f 69//69 71//71 70//70
f 69//69 70//70 68//68
f 71//71 73//73 70//70
f 92//92 108//108 61//61
f 85//85 277//277 56//56
f 107//107 78//78 108//108
f 81//81 84//84 83//83
f 66//66 67//67 70//70
f 75//75 106//106 66//66
f 83//83 80//80 81//81
f 72//72 75//75 66//66
f 81//81 72//72 73//73
f 74//74 76//76 80//80
f 74//74 80//80 95//95
f 75//75 76//76 74//74
f 75//75 74//74 103//103
f 95//95 104//104 74//74
f 65//65 106//106 100//100
f 104//104 103//103 74//74
f 63//63 67//67 65//65
f 106//106 75//75 103//103
f 67//67 66//66 106//106
f 67//67 106//106 65//65
f 70//70 73//73 66//66
f 73//73 72//72 66//66
f 80//80 76//76 72//72
f 80//80 72//72 81//81
f 75//75 72//72 76//76
f 125//125 88//88 87//87
f 118//118 90//90 96//96
f 108//108 119//119 93//93
f 91//91 125//125 121//121
f 91//91 121//121 92//92
f 87//87 34//34 86//86
f 88//88 144//144 33//33
f 88//88 33//33 87//87
f 91//91 88//88 125//125
f 87//87 33//33 34//34
f 108//108 92//92 121//121
f 108//108 121//121 119//119
f 89//89 98//98 100//100
f 107//107 94//94 95//95
f 52//52 129//129 118//118
f 102//102 133//133 129//129
f 99//99 136//136 132//132
f 94//94 93//93 136//136
f 108//108 93//93 107//107
f 97//97 62//62 98//98
f 65//65 98//98 63//63
f 105//105 99//99 133//133
f 100//100 101//101 102//102
f 103//103 104//104 105//105
f 100//100 106//106 101//101
f 136//136 99//99 94//94
f 132//132 133//133 99//99
f 89//89 102//102 129//129
f 129//129 52//52 89//89
f 118//118 96//96 52//52
f 94//94 107//107 93//93
f 104//104 95//95 94//94
f 104//104 94//94 99//99
f 97//97 98//98 89//89
f 97//97 89//89 52//52
f 98//98 62//62 63//63
f 100//100 98//98 65//65
f 102//102 89//89 100//100
f 102//102 101//101 105//105
f 102//102 105//105 133//133
f 99//99 105//105 104//104
f 101//101 106//106 103//103
f 101//101 103//103 105//105
f 116//116 115//115 130//130
f 128//128 129//129 133//133
f 127//127 128//128 130//130
f 131//131 135//135 117//117
f 131//131 117//117 116//116
f 116//116 117//117 115//115
f 715//715 115//115 113//113
f 130//130 115//115 714//714
f 123//123 124//124 110//110
f 110//110 706//706 113//113
f 706//706 111//111 112//112
f 134//134 120//120 114//114
f 134//134 114//114 113//113
f 714//714 112//112 130//130
f 134//134 135//135 136//136
f 134//134 136//136 137//137
f 131//131 132//132 135//135
f 128//128 133//133 131//131
f 90//90 124//124 86//86
f 86//86 124//124 123//123
f 86//86 123//123 126//126
f 123//123 122//122 126//126
f 137//137 119//119 120//120
f 109//109 124//124 90//90
f 109//109 90//90 118//118
f 118//118 129//129 127//127
f 706//706 703//703 113//113
f 130//130 112//112 111//111
f 117//117 134//134 113//113
f 123//123 120//120 122//122
f 125//125 87//87 126//126
f 130//130 128//128 131//131
f 127//127 109//109 118//118
f 119//119 121//121 122//122
f 137//137 93//93 119//119
f 122//122 121//121 125//125
f 122//122 125//125 126//126
f 129//129 128//128 127//127
f 133//133 132//132 131//131
f 132//132 136//136 135//135
f 93//93 137//137 136//136
f 122//122 120//120 119//119
f 127//127 130//130 111//111
f 127//127 111//111 109//109
f 120//120 134//134 137//137
f 110//110 124//124 111//111
f 110//110 111//111 706//706
f 114//114 110//110 113//113
f 120//120 123//123 110//110
f 120//120 110//110 114//114
f 124//124 109//109 111//111
f 115//115 117//117 113//113
f 117//117 135//135 134//134
f 116//116 130//130 131//131
f 115//115 715//715 714//714
f 126//126 87//87 86//86
f 139//139 141//141 140//140
f 141//141 142//142 140//140
f 722//722 140//140 142//142
f 142//142 141//141 721//721
f 141//141 723//723 721//721
f 140//140 722//722 139//139
f 138//138 141//141 139//139
f 141//141 138//138 723//723
f 139//139 723//723 138//138
f 180//180 144//144 179//179
f 160//160 170//170 161//161
f 12//12 172//172 179//179
f 12//12 179//179 11//11
f 180//180 33//33 144//144
f 161//161 170//170 172//172
f 172//172 12//12 161//161
f 149//149 146//146 176//176
f 143//143 177//177 146//146
f 179//179 144//144 49//49
f 179//179 49//49 11//11
f 146//146 36//36 143//143
f 178//178 33//33 180//180
f 32//32 158//158 153//153
f 153//153 186//186 154//154
f 154//154 190//190 148//148
f 190//190 192//192 160//160
f 190//190 160//160 147//147
f 183//183 150//150 149//149
f 156//156 148//148 147//147
f 156//156 147//147 31//31
f 152//152 17//17 145//145
f 151//151 186//186 155//155
f 152//152 159//159 157//157
f 186//186 153//153 155//155
f 32//32 153//153 156//156
f 159//159 158//158 157//157
f 160//160 192//192 170//170
f 156//156 153//153 148//148
f 147//147 148//148 190//190
f 153//153 154//154 148//148
f 184//184 186//186 151//151
f 151//151 150//150 184//184
f 183//183 184//184 150//150
f 149//149 176//176 183//183
f 150//150 151//151 152//152
f 150//150 152//152 145//145
f 151//151 155//155 159//159
f 151//151 159//159 152//152
f 155//155 153//153 158//158
f 155//155 158//158 159//159
f 145//145 149//149 150//150
f 145//145 17//17 3//3
f 169//169 168//168 185//185
f 168//168 167//167 165//165
f 168//168 165//165 187//187
f 165//165 163//163 162//162
f 173//173 164//164 166//166
f 189//189 154//154 185//185
f 181//181 174//174 177//177
f 174//174 181//181 171//171
f 162//162 163//163 174//174
f 173//173 166//166 182//182
f 166//166 164//164 734//734
f 168//168 188//188 185//185
f 171//171 172//172 170//170
f 177//177 143//143 178//178
f 181//181 180//180 179//179
f 182//182 169//169 185//185
f 186//186 184//184 185//185
f 191//191 192//192 188//188
f 191//191 188//188 187//187
f 189//189 185//185 188//188
f 170//170 192//192 191//191
f 183//183 176//176 173//173
f 174//174 175//175 177//177
f 171//171 170//170 191//191
f 181//181 179//179 172//172
f 181//181 172//172 171//171
f 183//183 182//182 184//184
f 186//186 185//185 154//154
f 154//154 189//189 190//190
f 190//190 189//189 192//192
f 191//191 187//187 162//162
f 191//191 162//162 171//171
f 165//165 162//162 187//187
f 183//183 173//173 182//182
f 163//163 726//726 164//164
f 726//726 163//163 165//165
f 164//164 173//173 163//163
f 171//171 162//162 174//174
f 175//175 174//174 163//163
f 173//173 175//175 163//163
f 176//176 175//175 173//173
f 734//734 167//167 166//166
f 182//182 166//166 169//169
f 167//167 169//169 166//166
f 168//168 169//169 167//167
f 189//189 188//188 192//192
f 187//187 188//188 168//168
f 175//175 146//146 177//177
f 177//177 178//178 180//180
f 177//177 180//180 181//181
f 146//146 175//175 176//176
f 182//182 185//185 184//184
f 193//193 744//744 196//196
f 197//197 198//198 196//196
f 198//198 743//743 195//195
f 193//193 738//738 744//744
f 196//196 744//744 197//197
f 194//194 193//193 195//195
f 193//193 194//194 738//738
f 195//195 193//193 196//196
f 195//195 196//196 198//198
f 1//1 208//208 200//200
f 199//199 206//206 201//201
f 2//2 199//199 201//201
f 201//201 45//45 2//2
f 1//1 202//202 203//203
f 200//200 199//199 1//1
f 203//203 208//208 1//1
f 2//2 1//1 199//199
f 202//202 1//1 46//46
f 207//207 199//199 200//200
f 204//204 45//45 201//201
f 202//202 46//46 45//45
f 202//202 45//45 204//204
f 204//204 210//210 202//202
f 210//210 203//203 202//202
f 204//204 201//201 206//206
f 209//209 203//203 210//210
f 208//208 748//748 207//207
f 206//206 205//205 211//211
f 209//209 749//749 208//208
f 756//756 211//211 205//205
f 205//205 207//207 747//747
f 747//747 207//207 748//748
f 748//748 208//208 749//749
f 749//749 209//209 759//759
f 206//206 207//207 205//205
f 207//207 200//200 208//208
f 203//203 209//209 208//208
f 199//199 207//207 206//206
f 210//210 758//758 759//759
f 757//757 210//210 204//204
f 206//206 757//757 204//204
f 757//757 211//211 756//756
f 755//755 759//759 758//758
f 210//210 757//757 758//758
f 210//210 759//759 209//209
f 206//206 211//211 757//757
f 224//224 220//220 213//213
f 769//769 765//765 212//212
f 763//763 215//215 761//761
f 212//212 214//214 217//217
f 212//212 766//766 213//213
f 213//213 218//218 214//214
f 216//216 214//214 218//218
f 216//216 218//218 215//215
f 763//763 216//216 215//215
f 217//217 769//769 212//212
f 212//212 213//213 214//214
f 763//763 769//769 217//217
f 763//763 217//217 216//216
f 765//765 766//766 212//212
f 213//213 766//766 224//224
f 761//761 215//215 221//221
f 216//216 217//217 214//214
f 774//774 219//219 224//224
f 774//774 224//224 766//766
f 777//777 223//223 774//774
f 775//775 223//223 777//777
f 221//221 222//222 775//775
f 219//219 220//220 224//224
f 223//223 220//220 219//219
f 222//222 218//218 223//223
f 215//215 218//218 222//222
f 215//215 222//222 221//221
f 223//223 218//218 220//220
f 222//222 223//223 775//775
f 220//220 218//218 213//213
f 774//774 223//223 219//219
f 77//77 294//294 79//79
f 239//239 256//256 265//265
f 239//239 265//265 237//237
f 234//234 236//236 268//268
f 253//253 263//263 261//261
f 253//253 261//261 249//249
f 252//252 261//261 259//259
f 252//252 259//259 245//245
f 248//248 260//260 257//257
f 248//248 257//257 241//241
f 225//225 244//244 258//258
f 225//225 258//258 309//309
f 232//232 229//229 243//243
f 232//232 243//243 240//240
f 242//242 230//230 228//228
f 242//242 228//228 247//247
f 227//227 226//226 255//255
f 227//227 255//255 250//250
f 255//255 226//226 264//264
f 256//256 239//239 225//225
f 256//256 309//309 328//328
f 325//325 236//236 235//235
f 235//235 238//238 237//237
f 240//240 239//239 237//237
f 244//244 243//243 242//242
f 244//244 242//242 241//241
f 248//248 247//247 246//246
f 248//248 246//246 245//245
f 252//252 251//251 250//250
f 252//252 250//250 249//249
f 255//255 254//254 253//253
f 330//330 258//258 257//257
f 330//330 257//257 332//332
f 332//332 260//260 259//259
f 332//332 259//259 331//331
f 263//263 262//262 334//334
f 263//263 334//334 434//434
f 240//240 225//225 239//239
f 250//250 251//251 266//266
f 250//250 266//266 227//227
f 242//242 243//243 229//229
f 242//242 229//229 230//230
f 240//240 237//237 231//231
f 240//240 231//231 232//232
f 237//237 238//238 231//231
f 243//243 244//244 225//225
f 243//243 225//225 240//240
f 225//225 309//309 256//256
f 244//244 241//241 257//257
f 244//244 257//257 258//258
f 247//247 248//248 241//241
f 247//247 241//241 242//242
f 248//248 245//245 259//259
f 248//248 259//259 260//260
f 251//251 252//252 245//245
f 251//251 245//245 246//246
f 252//252 249//249 261//261
f 333//333 261//261 263//263
f 333//333 263//263 434//434
f 255//255 253//253 249//249
f 255//255 249//249 250//250
f 264//264 254//254 255//255
f 253//253 254//254 262//262
f 253//253 262//262 263//263
f 258//258 330//330 309//309
f 260//260 332//332 257//257
f 261//261 333//333 331//331
f 261//261 331//331 259//259
f 314//314 236//236 325//325
f 234//234 268//268 233//233
f 234//234 235//235 236//236
f 325//325 235//235 326//326
f 238//238 235//235 234//234
f 326//326 265//265 256//256
f 326//326 256//256 328//328
f 267//267 254//254 264//264
f 264//264 226//226 274//274
f 308//308 262//262 254//254
f 308//308 254//254 267//267
f 334//334 262//262 308//308
f 326//326 235//235 265//265
f 265//265 235//235 237//237
f 246//246 247//247 228//228
f 246//246 228//228 266//266
f 266//266 251//251 246//246
f 279//279 296//296 282//282
f 268//268 281//281 279//279
f 267//267 298//298 306//306
f 267//267 306//306 308//308
f 292//292 307//307 297//297
f 289//289 303//303 305//305
f 289//289 305//305 295//295
f 285//285 302//302 304//304
f 285//285 304//304 291//291
f 269//269 288//288 270//270
f 282//282 57//57 280//280
f 282//282 280//280 279//279
f 283//283 57//57 282//282
f 271//271 287//287 277//277
f 271//271 277//277 272//272
f 293//293 299//299 273//273
f 293//293 273//273 275//275
f 264//264 274//274 299//299
f 270//270 284//284 300//300
f 272//272 278//278 284//284
f 272//272 284//284 271//271
f 339//339 362//362 269//269
f 339//339 269//269 300//300
f 283//283 301//301 284//284
f 285//285 286//286 287//287
f 285//285 287//287 288//288
f 289//289 290//290 276//276
f 289//289 276//276 291//291
f 292//292 293//293 294//294
f 292//292 294//294 295//295
f 297//297 298//298 299//299
f 300//300 301//301 360//360
f 300//300 360//360 339//339
f 362//362 302//302 269//269
f 364//364 303//303 304//304
f 364//364 304//304 365//365
f 305//305 364//364 366//366
f 305//305 366//366 307//307
f 367//367 368//368 306//306
f 367//367 306//306 307//307
f 284//284 270//270 271//271
f 274//274 273//273 299//299
f 275//275 79//79 294//294
f 275//275 294//294 293//293
f 286//286 277//277 287//287
f 278//278 283//283 284//284
f 271//271 270//270 288//288
f 271//271 288//288 287//287
f 300//300 269//269 270//270
f 269//269 302//302 285//285
f 269//269 285//285 288//288
f 286//286 285//285 291//291
f 286//286 291//291 276//276
f 304//304 303//303 289//289
f 304//304 289//289 291//291
f 290//290 289//289 295//295
f 290//290 295//295 294//294
f 305//305 307//307 292//292
f 305//305 292//292 295//295
f 367//367 307//307 366//366
f 293//293 292//292 297//297
f 293//293 297//297 299//299
f 299//299 298//298 267//267
f 299//299 267//267 264//264
f 307//307 306//306 298//298
f 307//307 298//298 297//297
f 302//302 362//362 365//365
f 302//302 365//365 304//304
f 303//303 364//364 305//305
f 306//306 368//368 308//308
f 58//58 268//268 279//279
f 281//281 296//296 279//279
f 284//284 301//301 300//300
f 282//282 301//301 283//283
f 314//314 281//281 236//236
f 236//236 281//281 268//268
f 268//268 58//58 233//233
f 308//308 368//368 334//334
f 301//301 296//296 360//360
f 282//282 296//296 301//301
f 77//77 276//276 290//290
f 290//290 294//294 77//77
f 319//319 439//439 433//433
f 436//436 444//444 462//462
f 437//437 438//438 316//316
f 372//372 354//354 370//370
f 347//347 348//348 363//363
f 348//348 375//375 371//371
f 498//498 338//338 324//324
f 498//498 324//324 323//323
f 314//314 324//324 338//338
f 324//324 325//325 326//326
f 324//324 326//326 327//327
f 327//327 326//326 328//328
f 327//327 328//328 329//329
f 333//333 446//446 445//445
f 333//333 445//445 331//331
f 342//342 436//436 443//443
f 309//309 330//330 313//313
f 434//434 446//446 333//333
f 322//322 321//321 315//315
f 336//336 444//444 310//310
f 439//439 312//312 311//311
f 443//443 447//447 337//337
f 443//443 337//337 342//342
f 312//312 439//439 319//319
f 313//313 332//332 445//445
f 335//335 319//319 336//336
f 319//319 444//444 336//336
f 312//312 500//500 311//311
f 312//312 319//319 501//501
f 328//328 309//309 313//313
f 328//328 313//313 329//329
f 330//330 332//332 313//313
f 332//332 331//331 445//445
f 434//434 334//334 337//337
f 434//434 337//337 447//447
f 324//324 314//314 325//325
f 318//318 315//315 329//329
f 501//501 495//495 500//500
f 501//501 500//500 312//312
f 500//500 499//499 320//320
f 321//321 499//499 496//496
f 327//327 323//323 324//324
f 310//310 444//444 436//436
f 315//315 321//321 323//323
f 315//315 323//323 327//327
f 499//499 321//321 322//322
f 501//501 319//319 335//335
f 433//433 444//444 319//319
f 329//329 315//315 327//327
f 320//320 317//317 441//441
f 322//322 317//317 499//499
f 316//316 317//317 318//318
f 329//329 313//313 318//318
f 437//437 318//318 313//313
f 315//315 318//318 322//322
f 441//441 317//317 316//316
f 441//441 316//316 438//438
f 317//317 322//322 318//318
f 320//320 311//311 500//500
f 313//313 445//445 437//437
f 311//311 320//320 441//441
f 311//311 441//441 439//439
f 317//317 320//320 499//499
f 437//437 316//316 318//318
f 509//509 338//338 498//498
f 356//356 358//358 357//357
f 344//344 359//359 346//346
f 374//374 385//385 343//343
f 374//374 343//343 367//367
f 364//364 390//390 374//374
f 362//362 363//363 390//390
f 362//362 390//390 365//365
f 381//381 403//403 342//342
f 367//367 366//366 374//374
f 340//340 388//388 370//370
f 370//370 369//369 355//355
f 341//341 369//369 354//354
f 362//362 339//339 361//361
f 362//362 361//361 363//363
f 342//342 343//343 385//385
f 340//340 310//310 388//388
f 344//344 345//345 281//281
f 344//344 281//281 338//338
f 351//351 356//356 341//341
f 351//351 341//341 353//353
f 381//381 342//342 385//385
f 355//355 336//336 340//340
f 336//336 310//310 340//340
f 354//354 369//369 370//370
f 436//436 382//382 310//310
f 310//310 382//382 388//388
f 390//390 364//364 365//365
f 366//366 364//364 374//374
f 343//343 368//368 367//367
f 403//403 382//382 436//436
f 339//339 360//360 361//361
f 360//360 345//345 361//361
f 360//360 296//296 345//345
f 296//296 281//281 345//345
f 345//345 344//344 346//346
f 359//359 506//506 346//346
f 361//361 346//346 347//347
f 346//346 361//361 345//345
f 353//353 341//341 354//354
f 369//369 341//341 504//504
f 369//369 504//504 508//508
f 351//351 358//358 356//356
f 346//346 506//506 350//350
f 346//346 350//350 347//347
f 344//344 509//509 359//359
f 338//338 509//509 344//344
f 342//342 403//403 436//436
f 337//337 343//343 342//342
f 334//334 368//368 343//343
f 334//334 343//343 337//337
f 338//338 281//281 314//314
f 336//336 355//355 335//335
f 350//350 506//506 357//357
f 350//350 357//357 358//358
f 372//372 370//370 388//388
f 370//370 355//355 340//340
f 353//353 391//391 351//351
f 352//352 350//350 358//358
f 347//347 349//349 348//348
f 347//347 363//363 361//361
f 352//352 391//391 377//377
f 352//352 377//377 349//349
f 351//351 352//352 358//358
f 375//375 348//348 349//349
f 375//375 349//349 377//377
f 347//347 350//350 352//352
f 347//347 352//352 349//349
f 353//353 354//354 372//372
f 371//371 380//380 363//363
f 352//352 351//351 391//391
f 363//363 348//348 371//371
f 385//385 389//389 378//378
f 405//405 406//406 378//378
f 403//403 383//383 382//382
f 388//388 373//373 372//372
f 382//382 383//383 388//388
f 374//374 390//390 389//389
f 408//408 383//383 403//403
f 388//388 383//383 373//373
f 385//385 374//374 389//389
f 373//373 383//383 408//408
f 375//375 377//377 386//386
f 413//413 387//387 386//386
f 389//389 384//384 378//378
f 386//386 371//371 375//375
f 380//380 386//386 387//387
f 380//380 390//390 363//363
f 387//387 379//379 380//380
f 408//408 413//413 373//373
f 403//403 381//381 402//402
f 377//377 391//391 376//376
f 377//377 376//376 413//413
f 379//379 384//384 380//380
f 381//381 385//385 407//407
f 381//381 407//407 404//404
f 371//371 386//386 380//380
f 378//378 406//406 407//407
f 377//377 413//413 386//386
f 378//378 407//407 385//385
f 376//376 353//353 372//372
f 376//376 372//372 373//373
f 380//380 384//384 390//390
f 402//402 381//381 404//404
f 376//376 391//391 353//353
f 378//378 384//384 405//405
f 390//390 384//384 389//389
f 376//376 373//373 413//413
f 405//405 384//384 379//379
f 405//405 379//379 412//412
f 387//387 408//408 398//398
f 396//396 399//399 397//397
f 396//396 424//424 414//414
f 394//394 402//402 395//395
f 394//394 419//419 417//417
f 394//394 417//417 393//393
f 393//393 398//398 408//408
f 387//387 410//410 379//379
f 407//407 406//406 411//411
f 401//401 402//402 394//394
f 400//400 414//414 415//415
f 397//397 398//398 396//396
f 399//399 409//409 397//397
f 392//392 404//404 407//407
f 401//401 403//403 402//402
f 397//397 409//409 410//410
f 400//400 392//392 411//411
f 406//406 405//405 411//411
f 379//379 410//410 412//412
f 412//412 410//410 411//411
f 412//412 411//411 405//405
f 413//413 408//408 387//387
f 396//396 398//398 393//393
f 411//411 392//392 407//407
f 400//400 415//415 392//392
f 415//415 416//416 395//395
f 396//396 393//393 417//417
f 396//396 417//417 424//424
f 403//403 401//401 408//408
f 393//393 408//408 401//401
f 404//404 392//392 395//395
f 419//419 394//394 395//395
f 393//393 401//401 394//394
f 402//402 404//404 395//395
f 415//415 414//414 424//424
f 414//414 400//400 399//399
f 414//414 399//399 396//396
f 387//387 397//397 410//410
f 398//398 397//397 387//387
f 410//410 409//409 400//400
f 410//410 400//400 411//411
f 400//400 409//409 399//399
f 415//415 395//395 392//392
f 782//782 779//779 421//421
f 418//418 415//415 424//424
f 423//423 416//416 415//415
f 417//417 419//419 418//418
f 418//418 424//424 417//417
f 418//418 425//425 423//423
f 426//426 419//419 395//395
f 426//426 395//395 416//416
f 416//416 421//421 426//426
f 421//421 420//420 426//426
f 778//778 782//782 421//421
f 421//421 779//779 420//420
f 780//780 420//420 779//779
f 416//416 422//422 778//778
f 420//420 425//425 418//418
f 423//423 425//425 422//422
f 423//423 422//422 416//416
f 425//425 420//420 780//780
f 418//418 426//426 420//420
f 778//778 421//421 416//416
f 418//418 419//419 426//426
f 780//780 422//422 425//425
f 418//418 423//423 415//415
f 429//429 784//784 783//783
f 428//428 782//782 427//427
f 428//428 429//429 430//430
f 427//427 429//429 428//428
f 430//430 429//429 783//783
f 429//429 427//427 784//784
f 782//782 784//784 427//427
f 447//447 446//446 434//434
f 452//452 433//433 440//440
f 444//444 433//433 462//462
f 443//443 436//436 435//435
f 452//452 462//462 433//433
f 432//432 445//445 446//446
f 445//445 432//432 437//437
f 431//431 449//449 448//448
f 431//431 437//437 432//432
f 431//431 448//448 438//438
f 440//440 465//465 452//452
f 435//435 464//464 443//443
f 431//431 438//438 437//437
f 431//431 432//432 449//449
f 438//438 448//448 440//440
f 438//438 440//440 441//441
f 443//443 464//464 461//461
f 446//446 461//461 442//442
f 432//432 442//442 449//449
f 433//433 439//439 440//440
f 461//461 447//447 443//443
f 442//442 432//432 446//446
f 435//435 436//436 462//462
f 439//439 441//441 440//440
f 447//447 461//461 446//446
f 465//465 440//440 448//448
f 469//469 458//458 460//460
f 469//469 460//460 456//456
f 456//456 474//474 469//469
f 457//457 474//474 473//473
f 457//457 473//473 468//468
f 471//471 455//455 454//454
f 470//470 453//453 455//455
f 487//487 474//474 456//456
f 435//435 462//462 463//463
f 450//450 451//451 487//487
f 470//470 464//464 453//453
f 455//455 453//453 463//463
f 476//476 478//478 472//472
f 476//476 472//472 473//473
f 468//468 465//465 466//466
f 466//466 467//467 457//457
f 458//458 467//467 459//459
f 461//461 451//451 450//450
f 463//463 462//462 454//454
f 449//449 459//459 467//467
f 442//442 461//461 450//450
f 442//442 450//450 460//460
f 466//466 448//448 449//449
f 448//448 466//466 465//465
f 471//471 452//452 465//465
f 450//450 487//487 456//456
f 454//454 452//452 471//471
f 464//464 451//451 461//461
f 464//464 470//470 451//451
f 470//470 487//487 451//451
f 472//472 478//478 471//471
f 470//470 455//455 478//478
f 478//478 455//455 471//471
f 452//452 454//454 462//462
f 455//455 463//463 454//454
f 464//464 435//435 453//453
f 463//463 453//453 435//435
f 471//471 468//468 473//473
f 471//471 473//473 472//472
f 473//473 474//474 484//484
f 457//457 469//469 474//474
f 456//456 460//460 450//450
f 469//469 457//457 458//458
f 457//457 468//468 466//466
f 465//465 468//468 471//471
f 449//449 467//467 466//466
f 457//457 467//467 458//458
f 442//442 460//460 459//459
f 442//442 459//459 449//449
f 458//458 459//459 460//460
f 485//485 785//785 791//791
f 485//485 791//791 482//482
f 476//476 473//473 484//484
f 483//483 474//474 487//487
f 482//482 475//475 477//477
f 470//470 478//478 479//479
f 486//486 479//479 478//478
f 486//486 478//478 476//476
f 481//481 479//479 486//486
f 476//476 484//484 486//486
f 481//481 477//477 787//787
f 481//481 785//785 480//480
f 477//477 483//483 482//482
f 487//487 485//485 482//482
f 787//787 786//786 481//481
f 477//477 481//481 486//486
f 786//786 785//785 481//481
f 487//487 480//480 485//485
f 485//485 480//480 785//785
f 481//481 480//480 479//479
f 487//487 479//479 480//480
f 477//477 475//475 787//787
f 486//486 483//483 477//477
f 483//483 487//487 482//482
f 483//483 484//484 474//474
f 484//484 483//483 486//486
f 487//487 470//470 479//479
f 790//790 490//490 493//493
f 791//791 488//488 489//489
f 492//492 491//491 488//488
f 490//490 790//790 489//489
f 791//791 489//489 789//789
f 491//491 492//492 788//788
f 488//488 491//491 489//489
f 489//489 491//491 490//490
f 490//490 491//491 493//493
f 788//788 493//493 491//491
f 531//531 494//494 505//505
f 495//495 512//512 502//502
f 505//505 532//532 531//531
f 529//529 532//532 505//505
f 495//495 497//497 494//494
f 496//496 499//499 502//502
f 500//500 502//502 499//499
f 505//505 497//497 335//335
f 495//495 501//501 497//497
f 503//503 323//323 321//321
f 503//503 321//321 496//496
f 323//323 503//503 498//498
f 335//335 497//497 501//501
f 503//503 513//513 533//533
f 500//500 495//495 502//502
f 497//497 505//505 494//494
f 498//498 503//503 533//533
f 504//504 507//507 529//529
f 356//356 357//357 507//507
f 506//506 530//530 357//357
f 356//356 507//507 341//341
f 505//505 335//335 508//508
f 530//530 506//506 359//359
f 504//504 341//341 507//507
f 369//369 335//335 355//355
f 369//369 508//508 335//335
f 533//533 522//522 509//509
f 530//530 529//529 357//357
f 529//529 507//507 357//357
f 529//529 508//508 504//504
f 529//529 505//505 508//508
f 533//533 509//509 498//498
f 534//534 520//520 560//560
f 553//553 516//516 517//517
f 528//528 533//533 513//513
f 515//515 531//531 517//517
f 518//518 520//520 534//534
f 520//520 519//519 560//560
f 521//521 519//519 510//510
f 519//519 520//520 510//510
f 518//518 513//513 511//511
f 521//521 535//535 519//519
f 517//517 531//531 590//590
f 514//514 512//512 553//553
f 517//517 516//516 515//515
f 528//528 513//513 561//561
f 561//561 513//513 558//558
f 516//516 553//553 512//512
f 558//558 513//513 518//518
f 515//515 512//512 494//494
f 494//494 531//531 515//515
f 502//502 521//521 496//496
f 494//494 512//512 495//495
f 511//511 510//510 520//520
f 511//511 520//520 518//518
f 510//510 496//496 521//521
f 512//512 514//514 502//502
f 514//514 521//521 502//502
f 514//514 535//535 521//521
f 516//516 512//512 515//515
f 496//496 510//510 511//511
f 496//496 511//511 503//503
f 503//503 511//511 513//513
f 528//528 522//522 533//533
f 564//564 595//595 527//527
f 527//527 580//580 526//526
f 580//580 596//596 526//526
f 530//530 526//526 596//596
f 565//565 525//525 592//592
f 523//523 565//565 589//589
f 523//523 531//531 532//532
f 523//523 532//532 565//565
f 528//528 564//564 527//527
f 528//528 527//527 522//522
f 564//564 528//528 561//561
f 564//564 561//561 524//524
f 565//565 532//532 529//529
f 527//527 526//526 522//522
f 530//530 565//565 529//529
f 525//525 530//530 596//596
f 530//530 525//525 565//565
f 526//526 530//530 359//359
f 509//509 522//522 526//526
f 509//509 526//526 359//359
f 539//539 635//635 633//633
f 633//633 536//536 537//537
f 543//543 542//542 549//549
f 556//556 603//603 624//624
f 549//549 563//563 543//543
f 566//566 568//568 579//579
f 567//567 579//579 568//568
f 593//593 604//604 567//567
f 585//585 587//587 592//592
f 593//593 598//598 604//604
f 566//566 569//569 663//663
f 569//569 578//578 577//577
f 537//537 539//539 633//633
f 537//537 547//547 539//539
f 547//547 545//545 539//539
f 536//536 633//633 541//541
f 541//541 602//602 536//536
f 545//545 559//559 544//544
f 544//544 546//546 545//545
f 628//628 546//546 544//544
f 635//635 546//546 628//628
f 539//539 546//546 635//635
f 545//545 547//547 552//552
f 539//539 545//545 546//546
f 535//535 550//550 551//551
f 559//559 545//545 552//552
f 537//537 536//536 557//557
f 518//518 534//534 558//558
f 558//558 552//552 561//561
f 552//552 558//558 559//559
f 534//534 560//560 544//544
f 534//534 544//544 559//559
f 560//560 628//628 544//544
f 560//560 519//519 628//628
f 519//519 551//551 628//628
f 519//519 535//535 551//551
f 552//552 562//562 561//561
f 557//557 598//598 562//562
f 547//547 557//557 562//562
f 547//547 562//562 552//552
f 598//598 557//557 604//604
f 559//559 558//558 534//534
f 537//537 557//557 547//547
f 538//538 602//602 541//541
f 634//634 542//542 540//540
f 548//548 549//549 634//634
f 549//549 542//542 634//634
f 540//540 624//624 538//538
f 548//548 634//634 642//642
f 548//548 642//642 550//550
f 553//553 550//550 514//514
f 548//548 550//550 553//553
f 563//563 590//590 554//554
f 563//563 548//548 553//553
f 563//563 549//549 548//548
f 556//556 591//591 603//603
f 555//555 554//554 591//591
f 535//535 514//514 550//550
f 517//517 590//590 563//563
f 554//554 543//543 563//563
f 624//624 602//602 538//538
f 624//624 540//540 556//556
f 556//556 540//540 542//542
f 591//591 556//556 555//555
f 556//556 542//542 555//555
f 542//542 543//543 555//555
f 555//555 543//543 554//554
f 563//563 553//553 517//517
f 668//668 567//567 568//568
f 570//570 571//571 567//567
f 579//579 567//567 604//604
f 588//588 581//581 665//665
f 581//581 580//580 595//595
f 581//581 595//595 582//582
f 582//582 595//595 572//572
f 582//582 583//583 581//581
f 581//581 583//583 665//665
f 583//583 668//668 665//665
f 583//583 570//570 668//668
f 582//582 572//572 570//570
f 570//570 572//572 571//571
f 572//572 584//584 593//593
f 572//572 593//593 571//571
f 593//593 567//567 571//571
f 597//597 585//585 592//592
f 597//597 588//588 585//585
f 588//588 665//665 585//585
f 524//524 584//584 572//572
f 582//582 570//570 583//583
f 570//570 567//567 668//668
f 524//524 594//594 564//564
f 595//595 580//580 527//527
f 524//524 572//572 594//594
f 581//581 588//588 596//596
f 581//581 596//596 580//580
f 588//588 597//597 596//596
f 597//597 592//592 525//525
f 593//593 562//562 598//598
f 525//525 596//596 597//597
f 584//584 562//562 593//593
f 562//562 584//584 524//524
f 562//562 524//524 561//561
f 564//564 594//594 595//595
f 595//595 594//594 572//572
f 605//605 569//569 566//566
f 664//664 577//577 573//573
f 577//577 600//600 573//573
f 575//575 573//573 574//574
f 576//576 574//574 573//573
f 576//576 573//573 600//600
f 577//577 599//599 600//600
f 575//575 574//574 586//586
f 575//575 586//586 587//587
f 589//589 586//586 574//574
f 592//592 587//587 586//586
f 663//663 568//568 566//566
f 569//569 605//605 578//578
f 664//664 569//569 577//577
f 565//565 592//592 589//589
f 589//589 576//576 590//590
f 531//531 523//523 590//590
f 603//603 591//591 599//599
f 554//554 601//601 591//591
f 554//554 590//590 601//601
f 591//591 600//600 599//599
f 589//589 592//592 586//586
f 590//590 523//523 589//589
f 589//589 574//574 576//576
f 590//590 576//576 601//601
f 599//599 578//578 603//603
f 599//599 577//577 578//578
f 601//601 600//600 591//591
f 576//576 600//600 601//601
f 620//620 624//624 603//603
f 602//602 622//622 536//536
f 602//602 624//624 622//622
f 536//536 622//622 557//557
f 622//622 604//604 557//557
f 604//604 613//613 579//579
f 579//579 613//613 566//566
f 620//620 603//603 578//578
f 620//620 578//578 606//606
f 578//578 605//605 606//606
f 604//604 622//622 613//613
f 605//605 609//609 606//606
f 566//566 613//613 609//609
f 566//566 609//609 605//605
f 614//614 625//625 626//626
f 613//613 622//622 623//623
f 609//609 611//611 614//614
f 614//614 606//606 609//609
f 612//612 614//614 611//611
f 614//614 612//612 610//610
f 619//619 612//612 611//611
f 625//625 610//610 612//612
f 611//611 609//609 613//613
f 623//623 611//611 613//613
f 619//619 611//611 623//623
f 610//610 625//625 614//614
f 626//626 607//607 614//614
f 606//606 614//614 607//607
f 607//607 620//620 606//606
f 607//607 608//608 615//615
f 607//607 615//615 608//608
f 618//618 617//617 616//616
f 618//618 616//616 625//625
f 623//623 617//617 619//619
f 619//619 617//617 618//618
f 619//619 618//618 612//612
f 612//612 618//618 625//625
f 620//620 627//627 624//624
f 623//623 621//621 617//617
f 622//622 621//621 623//623
f 622//622 624//624 627//627
f 622//622 627//627 621//621
f 621//621 616//616 617//617
f 627//627 616//616 621//621
f 616//616 626//626 625//625
f 626//626 627//627 607//607
f 607//607 627//627 620//620
f 616//616 627//627 626//626
f 628//628 551//551 632//632
f 630//630 538//538 541//541
f 630//630 641//641 538//538
f 646//646 630//630 631//631
f 630//630 541//541 631//631
f 538//538 641//641 634//634
f 631//631 541//541 633//633
f 540//540 538//538 634//634
f 643//643 629//629 635//635
f 643//643 635//635 632//632
f 632//632 635//635 628//628
f 629//629 631//631 635//635
f 633//633 635//635 631//631
f 551//551 550//550 632//632
f 550//550 642//642 632//632
f 646//646 631//631 629//629
f 642//642 636//636 632//632
f 642//642 634//634 641//641
f 645//645 648//648 644//644
f 640//640 641//641 639//639
f 640//640 642//642 641//641
f 630//630 646//646 638//638
f 647//647 654//654 638//638
f 639//639 638//638 654//654
f 636//636 640//640 654//654
f 636//636 654//654 648//648
f 650//650 644//644 648//648
f 640//640 639//639 654//654
f 638//638 637//637 647//647
f 637//637 629//629 644//644
f 650//650 647//647 644//644
f 647//647 637//637 644//644
f 638//638 639//639 641//641
f 638//638 641//641 630//630
f 632//632 636//636 645//645
f 636//636 648//648 645//645
f 640//640 636//636 642//642
f 637//637 646//646 629//629
f 637//637 638//638 646//646
f 643//643 632//632 645//645
f 643//643 645//645 644//644
f 644//644 629//629 643//643
f 656//656 654//654 655//655
f 657//657 653//653 647//647
f 647//647 653//653 654//654
f 656//656 655//655 652//652
f 656//656 652//652 659//659
f 655//655 654//654 652//652
f 648//648 654//654 656//656
f 647//647 650//650 657//657
f 657//657 651//651 653//653
f 648//648 656//656 649//649
f 649//649 656//656 659//659
f 659//659 651//651 649//649
f 650//650 648//648 649//649
f 650//650 649//649 658//658
f 658//658 649//649 651//651
f 650//650 658//658 657//657
f 657//657 658//658 651//651
f 654//654 653//653 652//652
f 652//652 651//651 660//660
f 662//662 651//651 659//659
f 660//660 651//651 662//662
f 659//659 652//652 661//661
f 651//651 652//652 653//653
f 661//661 652//652 660//660
f 662//662 661//661 660//660
f 662//662 659//659 661//661
f 575//575 587//587 678//678
f 666//666 680//680 679//679
f 663//663 569//569 664//664
f 663//663 664//664 666//666
f 678//678 680//680 666//666
f 568//568 679//679 667//667
f 663//663 679//679 568//568
f 664//664 575//575 678//678
f 675//675 678//678 587//587
f 675//675 587//587 677//677
f 677//677 587//587 585//585
f 677//677 585//585 665//665
f 665//665 668//668 677//677
f 672//672 668//668 667//667
f 575//575 664//664 573//573
f 679//679 663//663 666//666
f 664//664 678//678 666//666
f 667//667 668//668 568//568
f 671//671 672//672 667//667
f 668//668 672//672 677//677
f 667//667 679//679 671//671
f 673//673 686//686 681//681
f 671//671 688//688 669//669
f 671//671 669//669 672//672
f 688//688 680//680 674//674
f 688//688 671//671 680//680
f 672//672 669//669 673//673
f 689//689 688//688 674//674
f 670//670 682//682 689//689
f 682//682 675//675 689//689
f 689//689 675//675 686//686
f 689//689 674//674 670//670
f 687//687 686//686 673//673
f 676//676 670//670 674//674
f 673//673 681//681 677//677
f 680//680 676//676 674//674
f 678//678 682//682 683//683
f 677//677 681//681 675//675
f 681//681 686//686 675//675
f 679//679 680//680 671//671
f 680//680 683//683 676//676
f 676//676 683//683 670//670
f 683//683 682//682 670//670
f 678//678 683//683 680//680
f 678//678 675//675 682//682
f 677//677 672//672 673//673
f 688//688 685//685 669//669
f 669//669 687//687 673//673
f 687//687 693//693 686//686
f 689//689 690//690 688//688
f 684//684 685//685 688//688
f 689//689 686//686 692//692
f 689//689 691//691 690//690
f 692//692 691//691 689//689
f 695//695 691//691 692//692
f 691//691 696//696 684//684
f 691//691 684//684 690//690
f 690//690 684//684 688//688
f 694//694 685//685 684//684
f 696//696 694//694 684//684
f 693//693 692//692 686//686
f 693//693 695//695 692//692
f 694//694 693//693 687//687
f 694//694 695//695 693//693
f 696//696 695//695 694//694
f 685//685 687//687 669//669
f 694//694 687//687 685//685
f 696//696 691//691 697//697
f 697//697 698//698 696//696
f 695//695 696//696 700//700
f 699//699 695//695 700//700
f 696//696 698//698 700//700
f 699//699 697//697 691//691
f 699//699 691//691 695//695
f 699//699 698//698 697//697
f 700//700 698//698 699//699
f 720//720 719//719 711//711
f 719//719 718//718 701//701
f 714//714 715//715 712//712
f 706//706 112//112 702//702
f 701//701 713//713 712//712
f 701//701 712//712 716//716
f 707//707 706//706 702//702
f 702//702 112//112 713//713
f 709//709 702//702 701//701
f 710//710 708//708 704//704
f 711//711 716//716 710//710
f 715//715 703//703 710//710
f 703//703 707//707 708//708
f 701//701 702//702 713//713
f 715//715 716//716 712//712
f 715//715 113//113 703//703
f 710//710 704//704 705//705
f 714//714 713//713 112//112
f 720//720 710//710 705//705
f 701//701 718//718 709//709
f 718//718 708//708 709//709
f 718//718 704//704 708//708
f 710//710 703//703 708//708
f 709//709 708//708 707//707
f 703//703 706//706 707//707
f 709//709 707//707 702//702
f 711//711 710//710 720//720
f 711//711 701//701 716//716
f 719//719 701//701 711//711
f 716//716 715//715 710//710
f 712//712 713//713 714//714
f 717//717 705//705 704//704
f 717//717 721//721 723//723
f 721//721 719//719 720//720
f 719//719 717//717 718//718
f 721//721 717//717 719//719
f 704//704 718//718 717//717
f 721//721 720//720 722//722
f 705//705 722//722 720//720
f 717//717 723//723 705//705
f 722//722 142//142 721//721
f 139//139 705//705 723//723
f 722//722 705//705 139//139
f 734//734 732//732 731//731
f 730//730 724//724 731//731
f 730//730 732//732 735//735
f 735//735 732//732 733//733
f 741//741 740//740 735//735
f 728//728 727//727 725//725
f 725//725 729//729 728//728
f 724//724 729//729 725//725
f 737//737 736//736 729//729
f 733//733 727//727 735//735
f 736//736 735//735 727//727
f 741//741 735//735 736//736
f 725//725 726//726 165//165
f 731//731 165//165 167//167
f 730//730 731//731 732//732
f 736//736 728//728 729//729
f 739//739 724//724 740//740
f 725//725 731//731 724//724
f 740//740 724//724 730//730
f 164//164 733//733 734//734
f 733//733 732//732 734//734
f 731//731 725//725 165//165
f 736//736 737//737 741//741
f 739//739 729//729 724//724
f 728//728 736//736 727//727
f 727//727 164//164 726//726
f 727//727 726//726 725//725
f 740//740 730//730 735//735
f 167//167 734//734 731//731
f 727//727 733//733 164//164
f 194//194 195//195 743//743
f 742//742 197//197 744//744
f 743//743 742//742 741//741
f 194//194 737//737 738//738
f 743//743 737//737 194//194
f 744//744 738//738 742//742
f 739//739 742//742 738//738
f 739//739 740//740 742//742
f 743//743 741//741 737//737
f 738//738 737//737 739//739
f 739//739 737//737 729//729
f 743//743 197//197 742//742
f 742//742 740//740 741//741
f 197//197 743//743 198//198
f 748//748 764//764 770//770
f 749//749 746//746 764//764
f 756//756 745//745 760//760
f 760//760 745//745 767//767
f 745//745 762//762 767//767
f 762//762 745//745 205//205
f 762//762 747//747 770//770
f 748//748 770//770 747//747
f 749//749 764//764 748//748
f 750//750 746//746 749//749
f 759//759 750//750 749//749
f 747//747 762//762 205//205
f 756//756 205//205 745//745
f 754//754 753//753 755//755
f 752//752 772//772 754//754
f 760//760 767//767 771//771
f 760//760 771//771 751//751
f 751//751 771//771 772//772
f 752//752 751//751 772//772
f 755//755 753//753 750//750
f 760//760 751//751 752//752
f 772//772 753//753 754//754
f 757//757 754//754 755//755
f 757//757 755//755 758//758
f 752//752 757//757 756//756
f 756//756 760//760 752//752
f 759//759 755//755 750//750
f 752//752 754//754 757//757
f 768//768 767//767 762//762
f 765//765 764//764 746//746
f 763//763 762//762 770//770
f 763//763 770//770 769//769
f 769//769 770//770 764//764
f 769//769 764//764 765//765
f 768//768 762//762 763//763
f 768//768 763//763 761//761
f 766//766 765//765 750//750
f 771//771 773//773 776//776
f 773//773 771//771 768//768
f 768//768 761//761 773//773
f 776//776 753//753 772//772
f 768//768 771//771 767//767
f 776//776 772//772 771//771
f 777//777 753//753 776//776
f 765//765 746//746 750//750
f 753//753 774//774 750//750
f 221//221 773//773 761//761
f 775//775 776//776 773//773
f 775//775 773//773 221//221
f 777//777 776//776 775//775
f 774//774 753//753 777//777
f 766//766 750//750 774//774
f 783//783 778//778 781//781
f 784//784 778//778 783//783
f 778//778 784//784 782//782
f 781//781 779//779 782//782
f 782//782 428//428 781//781
f 780//780 779//779 781//781
f 422//422 781//781 778//778
f 422//422 780//780 781//781
f 781//781 430//430 783//783
f 428//428 430//430 781//781
f 493//493 788//788 790//790
f 788//788 785//785 786//786
f 788//788 492//492 785//785
f 786//786 787//787 475//475
f 482//482 791//791 789//789
f 475//475 482//482 789//789
f 475//475 789//789 790//790
f 788//788 786//786 790//790
f 475//475 790//790 786//786
f 492//492 791//791 785//785
f 791//791 492//492 488//488
f 489//489 790//790 789//789
# 1576 faces, 0 coords texture

# End of File
