####
#
# OBJ File Generated by Meshlab
#
####
# Object centaur2.obj
#
# Vertices: 790
# Faces: 1576
#
####
vn 0.070686 0.935535 -0.346089
v 0.018594 0.882095 0.054023
vn 0.365355 0.924364 -0.109847
v -0.002742 0.906102 0.083562
vn 0.508491 0.776693 -0.371732
v 0.000054 0.893793 0.030033
vn 0.355755 0.624345 -0.695436
v 0.002189 0.835524 -0.033530
vn -0.397477 0.449230 0.800128
v -0.005969 0.855159 0.257052
vn -0.093149 0.971461 0.218145
v -0.010513 0.904392 0.166806
vn 0.097295 0.991974 -0.080754
v -0.016607 0.910794 0.088201
vn -0.912999 -0.092056 0.397440
v -0.136024 0.506078 0.146871
vn -0.245730 0.494441 -0.833754
v -0.038072 0.534997 -0.122816
vn -0.519224 0.446672 -0.728623
v -0.084521 0.508856 -0.118011
vn -0.783366 0.511749 -0.352775
v -0.121329 0.569532 -0.021444
vn -0.753523 -0.234545 0.614159
v -0.108101 0.498075 0.194385
vn -0.510086 -0.254121 0.821727
v -0.062635 0.598267 0.275446
vn -0.191777 0.482113 -0.854862
v -0.031295 0.579379 -0.094686
vn -0.472671 0.352491 -0.807671
v -0.073137 0.580073 -0.078760
vn -0.349209 0.931978 0.097320
v -0.066653 0.903014 0.100706
vn -0.478174 0.779179 0.405252
v -0.062699 0.887516 0.156058
vn -0.594583 0.574176 0.562844
v -0.082671 0.836154 0.205024
vn -0.655581 0.628530 0.418527
v -0.102530 0.854719 0.160525
vn -0.762607 0.444270 0.470164
v -0.134860 0.808310 0.165997
vn -0.852377 0.251124 0.458683
v -0.149061 0.764108 0.171103
vn -0.947828 0.294864 0.121149
v -0.166256 0.777769 0.121477
vn -0.839003 0.478567 0.258935
v -0.147328 0.821065 0.120121
vn -0.664210 0.356028 0.657319
v -0.103591 0.770434 0.233658
vn -0.473794 0.265587 0.839632
v -0.073612 0.756690 0.260501
vn -0.338021 -0.060123 0.939216
v -0.044455 0.647033 0.291658
vn -0.257097 0.151941 0.954366
v -0.033146 0.709212 0.289525
vn -0.638103 0.146278 0.755928
v -0.111507 0.693598 0.252599
vn -0.649675 -0.127633 0.749421
v -0.120970 0.643448 0.246156
vn -0.833983 0.090567 0.544307
v -0.140280 0.667261 0.220563
vn -0.905102 -0.135346 0.403078
v -0.150513 0.611557 0.203790
vn -0.806740 -0.399103 0.435761
v -0.137164 0.584159 0.211997
vn -0.976860 -0.175052 0.122891
v -0.168568 0.643533 0.147781
vn -0.944543 -0.320935 0.069570
v -0.157368 0.601952 0.154574
vn -0.919671 0.071287 0.386166
v -0.159132 0.687852 0.180258
vn -0.850490 0.415385 -0.322680
v -0.146884 0.515767 -0.031146
vn -0.733067 0.468398 -0.493169
v -0.089937 0.591492 -0.052624
vn -0.981898 -0.168405 -0.086694
v -0.151223 0.589628 0.106844
vn -0.742888 -0.342404 0.575219
v -0.118512 0.561127 0.214296
vn -0.684899 0.704938 0.184324
v -0.114674 0.869117 0.108572
vn -0.983904 0.018997 0.177682
v -0.142352 0.529886 0.124181
vn -0.972584 0.227454 -0.048432
v -0.146326 0.546150 0.059896
vn -0.939323 -0.296393 0.172695
v -0.143353 0.568321 0.147788
vn -0.131241 -0.256360 0.957630
v 0.002059 0.532449 0.277084
vn 0.051585 0.037087 -0.997980
v 0.014915 0.652010 -0.072736
vn 0.531502 0.570868 0.625792
v 0.068686 0.839837 0.245766
vn -0.431152 0.900015 -0.063886
v 0.035142 0.905301 0.088186
vn -0.663815 0.684555 -0.301220
v 0.032841 0.892687 0.032530
vn 0.171642 0.441257 -0.880813
v 0.067038 0.578126 -0.096601
vn 0.278465 0.225127 0.933689
v 0.061678 0.752197 0.281354
vn 0.166832 0.944276 0.283743
v 0.052515 0.904038 0.165214
vn 0.240321 -0.250808 0.937732
v 0.058063 0.549990 0.276628
vn 0.918329 0.332571 -0.214636
v 0.179109 0.532788 -0.008704
vn 0.947008 0.316983 -0.051937
v 0.205397 0.483837 0.028518
vn 0.550554 -0.254719 0.794989
v 0.097551 0.463314 0.228469
vn 0.541589 0.301806 -0.784598
v 0.112417 0.581190 -0.076047
vn 0.990960 0.133619 0.012048
v 0.184904 0.538397 0.078427
vn 0.596084 0.721655 0.351990
v 0.132461 0.892984 0.121703
vn 0.367701 0.836163 0.406973
v 0.099875 0.903403 0.138683
vn 0.749544 0.437694 0.496596
v 0.166316 0.816457 0.165657
vn 0.571724 0.576890 0.583377
v 0.105909 0.835779 0.218605
vn 0.853013 0.198810 0.482538
v 0.181793 0.760260 0.178066
vn 0.625285 0.301678 0.719728
v 0.136226 0.759663 0.243580
vn 0.056568 0.156562 0.986047
v 0.038586 0.707037 0.296121
vn 0.468032 -0.219415 0.856039
v 0.093334 0.605204 0.278245
vn 0.281150 -0.011742 0.959592
v 0.071648 0.661161 0.294190
vn 0.522827 0.037397 0.851618
v 0.123013 0.675974 0.268692
vn 0.703492 -0.179643 0.687625
v 0.156434 0.598454 0.234042
vn 0.878938 0.040152 0.475243
v 0.172222 0.680343 0.213553
vn 0.761939 0.065405 0.644338
v 0.153456 0.674189 0.244273
vn 0.865164 -0.253627 0.432626
v 0.182659 0.598358 0.197331
vn 0.969760 -0.151739 0.191156
v 0.196208 0.615081 0.159112
vn 0.935943 0.051206 0.348409
v 0.192730 0.715982 0.165733
vn 0.989933 -0.125507 0.065422
v 0.203730 0.641180 0.119917
vn -0.418964 0.525684 -0.740355
v 0.021830 0.809192 -0.053710
vn -0.002121 -0.072954 0.997333
v 0.018146 0.636067 0.299773
vn 0.984935 0.085462 -0.150327
v 0.160162 0.589369 -0.023426
vn 0.958254 -0.264491 -0.108595
v 0.188573 0.594115 0.082075
vn 0.938510 -0.206075 0.277007
v 0.171936 0.545334 0.153834
vn 0.806528 0.477166 0.349035
v 0.176155 0.834757 0.130156
vn 0.714740 -0.345564 0.608056
v 0.143710 0.566144 0.226549
vn 0.890446 -0.389302 -0.235690
v 0.167396 0.617734 -0.002750
vn -0.647832 0.580895 -0.492824
v 0.041436 0.861349 -0.031440
vn -0.132755 0.171859 -0.976136
v 0.018428 0.754732 -0.075310
vn -0.355218 0.900601 -0.250474
v 0.062482 0.908919 0.031532
vn 0.054141 0.088138 -0.994636
v 0.076497 0.620823 -0.079220
vn 0.769342 -0.604317 -0.207157
v 0.160645 0.620355 -0.038273
vn 0.784919 -0.616611 -0.060769
v 0.194858 0.646586 -0.029365
vn 0.968719 -0.247740 -0.014420
v 0.203609 0.668205 -0.013155
vn 0.859534 -0.488917 -0.148866
v 0.188386 0.632845 0.025660
vn 0.971290 -0.227287 -0.070262
v 0.200412 0.652628 0.046139
vn -0.400183 0.743243 -0.536138
v 0.075534 0.888123 -0.031526
vn -0.029114 0.882844 -0.468762
v 0.093564 0.898237 -0.026208
vn 0.091456 0.995549 -0.022768
v 0.098483 0.919796 0.045939
vn 0.667780 0.739625 0.083810
v 0.153108 0.900031 0.045811
vn 0.542883 0.797412 -0.263463
v 0.155381 0.893207 -0.006854
vn 0.972269 0.233663 0.009710
v 0.208315 0.789463 0.020197
vn 0.983772 0.050763 0.172094
v 0.207605 0.727327 0.122479
vn 0.999858 -0.016162 0.004709
v 0.211645 0.753277 0.029387
vn 0.925608 0.250173 0.284015
v 0.200892 0.779122 0.123700
vn 0.305605 -0.490688 -0.815985
v 0.127254 0.611444 -0.063377
vn 0.894644 0.440839 -0.072614
v 0.190227 0.838830 0.028809
vn 0.869644 0.460898 0.176894
v 0.181910 0.839703 0.100725
vn 0.846488 0.177114 -0.502085
v 0.161912 0.575437 -0.026610
vn -0.542827 0.813776 0.207626
v 0.118308 0.934611 -0.263632
vn 0.249543 -0.604050 -0.756870
v 0.156324 0.732365 -0.193491
vn -0.443529 -0.585015 -0.678999
v 0.133850 0.727698 -0.188642
vn -0.077882 -0.815793 -0.573076
v 0.126612 0.838930 -0.268289
vn 0.737151 0.629430 0.245817
v 0.144789 0.910262 -0.248754
vn 0.965353 0.260821 -0.008110
v 0.181833 0.840730 -0.188822
vn 0.822085 -0.254249 -0.509444
v 0.176497 0.791435 -0.209976
vn -0.075984 0.922559 -0.378301
v 0.111917 0.865975 -0.065403
vn -0.242439 -0.706960 -0.664403
v 0.131929 0.642217 -0.102003
vn -0.665720 -0.476887 -0.573931
v 0.114421 0.701660 -0.142479
vn -0.782527 -0.244580 -0.572566
v 0.084218 0.749558 -0.132255
vn -0.948839 -0.120283 -0.291953
v 0.084202 0.802208 -0.184063
vn -0.869174 0.244584 -0.429784
v 0.080609 0.805415 -0.125341
vn -0.643180 0.519449 -0.562576
v 0.058265 0.820351 -0.086770
vn -0.663479 0.056771 -0.746038
v 0.049300 0.766723 -0.099107
vn -0.393466 -0.173076 -0.902901
v 0.063867 0.666950 -0.078527
vn -0.427000 -0.448606 -0.785126
v 0.093220 0.661676 -0.094463
vn -0.412035 0.909324 0.057945
v 0.116931 0.866280 -0.130793
vn 0.606219 0.777913 0.165378
v 0.154296 0.855075 -0.133586
vn 0.654861 0.701261 -0.281762
v 0.156239 0.855482 -0.065830
vn 0.917166 0.359485 -0.171979
v 0.195638 0.791927 -0.058593
vn 0.956063 0.284483 -0.070803
v 0.186238 0.786024 -0.119895
vn 0.987602 0.073868 -0.138513
v 0.207491 0.743843 -0.063681
vn 0.996260 0.051521 -0.069364
v 0.211034 0.750149 -0.036038
vn 0.717489 -0.450474 -0.531303
v 0.179064 0.672195 -0.126373
vn 0.970270 -0.048280 -0.237162
v 0.187608 0.754449 -0.149374
vn 0.947811 -0.297296 -0.115194
v 0.205161 0.669770 -0.067232
vn 0.935692 -0.157036 -0.315944
v 0.201642 0.693293 -0.102676
vn 0.234986 -0.729516 -0.642330
v 0.162708 0.655694 -0.120061
vn 0.658042 -0.684618 -0.313494
v 0.181824 0.636365 -0.078534
vn 0.238765 -0.866834 -0.437710
v 0.158693 0.626998 -0.083912
vn 0.653713 -0.731217 -0.194889
v 0.166433 0.718946 -0.640768
vn 0.484852 0.587937 -0.647494
v 0.172070 0.804250 -0.641151
vn -0.687654 -0.584366 -0.430869
v 0.100912 0.719804 -0.639757
vn -0.718918 0.584822 -0.375687
v 0.100276 0.802938 -0.638475
vn 0.940582 -0.126918 0.314955
v 0.180037 0.762531 -0.589077
vn -0.070000 0.427733 -0.901191
v -0.005898 0.793210 -0.057662
vn -0.076524 0.228460 -0.970541
v -0.000505 0.742009 -0.086262
vn -0.521960 0.394276 -0.756376
v -0.038845 0.655873 -0.079570
vn 0.008740 -0.096431 -0.995301
v 0.018061 0.707297 -0.072941
vn -0.257703 0.583270 -0.770315
v -0.019320 0.696517 -0.082838
vn -0.086720 0.229004 -0.969555
v -0.022171 0.617674 -0.082533
vn 0.144392 0.871505 -0.468646
v -0.025483 0.891805 0.013008
vn 0.201627 0.225451 -0.953162
v -0.024792 0.726239 -0.078418
vn -0.736283 0.656620 -0.163518
v -0.065928 0.623849 -0.072335
vn -0.889024 -0.455619 0.045251
v -0.154885 0.609396 0.089463
vn -0.978161 -0.194889 0.072244
v -0.166093 0.630910 0.084683
vn -0.104960 0.430278 -0.896573
v -0.080261 0.802259 -0.072488
vn 0.208405 0.490446 -0.846186
v -0.038443 0.824739 -0.054763
vn -0.152240 0.686887 -0.710640
v -0.072867 0.842760 -0.045730
vn -0.225188 0.862142 -0.453874
v -0.072408 0.876830 -0.005156
vn -0.006747 0.817088 -0.576474
v -0.052975 0.876598 -0.007925
vn -0.142300 0.959766 -0.242075
v -0.036189 0.907543 0.062029
vn -0.686196 0.473780 -0.551967
v -0.122841 0.825057 -0.037595
vn -0.594511 0.711904 -0.373830
v -0.116828 0.864436 0.007172
vn -0.592303 0.797549 -0.114425
v -0.104109 0.882587 0.045651
vn -0.981510 0.080957 -0.173450
v -0.174074 0.682358 -0.008675
vn -0.979883 0.061279 0.189933
v -0.172885 0.727202 0.134061
vn -0.992036 0.110892 -0.059732
v -0.177265 0.715403 0.027279
vn -0.906943 0.400483 -0.130645
v -0.148930 0.814717 0.034265
vn -0.926349 0.253819 -0.278306
v -0.162717 0.748645 -0.006407
vn -0.866853 0.498289 -0.016559
v -0.146880 0.827014 0.073228
vn -0.983897 -0.170785 0.052712
v -0.130967 0.579768 0.045329
vn 0.753286 0.648935 -0.106972
v -0.083599 0.736767 -0.187515
vn 0.957122 -0.206139 -0.203529
v -0.050237 0.664940 -0.169308
vn 0.643364 -0.697191 -0.316239
v -0.084396 0.627531 -0.176685
vn 0.994519 -0.064544 -0.082258
v -0.064438 0.686050 -0.262034
vn 0.533496 -0.842061 -0.079467
v -0.079103 0.664741 -0.247509
vn 0.447691 0.862990 -0.234139
v -0.080637 0.746250 -0.281842
vn 0.230533 -0.855539 -0.463582
v -0.102904 0.607810 -0.160191
vn -0.753899 0.586955 -0.295163
v -0.107958 0.738869 -0.275403
vn -0.502060 -0.837041 -0.217479
v -0.108292 0.661554 -0.251465
vn -0.986091 0.052009 -0.157861
v -0.129000 0.687388 -0.241505
vn -0.660641 0.745670 -0.086777
v -0.105445 0.738703 -0.213057
vn -0.887796 0.444844 -0.118034
v -0.136527 0.715253 -0.171723
vn -0.772811 -0.529193 -0.350312
v -0.131384 0.612944 -0.151662
vn -0.276346 -0.862556 -0.423828
v -0.120667 0.591441 -0.130150
vn -0.953698 -0.175277 -0.244415
v -0.147136 0.656973 -0.175983
vn 0.155115 -0.781379 0.604472
v -0.114817 0.563282 -0.020729
vn 0.390598 -0.849474 -0.354722
v -0.100013 0.584100 -0.112901
vn 0.298338 0.595317 -0.746051
v -0.062300 0.758106 -0.082230
vn 0.609362 -0.741660 0.280388
v -0.080308 0.570360 -0.037750
vn 0.759254 -0.548260 -0.350634
v -0.056300 0.627094 -0.091852
vn 0.930139 -0.101347 -0.352946
v -0.043242 0.665985 -0.096348
vn 0.866570 0.250875 -0.431414
v -0.055400 0.720457 -0.109667
vn 0.832327 -0.151696 -0.533124
v -0.022500 0.649149 -0.064162
vn -0.023747 0.334644 0.942045
v -0.043601 0.600208 -0.035205
vn -0.525393 0.830568 -0.184712
v -0.115845 0.741060 -0.116485
vn -0.483386 0.507122 -0.713558
v -0.118384 0.764842 -0.076158
vn -0.884941 0.291843 -0.362913
v -0.155098 0.699748 -0.055380
vn -0.962979 0.211028 -0.167745
v -0.151036 0.676625 -0.090430
vn -0.988457 -0.101369 -0.112591
v -0.172919 0.617067 -0.016804
vn -0.635413 -0.767024 -0.089019
v -0.147826 0.567313 -0.033896
vn -0.965638 -0.154485 -0.208991
v -0.151440 0.633443 -0.108532
vn -0.907076 -0.359903 -0.218363
v -0.163545 0.593701 -0.034879
vn -0.836910 -0.529301 0.139363
v -0.163881 0.582567 0.009723
vn -0.051657 -0.997919 0.038596
v -0.125214 0.556188 -0.030657
vn -0.338697 -0.921277 0.191139
v -0.146314 0.561551 0.007832
vn -0.089151 -0.044548 -0.995021
v -0.110459 0.538759 -0.645568
vn -0.410662 0.902610 0.129041
v -0.132515 0.599585 -0.571728
vn 0.615273 0.784159 -0.080833
v -0.067315 0.597879 -0.573378
vn 0.802472 -0.375328 -0.463861
v -0.060373 0.553232 -0.625791
vn -0.944626 -0.076971 -0.318993
v -0.153205 0.558764 -0.618941
vn -0.993687 0.005131 0.112068
v -0.011327 0.925089 0.193345
vn 0.246169 -0.955634 -0.161757
v 0.023847 0.897010 0.174529
vn -0.572188 0.672348 0.469626
v 0.006482 0.932099 0.223364
vn -0.745287 0.516880 0.421167
v -0.004549 0.881870 0.219885
vn 0.206515 0.480746 0.852194
v 0.020024 0.884742 0.258523
vn -0.011724 0.982580 0.185470
v 0.017948 0.899960 0.188493
vn 0.509129 0.740132 0.439309
v 0.028919 0.932161 0.223526
vn 0.808386 0.481209 0.339043
v 0.039608 0.883120 0.220760
vn 0.965238 0.166036 0.201860
v 0.045898 0.924034 0.198918
vn -0.944165 0.328856 0.020182
v -0.025649 0.945078 0.071522
vn -0.680417 0.732702 -0.013422
v 0.005331 0.974820 -0.009924
vn -0.654197 0.745354 0.128346
v -0.004199 0.962325 0.101711
vn -0.576461 0.814624 0.063882
v 0.004322 0.970334 0.091626
vn -0.079428 0.981077 0.176577
v 0.017625 0.975287 0.112118
vn 0.903213 -0.419755 0.089504
v 0.058559 0.899987 -0.028612
vn 0.617066 0.784596 0.060326
v 0.030452 0.971772 0.088428
vn 0.666469 -0.732095 0.140909
v 0.048880 0.913877 0.100041
vn 0.919412 0.388450 0.061540
v 0.057169 0.952605 0.077423
vn 0.975065 -0.201147 0.093740
v 0.058504 0.935784 0.090615
vn -0.235164 -0.822303 -0.518185
v 0.009159 0.896714 -0.345908
vn -0.793193 -0.580155 -0.185109
v -0.020894 0.887264 -0.273539
vn -0.358603 -0.381240 -0.852092
v -0.010674 0.946595 -0.374656
vn -0.959733 -0.179045 -0.216459
v -0.022180 0.931054 -0.336400
vn -0.866909 0.493933 0.067072
v -0.020348 0.931899 -0.249317
vn -0.881960 0.118479 -0.456190
v -0.014120 0.968829 -0.376689
vn -0.141487 0.877484 -0.458262
v 0.000614 1.000626 -0.400991
vn 0.562038 -0.061873 -0.824794
v 0.044133 0.970661 -0.378308
vn 0.667328 -0.659312 -0.346383
v 0.051954 0.900579 -0.316431
vn 0.764757 0.642016 -0.054428
v 0.035143 0.994683 -0.381071
vn 0.774059 -0.274549 -0.570487
v 0.052386 0.946024 -0.369076
vn 0.367131 0.922858 0.116398
v 0.032454 0.958391 -0.239723
vn -0.960626 -0.117683 0.251692
v -0.170007 0.384289 0.055662
vn -0.937585 -0.011410 0.347570
v -0.166624 0.439879 0.077934
vn -0.983886 0.143770 0.106297
v -0.177565 0.452059 0.033208
vn -0.711551 0.425176 -0.559393
v -0.121173 0.507320 -0.076364
vn -0.931424 0.352835 -0.089198
v -0.163587 0.496491 0.012967
vn -0.765298 -0.157820 0.624029
v -0.110980 0.464174 0.181118
vn -0.638562 -0.228618 0.734828
v -0.076533 0.461440 0.215880
vn -0.452354 -0.245022 0.857520
v -0.037750 0.444243 0.235702
vn -0.220684 -0.136661 0.965724
v -0.003651 0.358417 0.233748
vn -0.769752 -0.163064 0.617164
v -0.101579 0.330700 0.154194
vn -0.645848 -0.165611 0.745287
v -0.071129 0.343532 0.187509
vn -0.846693 -0.112165 0.520124
v -0.139839 0.422203 0.133221
vn -0.953195 0.225833 -0.201044
v -0.175772 0.448250 -0.022707
vn -0.997892 -0.063418 -0.013743
v -0.181216 0.392885 -0.006103
vn -0.938389 0.020118 -0.344994
v -0.170957 0.403961 -0.060952
vn -0.582079 0.251282 -0.773331
v -0.102599 0.447510 -0.133446
vn -0.793084 0.310904 -0.523789
v -0.146917 0.450022 -0.090612
vn -0.744090 0.087151 -0.662371
v -0.147051 0.410891 -0.102980
vn -0.400229 0.131914 -0.906871
v -0.068221 0.406278 -0.158384
vn -0.185252 0.324866 -0.927439
v -0.031410 0.480035 -0.153351
vn -0.360562 0.334078 -0.870854
v -0.062999 0.477680 -0.144607
vn -0.868562 -0.166184 0.466887
v -0.147351 0.353546 0.099554
vn -0.924724 -0.143963 -0.352363
v -0.163582 0.338606 -0.065867
vn -0.777700 -0.063179 -0.625453
v -0.144263 0.357198 -0.105469
vn -0.587938 0.025936 -0.808490
v -0.095527 0.371645 -0.145332
vn -0.131650 0.151077 -0.979716
v -0.013160 0.363748 -0.182698
vn -0.256488 -0.225032 0.939986
v -0.007567 0.433738 0.244910
vn -0.005970 0.481156 -0.876614
v 0.023697 0.518755 -0.140610
vn 0.004230 0.286714 -0.958007
v 0.014007 0.470497 -0.160331
vn 0.947242 -0.158612 0.278523
v 0.202275 0.351714 0.053146
vn 0.503298 0.433169 -0.747700
v 0.119282 0.501926 -0.122998
vn 0.655928 0.426480 -0.622794
v 0.154369 0.515643 -0.070782
vn 0.902743 0.293933 -0.314099
v 0.203075 0.457890 -0.042460
vn 0.786198 0.394353 -0.475792
v 0.174977 0.500752 -0.061791
vn 0.787315 -0.163679 0.594428
v 0.146385 0.484435 0.185861
vn 0.376769 -0.226952 0.898074
v 0.059249 0.433274 0.237786
vn 0.551786 -0.157003 0.819074
v 0.084054 0.362018 0.208759
vn 0.739177 -0.191772 0.645633
v 0.137792 0.363596 0.163517
vn 0.688337 -0.170699 0.705021
v 0.114777 0.352887 0.182502
vn 0.853009 -0.130845 0.505228
v 0.180883 0.408114 0.120920
vn 0.929284 -0.004922 0.369334
v 0.189578 0.448188 0.110282
vn 0.980392 0.163836 -0.109498
v 0.213438 0.446724 -0.006188
vn 0.982740 0.086501 0.163526
v 0.213360 0.445114 0.037635
vn 0.997090 -0.067367 -0.035668
v 0.216969 0.392140 -0.002876
vn 0.814396 0.058758 -0.577327
v 0.190029 0.409008 -0.092713
vn 0.717200 0.319566 -0.619275
v 0.178889 0.447182 -0.096366
vn 0.952045 0.048888 -0.302026
v 0.206528 0.403961 -0.060952
vn 0.614637 0.113427 -0.780612
v 0.153804 0.417587 -0.127783
vn 0.436260 0.074130 -0.896762
v 0.095167 0.367994 -0.167824
vn 0.225698 0.340959 -0.912583
v 0.067525 0.483073 -0.151455
vn 0.474002 0.259538 -0.841405
v 0.119404 0.459551 -0.141299
vn 0.843558 -0.209171 0.494629
v 0.175302 0.335582 0.106400
vn 0.971868 -0.235464 0.005318
v 0.205455 0.326105 -0.016338
vn 0.109407 -0.233627 0.966151
v 0.031690 0.447939 0.249348
vn 0.274348 -0.134834 0.952131
v 0.046616 0.359469 0.230615
vn -0.975400 0.206763 0.076447
v -0.160156 0.206409 -0.070532
vn -0.942679 -0.029039 0.332435
v -0.131244 0.224120 0.052613
vn -0.458324 -0.130510 0.879151
v -0.017308 0.258874 0.214531
vn -0.958291 -0.053241 0.280792
v -0.148557 0.171179 0.027810
vn -0.990673 -0.079859 0.110405
v -0.162401 0.160665 -0.045708
vn -0.395062 -0.874510 -0.281351
v -0.102257 0.011888 -0.137369
vn -0.924526 -0.378383 0.045587
v -0.139110 0.047076 -0.043384
vn -0.951801 -0.213167 0.220533
v -0.136473 0.067045 0.011419
vn -0.908724 -0.069142 0.411631
v -0.117100 0.148533 0.090435
vn -0.811272 0.014561 0.584488
v -0.081544 0.096338 0.146551
vn -0.834474 -0.074001 0.546055
v -0.085104 0.199935 0.145736
vn -0.647742 -0.099662 0.755313
v -0.048231 0.214209 0.186464
vn 0.220687 -0.525927 -0.821400
v -0.023971 0.066355 -0.224222
vn 0.702035 -0.296832 -0.647331
v -0.037335 0.111586 -0.237173
vn -0.539660 -0.147815 0.828805
v -0.046394 0.352646 0.208779
vn -0.856108 -0.191591 0.479971
v -0.100232 0.249124 0.131528
vn -0.738977 -0.130593 0.660953
v -0.086096 0.283200 0.165214
vn -0.922934 -0.253808 0.289437
v -0.154579 0.310036 0.061561
vn -0.974193 -0.185094 -0.129182
v -0.170205 0.333851 -0.029542
vn -0.967305 -0.234083 0.097604
v -0.165002 0.308249 0.006218
vn -0.998892 -0.046619 0.006437
v -0.144767 0.240882 -0.024421
vn -0.790523 -0.050656 -0.610333
v -0.137859 0.306826 -0.102892
vn -0.725382 0.040558 -0.687151
v -0.114965 0.313651 -0.127539
vn -0.596114 0.149818 -0.788798
v -0.091060 0.322055 -0.149231
vn -0.284399 0.208554 -0.935747
v -0.050803 0.334736 -0.174892
vn -0.021253 -0.164540 0.986141
v 0.008002 0.274978 0.227135
vn -0.099882 -0.792807 -0.601232
v -0.034097 0.026130 -0.183196
vn -0.948357 -0.272340 0.162633
v -0.156887 0.129463 -0.042777
vn -0.942909 -0.230350 0.240545
v -0.140605 0.118579 0.000751
vn -0.080762 0.209119 -0.974549
v -0.013830 0.304077 -0.187452
vn 0.982330 0.074560 0.171664
v 0.196301 0.183414 -0.036147
vn 0.940666 -0.078374 0.330159
v 0.165718 0.224367 0.057941
vn 0.303311 -0.256602 -0.917692
v 0.055552 0.099376 -0.219528
vn 0.767233 -0.079192 0.636460
v 0.112785 0.200157 0.156314
vn 0.942594 0.010403 0.333777
v 0.183969 0.177542 0.027484
vn 0.961524 -0.230295 0.149786
v 0.196921 0.140423 -0.033405
vn 0.918544 -0.151626 0.365084
v 0.164918 0.137702 0.058800
vn 0.920458 -0.383742 0.074154
v 0.175206 0.048451 -0.038144
vn 0.962144 -0.225329 0.153314
v 0.180228 0.110493 -0.020887
vn 0.072537 -0.657334 -0.750100
v 0.047942 0.034804 -0.191042
vn 0.705492 -0.621858 -0.339961
v 0.157584 0.043157 -0.128981
vn 0.947431 -0.190956 0.256729
v 0.168029 0.071884 0.024947
vn 0.875660 0.003258 0.482917
v 0.134907 0.176478 0.121427
vn 0.410295 -0.144172 0.900484
v 0.064788 0.213738 0.200284
vn 0.728462 -0.123119 0.673933
v 0.119695 0.278525 0.166601
vn 0.814590 -0.187643 0.548848
v 0.145666 0.279397 0.126810
vn 0.945760 0.161613 -0.281813
v 0.172952 0.254216 -0.070824
vn 0.754932 -0.220157 -0.617744
v 0.175047 0.314128 -0.104890
vn 0.932797 -0.174091 -0.315565
v 0.196539 0.328192 -0.071055
vn 0.610535 -0.126812 -0.781771
v 0.135732 0.326174 -0.144080
vn 0.107596 -0.203870 -0.973067
v 0.013591 0.102976 -0.223312
vn 0.148780 0.180198 -0.972313
v 0.054019 0.377426 -0.179180
vn 0.339918 -0.161311 0.926518
v 0.045758 0.269952 0.220587
vn 0.039587 0.170812 -0.984508
v 0.032589 0.187166 -0.204814
vn 0.333837 -0.722882 -0.604974
v 0.100038 0.029503 -0.147993
vn 0.999604 0.018534 0.021175
v 0.179739 0.241036 -0.027512
vn 0.999434 0.004243 -0.033366
v 0.204434 0.176931 -0.083879
vn 0.949247 0.314504 0.004167
v 0.199627 0.205788 -0.076989
vn 0.650341 0.027868 -0.759131
v 0.112322 0.107415 -0.197945
vn 0.580198 -0.263529 -0.770664
v 0.147817 0.073700 -0.167783
vn 0.561666 0.593745 -0.576192
v 0.101546 0.277719 -0.152972
vn 0.948748 -0.297463 -0.106737
v 0.181481 0.100694 -0.106327
vn 0.862099 -0.288030 -0.416923
v 0.169320 0.075706 -0.145256
vn 0.761564 -0.191895 -0.619029
v 0.167537 0.110834 -0.156107
vn 0.484048 0.874992 -0.009333
v 0.138996 0.264113 -0.138878
vn 0.760263 0.630648 -0.155828
v 0.182834 0.241023 -0.098260
vn 0.793526 0.602403 -0.086186
v 0.171204 0.235813 -0.143080
vn 0.754783 0.357239 -0.550166
v 0.131307 0.269320 -0.122350
vn 0.964273 -0.213366 -0.157012
v 0.197469 0.142734 -0.116442
vn -0.104133 0.446006 -0.888952
v 0.060869 0.271359 -0.191414
vn 0.955805 0.116238 -0.270046
v 0.182833 0.199860 -0.157035
vn 0.535348 -0.180851 -0.825043
v 0.122305 0.114207 -0.173405
vn 0.611989 -0.681069 0.402014
v 0.122576 0.065080 -0.304570
vn -0.778061 0.351339 -0.520751
v 0.067436 0.196366 -0.275290
vn -0.731046 -0.537320 0.420545
v 0.086564 0.116430 -0.250812
vn -0.073075 -0.784648 0.615619
v 0.113585 0.103263 -0.248398
vn -0.995843 -0.088567 -0.021292
v 0.084244 0.105510 -0.317186
vn 0.864008 0.262695 -0.429513
v 0.137609 0.108705 -0.339396
vn 0.956874 -0.289157 0.027930
v 0.139262 0.099936 -0.303784
vn 0.957376 -0.004577 -0.288809
v 0.164785 0.172452 -0.277385
vn 0.963879 -0.265851 0.016174
v 0.168833 0.164747 -0.244182
vn 0.649260 0.450336 -0.612911
v 0.150244 0.182734 -0.297035
vn -0.399237 0.703642 -0.587791
v 0.094357 0.268942 -0.231458
vn 0.159183 0.582934 -0.796774
v 0.120494 0.185103 -0.314974
vn 0.096646 0.704024 -0.703569
v 0.113342 0.249481 -0.254788
vn -0.370870 -0.381782 -0.846580
v 0.079382 0.160922 -0.209741
vn -0.880731 0.235555 -0.410885
v 0.059102 0.245102 -0.213770
vn -0.956934 -0.238232 0.165899
v 0.065063 0.181633 -0.223777
vn 0.667985 0.740235 -0.076470
v 0.144723 0.267701 -0.195190
vn 0.192572 0.945482 -0.262641
v 0.114394 0.282488 -0.213306
vn 0.328666 -0.376405 -0.866197
v 0.100701 0.142221 -0.188096
vn -0.216461 -0.966739 0.136235
v 0.122163 0.138111 -0.205856
vn 0.903483 0.334549 -0.267948
v 0.168314 0.220039 -0.232975
vn 0.627230 0.637788 -0.447000
v 0.150468 0.230322 -0.251797
vn 0.862506 0.493168 -0.113444
v 0.167076 0.242263 -0.167767
vn 0.761109 -0.625760 -0.170701
v 0.163428 0.164124 -0.183790
vn 0.995179 -0.091732 -0.034691
v 0.175015 0.210124 -0.199649
vn -0.457916 0.572471 -0.680139
v 0.098492 0.121256 -0.361372
vn 0.880996 0.399895 -0.252844
v 0.129721 -0.028715 -0.494553
vn -0.071042 -0.790158 0.608772
v 0.109950 -0.036006 -0.454900
vn -0.975316 0.060398 -0.212395
v 0.076100 0.057709 -0.376272
vn -0.574946 -0.702355 0.419683
v 0.092217 0.040003 -0.338909
vn -0.993832 0.059736 0.093434
v 0.093556 -0.024988 -0.479390
vn 0.997393 -0.004539 0.072025
v 0.132548 -0.021586 -0.462565
vn 0.817394 0.385014 -0.428523
v 0.127912 0.042532 -0.411943
vn 0.823186 -0.475597 0.310115
v 0.137213 0.049835 -0.343710
vn -0.989558 -0.062710 -0.129778
v 0.093654 0.026001 -0.412669
vn -0.275086 0.802058 -0.530123
v 0.110776 -0.014221 -0.519901
vn 0.973590 0.094103 -0.208008
v 0.143463 0.063453 -0.381440
vn 0.092156 0.668187 -0.738263
v 0.112120 0.082136 -0.409601
vn -0.531710 -0.131642 -0.836633
v 0.065620 -0.135599 -0.644660
vn -0.099412 -0.974876 0.199332
v 0.102783 -0.168126 -0.644156
vn -0.725634 0.576317 -0.375917
v 0.078031 -0.066263 -0.639657
vn 0.888174 -0.207745 -0.409864
v 0.162958 -0.130074 -0.642581
vn -0.953303 -0.263339 -0.147874
v -0.160185 0.117194 -0.151793
vn -0.962121 0.102567 -0.252592
v -0.164224 0.168344 -0.151868
vn -0.874893 0.454258 -0.167963
v -0.152180 0.221032 -0.127646
vn -0.566673 -0.297989 -0.768169
v -0.062258 0.064983 -0.222225
vn -0.582028 -0.501587 -0.640043
v -0.110815 0.034523 -0.169790
vn -0.542691 0.512810 -0.665216
v -0.047245 0.254645 -0.205940
vn -0.312531 0.844212 -0.435465
v -0.052814 0.234511 -0.251854
vn 0.704242 0.410834 -0.579015
v -0.023691 0.214736 -0.263002
vn 0.847173 0.029694 -0.530486
v -0.011276 0.186953 -0.225068
vn -0.995299 -0.092373 0.029099
v -0.167978 0.148509 -0.106178
vn -0.838580 -0.330831 -0.432822
v -0.133899 0.046792 -0.148101
vn -0.458314 0.887428 -0.049184
v -0.100986 0.225598 -0.215452
vn -0.870720 0.431436 -0.236030
v -0.138649 0.195594 -0.193749
vn -0.619879 0.702953 -0.348722
v -0.137280 0.234874 -0.139057
vn 0.449173 0.310933 -0.837594
v -0.015410 0.243825 -0.206173
vn -0.584431 -0.501005 -0.638306
v -0.068474 0.088757 -0.196169
vn -0.711159 0.257775 -0.654068
v -0.096151 0.263075 -0.166434
vn -0.566129 0.745884 -0.350935
v -0.078504 0.233513 -0.201256
vn 0.030335 0.549171 -0.835159
v -0.031360 0.284778 -0.191506
vn -0.829731 -0.529798 -0.175668
v -0.142746 0.108989 -0.187214
vn -0.550958 -0.197755 -0.810764
v -0.089814 0.059942 -0.177617
vn -0.816590 0.255937 -0.517376
v -0.123107 0.250304 -0.124148
vn -0.919020 0.328458 -0.217988
v -0.137571 0.250343 -0.087704
vn -0.938038 -0.302411 -0.169209
v -0.142705 0.069829 -0.120517
vn -0.966567 -0.244925 0.075900
v -0.148328 0.093449 -0.087517
vn -0.613679 -0.369930 -0.697531
v -0.124980 0.068463 -0.164091
vn 0.988010 -0.154240 0.006759
v -0.032842 0.074667 -0.270368
vn 0.778986 -0.175334 0.602028
v -0.045899 0.061919 -0.228640
vn 0.999122 -0.039619 -0.013609
v -0.049562 0.000409 -0.280555
vn -0.957994 -0.257569 0.126116
v -0.109370 -0.000254 -0.277862
vn -0.637650 -0.512747 0.574885
v -0.116740 0.057336 -0.226850
vn -0.086558 0.549593 -0.830936
v -0.080572 0.195212 -0.292635
vn -0.338210 0.228616 -0.912879
v -0.101271 0.137444 -0.303949
vn 0.969627 -0.099199 -0.223567
v -0.023780 0.151489 -0.262758
vn 0.693284 0.007014 -0.720630
v -0.050741 0.062002 -0.311222
vn 0.528817 0.189204 -0.827378
v -0.034776 0.184355 -0.286786
vn -0.629145 0.627093 -0.459272
v -0.111263 0.210054 -0.255180
vn -0.978444 -0.204909 -0.025689
v -0.133728 0.085392 -0.255087
vn -0.912113 0.142513 -0.384370
v -0.138154 0.135902 -0.267098
vn -0.855834 -0.081432 -0.510801
v -0.127387 0.083416 -0.288913
vn 0.092253 -0.604050 0.791589
v -0.099822 0.089107 -0.208693
vn -0.920652 0.172532 -0.350189
v -0.100198 -0.014568 -0.302127
vn -0.246758 0.015237 -0.968957
v -0.088413 0.063748 -0.318045
vn 0.018533 -0.858849 0.511894
v -0.070511 -0.082394 -0.250781
vn 0.082920 -0.295214 0.951826
v -0.071270 -0.019920 -0.238097
vn -0.914263 -0.273119 0.299213
v -0.103472 -0.067330 -0.273809
vn 0.776722 0.223119 0.589001
v -0.062490 0.055007 -0.452649
vn 0.950722 -0.213110 0.225193
v -0.044730 -0.059749 -0.284326
vn 0.543285 -0.775716 -0.321103
v -0.063883 -0.090785 -0.316635
vn 0.956277 0.089134 -0.278550
v -0.044784 -0.044631 -0.313117
vn -0.160441 -0.787784 -0.594689
v -0.078103 -0.058596 -0.358510
vn 0.133368 -0.925703 -0.353960
v -0.082543 -0.010729 -0.448824
vn 0.995918 -0.002650 0.090220
v -0.061397 -0.000435 -0.406248
vn -0.324555 -0.656114 -0.681306
v -0.080736 0.003374 -0.507802
vn -0.162726 0.743777 0.648318
v -0.075282 0.051610 -0.437152
vn -0.992624 0.025061 -0.118619
v -0.099857 -0.032005 -0.345670
vn -0.824442 -0.546695 -0.146355
v -0.104132 -0.068389 -0.303707
vn 0.939094 -0.158912 -0.304711
v -0.057440 -0.031416 -0.344205
vn -0.989233 -0.138392 0.047600
v -0.103692 0.020256 -0.449291
vn 0.814297 0.494868 -0.303357
v -0.060608 -0.020369 -0.314041
vn -0.376945 0.880312 0.288035
v -0.081413 -0.001655 -0.337447
vn 0.547194 -0.039918 0.836053
v -0.047996 0.129194 -0.436495
vn -0.348922 0.163701 0.922743
v -0.105991 0.132737 -0.434710
vn 0.370484 0.806345 -0.461031
v -0.064816 0.204726 -0.508309
vn -0.987499 0.086986 0.131453
v -0.129630 0.172342 -0.477014
vn 0.143703 -0.074762 -0.986793
v -0.071267 0.109443 -0.520100
vn -0.189510 -0.936900 -0.293777
v -0.019103 -0.044168 -0.003553
vn -0.642576 -0.742375 -0.189674
v -0.059468 -0.023947 0.037209
vn 0.311820 -0.907797 -0.280487
v 0.054704 -0.042052 -0.006880
vn 0.569240 -0.792461 -0.219021
v 0.088158 -0.025186 0.031256
vn -0.353833 -0.900912 -0.251317
v -0.073262 -0.005506 -0.081689
vn -0.649637 -0.756061 -0.079650
v -0.118343 0.015956 -0.067080
vn -0.489688 -0.861853 -0.131965
v -0.058971 -0.025863 -0.047894
vn -0.587585 0.194681 0.785394
v -0.050172 0.105028 0.173343
vn -0.944370 -0.176469 0.277532
v -0.101480 0.050533 0.094652
vn -0.964074 -0.235944 -0.122029
v -0.082748 -0.006199 0.105174
vn -0.772928 -0.624131 0.114202
v -0.096557 -0.003550 0.017588
vn 0.043755 0.481662 0.875264
v -0.009309 0.073889 0.217218
vn -0.017793 0.026788 0.999483
v 0.008535 0.119607 0.198385
vn 0.476575 -0.844193 -0.245385
v 0.127152 0.002966 -0.074110
vn 0.999508 -0.031205 -0.003094
v 0.122074 0.004484 0.124411
vn 0.901155 -0.423039 -0.094651
v 0.119680 -0.013360 0.076232
vn 0.699196 -0.713378 0.047083
v 0.124484 -0.010222 0.012966
vn 0.204107 0.194057 0.959522
v 0.046130 0.111218 0.193111
vn 0.853911 0.006450 0.520380
v 0.118183 0.090304 0.145523
vn 0.935217 -0.261452 0.238772
v 0.140967 0.045129 0.075906
vn 0.601116 -0.791270 -0.112029
v 0.146216 0.007420 -0.044366
vn -0.161025 -0.921976 -0.352181
v -0.034525 -0.031270 -0.057376
vn 0.054573 -0.841894 -0.536876
v 0.016482 0.006667 -0.135743
vn 0.247292 -0.932146 -0.264482
v 0.083325 -0.031499 -0.051643
vn -0.907408 0.218452 0.359011
v -0.078867 0.053016 0.165348
vn -0.901691 0.432377 0.002004
v -0.086121 -0.002985 0.202211
vn -0.181231 0.657545 0.731293
v -0.048548 -0.010305 0.289321
vn 0.515030 0.534928 0.669773
v -0.003908 -0.005606 0.259016
vn 0.473504 0.594848 0.649576
v -0.009373 -0.031846 0.296206
vn -0.695581 0.611656 0.376886
v -0.122356 -0.059402 0.277380
vn 0.089316 0.671185 0.735889
v -0.021670 0.027142 0.244522
vn -0.766466 -0.199165 -0.610625
v -0.071745 -0.071390 0.084678
vn -0.898362 0.023101 -0.438647
v -0.096443 -0.102791 0.123023
vn -0.995427 0.070209 0.064782
v -0.085790 0.013762 0.145947
vn -0.580536 0.601961 0.548289
v -0.050477 0.034003 0.222869
vn -0.254127 -0.630035 -0.733809
v -0.006006 -0.077435 0.045968
vn -0.973845 0.108483 -0.199641
v -0.096454 -0.032632 0.135909
vn -0.981157 0.187325 -0.047326
v -0.094328 -0.046004 0.183058
vn 0.638823 0.215690 0.738500
v 0.096483 0.093440 0.166973
vn 0.085441 0.539018 0.837949
v 0.050574 0.046410 0.234724
vn 0.900632 -0.073951 -0.428244
v 0.120530 -0.057431 0.103337
vn -0.014411 0.381055 0.924440
v 0.015071 0.076189 0.203069
vn 0.405422 0.683550 0.606953
v 0.080988 0.032111 0.234548
vn 0.445186 -0.336060 -0.829984
v 0.087350 -0.096790 0.069243
vn -0.431915 0.564605 0.703328
v 0.039074 -0.006957 0.260485
vn 0.849946 0.515265 0.109970
v 0.128040 -0.012952 0.224309
vn 0.478304 0.700962 0.529035
v 0.086903 0.002094 0.271065
vn -0.054208 0.698249 0.713799
v 0.064778 0.000951 0.281912
vn 0.088390 0.557060 0.825755
v 0.017835 -0.013995 0.249909
vn 0.404303 -0.650969 -0.642479
v 0.057929 -0.069823 0.042854
vn 0.919710 0.204522 0.335117
v 0.119625 0.028370 0.162152
vn -0.360972 -0.679167 0.639086
v -0.081119 -0.304469 0.339557
vn -0.128429 -0.250662 0.959518
v -0.055166 -0.263712 0.363927
vn -0.337262 -0.750371 0.568505
v -0.126460 -0.296724 0.319484
vn -0.196469 -0.021987 0.980264
v -0.099894 -0.227615 0.347615
vn 0.216709 -0.045275 0.975186
v -0.021066 -0.222309 0.369415
vn -0.119969 0.304017 0.945083
v -0.056792 -0.117813 0.344378
vn -0.791162 0.471508 -0.389543
v -0.109509 -0.171292 0.126387
vn -0.436937 0.035378 -0.898796
v -0.082974 -0.173802 0.097387
vn -0.235246 -0.728916 -0.642916
v -0.039637 -0.265884 0.142665
vn -0.234016 -0.941300 -0.243291
v -0.083050 -0.299305 0.287663
vn -0.425877 0.073096 0.901823
v -0.106086 -0.159412 0.360561
vn 0.416891 0.129521 0.899681
v -0.004790 -0.170694 0.361936
vn -0.138913 0.193713 0.971174
v -0.035293 -0.153348 0.362597
vn -0.541285 0.708824 -0.452304
v -0.140057 -0.200431 0.208662
vn 0.068087 0.434596 0.898048
v -0.020861 -0.083148 0.340962
vn -0.304775 -0.764652 -0.567819
v -0.018734 -0.297437 0.199522
vn -0.043042 -0.265607 -0.963120
v -0.013549 -0.186495 0.087750
vn -0.656184 0.188178 -0.730761
v -0.083680 -0.147191 0.118119
vn 0.164680 -0.720575 -0.673537
v -0.000548 -0.258707 0.140812
vn -0.893201 0.234378 -0.383743
v -0.119911 -0.100740 0.212533
vn 0.028167 0.557196 0.829903
v 0.017452 -0.093283 0.323832
vn -0.375114 0.502476 0.778978
v -0.097659 -0.088175 0.328323
vn 0.577990 0.323727 0.749085
v 0.006255 -0.098286 0.338722
vn -0.912799 0.394773 -0.104650
v -0.140575 -0.078277 0.255038
vn 0.097176 -0.009676 0.995220
v 0.017491 -0.186443 0.336982
vn -0.271343 -0.392960 -0.878610
v -0.023406 -0.119158 0.066394
vn 0.479769 -0.800615 -0.358938
v 0.099075 -0.299574 0.271881
vn 0.127743 -0.949931 -0.285155
v 0.112270 -0.287210 0.244191
vn 0.201316 -0.978852 -0.036343
v 0.152491 -0.302262 0.296918
vn 0.127511 -0.431926 0.892850
v 0.045643 -0.340891 0.325605
vn 0.158986 0.111760 0.980935
v 0.123800 -0.167147 0.364094
vn 0.123524 -0.126168 0.984288
v 0.175756 -0.216863 0.333070
vn 0.432442 -0.832394 0.346575
v 0.118089 -0.315848 0.328559
vn 0.321554 -0.487711 0.811628
v 0.158856 -0.288583 0.325077
vn 0.239993 -0.003184 0.970769
v 0.105357 -0.200070 0.359818
vn 0.167607 -0.972570 -0.161291
v 0.163848 -0.269525 0.203207
vn 0.141226 -0.278474 0.950004
v 0.094761 -0.275640 0.358513
vn 0.722232 0.428088 0.543250
v 0.173706 -0.112535 0.310731
vn 0.447875 -0.269288 -0.852579
v 0.113076 -0.192388 0.104495
vn 0.865677 0.106017 -0.489249
v 0.153373 -0.170328 0.144307
vn 0.278535 -0.852528 -0.442283
v 0.067184 -0.293170 0.196219
vn 0.113996 0.285905 0.951453
v 0.093322 -0.132956 0.345043
vn 0.343704 0.411925 0.843911
v 0.138627 -0.116053 0.336475
vn -0.462508 0.153981 0.873142
v 0.032314 -0.140320 0.353144
vn -0.379116 -0.101989 0.919711
v 0.052454 -0.222439 0.366634
vn 0.168280 0.261898 0.950311
v 0.067993 -0.130040 0.357000
vn 0.028539 0.050888 0.998297
v 0.070962 -0.200382 0.369364
vn 0.992382 0.090939 0.083120
v 0.195986 -0.129894 0.281687
vn 0.800690 -0.148039 -0.580500
v 0.136038 -0.123837 0.135293
vn 0.940588 0.248628 -0.231255
v 0.137158 -0.066120 0.187934
vn 0.926782 0.147245 -0.345535
v 0.158754 -0.126639 0.181930
vn -0.291659 -0.232223 0.927905
v 0.042284 -0.294968 0.343724
vn -0.274675 0.471889 0.837779
v 0.047760 -0.083596 0.340484
vn 0.206883 0.402407 0.891778
v 0.087074 -0.088952 0.335456
vn 0.346528 0.558846 0.753399
v 0.122637 -0.060522 0.312231
vn 0.647923 0.595651 0.474759
v 0.154345 -0.060390 0.286055
vn 0.911492 0.399277 -0.098800
v 0.179409 -0.084903 0.254894
vn -0.020866 -0.070883 -0.997266
v 0.021073 -0.165328 0.092128
vn 0.373968 -0.339188 -0.863191
v 0.083799 -0.135908 0.082618
vn 0.529040 -0.047202 -0.847283
v 0.103311 -0.154352 0.100037
vn 0.137692 -0.221210 0.965457
v 0.008753 -0.285915 0.338288
vn 0.034188 -0.730328 -0.682240
v 0.021218 -0.291198 0.194890
vn 0.075100 -0.745210 -0.662587
v 0.061044 -0.265115 0.139653
vn 0.076296 -0.337288 -0.938305
v 0.023344 -0.188054 0.088498
vn -0.596762 -0.801405 0.040308
v -0.044650 -0.332689 0.303596
vn -0.833379 -0.489538 -0.256577
v -0.039230 -0.321170 0.267423
vn -0.174554 -0.459910 0.870640
v -0.005159 -0.350491 0.322327
vn 0.904661 -0.331243 0.268080
v 0.068422 -0.352518 0.293052
vn 0.529440 0.406124 -0.744820
v 0.042213 -0.353581 0.180480
vn 0.932391 -0.034707 -0.359780
v 0.054759 -0.326983 0.230355
vn 0.995331 -0.002769 0.096484
v 0.087779 -0.424714 0.256143
vn 0.662664 -0.711323 0.234299
v 0.062300 -0.497849 0.272726
vn 0.338873 -0.894077 -0.292903
v 0.043844 -0.506029 0.201963
vn 0.679711 -0.465833 -0.566562
v 0.060644 -0.478257 0.164017
vn 0.219188 0.766054 -0.604250
v 0.019725 -0.302050 0.158778
vn 0.614558 -0.229493 0.754752
v 0.069194 -0.465178 0.292899
vn 0.272707 -0.148689 0.950538
v 0.048154 -0.403593 0.308433
vn 0.762690 0.169525 -0.624151
v 0.073758 -0.409245 0.170800
vn -0.205929 -0.104148 -0.973009
v 0.006530 -0.421798 0.138522
vn 0.880432 0.404406 -0.247580
v 0.074641 -0.345572 0.214926
vn -0.833580 0.021417 -0.551983
v -0.034135 -0.408588 0.171106
vn -0.995686 0.073978 0.056011
v -0.047241 -0.410760 0.254072
vn -0.084268 -0.628729 0.773045
v 0.002788 -0.483457 0.305702
vn -0.840533 -0.422008 -0.339726
v -0.034793 -0.485407 0.198960
vn -0.202107 -0.978753 0.034565
v 0.012339 -0.519423 0.235015
vn -0.216274 -0.711213 -0.668881
v -0.000823 -0.484950 0.159422
vn -0.832750 0.185240 -0.521741
v -0.018864 -0.323180 0.214582
vn -0.676382 -0.187325 0.712332
v -0.016722 -0.374137 0.304829
vn -0.791803 -0.362222 0.491775
v -0.039730 -0.469660 0.283308
vn -0.107921 -0.096461 0.989469
v 0.005270 -0.439718 0.317928
vn -0.010760 0.523032 -0.852245
v 0.012890 -0.351802 0.144983
vn -0.770669 0.439919 -0.461020
v -0.031149 -0.346980 0.184511
vn -0.473004 0.264116 0.840541
v -0.181297 -0.204443 0.329978
vn -0.988735 0.081203 -0.125734
v -0.163562 -0.148223 0.270285
vn -0.846875 0.221519 0.483458
v -0.154179 -0.140131 0.311966
vn -0.240640 -0.877675 -0.414461
v -0.073100 -0.283356 0.232429
vn -0.913882 -0.272810 0.300658
v -0.239840 -0.229841 0.261436
vn -0.643326 -0.364501 0.673255
v -0.201205 -0.259942 0.317895
vn -0.430887 -0.864792 0.257818
v -0.185852 -0.302430 0.268099
vn -0.108730 -0.659321 -0.743958
v -0.150255 -0.261017 0.205928
vn -0.249581 -0.434846 0.865227
v -0.146693 -0.269235 0.337032
vn -0.157059 -0.426598 -0.890700
v -0.152056 -0.225567 0.185897
vn 0.470182 0.583441 -0.662212
v -0.151860 -0.204128 0.189548
vn -0.428211 0.554311 0.713705
v -0.159806 -0.183318 0.321220
vn -0.902922 0.198741 -0.381096
v -0.130909 -0.141368 0.216855
vn -0.177223 -0.981540 -0.071913
v -0.275777 -0.186066 0.128016
vn -0.836667 -0.009646 0.547627
v -0.274318 -0.163428 0.209660
vn -0.287791 0.707452 0.645513
v -0.243210 -0.108075 0.197761
vn 0.518666 0.853645 -0.047700
v -0.210020 -0.104720 0.183919
vn 0.171552 -0.690948 -0.702254
v -0.191282 -0.209392 0.138141
vn 0.862426 0.355924 -0.359916
v -0.235269 -0.129834 0.122262
vn 0.541241 0.037223 -0.840043
v -0.205198 -0.173690 0.121100
vn -0.489282 -0.795585 -0.357279
v -0.229343 -0.222473 0.179428
vn -0.268191 -0.867005 -0.419970
v -0.184148 -0.301283 0.234365
vn -0.496016 0.556344 0.666671
v -0.218590 -0.158634 0.255862
vn 0.439888 0.835363 0.329646
v -0.181650 -0.137203 0.242311
vn 0.797981 0.475483 -0.370327
v -0.182075 -0.143736 0.180913
vn -0.891557 -0.202578 0.405077
v -0.311100 -0.132910 0.166317
vn -0.421857 0.902684 0.084846
v -0.295104 -0.082831 0.142022
vn 0.529217 0.802107 -0.276682
v -0.264439 -0.090815 0.114062
vn -0.979446 0.118853 -0.162972
v -0.316083 -0.141504 0.087682
vn -0.633917 -0.746189 0.203350
v -0.290897 -0.197688 0.072260
vn -0.936446 -0.190525 -0.294565
v -0.292214 -0.175866 0.003167
vn -0.349095 -0.819986 0.453602
v -0.235625 -0.248082 -0.018926
vn 0.637086 -0.427359 0.641472
v -0.220651 -0.238318 -0.015666
vn 0.612602 0.680724 -0.401663
v -0.244376 -0.143004 0.023106
vn 0.941828 0.329669 -0.065415
v -0.225851 -0.152005 0.064214
vn 0.880024 -0.262993 0.395464
v -0.227227 -0.170869 0.098289
vn -0.167069 0.789515 -0.590555
v -0.275508 -0.125963 0.024725
vn -0.417198 0.439703 -0.795366
v -0.248624 -0.223663 -0.066258
vn -0.468319 -0.794309 -0.386976
v -0.245236 -0.251053 -0.054183
vn 0.234442 -0.359742 0.903118
v -0.188896 -0.255630 -0.019979
vn 0.655017 0.748233 0.105359
v -0.220913 -0.215778 -0.035229
vn 0.827537 0.014990 0.561211
v -0.143261 -0.272116 -0.054335
vn 0.837439 -0.053856 -0.543871
v -0.144986 -0.252653 -0.082583
vn 0.667259 0.560190 0.490870
v -0.160334 -0.240234 -0.069639
vn 0.395972 0.766188 -0.506125
v -0.168135 -0.210725 -0.090481
vn 0.201750 0.950186 0.237580
v 0.208415 -0.152775 0.271191
vn 0.597454 0.235375 0.766582
v 0.175851 -0.176882 0.338920
vn 0.879083 0.476408 -0.015750
v 0.173869 -0.187524 0.210062
vn 0.917075 0.241366 -0.317356
v 0.173283 -0.154975 0.227034
vn 0.852817 0.521197 0.032513
v 0.254571 -0.173228 0.242593
vn 0.964726 -0.230787 -0.126656
v 0.261261 -0.239642 0.218321
vn 0.552832 0.513923 0.655942
v 0.229061 -0.189076 0.305735
vn 0.820700 -0.044770 0.569602
v 0.249433 -0.235649 0.299191
vn 0.286534 -0.931316 -0.224832
v 0.225636 -0.290025 0.235052
vn 0.350490 0.201395 0.914657
v 0.196838 -0.218366 0.333553
vn 0.272409 -0.204901 0.940111
v 0.193823 -0.255070 0.335439
vn 0.581507 -0.715072 0.387972
v 0.227716 -0.286661 0.293325
vn 0.794650 -0.485783 -0.364069
v 0.160311 -0.239998 0.168458
vn 0.421903 0.886314 -0.190905
v 0.210063 -0.161509 0.171167
vn 0.368761 0.759945 -0.535255
v 0.196039 -0.193674 0.012822
vn 0.998245 -0.006018 -0.058907
v 0.235511 -0.224435 0.087812
vn 0.534379 -0.816841 -0.217277
v 0.212355 -0.268159 0.071259
vn -0.766813 0.626575 -0.139288
v 0.155806 -0.194500 0.053944
vn -0.016554 -0.977492 -0.210323
v 0.177155 -0.294383 0.092153
vn -0.924756 -0.380559 -0.000671
v 0.128172 -0.263040 0.133846
vn 0.954828 0.235900 -0.180707
v 0.230917 -0.202437 0.158965
vn -0.899163 0.045083 0.435286
v 0.138172 -0.231587 0.197436
vn -0.204305 -0.943233 0.261862
v 0.169472 -0.289474 0.144836
vn 0.749745 -0.659881 -0.049386
v 0.222045 -0.254865 0.132081
vn 0.082418 0.969703 -0.229962
v 0.192233 -0.172929 0.115829
vn -0.963066 0.266243 -0.040243
v 0.145082 -0.199865 0.137070
vn -0.627307 0.778623 0.015257
v 0.158945 -0.172769 0.138230
vn -0.967565 0.231496 -0.101132
v 0.144343 -0.229643 0.124740
vn 0.754988 0.637673 -0.152862
v 0.223423 -0.184815 0.130410
vn 0.788185 -0.502835 -0.354854
v 0.209301 -0.287158 0.015771
vn 0.929334 -0.303516 -0.210277
v 0.227444 -0.259003 0.030832
vn -0.539903 0.642877 -0.543336
v 0.161370 -0.217132 0.000583
vn -0.014874 0.257515 -0.966160
v 0.154351 -0.256887 -0.026012
vn -0.942478 -0.184063 0.279026
v 0.142296 -0.257462 0.069912
vn -0.614909 0.220961 0.757009
v 0.102174 -0.337750 0.059528
vn 0.638305 -0.769463 -0.022211
v 0.130810 -0.372936 0.026346
vn 0.516548 -0.380905 0.766870
v 0.187154 -0.296044 0.064820
vn 0.471425 -0.219361 0.854189
v 0.079260 -0.404262 0.049973
vn -0.893696 0.448013 -0.024346
v 0.102605 -0.289969 0.018512
vn 0.304858 -0.313857 -0.899197
v 0.062794 -0.405995 -0.001825
vn -0.771238 0.316750 -0.552143
v 0.070346 -0.367052 -0.003845
vn 0.297507 -0.417639 -0.858526
v 0.123769 -0.358963 -0.018717
vn -0.776690 -0.121294 -0.618094
v 0.034648 -0.482767 -0.000843
vn -0.947098 0.243613 0.208947
v 0.039529 -0.406639 0.027450
vn 0.944813 -0.255701 0.204805
v 0.087338 -0.477822 0.048088
vn -0.274947 -0.123158 0.953539
v 0.052003 -0.451955 0.078500
vn -0.161937 -0.986715 -0.013073
v 0.065294 -0.503936 0.025143
vn -0.872575 -0.488121 -0.018713
v 0.109846 0.855579 -0.381047
vn 0.663752 -0.747952 -0.001025
v 0.146708 0.846757 -0.313886
vn -0.671815 0.642563 -0.368480
v 0.107182 0.851374 -0.538008
vn -0.974572 -0.098234 -0.201394
v 0.098849 0.864104 -0.265275
vn -0.472467 0.874311 -0.111157
v 0.125017 0.882924 -0.428021
vn -0.162770 0.932968 -0.321055
v 0.127052 0.908542 -0.341399
vn 0.969134 0.246272 0.011391
v 0.158446 0.851033 -0.458499
vn 0.950108 0.287497 -0.121001
v 0.146557 0.881506 -0.345469
vn 0.626691 0.778972 0.021476
v 0.139385 0.933107 -0.267373
vn 0.949746 -0.144654 -0.277593
v 0.164180 0.862042 -0.257454
vn 0.397674 -0.882212 0.252104
v 0.143836 0.819690 -0.462270
vn -0.831788 -0.505382 0.229604
v 0.113841 0.829382 -0.475320
vn 0.869324 0.461532 -0.176816
v 0.168396 0.861035 -0.535837
vn -0.015748 -0.751815 0.659186
v 0.139781 0.744130 -0.564939
vn -0.929397 -0.201276 0.309370
v 0.106027 0.782604 -0.569897
vn -0.371630 0.878684 -0.299675
v 0.125275 0.818498 -0.588929
vn 0.608557 0.723741 -0.325357
v 0.155630 0.816746 -0.585475
vn 0.179292 -0.766840 0.616288
v 0.144657 0.798965 -0.531225
vn 0.967946 -0.179272 0.175902
v 0.164353 0.804751 -0.553588
vn -0.988316 -0.151856 0.013114
v -0.124240 0.658330 -0.312328
vn 0.963553 0.192175 -0.186102
v -0.086388 0.651598 -0.363033
vn 0.967726 -0.251995 0.002381
v -0.074749 0.645074 -0.312342
vn -0.062839 -0.871015 0.487221
v -0.104480 0.642767 -0.291622
vn 0.649101 0.607585 -0.457721
v -0.091522 0.593305 -0.452564
vn 0.688540 -0.686779 0.232908
v -0.076359 0.518280 -0.455638
vn -0.064092 0.976430 -0.206099
v -0.105596 0.583634 -0.487726
vn -0.441136 -0.618758 0.650029
v -0.109389 0.538114 -0.424306
vn -0.884537 0.444174 -0.142491
v -0.121269 0.585729 -0.428895
vn -0.814833 0.436113 -0.381906
v -0.108002 0.670925 -0.335600
vn 0.088707 0.729310 -0.678408
v -0.091731 0.697790 -0.337165
vn 0.785261 0.569109 0.243884
v -0.079931 0.568094 -0.532120
vn 0.968262 -0.150535 0.199520
v -0.081067 0.562419 -0.416692
vn -0.298595 -0.934437 0.194084
v -0.116552 0.508300 -0.459588
vn -0.970759 0.107791 0.214493
v -0.136020 0.544755 -0.458199
vn 0.479460 -0.866145 0.141107
v -0.088660 0.525957 -0.505137
vn 0.964221 -0.163024 0.209047
v -0.062780 0.538486 -0.566046
vn -0.926997 -0.326047 0.185391
v -0.141040 0.532574 -0.544064
vn -0.554856 0.804014 0.213767
v -0.120825 0.574630 -0.534192
vn -0.479595 -0.877489 -0.001547
v -0.128487 0.509883 -0.567148
vn 0.241777 -0.957145 -0.159429
v -0.091403 0.506770 -0.569533
vn 0.685194 -0.728184 -0.016049
v -0.077423 0.514051 -0.570180
vn -0.323072 -0.943165 0.077871
v -0.009988 0.866171 -0.137504
vn -0.727971 -0.675711 0.116074
v -0.019765 0.915906 0.074103
vn -0.999960 0.007008 0.005628
v -0.025562 0.893521 -0.125654
vn -0.825236 -0.564784 0.002128
v -0.021724 0.872161 -0.153875
vn -0.782669 0.621863 -0.026742
v -0.002469 0.934812 -0.142872
vn -0.638639 0.763339 -0.097233
v -0.011117 0.952620 -0.031478
vn 0.018982 -0.986404 0.163240
v 0.017388 0.864526 -0.115230
vn -0.010343 -0.996073 0.087935
v 0.017457 0.895971 0.074348
vn 0.134283 0.989821 -0.047143
v 0.020588 0.980608 -0.002747
vn 0.460692 -0.874345 0.152587
v 0.047321 0.878014 -0.087276
vn 0.686254 -0.725295 0.054789
v 0.053781 0.870927 -0.152242
vn 0.642167 0.765437 -0.041569
v 0.036636 0.938052 -0.131630
vn 0.995800 -0.091536 0.001829
v 0.062051 0.889617 -0.150088
vn -0.415691 0.907532 -0.059879
v 0.004423 0.960232 -0.138361
vn 0.979739 0.197072 -0.035707
v 0.060447 0.912284 -0.045169
vn 0.659580 0.750989 0.031141
v 0.046024 0.967997 0.059308
vn 0.745610 0.665717 -0.029767
v 0.032452 0.959155 -0.123883
vn -0.999520 0.030482 -0.005574
v -0.025577 0.904932 -0.243826
vn -0.634533 0.762687 0.125202
v 0.003055 0.959489 -0.242647
vn 0.121384 -0.992070 0.032619
v 0.025254 0.859519 -0.160288
vn -0.378074 -0.918658 -0.114572
v -0.002656 0.867070 -0.221109
vn -0.875401 0.481726 -0.040161
v -0.014865 0.927574 -0.105413
vn 0.709633 -0.694063 -0.121234
v 0.054694 0.878509 -0.255448
vn 0.825326 0.556082 0.098034
v 0.042299 0.939090 -0.248099
vn 0.870599 0.489487 0.049588
v 0.058441 0.930825 -0.265228
vn 0.963145 0.268982 -0.000141
v 0.056336 0.904051 -0.141961
vn 0.997873 -0.041817 -0.050013
v 0.062385 0.898064 -0.245841
vn 0.835978 0.547068 -0.043088
v 0.050249 0.932006 -0.115876
vn 0.057362 -0.975714 -0.211403
v 0.017878 0.861843 -0.243473
vn 0.151259 0.937492 -0.313415
v 0.108908 -0.035640 -0.563635
vn 0.929636 -0.269239 0.251569
v 0.143823 -0.066946 -0.509996
vn -0.881549 -0.332340 0.335292
v 0.079725 -0.070304 -0.520476
vn -0.850487 -0.345935 0.396234
v 0.085498 -0.102755 -0.564272
vn 0.401501 -0.741786 0.537169
v 0.128883 -0.106836 -0.560536
vn 0.529975 0.562435 -0.634660
v 0.139556 -0.067644 -0.639166
vn 0.975938 0.198193 0.090908
v 0.138516 -0.080925 -0.569130
vn 0.921702 -0.294702 -0.252221
v -0.049692 0.027929 -0.486327
vn -0.995761 -0.054578 -0.074036
v -0.110444 0.045368 -0.485977
vn -0.853051 -0.046800 -0.519725
v -0.114938 0.113378 -0.501937
vn 0.971350 -0.027686 -0.236036
v -0.049485 0.092627 -0.496464
vn -0.656362 -0.159511 0.737391
v -0.094563 0.095533 -0.463327
# 790 vertices, 0 vertices normals

f 270//270 56//56 104//104
f 104//104 272//272 270//270
f 215//215 51//51 213//213
f 82//82 77//77 87//87
f 17//17 19//19 18//18
f 26//26 29//29 13//13
f 27//27 25//25 28//28
f 5//5 24//24 25//25
f 4//4 3//3 1//1
f 142//142 75//75 84//84
f 14//14 9//9 10//10
f 14//14 10//10 15//15
f 38//38 42//42 41//41
f 76//76 26//26 44//44
f 157//157 16//16 7//7
f 4//4 153//153 147//147
f 4//4 147//147 3//3
f 6//6 211//211 213//213
f 6//6 17//17 211//211
f 37//37 242//242 11//11
f 167//167 243//243 42//42
f 43//43 41//41 8//8
f 43//43 8//8 39//39
f 167//167 42//42 38//38
f 3//3 2//2 1//1
f 14//14 146//146 49//49
f 41//41 241//241 240//240
f 7//7 147//147 157//157
f 9//9 258//258 259//259
f 42//42 243//243 241//241
f 8//8 244//244 12//12
f 13//13 246//246 44//44
f 37//37 149//149 15//15
f 13//13 29//29 39//39
f 5//5 211//211 17//17
f 6//6 2//2 7//7
f 2//2 3//3 147//147
f 2//2 147//147 7//7
f 4//4 141//141 153//153
f 41//41 240//240 8//8
f 25//25 27//27 5//5
f 13//13 44//44 26//26
f 13//13 39//39 12//12
f 13//13 12//12 245//245
f 43//43 38//38 41//41
f 167//167 11//11 36//36
f 167//167 36//36 243//243
f 37//37 11//11 167//167
f 37//37 15//15 10//10
f 37//37 10//10 242//242
f 146//146 14//14 15//15
f 146//146 15//15 149//149
f 14//14 49//49 266//266
f 14//14 266//266 9//9
f 9//9 259//259 10//10
f 42//42 241//241 41//41
f 245//245 246//246 13//13
f 142//142 141//141 75//75
f 84//84 144//144 142//142
f 143//143 45//45 146//146
f 157//157 147//147 156//156
f 2//2 6//6 213//213
f 2//2 213//213 1//1
f 157//157 160//160 16//16
f 6//6 16//16 17//17
f 5//5 18//18 24//24
f 16//16 6//6 7//7
f 27//27 64//64 5//5
f 27//27 26//26 76//76
f 27//27 76//76 64//64
f 28//28 26//26 27//27
f 75//75 4//4 1//1
f 50//50 212//212 5//5
f 266//266 258//258 9//9
f 141//141 4//4 75//75
f 36//36 11//11 242//242
f 36//36 242//242 255//255
f 5//5 17//17 18//18
f 39//39 8//8 12//12
f 35//35 31//31 30//30
f 21//21 35//35 30//30
f 20//20 24//24 18//18
f 20//20 18//18 19//19
f 32//32 34//34 43//43
f 32//32 43//43 39//39
f 166//166 23//23 40//40
f 40//40 16//16 160//160
f 38//38 34//34 150//150
f 23//23 22//22 21//21
f 23//23 21//21 20//20
f 24//24 21//21 28//28
f 29//29 28//28 30//30
f 34//34 31//31 33//33
f 34//34 33//33 150//150
f 160//160 166//166 40//40
f 166//166 22//22 23//23
f 38//38 43//43 34//34
f 40//40 19//19 17//17
f 40//40 17//17 16//16
f 23//23 20//20 19//19
f 23//23 19//19 40//40
f 162//162 35//35 21//21
f 162//162 21//21 22//22
f 20//20 21//21 24//24
f 24//24 28//28 25//25
f 30//30 28//28 21//21
f 39//39 29//29 32//32
f 28//28 29//29 26//26
f 29//29 30//30 31//31
f 29//29 31//31 32//32
f 32//32 31//31 34//34
f 33//33 31//31 35//35
f 33//33 35//35 162//162
f 66//66 65//65 67//67
f 76//76 66//66 64//64
f 67//67 63//63 50//50
f 67//67 50//50 66//66
f 46//46 63//63 61//61
f 47//47 1//1 213//213
f 75//75 1//1 48//48
f 75//75 48//48 83//83
f 84//84 75//75 119//119
f 56//56 269//269 49//49
f 52//52 66//66 76//76
f 51//51 59//59 94//94
f 51//51 94//94 47//47
f 48//48 85//85 92//92
f 48//48 92//92 83//83
f 213//213 51//51 47//47
f 46//46 59//59 51//51
f 57//57 54//54 53//53
f 57//57 53//53 77//77
f 57//57 77//77 82//82
f 51//51 215//215 46//46
f 49//49 146//146 86//86
f 279//279 281//281 57//57
f 279//279 57//57 79//79
f 49//49 269//269 288//288
f 53//53 271//271 272//272
f 53//53 272//272 104//104
f 273//273 279//279 79//79
f 56//56 86//86 101//101
f 59//59 61//61 58//58
f 81//81 68//68 65//65
f 50//50 46//46 212//212
f 47//47 85//85 48//48
f 46//46 50//50 63//63
f 215//215 212//212 46//46
f 81//81 65//65 55//55
f 65//65 66//66 52//52
f 76//76 44//44 52//52
f 52//52 55//55 65//65
f 55//55 273//273 81//81
f 79//79 81//81 273//273
f 53//53 104//104 77//77
f 87//87 77//77 104//104
f 270//270 269//269 56//56
f 86//86 56//56 49//49
f 49//49 288//288 266//266
f 54//54 271//271 53//53
f 57//57 281//281 54//54
f 44//44 292//292 52//52
f 75//75 83//83 118//118
f 86//86 146//146 45//45
f 86//86 45//45 120//120
f 85//85 93//93 92//92
f 94//94 85//85 47//47
f 1//1 47//47 48//48
f 46//46 61//61 59//59
f 50//50 64//64 66//66
f 65//65 68//68 67//67
f 64//64 50//50 5//5
f 101//101 104//104 56//56
f 78//78 57//57 82//82
f 69//69 71//71 72//72
f 67//67 68//68 70//70
f 63//63 67//67 70//70
f 69//69 73//73 62//62
f 60//60 61//61 63//63
f 71//71 79//79 72//72
f 81//81 79//79 71//71
f 60//60 80//80 58//58
f 60//60 58//58 61//61
f 60//60 62//62 100//100
f 60//60 100//100 80//80
f 73//73 72//72 74//74
f 73//73 74//74 98//98
f 78//78 74//74 72//72
f 78//78 82//82 90//90
f 58//58 80//80 103//103
f 80//80 100//100 103//103
f 72//72 79//79 78//78
f 71//71 68//68 81//81
f 79//79 57//57 78//78
f 58//58 94//94 59//59
f 100//100 62//62 73//73
f 100//100 73//73 98//98
f 63//63 62//62 60//60
f 62//62 63//63 70//70
f 62//62 70//70 69//69
f 68//68 71//71 69//69
f 68//68 69//69 70//70
f 69//69 72//72 73//73
f 112//112 118//118 92//92
f 101//101 113//113 135//135
f 101//101 135//135 87//87
f 93//93 85//85 94//94
f 144//144 119//119 120//120
f 86//86 120//120 121//121
f 119//119 75//75 118//118
f 120//120 45//45 144//144
f 101//101 86//86 121//121
f 101//101 121//121 113//113
f 118//118 83//83 92//92
f 119//119 144//144 84//84
f 104//104 101//101 87//87
f 125//125 124//124 102//102
f 128//128 125//125 97//97
f 89//89 131//131 127//127
f 89//89 127//127 128//128
f 128//128 99//99 91//91
f 128//128 91//91 89//89
f 88//88 87//87 134//134
f 88//88 134//134 131//131
f 92//92 93//93 112//112
f 89//89 90//90 88//88
f 78//78 90//90 91//91
f 78//78 91//91 74//74
f 94//94 58//58 95//95
f 103//103 102//102 95//95
f 103//103 95//95 58//58
f 102//102 97//97 125//125
f 98//98 74//74 99//99
f 103//103 100//100 97//97
f 103//103 97//97 102//102
f 135//135 134//134 87//87
f 74//74 91//91 99//99
f 131//131 89//89 88//88
f 96//96 102//102 124//124
f 124//124 112//112 93//93
f 124//124 93//93 96//96
f 88//88 90//90 82//82
f 88//88 82//82 87//87
f 91//91 90//90 89//89
f 94//94 95//95 96//96
f 95//95 102//102 96//96
f 97//97 99//99 128//128
f 97//97 100//100 98//98
f 97//97 98//98 99//99
f 96//96 93//93 94//94
f 105//105 712//712 116//116
f 126//126 124//124 125//125
f 126//126 130//130 110//110
f 130//130 129//129 111//111
f 117//117 122//122 116//116
f 114//114 115//115 116//116
f 116//116 108//108 107//107
f 717//717 105//105 109//109
f 126//126 127//127 132//132
f 126//126 132//132 130//130
f 126//126 125//125 127//127
f 119//119 117//117 115//115
f 119//119 115//115 120//120
f 114//114 121//121 115//115
f 122//122 117//117 118//118
f 122//122 118//118 112//112
f 108//108 710//710 718//718
f 106//106 107//107 108//108
f 111//111 106//106 108//108
f 110//110 111//111 718//718
f 111//111 129//129 106//106
f 109//109 123//123 110//110
f 113//113 121//121 114//114
f 116//116 115//115 117//117
f 106//106 129//129 133//133
f 133//133 129//129 134//134
f 133//133 134//134 135//135
f 121//121 120//120 115//115
f 117//117 119//119 118//118
f 133//133 135//135 113//113
f 112//112 124//124 123//123
f 112//112 123//123 122//122
f 124//124 126//126 123//123
f 128//128 127//127 125//125
f 131//131 132//132 127//127
f 134//134 129//129 132//132
f 134//134 132//132 131//131
f 114//114 107//107 113//113
f 109//109 105//105 122//122
f 113//113 107//107 106//106
f 113//113 106//106 133//133
f 116//116 712//712 108//108
f 105//105 116//116 122//122
f 114//114 116//116 107//107
f 108//108 718//718 111//111
f 718//718 109//109 110//110
f 129//129 130//130 132//132
f 111//111 110//110 130//130
f 110//110 123//123 126//126
f 122//122 123//123 109//109
f 138//138 137//137 136//136
f 140//140 722//722 136//136
f 137//137 725//725 140//140
f 138//138 722//722 723//723
f 139//139 723//723 724//724
f 136//136 722//722 138//138
f 140//140 136//136 137//137
f 724//724 725//725 137//137
f 724//724 137//137 139//139
f 138//138 139//139 137//137
f 139//139 138//138 723//723
f 153//153 148//148 185//185
f 167//167 183//183 37//37
f 156//156 147//147 153//153
f 156//156 153//153 154//154
f 145//145 190//190 142//142
f 141//141 148//148 153//153
f 149//149 143//143 146//146
f 145//145 144//144 45//45
f 145//145 45//45 143//143
f 157//157 156//156 155//155
f 157//157 155//155 160//160
f 141//141 142//142 148//148
f 142//142 190//190 148//148
f 142//142 144//144 145//145
f 183//183 149//149 37//37
f 38//38 150//150 167//167
f 152//152 185//185 193//193
f 158//158 193//193 194//194
f 158//158 194//194 165//165
f 165//165 194//194 161//161
f 161//161 196//196 151//151
f 200//200 202//202 167//167
f 193//193 158//158 152//152
f 152//152 158//158 154//154
f 151//151 200//200 150//150
f 33//33 151//151 150//150
f 159//159 160//160 155//155
f 160//160 159//159 164//164
f 160//160 164//164 166//166
f 164//164 163//163 22//22
f 164//164 22//22 166//166
f 167//167 202//202 183//183
f 162//162 163//163 151//151
f 162//162 151//151 33//33
f 200//200 151//151 196//196
f 163//163 161//161 151//151
f 152//152 153//153 185//185
f 167//167 150//150 200//200
f 154//154 158//158 159//159
f 154//154 159//159 155//155
f 158//158 165//165 164//164
f 158//158 164//164 159//159
f 161//161 163//163 165//165
f 165//165 163//163 164//164
f 163//163 162//162 22//22
f 152//152 154//154 153//153
f 155//155 156//156 154//154
f 194//194 193//193 192//192
f 179//179 182//182 195//195
f 182//182 198//198 195//195
f 182//182 177//177 176//176
f 182//182 176//176 180//180
f 177//177 728//728 176//176
f 169//169 168//168 189//189
f 188//188 169//169 189//189
f 170//170 172//172 169//169
f 181//181 174//174 184//184
f 176//176 174//174 181//181
f 178//178 173//173 175//175
f 178//178 192//192 173//173
f 196//196 161//161 195//195
f 195//195 161//161 194//194
f 195//195 194//194 192//192
f 190//190 188//188 189//189
f 190//190 187//187 188//188
f 187//187 191//191 186//186
f 181//181 184//184 201//201
f 185//185 148//148 189//189
f 189//189 148//148 190//190
f 169//169 188//188 187//187
f 170//170 187//187 184//184
f 186//186 183//183 201//201
f 186//186 184//184 187//187
f 191//191 190//190 145//145
f 191//191 145//145 143//143
f 195//195 192//192 179//179
f 181//181 197//197 180//180
f 199//199 196//196 198//198
f 196//196 199//199 200//200
f 183//183 202//202 197//197
f 183//183 197//197 201//201
f 186//186 201//201 184//184
f 187//187 190//190 191//191
f 186//186 149//149 183//183
f 191//191 143//143 149//149
f 191//191 149//149 186//186
f 200//200 199//199 197//197
f 200//200 197//197 202//202
f 201//201 197//197 181//181
f 174//174 170//170 184//184
f 174//174 176//176 172//172
f 174//174 172//172 170//170
f 168//168 173//173 192//192
f 168//168 192//192 185//185
f 193//193 185//185 192//192
f 172//172 171//171 169//169
f 173//173 168//168 171//171
f 168//168 169//169 171//171
f 169//169 187//187 170//170
f 185//185 189//189 168//168
f 181//181 180//180 176//176
f 179//179 178//178 177//177
f 182//182 179//179 177//177
f 199//199 198//198 180//180
f 199//199 180//180 197//197
f 180//180 198//198 182//182
f 195//195 198//198 196//196
f 179//179 192//192 178//178
f 175//175 177//177 178//178
f 747//747 745//745 207//207
f 205//205 204//204 739//739
f 206//206 744//744 749//749
f 748//748 203//203 206//206
f 203//203 747//747 207//207
f 204//204 746//746 739//739
f 748//748 747//747 203//203
f 207//207 204//204 203//203
f 203//203 205//205 206//206
f 744//744 206//206 205//205
f 748//748 206//206 749//749
f 207//207 745//745 204//204
f 204//204 745//745 746//746
f 204//204 205//205 203//203
f 226//226 209//209 224//224
f 212//212 211//211 5//5
f 210//210 208//208 211//211
f 209//209 211//211 208//208
f 211//211 212//212 210//210
f 210//210 212//212 214//214
f 751//751 757//757 209//209
f 209//209 208//208 751//751
f 219//219 208//208 210//210
f 221//221 210//210 214//214
f 213//213 211//211 215//215
f 216//216 212//212 215//215
f 209//209 215//215 211//211
f 216//216 215//215 209//209
f 214//214 212//212 216//216
f 209//209 226//226 216//216
f 765//765 216//216 225//225
f 226//226 225//225 216//216
f 214//214 216//216 765//765
f 754//754 220//220 218//218
f 756//756 757//757 751//751
f 755//755 217//217 219//219
f 755//755 219//219 220//220
f 218//218 220//220 221//221
f 218//218 221//221 758//758
f 221//221 220//220 210//210
f 751//751 208//208 217//217
f 219//219 217//217 208//208
f 220//220 219//219 210//210
f 223//223 758//758 221//221
f 765//765 761//761 223//223
f 226//226 222//222 764//764
f 756//756 759//759 224//224
f 759//759 222//222 224//224
f 226//226 224//224 222//222
f 766//766 758//758 223//223
f 761//761 766//766 223//223
f 756//756 224//224 757//757
f 759//759 756//756 769//769
f 764//764 225//225 226//226
f 765//765 225//225 764//764
f 214//214 223//223 221//221
f 224//224 209//209 757//757
f 223//223 214//214 765//765
f 232//232 230//230 231//231
f 768//768 232//232 231//231
f 767//767 230//230 228//228
f 233//233 232//232 768//768
f 227//227 770//770 228//228
f 227//227 229//229 237//237
f 227//227 228//228 230//230
f 227//227 230//230 229//229
f 231//231 230//230 767//767
f 778//778 770//770 227//227
f 233//233 768//768 238//238
f 229//229 232//232 234//234
f 229//229 230//230 232//232
f 772//772 235//235 776//776
f 238//238 236//236 233//233
f 237//237 234//234 774//774
f 238//238 773//773 236//236
f 236//236 774//774 234//234
f 229//229 234//234 237//237
f 232//232 233//233 234//234
f 233//233 236//236 234//234
f 236//236 773//773 774//774
f 237//237 235//235 227//227
f 235//235 772//772 778//778
f 235//235 778//778 227//227
f 237//237 776//776 235//235
f 774//774 776//776 237//237
f 272//272 284//284 270//270
f 250//250 260//260 248//248
f 249//249 308//308 246//246
f 264//264 258//258 267//267
f 257//257 263//263 254//254
f 253//253 261//261 312//312
f 253//253 312//312 252//252
f 239//239 252//252 313//313
f 239//239 313//313 311//311
f 265//265 44//44 246//246
f 251//251 243//243 36//36
f 10//10 259//259 254//254
f 311//311 260//260 239//239
f 240//240 250//250 8//8
f 296//296 247//247 308//308
f 249//249 245//245 244//244
f 249//249 244//244 248//248
f 252//252 241//241 251//251
f 253//253 251//251 255//255
f 253//253 255//255 256//256
f 256//256 255//255 254//254
f 310//310 248//248 309//309
f 259//259 258//258 257//257
f 311//311 309//309 260//260
f 261//261 262//262 315//315
f 263//263 317//317 316//316
f 263//263 316//316 262//262
f 257//257 264//264 318//318
f 240//240 239//239 260//260
f 240//240 260//260 250//250
f 254//254 255//255 242//242
f 254//254 242//242 10//10
f 251//251 241//241 243//243
f 250//250 244//244 8//8
f 244//244 245//245 12//12
f 241//241 252//252 239//239
f 241//241 239//239 240//240
f 252//252 312//312 313//313
f 251//251 253//253 252//252
f 253//253 256//256 262//262
f 253//253 262//262 261//261
f 256//256 254//254 263//263
f 256//256 263//263 262//262
f 317//317 263//263 257//257
f 317//317 257//257 318//318
f 259//259 257//257 254//254
f 257//257 258//258 264//264
f 262//262 316//316 315//315
f 319//319 247//247 296//296
f 265//265 246//246 308//308
f 265//265 308//308 247//247
f 308//308 249//249 310//310
f 245//245 249//249 246//246
f 309//309 248//248 260//260
f 250//250 248//248 244//244
f 267//267 258//258 266//266
f 292//292 44//44 265//265
f 310//310 249//249 248//248
f 255//255 251//251 36//36
f 292//292 293//293 274//274
f 283//283 341//341 343//343
f 283//283 343//343 286//286
f 282//282 291//291 342//342
f 282//282 342//342 285//285
f 268//268 291//291 282//282
f 274//274 52//52 292//292
f 278//278 273//273 276//276
f 271//271 54//54 280//280
f 267//267 266//266 288//288
f 268//268 278//278 290//290
f 268//268 281//281 279//279
f 275//275 55//55 274//274
f 275//275 293//293 346//346
f 282//282 280//280 281//281
f 283//283 284//284 271//271
f 283//283 271//271 285//285
f 286//286 289//289 284//284
f 339//339 276//276 277//277
f 339//339 277//277 338//338
f 287//287 345//345 288//288
f 287//287 288//288 289//289
f 290//290 339//339 325//325
f 279//279 278//278 268//268
f 290//290 325//325 268//268
f 288//288 269//269 289//289
f 269//269 270//270 284//284
f 269//269 284//284 289//289
f 54//54 281//281 280//280
f 279//279 273//273 278//278
f 273//273 55//55 277//277
f 273//273 277//277 276//276
f 55//55 52//52 274//274
f 281//281 268//268 282//282
f 280//280 282//282 285//285
f 280//280 285//285 271//271
f 342//342 341//341 283//283
f 342//342 283//283 285//285
f 284//284 283//283 286//286
f 343//343 287//287 286//286
f 289//289 286//286 287//287
f 288//288 345//345 267//267
f 268//268 325//325 291//291
f 291//291 349//349 342//342
f 293//293 275//275 274//274
f 338//338 277//277 275//275
f 55//55 275//275 277//277
f 339//339 290//290 276//276
f 276//276 290//290 278//278
f 319//319 346//346 293//293
f 319//319 293//293 247//247
f 247//247 293//293 292//292
f 247//247 292//292 265//265
f 267//267 345//345 264//264
f 272//272 271//271 284//284
f 304//304 303//303 305//305
f 320//320 299//299 412//412
f 294//294 298//298 297//297
f 337//337 319//319 486//486
f 336//336 330//330 328//328
f 349//349 324//324 351//351
f 322//322 321//321 432//432
f 486//486 319//319 296//296
f 484//484 301//301 300//300
f 305//305 308//308 310//310
f 318//318 426//426 413//413
f 316//316 424//424 429//429
f 316//316 429//429 315//315
f 347//347 416//416 422//422
f 261//261 430//430 314//314
f 261//261 314//314 312//312
f 478//478 299//299 320//320
f 413//413 424//424 317//317
f 413//413 317//317 318//318
f 496//496 320//320 306//306
f 301//301 482//482 302//302
f 305//305 481//481 296//296
f 426//426 323//323 422//422
f 304//304 309//309 295//295
f 303//303 302//302 482//482
f 411//411 306//306 320//320
f 496//496 306//306 344//344
f 307//307 416//416 347//347
f 307//307 347//347 344//344
f 478//478 479//479 299//299
f 311//311 313//313 314//314
f 311//311 314//314 295//295
f 313//313 312//312 314//314
f 363//363 422//422 323//323
f 411//411 307//307 306//306
f 261//261 315//315 429//429
f 261//261 429//429 430//430
f 424//424 316//316 317//317
f 318//318 264//264 323//323
f 318//318 323//323 426//426
f 295//295 309//309 311//311
f 309//309 304//304 310//310
f 304//304 305//305 310//310
f 305//305 296//296 308//308
f 304//304 295//295 302//302
f 479//479 484//484 300//300
f 484//484 482//482 301//301
f 302//302 303//303 304//304
f 305//305 303//303 481//481
f 296//296 481//481 486//486
f 344//344 306//306 307//307
f 428//428 411//411 320//320
f 478//478 320//320 496//496
f 412//412 428//428 320//320
f 298//298 321//321 297//297
f 295//295 314//314 294//294
f 295//295 294//294 297//297
f 297//297 302//302 295//295
f 297//297 322//322 302//302
f 301//301 432//432 300//300
f 418//418 479//479 300//300
f 418//418 300//300 431//431
f 432//432 321//321 298//298
f 432//432 298//298 417//417
f 321//321 322//322 297//297
f 412//412 299//299 479//479
f 412//412 479//479 418//418
f 314//314 430//430 410//410
f 322//322 432//432 301//301
f 300//300 432//432 431//431
f 301//301 302//302 322//322
f 294//294 417//417 298//298
f 486//486 491//491 337//337
f 337//337 346//346 319//319
f 512//512 337//337 491//491
f 490//490 331//331 493//493
f 333//333 348//348 496//496
f 337//337 512//512 327//327
f 327//327 338//338 275//275
f 327//327 275//275 337//337
f 354//354 363//363 287//287
f 349//349 340//340 342//342
f 349//349 291//291 325//325
f 343//343 361//361 354//354
f 348//348 352//352 353//353
f 487//487 497//497 348//348
f 336//336 492//492 330//330
f 331//331 494//494 334//334
f 347//347 379//379 344//344
f 336//336 325//325 327//327
f 492//492 493//493 330//330
f 496//496 344//344 333//333
f 348//348 334//334 487//487
f 348//348 353//353 334//334
f 344//344 326//326 333//333
f 344//344 379//379 326//326
f 326//326 379//379 352//352
f 340//340 361//361 341//341
f 340//340 341//341 342//342
f 343//343 341//341 361//361
f 354//354 287//287 343//343
f 363//363 345//345 287//287
f 363//363 380//380 347//347
f 347//347 380//380 379//379
f 339//339 338//338 327//327
f 339//339 327//327 325//325
f 275//275 346//346 337//337
f 325//325 336//336 328//328
f 334//334 494//494 487//487
f 494//494 331//331 490//490
f 331//331 335//335 493//493
f 493//493 335//335 330//330
f 492//492 336//336 327//327
f 512//512 492//492 327//327
f 422//422 363//363 347//347
f 264//264 345//345 363//363
f 264//264 363//363 323//323
f 348//348 333//333 326//326
f 348//348 326//326 352//352
f 332//332 330//330 335//335
f 328//328 330//330 329//329
f 349//349 325//325 324//324
f 324//324 329//329 362//362
f 324//324 362//362 350//350
f 332//332 355//355 329//329
f 331//331 355//355 332//332
f 331//331 332//332 335//335
f 355//355 331//331 334//334
f 355//355 334//334 356//356
f 324//324 325//325 328//328
f 362//362 329//329 355//355
f 328//328 329//329 324//324
f 330//330 332//332 329//329
f 356//356 334//334 353//353
f 351//351 340//340 349//349
f 324//324 350//350 351//351
f 352//352 365//365 353//353
f 363//363 354//354 383//383
f 353//353 365//365 357//357
f 379//379 384//384 352//352
f 352//352 384//384 365//365
f 360//360 358//358 359//359
f 357//357 389//389 364//364
f 354//354 358//358 383//383
f 361//361 340//340 359//359
f 364//364 359//359 351//351
f 350//350 364//364 351//351
f 379//379 380//380 381//381
f 359//359 364//364 360//360
f 380//380 363//363 376//376
f 351//351 359//359 340//340
f 362//362 357//357 364//364
f 362//362 364//364 350//350
f 355//355 357//357 362//362
f 383//383 376//376 363//363
f 357//357 356//356 353//353
f 358//358 361//361 359//359
f 357//357 355//355 356//356
f 383//383 358//358 382//382
f 361//361 358//358 354//354
f 357//357 365//365 389//389
f 364//364 390//390 388//388
f 364//364 388//388 360//360
f 382//382 358//358 360//360
f 382//382 360//360 388//388
f 390//390 364//364 389//389
f 374//374 366//366 372//372
f 390//390 389//389 366//366
f 390//390 366//366 374//374
f 389//389 369//369 366//366
f 371//371 375//375 373//373
f 366//366 399//399 372//372
f 370//370 367//367 391//391
f 370//370 394//394 395//395
f 378//378 367//367 376//376
f 376//376 383//383 378//378
f 366//366 369//369 395//395
f 381//381 367//367 370//370
f 369//369 368//368 395//395
f 369//369 389//389 385//385
f 367//367 381//381 380//380
f 381//381 368//368 379//379
f 374//374 373//373 386//386
f 374//374 386//386 390//390
f 375//375 377//377 378//378
f 375//375 378//378 387//387
f 385//385 389//389 365//365
f 383//383 382//382 387//387
f 383//383 387//387 378//378
f 390//390 386//386 388//388
f 388//388 386//386 387//387
f 388//388 387//387 382//382
f 365//365 384//384 385//385
f 384//384 379//379 385//385
f 367//367 380//380 376//376
f 366//366 395//395 399//399
f 379//379 368//368 385//385
f 369//369 385//385 368//368
f 378//378 377//377 367//367
f 377//377 391//391 367//367
f 394//394 370//370 391//391
f 368//368 381//381 370//370
f 399//399 402//402 371//371
f 399//399 371//371 372//372
f 377//377 375//375 371//371
f 377//377 371//371 391//391
f 373//373 374//374 372//372
f 373//373 372//372 371//371
f 386//386 373//373 375//375
f 386//386 375//375 387//387
f 368//368 370//370 395//395
f 403//403 371//371 402//402
f 371//371 403//403 391//391
f 779//779 781//781 401//401
f 781//781 780//780 393//393
f 392//392 779//779 401//401
f 780//780 779//779 392//392
f 398//398 403//403 402//402
f 395//395 394//394 400//400
f 396//396 400//400 401//401
f 401//401 781//781 396//396
f 403//403 394//394 391//391
f 401//401 400//400 403//403
f 397//397 393//393 780//780
f 392//392 397//397 780//780
f 401//401 398//398 392//392
f 398//398 401//401 403//403
f 393//393 396//396 781//781
f 393//393 400//400 396//396
f 403//403 400//400 394//394
f 393//393 397//397 402//402
f 397//397 392//392 398//398
f 397//397 398//398 402//402
f 393//393 395//395 400//400
f 393//393 399//399 395//395
f 399//399 393//393 402//402
f 784//784 404//404 406//406
f 785//785 407//407 784//784
f 783//783 407//407 785//785
f 406//406 404//404 782//782
f 405//405 407//407 783//783
f 405//405 782//782 404//404
f 405//405 404//404 407//407
f 407//407 404//404 784//784
f 414//414 413//413 426//426
f 416//416 441//441 415//415
f 422//422 416//416 415//415
f 423//423 411//411 428//428
f 428//428 412//412 418//418
f 411//411 423//423 307//307
f 425//425 429//429 424//424
f 425//425 424//424 413//413
f 422//422 415//415 426//426
f 425//425 413//413 414//414
f 420//420 425//425 419//419
f 433//433 427//427 423//423
f 433//433 423//423 428//428
f 408//408 432//432 417//417
f 414//414 419//419 425//425
f 430//430 421//421 410//410
f 427//427 448//448 423//423
f 414//414 415//415 439//439
f 427//427 433//433 431//431
f 427//427 431//431 408//408
f 410//410 421//421 420//420
f 294//294 410//410 409//409
f 294//294 314//314 410//410
f 409//409 408//408 417//417
f 409//409 417//417 294//294
f 414//414 444//444 419//419
f 414//414 439//439 444//444
f 409//409 410//410 420//420
f 420//420 427//427 409//409
f 408//408 409//409 427//427
f 415//415 443//443 439//439
f 428//428 418//418 433//433
f 408//408 431//431 432//432
f 414//414 426//426 415//415
f 430//430 429//429 421//421
f 420//420 421//421 425//425
f 443//443 415//415 441//441
f 418//418 431//431 433//433
f 425//425 421//421 429//429
f 444//444 420//420 419//419
f 445//445 427//427 420//420
f 438//438 445//445 437//437
f 437//437 447//447 449//449
f 452//452 436//436 435//435
f 436//436 442//442 434//434
f 452//452 455//455 436//436
f 442//442 467//467 450//450
f 438//438 427//427 445//445
f 464//464 453//453 449//449
f 450//450 449//449 447//447
f 440//440 443//443 442//442
f 440//440 442//442 450//450
f 446//446 447//447 445//445
f 440//440 450//450 447//447
f 440//440 444//444 439//439
f 444//444 446//446 420//420
f 439//439 443//443 440//440
f 444//444 440//440 446//446
f 448//448 307//307 423//423
f 441//441 416//416 307//307
f 427//427 438//438 448//448
f 307//307 448//448 435//435
f 435//435 448//448 452//452
f 451//451 455//455 452//452
f 442//442 436//436 467//467
f 307//307 435//435 434//434
f 307//307 434//434 441//441
f 436//436 434//434 435//435
f 441//441 434//434 442//442
f 441//441 442//442 443//443
f 452//452 437//437 453//453
f 452//452 453//453 451//451
f 437//437 449//449 453//453
f 437//437 445//445 447//447
f 448//448 438//438 452//452
f 446//446 445//445 420//420
f 440//440 447//447 446//446
f 438//438 437//437 452//452
f 467//467 449//449 450//450
f 467//467 436//436 457//457
f 455//455 457//457 436//436
f 454//454 790//790 462//462
f 462//462 790//790 787//787
f 456//456 457//457 455//455
f 451//451 453//453 464//464
f 451//451 464//464 456//456
f 456//456 455//455 451//451
f 459//459 463//463 466//466
f 466//466 462//462 787//787
f 466//466 787//787 461//461
f 466//466 461//461 459//459
f 465//465 457//457 456//456
f 458//458 459//459 465//465
f 786//786 460//460 459//459
f 465//465 467//467 457//457
f 468//468 467//467 462//462
f 454//454 460//460 786//786
f 459//459 458//458 463//463
f 449//449 463//463 464//464
f 464//464 458//458 456//456
f 461//461 786//786 459//459
f 449//449 467//467 468//468
f 462//462 460//460 454//454
f 460//460 465//465 459//459
f 467//467 465//465 460//460
f 467//467 460//460 462//462
f 458//458 465//465 456//456
f 466//466 463//463 462//462
f 463//463 468//468 462//462
f 449//449 468//468 463//463
f 464//464 463//463 458//458
f 471//471 470//470 469//469
f 790//790 470//470 472//472
f 790//790 472//472 788//788
f 469//469 470//470 790//790
f 471//471 473//473 788//788
f 471//471 469//469 789//789
f 472//472 470//470 471//471
f 789//789 473//473 471//471
f 471//471 788//788 472//472
f 495//495 496//496 497//497
f 475//475 480//480 474//474
f 475//475 505//505 483//483
f 476//476 474//474 497//497
f 474//474 476//476 523//523
f 477//477 523//523 476//476
f 488//488 514//514 489//489
f 475//475 479//479 478//478
f 498//498 303//303 482//482
f 484//484 483//483 482//482
f 479//479 475//475 484//484
f 480//480 478//478 495//495
f 498//498 482//482 507//507
f 475//475 478//478 480//480
f 495//495 478//478 496//496
f 481//481 303//303 498//498
f 481//481 485//485 486//486
f 482//482 483//483 507//507
f 484//484 475//475 483//483
f 480//480 495//495 474//474
f 485//485 515//515 486//486
f 493//493 488//488 489//489
f 487//487 477//477 497//497
f 524//524 493//493 492//492
f 524//524 492//492 512//512
f 488//488 493//493 524//524
f 477//477 487//487 494//494
f 477//477 494//494 490//490
f 489//489 490//490 493//493
f 348//348 497//497 496//496
f 515//515 513//513 491//491
f 512//512 491//491 513//513
f 489//489 477//477 490//490
f 477//477 476//476 497//497
f 497//497 474//474 495//495
f 515//515 491//491 486//486
f 502//502 504//504 500//500
f 511//511 499//499 498//498
f 579//579 520//520 521//521
f 522//522 515//515 485//485
f 522//522 485//485 501//501
f 501//501 485//485 504//504
f 501//501 502//502 545//545
f 500//500 503//503 546//546
f 503//503 499//499 548//548
f 499//499 511//511 544//544
f 499//499 544//544 548//548
f 506//506 544//544 511//511
f 550//550 505//505 509//509
f 522//522 501//501 545//545
f 506//506 505//505 550//550
f 502//502 501//501 504//504
f 509//509 475//475 474//474
f 509//509 505//505 475//475
f 511//511 498//498 507//507
f 508//508 499//499 503//503
f 508//508 503//503 500//500
f 504//504 508//508 500//500
f 507//507 483//483 510//510
f 505//505 506//506 510//510
f 506//506 511//511 510//510
f 510//510 483//483 505//505
f 510//510 511//511 507//507
f 498//498 499//499 508//508
f 498//498 508//508 481//481
f 508//508 504//504 485//485
f 508//508 485//485 481//481
f 518//518 513//513 515//515
f 518//518 515//515 522//522
f 516//516 513//513 518//518
f 514//514 574//574 575//575
f 550//550 509//509 517//517
f 578//578 521//521 577//577
f 579//579 580//580 520//520
f 580//580 519//519 520//520
f 519//519 580//580 581//581
f 574//574 519//519 581//581
f 545//545 518//518 522//522
f 517//517 514//514 573//573
f 518//518 521//521 516//516
f 577//577 521//521 518//518
f 577//577 518//518 545//545
f 513//513 516//516 512//512
f 512//512 516//516 524//524
f 474//474 523//523 509//509
f 514//514 523//523 477//477
f 514//514 477//477 489//489
f 520//520 519//519 516//516
f 521//521 520//520 516//516
f 519//519 524//524 516//516
f 519//519 574//574 488//488
f 519//519 488//488 524//524
f 517//517 523//523 514//514
f 488//488 574//574 514//514
f 509//509 523//523 517//517
f 591//591 585//585 526//526
f 558//558 561//561 557//557
f 576//576 554//554 561//561
f 556//556 558//558 672//672
f 551//551 565//565 552//552
f 575//575 573//573 514//514
f 625//625 527//527 528//528
f 527//527 525//525 526//526
f 527//527 526//526 528//528
f 526//526 529//529 528//528
f 529//529 537//537 528//528
f 534//534 589//589 527//527
f 527//527 589//589 525//525
f 546//546 619//619 535//535
f 530//530 546//546 535//535
f 528//528 530//530 535//535
f 528//528 537//537 530//530
f 529//529 536//536 537//537
f 629//629 618//618 544//544
f 618//618 619//619 548//548
f 539//539 537//537 536//536
f 539//539 536//536 547//547
f 530//530 537//537 539//539
f 526//526 525//525 591//591
f 545//545 502//502 547//547
f 502//502 539//539 547//547
f 502//502 500//500 539//539
f 500//500 546//546 530//530
f 503//503 619//619 546//546
f 503//503 548//548 619//619
f 544//544 618//618 548//548
f 536//536 549//549 547//547
f 529//529 585//585 549//549
f 536//536 529//529 549//549
f 545//545 547//547 549//549
f 530//530 539//539 500//500
f 526//526 585//585 529//529
f 534//534 620//620 590//590
f 534//534 638//638 620//620
f 531//531 626//626 627//627
f 531//531 532//532 626//626
f 541//541 533//533 532//532
f 626//626 533//533 624//624
f 532//532 533//533 626//626
f 533//533 540//540 620//620
f 533//533 620//620 624//624
f 589//589 534//534 590//590
f 627//627 538//538 531//531
f 620//620 540//540 590//590
f 538//538 629//629 506//506
f 542//542 532//532 531//531
f 542//542 531//531 538//538
f 540//540 543//543 586//586
f 543//543 588//588 586//586
f 543//543 541//541 588//588
f 541//541 582//582 588//588
f 544//544 506//506 629//629
f 582//582 542//542 550//550
f 541//541 532//532 582//582
f 532//532 542//542 582//582
f 540//540 533//533 543//543
f 543//543 533//533 541//541
f 506//506 542//542 538//538
f 542//542 506//506 550//550
f 559//559 558//558 556//556
f 569//569 576//576 561//561
f 561//561 558//558 559//559
f 557//557 553//553 558//558
f 663//663 572//572 562//562
f 578//578 570//570 566//566
f 557//557 561//561 554//554
f 553//553 557//557 551//551
f 562//562 567//567 663//663
f 567//567 578//578 566//566
f 566//566 555//555 567//567
f 663//663 567//567 555//555
f 663//663 555//555 556//556
f 559//559 556//556 555//555
f 568//568 569//569 571//571
f 568//568 571//571 570//570
f 570//570 571//571 559//559
f 570//570 559//559 566//566
f 572//572 665//665 581//581
f 577//577 568//568 570//570
f 577//577 570//570 578//578
f 566//566 559//559 555//555
f 553//553 551//551 552//552
f 585//585 554//554 576//576
f 578//578 579//579 521//521
f 567//567 579//579 578//578
f 567//567 562//562 580//580
f 567//567 580//580 579//579
f 562//562 572//572 581//581
f 562//562 581//581 580//580
f 577//577 545//545 568//568
f 576//576 549//549 585//585
f 569//569 549//549 576//576
f 568//568 549//549 569//569
f 549//549 568//568 545//545
f 569//569 561//561 571//571
f 559//559 571//571 561//561
f 564//564 665//665 664//664
f 674//674 563//563 564//564
f 563//563 584//584 564//564
f 584//584 563//563 588//588
f 563//563 674//674 587//587
f 674//674 560//560 565//565
f 674//674 565//565 587//587
f 565//565 560//560 552//552
f 564//564 664//664 674//674
f 564//564 575//575 665//665
f 574//574 581//581 665//665
f 584//584 582//582 583//583
f 550//550 517//517 583//583
f 586//586 588//588 587//587
f 573//573 584//584 583//583
f 665//665 575//575 574//574
f 573//573 583//583 517//517
f 582//582 584//584 588//588
f 565//565 551//551 594//594
f 586//586 587//587 565//565
f 594//594 586//586 565//565
f 584//584 573//573 575//575
f 584//584 575//575 564//564
f 582//582 550//550 583//583
f 563//563 587//587 588//588
f 589//589 591//591 525//525
f 589//589 612//612 591//591
f 612//612 589//589 590//590
f 540//540 611//611 590//590
f 611//611 540//540 586//586
f 586//586 594//594 611//611
f 554//554 592//592 557//557
f 557//557 592//592 551//551
f 585//585 591//591 554//554
f 551//551 592//592 594//594
f 591//591 601//601 554//554
f 593//593 599//599 604//604
f 616//616 605//605 606//606
f 602//602 595//595 598//598
f 598//598 595//595 596//596
f 597//597 598//598 596//596
f 596//596 600//600 607//607
f 597//597 596//596 609//609
f 610//610 597//597 609//609
f 609//609 596//596 607//607
f 598//598 597//597 610//610
f 604//604 594//594 595//595
f 594//594 604//604 599//599
f 611//611 594//594 599//599
f 602//602 604//604 595//595
f 600//600 595//595 592//592
f 601//601 600//600 592//592
f 600//600 596//596 595//595
f 601//601 592//592 554//554
f 600//600 601//601 614//614
f 607//607 600//600 614//614
f 595//595 594//594 592//592
f 603//603 615//615 602//602
f 598//598 603//603 602//602
f 604//604 602//602 593//593
f 602//602 615//615 593//593
f 599//599 593//593 616//616
f 616//616 593//593 615//615
f 615//615 603//603 605//605
f 608//608 613//613 606//606
f 607//607 613//613 609//609
f 609//609 608//608 610//610
f 610//610 603//603 598//598
f 612//612 606//606 613//613
f 612//612 613//613 614//614
f 614//614 613//613 607//607
f 591//591 612//612 601//601
f 601//601 612//612 614//614
f 590//590 611//611 606//606
f 611//611 616//616 606//606
f 606//606 605//605 608//608
f 608//608 603//603 610//610
f 605//605 603//603 608//608
f 615//615 605//605 616//616
f 590//590 606//606 612//612
f 608//608 609//609 613//613
f 611//611 599//599 616//616
f 528//528 535//535 628//628
f 618//618 628//628 535//535
f 637//637 626//626 624//624
f 639//639 621//621 617//617
f 622//622 617//617 621//621
f 625//625 528//528 617//617
f 617//617 622//622 625//625
f 625//625 622//622 623//623
f 623//623 638//638 534//534
f 538//538 628//628 618//618
f 623//623 527//527 625//625
f 617//617 628//628 639//639
f 638//638 624//624 620//620
f 623//623 621//621 638//638
f 617//617 528//528 628//628
f 640//640 639//639 628//628
f 527//527 623//623 534//534
f 618//618 535//535 619//619
f 629//629 538//538 618//618
f 624//624 638//638 637//637
f 637//637 638//638 621//621
f 623//623 622//622 621//621
f 633//633 635//635 644//644
f 643//643 642//642 632//632
f 631//631 632//632 642//642
f 642//642 630//630 637//637
f 636//636 630//630 635//635
f 637//637 631//631 642//642
f 632//632 633//633 643//643
f 631//631 639//639 632//632
f 630//630 636//636 634//634
f 631//631 637//637 621//621
f 626//626 637//637 634//634
f 538//538 627//627 641//641
f 640//640 628//628 538//538
f 641//641 635//635 633//633
f 634//634 636//636 626//626
f 538//538 641//641 640//640
f 621//621 639//639 631//631
f 630//630 634//634 637//637
f 635//635 641//641 627//627
f 636//636 635//635 627//627
f 636//636 627//627 626//626
f 641//641 633//633 640//640
f 633//633 632//632 640//640
f 632//632 639//639 640//640
f 645//645 643//643 653//653
f 643//643 644//644 653//653
f 642//642 643//643 645//645
f 643//643 633//633 644//644
f 635//635 630//630 652//652
f 655//655 648//648 647//647
f 642//642 646//646 630//630
f 649//649 646//646 648//648
f 649//649 651//651 652//652
f 649//649 657//657 651//651
f 650//650 651//651 657//657
f 651//651 644//644 635//635
f 652//652 630//630 649//649
f 635//635 652//652 651//651
f 645//645 646//646 642//642
f 655//655 647//647 654//654
f 646//646 647//647 648//648
f 646//646 645//645 647//647
f 644//644 651//651 650//650
f 653//653 644//644 650//650
f 653//653 650//650 657//657
f 645//645 653//653 647//647
f 647//647 653//653 654//654
f 630//630 646//646 649//649
f 657//657 654//654 653//653
f 658//658 656//656 655//655
f 658//658 655//655 659//659
f 661//661 654//654 657//657
f 657//657 660//660 661//661
f 659//659 655//655 661//661
f 656//656 648//648 655//655
f 654//654 661//661 655//655
f 656//656 658//658 657//657
f 648//648 656//656 649//649
f 657//657 658//658 660//660
f 649//649 656//656 657//657
f 659//659 660//660 658//658
f 660//660 659//659 661//661
f 665//665 572//572 663//663
f 553//553 670//670 673//673
f 670//670 553//553 552//552
f 552//552 560//560 670//670
f 666//666 682//682 675//675
f 667//667 685//685 682//682
f 667//667 682//682 666//666
f 666//666 668//668 669//669
f 669//669 667//667 666//666
f 670//670 667//667 673//673
f 671//671 668//668 662//662
f 671//671 669//669 668//668
f 558//558 673//673 672//672
f 665//665 662//662 664//664
f 663//663 662//662 665//665
f 682//682 690//690 675//675
f 662//662 668//668 666//666
f 663//663 671//671 662//662
f 675//675 688//688 662//662
f 558//558 553//553 673//673
f 663//663 556//556 671//671
f 683//683 560//560 674//674
f 683//683 674//674 664//664
f 672//672 671//671 556//556
f 675//675 662//662 666//666
f 667//667 669//669 673//673
f 669//669 671//671 672//672
f 669//669 672//672 673//673
f 664//664 688//688 683//683
f 683//683 684//684 560//560
f 679//679 689//689 687//687
f 688//688 675//675 686//686
f 692//692 677//677 678//678
f 695//695 678//678 680//680
f 692//692 678//678 695//695
f 676//676 690//690 677//677
f 676//676 677//677 692//692
f 676//676 686//686 690//690
f 676//676 679//679 686//686
f 680//680 678//678 685//685
f 684//684 681//681 680//680
f 681//681 695//695 680//680
f 689//689 679//679 695//695
f 681//681 689//689 695//695
f 688//688 664//664 662//662
f 667//667 670//670 685//685
f 670//670 560//560 685//685
f 681//681 684//684 683//683
f 560//560 684//684 685//685
f 686//686 679//679 688//688
f 679//679 687//687 688//688
f 685//685 684//684 680//680
f 688//688 687//687 683//683
f 683//683 687//687 689//689
f 681//681 683//683 689//689
f 685//685 677//677 682//682
f 685//685 678//678 677//677
f 675//675 690//690 686//686
f 690//690 682//682 677//677
f 697//697 691//691 698//698
f 700//700 695//695 679//679
f 694//694 693//693 676//676
f 691//691 694//694 692//692
f 693//693 679//679 676//676
f 693//693 700//700 679//679
f 703//703 694//694 691//691
f 691//691 692//692 698//698
f 692//692 695//695 698//698
f 703//703 697//697 701//701
f 701//701 697//697 699//699
f 695//695 696//696 698//698
f 696//696 699//699 698//698
f 699//699 697//697 698//698
f 700//700 696//696 695//695
f 705//705 699//699 696//696
f 697//697 703//703 691//691
f 702//702 696//696 700//700
f 694//694 700//700 693//693
f 702//702 700//700 694//694
f 703//703 702//702 694//694
f 703//703 701//701 702//702
f 692//692 694//694 676//676
f 702//702 701//701 705//705
f 701//701 699//699 706//706
f 701//701 706//706 708//708
f 704//704 701//701 708//708
f 708//708 705//705 704//704
f 708//708 707//707 705//705
f 708//708 706//706 707//707
f 699//699 705//705 707//707
f 705//705 701//701 704//704
f 705//705 696//696 702//702
f 699//699 707//707 706//706
f 726//726 727//727 719//719
f 727//727 721//721 719//719
f 721//721 711//711 713//713
f 109//109 718//718 716//716
f 718//718 710//710 716//716
f 719//719 715//715 710//710
f 715//715 713//713 714//714
f 714//714 712//712 105//105
f 712//712 709//709 108//108
f 713//713 720//720 709//709
f 105//105 717//717 714//714
f 715//715 716//716 710//710
f 714//714 717//717 716//716
f 710//710 709//709 719//719
f 719//719 709//709 720//720
f 721//721 713//713 715//715
f 720//720 726//726 719//719
f 711//711 720//720 713//713
f 108//108 709//709 710//710
f 709//709 712//712 714//714
f 709//709 714//714 713//713
f 721//721 715//715 719//719
f 714//714 716//716 715//715
f 716//716 717//717 109//109
f 722//722 140//140 726//726
f 721//721 727//727 725//725
f 724//724 723//723 711//711
f 711//711 723//723 720//720
f 711//711 721//721 725//725
f 711//711 725//725 724//724
f 720//720 723//723 726//726
f 726//726 723//723 722//722
f 140//140 727//727 726//726
f 140//140 725//725 727//727
f 735//735 740//740 731//731
f 175//175 173//173 738//738
f 729//729 732//732 738//738
f 735//735 741//741 733//733
f 730//730 172//172 731//731
f 731//731 172//172 176//176
f 730//730 738//738 173//173
f 742//742 735//735 736//736
f 732//732 736//736 738//738
f 731//731 728//728 735//735
f 175//175 738//738 737//737
f 737//737 728//728 175//175
f 728//728 731//731 176//176
f 730//730 171//171 172//172
f 740//740 735//735 733//733
f 734//734 736//736 732//732
f 732//732 740//740 734//734
f 732//732 729//729 740//740
f 729//729 730//730 740//740
f 731//731 740//740 730//730
f 729//729 738//738 730//730
f 730//730 173//173 171//171
f 735//735 742//742 741//741
f 742//742 736//736 734//734
f 737//737 738//738 736//736
f 735//735 728//728 736//736
f 736//736 728//728 737//737
f 177//177 175//175 728//728
f 742//742 745//745 741//741
f 747//747 743//743 745//745
f 734//734 739//739 746//746
f 739//739 740//740 733//733
f 734//734 740//740 739//739
f 743//743 749//749 744//744
f 741//741 743//743 733//733
f 743//743 741//741 745//745
f 739//739 743//743 744//744
f 743//743 739//739 733//733
f 746//746 745//745 742//742
f 746//746 742//742 734//734
f 743//743 748//748 749//749
f 747//747 748//748 743//743
f 205//205 739//739 744//744
f 756//756 750//750 769//769
f 751//751 753//753 750//750
f 218//218 763//763 754//754
f 755//755 754//754 771//771
f 758//758 763//763 218//218
f 755//755 771//771 217//217
f 217//217 752//752 751//751
f 756//756 751//751 750//750
f 753//753 751//751 752//752
f 217//217 771//771 752//752
f 220//220 754//754 755//755
f 759//759 769//769 760//760
f 775//775 764//764 762//762
f 759//759 760//760 222//222
f 760//760 762//762 222//222
f 222//222 762//762 764//764
f 764//764 775//775 777//777
f 766//766 763//763 758//758
f 764//764 777//777 765//765
f 777//777 761//761 765//765
f 770//770 778//778 769//769
f 767//767 752//752 771//771
f 750//750 753//753 770//770
f 763//763 768//768 754//754
f 771//771 754//754 231//231
f 770//770 769//769 750//750
f 753//753 752//752 767//767
f 231//231 767//767 771//771
f 753//753 228//228 770//770
f 228//228 753//753 767//767
f 231//231 754//754 768//768
f 238//238 768//768 763//763
f 772//772 762//762 760//760
f 775//775 762//762 776//776
f 238//238 766//766 773//773
f 761//761 773//773 766//766
f 774//774 761//761 777//777
f 776//776 762//762 772//772
f 774//774 777//777 775//775
f 773//773 761//761 774//774
f 763//763 766//766 238//238
f 769//769 772//772 760//760
f 772//772 769//769 778//778
f 774//774 775//775 776//776
f 779//779 782//782 781//781
f 781//781 783//783 780//780
f 783//783 781//781 782//782
f 780//780 785//785 779//779
f 780//780 783//783 785//785
f 785//785 784//784 779//779
f 779//779 784//784 406//406
f 779//779 406//406 782//782
f 783//783 782//782 405//405
f 790//790 788//788 787//787
f 473//473 789//789 786//786
f 789//789 469//469 454//454
f 790//790 454//454 469//469
f 473//473 461//461 787//787
f 786//786 789//789 454//454
f 473//473 786//786 461//461
f 787//787 788//788 473//473
# 1576 faces, 0 coords texture

# End of File
