####
#
# OBJ File Generated by Meshlab
#
####
# Object centaur0.obj
#
# Vertices: 791
# Faces: 1576
#
####
vn 0.380552 0.923236 -0.053063
v -0.023640 0.711826 -0.178314
vn 0.399093 0.870413 -0.288281
v -0.028878 0.705864 -0.242086
vn 0.605560 0.607805 -0.513683
v -0.022446 0.661468 -0.300661
vn -0.969056 -0.036361 0.244149
v -0.165808 0.318206 -0.145637
vn -0.793803 -0.279411 0.540192
v -0.138233 0.342437 -0.053768
vn -0.310821 0.367671 -0.876475
v -0.073927 0.285734 -0.412867
vn -0.124225 0.386760 -0.913775
v -0.036131 0.288499 -0.421714
vn -0.519665 0.380073 -0.765175
v -0.105556 0.286793 -0.397526
vn -0.993447 0.039146 -0.107379
v -0.172620 0.328917 -0.207514
vn -0.948781 0.292433 -0.119575
v -0.177016 0.308690 -0.249126
vn -0.481322 -0.203407 0.852616
v -0.084395 0.398032 0.011225
vn -0.181770 0.432296 -0.883221
v -0.050946 0.369036 -0.373953
vn -0.424752 0.825286 0.372140
v -0.085638 0.702917 -0.129128
vn -0.137734 0.951339 0.275650
v -0.037157 0.705565 -0.103771
vn -0.066794 0.997205 0.033492
v -0.066578 0.717833 -0.184242
vn 0.128859 0.387716 0.912728
v 0.000655 0.670184 -0.006658
vn -0.462273 0.301037 0.834075
v -0.096618 0.554226 -0.006421
vn -0.593883 0.440794 0.673055
v -0.110349 0.588661 -0.030470
vn -0.506519 0.586939 0.631618
v -0.068060 0.641570 -0.033072
vn -0.644691 0.574104 0.504756
v -0.125304 0.649715 -0.100618
vn -0.669111 0.662474 0.336777
v -0.135156 0.672839 -0.145768
vn -0.756987 0.424537 0.496729
v -0.158389 0.605258 -0.101588
vn -0.858885 0.229605 0.457818
v -0.173028 0.561040 -0.096231
vn -0.927384 0.274467 0.254219
v -0.189358 0.578032 -0.143548
vn -0.837500 0.488052 0.245764
v -0.169580 0.632359 -0.154393
vn -0.644192 0.128965 0.753913
v -0.132504 0.490170 -0.013539
vn -0.680350 0.305185 0.666323
v -0.126595 0.558026 -0.027372
vn -0.266561 0.185454 0.945807
v -0.054301 0.510324 0.023831
vn -0.341092 0.013742 0.939929
v -0.056587 0.466544 0.028260
vn -0.852093 0.079891 0.517258
v -0.162422 0.480336 -0.055061
vn -0.650704 -0.099329 0.752807
v -0.138460 0.430991 -0.017446
vn -0.879053 -0.201993 0.431815
v -0.168551 0.386586 -0.059850
vn -0.980289 -0.153979 0.123791
v -0.193863 0.416483 -0.130848
vn -0.922195 0.058871 0.382219
v -0.187385 0.507492 -0.109840
vn -0.824042 0.326363 -0.463078
v -0.158410 0.313442 -0.318901
vn -0.548270 0.281525 -0.787492
v -0.100996 0.375318 -0.352054
vn -0.921613 -0.339885 0.187368
v -0.173604 0.362653 -0.137002
vn 0.031876 0.184997 -0.982222
v -0.004657 0.432468 -0.353272
vn -0.091748 0.993584 -0.066133
v 0.003135 0.701373 -0.150919
vn 0.140733 0.241860 0.960051
v 0.014921 0.612794 0.007806
vn 0.494099 0.660409 0.565443
v 0.058654 0.655105 -0.040314
vn -0.014709 0.999692 0.019970
v 0.057290 0.718509 -0.192574
vn 0.121549 0.419704 -0.899486
v 0.041062 0.366076 -0.377568
vn 0.253784 0.897570 0.360503
v 0.047890 0.702748 -0.106235
vn -0.451557 0.842770 -0.292975
v 0.021894 0.701590 -0.242022
vn 0.416028 -0.196510 0.887865
v 0.073793 0.399974 0.016335
vn 0.245219 0.446575 -0.860487
v 0.060932 0.316795 -0.401609
vn 0.930015 0.294105 -0.220398
v 0.169886 0.304196 -0.295238
vn 0.468804 0.294790 -0.832659
v 0.095949 0.369299 -0.357796
vn 0.737829 0.072265 -0.671108
v 0.126698 0.365774 -0.325728
vn 0.838128 0.214730 -0.501431
v 0.152984 0.372840 -0.296897
vn 0.981465 0.119873 -0.149519
v 0.170056 0.333780 -0.227439
vn 0.427844 0.766296 0.479312
v 0.077050 0.690189 -0.101919
vn 0.414008 0.858282 0.303231
v 0.088953 0.706683 -0.146260
vn 0.494835 0.369567 0.786485
v 0.100458 0.583277 -0.018469
vn 0.612834 0.587407 0.528571
v 0.121029 0.647178 -0.091779
vn 0.678113 0.642017 0.357737
v 0.136202 0.668584 -0.141360
vn 0.775869 0.430894 0.460823
v 0.158456 0.605258 -0.101588
vn 0.853030 0.225392 0.470678
v 0.175679 0.563697 -0.102663
vn 0.762066 0.173626 0.623786
v 0.141517 0.531796 -0.035548
vn 0.687602 0.322889 0.650343
v 0.125928 0.559402 -0.026959
vn 0.323755 0.061397 0.944147
v 0.058716 0.475660 0.028588
vn 0.165371 -0.171397 0.971224
v 0.040969 0.392325 0.025157
vn 0.545087 0.121842 0.829479
v 0.108222 0.487360 0.002615
vn 0.545672 -0.117065 0.829782
v 0.114228 0.421827 -0.002442
vn 0.610968 -0.286700 0.737917
v 0.113057 0.372979 -0.016498
vn 0.863134 0.051800 0.502311
v 0.161170 0.467628 -0.050355
vn 0.720214 0.023115 0.693367
v 0.141973 0.463904 -0.020935
vn 0.896066 -0.206385 0.393028
v 0.171563 0.389364 -0.067648
vn 0.718681 -0.226078 0.657561
v 0.150987 0.381233 -0.042283
vn 0.968151 -0.120107 0.219675
v 0.193752 0.425804 -0.122854
vn 0.939998 -0.334975 -0.064771
v 0.192233 0.408562 -0.176662
vn 0.929195 0.083364 0.360065
v 0.183927 0.507611 -0.102819
vn 0.993450 -0.066605 0.092846
v 0.196960 0.435410 -0.143177
vn 0.973481 0.074286 0.216370
v 0.198130 0.527660 -0.143312
vn 0.031609 0.470913 -0.881613
v 0.004827 0.314416 -0.412157
vn -0.005839 0.055086 0.998465
v 0.003506 0.477509 0.035621
vn -0.119822 -0.159307 0.979931
v -0.033524 0.405323 0.030360
vn -0.026590 0.628889 -0.777040
v -0.001662 0.605221 -0.331355
vn 0.108487 0.893633 -0.435490
v 0.000247 0.676686 -0.232798
vn 0.656146 0.369871 -0.657775
v 0.141838 0.317742 -0.330411
vn 0.972172 -0.203222 -0.116540
v 0.181790 0.384592 -0.185266
vn 0.946577 -0.300594 0.116771
v 0.176522 0.372766 -0.118622
vn 0.867776 -0.226720 0.442224
v 0.150768 0.316333 -0.091269
vn 0.994487 0.046854 0.093808
v 0.173130 0.322863 -0.189114
vn 0.158162 0.209011 -0.965038
v -0.000083 0.557865 -0.354879
vn -0.465788 -0.335671 -0.818759
v 0.055152 0.462784 -0.361156
vn -0.147548 0.778896 -0.609550
v 0.080611 0.683346 -0.315947
vn 0.020201 0.086379 -0.996058
v 0.061345 0.412926 -0.358573
vn 0.062013 -0.346837 -0.935873
v 0.093885 0.422317 -0.357909
vn 0.820564 -0.571274 -0.017894
v 0.187251 0.424465 -0.265414
vn 0.984751 -0.173546 -0.012130
v 0.195769 0.447640 -0.229036
vn -0.574579 0.635907 -0.515248
v 0.032529 0.675076 -0.297078
vn 0.101490 0.963194 -0.248913
v 0.085096 0.711469 -0.247993
vn 0.612129 0.790412 0.023392
v 0.137264 0.696023 -0.233522
vn 0.538450 0.720134 -0.437583
v 0.140985 0.676100 -0.298688
vn 0.997268 0.073514 -0.007162
v 0.203398 0.548451 -0.247772
vn 0.920465 0.308368 -0.240110
v 0.191442 0.549496 -0.346424
vn 0.847007 0.484902 0.217829
v 0.169813 0.632768 -0.156833
vn 0.932989 0.256308 0.252661
v 0.190581 0.578576 -0.147216
vn 0.929969 0.364563 -0.047456
v 0.194926 0.589553 -0.253586
vn 0.256547 -0.808213 -0.530071
v 0.134328 0.392897 -0.331340
vn 0.857776 -0.434042 -0.275368
v 0.156224 0.399646 -0.289243
vn -0.965890 -0.074483 -0.248011
v 0.067895 0.552904 -0.448050
vn -0.799219 0.567283 0.198591
v 0.102274 0.653693 -0.483108
vn -0.663706 -0.525776 -0.532029
v 0.105725 0.475694 -0.426445
vn -0.341557 -0.661483 -0.667666
v 0.113257 0.541464 -0.504251
vn -0.595362 0.766375 0.241275
v 0.100529 0.690517 -0.543307
vn -0.989285 0.003673 -0.145950
v 0.079721 0.624455 -0.554425
vn 0.513161 0.819683 0.254531
v 0.120941 0.671338 -0.506241
vn 0.792284 -0.473941 -0.384272
v 0.144455 0.612987 -0.546172
vn 0.892535 0.447838 0.053132
v 0.160778 0.625876 -0.461331
vn 0.572411 -0.495910 -0.653007
v 0.153235 0.504960 -0.472824
vn 0.948459 0.132246 -0.287987
v 0.167992 0.592917 -0.498769
vn -0.519304 0.852913 -0.053507
v 0.093515 0.637492 -0.396560
vn -0.199242 -0.706018 -0.679589
v 0.131703 0.480150 -0.456306
vn -0.404230 -0.722209 -0.561260
v 0.111558 0.433128 -0.385992
vn -0.822318 -0.241182 -0.515387
v 0.068743 0.521273 -0.404501
vn -0.874934 0.278380 -0.396226
v 0.065496 0.584535 -0.399060
vn -0.400317 0.652960 -0.642953
v 0.070434 0.627496 -0.359422
vn -0.591339 0.020106 -0.806172
v 0.029269 0.536138 -0.371394
vn 0.594943 0.790648 0.144632
v 0.137509 0.628672 -0.408807
vn 0.501908 0.824382 -0.261692
v 0.139869 0.636933 -0.348091
vn 0.935184 0.341493 -0.093883
v 0.176612 0.556199 -0.385323
vn 0.976530 0.010335 -0.215132
v 0.178960 0.525711 -0.422831
vn 0.920247 -0.379492 -0.095552
v 0.194554 0.432085 -0.332868
vn 0.986298 -0.000089 -0.164976
v 0.200538 0.480895 -0.344504
vn 0.207203 -0.796660 -0.567803
v 0.153959 0.421028 -0.384572
vn 0.820144 -0.399492 -0.409596
v 0.183885 0.441550 -0.379880
vn 0.582650 -0.791463 -0.184674
v 0.176239 0.407519 -0.339126
vn -0.560926 -0.755928 -0.337543
v 0.090404 0.550090 -0.969125
vn -0.641462 0.723565 -0.254914
v 0.076296 0.636617 -0.959581
vn 0.566571 0.501305 -0.653980
v 0.154841 0.644401 -0.965991
vn 0.713524 -0.591441 -0.375607
v 0.156576 0.549601 -0.967545
vn 0.446776 0.517826 -0.729553
v -0.031221 0.626204 -0.339930
vn 0.548037 0.461698 -0.697489
v -0.043874 0.597353 -0.364971
vn -0.135050 -0.062360 -0.988874
v -0.001193 0.497736 -0.351413
vn -0.118869 0.145842 -0.982141
v -0.049148 0.410113 -0.360031
vn -0.978658 -0.205271 0.009649
v -0.197637 0.451798 -0.274764
vn -0.908649 -0.387287 -0.156096
v -0.175162 0.407150 -0.233523
vn -0.874423 -0.481411 -0.060232
v -0.193382 0.430131 -0.330364
vn -0.970676 -0.236484 -0.043166
v -0.185688 0.389612 -0.176996
vn -0.970426 -0.230363 -0.072151
v -0.195461 0.437545 -0.194421
vn 0.205065 0.768203 -0.606476
v -0.070111 0.681235 -0.314891
vn -0.170042 0.829032 -0.532722
v -0.098377 0.687443 -0.303053
vn -0.117486 0.967841 -0.222441
v -0.089089 0.710700 -0.247935
vn -0.523080 0.844324 0.116207
v -0.124092 0.701112 -0.204370
vn -0.615802 0.683395 -0.392121
v -0.142674 0.674482 -0.298338
vn -0.612543 0.783609 -0.103672
v -0.138227 0.694210 -0.243870
vn -0.999911 0.003200 0.012915
v -0.202546 0.537302 -0.228613
vn -0.992513 0.107008 -0.058884
v -0.201175 0.531711 -0.300403
vn -0.966693 0.255729 0.010353
v -0.196919 0.583634 -0.228594
vn -0.915802 0.357077 -0.183853
v -0.187416 0.585082 -0.304879
vn -0.972461 0.095765 0.212484
v -0.198580 0.527975 -0.144912
vn -0.885475 0.452600 -0.105293
v -0.180544 0.622230 -0.249083
vn -0.901149 -0.087959 -0.424493
v -0.150012 0.385508 -0.298687
vn -0.822205 -0.549379 -0.148866
v -0.158810 0.398579 -0.271766
vn 0.867023 0.063748 -0.494173
v -0.062447 0.545408 -0.401136
vn 0.919341 -0.219733 -0.326387
v -0.073896 0.587209 -0.500013
vn 0.835345 0.540332 0.101191
v -0.101141 0.648918 -0.466402
vn 0.994523 -0.087108 -0.057753
v -0.083288 0.615828 -0.536837
vn -0.294385 0.915105 0.275537
v -0.121036 0.660425 -0.477149
vn 0.311021 -0.750352 -0.583299
v -0.110171 0.591030 -0.545940
vn 0.455508 -0.633817 -0.625131
v -0.123648 0.490808 -0.463839
vn 0.424928 0.905154 0.011482
v -0.093433 0.635214 -0.400374
vn -0.940947 -0.133789 -0.310998
v -0.151484 0.622290 -0.542141
vn -0.387615 -0.588941 -0.709157
v -0.144453 0.502292 -0.475894
vn -0.932915 -0.108753 -0.343283
v -0.167433 0.587660 -0.501645
vn -0.745423 -0.409459 -0.526011
v -0.162406 0.487052 -0.442577
vn -0.883617 0.465769 0.047753
v -0.159174 0.625492 -0.456729
vn -0.250790 -0.884482 -0.393442
v -0.148426 0.400933 -0.348886
vn 0.110589 -0.782121 -0.613234
v -0.133236 0.448892 -0.420203
vn 0.146991 -0.529026 -0.835778
v -0.095476 0.413664 -0.351668
vn 0.344311 0.730904 -0.589262
v -0.078454 0.631523 -0.354185
vn 0.754586 -0.418951 -0.505054
v -0.078716 0.507862 -0.413692
vn 0.841286 0.439245 -0.315123
v -0.076841 0.604794 -0.399014
vn 0.340522 -0.156618 -0.927100
v -0.051430 0.461288 -0.358956
vn -0.240990 0.886713 -0.394543
v -0.126471 0.643098 -0.347652
vn -0.637215 0.769119 0.049120
v -0.134417 0.631404 -0.406991
vn -0.949514 0.299716 -0.092705
v -0.175542 0.559909 -0.391155
vn -0.928010 0.309914 -0.206764
v -0.194223 0.544319 -0.338797
vn -0.348681 -0.738345 -0.577294
v -0.156286 0.422890 -0.385350
vn -0.970477 -0.013963 -0.240789
v -0.176804 0.518364 -0.427827
vn -0.985519 -0.022428 -0.168075
v -0.201485 0.474515 -0.345081
vn -0.759605 -0.495300 -0.421520
v -0.184699 0.437658 -0.376190
vn -0.595542 -0.779150 -0.195589
v -0.176173 0.407519 -0.339126
vn -0.796010 0.536553 -0.280142
v -0.153331 0.617316 -0.349237
vn -0.564452 -0.067402 -0.822709
v -0.172882 0.577467 -0.969546
vn 0.626395 -0.396469 -0.671150
v -0.076883 0.564777 -0.965945
vn 0.624612 0.576023 -0.527311
v -0.082954 0.649528 -0.960699
vn -0.237201 -0.955726 0.174134
v -0.144335 0.544377 -0.965893
vn -0.606633 0.758906 -0.236765
v -0.155869 0.652039 -0.955520
vn -0.984695 -0.173800 -0.012982
v -0.032775 0.747058 -0.070728
vn -0.722126 0.389249 0.571856
v -0.018686 0.743291 -0.038060
vn -0.170225 0.926956 -0.334330
v -0.008194 0.699919 -0.067400
vn 0.033118 0.435266 0.899692
v 0.000601 0.714280 -0.010036
vn -0.794956 0.369243 0.481357
v -0.025393 0.675790 -0.030282
vn -0.158776 0.873171 0.460829
v -0.005819 0.775817 -0.057741
vn 0.598769 0.709754 0.371112
v 0.020103 0.782612 -0.083466
vn 0.747972 0.593077 0.297991
v 0.022895 0.683712 -0.043874
vn -0.997156 0.055285 0.051216
v -0.045673 0.775028 -0.189856
vn -0.465860 0.882584 0.063406
v -0.026631 0.801188 -0.188642
vn -0.139178 -0.990046 -0.020944
v -0.003000 0.732463 -0.127084
vn -0.803583 0.589166 0.084480
v -0.012985 0.810028 -0.174615
vn -0.737325 0.610087 0.290081
v -0.029095 0.783013 -0.101594
vn 0.465442 0.876674 0.121684
v 0.008273 0.815300 -0.161652
vn -0.014073 -0.997988 0.061816
v -0.000646 0.713960 -0.302653
vn 0.719326 -0.690859 0.072694
v 0.034138 0.746645 -0.149076
vn 0.882361 -0.465921 0.066001
v 0.043219 0.741181 -0.251304
vn 0.567443 0.807687 0.160158
v 0.013430 0.801820 -0.141271
vn 0.980206 0.184156 0.072677
v 0.043289 0.775600 -0.162462
vn 0.970654 -0.186943 0.151273
v 0.032239 0.745932 -0.060260
vn -0.828659 -0.525779 -0.192044
v -0.043625 0.746193 -0.585270
vn -0.661400 0.721088 -0.206355
v -0.016871 0.814032 -0.685670
vn -0.961308 -0.125152 -0.245405
v -0.038021 0.766894 -0.633142
vn -0.472661 -0.456867 -0.753568
v -0.029398 0.788015 -0.660339
vn -0.201027 -0.869583 -0.451014
v -0.002137 0.726719 -0.617658
vn -0.859469 0.508422 -0.053108
v -0.038225 0.787179 -0.612716
vn 0.631028 0.038502 -0.774804
v 0.018471 0.808523 -0.670505
vn 0.914358 -0.381423 -0.135887
v 0.045316 0.746602 -0.577882
vn 0.920474 0.363423 -0.143706
v 0.033980 0.790707 -0.649587
vn 0.720180 -0.397529 -0.568605
v 0.036267 0.767786 -0.642930
vn 0.571050 0.820570 -0.023802
v 0.018484 0.816945 -0.632893
vn -0.954321 -0.089215 0.285152
v -0.195345 0.154216 -0.205113
vn -0.983427 0.127695 0.128706
v -0.203287 0.221119 -0.231541
vn -0.691902 0.354126 -0.629179
v -0.136283 0.291996 -0.359008
vn -0.900875 0.319745 -0.293578
v -0.182348 0.267091 -0.302668
vn -0.872348 -0.062122 0.484923
v -0.155081 0.278025 -0.109913
vn -0.697522 -0.182373 0.692967
v -0.109019 0.264835 -0.051056
vn -0.254271 -0.180889 0.950066
v -0.026238 0.243567 -0.011167
vn -0.497550 -0.186453 0.847159
v -0.071625 0.230167 -0.032330
vn -0.450931 -0.101794 0.886735
v -0.051888 0.156894 -0.032433
vn -0.674737 -0.105218 0.730520
v -0.110956 0.116877 -0.081378
vn -0.794554 -0.102888 0.598413
v -0.156643 0.183000 -0.121313
vn -0.903509 -0.040127 0.426687
v -0.180193 0.199897 -0.154298
vn -0.992251 -0.008259 -0.123973
v -0.205022 0.154550 -0.287945
vn -0.981243 0.165069 -0.099572
v -0.203453 0.216062 -0.275502
vn -0.812478 0.049093 -0.580921
v -0.179106 0.154591 -0.367388
vn -0.847108 0.223023 -0.482358
v -0.176050 0.215928 -0.356406
vn -0.939181 0.176594 -0.294541
v -0.193623 0.215871 -0.319404
vn -0.944390 -0.000449 -0.328827
v -0.196266 0.154807 -0.331820
vn -0.695037 0.245848 -0.675635
v -0.151002 0.215802 -0.387626
vn -0.630414 0.023229 -0.775911
v -0.140931 0.155989 -0.407230
vn -0.351298 0.058053 -0.934462
v -0.075230 0.160414 -0.443683
vn -0.138809 0.231448 -0.962893
v -0.038780 0.225893 -0.441441
vn -0.503532 0.239238 -0.830193
v -0.109441 0.222102 -0.419847
vn -0.833723 -0.102081 0.542665
v -0.144847 0.056687 -0.135063
vn -0.985102 -0.164674 -0.049560
v -0.194861 0.059533 -0.286267
vn -0.993326 -0.068114 0.093079
v -0.204720 0.144536 -0.251484
vn -0.818593 -0.129224 -0.559649
v -0.172581 0.075375 -0.367412
vn -0.940419 -0.147115 -0.306544
v -0.188915 0.072390 -0.334198
vn -0.605643 -0.096789 -0.789828
v -0.134217 0.082918 -0.406675
vn -0.429013 -0.061921 -0.901173
v -0.085417 0.091510 -0.438069
vn -0.189205 -0.016114 -0.981805
v -0.042933 0.105078 -0.453540
vn -0.778191 0.342061 -0.526701
v -0.165174 0.259460 -0.347374
vn 0.111085 -0.183542 0.976715
v 0.014145 0.262351 -0.005568
vn 0.940758 -0.109845 0.320795
v 0.194631 0.137794 -0.207297
vn 0.955323 0.035624 0.293408
v 0.193661 0.215919 -0.192792
vn 0.511655 0.359607 -0.780315
v 0.104969 0.278482 -0.402235
vn 0.148236 0.333641 -0.930973
v 0.032851 0.271964 -0.428730
vn 0.706887 0.377149 -0.598388
v 0.135970 0.270829 -0.371380
vn 0.762354 0.355830 -0.540557
v 0.163598 0.276790 -0.338898
vn 0.989674 0.121311 0.076350
v 0.203770 0.219634 -0.236653
vn 0.949233 0.299272 -0.096920
v 0.191150 0.267333 -0.257841
vn 0.851177 -0.082278 0.518390
v 0.165028 0.227762 -0.128037
vn 0.339402 -0.203059 0.918462
v 0.042155 0.252086 -0.014195
vn 0.545070 -0.111386 0.830959
v 0.066326 0.148582 -0.042382
vn 0.526286 -0.218402 0.821781
v 0.083360 0.252040 -0.033508
vn 0.361412 -0.104524 0.926529
v 0.040794 0.168531 -0.026297
vn 0.702707 -0.167422 0.691501
v 0.110749 0.265176 -0.052994
vn 0.844710 -0.106870 0.524445
v 0.167680 0.144544 -0.145561
vn 0.996261 -0.045479 -0.073461
v 0.205089 0.154550 -0.287945
vn 0.980349 0.145274 -0.133457
v 0.203520 0.216062 -0.275502
vn 0.989666 -0.061146 0.129699
v 0.205192 0.154529 -0.248757
vn 0.810123 0.020520 -0.585901
v 0.174133 0.152763 -0.375401
vn 0.728552 0.241614 -0.640964
v 0.166217 0.212496 -0.372997
vn 0.913167 0.225765 -0.339345
v 0.193690 0.215871 -0.319404
vn 0.951488 0.027025 -0.306496
v 0.196333 0.154807 -0.331820
vn 0.576515 0.038188 -0.816194
v 0.123727 0.155909 -0.418355
vn 0.743653 -0.113459 0.658868
v 0.123204 0.143036 -0.089606
vn 0.684940 -0.093549 0.722569
v 0.100289 0.120864 -0.071727
vn 0.377751 0.068280 -0.923386
v 0.088994 0.159984 -0.437303
vn 0.175027 0.189067 -0.966240
v 0.045563 0.222229 -0.441009
vn 0.449683 0.209735 -0.868215
v 0.105823 0.219117 -0.422237
vn 0.984540 -0.158669 -0.074201
v 0.195961 0.073075 -0.292907
vn 0.788234 -0.147195 -0.597513
v 0.172648 0.075375 -0.367412
vn 0.936374 -0.134325 -0.324284
v 0.188982 0.072390 -0.334198
vn 0.619586 -0.098365 -0.778741
v 0.139358 0.081780 -0.402523
vn 0.243208 0.023027 -0.969701
v 0.053000 0.131643 -0.450662
vn 0.448427 -0.044662 -0.892703
v 0.085483 0.091510 -0.438069
vn -0.005138 0.079374 -0.996832
v 0.005571 0.139240 -0.457176
vn -0.968273 0.248230 0.028799
v -0.187082 -0.093441 -0.278705
vn -0.960949 -0.173065 0.215928
v -0.181100 0.030726 -0.219823
vn -0.638783 -0.603065 -0.477776
v -0.138798 -0.258052 -0.338556
vn -0.469538 -0.821724 -0.322962
v -0.130305 -0.279832 -0.314199
vn -0.953968 0.038575 0.297416
v -0.158184 -0.037181 -0.184528
vn -0.756475 0.124526 0.642058
v -0.092343 -0.034269 -0.057518
vn -0.935946 0.042103 0.349617
v -0.172197 -0.103360 -0.181421
vn -0.989294 -0.000049 0.145938
v -0.187971 -0.127103 -0.239956
vn -0.929848 -0.250672 0.269345
v -0.181791 -0.158069 -0.226232
vn -0.954971 -0.165703 0.246115
v -0.168777 -0.172993 -0.211515
vn -0.977290 -0.182050 0.108455
v -0.167906 -0.216674 -0.207329
vn -0.857629 -0.513027 -0.035714
v -0.156324 -0.261588 -0.255914
vn -0.830728 -0.330555 -0.447911
v -0.157575 -0.247272 -0.322253
vn -0.081472 -0.902878 -0.422107
v -0.032995 -0.304416 -0.347424
vn -0.886646 -0.408536 0.216694
v -0.157652 -0.244039 -0.198847
vn -0.937523 -0.117587 0.327449
v -0.126606 -0.192679 -0.084852
vn -0.938440 -0.128380 0.320701
v -0.156226 -0.198974 -0.154033
vn -0.926846 -0.120107 0.355712
v -0.157002 -0.139106 -0.158888
vn -0.898643 0.040702 0.436788
v -0.134941 -0.109038 -0.100787
vn -0.507813 0.143539 0.849425
v -0.062301 -0.029764 -0.029862
vn -0.312351 0.096028 0.945101
v -0.034850 0.013266 -0.024675
vn -0.144584 -0.421820 -0.895077
v -0.037368 -0.240349 -0.407181
vn -0.528736 0.030520 0.848238
v -0.052659 0.079846 -0.037902
vn -0.750536 0.005450 0.660807
v -0.106956 0.058798 -0.081543
vn -0.900221 -0.142455 0.411472
v -0.170202 0.050924 -0.178727
vn -0.725119 -0.318299 -0.610645
v -0.155688 0.012512 -0.369070
vn -0.907474 -0.256911 -0.332396
v -0.176817 0.002235 -0.321265
vn -0.583789 -0.267681 -0.766510
v -0.104511 0.016905 -0.416418
vn -0.323288 -0.738439 -0.591771
v -0.081316 -0.265240 -0.365087
vn -0.997710 -0.030143 0.060552
v -0.167709 -0.044726 -0.243469
vn -0.860321 0.070109 0.504909
v -0.110088 -0.021736 -0.083560
vn 0.021335 -0.143255 -0.989456
v -0.002009 -0.192324 -0.416813
vn -0.191680 -0.122376 -0.973798
v -0.038420 0.029487 -0.449811
vn 0.167067 0.095529 0.981307
v 0.010707 0.034146 -0.017434
vn 0.980025 -0.183610 0.076403
v 0.190452 0.045410 -0.253865
vn 0.046527 -0.790385 -0.610841
v 0.026267 -0.284703 -0.380534
vn 0.525124 -0.795577 -0.302161
v 0.128941 -0.280207 -0.315895
vn 0.446295 -0.893135 -0.055953
v 0.112206 -0.299069 -0.240184
vn 0.535267 0.133111 0.834128
v 0.055627 0.009104 -0.033635
vn 0.814782 -0.049024 0.577691
v 0.123478 0.039657 -0.106323
vn 0.939534 0.075143 0.334109
v 0.172985 -0.092527 -0.185003
vn 0.953072 0.212694 0.215443
v 0.162117 -0.051732 -0.189359
vn 0.984309 0.016979 0.175636
v 0.187228 -0.119569 -0.241875
vn 0.935011 -0.055379 0.350267
v 0.155576 -0.120623 -0.147967
vn 0.951168 -0.204356 0.231338
v 0.166323 -0.213980 -0.187089
vn 0.965868 -0.152865 0.209122
v 0.172729 -0.171407 -0.214359
vn 0.325846 -0.846946 -0.420127
v 0.082594 -0.284606 -0.329018
vn 0.134292 -0.956152 -0.260266
v 0.038145 -0.311519 -0.324353
vn 0.802843 -0.593497 0.056601
v 0.154972 -0.263287 -0.226566
vn 0.952247 -0.107209 0.285886
v 0.128590 -0.203983 -0.095068
vn 0.899822 0.021754 0.435715
v 0.134678 -0.109803 -0.099726
vn 0.453854 0.563101 0.690604
v 0.042331 -0.106425 -0.005426
vn 0.493994 0.005103 0.869450
v 0.047757 0.087142 -0.034774
vn 0.715701 -0.001117 0.698406
v 0.106075 0.057409 -0.080812
vn 0.822571 0.109631 0.557994
v 0.107683 -0.039929 -0.072585
vn 0.947020 -0.259913 -0.188675
v 0.180525 0.011828 -0.316529
vn 0.797185 -0.319070 -0.512534
v 0.161909 0.009923 -0.359066
vn 0.626629 -0.288244 -0.724052
v 0.121739 0.015345 -0.403422
vn 0.484566 -0.176315 -0.856802
v 0.067275 0.021068 -0.441489
vn 0.158324 -0.203678 -0.966151
v 0.012154 -0.096617 -0.432512
vn 0.011913 -0.553353 -0.832862
v 0.009075 -0.243953 -0.408689
vn 0.067433 -0.081439 -0.994394
v 0.014702 0.046699 -0.455241
vn -0.047064 -0.050989 0.997590
v -0.000454 0.135707 -0.016731
vn 0.212621 -0.962079 -0.170872
v 0.050692 -0.314098 -0.255152
vn 0.999203 -0.002514 -0.039841
v 0.168100 -0.046099 -0.271042
vn 0.983160 0.051394 0.175369
v 0.162930 -0.043709 -0.209805
vn 0.920194 -0.037857 0.389628
v 0.149241 -0.019408 -0.158818
vn 0.950918 0.308962 -0.017267
v 0.187184 -0.091485 -0.284480
vn 0.904751 0.231963 -0.357237
v 0.162048 -0.046748 -0.306676
vn 0.432640 -0.264526 -0.861887
v 0.051203 -0.042728 -0.437385
vn 0.488544 -0.590332 -0.642521
v 0.121644 -0.255008 -0.354270
vn 0.317260 0.513295 -0.797417
v 0.080048 -0.048381 -0.404159
vn -0.268293 -0.510681 -0.816838
v 0.069346 -0.182140 -0.413732
vn -0.452961 -0.059734 -0.889527
v 0.032915 -0.102918 -0.423848
vn 0.964646 -0.249665 0.084412
v 0.187041 -0.162638 -0.283627
vn 0.999043 0.021329 0.038196
v 0.193928 -0.125402 -0.286526
vn 0.709330 -0.471848 -0.523651
v 0.147217 -0.223003 -0.346154
vn 0.944871 -0.318898 -0.074313
v 0.173150 -0.202432 -0.300804
vn 0.564184 0.788699 -0.244234
v 0.130851 -0.060338 -0.376410
vn 0.335067 -0.550200 -0.764859
v 0.097539 -0.226520 -0.387576
vn 0.718100 0.236027 -0.654693
v 0.116722 -0.051248 -0.363860
vn 0.922543 -0.325103 -0.207899
v 0.179969 -0.182249 -0.335750
vn 0.955142 0.127662 -0.267218
v 0.190042 -0.127110 -0.331833
vn 0.903006 -0.265470 -0.337795
v 0.160446 -0.157365 -0.389917
vn 0.940846 0.249768 -0.228963
v 0.162398 -0.094806 -0.376659
vn 0.870568 -0.402132 -0.283551
v 0.159735 -0.243552 -0.316538
vn 0.066276 -0.926393 -0.370680
v 0.107559 -0.199654 -0.406326
vn -0.314616 -0.942241 0.114883
v 0.095194 -0.208412 -0.490330
vn -0.833532 0.445979 -0.326080
v 0.056774 -0.090347 -0.481278
vn -0.391598 0.867634 -0.306371
v 0.082891 -0.139260 -0.606523
vn -0.987677 -0.068951 -0.140496
v 0.050517 -0.136749 -0.498238
vn -0.990640 -0.060108 -0.122554
v 0.066418 -0.164898 -0.566923
vn -0.837131 -0.545504 0.040467
v 0.068542 -0.187653 -0.494048
vn -0.478516 -0.869832 0.120064
v 0.089072 -0.210466 -0.568757
vn 0.637084 -0.768197 0.063219
v 0.110017 -0.208156 -0.579690
vn 0.737436 -0.671100 -0.076243
v 0.146145 -0.194883 -0.475918
vn 0.920031 -0.293624 -0.259477
v 0.147329 -0.166101 -0.487774
vn 0.848294 0.402939 -0.343565
v 0.126323 -0.150606 -0.587370
vn 0.974337 -0.102803 -0.200245
v 0.158790 -0.136680 -0.478103
vn 0.956344 -0.280601 -0.081669
v 0.130128 -0.174363 -0.569260
vn 0.275186 0.928173 -0.250535
v 0.104136 -0.058235 -0.433780
vn 0.062588 0.881944 -0.467180
v 0.100847 -0.101730 -0.548050
vn -0.930875 -0.324586 -0.167677
v 0.045202 -0.128056 -0.439084
vn -0.670091 -0.736987 -0.088479
v 0.077414 -0.177582 -0.428193
vn 0.875810 0.426513 -0.225928
v 0.156857 -0.109143 -0.474452
vn 0.563053 0.748933 -0.349385
v 0.131250 -0.095795 -0.513572
vn 0.632321 -0.731519 -0.255048
v 0.139485 -0.192409 -0.388771
vn -0.332792 -0.941524 -0.052739
v 0.079902 -0.229102 -0.631542
vn -0.998609 -0.046959 -0.023981
v 0.062208 -0.183551 -0.641072
vn -0.508616 -0.820174 -0.261964
v 0.086919 -0.166404 -0.853185
vn 0.766792 -0.604477 -0.215957
v 0.126378 -0.152047 -0.844265
vn -0.162481 0.791856 0.588697
v 0.093728 -0.103925 -0.806605
vn -0.179780 -0.963813 -0.196836
v 0.093761 -0.171990 -0.782559
vn -0.015991 -0.936778 -0.349559
v 0.097999 -0.218996 -0.669192
vn -0.975887 -0.147909 0.160523
v 0.078295 -0.139971 -0.799478
vn 0.922088 -0.370270 -0.112489
v 0.114685 -0.167792 -0.767515
vn 0.910328 -0.373509 -0.178307
v 0.123802 -0.188291 -0.670290
vn 0.911144 0.403557 -0.083419
v 0.127332 -0.168275 -0.651114
vn 0.868781 -0.495131 -0.008065
v 0.126537 -0.207518 -0.619911
vn 0.525279 0.842632 0.118547
v 0.107867 -0.148451 -0.705684
vn -0.969437 0.199650 -0.142590
v 0.076141 -0.169682 -0.694479
vn -0.073716 0.309137 -0.948156
v 0.094293 -0.093880 -1.005279
vn 0.379471 0.915949 0.130536
v 0.138101 -0.041842 -0.931954
vn -0.347179 0.934300 -0.080929
v 0.062801 -0.033492 -0.921129
vn -0.959669 -0.218764 -0.176574
v 0.049004 -0.073116 -0.972583
vn 0.956537 -0.258856 -0.134279
v 0.147338 -0.078649 -0.980988
vn -0.962482 0.134840 -0.235470
v -0.187999 -0.113791 -0.327916
vn -0.885857 0.344727 -0.310518
v -0.168230 -0.051913 -0.310744
vn -0.479522 -0.218463 -0.849901
v -0.063531 0.007797 -0.439985
vn -0.610658 -0.349933 -0.710383
v -0.084689 -0.021500 -0.412330
vn -0.697092 0.235742 -0.677118
v -0.105150 -0.050570 -0.374695
vn -0.335819 0.448783 -0.828142
v -0.065092 -0.057022 -0.413831
vn -0.996270 -0.079295 0.034045
v -0.192826 -0.139975 -0.283011
vn -0.955140 -0.272838 -0.115185
v -0.166827 -0.216991 -0.300756
vn -0.958712 -0.269759 0.090012
v -0.172543 -0.195739 -0.260719
vn -0.521760 0.806204 -0.278931
v -0.130670 -0.063686 -0.386153
vn -0.460441 -0.371564 -0.806185
v -0.080955 -0.222625 -0.403125
vn -0.939097 -0.293954 -0.178012
v -0.185528 -0.171145 -0.328683
vn -0.921622 -0.279754 -0.268982
v -0.163080 -0.162889 -0.386071
vn -0.766590 -0.420700 -0.485130
v -0.148757 -0.224396 -0.342531
vn -0.511541 -0.493788 -0.703206
v -0.110879 -0.243738 -0.365303
vn -0.749999 0.161313 -0.641466
v -0.143097 -0.049000 -0.334757
vn 0.034318 -0.998600 0.040261
v -0.101382 -0.209570 -0.475109
vn 0.609513 0.691990 -0.386837
v -0.066269 -0.099580 -0.522237
vn 0.983153 -0.025415 -0.181007
v -0.051441 -0.133797 -0.506353
vn 0.848123 -0.528934 0.030271
v -0.069120 -0.190091 -0.495677
vn -0.750944 -0.652445 -0.101977
v -0.147255 -0.192064 -0.474006
vn -0.926787 0.285962 -0.243496
v -0.128775 -0.158450 -0.584432
vn -0.967630 0.140260 -0.209810
v -0.159111 -0.126988 -0.487395
vn -0.415952 0.874873 -0.248154
v -0.124014 -0.069370 -0.451209
vn 0.419134 -0.124169 -0.899393
v -0.038508 -0.096084 -0.424249
vn -0.260132 -0.713525 -0.650549
v -0.094472 -0.203994 -0.395782
vn 0.323855 -0.525189 -0.786953
v -0.070474 -0.173786 -0.415959
vn -0.499283 0.752151 -0.430099
v -0.128311 -0.100322 -0.531182
vn -0.873332 0.406720 -0.268087
v -0.162097 -0.095679 -0.381472
vn -0.523350 -0.790040 -0.319283
v -0.133551 -0.196299 -0.389709
vn -0.892174 -0.445856 -0.072376
v -0.129320 -0.178453 -0.560581
vn -0.938044 -0.333781 -0.093081
v -0.130477 -0.197039 -0.626901
vn 0.996508 -0.052439 -0.064971
v -0.068181 -0.167187 -0.577545
vn 0.032171 -0.996244 0.080394
v -0.102848 -0.228896 -0.608677
vn -0.035010 0.843454 0.536059
v -0.092254 -0.088571 -0.836427
vn -0.419299 -0.897397 -0.137358
v -0.107890 -0.168713 -0.787900
vn 0.149937 0.932977 -0.327221
v -0.089117 -0.138126 -0.612084
vn 0.976530 0.166929 -0.136100
v -0.066793 -0.174317 -0.665833
vn 0.822446 -0.568121 -0.028649
v -0.068111 -0.210437 -0.632682
vn 0.970502 -0.240960 -0.007962
v -0.079458 -0.153117 -0.778149
vn 0.115269 0.903920 0.411876
v -0.094919 -0.104550 -0.803931
vn -0.988638 -0.128578 0.077857
v -0.120563 -0.148466 -0.795930
vn 0.049607 -0.923685 -0.379927
v -0.097533 -0.212203 -0.687624
vn -0.943847 -0.287800 -0.162249
v -0.119804 -0.180155 -0.684924
vn -0.913589 0.396126 -0.091864
v -0.129521 -0.171129 -0.646151
vn -0.916222 0.390237 0.090841
v -0.115157 -0.152773 -0.737636
vn 0.094825 0.992847 0.072547
v -0.095205 -0.140554 -0.673224
vn 0.443066 0.895408 -0.044002
v -0.061765 -0.034181 -0.921653
vn 0.047760 0.308675 -0.949968
v -0.092367 -0.093583 -1.004594
vn -0.918541 -0.270167 -0.288604
v -0.151601 -0.073934 -0.974285
vn -0.365687 0.904501 0.219434
v -0.127439 -0.033498 -0.919784
vn -0.641813 -0.766847 0.004684
v -0.060901 -0.319139 -0.093770
vn -0.755266 -0.655202 0.016871
v -0.084282 -0.297279 -0.073710
vn -0.404293 -0.914626 0.002711
v -0.037897 -0.343541 -0.048750
vn -0.966903 -0.219134 0.130686
v -0.104508 -0.256423 -0.029710
vn 0.692292 -0.721524 0.011588
v 0.089601 -0.292532 -0.062680
vn 0.735235 -0.677324 0.025740
v 0.070440 -0.307515 -0.089206
vn 0.316957 -0.948143 -0.023725
v 0.037780 -0.343340 -0.054172
vn -0.510716 -0.859338 -0.026587
v -0.092259 -0.309578 -0.216318
vn -0.660169 -0.744615 0.098623
v -0.136018 -0.282581 -0.219826
vn -0.643951 -0.755043 0.123439
v -0.092099 -0.295908 -0.150486
vn -0.511814 -0.859085 -0.004442
v -0.075287 -0.323729 -0.182809
vn -0.691226 0.362197 0.625315
v -0.087416 -0.120314 -0.027121
vn -0.920110 0.087843 0.381681
v -0.117518 -0.168991 -0.055504
vn -0.980292 0.194978 0.031787
v -0.106309 -0.187707 -0.000613
vn -0.805560 -0.543664 0.235589
v -0.121010 -0.274483 -0.136250
vn -0.248066 -0.942700 -0.223114
v -0.068582 -0.305935 -0.274923
vn -0.093848 -0.960898 -0.260512
v -0.000386 -0.306839 -0.302729
vn -0.194375 0.304545 0.932454
v -0.010633 -0.094836 0.003316
vn 0.550672 -0.830462 0.084217
v 0.089090 -0.296533 -0.158243
vn 0.972595 -0.228252 0.044268
v 0.104697 -0.249738 -0.014825
vn 0.217273 -0.964561 -0.149714
v 0.035592 -0.333964 -0.183122
vn 0.786802 0.216191 0.578104
v 0.100024 -0.133464 -0.035377
vn 0.814036 -0.556443 0.166485
v 0.110170 -0.280185 -0.087888
vn 0.463970 -0.885042 0.037836
v 0.098788 -0.293896 -0.131590
vn 0.723204 -0.670433 0.165817
v 0.118358 -0.281650 -0.151452
vn 0.597981 -0.799514 0.056530
v 0.070835 -0.325165 -0.177539
vn -0.170970 -0.979374 -0.107681
v -0.036280 -0.335076 -0.175490
vn 0.163199 0.913323 -0.373105
v -0.029861 -0.113906 0.053972
vn -0.011671 -0.977251 0.211763
v -0.006334 -0.335557 0.138227
vn -0.903180 -0.092784 -0.419115
v -0.138480 -0.165578 0.103477
vn -0.616190 0.655471 -0.436655
v -0.084764 -0.144873 0.026212
vn -0.121352 0.861983 -0.492198
v -0.064043 -0.087534 0.079643
vn -0.308150 -0.951238 -0.013794
v -0.058194 -0.335578 0.105359
vn -0.340288 -0.938243 0.062488
v -0.044472 -0.334321 0.024357
vn -0.876434 0.385274 -0.288840
v -0.103412 -0.167353 0.025437
vn -0.618955 -0.783062 -0.060904
v -0.085422 -0.316303 0.080696
vn -0.910978 -0.402916 -0.088199
v -0.102871 -0.290832 0.029133
vn 0.947815 0.318820 -0.000894
v 0.105294 -0.181278 0.000960
vn 0.527030 0.747477 -0.404373
v 0.078045 -0.140845 0.026370
vn 0.639877 -0.767686 -0.034866
v 0.051499 -0.330067 -0.088150
vn -0.150562 0.967920 -0.201153
v 0.028816 -0.115574 0.049073
vn 0.908887 -0.399194 -0.120697
v 0.120584 -0.264234 0.111161
vn 0.219527 -0.975585 -0.006529
v 0.039805 -0.339454 0.103177
vn -0.126611 0.807931 -0.575514
v 0.052266 -0.091791 0.072502
vn 0.942130 -0.048971 -0.331653
v 0.115829 -0.194591 0.080412
vn -0.000255 -0.998851 -0.047928
v -0.000933 -0.337395 0.066213
vn 0.562116 -0.825312 -0.053720
v 0.082994 -0.318980 0.089154
vn 0.018592 0.973580 -0.227588
v -0.000651 -0.125323 0.055924
vn 0.842935 -0.528972 -0.098235
v 0.099847 -0.295615 0.030786
vn 0.029829 -0.998563 0.044523
v 0.014695 -0.345229 -0.025108
vn 0.790201 0.378728 -0.481817
v 0.109734 -0.150383 0.053621
vn 0.424498 -0.904958 0.029184
v 0.050201 -0.332341 0.025727
vn 0.981439 -0.033841 -0.188765
v 0.121231 -0.233198 0.066443
vn -0.589235 0.774626 0.229691
v -0.066489 -0.128800 0.005282
vn -0.038650 0.935492 0.351227
v -0.017569 -0.125014 0.013602
vn -0.964374 -0.053322 -0.259112
v -0.120707 -0.206358 0.090329
vn -0.809795 0.337930 -0.479620
v -0.155944 -0.116965 0.127634
vn -0.743887 0.421601 0.518541
v -0.049209 -0.134106 0.406089
vn -0.441011 -0.286690 0.850481
v -0.097328 -0.157906 0.354938
vn -0.359943 0.920920 0.149489
v -0.141019 -0.078897 0.305474
vn -0.264815 0.862328 0.431583
v -0.120456 -0.081874 0.358648
vn -0.277628 0.308338 0.909863
v -0.100928 -0.105453 0.386470
vn -0.293429 -0.773275 0.562090
v -0.157204 -0.224990 0.315944
vn -0.353369 0.879541 -0.318652
v -0.131636 -0.064257 0.207482
vn -0.472105 -0.876739 -0.091897
v -0.101569 -0.318551 0.205088
vn -0.741414 -0.486235 -0.462472
v -0.134082 -0.284555 0.205088
vn -0.776568 0.608600 -0.162935
v -0.173209 -0.089673 0.209093
vn -0.298954 0.950290 -0.087036
v -0.125463 -0.045117 0.236577
vn -0.938309 -0.210434 -0.274396
v -0.183925 -0.141865 0.188095
vn -0.949999 -0.275666 -0.146664
v -0.146870 -0.234038 0.186413
vn 0.587796 0.808308 -0.033687
v -0.010879 -0.053236 0.198377
vn -0.104730 0.994381 0.015443
v -0.051417 -0.041862 0.245653
vn -0.372128 -0.899975 0.227079
v -0.066111 -0.327771 0.153194
vn -0.954504 -0.234686 -0.183968
v -0.125583 -0.245482 0.105675
vn -0.931298 -0.275995 -0.237719
v -0.148530 -0.189453 0.163639
vn -0.773857 -0.632833 -0.025846
v -0.111486 -0.287866 0.142852
vn 0.056104 -0.993825 0.095730
v -0.019902 -0.320715 0.186871
vn -0.531131 -0.787786 -0.311920
v -0.090755 -0.302096 0.178963
vn 0.065270 -0.766212 0.639265
v 0.003029 -0.254059 0.325582
vn 0.124965 -0.961598 0.244364
v -0.000684 -0.315313 0.234304
vn 0.392676 0.887090 0.242644
v -0.038892 -0.049805 0.299903
vn 0.187370 0.846516 0.498300
v -0.039427 -0.083551 0.369348
vn 0.215316 0.921643 -0.322820
v -0.028920 -0.057906 0.142503
vn -0.122662 0.982546 -0.139848
v -0.076718 -0.053419 0.206578
vn -0.411123 0.840675 -0.352482
v -0.118208 -0.068462 0.153652
vn -0.211011 -0.798520 0.563773
v -0.015606 -0.233207 0.347824
vn -0.091881 -0.621252 0.778206
v -0.051212 -0.267296 0.324905
vn 0.181903 -0.830331 0.526747
v -0.018766 -0.292950 0.289332
vn -0.227962 -0.840583 0.491379
v -0.070933 -0.303613 0.271418
vn 0.100647 -0.994610 -0.024936
v -0.022919 -0.332528 0.208713
vn 0.937981 -0.179773 -0.296433
v 0.136859 -0.191510 0.131317
vn -0.063552 0.910285 -0.409074
v -0.000489 -0.075326 0.159499
vn 0.375649 0.355851 0.855721
v 0.098031 -0.097528 0.381215
vn 0.280859 0.935612 0.213890
v 0.127758 -0.078544 0.306975
vn 0.331553 0.421868 0.843860
v 0.150596 -0.108958 0.367446
vn 0.166936 0.860036 0.482152
v 0.074655 -0.070033 0.352625
vn 0.373698 0.927486 -0.010970
v 0.121157 -0.044957 0.237080
vn 0.135603 -0.319789 0.937735
v 0.131983 -0.138500 0.366916
vn 0.102056 0.994759 0.006184
v 0.081248 -0.052298 0.238643
vn 0.055903 0.991358 0.118678
v 0.055235 -0.045182 0.275798
vn -0.263126 0.891145 0.369628
v 0.042433 -0.065905 0.339590
vn 0.626530 -0.579412 0.521289
v 0.056808 -0.206606 0.355277
vn 0.091310 0.988066 -0.124049
v 0.049649 -0.047361 0.194096
vn 0.581834 -0.779393 0.232413
v 0.123770 -0.288254 0.244173
vn 0.239640 -0.807802 0.538543
v 0.066851 -0.291811 0.294912
vn 0.121136 -0.545194 0.829512
v 0.050683 -0.253614 0.332995
vn 0.269881 0.923658 -0.272065
v 0.127549 -0.064102 0.194042
vn -0.524393 0.836234 0.160392
v 0.027655 -0.049612 0.266020
vn 0.785090 -0.553094 -0.278786
v 0.168317 -0.239863 0.244266
vn 0.921373 -0.254894 -0.293429
v 0.178102 -0.142014 0.169837
vn 0.966192 -0.223059 -0.129300
v 0.146161 -0.220511 0.163723
vn 0.934913 -0.322808 -0.147418
v 0.152357 -0.187037 0.178603
vn 0.712118 -0.252827 -0.654956
v 0.159773 -0.215384 0.238188
vn 0.615246 -0.770126 0.168458
v 0.090955 -0.307848 0.153335
vn -0.035656 0.966100 0.255694
v 0.000324 -0.083819 0.291675
vn 0.782287 -0.486175 -0.389436
v 0.135083 -0.283825 0.202875
vn 0.261688 -0.962657 -0.069357
v 0.071761 -0.328147 0.202794
vn 0.808120 -0.532008 -0.252803
v 0.124038 -0.272417 0.184298
vn 0.181362 -0.974311 0.133516
v 0.039117 -0.319892 0.184936
vn -0.478971 0.875037 -0.069977
v 0.011445 -0.053249 0.186992
vn -0.237064 0.903731 -0.356470
v 0.030044 -0.057911 0.139255
vn 0.406018 0.799930 -0.441883
v 0.101575 -0.077423 0.119112
vn 0.813261 0.251627 -0.524681
v 0.152523 -0.121356 0.119697
vn 0.293815 -0.916232 0.272382
v 0.059040 -0.327611 0.157534
vn -0.098597 0.900502 0.423527
v -0.004287 -0.106074 0.398138
vn -0.113379 -0.834942 0.538533
v 0.029631 -0.300831 0.283540
vn -0.006578 0.991070 0.133178
v -0.000490 -0.072613 0.220911
vn 0.576801 0.676752 0.457502
v 0.041515 -0.131630 0.421106
vn 0.150318 0.849314 0.506033
v 0.018935 -0.114865 0.410313
vn 0.637052 -0.236215 0.733735
v 0.069097 -0.152043 0.385565
vn 0.000000 1.000000 0.000000
v 0.029279 -0.251584 0.440000
vn 0.629412 -0.766769 0.126121
v 0.045688 -0.263337 0.502078
vn 0.999049 0.010152 -0.042405
v 0.060348 -0.179924 0.446793
vn 0.987144 0.119513 0.106131
v 0.069523 -0.164499 0.522826
vn 0.568878 0.480745 0.667280
v 0.045508 -0.130893 0.568681
vn 0.588123 -0.513867 0.624541
v 0.040159 -0.248651 0.571475
vn 0.726397 -0.655326 -0.207112
v 0.041404 -0.213440 0.410162
vn 0.669194 0.734303 -0.113928
v 0.049404 -0.123593 0.482143
vn -0.062637 0.967859 0.243568
v 0.000270 -0.099870 0.534577
vn -0.569401 -0.614825 -0.545686
v -0.022596 -0.222521 0.392412
vn 0.960667 -0.267802 -0.073496
v 0.064429 -0.233136 0.483402
vn 0.798168 -0.567317 -0.202682
v 0.042110 -0.266828 0.442180
vn 0.000000 1.000000 0.000000
v -0.029424 -0.251655 0.435235
vn -0.312643 0.949865 0.003213
v -0.037371 -0.115027 0.469125
vn 0.103181 -0.638468 -0.762701
v -0.000641 -0.292651 0.391278
vn -0.862567 0.456964 0.217167
v -0.060640 -0.135360 0.542820
vn -0.410970 0.398097 0.820136
v -0.038454 -0.147929 0.582288
vn -0.030574 -0.098670 0.994650
v -0.009046 -0.201958 0.594377
vn -0.751443 -0.367304 0.548107
v -0.050415 -0.245931 0.562589
vn -0.999996 0.001861 -0.002242
v -0.062333 -0.188176 0.449496
vn -0.871057 -0.489144 -0.044697
v -0.056982 -0.256525 0.494709
vn -0.866210 -0.302078 -0.398033
v -0.057879 -0.227497 0.421360
vn -0.180736 -0.949984 0.254687
v -0.026284 -0.285738 0.518585
vn -0.100533 -0.994011 -0.042837
v 0.005893 -0.292740 0.439720
vn -0.316788 -0.931098 -0.180834
v -0.218061 -0.203345 0.280160
vn -0.768836 -0.443573 -0.460580
v -0.158972 -0.184138 0.235031
vn -0.848019 -0.244699 -0.470091
v -0.145913 -0.244416 0.213561
vn -0.150580 -0.392265 0.907444
v -0.189094 -0.191625 0.360607
vn -0.383750 -0.658182 0.647713
v -0.075562 -0.188802 0.345161
vn -0.374327 0.361228 0.854045
v -0.154730 -0.108999 0.366136
vn -0.556129 -0.750629 0.356759
v -0.163225 -0.245402 0.285835
vn 0.038458 0.794156 -0.606495
v -0.313342 -0.103987 0.222889
vn -0.041226 0.957791 0.284494
v -0.301274 -0.097845 0.280404
vn -0.071094 0.968482 0.238722
v -0.385881 -0.105308 0.259505
vn -0.250873 -0.259479 0.932595
v -0.376330 -0.166840 0.300766
vn -0.370507 -0.774321 0.512983
v -0.354357 -0.199391 0.286002
vn -0.151988 -0.979591 -0.131531
v -0.381481 -0.191031 0.240890
vn 0.084601 -0.295885 -0.951470
v -0.346226 -0.155633 0.212702
vn 0.274537 0.943870 -0.183683
v -0.268375 -0.097089 0.257870
vn -0.204511 -0.558428 0.803948
v -0.277751 -0.191037 0.307108
vn -0.313412 0.362413 0.877741
v -0.276254 -0.142752 0.321622
vn -0.116632 0.638016 0.761139
v -0.313241 -0.119149 0.303988
vn 0.041967 -0.759699 0.648920
v -0.277268 -0.213255 0.301194
vn -0.637688 0.028472 -0.769768
v -0.192776 -0.140446 0.228104
vn 0.224025 0.473030 -0.852089
v -0.259693 -0.127366 0.212765
vn 0.066670 -0.891785 -0.447520
v -0.277755 -0.219819 0.246953
vn 0.151194 -0.505759 -0.849322
v -0.244725 -0.184355 0.241531
vn 0.071470 0.940228 0.332962
v -0.243528 -0.108135 0.288693
vn -0.175666 0.646374 0.742524
v -0.438482 -0.115116 0.274740
vn -0.377493 0.823281 0.423920
v -0.597841 -0.146745 0.241983
vn -0.248785 0.964611 0.087356
v -0.500991 -0.105449 0.240889
vn -0.273416 0.483229 -0.831705
v -0.547384 -0.140977 0.207995
vn -0.137952 -0.250717 0.958181
v -0.594241 -0.187642 0.248271
vn -0.233824 0.103184 0.966788
v -0.481642 -0.150244 0.283436
vn -0.063506 -0.795708 0.602342
v -0.459697 -0.186157 0.278442
vn 0.198235 -0.962173 0.186885
v -0.572788 -0.198795 0.236620
vn 0.016614 -0.225034 -0.974209
v -0.467145 -0.163958 0.203863
vn 0.062069 -0.862498 -0.502239
v -0.456670 -0.196375 0.223804
vn 0.027731 0.160343 -0.986672
v -0.442959 -0.129507 0.203383
vn -0.100508 0.856640 -0.506029
v -0.470136 -0.102996 0.213991
vn 0.019323 -0.057951 -0.998132
v -0.590790 -0.177584 0.211055
vn 0.305437 -0.768647 -0.562041
v -0.607841 -0.223992 0.213703
vn -0.203615 -0.396062 -0.895364
v -0.654094 -0.215654 0.208748
vn -0.280993 -0.786210 0.550379
v -0.681830 -0.224828 0.237847
vn -0.518523 0.295326 0.802444
v -0.680843 -0.180441 0.237135
vn -0.839015 -0.128305 -0.528764
v -0.693837 -0.205936 0.223729
vn -0.544936 0.736024 -0.401638
v -0.684028 -0.157321 0.201461
vn 0.735433 0.598416 -0.317863
v 0.172075 -0.099154 0.179159
vn 0.715717 -0.343548 -0.608049
v 0.166846 -0.174095 0.231421
vn 0.167989 -0.546598 0.820372
v 0.189849 -0.187511 0.361215
vn 0.395957 -0.742422 0.540396
v 0.166790 -0.227009 0.311700
vn 0.211421 -0.510008 0.833783
v 0.096929 -0.193355 0.338367
vn 0.267548 0.681475 0.681183
v 0.264818 -0.119691 0.312839
vn 0.258216 0.959716 0.110770
v 0.188217 -0.085239 0.317653
vn 0.294073 -0.416195 0.860408
v 0.268153 -0.186700 0.323352
vn 0.173849 -0.957474 -0.230259
v 0.221567 -0.208055 0.271849
vn 0.427366 0.727380 -0.536914
v 0.195715 -0.118613 0.232591
vn -0.111034 0.010696 -0.993759
v 0.285586 -0.140146 0.206827
vn -0.086277 -0.366886 -0.926257
v 0.355921 -0.155432 0.207515
vn -0.088813 0.987307 0.131669
v 0.286745 -0.096139 0.265308
vn 0.145227 -0.925593 -0.349551
v 0.381824 -0.190545 0.237506
vn 0.400494 -0.661514 0.634037
v 0.348679 -0.202506 0.287097
vn -0.014577 0.763292 -0.645889
v 0.298542 -0.105202 0.221267
vn 0.214469 -0.602985 0.768383
v 0.287933 -0.207844 0.303159
vn -0.075729 -0.494506 -0.865869
v 0.314960 -0.175117 0.227390
vn -0.053777 -0.998036 0.032139
v 0.278380 -0.224480 0.263780
vn 0.322175 -0.058842 0.944850
v 0.286111 -0.166508 0.309641
vn 0.186425 0.540664 0.820322
v 0.306187 -0.112477 0.303688
vn -0.152701 -0.563307 -0.812014
v 0.279928 -0.208373 0.240098
vn -0.093402 -0.410445 -0.907089
v 0.256715 -0.176721 0.236618
vn 0.247315 -0.051355 0.967573
v 0.358918 -0.164699 0.300856
vn 0.129166 0.785033 0.605838
v 0.464922 -0.108870 0.261446
vn 0.327660 0.780354 0.532622
v 0.585750 -0.141253 0.241960
vn 0.224596 0.134946 0.965063
v 0.483867 -0.143641 0.280453
vn 0.028547 -0.919591 0.391839
v 0.494833 -0.195042 0.262884
vn -0.062237 -0.773061 -0.631271
v 0.455254 -0.189587 0.214741
vn 0.064587 0.055338 -0.996377
v 0.480608 -0.142987 0.198319
vn 0.070790 0.997358 0.016296
v 0.399666 -0.102053 0.247754
vn -0.063749 0.541091 -0.838544
v 0.454911 -0.110233 0.208684
vn 0.176936 0.888802 -0.422759
v 0.479031 -0.100840 0.216697
vn -0.073991 -0.567041 -0.820359
v 0.581034 -0.193764 0.218156
vn -0.011092 -0.583722 0.811878
v 0.593589 -0.198013 0.246074
vn 0.134788 0.364897 -0.921240
v 0.584619 -0.149982 0.215858
vn -0.063553 -0.892421 -0.446706
v 0.630555 -0.226084 0.188230
vn 0.510637 -0.739600 0.438454
v 0.671609 -0.224400 0.232188
vn 0.637322 -0.146471 -0.756549
v 0.685903 -0.200328 0.220071
vn 0.645350 0.123988 0.753757
v 0.686551 -0.180401 0.233822
vn 0.610221 0.693355 -0.383261
v 0.682869 -0.155992 0.204674
vn -0.308300 -0.949600 0.056670
v 0.110149 0.616064 -0.778403
vn 0.846954 0.530648 -0.032902
v 0.126636 0.661405 -0.639859
vn -0.695563 -0.674611 -0.247166
v 0.096368 0.618562 -0.604420
vn 0.570312 -0.814522 -0.106289
v 0.128895 0.616300 -0.615864
vn 0.999963 0.006903 -0.005095
v 0.154208 0.636477 -0.574984
vn -0.999974 -0.000049 0.007145
v 0.084772 0.642702 -0.834231
vn -0.988359 0.078561 -0.130285
v 0.100034 0.658800 -0.621197
vn -0.777761 0.617993 -0.114769
v 0.102429 0.682635 -0.613732
vn 0.318190 0.947952 -0.011916
v 0.122203 0.674366 -0.748223
vn 0.970409 0.205033 -0.127547
v 0.142774 0.643945 -0.621160
vn 0.506994 0.861508 0.027604
v 0.118505 0.697285 -0.554893
vn 0.994985 -0.037779 0.092611
v 0.145491 0.642891 -0.766025
vn -0.913685 0.406245 -0.012051
v 0.099830 0.661408 -0.770197
vn 0.257776 0.957029 -0.132839
v 0.143445 0.678983 -0.842214
vn -0.581013 0.804876 -0.120822
v 0.107164 0.649023 -0.901567
vn -0.812702 -0.441643 0.380089
v 0.090585 0.614895 -0.885131
vn 0.526060 0.841703 -0.121638
v 0.135255 0.653477 -0.904519
vn 0.631935 -0.747340 0.205283
v 0.147813 0.614267 -0.850129
vn 0.690380 -0.511988 0.511120
v 0.157678 0.595036 -0.887730
vn -0.761443 -0.647433 -0.032191
v -0.134047 0.620792 -0.622243
vn 0.935154 0.351618 -0.043029
v -0.087338 0.655411 -0.829643
vn 0.979508 -0.174823 -0.100000
v -0.078327 0.624848 -0.567473
vn 0.854749 0.503754 -0.125044
v -0.103214 0.673891 -0.626261
vn 0.491282 -0.848340 -0.197385
v -0.092961 0.619487 -0.614165
vn 0.961786 -0.259580 0.087096
v -0.094032 0.636462 -0.774855
vn 0.091029 0.994359 0.054446
v -0.112228 0.678543 -0.741281
vn 0.583392 0.799172 0.144836
v -0.100384 0.692865 -0.548448
vn -0.868913 -0.469442 0.156889
v -0.155976 0.624118 -0.808913
vn -0.944533 0.323945 -0.054000
v -0.136721 0.649931 -0.633734
vn -0.265572 0.957426 -0.113171
v -0.118686 0.682546 -0.626455
vn -0.689049 0.718678 0.093352
v -0.123050 0.687411 -0.541520
vn -0.974803 0.153267 0.162073
v -0.143290 0.645849 -0.765724
vn -0.285399 -0.946109 0.153054
v -0.135264 0.619686 -0.773415
vn 0.306058 -0.933475 0.186958
v -0.101897 0.608101 -0.840144
vn 0.787229 -0.501274 0.359160
v -0.092778 0.598115 -0.884791
vn 0.198853 0.972248 -0.123255
v -0.117333 0.658553 -0.890885
vn -0.918971 -0.326545 0.221044
v -0.152287 0.617708 -0.874219
vn -0.605872 0.788035 -0.109183
v -0.139854 0.680324 -0.833614
vn -0.719836 -0.686165 0.104949
v -0.041161 0.738545 -0.239565
vn -0.691613 0.721680 0.029135
v -0.012817 0.799124 -0.193342
vn -0.925783 0.377481 -0.020840
v -0.033502 0.779003 -0.322944
vn -0.572279 0.819869 -0.017641
v -0.031556 0.784877 -0.390982
vn -0.322288 0.946552 0.013029
v -0.013233 0.811628 -0.515244
vn 0.613661 -0.785799 0.077078
v 0.034849 0.731470 -0.291694
vn 0.857990 -0.512477 0.034932
v 0.041669 0.730215 -0.340226
vn 0.714764 0.699164 -0.016797
v 0.016358 0.793028 -0.303869
vn 0.252524 -0.967519 0.011813
v 0.015373 0.714503 -0.426215
vn 0.987423 0.157783 -0.010005
v 0.044347 0.750327 -0.305862
vn 0.745260 0.666486 -0.019602
v 0.034588 0.781855 -0.384003
vn 0.458395 -0.884222 0.089589
v 0.030767 0.731007 -0.250070
vn 0.687797 0.725897 0.002832
v 0.032250 0.792968 -0.242743
vn -0.606493 -0.791378 -0.076728
v -0.031856 0.722473 -0.526686
vn -0.975540 -0.219717 0.006721
v -0.045403 0.737901 -0.360429
vn -0.996692 -0.078594 -0.020694
v -0.047914 0.743743 -0.499345
vn -0.618411 0.785672 0.016940
v -0.026870 0.782901 -0.487350
vn 0.007033 -0.998112 -0.061018
v 0.001163 0.710318 -0.515017
vn -0.467648 -0.883688 0.020013
v -0.022714 0.715722 -0.413883
vn -0.963940 0.265966 0.009079
v -0.042135 0.760566 -0.476857
vn -0.909317 0.415821 0.015325
v -0.020458 0.804725 -0.525248
vn 0.452056 -0.891938 0.009587
v 0.030058 0.715533 -0.406167
vn 0.792830 -0.607741 -0.045505
v 0.041629 0.728122 -0.492803
vn 0.666277 -0.745247 0.026114
v 0.038967 0.723133 -0.427588
vn 0.718964 0.694639 0.023802
v 0.025674 0.783276 -0.473256
vn 0.448934 -0.874835 -0.181992
v 0.015205 0.724442 -0.592916
vn 0.850469 0.525569 0.021905
v 0.042251 0.777585 -0.517749
vn 0.382083 0.923787 0.025110
v 0.011323 0.812554 -0.508042
vn 0.953623 0.300490 0.017563
v 0.039980 0.755910 -0.395402
vn 0.997149 0.075180 -0.006540
v 0.046629 0.745241 -0.463778
vn 0.897486 0.439983 0.030539
v 0.020340 0.802380 -0.500103
vn -0.162216 0.805118 0.570501
v 0.091788 -0.076156 -0.824552
vn -0.992107 -0.108970 0.062047
v 0.064758 -0.137161 -0.848003
vn 0.931060 0.264083 0.251768
v 0.123060 -0.139297 -0.808610
vn -0.896009 -0.394163 -0.204457
v 0.070485 -0.113932 -0.891252
vn 0.974054 0.162552 0.157465
v 0.123683 -0.101770 -0.881282
vn -0.593096 0.592087 0.545592
v 0.072042 -0.077320 -0.883761
vn 0.075993 -0.899253 -0.430778
v 0.094664 -0.130173 -0.905914
vn 0.675691 0.351630 0.647918
v 0.125944 -0.071882 -0.893852
vn 0.985871 0.102841 0.132218
v -0.065639 -0.128913 -0.844561
vn 0.272177 -0.886213 -0.374895
v -0.089513 -0.165614 -0.852599
vn 0.964511 0.107798 0.241035
v -0.069047 -0.078958 -0.890500
vn -0.984845 -0.169090 0.038579
v -0.128150 -0.102135 -0.894933
vn -0.892254 0.399951 0.209574
v -0.125125 -0.120139 -0.839488
vn -0.894627 -0.437840 -0.089096
v -0.128927 -0.147694 -0.844325
vn 0.958264 -0.226515 -0.174420
v -0.047363 -0.075614 -0.973799
vn 0.079206 -0.957949 -0.275791
v -0.098627 -0.128665 -0.911009
# 791 vertices, 0 vertices normals

f 51//51 262//262 81//81
f 69//69 84//84 83//83
f 13//13 20//20 19//19
f 31//31 11//11 29//29
f 29//29 78//78 77//77
f 77//77 40//40 28//28
f 28//28 17//17 26//26
f 19//19 18//18 17//17
f 1//1 39//39 80//80
f 3//3 2//2 80//80
f 3//3 80//80 79//79
f 12//12 6//6 8//8
f 12//12 8//8 36//36
f 35//35 156//156 36//36
f 142//142 9//9 4//4
f 142//142 4//4 37//37
f 5//5 228//228 229//229
f 135//135 79//79 86//86
f 16//16 28//28 40//40
f 3//3 144//144 2//2
f 14//14 13//13 19//19
f 36//36 226//226 35//35
f 156//156 10//10 9//9
f 4//4 228//228 5//5
f 157//157 156//156 9//9
f 157//157 9//9 140//140
f 37//37 4//4 5//5
f 1//1 14//14 39//39
f 12//12 138//138 38//38
f 12//12 38//38 43//43
f 4//4 225//225 235//235
f 35//35 255//255 227//227
f 35//35 227//227 10//10
f 10//10 225//225 9//9
f 11//11 231//231 230//230
f 15//15 13//13 14//14
f 18//18 27//27 17//17
f 11//11 31//31 5//5
f 3//3 135//135 144//144
f 4//4 235//235 228//228
f 16//16 17//17 28//28
f 78//78 11//11 230//230
f 11//11 5//5 229//229
f 142//142 140//140 9//9
f 156//156 35//35 10//10
f 36//36 8//8 226//226
f 7//7 6//6 12//12
f 138//138 12//12 36//36
f 138//138 36//36 173//173
f 12//12 43//43 76//76
f 12//12 76//76 7//7
f 9//9 225//225 4//4
f 229//229 231//231 11//11
f 177//177 38//38 138//138
f 135//135 3//3 79//79
f 1//1 2//2 15//15
f 2//2 1//1 80//80
f 195//195 39//39 14//14
f 15//15 147//147 13//13
f 19//19 17//17 16//16
f 15//15 14//14 1//1
f 14//14 197//197 195//195
f 16//16 197//197 19//19
f 14//14 19//19 197//197
f 26//26 17//17 27//27
f 28//28 29//29 77//77
f 29//29 11//11 78//78
f 26//26 31//31 29//29
f 26//26 29//29 28//28
f 256//256 78//78 230//230
f 260//260 7//7 76//76
f 36//36 156//156 173//173
f 226//226 255//255 35//35
f 34//34 33//33 32//32
f 34//34 32//32 30//30
f 23//23 34//34 30//30
f 22//22 27//27 18//18
f 22//22 18//18 20//20
f 32//32 33//33 37//37
f 32//32 37//37 5//5
f 154//154 24//24 152//152
f 21//21 13//13 147//147
f 143//143 33//33 150//150
f 25//25 24//24 23//23
f 25//25 23//23 22//22
f 27//27 23//23 26//26
f 31//31 26//26 30//30
f 154//154 33//33 34//34
f 142//142 33//33 143//143
f 142//142 143//143 140//140
f 147//147 25//25 21//21
f 25//25 152//152 24//24
f 33//33 154//154 150//150
f 142//142 37//37 33//33
f 21//21 20//20 13//13
f 20//20 18//18 19//19
f 25//25 22//22 20//20
f 25//25 20//20 21//21
f 154//154 34//34 23//23
f 154//154 23//23 24//24
f 22//22 23//23 27//27
f 30//30 26//26 23//23
f 5//5 31//31 32//32
f 31//31 30//30 32//32
f 41//41 56//56 53//53
f 62//62 46//46 65//65
f 62//62 40//40 77//77
f 64//64 55//55 62//62
f 200//200 16//16 41//41
f 44//44 200//200 41//41
f 80//80 45//45 93//93
f 49//49 259//259 47//47
f 49//49 47//47 43//43
f 50//50 51//51 81//81
f 66//66 270//270 84//84
f 46//46 268//268 66//66
f 63//63 256//256 266//266
f 40//40 55//55 16//16
f 43//43 47//47 76//76
f 81//81 261//261 50//50
f 52//52 48//48 51//51
f 52//52 51//51 103//103
f 39//39 42//42 45//45
f 43//43 38//38 89//89
f 258//258 85//85 84//84
f 195//195 44//44 42//42
f 47//47 259//259 260//260
f 48//48 262//262 51//51
f 85//85 263//263 264//264
f 85//85 264//264 52//52
f 49//49 89//89 90//90
f 49//49 90//90 50//50
f 44//44 53//53 54//54
f 44//44 54//54 42//42
f 46//46 62//62 63//63
f 84//84 265//265 258//258
f 84//84 70//70 66//66
f 266//266 268//268 46//46
f 266//266 46//46 63//63
f 268//268 270//270 66//66
f 103//103 51//51 50//50
f 103//103 50//50 102//102
f 261//261 259//259 49//49
f 261//261 49//49 50//50
f 89//89 49//49 43//43
f 47//47 260//260 76//76
f 52//52 264//264 48//48
f 85//85 258//258 263//263
f 270//270 265//265 84//84
f 86//86 121//121 137//137
f 79//79 80//80 93//93
f 42//42 94//94 45//45
f 80//80 39//39 45//45
f 42//42 39//39 195//195
f 16//16 55//55 41//41
f 55//55 56//56 41//41
f 200//200 44//44 195//195
f 53//53 44//44 41//41
f 61//61 55//55 64//64
f 40//40 62//62 55//55
f 63//63 62//62 77//77
f 63//63 77//77 78//78
f 66//66 65//65 46//46
f 62//62 65//65 64//64
f 256//256 63//63 78//78
f 90//90 102//102 50//50
f 81//81 262//262 261//261
f 82//82 85//85 52//52
f 82//82 52//52 103//103
f 67//67 69//69 71//71
f 67//67 71//71 73//73
f 65//65 70//70 68//68
f 60//60 61//61 64//64
f 60//60 64//64 68//68
f 67//67 73//73 59//59
f 67//67 59//59 60//60
f 56//56 61//61 58//58
f 97//97 100//100 75//75
f 95//95 54//54 57//57
f 70//70 84//84 69//69
f 85//85 82//82 83//83
f 85//85 83//83 84//84
f 58//58 59//59 100//100
f 58//58 100//100 99//99
f 71//71 83//83 72//72
f 73//73 74//74 75//75
f 72//72 74//74 71//71
f 82//82 103//103 72//72
f 57//57 99//99 95//95
f 74//74 97//97 75//75
f 72//72 83//83 82//82
f 95//95 42//42 54//54
f 54//54 53//53 56//56
f 54//54 56//56 57//57
f 61//61 56//56 55//55
f 57//57 56//56 58//58
f 57//57 58//58 99//99
f 100//100 59//59 73//73
f 100//100 73//73 75//75
f 61//61 60//60 59//59
f 61//61 59//59 58//58
f 60//60 68//68 67//67
f 70//70 65//65 66//66
f 64//64 65//65 68//68
f 70//70 69//69 67//67
f 70//70 67//67 68//68
f 83//83 71//71 69//69
f 74//74 73//73 71//71
f 93//93 88//88 79//79
f 88//88 93//93 45//45
f 88//88 45//45 94//94
f 89//89 87//87 90//90
f 89//89 38//38 137//137
f 89//89 137//137 87//87
f 120//120 79//79 88//88
f 120//120 121//121 86//86
f 120//120 86//86 79//79
f 87//87 137//137 121//121
f 102//102 90//90 117//117
f 96//96 95//95 101//101
f 103//103 91//91 72//72
f 96//96 123//123 120//120
f 96//96 120//120 88//88
f 98//98 124//124 123//123
f 98//98 123//123 96//96
f 92//92 127//127 97//97
f 91//91 103//103 130//130
f 91//91 130//130 126//126
f 72//72 92//92 74//74
f 94//94 42//42 95//95
f 99//99 100//100 101//101
f 102//102 130//130 103//103
f 74//74 92//92 97//97
f 126//126 127//127 92//92
f 126//126 92//92 91//91
f 127//127 98//98 97//97
f 92//92 72//72 91//91
f 94//94 95//95 96//96
f 94//94 96//96 88//88
f 99//99 101//101 95//95
f 96//96 101//101 98//98
f 98//98 101//101 97//97
f 101//101 100//100 97//97
f 125//125 114//114 112//112
f 114//114 110//110 112//112
f 115//115 105//105 104//104
f 106//106 118//118 104//104
f 105//105 109//109 104//104
f 104//104 109//109 107//107
f 111//111 709//709 710//710
f 105//105 110//110 108//108
f 106//106 107//107 116//116
f 124//124 98//98 127//127
f 124//124 127//127 125//125
f 121//121 118//118 87//87
f 117//117 87//87 106//106
f 115//115 119//119 120//120
f 120//120 123//123 115//115
f 121//121 120//120 119//119
f 106//106 104//104 107//107
f 107//107 109//109 709//709
f 113//113 116//116 107//107
f 110//110 114//114 111//111
f 110//110 122//122 112//112
f 115//115 122//122 110//110
f 128//128 102//102 117//117
f 116//116 128//128 117//117
f 104//104 118//118 119//119
f 113//113 129//129 128//128
f 126//126 129//129 127//127
f 128//128 129//129 130//130
f 128//128 130//130 102//102
f 87//87 118//118 106//106
f 121//121 119//119 118//118
f 117//117 90//90 87//87
f 123//123 122//122 115//115
f 123//123 124//124 122//122
f 127//127 129//129 125//125
f 130//130 129//129 126//126
f 117//117 106//106 116//116
f 110//110 717//717 108//108
f 111//111 107//107 709//709
f 111//111 113//113 107//107
f 128//128 116//116 113//113
f 110//110 105//105 115//115
f 108//108 109//109 105//105
f 119//119 115//115 104//104
f 110//110 711//711 717//717
f 110//110 111//111 711//711
f 111//111 114//114 113//113
f 129//129 113//113 125//125
f 114//114 125//125 113//113
f 112//112 124//124 125//125
f 112//112 122//122 124//124
f 133//133 131//131 132//132
f 133//133 723//723 725//725
f 134//134 725//725 131//131
f 132//132 723//723 133//133
f 133//133 134//134 131//131
f 132//132 131//131 722//722
f 133//133 725//725 134//134
f 135//135 136//136 174//174
f 171//171 156//156 157//157
f 173//173 177//177 138//138
f 177//177 137//137 38//38
f 15//15 2//2 146//146
f 15//15 146//146 147//147
f 156//156 171//171 173//173
f 136//136 86//86 158//158
f 86//86 137//137 177//177
f 86//86 177//177 158//158
f 136//136 135//135 86//86
f 153//153 181//181 151//151
f 151//151 184//184 139//139
f 139//139 143//143 150//150
f 178//178 187//187 148//148
f 139//139 141//141 140//140
f 149//149 147//147 146//146
f 148//148 187//187 155//155
f 147//147 149//149 25//25
f 153//153 152//152 155//155
f 155//155 152//152 25//25
f 157//157 141//141 186//186
f 157//157 186//186 171//171
f 141//141 139//139 184//184
f 150//150 151//151 139//139
f 151//151 181//181 184//184
f 153//153 187//187 181//181
f 148//148 145//145 178//178
f 174//174 178//178 145//145
f 174//174 145//145 144//144
f 144//144 135//135 174//174
f 141//141 157//157 140//140
f 139//139 140//140 143//143
f 145//145 148//148 149//149
f 145//145 149//149 146//146
f 148//148 155//155 149//149
f 25//25 149//149 155//155
f 153//153 155//155 187//187
f 151//151 150//150 152//152
f 151//151 152//152 153//153
f 150//150 154//154 152//152
f 146//146 2//2 144//144
f 146//146 144//144 145//145
f 162//162 166//166 170//170
f 181//181 187//187 179//179
f 168//168 183//183 170//170
f 170//170 166//166 168//168
f 176//176 160//160 165//165
f 158//158 160//160 176//176
f 159//159 161//161 160//160
f 159//159 163//163 161//161
f 728//728 161//161 163//163
f 728//728 733//733 161//161
f 179//179 165//165 162//162
f 167//167 164//164 172//172
f 166//166 163//163 167//167
f 733//733 737//737 162//162
f 164//164 167//167 163//163
f 184//184 181//181 180//180
f 180//180 181//181 179//179
f 187//187 178//178 179//179
f 177//177 175//175 158//158
f 175//175 177//177 173//173
f 174//174 136//136 176//176
f 172//172 164//164 173//173
f 165//165 179//179 178//178
f 159//159 158//158 175//175
f 164//164 159//159 175//175
f 167//167 169//169 168//168
f 170//170 179//179 162//162
f 172//172 173//173 171//171
f 173//173 164//164 175//175
f 182//182 185//185 169//169
f 182//182 169//169 167//167
f 184//184 185//185 141//141
f 171//171 186//186 185//185
f 171//171 185//185 182//182
f 178//178 174//174 165//165
f 172//172 171//171 182//182
f 184//184 183//183 185//185
f 141//141 185//185 186//186
f 162//162 160//160 733//733
f 160//160 162//162 165//165
f 182//182 167//167 172//172
f 730//730 728//728 163//163
f 161//161 733//733 160//160
f 163//163 159//159 164//164
f 160//160 158//158 159//159
f 176//176 165//165 174//174
f 167//167 168//168 166//166
f 162//162 737//737 166//166
f 183//183 169//169 185//185
f 168//168 169//169 183//183
f 180//180 170//170 183//183
f 180//180 183//183 184//184
f 180//180 179//179 170//170
f 166//166 726//726 730//730
f 166//166 730//730 163//163
f 176//176 136//136 158//158
f 189//189 190//190 741//741
f 191//191 188//188 189//189
f 189//189 188//188 190//190
f 190//190 188//188 192//192
f 189//189 741//741 191//191
f 192//192 188//188 743//743
f 188//188 191//191 743//743
f 196//196 197//197 16//16
f 193//193 197//197 194//194
f 195//195 197//197 193//193
f 197//197 196//196 194//194
f 193//193 203//203 195//195
f 198//198 194//194 196//196
f 194//194 198//198 205//205
f 205//205 193//193 194//194
f 16//16 200//200 212//212
f 16//16 212//212 196//196
f 198//198 196//196 199//199
f 199//199 196//196 212//212
f 212//212 200//200 195//195
f 195//195 203//203 212//212
f 198//198 199//199 210//210
f 203//203 745//745 207//207
f 746//746 202//202 198//198
f 202//202 747//747 201//201
f 765//765 204//204 749//749
f 198//198 202//202 205//205
f 204//204 765//765 746//746
f 745//745 201//201 759//759
f 759//759 201//201 747//747
f 749//749 204//204 206//206
f 202//202 201//201 205//205
f 206//206 204//204 198//198
f 772//772 749//749 206//206
f 193//193 201//201 203//203
f 204//204 746//746 198//198
f 203//203 201//201 745//745
f 193//193 205//205 201//201
f 209//209 754//754 211//211
f 757//757 210//210 199//199
f 750//750 209//209 208//208
f 208//208 211//211 212//212
f 209//209 750//750 751//751
f 756//756 750//750 208//208
f 210//210 752//752 206//206
f 756//756 203//203 207//207
f 203//203 756//756 208//208
f 754//754 757//757 211//211
f 752//752 210//210 757//757
f 211//211 208//208 209//209
f 199//199 211//211 757//757
f 212//212 211//211 199//199
f 198//198 210//210 206//206
f 208//208 212//212 203//203
f 772//772 223//223 749//749
f 223//223 214//214 749//749
f 748//748 761//761 218//218
f 216//216 218//218 214//214
f 215//215 217//217 213//213
f 217//217 762//762 758//758
f 216//216 217//217 215//215
f 216//216 215//215 218//218
f 765//765 214//214 761//761
f 765//765 749//749 214//214
f 217//217 758//758 213//213
f 758//758 760//760 213//213
f 760//760 764//764 215//215
f 760//760 215//215 213//213
f 215//215 764//764 218//218
f 218//218 764//764 748//748
f 214//214 218//218 761//761
f 222//222 217//217 216//216
f 770//770 762//762 217//217
f 774//774 221//221 771//771
f 771//771 221//221 769//769
f 775//775 769//769 223//223
f 767//767 770//770 220//220
f 216//216 219//219 222//222
f 216//216 214//214 219//219
f 774//774 220//220 222//222
f 219//219 221//221 222//222
f 222//222 770//770 217//217
f 770//770 222//222 220//220
f 222//222 221//221 774//774
f 219//219 223//223 221//221
f 214//214 223//223 219//219
f 769//769 221//221 223//223
f 223//223 772//772 775//775
f 226//226 242//242 255//255
f 420//420 319//319 253//253
f 262//262 276//276 261//261
f 234//234 247//247 233//233
f 233//233 232//232 231//231
f 232//232 354//354 230//230
f 254//254 244//244 291//291
f 244//244 253//253 252//252
f 244//244 252//252 243//243
f 243//243 252//252 250//250
f 243//243 250//250 238//238
f 241//241 251//251 248//248
f 241//241 248//248 236//236
f 224//224 249//249 293//293
f 229//229 228//228 234//234
f 237//237 10//10 227//227
f 237//237 227//227 240//240
f 8//8 6//6 246//246
f 316//316 235//235 224//224
f 235//235 225//225 224//224
f 232//232 230//230 231//231
f 249//249 225//225 237//237
f 249//249 237//237 236//236
f 241//241 240//240 239//239
f 241//241 239//239 238//238
f 243//243 242//242 246//246
f 315//315 233//233 247//247
f 246//246 245//245 244//244
f 316//316 247//247 235//235
f 318//318 251//251 250//250
f 318//318 250//250 317//317
f 252//252 319//319 317//317
f 253//253 254//254 324//324
f 253//253 324//324 420//420
f 245//245 246//246 6//6
f 245//245 6//6 7//7
f 246//246 242//242 226//226
f 246//246 226//226 8//8
f 237//237 225//225 10//10
f 235//235 234//234 228//228
f 225//225 249//249 224//224
f 224//224 293//293 316//316
f 249//249 236//236 248//248
f 240//240 241//241 236//236
f 240//240 236//236 237//237
f 241//241 238//238 250//250
f 241//241 250//250 251//251
f 242//242 243//243 238//238
f 242//242 238//238 239//239
f 319//319 252//252 253//253
f 246//246 244//244 243//243
f 245//245 291//291 244//244
f 244//244 254//254 253//253
f 249//249 248//248 293//293
f 251//251 318//318 248//248
f 252//252 317//317 250//250
f 354//354 232//232 314//314
f 314//314 232//232 233//233
f 314//314 233//233 315//315
f 229//229 233//233 231//231
f 235//235 247//247 234//234
f 234//234 233//233 229//229
f 245//245 7//7 260//260
f 353//353 324//324 254//254
f 353//353 254//254 291//291
f 239//239 240//240 227//227
f 239//239 227//227 255//255
f 255//255 242//242 239//239
f 267//267 281//281 270//270
f 279//279 288//288 290//290
f 279//279 290//290 282//282
f 275//275 286//286 288//288
f 272//272 285//285 287//287
f 272//272 287//287 278//278
f 257//257 326//326 274//274
f 265//265 270//270 280//280
f 277//277 48//48 264//264
f 277//277 264//264 273//273
f 267//267 268//268 266//266
f 267//267 266//266 269//269
f 344//344 267//267 269//269
f 272//272 273//273 263//263
f 272//272 263//263 274//274
f 275//275 276//276 277//277
f 275//275 277//277 278//278
f 279//279 284//284 276//276
f 279//279 276//276 275//275
f 331//331 280//280 281//281
f 331//331 281//281 345//345
f 282//282 289//289 283//283
f 282//282 283//283 284//284
f 271//271 331//331 358//358
f 347//347 285//285 326//326
f 348//348 286//286 287//287
f 348//348 287//287 347//347
f 350//350 289//289 290//290
f 265//265 271//271 257//257
f 265//265 257//257 258//258
f 271//271 358//358 257//257
f 260//260 259//259 284//284
f 260//260 284//284 283//283
f 259//259 261//261 276//276
f 259//259 276//276 284//284
f 264//264 263//263 273//273
f 258//258 257//257 274//274
f 258//258 274//274 263//263
f 326//326 285//285 272//272
f 326//326 272//272 274//274
f 273//273 272//272 278//278
f 273//273 278//278 277//277
f 287//287 286//286 275//275
f 287//287 275//275 278//278
f 288//288 279//279 275//275
f 350//350 290//290 288//288
f 350//350 288//288 349//349
f 284//284 279//279 282//282
f 283//283 289//289 291//291
f 290//290 289//289 282//282
f 285//285 347//347 287//287
f 286//286 348//348 349//349
f 286//286 349//349 288//288
f 289//289 350//350 353//353
f 289//289 353//353 291//291
f 344//344 269//269 354//354
f 256//256 354//354 269//269
f 256//256 269//269 266//266
f 345//345 281//281 267//267
f 345//345 267//267 344//344
f 268//268 267//267 270//270
f 331//331 271//271 280//280
f 280//280 271//271 265//265
f 245//245 283//283 291//291
f 260//260 283//283 245//245
f 230//230 354//354 256//256
f 280//280 270//270 281//281
f 262//262 48//48 277//277
f 262//262 277//277 276//276
f 320//320 295//295 432//432
f 292//292 299//299 296//296
f 309//309 308//308 310//310
f 342//342 335//335 332//332
f 362//362 328//328 338//338
f 332//332 334//334 333//333
f 486//486 325//325 312//312
f 486//486 312//312 311//311
f 480//480 311//311 297//297
f 485//485 484//484 305//305
f 354//354 314//314 312//312
f 314//314 315//315 297//297
f 420//420 423//423 421//421
f 313//313 444//444 323//323
f 293//293 248//248 321//321
f 421//421 422//422 319//319
f 295//295 294//294 432//432
f 296//296 316//316 293//293
f 305//305 352//352 485//485
f 307//307 481//481 310//310
f 481//481 480//480 297//297
f 305//305 484//484 320//320
f 442//442 420//420 324//324
f 312//312 314//314 311//311
f 303//303 477//477 306//306
f 442//442 324//324 351//351
f 321//321 318//318 419//419
f 476//476 477//477 295//295
f 295//295 320//320 484//484
f 293//293 321//321 296//296
f 248//248 318//318 321//321
f 320//320 313//313 352//352
f 320//320 352//352 305//305
f 320//320 428//428 313//313
f 442//442 351//351 323//323
f 313//313 428//428 444//444
f 318//318 317//317 433//433
f 422//422 433//433 317//317
f 422//422 317//317 319//319
f 319//319 420//420 421//421
f 296//296 322//322 247//247
f 296//296 247//247 316//316
f 322//322 315//315 247//247
f 322//322 297//297 315//315
f 297//297 311//311 314//314
f 310//310 322//322 298//298
f 295//295 484//484 476//476
f 477//477 483//483 306//306
f 483//483 307//307 308//308
f 483//483 308//308 306//306
f 310//310 297//297 322//322
f 297//297 310//310 481//481
f 480//480 486//486 311//311
f 352//352 313//313 323//323
f 354//354 312//312 325//325
f 308//308 307//307 310//310
f 428//428 320//320 432//432
f 295//295 477//477 303//303
f 303//303 306//306 302//302
f 299//299 300//300 298//298
f 292//292 321//321 419//419
f 296//296 298//298 322//322
f 300//300 426//426 301//301
f 298//298 309//309 310//310
f 302//302 301//301 426//426
f 304//304 303//303 425//425
f 296//296 321//321 292//292
f 426//426 300//300 299//299
f 426//426 299//299 424//424
f 299//299 298//298 296//296
f 300//300 301//301 309//309
f 300//300 309//309 298//298
f 301//301 302//302 308//308
f 301//301 308//308 309//309
f 302//302 306//306 308//308
f 294//294 295//295 303//303
f 294//294 303//303 304//304
f 302//302 426//426 425//425
f 302//302 425//425 303//303
f 292//292 424//424 299//299
f 325//325 486//486 343//343
f 493//493 340//340 336//336
f 493//493 336//336 341//341
f 329//329 340//340 493//493
f 332//332 346//346 342//342
f 344//344 354//354 325//325
f 346//346 345//345 344//344
f 346//346 344//344 330//330
f 353//353 350//350 361//361
f 353//353 361//361 351//351
f 363//363 351//351 361//361
f 363//363 361//361 350//350
f 348//348 372//372 349//349
f 352//352 371//371 327//327
f 357//357 356//356 326//326
f 350//350 349//349 372//372
f 350//350 372//372 363//363
f 357//357 257//257 358//358
f 327//327 485//485 352//352
f 339//339 485//485 327//327
f 330//330 344//344 325//325
f 329//329 338//338 328//328
f 323//323 364//364 352//352
f 346//346 358//358 331//331
f 490//490 341//341 342//342
f 357//357 326//326 257//257
f 356//356 360//360 347//347
f 356//356 347//347 326//326
f 323//323 351//351 365//365
f 352//352 364//364 371//371
f 360//360 372//372 348//348
f 360//360 348//348 347//347
f 323//323 365//365 364//364
f 345//345 346//346 331//331
f 333//333 346//346 332//332
f 339//339 355//355 485//485
f 338//338 329//329 355//355
f 490//490 342//342 346//346
f 330//330 490//490 346//346
f 330//330 343//343 490//490
f 343//343 330//330 325//325
f 353//353 351//351 324//324
f 342//342 341//341 336//336
f 355//355 339//339 338//338
f 338//338 327//327 371//371
f 338//338 371//371 362//362
f 339//339 327//327 338//338
f 358//358 333//333 357//357
f 358//358 346//346 333//333
f 377//377 369//369 336//336
f 340//340 329//329 328//328
f 337//337 335//335 336//336
f 332//332 335//335 337//337
f 332//332 337//337 334//334
f 377//377 328//328 362//362
f 359//359 356//356 357//357
f 359//359 357//357 333//333
f 334//334 366//366 367//367
f 366//366 334//334 337//337
f 366//366 337//337 369//369
f 377//377 340//340 328//328
f 359//359 360//360 356//356
f 337//337 336//336 369//369
f 340//340 377//377 336//336
f 335//335 342//342 336//336
f 333//333 334//334 367//367
f 333//333 367//367 359//359
f 378//378 371//371 364//364
f 378//378 364//364 395//395
f 371//371 378//378 368//368
f 368//368 375//375 373//373
f 366//366 369//369 373//373
f 373//373 375//375 374//374
f 363//363 372//372 392//392
f 376//376 360//360 374//374
f 368//368 398//398 375//375
f 375//375 376//376 374//374
f 364//364 365//365 394//394
f 364//364 394//394 395//395
f 369//369 377//377 368//368
f 369//369 368//368 373//373
f 370//370 360//360 376//376
f 365//365 363//363 380//380
f 359//359 367//367 374//374
f 359//359 374//374 360//360
f 367//367 366//366 373//373
f 367//367 373//373 374//374
f 372//372 370//370 392//392
f 368//368 377//377 362//362
f 368//368 362//362 371//371
f 363//363 365//365 351//351
f 360//360 370//370 372//372
f 368//368 378//378 398//398
f 390//390 387//387 388//388
f 386//386 391//391 388//388
f 386//386 410//410 391//391
f 394//394 382//382 384//384
f 395//395 384//384 379//379
f 400//400 399//399 385//385
f 385//385 386//386 387//387
f 385//385 387//387 379//379
f 399//399 410//410 386//386
f 399//399 386//386 385//385
f 394//394 365//365 380//380
f 375//375 387//387 376//376
f 389//389 396//396 390//390
f 389//389 390//390 391//391
f 397//397 389//389 393//393
f 393//393 363//363 392//392
f 387//387 375//375 398//398
f 390//390 396//396 376//376
f 392//392 370//370 397//397
f 376//376 396//396 370//370
f 387//387 378//378 379//379
f 378//378 387//387 398//398
f 397//397 393//393 392//392
f 393//393 389//389 381//381
f 363//363 393//393 380//380
f 393//393 381//381 380//380
f 400//400 383//383 381//381
f 385//385 383//383 400//400
f 385//385 384//384 383//383
f 379//379 384//384 385//385
f 394//394 384//384 395//395
f 383//383 384//384 382//382
f 380//380 382//382 394//394
f 383//383 382//382 380//380
f 383//383 380//380 381//381
f 410//410 409//409 389//389
f 410//410 389//389 391//391
f 389//389 409//409 381//381
f 388//388 387//387 386//386
f 387//387 390//390 376//376
f 391//391 390//390 388//388
f 396//396 397//397 370//370
f 389//389 397//397 396//396
f 378//378 395//395 379//379
f 778//778 776//776 403//403
f 405//405 410//410 399//399
f 412//412 400//400 381//381
f 409//409 410//410 408//408
f 405//405 408//408 410//410
f 399//399 400//400 412//412
f 406//406 776//776 777//777
f 412//412 403//403 406//406
f 778//778 403//403 411//411
f 407//407 404//404 402//402
f 411//411 407//407 778//778
f 409//409 411//411 381//381
f 404//404 401//401 402//402
f 407//407 405//405 404//404
f 381//381 411//411 412//412
f 411//411 403//403 412//412
f 401//401 404//404 406//406
f 401//401 406//406 777//777
f 405//405 412//412 406//406
f 405//405 406//406 404//404
f 778//778 407//407 402//402
f 407//407 411//411 409//409
f 407//407 409//409 408//408
f 403//403 776//776 406//406
f 412//412 405//405 399//399
f 405//405 407//407 408//408
f 417//417 413//413 414//414
f 781//781 415//415 416//416
f 781//781 783//783 414//414
f 781//781 414//414 415//415
f 413//413 417//417 782//782
f 782//782 416//416 413//413
f 415//415 413//413 416//416
f 414//414 413//413 415//415
f 416//416 782//782 779//779
f 779//779 781//781 416//416
f 417//417 414//414 783//783
f 444//444 428//428 443//443
f 442//442 323//323 444//444
f 432//432 447//447 443//443
f 432//432 443//443 428//428
f 423//423 422//422 421//421
f 419//419 318//318 433//433
f 423//423 420//420 442//442
f 431//431 447//447 432//432
f 431//431 430//430 447//447
f 429//429 425//425 426//426
f 429//429 426//426 424//424
f 427//427 419//419 433//433
f 419//419 446//446 418//418
f 418//418 430//430 429//429
f 292//292 419//419 418//418
f 418//418 429//429 424//424
f 418//418 424//424 292//292
f 422//422 423//423 441//441
f 422//422 441//441 427//427
f 446//446 430//430 418//418
f 429//429 430//430 431//431
f 429//429 431//431 425//425
f 419//419 427//427 446//446
f 432//432 294//294 304//304
f 432//432 304//304 431//431
f 427//427 433//433 422//422
f 304//304 425//425 431//431
f 446//446 427//427 441//441
f 444//444 443//443 434//434
f 438//438 434//434 447//447
f 449//449 451//451 448//448
f 437//437 436//436 442//442
f 434//434 437//437 444//444
f 450//450 435//435 436//436
f 451//451 437//437 434//434
f 436//436 435//435 442//442
f 445//445 435//435 454//454
f 464//464 462//462 454//454
f 454//454 439//439 445//445
f 439//439 449//449 448//448
f 448//448 440//440 439//439
f 441//441 435//435 445//445
f 442//442 444//444 437//437
f 441//441 423//423 435//435
f 423//423 442//442 435//435
f 440//440 438//438 430//430
f 440//440 430//430 446//446
f 430//430 438//438 447//447
f 451//451 434//434 448//448
f 447//447 434//434 443//443
f 456//456 450//450 451//451
f 435//435 450//450 454//454
f 450//450 437//437 451//451
f 450//450 436//436 437//437
f 449//449 439//439 462//462
f 438//438 440//440 448//448
f 441//441 445//445 440//440
f 441//441 440//440 446//446
f 439//439 440//440 445//445
f 448//448 434//434 438//438
f 454//454 462//462 439//439
f 789//789 785//785 453//453
f 451//451 449//449 460//460
f 455//455 454//454 450//450
f 460//460 456//456 451//451
f 454//454 455//455 464//464
f 450//450 456//456 455//455
f 464//464 463//463 462//462
f 459//459 789//789 453//453
f 460//460 455//455 456//456
f 457//457 784//784 458//458
f 457//457 785//785 784//784
f 453//453 457//457 460//460
f 453//453 785//785 457//457
f 457//457 464//464 455//455
f 464//464 457//457 458//458
f 788//788 459//459 463//463
f 453//453 460//460 461//461
f 458//458 463//463 464//464
f 462//462 461//461 449//449
f 455//455 460//460 457//457
f 459//459 788//788 789//789
f 788//788 463//463 458//458
f 453//453 461//461 459//459
f 461//461 462//462 463//463
f 461//461 463//463 459//459
f 449//449 461//461 460//460
f 452//452 788//788 458//458
f 458//458 784//784 452//452
f 468//468 467//467 787//787
f 790//790 465//465 786//786
f 466//466 790//790 791//791
f 468//468 786//786 465//465
f 466//466 791//791 467//467
f 790//790 466//466 465//465
f 465//465 466//466 468//468
f 468//468 466//466 467//467
f 495//495 485//485 489//489
f 471//471 495//495 518//518
f 471//471 469//469 495//495
f 518//518 495//495 475//475
f 473//473 517//517 508//508
f 473//473 508//508 474//474
f 517//517 473//473 488//488
f 483//483 472//472 307//307
f 481//481 472//472 482//482
f 478//478 479//479 469//469
f 478//478 477//477 476//476
f 480//480 482//482 522//522
f 477//477 478//478 483//483
f 479//479 476//476 484//484
f 481//481 307//307 472//472
f 469//469 470//470 478//478
f 482//482 480//480 481//481
f 478//478 476//476 479//479
f 479//479 484//484 495//495
f 486//486 522//522 523//523
f 522//522 486//486 480//480
f 485//485 495//495 484//484
f 483//483 470//470 472//472
f 483//483 478//478 470//470
f 479//479 495//495 469//469
f 341//341 506//506 488//488
f 341//341 488//488 491//491
f 329//329 493//493 487//487
f 506//506 341//341 490//490
f 491//491 492//492 493//493
f 494//494 329//329 487//487
f 489//489 355//355 329//329
f 489//489 329//329 494//494
f 487//487 493//493 492//492
f 493//493 341//341 491//491
f 506//506 490//490 343//343
f 355//355 489//489 485//485
f 488//488 473//473 491//491
f 473//473 492//492 491//491
f 473//473 474//474 487//487
f 473//473 487//487 492//492
f 474//474 494//494 487//487
f 474//474 508//508 494//494
f 508//508 489//489 494//494
f 508//508 475//475 489//489
f 475//475 495//495 489//489
f 343//343 486//486 523//523
f 541//541 544//544 501//501
f 544//544 504//504 501//501
f 524//524 503//503 482//482
f 521//521 559//559 510//510
f 516//516 523//523 496//496
f 501//501 514//514 511//511
f 560//560 496//496 551//551
f 498//498 525//525 499//499
f 544//544 542//542 504//504
f 501//501 504//504 514//514
f 497//497 541//541 501//501
f 516//516 496//496 560//560
f 497//497 501//501 511//511
f 551//551 496//496 500//500
f 518//518 502//502 471//471
f 470//470 469//469 505//505
f 502//502 504//504 469//469
f 502//502 469//469 471//471
f 469//469 504//504 505//505
f 505//505 482//482 472//472
f 470//470 505//505 472//472
f 496//496 499//499 500//500
f 514//514 502//502 518//518
f 482//482 505//505 542//542
f 542//542 505//505 504//504
f 502//502 514//514 504//504
f 499//499 503//503 498//498
f 542//542 524//524 482//482
f 498//498 503//503 524//524
f 522//522 482//482 503//503
f 522//522 503//503 499//499
f 499//499 496//496 522//522
f 522//522 496//496 523//523
f 589//589 590//590 512//512
f 590//590 591//591 519//519
f 590//590 519//519 507//507
f 513//513 519//519 591//591
f 507//507 512//512 590//590
f 514//514 515//515 511//511
f 560//560 509//509 516//516
f 515//515 510//510 582//582
f 511//511 515//515 582//582
f 510//510 515//515 517//517
f 512//512 509//509 560//560
f 512//512 560//560 589//589
f 507//507 519//519 506//506
f 518//518 475//475 520//520
f 520//520 475//475 508//508
f 508//508 517//517 520//520
f 512//512 507//507 509//509
f 518//518 520//520 514//514
f 519//519 513//513 506//506
f 506//506 521//521 488//488
f 515//515 514//514 520//520
f 517//517 521//521 510//510
f 521//521 517//517 488//488
f 521//521 513//513 559//559
f 521//521 506//506 513//513
f 517//517 515//515 520//520
f 523//523 516//516 509//509
f 343//343 507//507 506//506
f 343//343 509//509 507//507
f 523//523 509//509 343//343
f 528//528 552//552 536//536
f 544//544 538//538 542//542
f 558//558 545//545 548//548
f 547//547 554//554 555//555
f 578//578 667//667 580//580
f 670//670 574//574 669//669
f 573//573 585//585 572//572
f 566//566 598//598 670//670
f 587//587 545//545 497//497
f 574//574 570//570 547//547
f 628//628 529//529 528//528
f 528//528 529//529 540//540
f 528//528 540//540 552//552
f 529//529 550//550 549//549
f 530//530 527//527 526//526
f 530//530 529//529 628//628
f 530//530 550//550 529//529
f 593//593 550//550 530//530
f 535//535 553//553 525//525
f 532//532 535//535 536//536
f 535//535 532//532 553//553
f 552//552 532//532 536//536
f 552//552 553//553 532//532
f 540//540 549//549 539//539
f 537//537 535//535 525//525
f 500//500 553//553 552//552
f 500//500 499//499 553//553
f 499//499 525//525 553//553
f 498//498 524//524 543//543
f 560//560 551//551 539//539
f 551//551 540//540 539//539
f 540//540 551//551 552//552
f 525//525 498//498 537//537
f 543//543 537//537 498//498
f 550//550 593//593 583//583
f 549//549 550//550 583//583
f 549//549 583//583 595//595
f 549//549 595//595 539//539
f 560//560 539//539 595//595
f 552//552 551//551 500//500
f 540//540 529//529 549//549
f 531//531 555//555 627//627
f 625//625 624//624 538//538
f 534//534 533//533 629//629
f 533//533 557//557 629//629
f 557//557 531//531 629//629
f 557//557 555//555 531//531
f 625//625 538//538 544//544
f 538//538 624//624 543//543
f 544//544 546//546 625//625
f 546//546 534//534 625//625
f 556//556 548//548 547//547
f 556//556 555//555 557//557
f 524//524 542//542 543//543
f 543//543 542//542 538//538
f 544//544 541//541 546//546
f 545//545 546//546 541//541
f 545//545 541//541 497//497
f 558//558 546//546 545//545
f 558//558 533//533 546//546
f 533//533 534//534 546//546
f 608//608 627//627 554//554
f 547//547 555//555 556//556
f 556//556 558//558 548//548
f 556//556 557//557 558//558
f 557//557 533//533 558//558
f 555//555 554//554 627//627
f 562//562 564//564 563//563
f 575//575 565//565 666//666
f 675//675 578//578 666//666
f 563//563 564//564 561//561
f 563//563 561//561 598//598
f 563//563 598//598 566//566
f 596//596 561//561 564//564
f 596//596 564//564 597//597
f 567//567 575//575 571//571
f 567//567 565//565 575//575
f 567//567 562//562 565//565
f 588//588 576//576 568//568
f 588//588 568//568 571//571
f 571//571 568//568 567//567
f 576//576 569//569 568//568
f 559//559 578//578 580//580
f 563//563 672//672 562//562
f 569//569 597//597 564//564
f 593//593 569//569 583//583
f 593//593 597//597 569//569
f 560//560 588//588 589//589
f 578//578 559//559 513//513
f 588//588 571//571 589//589
f 571//571 590//590 589//589
f 571//571 575//575 590//590
f 575//575 666//666 590//590
f 666//666 591//591 590//590
f 666//666 578//578 591//591
f 576//576 583//583 569//569
f 513//513 591//591 578//578
f 576//576 595//595 583//583
f 595//595 576//576 588//588
f 595//595 588//588 560//560
f 569//569 564//564 568//568
f 562//562 568//568 564//564
f 567//567 568//568 562//562
f 670//670 598//598 570//570
f 577//577 572//572 584//584
f 572//572 585//585 584//584
f 572//572 669//669 573//573
f 669//669 574//574 573//573
f 570//570 574//574 670//670
f 586//586 579//579 580//580
f 580//580 581//581 586//586
f 577//577 584//584 581//581
f 586//586 581//581 584//584
f 580//580 667//667 581//581
f 566//566 670//670 668//668
f 584//584 585//585 586//586
f 587//587 582//582 586//586
f 497//497 511//511 592//592
f 582//582 592//592 511//511
f 547//547 548//548 594//594
f 579//579 510//510 559//559
f 586//586 582//582 510//510
f 580//580 579//579 559//559
f 586//586 510//510 579//579
f 587//587 592//592 582//582
f 587//587 586//586 585//585
f 585//585 594//594 548//548
f 587//587 548//548 545//545
f 587//587 585//585 548//548
f 594//594 573//573 574//574
f 594//594 574//574 547//547
f 587//587 497//497 592//592
f 585//585 573//573 594//594
f 530//530 526//526 593//593
f 527//527 618//618 526//526
f 627//627 608//608 618//618
f 618//618 527//527 627//627
f 561//561 596//596 598//598
f 608//608 554//554 605//605
f 601//601 570//570 598//598
f 601//601 605//605 570//570
f 598//598 596//596 601//601
f 554//554 547//547 605//605
f 605//605 547//547 570//570
f 620//620 619//619 618//618
f 599//599 611//611 622//622
f 606//606 596//596 612//612
f 600//600 609//609 604//604
f 604//604 609//609 602//602
f 604//604 602//602 603//603
f 616//616 604//604 603//603
f 616//616 603//603 615//615
f 601//601 606//606 602//602
f 606//606 603//603 602//602
f 607//607 603//603 606//606
f 612//612 596//596 597//597
f 607//607 606//606 612//612
f 597//597 593//593 612//612
f 613//613 608//608 605//605
f 601//601 609//609 605//605
f 602//602 609//609 601//601
f 610//610 600//600 622//622
f 604//604 621//621 600//600
f 609//609 600//600 610//610
f 596//596 606//606 601//601
f 600//600 621//621 622//622
f 605//605 609//609 610//610
f 613//613 605//605 610//610
f 622//622 613//613 610//610
f 611//611 599//599 622//622
f 619//619 617//617 618//618
f 615//615 614//614 617//617
f 616//616 615//615 617//617
f 607//607 614//614 615//615
f 603//603 607//607 615//615
f 604//604 616//616 617//617
f 617//617 621//621 604//604
f 613//613 620//620 608//608
f 608//608 620//620 618//618
f 618//618 617//617 614//614
f 618//618 614//614 612//612
f 526//526 618//618 612//612
f 593//593 526//526 612//612
f 612//612 614//614 607//607
f 619//619 622//622 621//621
f 621//621 617//617 619//619
f 620//620 622//622 619//619
f 622//622 620//620 613//613
f 623//623 625//625 534//534
f 531//531 623//623 629//629
f 535//535 528//528 536//536
f 624//624 623//623 645//645
f 528//528 642//642 643//643
f 535//535 642//642 528//528
f 535//535 537//537 642//642
f 626//626 627//627 527//527
f 531//531 627//627 626//626
f 638//638 623//623 531//531
f 628//628 639//639 626//626
f 626//626 527//527 628//628
f 624//624 645//645 642//642
f 527//527 530//530 628//628
f 646//646 643//643 637//637
f 628//628 528//528 639//639
f 531//531 626//626 638//638
f 642//642 537//537 624//624
f 624//624 625//625 623//623
f 534//534 629//629 623//623
f 543//543 624//624 537//537
f 528//528 643//643 646//646
f 646//646 639//639 528//528
f 638//638 626//626 639//639
f 640//640 631//631 632//632
f 630//630 637//637 643//643
f 634//634 633//633 635//635
f 635//635 636//636 644//644
f 630//630 636//636 657//657
f 643//643 636//636 630//630
f 641//641 638//638 634//634
f 644//644 641//641 634//634
f 644//644 634//634 635//635
f 633//633 634//634 638//638
f 640//640 632//632 647//647
f 630//630 631//631 637//637
f 633//633 639//639 640//640
f 633//633 638//638 639//639
f 644//644 636//636 645//645
f 630//630 632//632 631//631
f 643//643 645//645 636//636
f 623//623 644//644 645//645
f 638//638 641//641 623//623
f 645//645 643//643 642//642
f 641//641 644//644 623//623
f 646//646 640//640 639//639
f 631//631 640//640 646//646
f 637//637 631//631 646//646
f 640//640 647//647 633//633
f 633//633 653//653 635//635
f 636//636 635//635 656//656
f 633//633 647//647 652//652
f 648//648 663//663 651//651
f 653//653 652//652 651//651
f 654//654 659//659 656//656
f 655//655 657//657 636//636
f 654//654 653//653 651//651
f 635//635 653//653 656//656
f 656//656 653//653 654//654
f 636//636 656//656 655//655
f 655//655 656//656 659//659
f 633//633 652//652 653//653
f 652//652 647//647 648//648
f 652//652 648//648 651//651
f 657//657 655//655 650//650
f 650//650 655//655 659//659
f 630//630 657//657 658//658
f 658//658 657//657 650//650
f 632//632 630//630 658//658
f 632//632 658//658 649//649
f 649//649 658//658 650//650
f 632//632 649//649 647//647
f 647//647 649//649 648//648
f 648//648 649//649 650//650
f 651//651 663//663 662//662
f 662//662 654//654 651//651
f 659//659 665//665 648//648
f 665//665 659//659 664//664
f 659//659 661//661 664//664
f 663//663 664//664 662//662
f 665//665 663//663 648//648
f 648//648 650//650 659//659
f 659//659 654//654 660//660
f 662//662 660//660 654//654
f 660//660 662//662 661//661
f 660//660 661//661 659//659
f 661//661 662//662 664//664
f 664//664 663//663 665//665
f 673//673 668//668 674//674
f 566//566 668//668 563//563
f 669//669 668//668 670//670
f 672//672 563//563 671//671
f 668//668 673//673 563//563
f 675//675 688//688 667//667
f 674//674 669//669 577//577
f 577//577 581//581 674//674
f 688//688 674//674 581//581
f 672//672 675//675 562//562
f 565//565 562//562 675//675
f 675//675 672//672 671//671
f 671//671 563//563 673//673
f 669//669 674//674 668//668
f 578//578 675//675 667//667
f 669//669 572//572 577//577
f 666//666 565//565 675//675
f 581//581 667//667 688//688
f 685//685 671//671 673//673
f 697//697 676//676 696//696
f 682//682 673//673 684//684
f 674//674 684//684 673//673
f 676//676 681//681 696//696
f 696//696 678//678 686//686
f 686//686 689//689 696//696
f 679//679 689//689 680//680
f 677//677 679//679 683//683
f 679//679 680//680 684//684
f 679//679 684//684 687//687
f 685//685 680//680 689//689
f 697//697 677//677 676//676
f 682//682 680//680 685//685
f 683//683 676//676 677//677
f 682//682 684//684 680//680
f 687//687 683//683 679//679
f 686//686 685//685 689//689
f 678//678 696//696 681//681
f 676//676 688//688 675//675
f 671//671 685//685 686//686
f 688//688 687//687 674//674
f 676//676 683//683 688//688
f 685//685 673//673 682//682
f 674//674 687//687 684//684
f 687//687 688//688 683//683
f 676//676 675//675 681//681
f 675//675 671//671 678//678
f 675//675 678//678 681//681
f 678//678 671//671 686//686
f 690//690 696//696 689//689
f 698//698 697//697 696//696
f 697//697 695//695 677//677
f 695//695 694//694 677//677
f 694//694 679//679 677//677
f 694//694 693//693 679//679
f 692//692 689//689 693//693
f 679//679 693//693 689//689
f 699//699 693//693 694//694
f 699//699 694//694 695//695
f 699//699 700//700 693//693
f 700//700 692//692 693//693
f 689//689 692//692 690//690
f 691//691 692//692 700//700
f 701//701 699//699 695//695
f 698//698 695//695 697//697
f 701//701 695//695 698//698
f 691//691 701//701 698//698
f 690//690 698//698 696//696
f 691//691 698//698 690//690
f 691//691 690//690 692//692
f 705//705 700//700 703//703
f 701//701 691//691 706//706
f 704//704 699//699 701//701
f 691//691 700//700 705//705
f 702//702 704//704 703//703
f 704//704 701//701 706//706
f 702//702 703//703 700//700
f 691//691 705//705 706//706
f 700//700 699//699 702//702
f 702//702 699//699 704//704
f 704//704 705//705 703//703
f 706//706 705//705 704//704
f 720//720 712//712 719//719
f 724//724 720//720 718//718
f 717//717 711//711 716//716
f 717//717 716//716 708//708
f 710//710 716//716 711//711
f 710//710 718//718 716//716
f 708//708 716//716 718//718
f 714//714 109//109 108//108
f 713//713 709//709 109//109
f 710//710 707//707 718//718
f 719//719 715//715 720//720
f 711//711 111//111 710//710
f 710//710 709//709 707//707
f 724//724 718//718 707//707
f 720//720 715//715 718//718
f 708//708 718//718 715//715
f 719//719 714//714 715//715
f 714//714 717//717 715//715
f 707//707 719//719 712//712
f 714//714 719//719 713//713
f 713//713 719//719 709//709
f 707//707 709//709 719//719
f 714//714 108//108 717//717
f 714//714 713//713 109//109
f 715//715 717//717 708//708
f 721//721 723//723 132//132
f 720//720 724//724 723//723
f 723//723 724//724 725//725
f 712//712 720//720 721//721
f 707//707 712//712 724//724
f 712//712 721//721 722//722
f 712//712 722//722 724//724
f 720//720 723//723 721//721
f 722//722 725//725 724//724
f 725//725 722//722 131//131
f 722//722 721//721 132//132
f 744//744 727//727 742//742
f 737//737 735//735 166//166
f 729//729 733//733 728//728
f 727//727 731//731 740//740
f 726//726 739//739 730//730
f 729//729 736//736 733//733
f 738//738 726//726 735//735
f 729//729 730//730 731//731
f 734//734 738//738 744//744
f 738//738 739//739 726//726
f 736//736 735//735 737//737
f 166//166 735//735 726//726
f 730//730 739//739 731//731
f 739//739 740//740 731//731
f 732//732 736//736 729//729
f 733//733 736//736 737//737
f 744//744 732//732 727//727
f 727//727 732//732 731//731
f 731//731 732//732 729//729
f 729//729 728//728 730//730
f 739//739 734//734 740//740
f 734//734 739//739 738//738
f 744//744 738//738 732//732
f 732//732 735//735 736//736
f 738//738 735//735 732//732
f 191//191 741//741 743//743
f 742//742 190//190 192//192
f 744//744 743//743 734//734
f 742//742 743//743 744//744
f 740//740 741//741 727//727
f 743//743 741//741 740//740
f 741//741 190//190 742//742
f 734//734 743//743 740//740
f 741//741 742//742 727//727
f 743//743 742//742 192//192
f 746//746 761//761 748//748
f 765//765 761//761 746//746
f 759//759 763//763 745//745
f 759//759 747//747 764//764
f 207//207 745//745 763//763
f 202//202 746//746 748//748
f 748//748 747//747 202//202
f 751//751 774//774 754//754
f 755//755 769//769 752//752
f 775//775 752//752 769//769
f 750//750 766//766 768//768
f 751//751 750//750 768//768
f 774//774 773//773 754//754
f 754//754 773//773 755//755
f 754//754 755//755 757//757
f 209//209 751//751 754//754
f 753//753 766//766 756//756
f 207//207 753//753 756//756
f 206//206 752//752 775//775
f 755//755 752//752 757//757
f 750//750 756//756 766//766
f 775//775 772//772 206//206
f 758//758 759//759 760//760
f 760//760 759//759 764//764
f 748//748 764//764 747//747
f 759//759 758//758 763//763
f 207//207 763//763 762//762
f 758//758 762//762 763//763
f 766//766 767//767 768//768
f 767//767 751//751 768//768
f 769//769 755//755 771//771
f 766//766 753//753 770//770
f 753//753 207//207 762//762
f 774//774 751//751 767//767
f 771//771 755//755 773//773
f 766//766 770//770 767//767
f 770//770 753//753 762//762
f 220//220 774//774 767//767
f 771//771 773//773 774//774
f 417//417 780//780 782//782
f 782//782 780//780 402//402
f 777//777 781//781 779//779
f 781//781 776//776 780//780
f 401//401 782//782 402//402
f 776//776 778//778 780//780
f 781//781 777//777 776//776
f 401//401 779//779 782//782
f 780//780 778//778 402//402
f 401//401 777//777 779//779
f 780//780 783//783 781//781
f 780//780 417//417 783//783
f 791//791 787//787 467//467
f 785//785 791//791 786//786
f 452//452 784//784 786//786
f 785//785 789//789 787//787
f 785//785 787//787 791//791
f 452//452 468//468 787//787
f 452//452 787//787 788//788
f 788//788 787//787 789//789
f 786//786 784//784 785//785
f 452//452 786//786 468//468
f 791//791 790//790 786//786
# 1576 faces, 0 coords texture

# End of File
