####
#
# OBJ File Generated by Meshlab
#
####
# Object centaur3.obj
#
# Vertices: 790
# Faces: 1576
#
####
vn -0.097171 0.116631 0.988410
v 0.005326 0.357220 0.296237
vn -0.463097 -0.272317 0.843436
v -0.023638 0.287956 0.274748
vn 0.778946 0.486097 0.396173
v 0.029840 0.468462 0.224420
vn -0.220495 -0.928959 0.297350
v 0.012281 0.120559 0.051741
vn -0.599533 -0.761452 0.246478
v -0.042637 0.144317 0.030607
vn -0.832655 -0.448395 0.325005
v -0.073684 0.159730 -0.014068
vn -0.306336 0.914437 -0.264506
v -0.008872 0.409422 -0.145995
vn -0.764812 0.632455 -0.122731
v -0.061236 0.378011 -0.123578
vn -0.583852 0.791970 -0.178607
v -0.039487 0.398733 -0.136084
vn -0.872579 0.482883 -0.073688
v -0.086582 0.360150 -0.085678
vn -0.982822 0.182400 -0.028143
v -0.087115 0.344543 -0.027717
vn -0.317504 -0.069013 0.945742
v -0.026531 0.355697 0.294202
vn -0.658965 -0.366813 0.656669
v -0.066418 0.247166 0.220213
vn -0.866647 -0.337641 0.367316
v -0.100300 0.281570 0.189542
vn -0.403240 -0.589674 0.699773
v 0.003126 0.221142 0.254178
vn -0.641146 -0.526527 0.558303
v -0.057810 0.224565 0.215034
vn -0.113295 -0.787202 0.606199
v 0.031992 0.191278 0.232908
vn -0.394597 -0.757739 0.519736
v -0.019801 0.169522 0.181270
vn -0.441980 -0.858406 0.260369
v -0.019797 0.145996 0.136255
vn -0.194169 -0.903029 0.383194
v 0.009517 0.138966 0.144725
vn -0.719341 -0.591476 0.364285
v -0.068571 0.194443 0.161428
vn -0.895232 -0.381785 0.229783
v -0.098490 0.239063 0.136674
vn -0.752375 -0.645013 0.133753
v -0.076125 0.167749 0.082933
vn -0.887611 -0.456937 -0.057932
v -0.088325 0.187879 0.040704
vn -0.932710 -0.355215 0.062237
v -0.102098 0.213983 0.073663
vn -0.970102 -0.164457 -0.178482
v -0.115404 0.267182 0.054496
vn -0.979307 -0.177689 0.096874
v -0.122357 0.315233 0.139819
vn -0.032402 0.963950 -0.264104
v 0.043507 0.416378 -0.154026
vn -0.715749 0.566535 -0.408341
v -0.080169 0.381792 -0.033857
vn -0.574072 0.690109 -0.440670
v -0.066035 0.381030 -0.043993
vn -0.661355 0.672873 -0.331439
v -0.050725 0.397852 -0.051390
vn -0.638796 0.750079 -0.171235
v -0.074171 0.360100 -0.112657
vn -0.943577 0.030182 -0.329775
v -0.106052 0.314885 0.016937
vn -0.660517 -0.206726 0.721790
v -0.068411 0.351293 0.265253
vn -0.946424 -0.251177 0.202955
v -0.087842 0.194501 -0.021670
vn -0.996705 0.077116 -0.025144
v -0.098848 0.278462 -0.035994
vn -0.980466 -0.174109 -0.091502
v -0.099556 0.242447 0.021593
vn 0.149788 -0.905750 0.396460
v 0.075129 0.119642 0.055319
vn 0.091998 -0.915525 0.391601
v 0.061435 0.140887 0.160776
vn 0.030826 0.269586 0.962483
v 0.050774 0.328313 0.306061
vn 0.110281 0.525520 0.843604
v 0.047247 0.385850 0.272081
vn -0.411611 0.336936 0.846789
v 0.090096 0.409590 0.281929
vn -0.718221 0.437984 0.540675
v 0.063270 0.449136 0.240290
vn -0.000920 0.929506 -0.368806
v 0.101849 0.431100 -0.024980
vn 0.965661 -0.116242 0.232352
v 0.197173 0.223330 -0.050399
vn 0.703934 -0.706208 0.075819
v 0.158029 0.158177 0.030928
vn 0.243444 0.938319 -0.245544
v 0.097723 0.411447 -0.147582
vn 0.772575 0.618334 -0.144190
v 0.158817 0.376186 -0.126361
vn 0.547937 0.801574 -0.239259
v 0.137092 0.397301 -0.138273
vn 0.964805 0.262795 0.009488
v 0.194238 0.323416 -0.096508
vn 0.668307 0.708757 -0.225896
v 0.185194 0.354238 -0.105032
vn 0.881288 -0.360345 0.305750
v 0.180369 0.165641 -0.029424
vn 0.476032 -0.830717 0.288623
v 0.107099 0.126688 0.042544
vn 0.423644 0.872906 -0.241993
v 0.130780 0.413866 -0.061405
vn 0.782832 0.585311 -0.211150
v 0.148930 0.396694 -0.051192
vn 0.788481 0.487005 -0.375664
v 0.177899 0.384271 -0.033401
vn 0.999963 -0.001126 -0.008555
v 0.197817 0.268392 -0.040661
vn 0.535439 -0.365716 0.761286
v 0.123869 0.252100 0.257324
vn 0.870414 -0.329077 0.366180
v 0.196582 0.277668 0.189480
vn 0.813003 -0.210714 0.542794
v 0.193658 0.328059 0.223928
vn 0.695800 -0.460810 0.550923
v 0.162368 0.229799 0.209694
vn 0.486596 -0.623304 0.612141
v 0.142270 0.210539 0.211036
vn 0.256624 -0.776650 0.575291
v 0.094178 0.165699 0.191207
vn 0.506240 -0.756602 0.413854
v 0.133601 0.166012 0.161620
vn 0.928658 -0.366432 0.057629
v 0.196953 0.206668 0.068021
vn 0.840870 -0.463160 0.280038
v 0.177409 0.202891 0.146285
vn 0.654481 -0.738598 0.161639
v 0.166942 0.164220 0.092591
vn 0.840082 -0.518919 -0.158065
v 0.185923 0.179887 0.046974
vn 0.987844 -0.113377 -0.106349
v 0.216877 0.297930 0.067281
vn 0.944080 -0.289201 0.158355
v 0.206563 0.272950 0.144353
vn 0.970263 -0.241994 0.005350
v 0.209898 0.251895 0.061836
vn 0.990291 -0.128663 0.052621
v 0.219563 0.315768 0.140256
vn 0.253617 -0.939654 0.229629
v 0.101012 0.135776 0.122109
vn -0.496324 0.704832 0.506827
v 0.050356 0.438412 0.218844
vn -0.027971 0.985737 0.165951
v 0.049112 0.481035 0.128230
vn 0.018542 0.980960 -0.193322
v 0.046382 0.430950 -0.050408
vn 0.495350 0.705929 -0.506253
v 0.161246 0.382672 -0.042642
vn 0.694632 0.695490 -0.183792
v 0.171736 0.358034 -0.115801
vn 0.646810 -0.243753 0.722649
v 0.160585 0.351515 0.272021
vn 0.933839 -0.352255 -0.062133
v 0.181130 0.197005 0.016900
vn 0.950495 -0.236583 -0.201462
v 0.197371 0.233891 0.021773
vn 0.981768 0.184050 -0.047502
v 0.189141 0.321494 -0.030107
vn -0.495588 0.819806 0.286900
v 0.080223 0.522474 0.184819
vn -0.477770 0.871919 -0.107210
v 0.080567 0.526174 0.134677
vn 0.090227 0.919295 -0.383088
v 0.048903 0.472494 0.065612
vn -0.026567 0.914145 -0.404516
v 0.058419 0.436684 -0.003044
vn -0.013991 0.796627 -0.604310
v 0.126017 0.425350 -0.024936
vn 0.851227 0.139411 -0.505942
v 0.179911 0.437625 0.014013
vn 0.856038 0.030562 -0.516009
v 0.206596 0.421452 0.041095
vn 0.953503 0.022897 -0.300514
v 0.206310 0.307522 0.019817
vn 0.984935 0.005537 -0.172835
v 0.215873 0.369833 0.063807
vn -0.177054 0.588081 0.789185
v 0.103443 0.474975 0.266141
vn 0.011925 0.106459 0.994246
v 0.102774 0.361108 0.295764
vn -0.025949 0.243162 0.969638
v 0.116594 0.430474 0.290226
vn 0.355706 -0.093654 0.929894
v 0.130310 0.355507 0.292542
vn 0.996150 0.050689 0.071530
v 0.224504 0.423870 0.152903
vn 0.911460 0.194707 0.362395
v 0.216664 0.443205 0.185466
vn 0.891074 -0.025756 0.453127
v 0.205603 0.396376 0.219818
vn 0.947386 -0.141052 0.287341
v 0.215880 0.340221 0.184556
vn 0.172601 0.627263 -0.759440
v 0.141090 0.435788 -0.017415
vn 0.887615 0.157808 -0.432709
v 0.185805 0.399995 0.015769
vn 0.648104 0.183110 0.739210
v 0.172665 0.421308 0.272447
vn 0.413881 0.398245 -0.818598
v 0.157857 0.423154 -0.021300
vn -0.903296 0.375670 -0.207191
v 0.100289 0.581631 0.211652
vn -0.037712 0.695982 -0.717068
v 0.130185 0.634161 0.253121
vn -0.724282 -0.305040 0.618357
v 0.121618 0.534603 0.257419
vn -0.928140 -0.299175 0.221475
v 0.112604 0.599524 0.282476
vn -0.998795 -0.038066 -0.030979
v 0.103199 0.617404 0.276512
vn -0.705517 -0.325417 0.629564
v 0.114725 0.606611 0.334955
vn 0.964112 0.264205 0.026163
v 0.161695 0.631278 0.285136
vn 0.934740 0.344941 0.085305
v 0.178439 0.591637 0.246289
vn 0.676529 0.727408 -0.114836
v 0.175200 0.600745 0.191804
vn 0.647274 -0.438906 0.623215
v 0.170580 0.549502 0.259802
vn 0.292629 -0.469018 0.833301
v 0.155063 0.515733 0.241702
vn -0.393761 0.714238 -0.578633
v 0.146363 0.537323 0.053589
vn -0.167231 0.587333 -0.791880
v 0.146180 0.497014 0.012341
vn -0.207158 0.868608 -0.450117
v 0.149375 0.588468 0.120106
vn -0.371988 0.611287 -0.698537
v 0.124172 0.479237 0.012606
vn -0.577745 0.789915 0.205536
v 0.097195 0.512314 0.198897
vn -0.540415 0.552250 0.634801
v 0.084434 0.507639 0.212665
vn -0.734124 0.601523 -0.315011
v 0.128037 0.558048 0.109599
vn -0.619361 0.779013 -0.097622
v 0.100768 0.532979 0.134402
vn -0.962179 0.267659 -0.050698
v 0.100355 0.538639 0.169930
vn -0.972859 -0.040667 0.227797
v 0.103424 0.531206 0.204406
vn -0.459015 0.721092 -0.518973
v 0.100905 0.445377 0.002310
vn -0.408651 0.773504 -0.484453
v 0.073478 0.486692 0.069173
vn -0.487824 0.783486 -0.384939
v 0.091449 0.521809 0.099630
vn -0.582778 0.679295 -0.446014
v 0.104248 0.519386 0.078636
vn 0.588851 0.395482 0.704875
v 0.167090 0.474487 0.237284
vn 0.932652 0.050955 0.357161
v 0.195685 0.518998 0.175138
vn 0.938007 0.207209 0.277861
v 0.208747 0.493213 0.158575
vn 0.639077 0.726001 -0.253975
v 0.182432 0.569995 0.101055
vn 0.929096 0.365521 0.056358
v 0.192555 0.558941 0.152658
vn 0.927831 0.193911 -0.318634
v 0.213653 0.492705 0.052336
vn 0.865861 0.447431 -0.223807
v 0.210714 0.527992 0.082577
vn 0.967382 0.235530 0.093260
v 0.215274 0.512382 0.115117
vn 0.993187 0.080374 -0.084373
v 0.219464 0.488088 0.081770
vn 0.325524 0.723953 -0.608216
v 0.189207 0.541634 0.056137
vn 0.654782 0.286463 -0.699428
v 0.188278 0.497239 0.019852
vn -0.037426 0.879227 -0.474931
v 0.080117 0.999692 0.274056
vn 0.416070 -0.201342 0.886762
v 0.106352 0.923209 0.311921
vn 0.756212 0.546383 0.360013
v 0.115807 0.981253 0.288036
vn 0.286333 -0.515850 0.807410
v 0.095494 0.893176 0.282305
vn -0.798414 0.408849 0.442015
v 0.032942 0.969203 0.282451
vn -0.569947 -0.623878 0.534730
v 0.050463 0.909445 0.304019
vn -0.503190 0.224640 -0.834468
v 0.063154 0.937912 0.231545
vn -0.923685 -0.339528 -0.177557
v 0.050215 0.920049 0.252560
vn -0.656533 0.430454 0.619414
v -0.078207 0.462543 0.248427
vn -0.224332 0.942558 -0.247507
v 0.002915 0.432063 -0.027082
vn -0.184988 0.792741 -0.580811
v -0.029579 0.421821 -0.027970
vn -0.067135 0.515297 -0.854378
v -0.044462 0.432751 -0.019015
vn -0.635230 0.286531 -0.717205
v -0.075718 0.422917 -0.006863
vn -0.807670 -0.032325 -0.588748
v -0.089155 0.431884 0.015521
vn -0.851373 0.035496 -0.523358
v -0.106072 0.390396 0.032775
vn -0.977861 -0.002651 -0.209238
v -0.118069 0.329294 0.057263
vn 0.369348 0.677413 0.636155
v -0.000382 0.484558 0.248753
vn -0.157986 0.664606 0.730301
v -0.030298 0.480614 0.256965
vn 0.045552 0.347369 0.936621
v -0.017814 0.440010 0.283721
vn -0.987068 0.132552 0.090145
v -0.123064 0.491656 0.104023
vn -0.900661 0.128461 0.415099
v -0.109979 0.428983 0.206722
vn -0.973078 -0.016204 -0.229904
v -0.116850 0.390326 0.056294
vn -0.999872 0.004504 0.015357
v -0.126933 0.428554 0.140575
vn -0.842301 -0.153884 0.516574
v -0.102173 0.343547 0.219367
vn -0.954879 -0.105565 0.277602
v -0.117561 0.333649 0.182385
vn -0.957908 0.143821 0.248451
v -0.122841 0.430392 0.170561
vn -0.879670 0.100358 -0.464876
v -0.078986 0.423927 -0.000286
vn -0.886152 0.145591 -0.439929
v -0.091636 0.374396 0.012442
vn -0.616605 0.151224 0.772612
v -0.074693 0.423876 0.267694
vn -0.534500 0.460655 -0.708595
v -0.062842 0.409557 -0.025408
vn 0.762440 0.533437 0.366239
v -0.013657 0.533875 0.182602
vn 0.654598 -0.211163 0.725887
v -0.037947 0.555666 0.231339
vn 0.727318 0.674211 -0.128249
v -0.006460 0.533516 0.136997
vn 0.646623 0.574013 -0.502382
v -0.040571 0.551610 0.072868
vn 0.993046 0.106627 -0.049913
v -0.026592 0.655379 0.231337
vn 0.534997 -0.298957 0.790191
v -0.041844 0.644007 0.285961
vn 0.502075 0.730225 -0.463348
v -0.050517 0.612218 0.133228
vn -0.198146 0.403087 -0.893454
v -0.060184 0.661648 0.208480
vn -0.876912 -0.136817 0.460768
v -0.070612 0.632713 0.250728
vn -0.659700 0.126830 0.740749
v -0.061923 0.669097 0.295809
vn -0.943774 0.328823 -0.034148
v -0.096498 0.617580 0.185318
vn -0.619776 0.673555 -0.402742
v -0.084546 0.593610 0.111503
vn -0.976499 0.214161 0.024191
v -0.105560 0.556101 0.134171
vn -0.895256 -0.113894 0.430748
v -0.092162 0.575002 0.220388
vn 0.233831 0.545723 0.804680
v -0.023372 0.502274 0.217792
vn 0.098575 0.633167 -0.767713
v -0.058859 0.524571 0.034282
vn -0.165354 0.414751 -0.894785
v -0.062939 0.481014 0.001039
vn 0.206317 0.564228 -0.799425
v -0.051854 0.485993 0.004116
vn 0.112901 0.744916 -0.657535
v -0.069604 0.581547 0.082370
vn 0.334741 0.567170 -0.752507
v -0.041143 0.489329 0.010522
vn 0.493293 0.638893 -0.590320
v -0.036646 0.524034 0.048107
vn 0.785753 0.559876 -0.262929
v -0.018376 0.552160 0.120778
vn 0.616355 0.733699 0.285993
v 0.017404 0.522484 0.176206
vn 0.457478 0.862404 -0.216735
v 0.012285 0.529183 0.117737
vn 0.173449 0.822834 -0.541164
v -0.001761 0.445309 0.003015
vn 0.378133 0.759320 -0.529574
v 0.015946 0.463614 0.033957
vn 0.550798 0.699970 -0.454603
v 0.003941 0.513781 0.077839
vn -0.469189 -0.330586 0.818886
v -0.068956 0.552046 0.227872
vn -0.552545 0.419842 0.720019
v -0.070531 0.498549 0.220423
vn -0.920409 -0.012477 0.390759
v -0.103636 0.525220 0.156447
vn -0.869132 0.297832 0.394850
v -0.095614 0.496332 0.183201
vn -0.543407 0.538058 -0.644362
v -0.095601 0.528666 0.039821
vn -0.910677 0.353050 -0.214529
v -0.114651 0.516277 0.065630
vn -0.903266 0.088182 -0.419923
v -0.119293 0.479879 0.046665
vn -0.753024 0.094552 -0.651164
v -0.099201 0.482519 0.017328
vn -0.410845 0.332979 -0.848723
v -0.078339 0.477430 0.000738
vn 0.760471 0.590559 0.270044
v 0.017054 0.977298 0.160745
vn 0.930239 -0.331947 -0.156417
v 0.012879 0.927784 0.126987
vn -0.163749 0.976264 -0.141755
v -0.040374 1.002754 0.147653
vn -0.900317 0.424544 0.095878
v -0.066813 0.983690 0.156725
vn -0.492978 -0.034021 0.869377
v -0.056673 0.927320 0.187883
vn 0.248402 -0.802676 0.542225
v 0.053912 0.256995 0.307545
vn -0.193981 -0.862861 0.466736
v 0.028970 0.309043 0.472932
vn -0.978557 -0.109358 -0.174550
v 0.021589 0.280052 0.369111
vn -0.685452 -0.437198 0.582249
v 0.029630 0.270300 0.304748
vn 0.557816 -0.720936 0.411210
v 0.057015 0.274189 0.385761
vn -0.183831 0.889672 -0.417958
v 0.037673 0.304020 0.359674
vn -0.429289 0.536196 0.726777
v 0.038478 0.307018 0.311152
vn 0.927368 0.296656 -0.228000
v 0.073664 0.284903 0.356366
vn 0.582360 0.180111 0.792728
v 0.069643 0.294821 0.302217
vn -0.208073 -0.840249 0.500686
v 0.018031 0.320008 0.459145
vn -0.327401 -0.645638 0.689899
v 0.000855 0.351848 0.516300
vn -0.851094 -0.435165 0.293719
v -0.027611 0.395300 0.510482
vn -0.765213 0.165901 -0.622034
v -0.010387 0.367297 0.436918
vn -0.943503 -0.322895 -0.074433
v -0.013201 0.344703 0.454159
vn -0.453603 -0.741947 0.493720
v -0.000177 0.329596 0.477102
vn -0.878403 -0.477521 -0.019553
v 0.005927 0.305186 0.412545
vn -0.335118 -0.901859 0.272666
v 0.031587 0.271600 0.377195
vn 0.121092 0.467822 -0.875488
v 0.012731 0.404447 0.453516
vn 0.836766 -0.409742 0.363227
v 0.063157 0.312797 0.435818
vn 0.834648 -0.124481 0.536532
v 0.050232 0.370015 0.488284
vn 0.974922 0.197889 -0.101820
v 0.048299 0.412086 0.484184
vn 0.566825 -0.417306 0.710328
v 0.029431 0.355680 0.502516
vn 0.235516 -0.340874 -0.910130
v -0.031396 0.585553 0.363672
vn 0.656874 0.400514 -0.638831
v -0.032572 0.659635 0.362091
vn -0.836743 -0.503639 -0.214962
v -0.104748 0.636627 0.382767
vn -0.379932 -0.297266 -0.875948
v -0.082526 0.652171 0.346055
vn -0.737109 0.643243 -0.207142
v -0.135522 0.688497 0.357522
vn 0.048274 0.879172 0.474052
v -0.088299 0.693417 0.400475
vn 0.516582 0.854777 0.049993
v -0.038554 0.674946 0.400683
vn 0.728187 0.581538 0.362709
v -0.013657 0.638479 0.418878
vn 0.147908 0.567052 0.810293
v -0.023258 0.609789 0.444016
vn -0.631819 0.277863 0.723600
v -0.115968 0.686593 0.390722
vn 0.020794 0.579810 -0.814486
v -0.097281 0.682003 0.351332
vn -0.985236 -0.118335 0.123721
v -0.133510 0.146159 -0.185818
vn -0.953470 -0.101309 0.283957
v -0.121096 0.159840 -0.122983
vn -0.971357 -0.090908 0.219550
v -0.101483 0.212969 -0.057049
vn -0.233160 0.862619 -0.448916
v -0.003679 0.386254 -0.212511
vn -0.726693 0.637718 -0.255405
v -0.071086 0.345117 -0.189885
vn -0.553270 0.751339 -0.359698
v -0.048812 0.368133 -0.202663
vn -0.943641 0.329321 -0.033022
v -0.110458 0.294599 -0.154018
vn -0.973419 0.203666 0.104766
v -0.118002 0.261373 -0.130892
vn -0.481354 -0.675367 0.558728
v -0.030697 0.125791 0.014970
vn -0.241693 -0.572407 0.783540
v 0.030265 0.010382 -0.050017
vn -0.582934 -0.516352 0.627350
v -0.022582 0.031860 -0.065978
vn -0.518681 -0.430873 0.738457
v -0.000771 -0.012170 -0.081976
vn -0.797513 -0.422447 0.430710
v -0.080682 0.078633 -0.095841
vn -0.686409 -0.528696 0.499323
v -0.052468 0.121902 -0.013083
vn -0.898391 -0.279684 0.338630
v -0.113031 0.119865 -0.122278
vn -0.994221 0.071553 -0.080025
v -0.134078 0.168069 -0.222844
vn -0.989311 0.143624 0.025203
v -0.130523 0.217886 -0.180683
vn -0.981008 0.041456 0.189485
v -0.130663 0.190217 -0.155980
vn -0.854472 0.319001 -0.410021
v -0.111917 0.217196 -0.279910
vn -0.889682 0.385792 -0.244194
v -0.106999 0.280517 -0.227720
vn -0.959918 0.252066 -0.122558
v -0.122093 0.252004 -0.206812
vn -0.952762 0.173704 -0.249143
v -0.126622 0.189915 -0.254957
vn -0.563874 0.481368 -0.671067
v -0.064113 0.257243 -0.313013
vn -0.631526 0.600305 -0.490723
v -0.059294 0.323720 -0.259452
vn -0.751527 0.533842 -0.387582
v -0.085536 0.303903 -0.245786
vn -0.702458 0.401762 -0.587486
v -0.090398 0.237729 -0.298917
vn -0.441421 0.493408 -0.749464
v -0.033899 0.276052 -0.322329
vn -0.194070 0.606074 -0.771369
v 0.007719 0.291583 -0.327503
vn -0.401107 0.688319 -0.604425
v -0.029407 0.338743 -0.267158
vn -0.900876 -0.319294 0.294063
v -0.109366 0.059455 -0.180922
vn -0.825651 -0.386484 0.411013
v -0.088946 0.050636 -0.142855
vn -0.993219 -0.067949 -0.094332
v -0.129902 0.100833 -0.259873
vn -0.947793 0.089997 -0.305923
v -0.123150 0.129493 -0.298663
vn -0.814532 0.224796 -0.534793
v -0.105467 0.153784 -0.324880
vn -0.617984 0.408474 -0.671747
v -0.058829 0.123144 -0.383398
vn -0.254606 0.453667 -0.854027
v -0.000830 0.202265 -0.379225
vn -0.005449 0.496838 -0.867826
v 0.041578 0.226278 -0.375116
vn -0.735119 -0.450868 0.506279
v -0.064389 0.037635 -0.112057
vn -0.791079 0.582497 -0.186792
v -0.094667 0.324746 -0.176169
vn -0.143032 -0.753575 0.641613
v 0.021134 0.099296 0.018101
vn 0.130091 0.864481 -0.485539
v 0.075929 0.388722 -0.215803
vn -0.100440 0.766061 -0.634871
v 0.012317 0.351717 -0.269778
vn 0.942786 -0.317462 0.101845
v 0.196422 0.033825 -0.239324
vn 0.937245 -0.291793 0.190861
v 0.210984 0.113551 -0.165699
vn 0.955106 -0.176263 0.238126
v 0.213405 0.151205 -0.133898
vn 0.392144 0.806064 -0.443265
v 0.116000 0.377718 -0.212665
vn 0.762079 0.598953 -0.245950
v 0.166095 0.340868 -0.195011
vn 0.655014 0.671636 -0.346210
v 0.143710 0.364472 -0.207201
vn 0.959232 0.281933 -0.019700
v 0.205800 0.289403 -0.159922
vn 0.830970 0.516507 -0.206665
v 0.190427 0.323158 -0.173238
vn 0.992508 -0.021818 0.120217
v 0.222753 0.181222 -0.162708
vn 0.984391 0.164031 0.063776
v 0.213404 0.255853 -0.136797
vn 0.675471 -0.611184 0.412545
v 0.142601 0.133674 0.007687
vn 0.208090 -0.721995 0.659865
v 0.074555 0.100040 0.018988
vn 0.521117 -0.567819 0.637196
v 0.097872 0.031608 -0.056118
vn 0.751527 -0.489213 0.442581
v 0.168611 0.103521 -0.065834
vn 0.518327 -0.668788 0.532973
v 0.124629 0.106770 -0.002786
vn 0.883426 -0.341421 0.320922
v 0.198043 0.118087 -0.111408
vn 0.993492 -0.029082 -0.110131
v 0.221193 0.156762 -0.231392
vn 0.992328 0.109225 -0.057917
v 0.222287 0.209345 -0.187895
vn 0.983683 -0.170835 0.056415
v 0.221364 0.137733 -0.202714
vn 0.854105 0.247147 -0.457628
v 0.198449 0.208000 -0.287441
vn 0.853027 0.382403 -0.355124
v 0.198283 0.273132 -0.234976
vn 0.952977 0.250904 -0.169950
v 0.213668 0.244007 -0.214222
vn 0.960182 0.124837 -0.249932
v 0.213481 0.179260 -0.263056
vn 0.585346 0.409730 -0.699636
v 0.150268 0.251345 -0.318323
vn 0.554638 0.611996 -0.563770
v 0.149969 0.318404 -0.265067
vn 0.736324 0.520265 -0.432609
v 0.176300 0.297253 -0.252591
vn 0.728992 0.364093 -0.579661
v 0.176522 0.230262 -0.305372
vn 0.679514 -0.513173 0.524322
v 0.129263 0.028715 -0.091361
vn 0.399255 0.543406 -0.738448
v 0.120283 0.271877 -0.326226
vn 0.265334 0.551432 -0.790898
v 0.089567 0.286673 -0.328332
vn 0.364192 0.712355 -0.599929
v 0.120230 0.334989 -0.271220
vn 0.970282 -0.155467 -0.185427
v 0.207691 0.086544 -0.286739
vn 0.974716 -0.216432 -0.055556
v 0.204920 0.060355 -0.266859
vn 0.801030 0.175264 -0.572393
v 0.190019 0.135173 -0.330596
vn 0.675948 0.265893 -0.687310
v 0.168523 0.152497 -0.347132
vn 0.442958 0.398667 -0.803027
v 0.114836 0.188804 -0.370936
vn 0.079303 -0.615952 0.783782
v 0.058616 0.082182 0.004988
vn 0.066998 0.622625 -0.779647
v 0.058764 0.296908 -0.325707
vn 0.190163 0.722448 -0.664760
v 0.085390 0.347299 -0.273155
vn 0.182792 -0.557186 0.810019
v 0.052509 -0.007995 -0.062640
vn -0.865906 -0.055849 0.497079
v -0.068421 -0.181253 -0.197028
vn -0.968479 -0.201718 0.146146
v -0.113100 0.019185 -0.245795
vn -0.156429 -0.463480 -0.872191
v 0.021017 -0.126424 -0.493713
vn -0.765903 -0.596482 -0.240003
v -0.113694 -0.171447 -0.434116
vn -0.342546 -0.812632 -0.471479
v -0.066182 -0.201222 -0.406733
vn 0.103550 0.518613 -0.848715
v -0.007449 0.083504 -0.435323
vn -0.943806 -0.003773 0.330480
v -0.107157 -0.027320 -0.252089
vn -0.978778 0.004677 0.204870
v -0.134167 -0.059475 -0.334270
vn -0.878135 -0.055427 0.475192
v -0.086358 -0.093986 -0.210216
vn -0.930446 -0.177827 0.320386
v -0.100565 -0.114134 -0.247181
vn -0.942683 -0.094077 0.320153
v -0.118545 -0.071986 -0.270526
vn -0.940093 -0.324649 0.104057
v -0.120251 -0.153051 -0.339263
vn -0.040667 -0.730766 -0.681416
v -0.039235 -0.164666 -0.483490
vn -0.958264 -0.180187 0.221952
v -0.085473 -0.187521 -0.248953
vn -0.542669 -0.300443 0.784375
v -0.013414 -0.066917 -0.116929
vn 0.107079 0.518999 -0.848041
v 0.029630 0.012817 -0.468851
vn 0.805135 0.111118 -0.582589
v -0.017724 -0.022628 -0.521868
vn 0.093667 -0.296063 -0.950565
v -0.033098 -0.119001 -0.526453
vn -0.759431 -0.356065 0.544502
v -0.052542 -0.004142 -0.124900
vn -0.744090 -0.234310 0.625643
v -0.052925 -0.055492 -0.148071
vn -0.849413 -0.326953 0.414245
v -0.086910 0.009466 -0.176402
vn -0.879772 -0.208759 0.427108
v -0.075082 -0.037942 -0.183592
vn -0.791854 -0.129759 0.596765
v -0.057131 -0.089610 -0.162842
vn -0.896874 -0.275701 0.345841
v -0.099093 -0.012049 -0.223709
vn -0.991826 0.123954 0.030278
v -0.112472 0.011296 -0.312944
vn -0.832948 0.233451 -0.501696
v -0.102989 0.093573 -0.347699
vn -0.952118 0.048152 -0.301916
v -0.115811 0.079101 -0.324728
vn -0.768325 0.362399 -0.527582
v -0.082394 0.106721 -0.367034
vn -0.322167 0.527914 -0.785822
v -0.024582 0.140579 -0.400499
vn 0.064457 0.102593 -0.992633
v 0.020794 -0.067115 -0.501926
vn -0.169132 -0.439683 0.882085
v 0.031361 -0.064358 -0.096897
vn 0.997347 -0.064985 0.032800
v 0.179801 -0.016459 -0.299232
vn 0.988481 0.097605 0.115663
v 0.183803 -0.041137 -0.314928
vn 0.751746 -0.511971 -0.415648
v 0.153977 -0.174998 -0.454631
vn 0.210655 -0.785044 -0.582521
v 0.100609 -0.190318 -0.475884
vn -0.005933 0.417696 -0.908567
v 0.041626 0.165939 -0.403238
vn 0.584255 -0.425605 0.691019
v 0.097630 -0.029220 -0.106453
vn 0.345842 -0.444154 0.826511
v 0.064544 -0.070278 -0.106848
vn 0.861508 -0.330268 0.385652
v 0.137994 -0.043966 -0.162917
vn 0.947171 -0.243737 0.208470
v 0.179140 -0.092489 -0.281177
vn 0.963063 -0.009453 0.269110
v 0.179101 -0.065465 -0.271937
vn 0.996977 0.030082 0.071642
v 0.190406 -0.057668 -0.350388
vn 0.991137 -0.110984 0.073008
v 0.190325 -0.079557 -0.355641
vn 0.930267 -0.360382 0.068766
v 0.184389 -0.103491 -0.354561
vn 0.904813 -0.232881 0.356482
v 0.151251 -0.121866 -0.228590
vn 0.934394 -0.342696 -0.097298
v 0.169897 -0.137754 -0.423463
vn -0.084491 -0.459741 -0.884025
v 0.068199 -0.137037 -0.523195
vn 0.272497 -0.855268 -0.440751
v 0.109480 -0.210277 -0.409575
vn 0.681853 -0.701880 -0.206015
v 0.151508 -0.188802 -0.402483
vn 0.935805 -0.347184 0.061088
v 0.167284 -0.167048 -0.334056
vn 0.933649 -0.315814 0.169002
v 0.166903 -0.121475 -0.282825
vn 0.835197 -0.216788 0.505420
v 0.128032 -0.089157 -0.169687
vn 0.382517 -0.562166 0.733246
v 0.072876 -0.003502 -0.069559
vn 0.787816 -0.419087 0.451345
v 0.149865 0.008069 -0.143765
vn 0.739874 -0.400985 0.540183
v 0.132177 -0.012809 -0.130050
vn 0.861318 -0.402241 0.310377
v 0.177919 0.016204 -0.191314
vn 0.938012 -0.216455 0.270703
v 0.169295 -0.041215 -0.251152
vn 0.800093 0.151326 -0.580475
v 0.175318 0.080880 -0.360941
vn 0.929184 0.035869 -0.367874
v 0.204229 0.112939 -0.308848
vn 0.633680 0.350866 -0.689451
v 0.133272 0.111496 -0.392478
vn 0.242351 0.451942 -0.858496
v 0.084695 0.205889 -0.377302
vn 0.347021 0.482437 -0.804258
v 0.099357 0.134983 -0.405358
vn -0.145995 0.561662 -0.814384
v 0.066269 0.065799 -0.446173
vn -0.342421 -0.759491 -0.553101
v 0.051941 -0.166460 -0.479387
vn 0.976231 0.130908 -0.172729
v 0.189876 -0.050628 -0.443452
vn 0.356809 -0.498629 -0.789972
v 0.109969 -0.160142 -0.491642
vn 0.638447 -0.449442 -0.624810
v 0.145034 -0.152458 -0.474830
vn 0.446091 0.759319 -0.473749
v 0.107225 0.012145 -0.486338
vn -0.751439 0.374413 -0.543282
v 0.051980 0.005958 -0.491224
vn 0.999697 0.024602 0.000809
v 0.194048 -0.061640 -0.409422
vn 0.982180 0.185639 0.029338
v 0.191027 -0.035688 -0.375581
vn 0.975162 -0.216532 -0.046625
v 0.187493 -0.097814 -0.417626
vn 0.903345 -0.297864 -0.308619
v 0.179132 -0.109856 -0.461409
vn -0.793090 -0.221444 -0.567425
v 0.065995 -0.073284 -0.527186
vn 0.154207 -0.334804 -0.929584
v 0.093769 -0.124445 -0.517917
vn 0.799507 0.306044 -0.516842
v 0.148153 0.036082 -0.422431
vn -0.227170 0.831382 -0.507146
v 0.069856 0.027896 -0.504377
vn 0.193545 0.661876 -0.724197
v 0.092710 0.047932 -0.467260
vn 0.941157 0.119450 -0.316156
v 0.175154 -0.050996 -0.484966
vn 0.774911 0.568784 -0.275676
v 0.173698 0.001636 -0.424950
vn -0.076264 -0.933845 -0.349453
v 0.106281 -0.112874 -0.523247
vn 0.497598 0.750024 -0.435729
v 0.122538 0.007506 -0.478519
vn 0.586079 0.731191 -0.349100
v 0.133701 0.011362 -0.463302
vn 0.944890 0.204336 -0.255792
v 0.172662 0.015419 -0.370645
vn 0.236542 0.833818 -0.498795
v 0.120630 -0.031991 -0.620936
vn -0.791270 -0.596627 0.133895
v 0.082376 -0.118967 -0.595254
vn -0.336899 -0.919902 0.200697
v 0.092893 -0.136456 -0.628561
vn -0.435360 0.799732 -0.413389
v 0.083813 -0.075957 -0.686110
vn 0.515209 -0.851134 0.100654
v 0.103470 -0.142015 -0.663390
vn 0.949847 -0.260941 -0.172340
v 0.154210 -0.076867 -0.586366
vn 0.936581 0.074824 -0.342369
v 0.151610 -0.060201 -0.605544
vn 0.728004 0.536605 -0.426690
v 0.138882 -0.044045 -0.617704
vn 0.186040 -0.933040 0.307937
v 0.125959 -0.115230 -0.526292
vn -0.553867 0.688937 -0.467544
v 0.079967 -0.044862 -0.635656
vn -0.436679 0.770930 -0.463658
v 0.083780 -0.005617 -0.563362
vn -0.954970 0.203117 -0.216276
v 0.063893 -0.054172 -0.593933
vn -0.912638 0.284995 -0.293036
v 0.059108 -0.016354 -0.538865
vn 0.533714 0.827766 -0.173066
v 0.140209 -0.003625 -0.524070
vn 0.313590 0.916801 -0.247259
v 0.115570 0.008032 -0.539259
vn 0.635338 -0.772078 0.015547
v 0.143549 -0.114864 -0.576091
vn 0.666917 0.688519 -0.284891
v 0.142457 -0.019571 -0.566344
vn 0.789732 0.574713 -0.214539
v 0.162392 -0.022846 -0.485704
vn 0.830736 -0.518205 -0.203325
v 0.156660 -0.094974 -0.505111
vn 0.949989 0.231282 -0.209833
v 0.161315 -0.039879 -0.552734
vn 0.939003 -0.337654 -0.065289
v 0.125362 -0.109513 -0.656087
vn 0.974990 0.118441 -0.188061
v 0.125267 -0.100071 -0.670933
vn 0.533684 0.666745 -0.520224
v 0.111423 -0.080937 -0.684625
vn -0.995069 -0.099121 0.003602
v 0.074466 -0.100300 -0.656172
vn -0.700865 -0.688920 0.184872
v 0.074595 -0.146230 -0.699243
vn 0.935355 -0.353641 0.007033
v 0.125303 -0.131273 -0.701673
vn -0.383352 0.794017 -0.471782
v 0.087406 -0.114481 -0.759224
vn 0.733936 0.553097 -0.394236
v 0.121449 -0.107116 -0.727214
vn -0.979232 0.151804 -0.134391
v 0.063187 -0.120733 -0.719582
vn -0.672366 -0.663209 0.328752
v 0.082629 -0.180888 -0.820486
vn 0.157907 0.928603 -0.335801
v 0.084783 -0.158189 -0.907487
vn 0.348969 -0.916174 0.197094
v 0.096619 -0.162483 -0.750202
vn -0.967575 0.241858 0.072820
v 0.071383 -0.168349 -0.844712
vn 0.982126 0.027667 -0.186178
v 0.111052 -0.141766 -0.764127
vn -0.993764 -0.048146 -0.100570
v 0.075904 -0.139366 -0.758102
vn -0.132914 -0.579820 -0.803830
v 0.062499 -0.287524 -0.983963
vn 0.796748 -0.602117 0.051461
v 0.115824 -0.268480 -0.982203
vn -0.956345 -0.283114 0.072461
v 0.032437 -0.255425 -0.982450
vn -0.479915 0.656673 -0.581775
v 0.056418 -0.192753 -0.984177
vn -0.939300 0.323051 -0.115557
v -0.143770 -0.034641 -0.431396
vn -0.998373 -0.054541 -0.016632
v -0.148528 -0.060605 -0.427883
vn -0.871200 0.485402 0.073450
v -0.126126 0.005556 -0.380149
vn -0.479143 -0.573415 -0.664543
v -0.086051 -0.163650 -0.477548
vn -0.468800 0.871115 -0.146236
v -0.093647 0.014019 -0.520617
vn -0.956426 0.248917 0.152612
v -0.136112 -0.020815 -0.366084
vn -0.965746 -0.210832 0.151274
v -0.133926 -0.090373 -0.363568
vn -0.791113 0.598622 -0.125669
v -0.117809 -0.005665 -0.472533
vn -0.712554 0.676997 -0.184233
v -0.123081 0.013214 -0.411687
vn -0.217603 -0.480372 -0.849642
v -0.061646 -0.107507 -0.515835
vn -0.865785 0.447122 -0.224721
v -0.104225 0.034144 -0.383438
vn -0.704909 0.614669 -0.353956
v -0.089729 0.025865 -0.434935
vn 0.013574 0.735600 -0.677281
v -0.026021 0.061950 -0.462479
vn -0.950739 -0.278249 -0.136645
v -0.128069 -0.124909 -0.436610
vn -0.966182 -0.128234 -0.223714
v -0.129263 -0.055569 -0.495531
vn -0.561680 0.746911 -0.355864
v -0.069992 0.021579 -0.474772
vn -0.787143 -0.334916 -0.517917
v -0.118165 -0.140141 -0.451770
vn -0.103571 0.885393 -0.453158
v -0.080804 -0.016685 -0.617367
vn 0.985230 -0.126396 -0.115526
v -0.046631 -0.080408 -0.645914
vn 0.757530 -0.647144 0.085745
v -0.049243 -0.099307 -0.585306
vn -0.558346 0.697851 -0.448614
v -0.084137 -0.063530 -0.683218
vn -0.934078 -0.016220 -0.356702
v -0.103401 -0.082388 -0.658235
vn -0.751649 -0.526085 -0.397817
v -0.090613 -0.112422 -0.649307
vn -0.968301 -0.200694 -0.148711
v -0.125273 -0.060528 -0.572037
vn -0.743453 -0.668567 -0.017206
v -0.110993 -0.105162 -0.579120
vn -0.942734 0.182871 -0.278945
v -0.123017 -0.039820 -0.588982
vn -0.041056 0.920609 -0.388320
v -0.057064 0.021291 -0.523290
vn 0.635982 -0.348859 -0.688349
v -0.030808 -0.060599 -0.523513
vn 0.696768 0.568473 -0.437439
v -0.037298 -0.011975 -0.573635
vn 0.487178 0.598787 -0.635698
v -0.005637 0.044360 -0.470449
vn 0.031572 -0.989807 -0.138869
v -0.087476 -0.105764 -0.526241
vn -0.875200 -0.483086 -0.025546
v -0.122821 -0.082553 -0.540374
vn -0.960484 0.261969 -0.094035
v -0.129856 -0.028505 -0.545136
vn -0.712902 0.597831 -0.366564
v -0.111786 -0.020980 -0.594379
vn -0.598650 -0.604873 -0.525117
v -0.088486 -0.122573 -0.487687
vn 0.038923 -0.998408 0.040818
v -0.072292 -0.126388 -0.647487
vn 0.444001 0.766508 -0.464035
v -0.062597 -0.063384 -0.691869
vn 0.908903 -0.320441 0.266856
v -0.043886 -0.164732 -0.850871
vn -0.133429 0.876277 -0.462965
v -0.060179 -0.127782 -0.900565
vn -0.988030 0.151621 -0.028434
v -0.086972 -0.156981 -0.856333
vn 0.503443 -0.839245 0.205459
v -0.060318 -0.134477 -0.694182
vn 0.997322 -0.072961 -0.005072
v -0.043658 -0.107802 -0.716192
vn -0.159116 -0.921444 0.354432
v -0.074538 -0.170344 -0.829059
vn -0.800490 -0.598606 0.029766
v -0.088162 -0.133442 -0.743555
vn 0.115200 0.948687 -0.294486
v -0.071756 -0.109826 -0.799830
vn -0.987533 -0.029160 -0.154686
v -0.108454 -0.105694 -0.717181
vn 0.992964 -0.105436 -0.053902
v -0.055804 -0.134062 -0.768000
vn -0.784381 0.506250 -0.358410
v -0.084931 -0.109398 -0.759271
vn 0.335238 -0.900415 -0.277252
v -0.049706 -0.264996 -0.986746
vn 0.913706 0.232119 -0.333561
v -0.017091 -0.214980 -0.983873
vn -0.206420 0.675958 -0.707440
v -0.075930 -0.172385 -0.984659
vn -0.401969 -0.802246 -0.441387
v -0.018009 -0.306519 -0.310170
vn -0.175903 -0.744023 -0.644584
v -0.014389 -0.269306 -0.365040
vn -0.931089 -0.363738 0.027734
v -0.072662 -0.258421 -0.245379
vn -0.744904 -0.620571 -0.244968
v -0.050556 -0.281342 -0.273452
vn -0.546354 -0.785806 -0.289840
v -0.023070 -0.327544 -0.258461
vn 0.166284 -0.842483 -0.512418
v 0.044503 -0.307862 -0.318463
vn 0.608081 -0.701967 -0.370783
v 0.085740 -0.284481 -0.291683
vn -0.076614 -0.941727 -0.327537
v 0.018749 -0.337523 -0.260836
vn 0.654285 -0.702351 -0.280382
v 0.074010 -0.318866 -0.258173
vn -0.687375 -0.696220 -0.206862
v -0.098142 -0.190217 -0.375403
vn -0.664969 -0.663915 -0.342101
v -0.057658 -0.240937 -0.332121
vn -0.679161 -0.688756 -0.253684
v -0.069659 -0.264952 -0.285872
vn -0.727255 0.143135 0.671277
v -0.033707 -0.162537 -0.159563
vn -0.856250 -0.502204 -0.120940
v -0.084007 -0.225168 -0.324259
vn -0.332835 -0.656524 -0.676902
v -0.029832 -0.230621 -0.397696
vn -0.633003 -0.662387 -0.400688
v -0.057884 -0.221495 -0.384917
vn -0.651346 -0.633169 -0.418145
v -0.041421 -0.263367 -0.355847
vn 0.578044 -0.732160 -0.360288
v 0.099289 -0.239456 -0.351360
vn 0.952295 -0.305000 0.010470
v 0.116360 -0.265778 -0.218863
vn 0.665714 -0.678950 -0.309601
v 0.111233 -0.275651 -0.289699
vn 0.084778 -0.742666 -0.664274
v 0.048385 -0.265393 -0.375572
vn 0.645496 -0.001361 0.763763
v 0.097972 -0.166756 -0.165034
vn 0.887476 -0.065486 0.456177
v 0.120147 -0.179838 -0.192981
vn 0.949293 -0.245325 0.196616
v 0.134873 -0.196833 -0.247606
vn 0.827660 -0.547916 -0.121522
v 0.127394 -0.232572 -0.326463
vn 0.484807 -0.706242 -0.515931
v 0.081332 -0.250739 -0.381739
vn -0.044506 -0.690251 -0.722200
v 0.028241 -0.201507 -0.431581
vn 0.485859 -0.749727 -0.449277
v 0.065629 -0.278612 -0.351921
vn 0.702956 -0.680367 -0.207253
v 0.098101 -0.301095 -0.244327
vn 0.308187 0.951003 0.024790
v 0.001319 -0.161389 -0.143826
vn -0.165516 -0.972200 -0.165624
v 0.007201 -0.352685 -0.180772
vn 0.380533 0.643808 0.663857
v 0.033538 -0.174596 -0.143528
vn 0.117677 0.819061 -0.561507
v -0.015971 -0.123004 -0.097479
vn -0.753448 -0.630382 -0.186911
v -0.089901 -0.316282 -0.120494
vn -0.897941 -0.338036 -0.281841
v -0.060609 -0.296285 -0.210698
vn -0.453850 0.651823 -0.607575
v -0.058431 -0.166028 -0.141838
vn -0.527291 -0.825813 -0.199992
v -0.047095 -0.343609 -0.155421
vn 0.976865 0.153595 0.148808
v 0.119334 -0.226563 -0.166304
vn 0.380520 -0.875741 -0.297123
v 0.055353 -0.337500 -0.253560
vn -0.210125 -0.977674 0.001429
v -0.005193 -0.361736 -0.099162
vn 0.858499 -0.510834 0.045035
v 0.103672 -0.304438 -0.111381
vn 0.387160 -0.920384 0.054783
v 0.040082 -0.360562 -0.086623
vn -0.400573 -0.914191 -0.061619
v -0.045683 -0.346480 -0.117394
vn 0.788481 0.532361 -0.308041
v 0.113685 -0.200177 -0.111246
vn 0.456244 0.843739 -0.282747
v 0.034173 -0.129095 -0.022647
vn 0.702754 -0.710457 -0.037245
v 0.093404 -0.329062 -0.153451
vn 0.975183 -0.090149 -0.202217
v 0.121213 -0.222871 -0.097290
vn 0.155862 -0.982462 -0.102348
v 0.031974 -0.358285 -0.158114
vn 0.353390 -0.922067 -0.157822
v 0.047371 -0.347379 -0.214285
vn 0.308596 0.853606 -0.419672
v 0.072591 -0.167695 -0.110568
vn 0.599340 0.797772 0.065968
v 0.090076 -0.190320 -0.140973
vn 0.981345 -0.181395 0.063698
v 0.110153 -0.275489 -0.095418
vn -0.979080 0.164012 -0.120425
v -0.067957 -0.231552 -0.181241
vn -0.923165 0.076086 -0.376798
v -0.116032 -0.223181 -0.082091
vn -0.353562 0.053716 0.933867
v -0.115051 -0.109653 0.118416
vn -0.060377 0.872371 0.485101
v -0.105940 -0.085796 0.105952
vn 0.207752 0.941190 0.266458
v -0.041515 -0.080278 0.098400
vn 0.554934 0.782443 0.282546
v -0.010254 -0.106217 0.122290
vn -0.788237 -0.494880 0.365754
v -0.152741 -0.224251 0.048526
vn -0.438983 -0.686763 0.579354
v -0.097321 -0.284698 0.065637
vn -0.532092 0.767430 -0.357671
v -0.121268 -0.093225 -0.023749
vn 0.200265 0.923526 -0.327099
v -0.039206 -0.090401 -0.022161
vn 0.166931 0.985629 0.025866
v -0.047148 -0.077554 0.038068
vn -0.092228 0.995680 -0.010755
v -0.065781 -0.068163 -0.003517
vn 0.566577 0.823834 0.016981
v 0.010345 -0.089148 0.030319
vn -0.864253 0.088839 -0.495150
v -0.111581 -0.187245 -0.073108
vn -0.958991 -0.075870 -0.273093
v -0.128845 -0.194975 -0.037555
vn -0.846743 -0.091071 -0.524150
v -0.138080 -0.223874 -0.007881
vn -0.698658 0.342655 -0.628064
v -0.112689 -0.140172 -0.078973
vn 0.490614 0.805743 -0.331778
v 0.018752 -0.111828 -0.051704
vn -0.943651 -0.279050 -0.177914
v -0.110627 -0.285430 -0.083656
vn -0.753180 -0.634756 -0.172640
v -0.105215 -0.303160 -0.020719
vn -0.102557 0.856366 -0.506083
v -0.065908 -0.103972 -0.073711
vn -0.756960 -0.637867 -0.141903
v -0.116069 -0.305843 -0.001311
vn -0.491898 -0.433770 0.754904
v -0.084579 -0.255475 0.101186
vn -0.393160 -0.668941 0.630828
v -0.045237 -0.306536 0.059811
vn -0.601572 -0.796675 0.058483
v -0.088153 -0.325881 -0.046481
vn -0.033720 -0.972196 0.231726
v 0.008409 -0.358714 -0.022741
vn 0.886987 0.252740 -0.386493
v 0.139640 -0.200662 -0.055125
vn 0.371925 0.510782 0.775096
v 0.105714 -0.159480 0.153701
vn 0.562380 0.801175 -0.204569
v 0.106310 -0.135412 0.016637
vn 0.446276 0.888099 -0.110083
v 0.090455 -0.118743 0.039619
vn 0.270263 0.934674 0.230958
v 0.079454 -0.116028 0.105782
vn 0.339344 -0.280641 0.897823
v 0.054698 -0.179920 0.162562
vn -0.066246 -0.490680 0.868818
v 0.014524 -0.287749 0.116861
vn 0.059277 -0.994815 0.082643
v 0.037402 -0.357644 0.027594
vn -0.280916 -0.709089 0.646745
v -0.002749 -0.312621 0.093074
vn 0.373664 -0.698768 0.609999
v 0.021099 -0.227780 0.142066
vn 0.776612 0.589827 -0.221312
v 0.150036 -0.169714 0.012529
vn 0.647632 0.686554 -0.330479
v 0.129854 -0.163070 -0.026479
vn -0.088950 0.994266 -0.059358
v 0.056497 -0.108970 0.038473
vn 0.498464 -0.866802 -0.013714
v 0.065114 -0.336711 0.010451
vn 0.993087 0.112001 0.035131
v 0.169064 -0.211527 0.009713
vn -0.170774 -0.786319 0.593750
v -0.012440 -0.234945 0.139557
vn 0.810716 -0.578886 -0.087356
v 0.120651 -0.272015 -0.021947
vn 0.811885 -0.583788 0.005840
v 0.107141 -0.299213 0.002738
vn -0.284266 -0.956685 0.062815
v -0.025667 -0.340736 0.002271
vn 0.912484 -0.387423 -0.131436
v 0.107694 -0.268044 -0.071567
vn 0.895735 -0.443883 -0.025024
v 0.100423 -0.306045 -0.038780
vn 0.660423 -0.749866 0.039276
v 0.072300 -0.336052 -0.022517
vn 0.108981 0.973680 0.200176
v 0.024410 -0.125641 0.118273
vn 0.156669 0.939794 -0.303714
v 0.066756 -0.128206 -0.042803
vn 0.268614 0.963247 0.001291
v 0.027911 -0.122814 0.035198
vn -0.322631 -0.601887 0.730507
v -0.029613 -0.258139 0.115043
vn -0.368589 -0.894951 0.251404
v -0.043459 -0.335481 0.026613
vn -0.801611 -0.011347 0.597738
v -0.063977 -0.150826 0.140861
vn -0.655497 -0.598202 0.460954
v -0.049637 -0.223014 0.135768
vn -0.036995 0.732987 0.679236
v -0.016608 -0.127816 0.174168
vn 0.536908 0.786253 0.305837
v 0.019987 -0.141454 0.177735
vn 0.178847 -0.981161 -0.073046
v -0.012314 -0.229820 0.203492
vn 0.000000 -0.707107 0.707107
v -0.020841 -0.228084 0.252711
vn -0.089730 -0.644956 0.758933
v -0.028029 -0.208109 0.299095
vn -0.547456 -0.791459 -0.271818
v -0.075370 -0.234594 0.222000
vn 0.743153 -0.650462 -0.156918
v 0.019621 -0.220434 0.223177
vn 0.966849 -0.225477 0.119843
v 0.051071 -0.145011 0.260362
vn 0.486528 -0.144837 0.861576
v 0.007225 -0.152993 0.338058
vn 0.746876 0.623024 0.232417
v 0.044360 -0.095391 0.283049
vn -0.360407 0.734057 0.575558
v -0.032282 -0.072385 0.291215
vn -0.392423 -0.085860 0.915769
v -0.041501 -0.151179 0.339408
vn 0.923638 -0.381483 -0.036920
v 0.030330 -0.198089 0.206163
vn 0.876523 0.268927 -0.399231
v 0.038160 -0.120694 0.209368
vn 0.168072 0.762538 -0.624730
v 0.003837 -0.086135 0.208441
vn -0.420859 -0.861125 -0.285204
v -0.050609 -0.224564 0.197670
vn 0.358267 -0.923531 0.136874
v 0.005182 -0.236646 0.256804
vn -0.038885 -0.997517 -0.058722
v -0.049897 -0.241867 0.247956
vn -0.933592 0.254709 -0.252049
v -0.064901 -0.161885 0.179862
vn -0.735717 0.624155 -0.262967
v -0.062595 -0.103087 0.231369
vn -0.057973 0.995072 -0.080439
v -0.016313 -0.061699 0.263001
vn -0.311643 -0.835331 0.452881
v -0.055973 -0.238660 0.267596
vn -0.922556 -0.085604 0.376248
v -0.083535 -0.176852 0.288871
vn 0.213156 0.968649 -0.127604
v -0.095070 -0.078095 0.051209
vn -0.945414 0.128912 -0.299291
v -0.138162 -0.134006 -0.036752
vn -0.875715 -0.161724 -0.454939
v -0.136429 -0.173290 0.009284
vn -0.702898 -0.666191 0.249247
v -0.196907 -0.151351 0.039367
vn -0.850064 -0.194842 -0.489313
v -0.149681 -0.236418 0.005051
vn -0.583551 -0.390606 0.711966
v -0.185170 -0.150105 0.099214
vn -0.453102 0.494005 0.742063
v -0.182114 -0.098429 0.100896
vn -0.613050 -0.480954 0.626780
v -0.150929 -0.194808 0.078428
vn -0.459792 -0.256356 0.850219
v -0.095674 -0.184755 0.102360
vn 0.001647 0.976162 0.217039
v -0.147880 -0.060835 0.056978
vn 0.342967 0.929990 -0.132256
v -0.166773 -0.066127 -0.007762
vn 0.172091 0.933558 -0.314411
v -0.274601 -0.037377 -0.069477
vn -0.443895 0.022071 0.895807
v -0.306019 -0.074813 -0.019272
vn -0.202830 -0.975347 0.086943
v -0.296418 -0.108206 -0.052585
vn 0.049764 -0.785677 -0.616632
v -0.243745 -0.120900 -0.042820
vn -0.665361 -0.288333 0.688592
v -0.267963 -0.120872 0.017017
vn -0.342877 -0.937059 -0.065997
v -0.257055 -0.150445 -0.005301
vn -0.490725 0.227854 -0.840994
v -0.130379 -0.108129 -0.019990
vn -0.654905 0.118291 0.746396
v -0.238469 -0.097487 0.023185
vn -0.319368 0.723639 0.611842
v -0.220422 -0.070615 0.023248
vn 0.354808 -0.451247 -0.818833
v -0.197098 -0.110176 -0.057422
vn -0.063045 -0.884813 -0.461662
v -0.190630 -0.154651 0.012065
vn 0.592618 0.460234 -0.661051
v -0.156596 -0.089858 -0.028941
vn 0.469469 0.790290 -0.393752
v -0.194713 -0.059262 -0.037169
vn 0.386365 -0.198597 -0.900712
v -0.222049 -0.081211 -0.079403
vn 0.132279 0.961994 0.238891
v -0.239945 -0.042687 -0.013914
vn 0.269997 0.216592 -0.938184
v -0.325050 -0.060899 -0.112360
vn -0.238015 0.969996 -0.049570
v -0.354711 -0.043297 -0.076371
vn -0.245360 0.753816 0.609558
v -0.309323 -0.043109 -0.032751
vn 0.028678 -0.895292 0.444555
v -0.363676 -0.119788 -0.053667
vn -0.118421 -0.229934 0.965975
v -0.335731 -0.077458 -0.020888
vn -0.382957 0.354434 0.853065
v -0.397804 -0.083971 -0.041057
vn 0.091015 -0.753480 -0.651141
v -0.456233 -0.118061 -0.103014
vn 0.241068 -0.895175 -0.374896
v -0.342873 -0.118077 -0.074266
vn 0.250649 -0.552931 -0.794634
v -0.358833 -0.098992 -0.108956
vn -0.065905 0.266828 -0.961488
v -0.380554 -0.071901 -0.121058
vn -0.460545 0.777478 0.428283
v -0.457875 -0.084144 -0.083972
vn -0.422935 0.896062 -0.134907
v -0.538431 -0.110782 -0.136048
vn 0.071482 -0.926726 -0.368876
v -0.542578 -0.133984 -0.083674
vn -0.228105 0.743374 -0.628779
v -0.446608 -0.077025 -0.106210
vn -0.454094 -0.138301 0.880154
v -0.488489 -0.134364 -0.069678
vn 0.000000 0.000000 0.000000
v -0.555319 -0.142226 -0.111902
vn 0.894556 -0.439717 -0.080112
v 0.166246 -0.234317 0.001085
vn 0.643100 -0.647462 -0.408920
v 0.123031 -0.277898 0.061743
vn 0.613461 0.789488 0.019352
v 0.146212 -0.155698 0.058827
vn 0.573667 -0.777759 -0.256897
v 0.135247 -0.296482 0.080241
vn 0.804631 -0.593723 0.007854
v 0.127341 -0.257681 0.036160
vn -0.034803 -0.423179 0.905377
v 0.131835 -0.254706 0.155526
vn -0.080805 -0.504152 0.859826
v 0.062828 -0.230214 0.131055
vn 0.518619 -0.728478 0.447609
v 0.173302 -0.271557 0.128508
vn 0.340386 0.829154 0.443443
v 0.198259 -0.170972 0.086636
vn 0.662606 -0.007526 0.748930
v 0.181477 -0.222554 0.148778
vn 0.150015 -0.822710 0.548310
v 0.116059 -0.298144 0.101832
vn -0.729687 0.432897 -0.529299
v 0.148196 -0.185220 0.023913
vn -0.418473 0.097230 -0.903010
v 0.208937 -0.168741 -0.022519
vn -0.134489 0.981562 -0.135823
v 0.273303 -0.129231 -0.008251
vn 0.341132 -0.878725 -0.333873
v 0.244839 -0.246005 0.020254
vn -0.350343 0.933771 0.073022
v 0.198422 -0.144278 0.032560
vn 0.273614 0.653307 0.705922
v 0.243173 -0.154733 0.053577
vn 0.518180 -0.617177 0.592100
v 0.251866 -0.233549 0.059625
vn 0.677231 -0.689803 0.255987
v 0.206787 -0.238641 0.080533
vn 0.590835 0.070209 0.803732
v 0.230851 -0.200134 0.071134
vn 0.112138 -0.950816 -0.288747
v 0.181687 -0.256330 0.053061
vn 0.264308 -0.865610 -0.425276
v 0.155108 -0.226343 0.029520
vn -0.374505 -0.402041 -0.835529
v 0.184162 -0.201882 -0.002391
vn -0.160840 -0.613471 -0.773164
v 0.213979 -0.225811 0.014146
vn 0.347538 0.740544 0.575162
v 0.319214 -0.142242 0.008963
vn 0.052825 0.964251 -0.259673
v 0.349292 -0.133131 -0.046941
vn 0.620145 -0.174372 0.764862
v 0.300937 -0.181517 0.036469
vn 0.094175 -0.736726 0.669601
v 0.435809 -0.217238 -0.040474
vn -0.596019 -0.532227 -0.601246
v 0.439199 -0.223065 -0.071042
vn -0.407945 0.165006 -0.897972
v 0.316049 -0.161767 -0.061568
vn -0.058373 -0.870524 -0.488652
v 0.275747 -0.205920 -0.012797
vn -0.254697 -0.787252 -0.561573
v 0.351121 -0.215722 -0.050365
vn -0.226318 0.189971 -0.955349
v 0.439704 -0.190423 -0.083926
vn -0.192692 0.681056 -0.706423
v 0.341970 -0.142582 -0.062465
vn 0.503678 0.753798 0.422016
v 0.436827 -0.171878 -0.053157
vn 0.691866 0.039104 0.720966
v 0.491232 -0.216162 -0.070174
vn 0.095576 0.141796 -0.985271
v 0.508006 -0.200366 -0.132067
vn -0.365182 -0.203124 -0.908506
v 0.473419 -0.216323 -0.096489
vn -0.580431 -0.805546 -0.119147
v 0.465062 -0.266709 -0.097562
vn 0.466498 -0.726339 -0.504788
v 0.529042 -0.262167 -0.101213
vn 0.503992 0.776675 -0.377847
v 0.526613 -0.229604 -0.119208
vn 0.745842 -0.208969 -0.632496
v 0.118634 0.801364 0.229123
vn -0.373260 -0.409219 -0.832596
v 0.095138 0.802004 0.228557
vn -0.971826 -0.207986 -0.110885
v 0.076498 0.827446 0.242003
vn -0.950908 -0.000393 0.309473
v 0.109287 0.682978 0.294393
vn 0.815557 0.291437 0.499932
v 0.128827 0.687713 0.297005
vn -0.827125 -0.135980 -0.545320
v 0.104242 0.669639 0.267441
vn -0.681457 -0.086516 0.726726
v 0.086461 0.822394 0.266715
vn 0.327983 -0.040480 -0.943816
v 0.130238 0.670741 0.254511
vn 0.957359 0.275413 0.087241
v 0.145870 0.677469 0.281644
vn 0.233127 0.372508 0.898270
v 0.123466 0.666027 0.325745
vn 0.547446 -0.094888 0.831444
v 0.136063 0.612922 0.337386
vn 0.941090 0.112789 0.318793
v 0.123729 0.797386 0.258391
vn 0.612390 0.139262 0.778193
v 0.109144 0.828241 0.268464
vn -0.674103 -0.180331 -0.716286
v 0.079119 0.837396 0.208881
vn 0.971700 0.040750 -0.232678
v 0.118415 0.904368 0.252890
vn 0.383660 0.026721 -0.923088
v 0.117540 0.842021 0.206512
vn -0.356780 0.096328 -0.929209
v 0.079965 0.882419 0.229628
vn 0.987425 0.004083 0.158033
v 0.132392 0.842343 0.236907
vn 0.461028 0.270043 -0.845299
v 0.100613 0.935332 0.228922
vn 0.736710 -0.335645 -0.587027
v -0.033040 0.679660 0.210009
vn 0.734040 0.198276 0.649517
v -0.019285 0.837522 0.150025
vn -0.523297 0.566929 0.636201
v -0.045616 0.771813 0.204016
vn -0.977495 0.210931 0.003476
v -0.084140 0.663588 0.239234
vn -0.569816 0.014000 -0.821653
v -0.052988 0.839696 0.086199
vn 0.991251 0.046438 0.123555
v -0.036503 0.715397 0.228009
vn 0.882776 -0.385336 -0.268742
v -0.011841 0.811217 0.135078
vn -0.918216 0.121883 0.376860
v -0.056059 0.841297 0.145162
vn 0.805167 -0.348203 -0.480063
v -0.004104 0.835700 0.095317
vn 0.724243 0.283082 0.628759
v -0.040983 0.678233 0.286740
vn -0.996643 0.075713 -0.031163
v -0.058188 0.789265 0.161312
vn -0.552142 -0.274019 -0.787434
v -0.059305 0.695175 0.193101
vn -0.907919 0.387315 0.160220
v -0.072284 0.678605 0.251045
vn -0.491296 -0.597029 -0.634180
v -0.045958 0.802550 0.122735
vn -0.808270 0.166351 -0.564824
v -0.053881 0.882335 0.115758
vn 0.842093 0.025515 -0.538728
v -0.005143 0.892972 0.119163
vn -0.150065 -0.545360 0.824659
v -0.031633 0.896621 0.158107
vn -0.862551 0.023564 -0.505421
v -0.055551 0.933983 0.112857
vn 0.563046 -0.475764 0.675742
v -0.000380 0.922380 0.187898
vn 0.289589 0.204936 -0.934954
v -0.011771 0.944658 0.105664
vn -0.892883 -0.235823 -0.383597
v -0.032837 0.413372 0.474578
vn -0.310398 0.023683 -0.950312
v -0.019349 0.409798 0.459257
vn -0.635239 -0.340737 0.693087
v -0.018466 0.395709 0.534859
vn -0.820481 -0.062013 0.568301
v -0.055901 0.488047 0.525330
vn -0.958344 -0.276573 -0.071300
v -0.064945 0.507844 0.479477
vn 0.295757 -0.044654 0.954219
v 0.004186 0.404986 0.535334
vn 0.835455 0.234148 0.497183
v 0.039375 0.420854 0.502127
vn 0.682735 -0.005902 0.730642
v 0.021341 0.411290 0.527100
vn 0.097276 0.196974 0.975571
v -0.028964 0.471094 0.542271
vn -0.349817 -0.468386 -0.811322
v -0.040794 0.497125 0.436138
vn 0.003554 -0.634758 -0.772703
v -0.031414 0.533765 0.400189
vn -0.963818 0.082752 0.253390
v -0.070231 0.541406 0.494274
vn -0.772338 -0.393541 -0.498617
v -0.056024 0.506651 0.446221
vn -0.613026 -0.500532 -0.611282
v -0.047796 0.566500 0.379139
vn -0.880882 -0.392799 -0.264112
v -0.064067 0.584418 0.389298
vn 0.991016 0.106133 -0.081383
v 0.013950 0.521796 0.466419
vn 0.845382 -0.120206 -0.520460
v 0.000469 0.582378 0.389230
vn 0.231664 0.581249 0.780052
v -0.032668 0.549746 0.494741
vn 0.859900 0.391216 0.327905
v 0.009582 0.593472 0.433661
vn -0.685442 0.334692 0.646646
v -0.067332 0.597639 0.447365
vn 0.462288 -0.268245 -0.845183
v -0.011024 0.490901 0.450852
vn 0.715212 0.429397 0.551444
v -0.003136 0.553203 0.478587
vn 0.344032 0.437566 0.830770
v -0.018533 0.544350 0.501542
vn -0.198531 0.542897 0.815995
v -0.052228 0.553226 0.508683
vn -0.966060 0.254840 0.042245
v 0.057475 -0.178885 -0.888790
vn 0.567719 -0.760231 0.315823
v 0.097783 -0.191212 -0.841775
vn 0.997892 0.036717 -0.053518
v 0.110535 -0.179581 -0.872318
vn -0.007478 -0.822827 0.568242
v 0.083163 -0.223322 -0.899324
vn -0.928258 -0.125333 0.350185
v 0.058901 -0.210074 -0.912470
vn -0.104166 -0.727268 0.678403
v 0.075524 -0.248200 -0.920998
vn 0.925529 -0.280188 0.254735
v 0.107548 -0.214535 -0.916305
vn -0.598178 0.767063 -0.231943
v 0.066380 -0.193282 -0.942526
vn 0.517538 0.557235 -0.649340
v 0.113157 -0.207906 -0.983186
vn -0.584197 -0.727912 0.358967
v -0.086359 -0.184767 -0.862229
vn -0.975123 0.211492 -0.066376
v -0.088225 -0.186756 -0.916089
vn -0.138908 -0.853513 0.502215
v -0.066263 -0.208440 -0.907717
vn 0.643910 0.734463 -0.214344
v -0.042705 -0.168856 -0.932450
vn -0.936972 -0.345637 -0.051170
v -0.106354 -0.226655 -0.983027
vn 0.862376 -0.350555 0.365265
v -0.039136 -0.191657 -0.909669
# 790 vertices, 0 vertices normals

f 30//30 31//31 32//32
f 32//32 282//282 10//10
f 217//217 1//1 214//214
f 166//166 11//11 167//167
f 78//78 55//55 77//77
f 51//51 293//293 78//78
f 101//101 82//82 88//88
f 62//62 61//61 58//58
f 46//46 68//68 67//67
f 3//3 74//74 75//75
f 149//149 7//7 9//9
f 149//149 9//9 150//150
f 32//32 10//10 29//29
f 32//32 29//29 30//30
f 5//5 252//252 4//4
f 4//4 39//39 20//20
f 4//4 19//19 5//5
f 28//28 7//7 149//149
f 3//3 156//156 41//41
f 41//41 1//1 40//40
f 40//40 1//1 217//217
f 1//1 12//12 2//2
f 211//211 15//15 17//17
f 31//31 8//8 32//32
f 167//167 11//11 36//36
f 36//36 246//246 37//37
f 37//37 35//35 24//24
f 169//169 151//151 31//31
f 169//169 31//31 30//30
f 2//2 214//214 1//1
f 41//41 158//158 1//1
f 9//9 249//249 248//248
f 9//9 248//248 8//8
f 10//10 282//282 250//250
f 11//11 251//251 261//261
f 11//11 261//261 36//36
f 5//5 257//257 252//252
f 252//252 283//283 4//4
f 31//31 151//151 150//150
f 20//20 17//17 18//18
f 20//20 18//18 19//19
f 19//19 18//18 21//21
f 211//211 214//214 15//15
f 5//5 23//23 24//24
f 4//4 20//20 19//19
f 11//11 29//29 10//10
f 169//169 30//30 29//29
f 169//169 29//29 152//152
f 31//31 150//150 9//9
f 31//31 9//9 8//8
f 149//149 76//76 28//28
f 28//28 247//247 7//7
f 7//7 247//247 249//249
f 7//7 249//249 9//9
f 10//10 250//250 251//251
f 10//10 251//251 11//11
f 36//36 261//261 246//246
f 6//6 257//257 5//5
f 75//75 85//85 192//192
f 194//194 86//86 76//76
f 194//194 76//76 149//149
f 192//192 3//3 75//75
f 156//156 158//158 41//41
f 3//3 41//41 74//74
f 214//214 13//13 15//15
f 13//13 16//16 15//15
f 21//21 18//18 16//16
f 15//15 16//16 18//18
f 15//15 18//18 17//17
f 17//17 20//20 39//39
f 19//19 23//23 5//5
f 19//19 21//21 23//23
f 38//38 4//4 283//283
f 38//38 283//283 297//297
f 284//284 247//247 28//28
f 8//8 248//248 282//282
f 8//8 282//282 32//32
f 166//166 152//152 29//29
f 214//214 2//2 13//13
f 166//166 29//29 11//11
f 37//37 246//246 35//35
f 35//35 6//6 24//24
f 24//24 6//6 5//5
f 24//24 26//26 37//37
f 27//27 164//164 162//162
f 163//163 34//34 168//168
f 155//155 26//26 27//27
f 37//37 26//26 33//33
f 36//36 33//33 167//167
f 163//163 164//164 14//14
f 163//163 14//14 13//13
f 16//16 14//14 21//21
f 23//23 21//21 22//22
f 23//23 25//25 24//24
f 27//27 25//25 22//22
f 26//26 155//155 33//33
f 33//33 154//154 167//167
f 27//27 162//162 155//155
f 33//33 36//36 37//37
f 34//34 2//2 12//12
f 2//2 34//34 13//13
f 163//163 13//13 34//34
f 27//27 22//22 14//14
f 27//27 14//14 164//164
f 13//13 14//14 16//16
f 22//22 21//21 14//14
f 23//23 22//22 25//25
f 24//24 25//25 26//26
f 26//26 25//25 27//27
f 58//58 79//79 95//95
f 64//64 73//73 67//67
f 63//63 17//17 39//39
f 64//64 62//62 63//63
f 93//93 40//40 219//219
f 54//54 49//49 47//47
f 54//54 47//47 44//44
f 77//77 56//56 51//51
f 77//77 51//51 78//78
f 46//46 296//296 52//52
f 53//53 296//296 46//46
f 67//67 73//73 53//53
f 43//43 92//92 120//120
f 219//219 58//58 95//95
f 219//219 95//95 93//93
f 211//211 58//58 219//219
f 78//78 48//48 55//55
f 80//80 52//52 45//45
f 57//57 82//82 101//101
f 41//41 42//42 43//43
f 76//76 86//86 44//44
f 47//47 289//289 284//284
f 48//48 290//290 291//291
f 48//48 291//291 49//49
f 50//50 292//292 293//293
f 50//50 293//293 51//51
f 57//57 294//294 295//295
f 57//57 295//295 82//82
f 38//38 297//297 300//300
f 38//38 300//300 53//53
f 54//54 87//87 100//100
f 54//54 100//100 55//55
f 219//219 40//40 217//217
f 52//52 288//288 45//45
f 211//211 63//63 62//62
f 17//17 63//63 211//211
f 73//73 38//38 53//53
f 53//53 46//46 67//67
f 80//80 46//46 52//52
f 50//50 51//51 56//56
f 50//50 56//56 82//82
f 103//103 56//56 77//77
f 48//48 49//49 54//54
f 48//48 54//54 55//55
f 87//87 54//54 44//44
f 47//47 28//28 76//76
f 47//47 76//76 44//44
f 49//49 291//291 289//289
f 49//49 289//289 47//47
f 82//82 295//295 292//292
f 82//82 292//292 50//50
f 45//45 288//288 294//294
f 45//45 294//294 57//57
f 53//53 300//300 296//296
f 83//83 75//75 74//74
f 83//83 74//74 120//120
f 120//120 74//74 43//43
f 43//43 42//42 92//92
f 93//93 94//94 42//42
f 74//74 41//41 43//43
f 42//42 41//41 40//40
f 211//211 62//62 58//58
f 42//42 40//40 93//93
f 39//39 73//73 64//64
f 39//39 64//64 63//63
f 4//4 38//38 73//73
f 4//4 73//73 39//39
f 28//28 47//47 284//284
f 100//100 77//77 55//55
f 78//78 293//293 290//290
f 78//78 290//290 48//48
f 56//56 103//103 88//88
f 80//80 45//45 57//57
f 82//82 56//56 88//88
f 81//81 80//80 57//57
f 64//64 67//67 66//66
f 61//61 62//62 64//64
f 61//61 64//64 66//66
f 66//66 70//70 59//59
f 79//79 58//58 61//61
f 79//79 61//61 60//60
f 80//80 81//81 68//68
f 96//96 99//99 72//72
f 102//102 79//79 60//60
f 102//102 60//60 98//98
f 101//101 90//90 57//57
f 60//60 59//59 99//99
f 68//68 65//65 67//67
f 69//69 71//71 81//81
f 69//69 81//81 90//90
f 70//70 71//71 69//69
f 70//70 69//69 72//72
f 90//90 91//91 69//69
f 60//60 99//99 98//98
f 91//91 96//96 72//72
f 91//91 72//72 69//69
f 68//68 46//46 80//80
f 81//81 57//57 90//90
f 99//99 59//59 70//70
f 99//99 70//70 72//72
f 61//61 59//59 60//60
f 59//59 61//61 66//66
f 67//67 65//65 66//66
f 81//81 71//71 65//65
f 81//81 65//65 68//68
f 66//66 65//65 71//71
f 66//66 71//71 70//70
f 125//125 86//86 126//126
f 88//88 103//103 139//139
f 103//103 116//116 139//139
f 92//92 42//42 94//94
f 75//75 83//83 84//84
f 44//44 125//125 118//118
f 44//44 118//118 87//87
f 126//126 85//85 84//84
f 86//86 85//85 126//126
f 116//116 103//103 100//100
f 100//100 87//87 118//118
f 100//100 118//118 116//116
f 44//44 86//86 125//125
f 84//84 85//85 75//75
f 77//77 100//100 103//103
f 96//96 97//97 99//99
f 102//102 98//98 97//97
f 101//101 89//89 90//90
f 97//97 131//131 129//129
f 96//96 131//131 97//97
f 89//89 88//88 139//139
f 89//89 139//139 134//134
f 92//92 129//129 120//120
f 92//92 102//102 129//129
f 91//91 89//89 137//137
f 94//94 95//95 102//102
f 134//134 137//137 89//89
f 91//91 137//137 96//96
f 137//137 131//131 96//96
f 89//89 101//101 88//88
f 91//91 90//90 89//89
f 94//94 102//102 92//92
f 102//102 95//95 79//79
f 129//129 102//102 97//97
f 98//98 99//99 97//97
f 94//94 93//93 95//95
f 130//130 129//129 131//131
f 130//130 111//111 113//113
f 130//130 133//133 111//111
f 133//133 132//132 112//112
f 112//112 105//105 111//111
f 110//110 111//111 105//105
f 121//121 123//123 104//104
f 121//121 104//104 117//117
f 108//108 107//107 109//109
f 132//132 117//117 112//112
f 112//112 117//117 105//105
f 132//132 133//133 135//135
f 132//132 135//135 138//138
f 84//84 119//119 122//122
f 84//84 122//122 127//127
f 138//138 115//115 117//117
f 138//138 117//117 132//132
f 115//115 121//121 117//117
f 119//119 84//84 83//83
f 124//124 106//106 107//107
f 113//113 110//110 723//723
f 116//116 118//118 128//128
f 116//116 128//128 115//115
f 106//106 119//119 120//120
f 123//123 121//121 122//122
f 125//125 126//126 127//127
f 125//125 127//127 128//128
f 137//137 136//136 131//131
f 134//134 135//135 136//136
f 134//134 136//136 137//137
f 114//114 120//120 129//129
f 83//83 120//120 119//119
f 115//115 128//128 121//121
f 128//128 127//127 122//122
f 128//128 122//122 121//121
f 138//138 139//139 116//116
f 138//138 116//116 115//115
f 128//128 118//118 125//125
f 129//129 130//130 114//114
f 131//131 136//136 130//130
f 136//136 135//135 133//133
f 139//139 138//138 135//135
f 139//139 135//135 134//134
f 120//120 114//114 106//106
f 113//113 723//723 109//109
f 113//113 109//109 106//106
f 114//114 113//113 106//106
f 104//104 108//108 105//105
f 108//108 124//124 107//107
f 107//107 106//106 109//109
f 124//124 108//108 104//104
f 117//117 104//104 105//105
f 119//119 123//123 122//122
f 119//119 124//124 123//123
f 123//123 124//124 104//104
f 119//119 106//106 124//124
f 111//111 110//110 113//113
f 136//136 133//133 130//130
f 112//112 111//111 133//133
f 113//113 114//114 130//130
f 127//127 126//126 84//84
f 143//143 141//141 145//145
f 142//142 141//141 727//727
f 727//727 731//731 142//142
f 142//142 731//731 140//140
f 140//140 731//731 146//146
f 140//140 144//144 142//142
f 145//145 141//141 144//144
f 144//144 147//147 145//145
f 146//146 144//144 140//140
f 144//144 146//146 147//147
f 142//142 144//144 141//141
f 156//156 192//192 184//184
f 205//205 152//152 166//166
f 152//152 205//205 186//186
f 152//152 186//186 169//169
f 158//158 156//156 157//157
f 3//3 192//192 156//156
f 150//150 189//189 194//194
f 150//150 194//194 149//149
f 195//195 85//85 86//86
f 195//195 86//86 194//194
f 1//1 158//158 12//12
f 151//151 169//169 186//186
f 151//151 186//186 187//187
f 189//189 150//150 151//151
f 192//192 85//85 193//193
f 193//193 85//85 195//195
f 187//187 189//189 151//151
f 165//165 159//159 162//162
f 159//159 203//203 161//161
f 203//203 204//204 153//153
f 203//203 153//153 154//154
f 198//198 200//200 148//148
f 167//167 153//153 166//166
f 155//155 161//161 154//154
f 155//155 154//154 33//33
f 168//168 12//12 158//158
f 162//162 161//161 155//155
f 160//160 165//165 164//164
f 160//160 164//164 163//163
f 166//166 153//153 204//204
f 166//166 204//204 205//205
f 154//154 161//161 203//203
f 165//165 160//160 200//200
f 200//200 160//160 148//148
f 148//148 157//157 198//198
f 184//184 198//198 157//157
f 157//157 156//156 184//184
f 153//153 167//167 154//154
f 157//157 148//148 168//168
f 157//157 168//168 158//158
f 168//168 34//34 12//12
f 148//148 160//160 168//168
f 168//168 160//160 163//163
f 161//161 162//162 159//159
f 162//162 164//164 165//165
f 180//180 735//735 177//177
f 174//174 171//171 170//170
f 171//171 174//174 175//175
f 732//732 174//174 177//177
f 197//197 184//184 171//171
f 181//181 176//176 188//188
f 173//173 188//188 176//176
f 199//199 200//200 198//198
f 196//196 191//191 172//172
f 191//191 196//196 190//190
f 191//191 190//190 173//173
f 201//201 188//188 185//185
f 184//184 192//192 170//170
f 188//188 190//190 185//185
f 178//178 183//183 197//197
f 176//176 172//172 191//191
f 174//174 741//741 175//175
f 175//175 197//197 171//171
f 175//175 179//179 197//197
f 179//179 744//744 735//735
f 735//735 180//180 178//178
f 185//185 187//187 186//186
f 196//196 195//195 194//194
f 198//198 197//197 199//199
f 201//201 181//181 188//188
f 202//202 159//159 182//182
f 203//203 159//159 202//202
f 205//205 204//204 201//201
f 172//172 170//170 193//193
f 172//172 193//193 196//196
f 190//190 189//189 187//187
f 190//190 187//187 185//185
f 185//185 186//186 205//205
f 185//185 205//205 201//201
f 196//196 194//194 189//189
f 196//196 189//189 190//190
f 165//165 200//200 159//159
f 199//199 159//159 200//200
f 203//203 202//202 201//201
f 203//203 201//201 204//204
f 188//188 173//173 190//190
f 177//177 176//176 181//181
f 184//184 197//197 198//198
f 177//177 174//174 176//176
f 170//170 172//172 174//174
f 172//172 176//176 174//174
f 173//173 176//176 191//191
f 170//170 171//171 184//184
f 179//179 735//735 178//178
f 181//181 180//180 177//177
f 180//180 183//183 178//178
f 178//178 197//197 179//179
f 202//202 182//182 181//181
f 202//202 181//181 201//201
f 180//180 181//181 182//182
f 199//199 182//182 159//159
f 180//180 182//182 183//183
f 182//182 199//199 183//183
f 175//175 741//741 179//179
f 170//170 192//192 193//193
f 196//196 193//193 195//195
f 197//197 183//183 199//199
f 209//209 210//210 208//208
f 208//208 210//210 206//206
f 206//206 207//207 751//751
f 208//208 206//206 751//751
f 751//751 749//749 208//208
f 206//206 210//210 750//750
f 750//750 207//207 206//206
f 208//208 749//749 209//209
f 214//214 227//227 213//213
f 213//213 216//216 217//217
f 212//212 211//211 215//215
f 214//214 211//211 227//227
f 217//217 214//214 213//213
f 211//211 220//220 227//227
f 220//220 211//211 212//212
f 219//219 217//217 216//216
f 218//218 211//211 219//219
f 218//218 219//219 216//216
f 218//218 229//229 211//211
f 218//218 216//216 228//228
f 229//229 215//215 211//211
f 226//226 225//225 224//224
f 220//220 221//221 222//222
f 225//225 222//222 224//224
f 224//224 752//752 223//223
f 225//225 220//220 222//222
f 753//753 223//223 752//752
f 752//752 224//224 222//222
f 227//227 225//225 226//226
f 212//212 221//221 220//220
f 753//753 228//228 223//223
f 222//222 221//221 754//754
f 216//216 223//223 228//228
f 223//223 226//226 224//224
f 220//220 225//225 227//227
f 227//227 226//226 213//213
f 213//213 226//226 223//223
f 216//216 213//213 223//223
f 232//232 221//221 212//212
f 759//759 230//230 231//231
f 759//759 231//231 758//758
f 232//232 230//230 759//759
f 757//757 221//221 232//232
f 232//232 229//229 230//230
f 229//229 218//218 231//231
f 212//212 215//215 232//232
f 757//757 232//232 759//759
f 754//754 221//221 757//757
f 228//228 231//231 218//218
f 231//231 230//230 229//229
f 229//229 232//232 215//215
f 243//243 236//236 235//235
f 771//771 242//242 235//235
f 235//235 766//766 771//771
f 236//236 234//234 233//233
f 243//243 237//237 238//238
f 236//236 765//765 766//766
f 242//242 238//238 237//237
f 243//243 234//234 236//236
f 243//243 235//235 237//237
f 235//235 236//236 766//766
f 768//768 233//233 234//234
f 233//233 765//765 236//236
f 235//235 242//242 237//237
f 241//241 242//242 771//771
f 770//770 240//240 241//241
f 240//240 239//239 238//238
f 768//768 234//234 240//240
f 770//770 768//768 240//240
f 238//238 239//239 243//243
f 234//234 239//239 240//240
f 243//243 239//239 234//234
f 238//238 241//241 240//240
f 242//242 241//241 238//238
f 248//248 268//268 282//282
f 293//293 311//311 290//290
f 313//313 379//379 299//299
f 256//256 274//274 281//281
f 257//257 254//254 252//252
f 280//280 279//279 271//271
f 270//270 354//354 278//278
f 270//270 278//278 266//266
f 269//269 277//277 262//262
f 265//265 276//276 275//275
f 265//265 275//275 259//259
f 246//246 261//261 245//245
f 260//260 251//251 250//250
f 260//260 250//250 264//264
f 249//249 247//247 272//272
f 249//249 272//272 267//267
f 245//245 258//258 35//35
f 245//245 35//35 246//246
f 273//273 244//244 327//327
f 245//245 244//244 258//258
f 253//253 283//283 252//252
f 258//258 256//256 6//6
f 244//244 261//261 260//260
f 244//244 260//260 259//259
f 265//265 264//264 263//263
f 265//265 263//263 262//262
f 269//269 268//268 267//267
f 269//269 267//267 266//266
f 272//272 285//285 271//271
f 272//272 271//271 270//270
f 349//349 346//346 274//274
f 349//349 274//274 273//273
f 352//352 276//276 277//277
f 352//352 277//277 351//351
f 278//278 353//353 277//277
f 273//273 327//327 349//349
f 285//285 272//272 247//247
f 267//267 268//268 248//248
f 267//267 248//248 249//249
f 260//260 261//261 251//251
f 258//258 6//6 35//35
f 261//261 244//244 245//245
f 258//258 244//244 273//273
f 244//244 259//259 275//275
f 264//264 265//265 259//259
f 264//264 259//259 260//260
f 265//265 262//262 277//277
f 265//265 277//277 276//276
f 268//268 269//269 262//262
f 268//268 262//262 263//263
f 269//269 266//266 278//278
f 269//269 278//278 277//277
f 272//272 270//270 266//266
f 272//272 266//266 267//267
f 270//270 271//271 279//279
f 270//270 279//279 354//354
f 275//275 327//327 244//244
f 276//276 352//352 275//275
f 277//277 353//353 351//351
f 280//280 361//361 279//279
f 253//253 252//252 254//254
f 253//253 254//254 255//255
f 255//255 254//254 344//344
f 344//344 281//281 274//274
f 344//344 274//274 346//346
f 273//273 274//274 256//256
f 273//273 256//256 258//258
f 6//6 256//256 257//257
f 285//285 247//247 284//284
f 344//344 254//254 281//281
f 281//281 254//254 257//257
f 281//281 257//257 256//256
f 263//263 264//264 250//250
f 263//263 250//250 282//282
f 282//282 268//268 263//263
f 299//299 379//379 381//381
f 298//298 313//313 300//300
f 322//322 325//325 378//378
f 323//323 315//315 386//386
f 323//323 386//386 280//280
f 309//309 385//385 321//321
f 309//309 321//321 314//314
f 305//305 319//319 320//320
f 305//305 320//320 312//312
f 302//302 317//317 384//384
f 302//302 384//384 308//308
f 286//286 318//318 304//304
f 286//286 304//304 287//287
f 299//299 52//52 296//296
f 307//307 292//292 295//295
f 307//307 295//295 303//303
f 310//310 316//316 289//289
f 310//310 289//289 291//291
f 287//287 301//301 381//381
f 288//288 52//52 301//301
f 298//298 300//300 297//297
f 298//298 297//297 378//378
f 362//362 298//298 378//378
f 299//299 296//296 300//300
f 302//302 303//303 294//294
f 302//302 294//294 304//304
f 305//305 306//306 307//307
f 305//305 307//307 308//308
f 309//309 310//310 311//311
f 309//309 311//311 312//312
f 379//379 313//313 380//380
f 314//314 315//315 324//324
f 314//314 324//324 316//316
f 383//383 319//319 384//384
f 320//320 383//383 385//385
f 387//387 386//386 321//321
f 301//301 287//287 288//288
f 381//381 286//286 287//287
f 284//284 289//289 316//316
f 284//284 316//316 324//324
f 291//291 290//290 311//311
f 291//291 311//311 310//310
f 295//295 294//294 303//303
f 52//52 299//299 301//301
f 288//288 287//287 304//304
f 288//288 304//304 294//294
f 318//318 317//317 302//302
f 318//318 302//302 304//304
f 303//303 302//302 308//308
f 303//303 308//308 307//307
f 384//384 319//319 305//305
f 384//384 305//305 308//308
f 306//306 305//305 312//312
f 306//306 312//312 311//311
f 320//320 385//385 309//309
f 320//320 309//309 312//312
f 387//387 321//321 385//385
f 310//310 309//309 314//314
f 310//310 314//314 316//316
f 324//324 315//315 323//323
f 321//321 386//386 315//315
f 321//321 315//315 314//314
f 319//319 383//383 320//320
f 386//386 361//361 280//280
f 322//322 378//378 297//297
f 380//380 313//313 298//298
f 380//380 298//298 362//362
f 301//301 299//299 381//381
f 253//253 325//325 322//322
f 285//285 324//324 323//323
f 285//285 323//323 271//271
f 284//284 324//324 285//285
f 271//271 323//323 280//280
f 283//283 322//322 297//297
f 253//253 322//322 283//283
f 299//299 300//300 313//313
f 293//293 292//292 307//307
f 293//293 307//307 306//306
f 306//306 311//311 293//293
f 455//455 337//337 335//335
f 337//337 339//339 335//335
f 454//454 333//333 332//332
f 332//332 336//336 334//334
f 366//366 367//367 358//358
f 367//367 397//397 395//395
f 356//356 529//529 531//531
f 529//529 356//356 512//512
f 526//526 330//330 338//338
f 345//345 348//348 340//340
f 255//255 344//344 345//345
f 347//347 344//344 346//346
f 361//361 331//331 279//279
f 354//354 331//331 461//461
f 353//353 460//460 459//459
f 353//353 459//459 351//351
f 352//352 459//459 350//350
f 352//352 350//350 275//275
f 327//327 275//275 350//350
f 464//464 278//278 354//354
f 335//335 326//326 334//334
f 330//330 452//452 338//338
f 478//478 331//331 341//341
f 345//345 347//347 348//348
f 349//349 332//332 347//347
f 329//329 452//452 330//330
f 327//327 332//332 349//349
f 328//328 338//338 343//343
f 332//332 327//327 350//350
f 338//338 458//458 343//343
f 388//388 341//341 331//331
f 478//478 341//341 342//342
f 352//352 351//351 459//459
f 464//464 460//460 353//353
f 464//464 353//353 278//278
f 354//354 461//461 464//464
f 354//354 279//279 331//331
f 331//331 361//361 388//388
f 355//355 343//343 476//476
f 355//355 476//476 342//342
f 355//355 342//342 341//341
f 349//349 347//347 346//346
f 347//347 345//345 344//344
f 255//255 340//340 356//356
f 255//255 356//356 253//253
f 345//345 340//340 255//255
f 332//332 334//334 348//348
f 526//526 338//338 328//328
f 515//515 509//509 330//330
f 509//509 513//513 337//337
f 513//513 339//339 337//337
f 334//334 326//326 348//348
f 326//326 512//512 348//348
f 348//348 512//512 340//340
f 340//340 512//512 356//356
f 325//325 253//253 356//356
f 335//335 339//339 326//326
f 328//328 343//343 355//355
f 452//452 458//458 338//338
f 332//332 348//348 347//347
f 329//329 330//330 509//509
f 333//333 455//455 336//336
f 452//452 329//329 465//465
f 350//350 454//454 332//332
f 450//450 455//455 333//333
f 336//336 335//335 334//334
f 329//329 509//509 337//337
f 329//329 337//337 462//462
f 333//333 336//336 332//332
f 455//455 335//335 336//336
f 350//350 459//459 451//451
f 329//329 462//462 465//465
f 454//454 450//450 333//333
f 363//363 356//356 531//531
f 521//521 363//363 531//531
f 524//524 375//375 523//523
f 524//524 374//374 375//375
f 366//366 377//377 370//370
f 362//362 521//521 377//377
f 377//377 380//380 362//362
f 364//364 381//381 379//379
f 403//403 388//388 387//387
f 372//372 399//399 400//400
f 317//317 409//409 384//384
f 357//357 318//318 286//286
f 387//387 385//385 407//407
f 387//387 407//407 393//393
f 360//360 391//391 392//392
f 382//382 286//286 381//381
f 362//362 378//378 363//363
f 389//389 372//372 360//360
f 389//389 373//373 526//526
f 394//394 341//341 388//388
f 522//522 523//523 370//370
f 526//526 328//328 389//389
f 359//359 360//360 392//392
f 355//355 341//341 394//394
f 355//355 394//394 399//399
f 360//360 359//359 374//374
f 360//360 374//374 373//373
f 328//328 372//372 389//389
f 382//382 357//357 286//286
f 357//357 409//409 317//317
f 357//357 317//317 318//318
f 328//328 355//355 399//399
f 328//328 399//399 372//372
f 409//409 401//401 383//383
f 409//409 383//383 384//384
f 385//385 383//383 401//401
f 385//385 401//401 407//407
f 393//393 403//403 387//387
f 388//388 361//361 386//386
f 388//388 386//386 387//387
f 381//381 364//364 382//382
f 379//379 380//380 364//364
f 380//380 377//377 364//364
f 325//325 363//363 378//378
f 363//363 521//521 362//362
f 382//382 377//377 366//366
f 376//376 523//523 375//375
f 522//522 370//370 377//377
f 521//521 522//522 377//377
f 356//356 363//363 325//325
f 370//370 523//523 376//376
f 373//373 389//389 360//360
f 391//391 360//360 372//372
f 364//364 377//377 382//382
f 365//365 369//369 368//368
f 366//366 357//357 382//382
f 396//396 357//357 358//358
f 367//367 368//368 397//397
f 376//376 371//371 369//369
f 370//370 376//376 365//365
f 371//371 374//374 359//359
f 358//358 357//357 366//366
f 370//370 365//365 366//366
f 397//397 368//368 369//369
f 397//397 369//369 371//371
f 366//366 365//365 368//368
f 366//366 368//368 367//367
f 365//365 376//376 369//369
f 375//375 371//371 376//376
f 374//374 371//371 375//375
f 358//358 367//367 395//395
f 358//358 395//395 396//396
f 396//396 390//390 409//409
f 422//422 399//399 394//394
f 402//402 422//422 394//394
f 391//391 400//400 406//406
f 391//391 372//372 400//400
f 409//409 405//405 408//408
f 407//407 401//401 408//408
f 388//388 402//402 394//394
f 406//406 400//400 399//399
f 408//408 401//401 409//409
f 388//388 403//403 402//402
f 427//427 423//423 408//408
f 427//427 408//408 405//405
f 391//391 406//406 392//392
f 392//392 428//428 398//398
f 397//397 371//371 398//398
f 393//393 407//407 424//424
f 390//390 395//395 397//397
f 390//390 397//397 398//398
f 398//398 428//428 404//404
f 418//418 428//428 406//406
f 424//424 420//420 402//402
f 398//398 371//371 392//392
f 402//402 420//420 422//422
f 409//409 357//357 396//396
f 396//396 395//395 390//390
f 390//390 404//404 405//405
f 390//390 405//405 409//409
f 398//398 404//404 390//390
f 424//424 402//402 393//393
f 407//407 408//408 423//423
f 404//404 427//427 405//405
f 392//392 371//371 359//359
f 424//424 407//407 423//423
f 393//393 402//402 403//403
f 392//392 406//406 428//428
f 404//404 429//429 427//427
f 429//429 404//404 428//428
f 414//414 430//430 415//415
f 432//432 417//417 416//416
f 432//432 416//416 431//431
f 431//431 437//437 432//432
f 414//414 435//435 430//430
f 433//433 421//421 419//419
f 433//433 419//419 413//413
f 413//413 438//438 433//433
f 433//433 438//438 434//434
f 433//433 434//434 412//412
f 412//412 434//434 414//414
f 414//414 425//425 412//412
f 428//428 415//415 429//429
f 399//399 421//421 433//433
f 411//411 399//399 433//433
f 414//414 415//415 425//425
f 410//410 419//419 420//420
f 410//410 420//420 424//424
f 421//421 399//399 422//422
f 419//419 421//421 420//420
f 425//425 415//415 428//428
f 415//415 416//416 429//429
f 417//417 410//410 426//426
f 424//424 423//423 426//426
f 424//424 426//426 410//410
f 427//427 429//429 426//426
f 427//427 426//426 423//423
f 420//420 421//421 422//422
f 432//432 413//413 419//419
f 432//432 419//419 410//410
f 412//412 411//411 433//433
f 399//399 411//411 406//406
f 412//412 406//406 411//411
f 435//435 437//437 431//431
f 435//435 431//431 430//430
f 410//410 417//417 432//432
f 416//416 415//415 430//430
f 416//416 430//430 431//431
f 418//418 425//425 428//428
f 412//412 425//425 418//418
f 429//429 416//416 417//417
f 429//429 417//417 426//426
f 406//406 412//412 418//418
f 432//432 437//437 413//413
f 776//776 442//442 440//440
f 414//414 434//434 441//441
f 441//441 435//435 414//414
f 441//441 777//777 443//443
f 434//434 438//438 444//444
f 439//439 444//444 442//442
f 442//442 776//776 439//439
f 441//441 439//439 777//777
f 437//437 443//443 436//436
f 437//437 436//436 413//413
f 436//436 438//438 413//413
f 442//442 436//436 440//440
f 443//443 778//778 440//440
f 443//443 440//440 436//436
f 444//444 436//436 442//442
f 436//436 444//444 438//438
f 778//778 443//443 777//777
f 437//437 435//435 443//443
f 439//439 434//434 444//444
f 439//439 441//441 434//434
f 443//443 435//435 441//441
f 448//448 445//445 447//447
f 784//784 445//445 448//448
f 782//782 446//446 784//784
f 783//783 448//448 780//780
f 781//781 447//447 445//445
f 448//448 783//783 784//784
f 447//447 780//780 448//448
f 446//446 445//445 784//784
f 781//781 780//780 447//447
f 446//446 781//781 445//445
f 446//446 782//782 781//781
f 463//463 483//483 465//465
f 462//462 337//337 455//455
f 483//483 458//458 452//452
f 479//479 458//458 483//483
f 461//461 331//331 478//478
f 458//458 476//476 343//343
f 457//457 460//460 464//464
f 459//459 457//457 451//451
f 456//456 463//463 449//449
f 449//449 451//451 457//457
f 454//454 350//350 451//451
f 454//454 451//451 449//449
f 449//449 450//450 454//454
f 449//449 457//457 456//456
f 463//463 450//450 449//449
f 450//450 462//462 455//455
f 463//463 462//462 450//450
f 463//463 465//465 462//462
f 464//464 475//475 453//453
f 453//453 456//456 464//464
f 483//483 452//452 465//465
f 475//475 461//461 478//478
f 459//459 460//460 457//457
f 456//456 457//457 464//464
f 461//461 475//475 464//464
f 470//470 474//474 482//482
f 470//470 482//482 469//469
f 470//470 494//494 484//484
f 470//470 484//484 471//471
f 484//484 467//467 468//468
f 485//485 477//477 467//467
f 467//467 490//490 485//485
f 484//484 489//489 490//490
f 484//484 490//490 467//467
f 466//466 477//477 485//485
f 342//342 477//477 478//478
f 475//475 478//478 477//477
f 483//483 463//463 480//480
f 483//483 480//480 479//479
f 471//471 473//473 472//472
f 469//469 482//482 466//466
f 481//481 474//474 472//472
f 482//482 453//453 466//466
f 456//456 481//481 463//463
f 453//453 482//482 481//481
f 453//453 481//481 456//456
f 479//479 476//476 458//458
f 481//481 480//480 463//463
f 484//484 479//479 473//473
f 475//475 466//466 453//453
f 479//479 468//468 476//476
f 468//468 479//479 484//484
f 477//477 466//466 475//475
f 469//469 466//466 485//485
f 476//476 468//468 467//467
f 476//476 467//467 342//342
f 342//342 467//467 477//477
f 492//492 484//484 494//494
f 470//470 471//471 472//472
f 470//470 472//472 474//474
f 473//473 471//471 484//484
f 480//480 473//473 479//479
f 480//480 481//481 472//472
f 480//480 472//472 473//473
f 482//482 474//474 481//481
f 487//487 488//488 493//493
f 470//470 469//469 494//494
f 492//492 489//489 484//484
f 491//491 492//492 488//488
f 488//488 785//785 491//491
f 485//485 490//490 495//495
f 486//486 491//491 785//785
f 485//485 496//496 469//469
f 493//493 495//495 486//486
f 493//493 488//488 496//496
f 492//492 491//491 489//489
f 491//491 495//495 489//489
f 486//486 495//495 491//491
f 487//487 493//493 486//486
f 485//485 495//495 493//493
f 495//495 490//490 489//489
f 492//492 496//496 488//488
f 494//494 469//469 496//496
f 496//496 492//492 494//494
f 496//496 485//485 493//493
f 499//499 786//786 788//788
f 790//790 787//787 497//497
f 499//499 788//788 498//498
f 498//498 497//497 499//499
f 789//789 499//499 497//497
f 498//498 790//790 497//497
f 790//790 498//498 788//788
f 787//787 789//789 497//497
f 499//499 789//789 786//786
f 501//501 526//526 520//520
f 503//503 516//516 500//500
f 500//500 501//501 505//505
f 500//500 516//516 501//501
f 530//530 504//504 507//507
f 504//504 534//534 503//503
f 534//534 502//502 503//503
f 507//507 500//500 505//505
f 507//507 504//504 500//500
f 500//500 504//504 503//503
f 530//530 507//507 548//548
f 507//507 538//538 548//548
f 508//508 538//538 505//505
f 508//508 505//505 527//527
f 505//505 538//538 507//507
f 506//506 508//508 527//527
f 520//520 527//527 505//505
f 506//506 528//528 508//508
f 501//501 514//514 526//526
f 514//514 501//501 516//516
f 510//510 511//511 513//513
f 513//513 511//511 502//502
f 339//339 502//502 552//552
f 326//326 552//552 512//512
f 515//515 516//516 510//510
f 515//515 510//510 509//509
f 513//513 502//502 339//339
f 515//515 330//330 514//514
f 515//515 514//514 516//516
f 552//552 326//326 339//339
f 513//513 509//509 510//510
f 526//526 514//514 330//330
f 502//502 534//534 552//552
f 511//511 503//503 502//502
f 511//511 510//510 503//503
f 510//510 516//516 503//503
f 525//525 527//527 520//520
f 517//517 524//524 519//519
f 517//517 519//519 506//506
f 506//506 525//525 517//517
f 373//373 374//374 517//517
f 537//537 523//523 522//522
f 518//518 519//519 524//524
f 518//518 523//523 537//537
f 525//525 373//373 517//517
f 525//525 526//526 373//373
f 517//517 374//374 524//524
f 524//524 523//523 518//518
f 537//537 522//522 521//521
f 537//537 521//521 550//550
f 531//531 550//550 521//521
f 526//526 525//525 520//520
f 518//518 528//528 519//519
f 528//528 506//506 519//519
f 506//506 527//527 525//525
f 505//505 501//501 520//520
f 570//570 533//533 576//576
f 542//542 533//533 536//536
f 553//553 534//534 570//570
f 532//532 569//569 529//529
f 532//532 535//535 572//572
f 568//568 572//572 535//535
f 565//565 568//568 535//535
f 533//533 570//570 534//534
f 542//542 576//576 533//533
f 531//531 529//529 544//544
f 544//544 529//529 569//569
f 576//576 542//542 539//539
f 535//535 532//532 529//529
f 536//536 504//504 530//530
f 534//534 504//504 536//536
f 542//542 536//536 530//530
f 535//535 552//552 565//565
f 552//552 534//534 553//553
f 536//536 533//533 534//534
f 565//565 552//552 553//553
f 512//512 552//552 535//535
f 512//512 535//535 529//529
f 598//598 599//599 540//540
f 539//539 577//577 596//596
f 544//544 601//601 549//549
f 589//589 578//578 543//543
f 546//546 578//578 672//672
f 546//546 543//543 578//578
f 550//550 549//549 543//543
f 541//541 545//545 540//540
f 541//541 540//540 599//599
f 549//549 589//589 543//543
f 544//544 549//549 531//531
f 550//550 543//543 537//537
f 548//548 547//547 530//530
f 537//537 543//543 546//546
f 548//548 545//545 547//547
f 528//528 545//545 548//548
f 548//548 538//538 508//508
f 528//528 518//518 545//545
f 508//508 528//528 548//548
f 551//551 537//537 546//546
f 540//540 545//545 518//518
f 540//540 518//518 551//551
f 551//551 518//518 537//537
f 539//539 542//542 530//530
f 539//539 530//530 547//547
f 541//541 539//539 547//547
f 597//597 551//551 546//546
f 541//541 547//547 545//545
f 531//531 549//549 550//550
f 558//558 573//573 559//559
f 574//574 606//606 638//638
f 603//603 606//606 574//574
f 582//582 600//600 608//608
f 594//594 595//595 598//598
f 591//591 596//596 577//577
f 584//584 587//587 593//593
f 555//555 556//556 562//562
f 555//555 562//562 630//630
f 556//556 564//564 562//562
f 564//564 561//561 562//562
f 607//607 556//556 555//555
f 554//554 607//607 555//555
f 554//554 605//605 607//607
f 563//563 560//560 647//647
f 560//560 561//561 572//572
f 563//563 561//561 560//560
f 561//561 569//569 572//572
f 562//562 563//563 630//630
f 561//561 564//564 569//569
f 565//565 631//631 568//568
f 631//631 560//560 568//568
f 563//563 562//562 561//561
f 556//556 607//607 557//557
f 532//532 572//572 569//569
f 572//572 568//568 560//560
f 569//569 564//564 544//544
f 557//557 600//600 602//602
f 602//602 564//564 557//557
f 600//600 557//557 607//607
f 602//602 544//544 564//564
f 556//556 557//557 564//564
f 605//605 554//554 638//638
f 637//637 574//574 638//638
f 554//554 635//635 638//638
f 573//573 558//558 634//634
f 574//574 637//637 558//558
f 638//638 606//606 605//605
f 566//566 631//631 565//565
f 559//559 574//574 558//558
f 632//632 567//567 634//634
f 567//567 632//632 566//566
f 567//567 573//573 634//634
f 571//571 573//573 567//567
f 571//571 604//604 573//573
f 603//603 574//574 559//559
f 603//603 559//559 575//575
f 565//565 553//553 566//566
f 566//566 553//553 570//570
f 539//539 596//596 576//576
f 571//571 566//566 570//570
f 596//596 604//604 571//571
f 559//559 573//573 604//604
f 559//559 604//604 575//575
f 567//567 566//566 571//571
f 576//576 596//596 571//571
f 571//571 570//570 576//576
f 582//582 674//674 581//581
f 582//582 579//579 674//674
f 680//680 674//674 579//579
f 677//677 579//579 583//583
f 601//601 581//581 580//580
f 579//579 582//582 608//608
f 674//674 592//592 588//588
f 588//588 589//589 580//580
f 580//580 589//589 601//601
f 588//588 580//580 674//674
f 581//581 674//674 580//580
f 581//581 590//590 582//582
f 601//601 590//590 581//581
f 677//677 583//583 678//678
f 601//601 589//589 549//549
f 589//589 588//588 578//578
f 588//588 592//592 578//578
f 592//592 672//672 578//578
f 672//672 594//594 597//597
f 601//601 544//544 602//602
f 601//601 602//602 590//590
f 590//590 600//600 582//582
f 590//590 602//602 600//600
f 607//607 608//608 600//600
f 597//597 546//546 672//672
f 583//583 587//587 678//678
f 682//682 585//585 591//591
f 675//675 682//682 591//591
f 682//682 586//586 585//585
f 682//682 584//584 586//586
f 591//591 673//673 675//675
f 594//594 676//676 595//595
f 594//594 672//672 676//676
f 676//676 673//673 595//595
f 584//584 678//678 587//587
f 584//584 682//682 678//678
f 598//598 540//540 551//551
f 593//593 606//606 603//603
f 575//575 586//586 603//603
f 598//598 551//551 597//597
f 594//594 598//598 597//597
f 599//599 598//598 595//595
f 596//596 591//591 585//585
f 596//596 585//585 604//604
f 603//603 584//584 593//593
f 604//604 586//586 575//575
f 586//586 584//584 603//603
f 591//591 599//599 595//595
f 591//591 595//595 673//673
f 591//591 541//541 599//599
f 577//577 541//541 591//591
f 577//577 539//539 541//541
f 585//585 586//586 604//604
f 605//605 625//625 607//607
f 605//605 606//606 625//625
f 608//608 607//607 625//625
f 625//625 606//606 622//622
f 608//608 583//583 579//579
f 609//609 606//606 593//593
f 593//593 587//587 609//609
f 609//609 587//587 619//619
f 583//583 619//619 587//587
f 583//583 608//608 619//619
f 606//606 609//609 622//622
f 615//615 611//611 623//623
f 612//612 628//628 629//629
f 608//608 621//621 620//620
f 610//610 624//624 628//628
f 614//614 623//623 613//613
f 621//621 616//616 620//620
f 615//615 623//623 614//614
f 615//615 614//614 616//616
f 627//627 616//616 621//621
f 617//617 616//616 627//627
f 615//615 616//616 617//617
f 623//623 609//609 613//613
f 619//619 613//613 609//609
f 622//622 609//609 623//623
f 613//613 619//619 614//614
f 619//619 620//620 614//614
f 620//620 619//619 608//608
f 620//620 616//616 614//614
f 623//623 612//612 622//622
f 628//628 623//623 611//611
f 615//615 618//618 611//611
f 628//628 624//624 623//623
f 624//624 628//628 612//612
f 624//624 610//610 628//628
f 627//627 626//626 617//617
f 617//617 626//626 629//629
f 617//617 629//629 618//618
f 617//617 618//618 615//615
f 625//625 622//622 612//612
f 608//608 625//625 621//621
f 621//621 625//625 626//626
f 621//621 626//626 627//627
f 625//625 612//612 629//629
f 625//625 629//629 626//626
f 624//624 612//612 623//623
f 611//611 629//629 628//628
f 629//629 611//611 618//618
f 633//633 651//651 632//632
f 636//636 648//648 635//635
f 560//560 631//631 647//647
f 637//637 638//638 635//635
f 635//635 633//633 637//637
f 636//636 555//555 639//639
f 630//630 639//639 555//555
f 651//651 647//647 632//632
f 554//554 555//555 636//636
f 649//649 639//639 640//640
f 639//639 649//649 636//636
f 635//635 554//554 636//636
f 633//633 558//558 637//637
f 630//630 640//640 639//639
f 630//630 652//652 640//640
f 652//652 647//647 650//650
f 634//634 558//558 633//633
f 563//563 647//647 630//630
f 631//631 632//632 647//647
f 566//566 632//632 631//631
f 633//633 635//635 648//648
f 652//652 630//630 647//647
f 648//648 636//636 649//649
f 633//633 632//632 634//634
f 654//654 653//653 652//652
f 653//653 654//654 641//641
f 658//658 642//642 649//649
f 645//645 642//642 643//643
f 646//646 645//645 643//643
f 644//644 643//643 654//654
f 649//649 655//655 658//658
f 655//655 641//641 658//658
f 648//648 642//642 645//645
f 644//644 654//654 650//650
f 646//646 643//643 644//644
f 648//648 649//649 642//642
f 641//641 655//655 653//653
f 648//648 645//645 633//633
f 647//647 644//644 650//650
f 645//645 646//646 633//633
f 644//644 647//647 651//651
f 633//633 646//646 651//651
f 646//646 644//644 651//651
f 655//655 649//649 640//640
f 654//654 652//652 650//650
f 640//640 652//652 653//653
f 653//653 655//655 640//640
f 661//661 660//660 658//658
f 641//641 654//654 656//656
f 658//658 660//660 642//642
f 654//654 643//643 663//663
f 663//663 664//664 656//656
f 658//658 641//641 657//657
f 643//643 660//660 659//659
f 643//643 659//659 663//663
f 661//661 657//657 666//666
f 657//657 661//661 658//658
f 664//664 663//663 662//662
f 656//656 654//654 663//663
f 643//643 642//642 660//660
f 659//659 660//660 661//661
f 659//659 661//661 670//670
f 663//663 659//659 662//662
f 657//657 669//669 666//666
f 656//656 664//664 665//665
f 665//665 664//664 662//662
f 662//662 669//669 665//665
f 641//641 656//656 657//657
f 657//657 656//656 665//665
f 657//657 665//665 669//669
f 670//670 667//667 668//668
f 667//667 670//670 666//666
f 669//669 662//662 667//667
f 662//662 668//668 667//667
f 659//659 670//670 662//662
f 669//669 667//667 666//666
f 670//670 661//661 666//666
f 670//670 668//668 662//662
f 668//668 667//667 671//671
f 668//668 671//671 667//667
f 673//673 690//690 675//675
f 690//690 673//673 692//692
f 679//679 681//681 677//677
f 675//675 679//679 682//682
f 679//679 675//675 690//690
f 679//679 690//690 681//681
f 579//579 681//681 680//680
f 681//681 579//579 677//677
f 683//683 674//674 680//680
f 683//683 693//693 674//674
f 677//677 678//678 682//682
f 690//690 691//691 681//681
f 692//692 673//673 693//693
f 674//674 693//693 592//592
f 592//592 693//693 672//672
f 672//672 693//693 676//676
f 682//682 679//679 677//677
f 676//676 693//693 673//673
f 691//691 698//698 688//688
f 691//691 690//690 689//689
f 685//685 684//684 687//687
f 698//698 689//689 686//686
f 702//702 698//698 686//686
f 701//701 702//702 684//684
f 701//701 684//684 685//685
f 691//691 689//689 698//698
f 698//698 696//696 688//688
f 696//696 685//685 688//688
f 688//688 685//685 687//687
f 695//695 684//684 702//702
f 695//695 694//694 684//684
f 686//686 695//695 702//702
f 680//680 688//688 687//687
f 684//684 694//694 683//683
f 692//692 695//695 686//686
f 680//680 681//681 691//691
f 690//690 692//692 689//689
f 689//689 692//692 686//686
f 692//692 693//693 695//695
f 693//693 694//694 695//695
f 680//680 691//691 688//688
f 693//693 683//683 694//694
f 683//683 687//687 684//684
f 683//683 680//680 687//687
f 698//698 706//706 696//696
f 701//701 703//703 702//702
f 697//697 705//705 701//701
f 697//697 701//701 685//685
f 706//706 699//699 707//707
f 706//706 698//698 699//699
f 702//702 699//699 698//698
f 700//700 699//699 703//703
f 703//703 699//699 702//702
f 704//704 703//703 701//701
f 704//704 700//700 703//703
f 704//704 701//701 705//705
f 697//697 704//704 705//705
f 706//706 704//704 697//697
f 696//696 697//697 685//685
f 706//706 697//697 696//696
f 711//711 707//707 710//710
f 709//709 700//700 704//704
f 710//710 709//709 711//711
f 700//700 709//709 710//710
f 704//704 706//706 708//708
f 704//704 708//708 709//709
f 708//708 706//706 707//707
f 707//707 699//699 710//710
f 710//710 699//699 700//700
f 712//712 707//707 711//711
f 711//711 709//709 712//712
f 707//707 712//712 709//709
f 709//709 708//708 707//707
f 722//722 110//110 721//721
f 722//722 721//721 717//717
f 720//720 713//713 721//721
f 724//724 721//721 713//713
f 725//725 717//717 724//724
f 716//716 108//108 109//109
f 716//716 109//109 722//722
f 716//716 718//718 108//108
f 718//718 715//715 714//714
f 109//109 723//723 722//722
f 714//714 713//713 720//720
f 720//720 110//110 105//105
f 717//717 725//725 722//722
f 718//718 714//714 720//720
f 722//722 725//725 719//719
f 105//105 718//718 720//720
f 728//728 713//713 714//714
f 728//728 714//714 726//726
f 718//718 716//716 715//715
f 726//726 714//714 715//715
f 715//715 716//716 719//719
f 108//108 718//718 105//105
f 716//716 722//722 719//719
f 730//730 713//713 728//728
f 730//730 724//724 713//713
f 725//725 724//724 730//730
f 721//721 724//724 717//717
f 720//720 721//721 110//110
f 723//723 110//110 722//722
f 730//730 143//143 725//725
f 730//730 727//727 143//143
f 143//143 147//147 719//719
f 727//727 729//729 731//731
f 143//143 727//727 141//141
f 727//727 728//728 729//729
f 715//715 719//719 147//147
f 729//729 715//715 147//147
f 143//143 145//145 147//147
f 726//726 729//729 728//728
f 725//725 143//143 719//719
f 147//147 146//146 729//729
f 726//726 715//715 729//729
f 728//728 727//727 730//730
f 146//146 731//731 729//729
f 735//735 744//744 743//743
f 743//743 742//742 745//745
f 742//742 734//734 739//739
f 737//737 733//733 741//741
f 174//174 732//732 737//737
f 733//733 739//739 734//734
f 743//743 745//745 738//738
f 734//734 741//741 733//733
f 738//738 737//737 732//732
f 738//738 732//732 743//743
f 732//732 177//177 743//743
f 740//740 745//745 736//736
f 177//177 735//735 743//743
f 745//745 740//740 738//738
f 179//179 741//741 734//734
f 740//740 733//733 738//738
f 737//737 738//738 733//733
f 737//737 741//741 174//174
f 736//736 745//745 739//739
f 742//742 743//743 744//744
f 742//742 744//744 734//734
f 734//734 744//744 179//179
f 745//745 742//742 739//739
f 750//750 210//210 748//748
f 750//750 748//748 207//207
f 739//739 746//746 736//736
f 748//748 733//733 747//747
f 749//749 746//746 748//748
f 736//736 747//747 740//740
f 733//733 748//748 739//739
f 747//747 746//746 751//751
f 736//736 746//746 747//747
f 747//747 207//207 748//748
f 747//747 733//733 740//740
f 739//739 748//748 746//746
f 751//751 207//207 747//747
f 746//746 749//749 751//751
f 749//749 748//748 210//210
f 209//209 749//749 210//210
f 755//755 775//775 763//763
f 755//755 763//763 756//756
f 753//753 761//761 772//772
f 752//752 764//764 761//761
f 752//752 761//761 753//753
f 756//756 764//764 752//752
f 760//760 755//755 754//754
f 754//754 755//755 756//756
f 754//754 756//756 222//222
f 222//222 756//756 752//752
f 760//760 775//775 755//755
f 758//758 773//773 774//774
f 758//758 774//774 759//759
f 767//767 773//773 758//758
f 774//774 769//769 757//757
f 760//760 769//769 775//775
f 757//757 769//769 760//760
f 759//759 774//774 757//757
f 772//772 767//767 231//231
f 757//757 760//760 754//754
f 231//231 767//767 758//758
f 228//228 772//772 231//231
f 753//753 772//772 228//228
f 775//775 771//771 763//763
f 762//762 768//768 772//772
f 772//772 761//761 762//762
f 762//762 761//761 764//764
f 762//762 764//764 765//765
f 765//765 764//764 756//756
f 766//766 756//756 763//763
f 762//762 233//233 768//768
f 763//763 771//771 766//766
f 233//233 762//762 765//765
f 766//766 765//765 756//756
f 775//775 769//769 771//771
f 767//767 768//768 770//770
f 767//767 772//772 768//768
f 774//774 773//773 241//241
f 770//770 773//773 767//767
f 241//241 769//769 774//774
f 241//241 773//773 770//770
f 771//771 769//769 241//241
f 782//782 779//779 781//781
f 440//440 778//778 782//782
f 783//783 776//776 440//440
f 778//778 777//777 782//782
f 780//780 779//779 439//439
f 779//779 777//777 439//439
f 777//777 779//779 782//782
f 780//780 776//776 783//783
f 776//776 780//780 439//439
f 440//440 784//784 783//783
f 780//780 781//781 779//779
f 782//782 784//784 440//440
f 786//786 488//488 487//487
f 788//788 487//487 486//486
f 788//788 486//486 790//790
f 787//787 486//486 785//785
f 788//788 786//786 487//487
f 786//786 787//787 785//785
f 787//787 790//790 486//486
f 786//786 785//785 488//488
f 786//786 789//789 787//787
# 1576 faces, 0 coords texture

# End of File
