####
#
# OBJ File Generated by Meshlab
#
####
# Object wolf2.obj
#
# Vertices: 219
# Faces: 434
#
####
vn 0.284461 0.237988 -0.928678
v 0.175884 0.336790 -0.042501
vn 0.071274 0.963705 -0.257281
v 0.160619 0.538821 0.156165
vn 0.623325 0.043914 -0.780729
v 0.208200 0.305173 -0.024996
vn 0.147882 0.491181 -0.858412
v 0.123877 0.477150 -0.001656
vn 0.319204 0.212246 0.923613
v 0.176788 0.439503 0.240960
vn 0.599075 0.186496 0.778671
v 0.257002 0.431663 0.219313
vn 0.127389 -0.000577 0.991853
v 0.168718 0.336186 0.256533
vn 0.432158 -0.062593 0.899623
v 0.202057 0.261351 0.236933
vn 0.775897 -0.054219 0.628525
v 0.263837 0.287703 0.190717
vn -0.046307 0.912829 -0.405708
v 0.142123 0.526071 0.079091
vn -0.880997 -0.079515 0.466391
v 0.005774 0.270980 0.171947
vn -0.293311 0.080086 0.952657
v 0.092084 0.362519 0.250933
vn -0.880525 0.206309 0.426746
v 0.008067 0.455535 0.182020
vn -0.721586 -0.029477 0.691697
v 0.024060 0.375319 0.209058
vn 0.745720 0.120212 -0.655325
v 0.225131 0.105550 -0.085466
vn 0.918949 0.141705 -0.368038
v 0.260743 0.143813 -0.005401
vn 0.257828 0.075909 -0.963204
v 0.189885 0.112240 -0.106893
vn -0.374921 0.152345 -0.914454
v 0.096965 0.125784 -0.107435
vn -0.221181 0.276941 -0.935084
v 0.126634 0.252587 -0.078929
vn 0.552539 -0.038667 0.832590
v 0.219985 0.128146 0.227323
vn 0.919254 -0.027562 0.392698
v 0.255330 0.139083 0.192415
vn 0.958798 0.039885 -0.281276
v 0.261569 0.216518 0.034496
vn 0.914553 -0.348641 -0.205042
v 0.266292 0.248737 0.090534
vn -0.684859 0.261737 -0.680046
v 0.077611 0.162141 -0.080216
vn -0.904376 0.017388 -0.426383
v 0.029864 0.220666 0.023235
vn -0.871670 0.051638 0.487365
v 0.019785 0.143605 0.198625
vn -0.990542 0.124863 -0.056881
v -0.006158 0.132419 0.071266
vn -0.982349 -0.187011 0.004243
v 0.000209 0.269173 0.119437
vn -0.958539 0.029648 0.283414
v 0.009796 0.194597 0.172014
vn 0.945639 -0.180209 -0.270724
v 0.266587 0.041747 -0.010579
vn -0.025133 -0.391765 -0.919722
v 0.044219 -0.197454 -0.101816
vn 0.906185 0.167991 -0.388082
v 0.215451 -0.095537 -0.015644
vn 0.820447 -0.244007 -0.517037
v 0.234696 -0.002219 -0.065308
vn 0.547573 -0.253745 -0.797356
v 0.184130 -0.061529 -0.092839
vn -0.019089 0.000632 -0.999818
v 0.069568 -0.118368 -0.116681
vn 0.885923 -0.405996 0.224292
v 0.208742 -0.136050 0.144983
vn -0.161115 -0.898878 -0.407505
v -0.062972 -0.351448 0.042710
vn 0.033310 -0.891055 -0.452670
v -0.009342 -0.350943 0.012412
vn 0.449978 -0.892160 0.039641
v 0.058064 -0.335925 0.037076
vn 0.688687 -0.660670 0.298705
v 0.137969 -0.255993 0.132064
vn 0.988818 -0.147515 0.021887
v 0.215208 -0.138119 0.063037
vn 0.004791 -0.000650 0.999988
v 0.129968 0.086796 0.239890
vn 0.448165 0.026378 0.893562
v 0.218728 0.058189 0.222250
vn 0.831367 -0.204307 0.516805
v 0.238698 -0.036612 0.207500
vn 0.999129 0.018963 0.037160
v 0.288385 0.102612 0.092711
vn 0.949978 -0.312092 -0.011814
v 0.271493 0.009723 0.106958
vn 0.929193 -0.339154 -0.146886
v 0.234078 -0.023102 0.012989
vn -0.086053 -0.516252 -0.852103
v -0.015518 -0.130542 -0.106056
vn 0.227064 -0.004759 -0.973868
v 0.042085 -0.057591 -0.089423
vn -0.368086 0.195872 -0.908926
v 0.100947 -0.004057 -0.108452
vn -0.588048 0.400657 0.702619
v 0.022481 0.052379 0.199994
vn -0.746114 0.652742 0.131306
v -0.063549 -0.005213 0.176968
vn -0.839848 -0.176427 -0.513351
v -0.127774 -0.219771 -0.015501
vn -0.865100 0.498348 0.057016
v -0.009307 0.046654 0.111563
vn 0.014891 0.260726 0.965298
v 0.130507 0.007138 0.255741
vn -0.467121 -0.028874 0.883722
v 0.089327 0.227509 0.240111
vn -0.675215 0.623960 -0.393394
v 0.002345 0.011786 -0.013542
vn -0.799791 0.138421 -0.584101
v 0.024860 0.100977 -0.050754
vn 0.326176 0.841083 -0.431496
v 0.218562 -0.158772 -0.140367
vn -0.164891 -0.778529 -0.605560
v 0.133048 -0.227046 -0.082933
vn -0.093291 0.184368 -0.978420
v 0.121569 -0.161597 -0.095152
vn 0.934087 0.346564 -0.085877
v 0.236994 -0.123867 -0.063345
vn 0.909076 -0.383849 0.161990
v 0.206922 -0.197812 0.041069
vn 0.574654 -0.816824 -0.050716
v 0.175479 -0.246711 0.006296
vn 0.311296 -0.753761 -0.578739
v 0.106866 -0.277559 -0.043105
vn -0.512020 0.743481 -0.430200
v 0.187090 -0.171982 -0.146606
vn -0.860088 -0.457629 -0.225444
v 0.165359 -0.225155 -0.171804
vn 0.792911 -0.591016 0.148299
v 0.221275 -0.214505 -0.125427
vn 0.995859 0.054728 -0.072594
v 0.238435 -0.170116 -0.118591
vn 0.462475 -0.852642 0.243143
v 0.220528 -0.294766 -0.344901
vn -0.016848 -0.998041 0.060250
v 0.191571 -0.237295 -0.146279
vn 0.228552 0.892952 -0.387816
v 0.228440 -0.220326 -0.311890
vn 0.997093 -0.011968 -0.075244
v 0.231963 -0.251782 -0.295456
vn 0.556647 0.473624 -0.682513
v 0.204336 -0.274213 -0.430132
vn -0.762504 -0.153398 -0.628535
v 0.131861 -0.342726 -0.421997
vn -0.987457 0.108411 0.114787
v 0.169426 -0.266427 -0.337963
vn 0.357759 -0.931682 0.063073
v 0.214882 -0.350602 -0.422674
vn 0.407835 0.757502 -0.509765
v 0.041087 -0.000924 -0.087448
vn -0.483129 0.867024 -0.121886
v -0.048537 0.004625 0.002189
vn -0.934994 0.243159 -0.258186
v -0.072347 -0.044631 -0.058718
vn -0.925084 0.337264 -0.174565
v -0.117713 -0.096452 0.007465
vn -0.812764 -0.339858 -0.473193
v -0.039866 -0.102173 -0.128902
vn 0.962315 -0.271853 -0.006735
v 0.011783 -0.099726 -0.324121
vn -0.208522 -0.886860 0.412307
v -0.016402 -0.137337 -0.364568
vn -0.647244 -0.750662 -0.132595
v -0.029809 -0.101170 -0.197097
vn 0.721889 0.671252 -0.168214
v 0.029022 0.009405 -0.128695
vn 0.845411 -0.515743 -0.138885
v 0.012205 -0.084630 -0.158510
vn -0.529908 0.806623 -0.261833
v -0.022072 -0.063952 -0.310166
vn -0.487920 0.837575 -0.245769
v -0.005566 0.000471 -0.149532
vn 0.320997 0.866741 -0.381734
v 0.005610 -0.072127 -0.348725
vn -0.716052 0.668446 -0.201119
v -0.038155 -0.105323 -0.408095
vn -0.977858 0.174019 -0.116235
v -0.036443 -0.062556 -0.226919
vn 0.239142 -0.941943 -0.235701
v -0.037824 -0.224856 -0.460723
vn 0.782339 0.184064 -0.595034
v 0.003727 -0.136588 -0.476249
vn -0.960107 0.132455 -0.246271
v -0.084712 -0.168414 -0.475536
vn 0.669848 -0.463830 0.579797
v 0.140145 -0.173276 0.243030
vn 0.417035 -0.092543 0.904167
v 0.079256 -0.177443 0.282934
vn 0.474358 -0.085405 0.876180
v 0.165735 -0.089385 0.255286
vn 0.452593 -0.891635 -0.012074
v -0.018470 -0.342296 0.120324
vn -0.866061 -0.254370 -0.430389
v -0.133811 -0.305220 0.071271
vn -0.462599 0.593347 0.658742
v -0.018499 0.018401 0.225030
vn -0.487388 -0.519986 -0.701475
v -0.096207 -0.288887 -0.023004
vn 0.269189 0.405360 0.873625
v -0.030730 -0.204243 0.333338
vn -0.036288 0.365792 0.929989
v -0.006034 -0.078987 0.265626
vn 0.673045 -0.194157 0.713662
v -0.008559 -0.261122 0.325470
vn 0.923254 -0.084554 0.374770
v -0.052322 -0.345503 0.333899
vn 0.738987 -0.663040 -0.119484
v -0.028339 -0.377740 0.214341
vn 0.295500 -0.922813 -0.247175
v -0.092193 -0.398027 0.154424
vn 0.662782 -0.626074 0.410793
v 0.055936 -0.254473 0.244194
vn -0.862812 0.460235 0.209140
v -0.118848 -0.122145 0.206622
vn -0.121983 0.748923 0.651333
v -0.105796 -0.200468 0.346984
vn -0.802455 0.285988 -0.523715
v -0.176717 -0.260818 0.164454
vn -0.577210 -0.595916 -0.558313
v -0.147469 -0.397143 0.141722
vn -0.964902 0.241674 -0.102755
v -0.138660 -0.172918 0.140561
vn -0.425557 0.593092 0.683479
v -0.085581 -0.114117 0.269871
vn -0.506891 0.861178 0.037874
v -0.155971 -0.221325 0.305601
vn -0.204797 -0.393242 0.896337
v -0.143071 -0.333395 0.411034
vn 0.249487 0.338332 0.907352
v -0.101470 -0.291830 0.411167
vn -0.020876 -0.938524 0.344582
v -0.095447 -0.416338 0.300909
vn -0.960394 -0.225091 0.164247
v -0.316795 -0.489064 0.302321
vn -0.121196 -0.640846 0.758042
v -0.215671 -0.428216 0.337298
vn 0.323984 -0.908693 0.263271
v -0.178328 -0.432769 0.301953
vn -0.146830 -0.962729 0.227141
v -0.170304 -0.424458 0.232886
vn 0.195020 -0.970757 -0.139995
v -0.093623 -0.409762 0.216562
vn 0.589568 -0.795859 0.137902
v -0.032135 -0.438975 0.295360
vn -0.697003 0.096560 0.710537
v -0.218701 -0.313196 0.375888
vn -0.800362 0.485496 -0.351731
v -0.241100 -0.237482 0.224036
vn -0.748134 -0.119723 -0.652657
v -0.212009 -0.326684 0.199050
vn -0.941520 0.235832 0.240673
v -0.248458 -0.352487 0.301328
vn 0.210095 -0.865425 -0.454863
v -0.238902 -0.484649 0.262356
vn -0.484290 -0.604760 0.632241
v -0.144284 -0.374020 0.261764
vn -0.917636 -0.023822 -0.396707
v -0.224591 -0.349490 0.226220
vn -0.818859 -0.177484 0.545865
v -0.221520 -0.379090 0.226966
vn -0.939470 -0.317750 -0.128186
v -0.225003 -0.449179 0.198209
vn 0.579378 -0.011664 0.814975
v -0.076350 -0.328339 0.426099
vn 0.376891 -0.659618 0.650275
v -0.070805 -0.362865 0.390593
vn -0.511546 0.855267 0.082701
v -0.214177 -0.208276 0.353842
vn -0.412392 0.566817 0.713198
v -0.178275 -0.231555 0.383329
vn -0.925031 0.361288 0.117426
v -0.216618 -0.239690 0.317463
vn -0.562789 0.631076 -0.533865
v 0.195082 0.498055 -0.000794
vn -0.078886 0.995501 -0.052480
v 0.229010 0.562377 0.051383
vn -0.361738 -0.226672 -0.904304
v 0.197856 0.378114 -0.032241
vn 0.403067 -0.546875 -0.733801
v 0.249699 0.303168 -0.010101
vn -0.373668 0.903521 -0.209815
v 0.187275 0.541296 0.064655
vn 0.942440 0.098881 0.319420
v 0.284427 0.425899 0.174192
vn 0.191361 0.841775 0.504773
v 0.223234 0.543675 0.161916
vn 0.715157 0.606572 0.347306
v 0.272276 0.527284 0.126544
vn 0.827765 0.560730 0.019673
v 0.287967 0.529311 0.055636
vn 0.997569 0.064625 -0.026065
v 0.300246 0.416825 -0.033980
vn 0.973239 -0.036789 0.226833
v 0.299306 0.327398 0.136007
vn 0.942551 -0.189528 0.275095
v 0.290806 0.279444 0.149749
vn 0.843332 -0.461962 -0.274559
v 0.295042 0.311114 0.019265
vn -0.623806 0.295328 -0.723635
v 0.183912 0.444957 -0.016334
vn -0.393617 0.919212 -0.010700
v 0.236665 0.547726 -0.085785
vn -0.967707 0.013939 -0.251692
v 0.214905 0.514587 -0.173969
vn 0.904145 0.397899 0.155559
v 0.264535 0.524036 -0.111597
vn 0.837304 -0.315654 -0.446414
v 0.290942 0.495249 -0.199345
vn 0.816130 -0.425862 -0.390606
v 0.289429 0.382220 -0.072181
vn -0.089817 -0.744335 -0.661739
v 0.252394 0.368137 -0.106405
vn 0.052153 0.934683 0.351635
v 0.272741 0.624695 -0.225423
vn 0.901959 -0.426904 -0.064991
v 0.298977 0.597483 -0.282225
vn 0.007657 -0.640254 -0.768125
v 0.257994 0.457513 -0.189492
vn -0.790905 -0.426676 -0.438653
v 0.241075 0.594713 -0.272037
vn 0.860856 0.325086 -0.391467
v 0.300414 0.632668 -0.411100
vn -0.152010 -0.932498 0.327630
v 0.248378 0.588382 -0.377878
vn -0.839123 0.488242 -0.239777
v 0.236290 0.645007 -0.428698
vn 0.732486 -0.608954 0.304367
v 0.298341 0.547865 -0.442148
vn -0.368309 -0.281596 -0.886032
v 0.253023 0.534278 -0.449383
vn 0.441217 0.864614 -0.240354
v 0.081985 0.545821 0.059121
vn -0.711274 0.635806 0.299733
v 0.022773 0.539363 0.122426
vn -0.381485 0.924289 -0.012589
v 0.029821 0.566758 0.018479
vn 0.182493 0.982370 0.040552
v 0.042284 0.545872 -0.086752
vn -0.350459 -0.403894 -0.845014
v 0.056292 0.310890 -0.008592
vn -0.868068 0.496013 0.020694
v 0.015364 0.520969 -0.078394
vn -0.962771 0.267695 0.037566
v -0.009728 0.495067 0.040813
vn -0.972818 -0.014152 0.231138
v -0.010363 0.376872 0.148146
vn -0.986185 -0.031847 -0.162560
v -0.011523 0.436988 -0.101808
vn -0.885274 -0.350852 -0.305274
v -0.016077 0.337321 -0.008506
vn 0.556466 -0.109278 -0.823653
v 0.086838 0.383162 -0.031033
vn 0.829159 0.399199 -0.391326
v 0.092356 0.477319 -0.024912
vn 0.194254 -0.852301 -0.485643
v 0.031472 0.587769 -0.308569
vn 0.308692 -0.662369 -0.682624
v 0.035208 0.386330 -0.125374
vn 0.112193 -0.683217 -0.721545
v 0.025939 0.529385 -0.235847
vn 0.961411 -0.058372 -0.268851
v 0.063463 0.529048 -0.189855
vn -0.552963 -0.676043 -0.487030
v 0.014263 0.348578 -0.067056
vn -0.881711 0.377641 0.282795
v 0.013245 0.550480 -0.169493
vn -0.913653 -0.312177 -0.260351
v -0.014469 0.581057 -0.269691
vn -0.897449 -0.274460 -0.345337
v -0.007450 0.517186 -0.217017
vn 0.858157 0.513127 -0.016366
v 0.041832 0.641883 -0.355661
vn -0.351575 0.857123 0.376478
v 0.013138 0.630898 -0.237714
vn 0.264409 0.674749 -0.689058
v 0.047497 0.633906 -0.451499
vn 0.637095 -0.770782 -0.002179
v 0.045341 0.562712 -0.423209
vn -0.436314 -0.615237 -0.656592
v -0.018411 0.550918 -0.451238
vn -0.977494 0.207594 -0.037555
v -0.010014 0.631602 -0.336806
vn 0.655611 -0.089382 0.749790
v 0.176280 0.580654 0.230482
vn 0.969705 0.207713 -0.128557
v 0.192075 0.523896 0.189539
vn -0.468269 0.875453 0.119606
v 0.087170 0.537571 0.174184
vn -0.584798 0.519805 0.622747
v 0.027418 0.499180 0.182978
vn -0.225488 -0.023855 0.973954
v 0.130473 0.526742 0.237394
vn -0.539077 0.302910 0.785902
v 0.038211 0.446587 0.218551
vn -0.762595 0.166393 0.625109
v 0.098997 0.519056 0.211798
vn -0.907009 -0.056891 -0.417251
v 0.092415 0.575704 0.179995
vn 0.985513 -0.060535 0.158427
v 0.213375 0.701940 0.199425
vn 0.198779 0.000549 -0.980044
v 0.159940 0.800946 0.122151
vn 0.867581 0.030442 -0.496363
v 0.202018 0.805484 0.147773
vn 0.008433 -0.024935 -0.999653
v 0.145376 0.591034 0.158994
vn 0.751656 -0.045431 0.657989
v 0.200996 0.742050 0.241772
vn 0.252619 -0.004845 0.967554
v 0.163584 0.739052 0.261402
vn -0.882523 -0.118274 0.455152
v 0.077940 0.700995 0.225792
vn -0.971655 -0.026161 -0.234950
v 0.073575 0.733464 0.177463
vn -0.501819 -0.079342 -0.861326
v 0.100002 0.773850 0.132585
vn 0.755027 0.188590 0.627987
v 0.202250 0.865874 0.226066
vn -0.483923 0.281379 0.828640
v 0.112987 0.945072 0.231498
vn -0.952862 0.302083 -0.028294
v 0.080014 0.896027 0.190238
vn -0.284223 0.035534 0.958099
v 0.115575 0.750359 0.259631
vn -0.881532 0.036361 0.470723
v 0.074693 0.757396 0.229996
vn 0.620836 0.362155 -0.695275
v 0.184349 0.937081 0.160385
vn -0.264551 0.964116 -0.022187
v 0.157281 1.012779 0.214318
vn -0.559210 0.310441 -0.768707
v 0.097776 0.898220 0.144353
# 219 vertices, 0 vertices normals

f 143//143 3//3 142//142
f 8//8 6//6 7//7
f 200//200 13//13 14//14
f 12//12 14//14 56//56
f 10//10 140//140 4//4
f 142//142 1//1 153//153
f 3//3 1//1 142//142
f 140//140 10//10 144//144
f 2//2 144//144 10//10
f 3//3 22//22 16//16
f 3//3 16//16 15//15
f 1//1 3//3 15//15
f 1//1 15//15 17//17
f 19//19 1//1 17//17
f 4//4 1//1 19//19
f 4//4 153//153 1//1
f 4//4 140//140 153//153
f 143//143 22//22 3//3
f 2//2 196//196 146//146
f 6//6 147//147 146//146
f 145//145 147//147 6//6
f 6//6 5//5 7//7
f 9//9 145//145 6//6
f 9//9 6//6 8//8
f 150//150 145//145 9//9
f 151//151 150//150 9//9
f 23//23 152//152 151//151
f 5//5 6//6 146//146
f 5//5 146//146 196//196
f 199//199 12//12 5//5
f 5//5 12//12 7//7
f 143//143 152//152 23//23
f 143//143 23//23 22//22
f 173//173 19//19 24//24
f 169//169 10//10 4//4
f 169//169 4//4 180//180
f 2//2 10//10 169//169
f 173//173 24//24 25//25
f 18//18 24//24 19//19
f 173//173 179//179 19//19
f 4//4 19//19 179//179
f 25//25 178//178 173//173
f 169//169 197//197 2//2
f 200//200 198//198 13//13
f 199//199 201//201 12//12
f 12//12 200//200 14//14
f 14//14 13//13 176//176
f 7//7 12//12 56//56
f 56//56 14//14 11//11
f 11//11 14//14 176//176
f 29//29 28//28 25//25
f 200//200 12//12 201//201
f 25//25 28//28 178//178
f 15//15 16//16 30//30
f 15//15 30//30 33//33
f 19//19 17//17 18//18
f 42//42 20//20 8//8
f 21//21 20//20 43//43
f 9//9 8//8 20//20
f 21//21 44//44 45//45
f 151//151 9//9 20//20
f 151//151 20//20 21//21
f 22//22 21//21 45//45
f 23//23 151//151 21//21
f 23//23 21//21 22//22
f 16//16 45//45 30//30
f 22//22 45//45 16//16
f 8//8 7//7 42//42
f 45//45 46//46 30//30
f 58//58 25//25 24//24
f 18//18 58//58 24//24
f 51//51 56//56 26//26
f 29//29 26//26 56//56
f 29//29 56//56 11//11
f 27//27 54//54 26//26
f 29//29 11//11 28//28
f 57//57 54//54 27//27
f 27//27 26//26 29//29
f 25//25 27//27 29//29
f 58//58 27//27 25//25
f 56//56 42//42 7//7
f 35//35 17//17 34//34
f 47//47 46//46 41//41
f 50//50 17//17 35//35
f 53//53 114//114 81//81
f 38//38 31//31 65//65
f 31//31 38//38 102//102
f 33//33 30//30 47//47
f 34//34 33//33 32//32
f 34//34 32//32 61//61
f 17//17 15//15 33//33
f 17//17 33//33 34//34
f 35//35 34//34 61//61
f 31//31 61//61 60//60
f 31//31 35//35 61//61
f 65//65 31//31 60//60
f 32//32 33//33 47//47
f 96//96 44//44 98//98
f 63//63 41//41 36//36
f 37//37 38//38 99//99
f 99//99 38//38 39//39
f 36//36 96//96 40//40
f 44//44 96//96 36//36
f 41//41 62//62 32//32
f 40//40 63//63 36//36
f 64//64 63//63 40//40
f 64//64 40//40 39//39
f 41//41 46//46 36//36
f 39//39 40//40 109//109
f 39//39 109//109 99//99
f 43//43 42//42 55//55
f 43//43 55//55 98//98
f 43//43 20//20 42//42
f 43//43 98//98 44//44
f 21//21 43//43 44//44
f 45//45 44//44 46//46
f 30//30 46//46 47//47
f 46//46 44//44 36//36
f 32//32 47//47 41//41
f 48//48 53//53 82//82
f 57//57 50//50 78//78
f 50//50 58//58 18//18
f 31//31 102//102 48//48
f 50//50 57//57 58//58
f 49//49 78//78 50//50
f 50//50 18//18 17//17
f 49//49 50//50 35//35
f 48//48 49//49 35//35
f 48//48 35//35 31//31
f 101//101 51//51 52//52
f 79//79 80//80 81//81
f 100//100 53//53 102//102
f 53//53 100//100 114//114
f 38//38 37//37 102//102
f 51//51 54//54 52//52
f 54//54 57//57 79//79
f 52//52 79//79 81//81
f 110//110 52//52 81//81
f 114//114 110//110 81//81
f 53//53 48//48 102//102
f 79//79 52//52 54//54
f 79//79 57//57 78//78
f 55//55 51//51 101//101
f 42//42 56//56 51//51
f 42//42 51//51 55//55
f 54//54 51//51 26//26
f 58//58 57//57 27//27
f 61//61 59//59 66//66
f 59//59 61//61 32//32
f 67//67 60//60 61//61
f 66//66 67//67 61//61
f 60//60 64//64 65//65
f 63//63 62//62 41//41
f 39//39 38//38 65//65
f 71//71 68//68 64//64
f 64//64 60//60 71//71
f 68//68 63//63 64//64
f 69//69 63//63 68//68
f 62//62 59//59 32//32
f 63//63 69//69 62//62
f 64//64 39//39 65//65
f 76//76 67//67 66//66
f 66//66 59//59 72//72
f 73//73 59//59 69//69
f 73//73 72//72 59//59
f 73//73 69//69 68//68
f 70//70 73//73 68//68
f 70//70 68//68 71//71
f 67//67 70//70 71//71
f 76//76 70//70 67//67
f 59//59 62//62 69//69
f 67//67 71//71 60//60
f 77//77 70//70 76//76
f 74//74 76//76 72//72
f 72//72 76//76 66//66
f 73//73 70//70 74//74
f 73//73 74//74 72//72
f 77//77 75//75 74//74
f 77//77 76//76 75//75
f 76//76 74//74 75//75
f 77//77 74//74 70//70
f 82//82 80//80 85//85
f 48//48 82//82 85//85
f 49//49 48//48 87//87
f 82//82 53//53 81//81
f 79//79 89//89 80//80
f 79//79 86//86 89//89
f 79//79 78//78 86//86
f 80//80 82//82 81//81
f 89//89 86//86 90//90
f 83//83 90//90 86//86
f 78//78 49//49 87//87
f 78//78 87//87 86//86
f 86//86 87//87 83//83
f 48//48 85//85 87//87
f 87//87 85//85 84//84
f 83//83 87//87 84//84
f 89//89 90//90 88//88
f 85//85 92//92 84//84
f 85//85 80//80 92//92
f 92//92 89//89 88//88
f 80//80 89//89 92//92
f 90//90 83//83 94//94
f 94//94 91//91 90//90
f 90//90 91//91 88//88
f 92//92 88//88 91//91
f 84//84 92//92 91//91
f 94//94 84//84 93//93
f 93//93 95//95 94//94
f 94//94 83//83 84//84
f 95//95 91//91 94//94
f 84//84 91//91 95//95
f 93//93 84//84 95//95
f 37//37 108//108 113//113
f 99//99 108//108 37//37
f 109//109 40//40 96//96
f 104//104 103//103 97//97
f 96//96 97//97 109//109
f 98//98 97//97 96//96
f 98//98 55//55 97//97
f 104//104 97//97 55//55
f 113//113 100//100 37//37
f 104//104 101//101 115//115
f 110//110 115//115 101//101
f 101//101 52//52 110//110
f 101//101 104//104 55//55
f 37//37 100//100 102//102
f 103//103 118//118 105//105
f 105//105 118//118 106//106
f 108//108 123//123 113//113
f 123//123 108//108 124//124
f 125//125 107//107 106//106
f 125//125 124//124 107//107
f 108//108 107//107 124//124
f 104//104 115//115 103//103
f 105//105 106//106 109//109
f 109//109 106//106 107//107
f 99//99 107//107 108//108
f 99//99 109//109 107//107
f 109//109 97//97 105//105
f 97//97 103//103 105//105
f 112//112 113//113 128//128
f 116//116 110//110 114//114
f 116//116 114//114 112//112
f 111//111 115//115 116//116
f 103//103 115//115 111//111
f 100//100 112//112 114//114
f 100//100 113//113 112//112
f 110//110 116//116 115//115
f 124//124 125//125 119//119
f 121//121 119//119 117//117
f 125//125 106//106 136//136
f 121//121 130//130 122//122
f 122//122 130//130 124//124
f 121//121 117//117 126//126
f 119//119 121//121 122//122
f 124//124 119//119 122//122
f 125//125 136//136 119//119
f 136//136 117//117 119//119
f 116//116 138//138 111//111
f 138//138 118//118 111//111
f 112//112 127//127 116//116
f 103//103 111//111 118//118
f 118//118 126//126 117//117
f 138//138 126//126 118//118
f 139//139 129//129 126//126
f 139//139 132//132 129//129
f 139//139 116//116 127//127
f 129//129 120//120 121//121
f 132//132 130//130 120//120
f 129//129 121//121 126//126
f 129//129 132//132 120//120
f 134//134 128//128 123//123
f 128//128 133//133 132//132
f 134//134 133//133 128//128
f 128//128 113//113 123//123
f 132//132 139//139 127//127
f 127//127 128//128 132//132
f 128//128 127//127 112//112
f 130//130 131//131 124//124
f 131//131 130//130 132//132
f 124//124 131//131 123//123
f 133//133 131//131 132//132
f 133//133 123//123 131//131
f 134//134 123//123 133//133
f 130//130 121//121 120//120
f 118//118 117//117 135//135
f 135//135 136//136 106//106
f 118//118 135//135 106//106
f 136//136 135//135 117//117
f 116//116 139//139 137//137
f 138//138 116//116 137//137
f 138//138 139//139 126//126
f 139//139 138//138 137//137
f 140//140 154//154 153//153
f 140//140 144//144 141//141
f 154//154 140//140 141//141
f 142//142 159//159 143//143
f 155//155 159//159 142//142
f 155//155 142//142 153//153
f 144//144 2//2 146//146
f 144//144 146//146 141//141
f 147//147 141//141 146//146
f 154//154 141//141 148//148
f 148//148 149//149 156//156
f 148//148 147//147 145//145
f 149//149 148//148 145//145
f 149//149 145//145 150//150
f 152//152 149//149 150//150
f 158//158 149//149 152//152
f 152//152 150//150 151//151
f 159//159 158//158 152//152
f 143//143 159//159 152//152
f 158//158 157//157 149//149
f 141//141 147//147 148//148
f 148//148 156//156 154//154
f 155//155 153//153 154//154
f 155//155 162//162 159//159
f 163//163 162//162 155//155
f 160//160 155//155 154//154
f 160//160 163//163 155//155
f 156//156 161//161 160//160
f 156//156 160//160 154//154
f 157//157 156//156 149//149
f 157//157 161//161 156//156
f 162//162 158//158 159//159
f 162//162 157//157 158//158
f 157//157 163//163 161//161
f 162//162 163//163 157//157
f 166//166 163//163 160//160
f 163//163 165//165 161//161
f 164//164 166//166 160//160
f 161//161 164//164 160//160
f 164//164 161//161 165//165
f 165//165 167//167 164//164
f 165//165 163//163 166//166
f 165//165 166//166 168//168
f 164//164 168//168 166//166
f 167//167 168//168 164//164
f 167//167 165//165 168//168
f 182//182 173//173 185//185
f 4//4 179//179 180//180
f 169//169 180//180 172//172
f 170//170 197//197 171//171
f 173//173 182//182 179//179
f 169//169 172//172 171//171
f 171//171 197//197 169//169
f 198//198 170//170 13//13
f 175//175 13//13 170//170
f 175//175 170//170 171//171
f 171//171 174//174 175//175
f 177//177 175//175 174//174
f 176//176 13//13 175//175
f 176//176 175//175 178//178
f 11//11 176//176 28//28
f 28//28 176//176 178//178
f 178//178 185//185 173//173
f 178//178 177//177 185//185
f 171//171 172//172 174//174
f 175//175 177//177 178//178
f 198//198 197//197 170//170
f 184//184 180//180 179//179
f 189//189 190//190 184//184
f 179//179 182//182 184//184
f 184//184 182//182 183//183
f 172//172 180//180 184//184
f 172//172 184//184 190//190
f 183//183 181//181 184//184
f 181//181 189//189 184//184
f 174//174 172//172 186//186
f 186//186 172//172 190//190
f 186//186 190//190 187//187
f 174//174 186//186 188//188
f 174//174 188//188 177//177
f 186//186 187//187 188//188
f 177//177 188//188 185//185
f 182//182 185//185 188//188
f 182//182 188//188 183//183
f 183//183 188//188 187//187
f 181//181 192//192 189//189
f 190//190 189//189 194//194
f 187//187 190//190 194//194
f 187//187 194//194 181//181
f 181//181 194//194 192//192
f 183//183 187//187 181//181
f 192//192 191//191 189//189
f 194//194 191//191 193//193
f 192//192 193//193 191//191
f 193//193 192//192 194//194
f 191//191 194//194 189//189
f 196//196 195//195 5//5
f 196//196 203//203 195//195
f 206//206 204//204 196//196
f 208//208 199//199 195//195
f 195//195 199//199 5//5
f 196//196 2//2 206//206
f 206//206 2//2 197//197
f 201//201 209//209 202//202
f 202//202 211//211 206//206
f 199//199 215//215 209//209
f 199//199 209//209 201//201
f 199//199 208//208 215//215
f 197//197 198//198 200//200
f 197//197 200//200 201//201
f 197//197 201//201 202//202
f 202//202 206//206 197//197
f 208//208 195//195 207//207
f 203//203 207//207 195//195
f 196//196 205//205 203//203
f 204//204 205//205 196//196
f 212//212 203//203 205//205
f 207//207 203//203 212//212
f 209//209 210//210 202//202
f 202//202 210//210 211//211
f 215//215 216//216 209//209
f 209//209 216//216 210//210
f 211//211 204//204 206//206
f 212//212 205//205 217//217
f 207//207 212//212 208//208
f 204//204 217//217 205//205
f 212//212 213//213 215//215
f 212//212 215//215 208//208
f 215//215 213//213 216//216
f 216//216 213//213 214//214
f 216//216 214//214 210//210
f 210//210 214//214 219//219
f 210//210 219//219 211//211
f 219//219 204//204 211//211
f 219//219 217//217 204//204
f 217//217 219//219 218//218
f 212//212 218//218 213//213
f 218//218 212//212 217//217
f 213//213 218//218 214//214
f 214//214 218//218 219//219
# 434 faces, 0 coords texture

# End of File
