####
#
# OBJ File Generated by Meshlab
#
####
# Object wolf0.obj
#
# Vertices: 219
# Faces: 434
#
####
vn 0.334198 0.554093 -0.762425
v -0.030920 0.507687 0.013115
vn 0.226044 0.010197 -0.974064
v 0.044831 0.373799 -0.021390
vn -0.096367 0.790807 -0.604432
v 0.002765 0.561629 0.162224
vn 0.025383 0.267619 -0.963191
v 0.000284 0.233759 -0.081370
vn -0.046572 0.268916 -0.962037
v -0.004419 0.468529 -0.002315
vn 0.486323 0.142068 0.862152
v 0.031989 0.472562 0.238920
vn 0.120406 0.016597 0.992586
v 0.028048 0.377931 0.253007
vn 0.586356 -0.003569 0.810046
v 0.106822 0.410801 0.219433
vn -0.013396 0.905456 -0.424228
v -0.000172 0.549723 0.086578
vn -0.236523 0.071234 0.969011
v -0.009140 0.544495 0.237719
vn -0.556857 0.353073 0.751831
v -0.095720 0.473481 0.220390
vn -0.860724 0.167608 0.480688
v -0.127537 0.482712 0.184372
vn -0.503123 0.001880 0.864213
v -0.085428 0.398005 0.235130
vn -0.442353 -0.046977 0.895610
v -0.057348 0.298802 0.236100
vn -0.776950 -0.057731 0.626910
v -0.120474 0.396510 0.195003
vn 0.877818 0.094136 -0.469653
v 0.108348 0.258881 0.035731
vn 0.407857 0.139848 -0.902272
v 0.053184 0.168667 -0.087403
vn 0.437530 -0.026979 0.898799
v 0.080965 0.153242 0.224001
vn 0.429201 -0.053093 0.901647
v 0.054388 0.301888 0.237192
vn 0.828528 -0.081940 0.553919
v 0.111844 0.254914 0.193011
vn 0.994998 -0.099773 0.004955
v 0.121907 0.270067 0.129454
vn 0.994890 0.083789 -0.056327
v 0.141685 0.153505 0.073342
vn -0.665733 0.164333 -0.727869
v -0.068213 0.154271 -0.077013
vn -0.214694 0.111768 -0.970265
v -0.038513 0.168534 -0.089039
vn -0.417093 0.251799 -0.873287
v -0.030386 0.312542 -0.050167
vn -0.410865 -0.000809 0.911696
v -0.074038 0.198458 0.231396
vn -0.932449 -0.040380 0.359038
v -0.120933 0.206368 0.181131
vn -0.993914 0.095092 0.055617
v -0.140034 0.159619 0.089610
vn -0.902966 0.086300 -0.420956
v -0.108333 0.269627 0.036554
vn 0.837839 0.025621 -0.545317
v 0.102633 0.116065 -0.052731
vn 0.088462 -0.388510 -0.917188
v 0.014474 -0.167771 -0.083735
vn 0.926932 0.354410 -0.123254
v 0.128928 -0.015918 0.053734
vn 0.477634 -0.025445 -0.878190
v 0.051080 0.022094 -0.083040
vn -0.016347 0.037827 -0.999151
v -0.004594 -0.001424 -0.093157
vn 0.177556 -0.032833 -0.983563
v 0.026826 -0.083481 -0.101400
vn -0.214775 -0.407365 -0.887651
v 0.076510 -0.121925 -0.082809
vn 0.972530 0.232768 0.002173
v 0.153777 -0.051012 0.026183
vn 0.772003 0.015558 0.635428
v 0.116572 -0.096073 0.251261
vn 0.379849 -0.697616 -0.607492
v 0.061352 -0.302986 0.011910
vn 0.965594 -0.246685 0.082306
v 0.103245 -0.228670 0.176854
vn 0.876425 -0.468776 -0.110125
v 0.126405 -0.235184 0.047120
vn 0.981152 -0.149390 0.122569
v 0.150213 -0.153338 0.094266
vn 0.979505 0.137221 0.147449
v 0.136010 -0.019250 0.169645
vn 0.840902 0.065702 0.537184
v 0.115262 0.079074 0.194475
vn 0.272697 0.064071 0.959964
v 0.037083 0.107426 0.234587
vn 0.056271 -0.037806 0.997699
v 0.003695 0.147091 0.240497
vn -0.126757 -0.434242 -0.891833
v -0.067780 -0.145234 -0.077833
vn -0.875570 0.024386 -0.482476
v -0.120004 0.112781 -0.023989
vn -0.533730 -0.010043 -0.845595
v -0.051793 0.053846 -0.085085
vn -0.246635 0.061709 -0.967142
v -0.047375 -0.084574 -0.092040
vn -0.919258 0.387463 0.069549
v -0.153215 -0.052446 0.022209
vn -0.918166 -0.392025 0.057338
v -0.131687 -0.222551 0.072597
vn -0.697219 -0.603157 -0.387412
v -0.099961 -0.265687 0.010940
vn -0.990824 -0.020804 0.133550
v -0.154087 -0.128365 0.098179
vn -0.970712 0.110827 0.213158
v -0.133714 0.040768 0.164237
vn -0.983981 0.157368 -0.083765
v -0.128894 -0.015809 0.047875
vn -0.762955 0.111055 0.636841
v -0.105438 0.064246 0.205993
vn 0.138850 -0.453508 -0.880370
v 0.082894 -0.184132 -0.054729
vn 0.177159 0.640995 -0.746820
v 0.093529 0.002333 -0.036906
vn 0.710955 0.696231 -0.099026
v 0.134112 -0.008118 -0.093850
vn 0.947474 -0.289444 -0.136072
v 0.151252 -0.108854 -0.032473
vn 0.539339 -0.700663 -0.467103
v 0.123577 -0.121658 -0.086390
vn -0.776800 0.598808 -0.194961
v 0.109599 -0.071380 -0.244502
vn -0.985710 -0.092763 -0.140612
v 0.088533 -0.082242 -0.139190
vn 0.003244 -0.999572 0.029058
v 0.123833 -0.122350 -0.199532
vn 0.539492 0.800462 -0.261169
v 0.140971 -0.047361 -0.178100
vn 0.874299 -0.458599 0.159025
v 0.151335 -0.132667 -0.318964
vn 0.967214 -0.253220 -0.019390
v 0.148026 -0.087652 -0.126190
vn 0.395214 0.861383 -0.319100
v 0.134122 -0.080605 -0.321998
vn -0.753240 0.364966 -0.547201
v 0.090305 -0.142007 -0.419912
vn -0.554268 -0.767347 0.322436
v 0.111138 -0.139148 -0.325527
vn -0.351793 -0.917210 -0.186997
v 0.122450 -0.225326 -0.424554
vn 0.946099 -0.199949 -0.254789
v 0.171721 -0.179335 -0.418210
vn -0.486509 -0.796375 -0.359299
v -0.118748 -0.118411 -0.094506
vn -0.587530 0.566675 -0.577657
v -0.097218 0.007296 -0.036612
vn -0.125460 0.265759 -0.955841
v -0.062345 -0.081736 -0.073848
vn -0.959596 -0.244938 -0.138494
v -0.153518 -0.111878 -0.021197
vn 0.933194 0.227649 -0.278072
v -0.093246 -0.072105 -0.163867
vn -0.015363 -0.989225 0.145593
v -0.123748 -0.127373 -0.243556
vn 0.372018 -0.609980 -0.699662
v -0.096983 -0.121170 -0.097698
vn -0.680964 0.707625 -0.188563
v -0.140176 -0.010138 -0.100243
vn -0.956983 -0.289188 -0.023543
v -0.148092 -0.086188 -0.157293
vn 0.988379 -0.110377 0.104517
v -0.097578 -0.122345 -0.334323
vn -0.157010 0.939247 -0.305226
v -0.134605 -0.063367 -0.253921
vn -0.996595 -0.044350 0.069507
v -0.153137 -0.118749 -0.337038
vn 0.579603 -0.811724 0.071862
v -0.101686 -0.219128 -0.417309
vn -0.165246 -0.792452 0.587123
v -0.132368 -0.159826 -0.354689
vn 0.076801 0.679892 -0.729279
v -0.118270 -0.127472 -0.428838
vn -0.860662 -0.506877 -0.048337
v -0.170047 -0.199617 -0.419401
vn 0.175941 0.265089 0.948036
v 0.041584 -0.095960 0.271691
vn -0.122148 0.086634 0.988724
v -0.011590 0.127481 0.239119
vn 0.692148 -0.639061 -0.335459
v 0.056375 -0.323942 0.088690
vn -0.269932 -0.793540 -0.545372
v -0.021886 -0.354282 0.077330
vn -0.213258 0.246040 0.945508
v -0.054937 -0.102698 0.270944
vn -0.941787 -0.135861 0.307538
v -0.104000 -0.185702 0.230368
vn -0.881949 0.018013 0.471000
v -0.125235 -0.090712 0.221795
vn -0.587531 0.128338 0.798960
v -0.094467 -0.041634 0.254123
vn -0.372542 -0.708728 -0.599097
v -0.049056 -0.303149 -0.004059
vn -0.032349 0.441482 0.896687
v 0.001334 -0.276986 0.380235
vn 0.928893 0.058816 0.365648
v 0.084728 -0.256275 0.294888
vn 0.947341 -0.192554 -0.255868
v 0.092972 -0.335035 0.196911
vn 0.365460 -0.890928 -0.269605
v 0.010365 -0.402800 0.178248
vn 0.023147 -0.943797 -0.329713
v 0.000431 -0.408159 0.128917
vn 0.422287 0.397413 0.814701
v 0.049970 -0.184811 0.308558
vn 0.739509 0.068114 0.669691
v 0.094119 -0.150653 0.262948
vn 0.787830 -0.576821 -0.215873
v 0.072532 -0.365687 0.151582
vn -0.746298 0.172168 0.642960
v -0.084304 -0.188997 0.278725
vn -0.280265 0.440500 0.852884
v -0.041290 -0.196140 0.318756
vn -0.697427 -0.639608 -0.323260
v -0.056422 -0.376101 0.189194
vn -0.951204 -0.200589 -0.234468
v -0.093479 -0.329010 0.202483
vn -0.878084 -0.468949 -0.095163
v -0.094907 -0.261550 0.140116
vn -0.744537 -0.609946 -0.271350
v -0.056834 -0.378943 0.143643
vn 0.823726 0.493535 0.279104
v 0.079657 -0.324107 0.314656
vn 0.997626 0.017410 -0.066624
v 0.145066 -0.369077 0.245651
vn 0.440344 -0.846346 0.299659
v 0.023695 -0.515144 0.262267
vn 0.156618 -0.737294 0.657167
v 0.036325 -0.434179 0.370284
vn 0.606006 -0.637951 -0.475158
v 0.063316 -0.425605 0.226166
vn -0.707107 0.000000 0.707107
v 0.004421 -0.501402 0.135108
vn -0.201742 -0.690126 0.695001
v -0.027962 -0.431897 0.374263
vn 0.937178 -0.265204 0.226636
v 0.098389 -0.377457 0.335137
vn -0.379544 0.281616 0.881271
v -0.048227 -0.341323 0.388583
vn -0.997630 -0.029928 0.061954
v -0.141368 -0.369808 0.255055
vn -0.495019 -0.770543 0.401522
v -0.019590 -0.492236 0.293089
vn -0.555077 -0.711006 -0.431693
v -0.036537 -0.516354 0.194509
vn -0.833588 -0.521468 -0.182214
v -0.061315 -0.437994 0.245509
vn 0.385781 -0.335218 -0.859536
v 0.030841 -0.527541 0.191069
vn 0.210553 -0.388522 -0.897061
v 0.005056 -0.401632 0.240536
vn 0.238331 -0.889214 -0.390509
v -0.025603 -0.494013 0.168211
vn 0.639180 -0.033244 0.768338
v 0.075769 -0.397337 0.424390
vn 0.678694 0.614091 0.402823
v 0.081344 -0.346112 0.366515
vn 0.245802 0.259802 0.933854
v 0.043710 -0.356467 0.402949
vn -0.886877 -0.420062 0.192348
v -0.095829 -0.381540 0.327635
vn -0.960577 -0.218654 0.171702
v -0.104845 -0.388077 0.378160
vn -0.460508 0.255746 0.850015
v -0.074542 -0.389261 0.421001
vn -0.859247 0.400796 0.317895
v -0.072798 -0.333393 0.334118
vn -0.585156 0.542051 -0.603135
v 0.042480 0.506196 0.002548
vn -0.424808 0.894454 -0.139605
v 0.062358 0.569725 0.062893
vn 0.257609 -0.601400 -0.756277
v 0.112246 0.352453 -0.024722
vn 0.725854 -0.505576 -0.466400
v 0.119224 0.311438 0.028699
vn -0.392503 0.918631 -0.045361
v 0.093453 0.570551 -0.063726
vn 0.299199 0.901471 0.312779
v 0.077901 0.572088 0.150226
vn 0.247918 0.967303 -0.053491
v 0.099858 0.584408 0.021955
vn -0.610747 -0.160303 -0.775430
v 0.051667 0.409312 -0.017873
vn 0.908306 0.330701 0.256157
v 0.137313 0.529310 0.125694
vn 0.636127 0.359681 0.682621
v 0.113446 0.489276 0.209017
vn 0.869720 0.491980 0.039271
v 0.138287 0.555150 0.064174
vn 0.953106 -0.231316 -0.195146
v 0.152972 0.383569 -0.003392
vn 0.971218 -0.159239 0.177138
v 0.148357 0.341710 0.143253
vn -0.962069 0.243167 -0.123669
v 0.069141 0.535779 -0.136281
vn -0.003017 -0.688997 -0.724758
v 0.106092 0.438015 -0.133712
vn -0.801921 -0.333757 -0.495508
v 0.080822 0.476731 -0.130394
vn 0.829690 0.558065 0.013364
v 0.118512 0.549567 -0.053443
vn 0.953454 -0.150624 -0.261223
v 0.149640 0.440710 -0.054305
vn 0.121530 0.915926 0.382506
v 0.109802 0.592500 -0.146633
vn 0.952773 -0.197215 -0.230933
v 0.142996 0.524893 -0.166728
vn -0.990145 0.137055 -0.028778
v 0.093018 0.622706 -0.234964
vn -0.602472 0.794218 0.079025
v 0.099823 0.662826 -0.314836
vn -0.058625 -0.990571 0.123825
v 0.125367 0.619926 -0.329994
vn -0.494968 -0.583071 -0.644232
v 0.108973 0.563641 -0.217908
vn 0.677513 0.675796 0.290304
v 0.142626 0.653288 -0.271546
vn -0.956665 -0.287364 0.047046
v 0.089426 0.621401 -0.366396
vn -0.623502 -0.770675 -0.131550
v 0.108251 0.558161 -0.411047
vn -0.329544 0.668893 -0.666321
v 0.106321 0.649141 -0.420331
vn 0.732163 -0.665819 -0.143606
v 0.158206 0.580793 -0.417514
vn 0.870300 0.415094 -0.265095
v -0.049144 0.504372 -0.019767
vn -0.445314 -0.198088 -0.873188
v -0.074997 0.343679 0.007584
vn 0.475349 0.854460 -0.209623
v -0.057310 0.568490 0.067606
vn -0.098334 0.949895 0.296699
v -0.073748 0.574927 0.148730
vn -0.087530 0.994113 -0.063861
v -0.092604 0.587361 0.029106
vn -0.705969 0.652333 0.275807
v -0.120845 0.555987 0.119106
vn -0.585187 0.542303 0.602879
v -0.109153 0.524179 0.185277
vn -0.817920 0.575330 0.001296
v -0.119230 0.549303 -0.054058
vn -0.926747 0.374059 0.034922
v -0.139476 0.550709 0.062015
vn -0.976421 -0.156974 -0.148192
v -0.154070 0.391521 0.005729
vn -0.981262 -0.076791 0.176714
v -0.148623 0.353911 0.143606
vn -0.774928 -0.450089 -0.443741
v -0.124507 0.308765 0.041687
vn 0.531205 -0.044017 -0.846099
v -0.052698 0.413950 -0.018049
vn 0.918382 -0.078309 -0.387870
v -0.082049 0.568611 -0.192345
vn -0.075001 -0.692879 -0.717142
v -0.107707 0.435792 -0.133188
vn 0.085992 0.976090 0.199633
v -0.098522 0.574041 -0.094965
vn -0.974547 0.224132 -0.004716
v -0.139937 0.481070 -0.046733
vn -0.866207 0.416404 0.276213
v -0.122617 0.572915 -0.149593
vn -0.043147 0.917648 0.395045
v -0.122719 0.649321 -0.214415
vn -0.999955 0.003854 0.008702
v -0.149766 0.613946 -0.239461
vn -0.991027 -0.086084 -0.102250
v -0.144057 0.477180 -0.106023
vn -0.467004 -0.581263 -0.666364
v -0.129710 0.501400 -0.172507
vn 0.981335 -0.189711 0.031490
v -0.094910 0.621725 -0.259587
vn 0.533089 0.751617 -0.388444
v -0.089109 0.663715 -0.403320
vn -0.336408 -0.830900 -0.443209
v -0.133681 0.610522 -0.274838
vn 0.246150 -0.964776 -0.092831
v -0.092124 0.584536 -0.390651
vn -0.479417 -0.446885 -0.755284
v -0.152694 0.573332 -0.417280
vn -0.995677 0.091177 -0.017732
v -0.144716 0.649989 -0.308561
vn 0.534199 0.840350 0.091884
v 0.051163 0.563079 0.178198
vn 0.990244 0.022903 -0.137447
v 0.049471 0.573008 0.189432
vn -0.454443 0.825060 0.335793
v -0.051761 0.558801 0.183015
vn -0.824404 0.206678 0.526917
v -0.041146 0.543061 0.212662
vn -0.807025 -0.090667 -0.583516
v -0.047399 0.596876 0.182448
vn 0.996456 -0.076723 0.034492
v 0.067523 0.716815 0.200907
vn 0.539712 -0.093649 0.836625
v 0.027450 0.605088 0.235750
vn 0.529815 -0.094043 -0.842883
v 0.040622 0.759892 0.141056
vn 0.154806 -0.002222 -0.987942
v 0.002917 0.611443 0.162495
vn 0.764034 -0.005468 0.645153
v 0.055762 0.754927 0.241142
vn 0.247569 0.021490 0.968632
v 0.022644 0.775852 0.257462
vn -0.880619 -0.117945 0.458911
v -0.061152 0.715923 0.225959
vn -0.976480 -0.023315 -0.214344
v -0.065299 0.746764 0.180042
vn -0.701023 -0.070456 -0.709650
v -0.050158 0.766521 0.149910
vn -0.191698 -0.094286 -0.976915
v -0.017321 0.773345 0.132415
vn 0.433246 0.187675 0.881519
v 0.039198 0.895554 0.233166
vn 0.969197 0.169432 0.178744
v 0.062527 0.867212 0.203855
vn 0.853485 0.085008 -0.514138
v 0.058790 0.853837 0.160314
vn 0.164426 0.146314 -0.975477
v 0.017786 0.855393 0.133895
vn -0.502703 0.284855 0.816178
v -0.027854 0.947809 0.231381
vn -0.958570 0.280259 -0.050983
v -0.059182 0.901216 0.192177
vn -0.638711 0.110627 -0.761452
v -0.042103 0.854351 0.142777
vn -0.200850 0.005145 0.979608
v -0.020112 0.755629 0.260021
vn -0.876125 0.035045 0.480808
v -0.064237 0.769493 0.229953
vn 0.620908 0.399432 -0.674483
v 0.039946 0.940217 0.163814
vn 0.105174 0.951716 0.288400
v 0.014229 1.012141 0.215058
vn -0.446489 0.463359 -0.765471
v -0.034601 0.943240 0.164173
# 219 vertices, 0 vertices normals

f 11//11 12//12 13//13
f 9//9 136//136 1//1
f 136//136 9//9 137//137
f 3//3 137//137 9//9
f 193//193 137//137 3//3
f 2//2 16//16 17//17
f 4//4 2//2 17//17
f 5//5 2//2 4//4
f 5//5 143//143 2//2
f 5//5 136//136 143//143
f 1//1 136//136 5//5
f 2//2 139//139 16//16
f 8//8 145//145 6//6
f 8//8 6//6 7//7
f 148//148 144//144 145//145
f 148//148 145//145 8//8
f 19//19 8//8 7//7
f 20//20 8//8 19//19
f 148//148 8//8 20//20
f 139//139 21//21 16//16
f 139//139 147//147 148//148
f 139//139 148//148 21//21
f 6//6 145//145 193//193
f 6//6 10//10 7//7
f 7//7 46//46 19//19
f 167//167 9//9 1//1
f 3//3 9//9 167//167
f 25//25 23//23 166//166
f 166//166 177//177 25//25
f 4//4 25//25 5//5
f 5//5 25//25 177//177
f 5//5 177//177 1//1
f 166//166 29//29 176//176
f 167//167 195//195 3//3
f 11//11 171//171 12//12
f 10//10 196//196 11//11
f 10//10 11//11 13//13
f 10//10 13//13 7//7
f 13//13 12//12 15//15
f 15//15 12//12 175//175
f 7//7 13//13 14//14
f 7//7 14//14 46//46
f 14//14 13//13 15//15
f 175//175 176//176 27//27
f 27//27 176//176 29//29
f 17//17 16//16 30//30
f 17//17 34//34 24//24
f 4//4 17//17 24//24
f 46//46 45//45 18//18
f 19//19 46//46 18//18
f 20//20 18//18 44//44
f 20//20 19//19 18//18
f 22//22 44//44 43//43
f 21//21 44//44 22//22
f 21//21 20//20 44//44
f 21//21 148//148 20//20
f 16//16 21//21 22//22
f 16//16 22//22 30//30
f 48//48 29//29 23//23
f 49//49 23//23 24//24
f 24//24 34//34 49//49
f 23//23 29//29 166//166
f 24//24 23//23 25//25
f 4//4 24//24 25//25
f 46//46 26//26 91//91
f 57//57 91//91 26//26
f 27//27 57//57 26//26
f 27//27 26//26 14//14
f 27//27 14//14 15//15
f 28//28 55//55 57//57
f 28//28 57//57 27//27
f 27//27 15//15 175//175
f 28//28 27//27 29//29
f 29//29 48//48 28//28
f 26//26 46//46 14//14
f 41//41 92//92 39//39
f 51//51 54//54 56//56
f 59//59 33//33 30//30
f 17//17 30//30 33//33
f 34//34 17//17 33//33
f 35//35 33//33 59//59
f 35//35 59//59 36//36
f 35//35 34//34 33//33
f 31//31 35//35 36//36
f 31//31 36//36 58//58
f 59//59 30//30 32//32
f 45//45 38//38 44//44
f 93//93 98//98 39//39
f 43//43 44//44 38//38
f 40//40 42//42 38//38
f 37//37 32//32 43//43
f 37//37 60//60 32//32
f 42//42 37//37 43//43
f 42//42 43//43 38//38
f 41//41 42//42 40//40
f 31//31 39//39 98//98
f 39//39 31//31 58//58
f 62//62 41//41 39//39
f 41//41 40//40 92//92
f 59//59 32//32 60//60
f 45//45 46//46 91//91
f 18//18 45//45 44//44
f 22//22 43//43 32//32
f 32//32 30//30 22//22
f 31//31 98//98 47//47
f 75//75 48//48 49//49
f 49//49 48//48 23//23
f 76//76 75//75 49//49
f 76//76 49//49 50//50
f 50//50 49//49 34//34
f 50//50 34//34 35//35
f 47//47 50//50 35//35
f 47//47 35//35 31//31
f 56//56 48//48 75//75
f 95//95 52//52 111//111
f 97//97 57//57 96//96
f 53//53 98//98 111//111
f 111//111 52//52 53//53
f 96//96 57//57 55//55
f 56//56 75//75 51//51
f 54//54 51//51 77//77
f 54//54 77//77 52//52
f 95//95 96//96 54//54
f 52//52 95//95 54//54
f 53//53 47//47 98//98
f 53//53 52//52 77//77
f 54//54 96//96 55//55
f 56//56 54//54 55//55
f 97//97 91//91 57//57
f 56//56 55//55 28//28
f 56//56 28//28 48//48
f 59//59 64//64 36//36
f 61//61 37//37 42//42
f 61//61 42//42 41//41
f 62//62 39//39 58//58
f 61//61 41//41 62//62
f 61//61 62//62 68//68
f 68//68 37//37 61//61
f 60//60 37//37 68//68
f 36//36 62//62 58//58
f 71//71 65//65 64//64
f 71//71 67//67 65//65
f 63//63 71//71 64//64
f 64//64 59//59 63//63
f 66//66 63//63 59//59
f 64//64 65//65 36//36
f 69//69 63//63 66//66
f 67//67 69//69 66//66
f 59//59 60//60 66//66
f 65//65 68//68 62//62
f 66//66 60//60 68//68
f 68//68 67//67 66//66
f 65//65 67//67 68//68
f 65//65 62//62 36//36
f 70//70 63//63 69//69
f 70//70 71//71 63//63
f 72//72 70//70 73//73
f 72//72 71//71 70//70
f 73//73 67//67 71//71
f 73//73 71//71 72//72
f 73//73 69//69 67//67
f 70//70 69//69 73//73
f 74//74 47//47 53//53
f 47//47 74//74 80//80
f 47//47 80//80 50//50
f 50//50 80//80 76//76
f 74//74 53//53 77//77
f 51//51 81//81 77//77
f 75//75 81//81 51//51
f 78//78 79//79 83//83
f 83//83 84//84 78//78
f 75//75 76//76 78//78
f 81//81 78//78 84//84
f 76//76 80//80 78//78
f 78//78 80//80 79//79
f 78//78 81//81 75//75
f 79//79 82//82 85//85
f 79//79 85//85 87//87
f 74//74 77//77 82//82
f 81//81 84//84 82//82
f 82//82 84//84 85//85
f 77//77 81//81 82//82
f 74//74 82//82 79//79
f 80//80 74//74 79//79
f 86//86 83//83 87//87
f 84//84 83//83 88//88
f 83//83 79//79 87//87
f 88//88 85//85 84//84
f 88//88 83//83 86//86
f 86//86 89//89 88//88
f 89//89 85//85 88//88
f 87//87 85//85 89//89
f 86//86 87//87 89//89
f 93//93 92//92 103//103
f 105//105 90//90 104//104
f 108//108 104//104 90//90
f 40//40 38//38 105//105
f 38//38 45//45 90//90
f 38//38 90//90 105//105
f 90//90 45//45 91//91
f 39//39 92//92 93//93
f 107//107 108//108 94//94
f 107//107 94//94 97//97
f 90//90 94//94 108//108
f 95//95 107//107 97//97
f 95//95 97//97 96//96
f 91//91 94//94 90//90
f 91//91 97//97 94//94
f 98//98 93//93 111//111
f 100//100 131//131 113//113
f 101//101 100//100 113//113
f 101//101 40//40 100//100
f 101//101 106//106 40//40
f 102//102 106//106 101//101
f 102//102 103//103 106//106
f 100//100 104//104 131//131
f 131//131 104//104 99//99
f 108//108 99//99 104//104
f 105//105 100//100 40//40
f 40//40 106//106 92//92
f 105//105 104//104 100//100
f 103//103 92//92 106//106
f 109//109 103//103 102//102
f 135//135 110//110 122//122
f 109//109 110//110 112//112
f 109//109 112//112 103//103
f 121//121 108//108 107//107
f 121//121 107//107 135//135
f 99//99 108//108 121//121
f 95//95 135//135 107//107
f 95//95 110//110 135//135
f 111//111 110//110 95//95
f 112//112 110//110 111//111
f 93//93 112//112 111//111
f 103//103 112//112 93//93
f 126//126 117//117 115//115
f 109//109 128//128 127//127
f 131//131 130//130 113//113
f 113//113 114//114 101//101
f 131//131 119//119 116//116
f 114//114 113//113 120//120
f 123//123 116//116 119//119
f 123//123 115//115 116//116
f 116//116 115//115 120//120
f 101//101 117//117 102//102
f 128//128 102//102 118//118
f 101//101 114//114 117//117
f 113//113 130//130 120//120
f 114//114 120//120 117//117
f 117//117 120//120 115//115
f 121//121 131//131 99//99
f 131//131 121//121 119//119
f 135//135 122//122 132//132
f 125//125 124//124 123//123
f 124//124 115//115 123//123
f 109//109 124//124 125//125
f 132//132 125//125 123//123
f 128//128 109//109 102//102
f 109//109 125//125 110//110
f 122//122 125//125 132//132
f 125//125 122//122 110//110
f 123//123 119//119 132//132
f 126//126 127//127 117//117
f 117//117 127//127 102//102
f 127//127 128//128 102//102
f 118//118 102//102 128//128
f 127//127 126//126 124//124
f 109//109 127//127 124//124
f 124//124 126//126 115//115
f 129//129 131//131 116//116
f 130//130 129//129 120//120
f 129//129 130//130 131//131
f 120//120 129//129 116//116
f 135//135 133//133 134//134
f 121//121 135//135 134//134
f 121//121 134//134 119//119
f 135//135 132//132 133//133
f 133//133 132//132 119//119
f 134//134 133//133 119//119
f 136//136 149//149 143//143
f 137//137 193//193 141//141
f 136//136 137//137 140//140
f 136//136 140//140 149//149
f 140//140 137//137 142//142
f 143//143 150//150 138//138
f 151//151 150//150 143//143
f 143//143 149//149 151//151
f 137//137 141//141 142//142
f 138//138 139//139 2//2
f 138//138 2//2 143//143
f 144//144 141//141 145//145
f 146//146 141//141 144//144
f 152//152 140//140 142//142
f 146//146 153//153 152//152
f 153//153 146//146 147//147
f 147//147 144//144 148//148
f 138//138 147//147 139//139
f 138//138 153//153 147//147
f 142//142 141//141 146//146
f 146//146 152//152 142//142
f 144//144 147//147 146//146
f 141//141 193//193 145//145
f 151//151 159//159 150//150
f 156//156 159//159 151//151
f 149//149 156//156 151//151
f 154//154 156//156 149//149
f 154//154 149//149 140//140
f 154//154 140//140 152//152
f 155//155 154//154 152//152
f 160//160 154//154 155//155
f 155//155 152//152 153//153
f 159//159 155//155 150//150
f 150//150 155//155 153//153
f 150//150 153//153 138//138
f 156//156 154//154 160//160
f 156//156 157//157 161//161
f 156//156 158//158 159//159
f 161//161 158//158 156//156
f 158//158 160//160 155//155
f 158//158 155//155 159//159
f 160//160 157//157 156//156
f 161//161 163//163 162//162
f 161//161 157//157 163//163
f 164//164 160//160 158//158
f 162//162 164//164 158//158
f 163//163 164//164 162//162
f 158//158 161//161 162//162
f 163//163 160//160 164//164
f 163//163 157//157 160//160
f 176//176 174//174 179//179
f 167//167 1//1 165//165
f 1//1 177//177 165//165
f 167//167 165//165 169//169
f 169//169 165//165 180//180
f 169//169 168//168 167//167
f 166//166 179//179 177//177
f 168//168 195//195 167//167
f 171//171 168//168 170//170
f 170//170 168//168 169//169
f 172//172 169//169 180//180
f 171//171 170//170 12//12
f 173//173 12//12 170//170
f 173//173 172//172 181//181
f 175//175 12//12 173//173
f 175//175 173//173 174//174
f 174//174 173//173 181//181
f 176//176 175//175 174//174
f 176//176 179//179 166//166
f 174//174 185//185 179//179
f 179//179 185//185 186//186
f 173//173 170//170 169//169
f 169//169 172//172 173//173
f 181//181 185//185 174//174
f 171//171 195//195 168//168
f 178//178 165//165 177//177
f 187//187 183//183 178//178
f 177//177 179//179 178//178
f 180//180 165//165 178//178
f 180//180 178//178 183//183
f 172//172 180//180 182//182
f 182//182 180//180 183//183
f 181//181 172//172 182//182
f 182//182 183//183 184//184
f 181//181 182//182 185//185
f 182//182 184//184 185//185
f 186//186 185//185 184//184
f 186//186 184//184 189//189
f 179//179 186//186 178//178
f 178//178 186//186 189//189
f 183//183 187//187 188//188
f 183//183 188//188 192//192
f 184//184 183//183 192//192
f 189//189 184//184 192//192
f 189//189 192//192 190//190
f 178//178 189//189 187//187
f 187//187 189//189 190//190
f 190//190 188//188 187//187
f 192//192 188//188 191//191
f 190//190 191//191 188//188
f 191//191 190//190 192//192
f 194//194 199//199 6//6
f 194//194 198//198 199//199
f 201//201 200//200 194//194
f 199//199 215//215 10//10
f 194//194 6//6 193//193
f 199//199 10//10 6//6
f 194//194 193//193 201//201
f 201//201 193//193 3//3
f 196//196 204//204 197//197
f 197//197 207//207 201//201
f 10//10 215//215 204//204
f 10//10 204//204 196//196
f 195//195 171//171 11//11
f 195//195 11//11 196//196
f 195//195 196//196 197//197
f 197//197 201//201 3//3
f 3//3 195//195 197//197
f 198//198 202//202 199//199
f 194//194 200//200 198//198
f 202//202 203//203 199//199
f 200//200 210//210 198//198
f 203//203 215//215 199//199
f 209//209 198//198 210//210
f 202//202 198//198 209//209
f 211//211 200//200 207//207
f 204//204 205//205 197//197
f 197//197 205//205 206//206
f 197//197 206//206 207//207
f 215//215 216//216 204//204
f 204//204 216//216 205//205
f 207//207 200//200 201//201
f 214//214 207//207 206//206
f 209//209 210//210 217//217
f 202//202 208//208 203//203
f 209//209 208//208 202//202
f 211//211 210//210 200//200
f 209//209 218//218 208//208
f 211//211 217//217 210//210
f 208//208 212//212 215//215
f 208//208 215//215 203//203
f 211//211 214//214 219//219
f 215//215 212//212 216//216
f 216//216 212//212 213//213
f 216//216 213//213 205//205
f 205//205 213//213 214//214
f 205//205 214//214 206//206
f 214//214 211//211 207//207
f 213//213 219//219 214//214
f 219//219 217//217 211//211
f 217//217 219//219 218//218
f 208//208 218//218 212//212
f 218//218 209//209 217//217
f 212//212 218//218 213//213
f 213//213 218//218 219//219
# 434 faces, 0 coords texture

# End of File
