####
#
# OBJ File Generated by Meshlab
#
####
# Object block_simplified.obj
#
# Vertices: 156
# Faces: 320
#
####
vn -0.129903 0.226965 -0.965201
v -0.169137 0.305005 -0.936414
vn -0.791962 -0.236431 -0.562936
v -0.339816 -0.087087 -0.936368
vn -0.942483 0.100058 -0.318927
v -0.352825 0.026920 -0.936478
vn -0.282715 -0.522737 -0.804250
v -0.176661 -0.302443 -0.936410
vn -0.146130 -0.957594 -0.248313
v -0.060171 -0.341957 -0.936354
vn 0.129305 -0.818331 -0.560013
v 0.056194 -0.341416 -0.936463
vn 0.245210 -0.447546 -0.859985
v 0.165562 -0.303331 -0.936407
vn -0.548979 -0.437072 -0.712453
v -0.275760 -0.217048 -0.936387
vn 0.787197 -0.257394 -0.560419
v 0.320060 -0.122436 -0.936393
vn 0.702284 -0.002017 -0.711894
v 0.343121 -0.000464 -0.936410
vn -0.538731 0.258463 -0.801852
v -0.315577 0.153368 -0.936401
vn 0.834976 0.307956 -0.456046
v 0.321511 0.118142 -0.936400
vn -0.645288 0.525908 -0.554097
v -0.276713 0.214073 -0.936263
vn -0.593058 0.667646 -0.450035
v -0.240059 0.253957 -0.936340
vn -0.207740 0.864459 -0.457771
v -0.087596 0.337331 -0.936479
vn 0.022105 -0.830342 -0.556816
v 0.006873 -0.345950 -0.492866
vn 0.541364 -0.628704 -0.558262
v 0.223802 -0.263173 -0.492895
vn 0.555314 0.607070 -0.568412
v 0.235811 0.255701 -0.936410
vn -0.219509 0.762702 -0.608360
v -0.119151 0.333255 -0.492848
vn 0.017789 0.893181 -0.449345
v 0.008242 0.346432 -0.936328
vn 0.260273 0.784569 -0.562770
v 0.073353 0.337444 -0.936350
vn 0.743653 -0.587534 -0.319035
v 0.260962 -0.222675 -0.936349
vn 0.745899 -0.365795 -0.556623
v 0.318765 -0.125891 -0.492834
vn 0.254740 -0.792346 -0.554342
v 0.077744 -0.336535 -0.492836
vn -0.674219 0.211402 -0.707628
v -0.327055 0.126124 -0.492824
vn -0.687750 0.467154 -0.555669
v -0.290789 0.195498 -0.492842
vn 0.678660 0.476943 -0.558522
v 0.281236 0.199561 -0.492880
vn 0.350221 0.608773 -0.711858
v 0.171328 0.300588 -0.492831
vn -0.272889 -0.785204 -0.555865
v -0.112951 -0.328657 -0.492837
vn -0.078278 -0.548431 -0.832524
v -0.052578 -0.342583 -0.492843
vn -0.521048 -0.647341 -0.556290
v -0.206031 -0.283672 -0.492899
vn -0.734840 -0.386823 -0.557116
v -0.315549 -0.153515 -0.492830
vn -0.827358 -0.073941 -0.556787
v -0.350853 -0.038205 -0.492836
vn 0.824350 0.111033 -0.555085
v 0.340125 0.032826 -0.492864
vn 0.523017 0.183587 -0.832316
v 0.320753 0.118666 -0.492831
vn 0.012306 0.705175 -0.708927
v 0.011521 0.345872 -0.492841
vn 0.562768 -0.401476 -0.722571
v 0.487902 -0.492648 -0.492814
vn -0.476828 -0.572112 -0.667326
v -0.497751 -0.492656 -0.492813
vn 0.822786 -0.115415 -0.556509
v 0.339998 -0.034670 -0.492856
vn -0.529842 0.529833 -0.662227
v -0.497752 0.493003 -0.492792
vn -0.582172 0.678282 -0.448340
v -0.224750 0.267914 -0.492850
vn 0.172073 0.812645 -0.556775
v 0.071395 0.337983 -0.492835
vn 0.000012 0.514597 -0.857432
v 0.003340 0.493006 -0.492814
vn -0.712896 0.018232 0.701033
v -0.497765 -0.007835 -0.299211
vn 0.436079 -0.561718 0.703071
v -0.167112 -0.492671 -0.254514
vn 0.406888 0.410286 0.816154
v -0.203828 -0.196281 -0.224988
vn 0.114980 -0.555418 0.823584
v -0.060621 -0.492606 -0.292069
vn -0.092915 -0.708298 0.699772
v 0.052437 -0.492668 -0.292491
vn -0.035988 -0.035585 0.998718
v 0.011031 0.030005 -0.296763
vn 0.133671 0.118057 0.983969
v -0.077701 -0.068074 -0.290262
vn -0.352702 -0.555680 0.752875
v 0.113196 -0.492665 -0.273852
vn -0.641467 -0.554642 0.529992
v 0.212787 -0.492631 -0.207203
vn -0.564420 0.432985 0.702819
v -0.497773 -0.160945 -0.255428
vn -0.134704 0.116729 0.983986
v 0.059840 -0.056483 -0.291756
vn -0.314985 0.316484 0.894775
v 0.169805 -0.172802 -0.243380
vn 0.559091 0.338018 0.757074
v 0.487880 -0.120445 -0.273797
vn 0.556998 0.597107 0.577250
v 0.487920 -0.215190 -0.206659
vn 0.556799 0.039819 0.829692
v 0.487895 -0.019432 -0.297488
vn 0.707978 -0.242058 0.663457
v 0.487917 0.105048 -0.278843
vn -0.446238 -0.446132 0.775782
v -0.497760 0.157378 -0.258892
vn 0.250275 -0.185479 0.950242
v -0.126734 0.123993 -0.271412
vn 0.481645 -0.497635 0.721372
v -0.247462 0.243397 -0.182891
vn 0.529885 0.662268 -0.529738
v 0.487895 0.493004 -0.492808
vn 0.065239 -0.073731 0.995142
v -0.053952 0.042239 -0.294123
vn 0.097889 0.603473 0.791352
v -0.033464 0.493019 -0.296929
vn -0.304984 0.558540 0.771374
v 0.121322 0.492976 -0.273481
vn 0.390780 0.709785 0.586086
v -0.156345 0.493004 -0.258264
vn 0.656521 0.659934 0.365331
v -0.294881 -0.291556 -0.075419
vn -0.545845 0.551951 0.630400
v 0.250906 -0.255074 -0.155194
vn 0.548135 0.764921 0.338297
v 0.487878 -0.260977 -0.141836
vn -0.341706 -0.329367 0.880201
v 0.162461 0.163664 -0.255737
vn 0.567460 -0.671406 0.476658
v 0.487893 0.232237 -0.193535
vn -0.688281 0.566300 0.453403
v 0.234537 0.492994 -0.177332
vn 0.713866 -0.556961 0.424487
v -0.258787 -0.492660 -0.155277
vn 0.699222 -0.713888 0.038115
v -0.305724 -0.492664 -0.022709
vn -0.556087 0.740440 0.377513
v -0.497759 -0.273255 -0.119476
vn -0.534478 0.810091 0.241010
v 0.287553 -0.294404 -0.054087
vn 0.709335 0.702028 -0.063247
v 0.487903 -0.301624 0.008265
vn -0.784434 -0.577826 0.225347
v 0.297588 0.304453 -0.031806
vn 0.758947 0.564301 0.324906
v -0.275772 0.492979 -0.132993
vn -0.617384 0.768449 -0.168295
v -0.497761 -0.303950 0.056652
vn -0.713222 -0.671567 0.200779
v -0.497771 0.291820 -0.078319
vn 0.704352 -0.707746 0.054626
v -0.302868 0.298864 -0.000083
vn -0.541864 0.838470 0.057900
v 0.293945 0.492994 -0.029459
vn 0.572853 -0.476610 0.666845
v 0.487902 -0.492654 0.492837
vn -0.609664 0.587337 -0.532301
v 0.276330 -0.281185 0.114531
vn 0.695967 0.714516 -0.071384
v -0.302470 0.493009 0.014444
vn -0.794510 -0.605395 0.047437
v 0.301153 -0.492674 0.026342
vn 0.799975 0.532238 -0.277061
v -0.296053 -0.292088 0.061764
vn -0.547660 -0.808595 -0.215043
v -0.497775 0.285378 0.084424
vn 0.630677 -0.471646 -0.616277
v -0.265843 0.261685 0.152931
vn 0.725870 -0.684570 -0.066913
v 0.487900 0.308972 0.009927
vn -0.761656 0.564559 -0.318046
v 0.267795 0.493006 0.123751
vn -0.569878 0.455924 0.683646
v -0.497757 0.493005 0.492832
vn 0.765873 -0.555459 -0.323889
v -0.280316 -0.492602 0.113920
vn 0.558209 0.572855 -0.600200
v 0.487911 -0.181981 0.247376
vn 0.625762 0.711197 -0.320345
v -0.271915 0.492885 0.134168
vn -0.455877 -0.569837 0.683712
v -0.497759 -0.492653 0.492834
vn -0.617020 -0.556371 -0.556541
v 0.213579 -0.492659 0.204806
vn 0.501555 0.490263 -0.712801
v -0.242726 -0.237583 0.180624
vn -0.274660 0.237339 -0.931790
v 0.131829 -0.140224 0.266498
vn -0.560625 -0.573501 -0.597325
v -0.497771 0.210603 0.218033
vn 0.558117 -0.639268 -0.529001
v 0.487912 0.237718 0.179601
vn -0.497396 -0.567007 -0.656583
v 0.247923 0.252363 0.161517
vn 0.624710 0.624705 0.468487
v 0.487904 0.492998 0.492831
vn 0.541715 -0.557847 -0.628770
v -0.202717 -0.492672 0.225496
vn 0.134242 -0.608203 -0.782348
v -0.044033 -0.492673 0.300681
vn 0.067585 0.059459 -0.995940
v -0.051848 -0.039303 0.294304
vn 0.303885 0.205152 -0.930358
v -0.146358 -0.145013 0.263144
vn -0.253436 -0.556571 -0.791201
v 0.081953 -0.492681 0.284830
vn -0.447488 0.451102 -0.772180
v -0.497764 -0.157455 0.258399
vn -0.053071 0.040444 -0.997771
v 0.013137 -0.030493 0.296468
vn 0.447551 0.127367 -0.885142
v 0.487825 -0.032908 0.295723
vn -0.604201 -0.121330 -0.787541
v -0.497763 0.064337 0.292393
vn 0.071393 -0.058675 -0.995721
v -0.052312 0.040680 0.294371
vn -0.034010 -0.059760 -0.997633
v 0.011740 0.032146 0.296374
vn 0.234566 -0.259194 -0.936908
v -0.137795 0.133136 0.267339
vn 0.708011 -0.091868 -0.700201
v 0.487896 0.030518 0.295363
vn -0.203596 -0.357878 -0.911303
v 0.139953 0.143576 0.264358
vn 0.713061 -0.280990 -0.642331
v 0.487919 0.132168 0.268970
vn -0.369014 0.606484 -0.704277
v 0.116235 0.492991 0.275470
vn 0.123574 0.447739 -0.885584
v -0.033915 0.493001 0.297179
vn 0.432659 0.712449 -0.552470
v -0.183186 0.492991 0.240136
vn 0.000045 0.707174 0.707040
v 0.041807 0.493004 0.492849
vn -0.148759 -0.687663 0.710627
v -0.087505 -0.337182 0.492865
vn 0.218316 -0.799859 0.559074
v 0.094548 -0.332542 0.492869
vn -0.663985 -0.502323 0.553892
v -0.274778 -0.216148 0.492927
vn -0.551969 0.439747 0.708487
v -0.276836 0.213785 0.492884
vn -0.547071 0.706770 0.448542
v -0.222550 0.269882 0.493109
vn -0.151689 0.684463 0.713093
v -0.100596 0.335732 0.492862
vn 0.279706 0.780475 0.559127
v 0.106733 0.329819 0.492877
vn 0.006268 -0.946710 0.322027
v -0.016466 -0.347165 0.935028
vn -0.778111 -0.292236 0.556004
v -0.326623 -0.127067 0.492874
vn -0.794160 0.047768 0.605828
v -0.350251 0.042433 0.492862
vn 0.530905 0.460797 0.711201
v 0.260853 0.222818 0.492861
vn -0.470598 -0.683446 0.558068
v -0.206149 -0.283579 0.492894
vn 0.769387 -0.308992 0.559078
v 0.319513 -0.123545 0.492908
vn 0.704456 0.001437 0.709746
v 0.343459 0.001438 0.492955
vn -0.735858 0.383976 0.557742
v -0.315662 0.154200 0.493007
vn 0.669888 0.212000 0.711552
v 0.319866 0.123428 0.492867
vn 0.063482 0.818871 0.570456
v 0.030186 0.347622 0.936435
vn 0.565370 -0.606451 0.559083
v 0.245451 -0.241581 0.492880
vn 0.674876 -0.470105 0.568810
v 0.269457 -0.211690 0.936443
vn 0.885227 -0.043401 0.463130
v 0.346187 -0.027725 0.936437
vn 0.529568 0.262219 0.806721
v 0.313334 0.138980 0.936427
vn -0.882501 0.337153 0.327902
v -0.317060 0.150760 0.937069
vn -0.178832 0.406835 0.895826
v -0.155171 0.312012 0.936443
vn 0.386772 -0.731712 0.561253
v 0.157569 -0.305893 0.936432
vn -0.429603 -0.428675 0.794782
v -0.257408 -0.238840 0.936439
vn -0.825811 -0.472868 0.307299
v -0.303973 -0.173913 0.935643
vn -0.817108 -0.201120 0.540264
v -0.337404 -0.097362 0.936363
vn -0.434539 0.014502 0.900536
v -0.352254 0.000587 0.936433
vn 0.565235 0.756601 0.328731
v 0.213560 0.271247 0.936361
vn -0.554897 0.702396 0.445792
v -0.216545 0.274402 0.936223
vn -0.181261 -0.407569 0.895004
v -0.148188 -0.314943 0.936449
vn -0.620926 0.500112 0.603605
v -0.277541 0.213193 0.936431
# 156 vertices, 0 vertices normals

f 1//1 4//4 8//8
f 7//7 6//6 4//4
f 8//8 11//11 1//1
f 22//22 7//7 9//9
f 8//8 2//2 11//11
f 7//7 4//4 1//1
f 3//3 11//11 2//2
f 7//7 1//1 10//10
f 10//10 9//9 7//7
f 10//10 1//1 12//12
f 12//12 1//1 18//18
f 4//4 5//5 29//29
f 4//4 6//6 5//5
f 32//32 2//2 8//8
f 1//1 11//11 13//13
f 14//14 1//1 13//13
f 1//1 15//15 20//20
f 18//18 1//1 21//21
f 1//1 20//20 21//21
f 5//5 30//30 29//29
f 6//6 16//16 5//5
f 5//5 16//16 30//30
f 17//17 7//7 22//22
f 11//11 3//3 25//25
f 41//41 14//14 13//13
f 27//27 12//12 18//18
f 1//1 14//14 41//41
f 19//19 1//1 41//41
f 1//1 19//19 15//15
f 15//15 19//19 20//20
f 18//18 21//21 28//28
f 4//4 29//29 31//31
f 8//8 4//4 31//31
f 9//9 10//10 39//39
f 39//39 10//10 34//34
f 10//10 12//12 34//34
f 27//27 18//18 28//28
f 23//23 22//22 9//9
f 9//9 39//39 23//23
f 6//6 24//24 16//16
f 6//6 7//7 24//24
f 17//17 22//22 23//23
f 2//2 32//32 33//33
f 2//2 33//33 3//3
f 33//33 25//25 3//3
f 26//26 11//11 25//25
f 11//11 26//26 13//13
f 20//20 19//19 36//36
f 21//21 20//20 42//42
f 20//20 36//36 42//42
f 21//21 42//42 28//28
f 29//29 38//38 31//31
f 24//24 7//7 17//17
f 37//37 24//24 17//17
f 32//32 8//8 31//31
f 34//34 12//12 35//35
f 12//12 27//27 35//35
f 26//26 41//41 13//13
f 63//63 35//35 27//27
f 30//30 38//38 29//29
f 37//37 38//38 30//30
f 16//16 37//37 30//30
f 24//24 37//37 16//16
f 31//31 38//38 32//32
f 23//23 37//37 17//17
f 32//32 38//38 33//33
f 37//37 23//23 39//39
f 33//33 38//38 25//25
f 39//39 34//34 37//37
f 34//34 35//35 37//37
f 25//25 38//38 40//40
f 40//40 38//38 44//44
f 25//25 40//40 26//26
f 63//63 37//37 35//35
f 26//26 40//40 41//41
f 28//28 63//63 27//27
f 19//19 41//41 40//40
f 40//40 43//43 19//19
f 19//19 43//43 36//36
f 43//43 42//42 36//36
f 28//28 42//42 43//43
f 63//63 28//28 43//43
f 37//37 48//48 38//38
f 37//37 51//51 48//48
f 53//53 44//44 38//38
f 63//63 43//43 65//65
f 38//38 48//48 47//47
f 45//45 38//38 47//47
f 52//52 51//51 37//37
f 50//50 46//46 45//45
f 47//47 50//50 45//45
f 48//48 49//49 47//47
f 49//49 50//50 47//47
f 48//48 54//54 49//49
f 51//51 54//54 48//48
f 51//51 55//55 54//54
f 55//55 51//51 52//52
f 55//55 57//57 56//56
f 56//56 57//57 37//37
f 46//46 50//50 53//53
f 56//56 54//54 55//55
f 37//37 58//58 56//56
f 50//50 44//44 53//53
f 58//58 54//54 56//56
f 50//50 64//64 44//44
f 49//49 64//64 50//50
f 58//58 49//49 54//54
f 64//64 60//60 44//44
f 61//61 60//60 64//64
f 58//58 59//59 49//49
f 59//59 71//71 49//49
f 44//44 60//60 40//40
f 71//71 66//66 49//49
f 58//58 37//37 59//59
f 61//61 62//62 60//60
f 59//59 72//72 71//71
f 63//63 72//72 59//59
f 63//63 59//59 37//37
f 67//67 62//62 61//61
f 64//64 65//65 61//61
f 65//65 67//67 61//61
f 49//49 65//65 64//64
f 66//66 65//65 49//49
f 67//67 43//43 40//40
f 65//65 43//43 67//67
f 63//63 65//65 66//66
f 45//45 74//74 38//38
f 46//46 74//74 45//45
f 76//76 53//53 38//38
f 53//53 76//76 46//46
f 76//76 68//68 46//46
f 52//52 69//69 55//55
f 69//69 70//70 57//57
f 70//70 37//37 57//57
f 57//57 55//55 69//69
f 60//60 82//82 40//40
f 62//62 82//82 60//60
f 71//71 73//73 66//66
f 73//73 71//71 79//79
f 72//72 79//79 71//71
f 80//80 62//62 67//67
f 80//80 67//67 40//40
f 66//66 73//73 63//63
f 74//74 75//75 38//38
f 37//37 88//88 52//52
f 68//68 75//75 74//74
f 46//46 68//68 74//74
f 70//70 69//69 77//77
f 37//37 70//70 78//78
f 70//70 77//77 78//78
f 72//72 92//92 79//79
f 63//63 92//92 72//72
f 92//92 63//63 105//105
f 82//82 94//94 40//40
f 79//79 84//84 73//73
f 63//63 73//73 84//84
f 98//98 38//38 75//75
f 88//88 37//37 85//85
f 88//88 77//77 69//69
f 52//52 88//88 69//69
f 76//76 38//38 81//81
f 76//76 81//81 68//68
f 62//62 80//80 83//83
f 83//83 80//80 87//87
f 40//40 94//94 87//87
f 87//87 80//80 40//40
f 88//88 86//86 77//77
f 75//75 68//68 89//89
f 37//37 78//78 85//85
f 68//68 81//81 89//89
f 77//77 86//86 78//78
f 82//82 90//90 94//94
f 82//82 83//83 90//90
f 62//62 83//83 82//82
f 63//63 84//84 105//105
f 95//95 98//98 75//75
f 95//95 75//75 89//89
f 83//83 91//91 90//90
f 79//79 92//92 104//104
f 83//83 87//87 91//91
f 91//91 87//87 97//97
f 93//93 79//79 104//104
f 79//79 93//93 84//84
f 97//97 87//87 94//94
f 84//84 93//93 105//105
f 95//95 106//106 98//98
f 106//106 95//95 100//100
f 88//88 85//85 99//99
f 99//99 86//86 88//88
f 89//89 81//81 100//100
f 95//95 89//89 100//100
f 78//78 86//86 96//96
f 96//96 85//85 78//78
f 90//90 91//91 102//102
f 92//92 103//103 104//104
f 103//103 92//92 105//105
f 90//90 102//102 94//94
f 109//109 106//106 100//100
f 38//38 98//98 81//81
f 111//111 81//81 98//98
f 81//81 111//111 100//100
f 99//99 101//101 86//86
f 109//109 100//100 111//111
f 96//96 86//86 101//101
f 91//91 123//123 117//117
f 104//104 103//103 119//119
f 103//103 105//105 120//120
f 119//119 103//103 120//120
f 120//120 105//105 85//85
f 97//97 123//123 91//91
f 121//121 104//104 119//119
f 104//104 121//121 93//93
f 123//123 97//97 94//94
f 93//93 121//121 105//105
f 110//110 99//99 85//85
f 106//106 109//109 107//107
f 108//108 107//107 109//109
f 110//110 101//101 99//99
f 107//107 108//108 112//112
f 110//110 107//107 112//112
f 110//110 112//112 101//101
f 114//114 111//111 98//98
f 108//108 111//111 114//114
f 109//109 111//111 108//108
f 112//112 108//108 116//116
f 113//113 101//101 112//112
f 96//96 101//101 113//113
f 113//113 85//85 96//96
f 108//108 114//114 115//115
f 116//116 108//108 115//115
f 113//113 112//112 116//116
f 118//118 113//113 116//116
f 118//118 85//85 113//113
f 117//117 115//115 114//114
f 118//118 116//116 120//120
f 120//120 116//116 119//119
f 117//117 114//114 102//102
f 119//119 116//116 121//121
f 118//118 120//120 85//85
f 117//117 102//102 91//91
f 115//115 117//117 122//122
f 116//116 115//115 122//122
f 121//121 116//116 122//122
f 122//122 117//117 123//123
f 123//123 94//94 124//124
f 122//122 123//123 124//124
f 105//105 121//121 124//124
f 107//107 98//98 106//106
f 107//107 85//85 98//98
f 110//110 85//85 107//107
f 121//121 122//122 124//124
f 98//98 94//94 114//114
f 114//114 94//94 102//102
f 85//85 125//125 98//98
f 136//136 98//98 125//125
f 85//85 126//126 125//125
f 133//133 98//98 127//127
f 136//136 127//127 98//98
f 134//134 94//94 98//98
f 138//138 137//137 85//85
f 85//85 140//140 138//138
f 139//139 94//94 134//134
f 85//85 105//105 140//140
f 128//128 94//94 139//139
f 140//140 105//105 135//135
f 129//129 94//94 128//128
f 129//129 130//130 94//94
f 130//130 131//131 124//124
f 130//130 124//124 94//94
f 135//135 105//105 124//124
f 125//125 126//126 132//132
f 126//126 85//85 142//142
f 148//148 126//126 142//142
f 133//133 127//127 150//150
f 142//142 85//85 137//137
f 98//98 133//133 134//134
f 135//135 131//131 153//153
f 124//124 131//131 135//135
f 130//130 141//141 131//131
f 143//143 142//142 137//137
f 133//133 151//151 134//134
f 151//151 152//152 134//134
f 127//127 149//149 150//150
f 149//149 127//127 136//136
f 147//147 130//130 129//129
f 136//136 125//125 155//155
f 125//125 132//132 155//155
f 149//149 136//136 155//155
f 151//151 133//133 150//150
f 137//137 138//138 144//144
f 138//138 140//140 144//144
f 144//144 140//140 145//145
f 139//139 134//134 146//146
f 139//139 146//146 156//156
f 128//128 139//139 156//156
f 156//156 129//129 128//128
f 154//154 129//129 156//156
f 145//145 140//140 135//135
f 153//153 145//145 135//135
f 154//154 147//147 129//129
f 130//130 147//147 141//141
f 132//132 148//148 155//155
f 126//126 148//148 132//132
f 148//148 142//142 143//143
f 137//137 144//144 143//143
f 152//152 146//146 134//134
f 141//141 153//153 131//131
f 148//148 143//143 155//155
f 151//151 150//150 149//149
f 151//151 149//149 152//152
f 143//143 144//144 155//155
f 149//149 147//147 152//152
f 147//147 156//156 152//152
f 155//155 147//147 149//149
f 152//152 156//156 146//146
f 144//144 145//145 155//155
f 145//145 147//147 155//155
f 154//154 156//156 147//147
f 145//145 141//141 147//147
f 153//153 141//141 145//145
# 320 faces, 0 coords texture

# End of File
