####
#
# OBJ File Generated by Meshlab
#
####
# Object deer.obj
#
# Vertices: 419
# Faces: 826
#
####
vn -0.238193 0.380180 -0.893715
v -0.143722 0.095741 0.255348
vn 0.319172 0.932952 0.166522
v -0.085361 0.115600 0.301767
vn -0.160983 -0.925945 -0.341629
v -0.118294 -0.010956 0.282767
vn 0.990531 -0.085776 -0.107192
v -0.045450 0.052916 0.310198
vn -0.390466 0.172268 0.904356
v -0.154030 0.057678 0.365652
vn 0.029824 -0.471092 -0.881580
v -0.091735 -0.247855 0.159902
vn -0.779142 -0.555124 0.291161
v -0.185546 -0.220196 0.244468
vn 0.340683 0.937975 -0.064331
v -0.132291 -0.134064 0.208030
vn 0.679447 -0.191879 0.708190
v -0.071209 -0.243158 0.242874
vn -0.520457 0.007998 -0.853850
v 0.032499 0.041966 -0.521907
vn -0.474632 0.626627 -0.618113
v 0.099527 0.172741 -0.522242
vn -0.834438 -0.458388 -0.305931
v 0.054904 -0.060435 -0.513732
vn -0.400405 -0.389345 -0.829510
v 0.132623 -0.140225 -0.523258
vn 0.186310 -0.069804 -0.980008
v 0.221769 0.037940 -0.523311
vn -0.662841 -0.744455 -0.080176
v 0.137945 -0.151967 -0.501609
vn -0.372918 0.627594 -0.683417
v 0.168584 0.224560 -0.519832
vn 0.119326 0.240515 -0.963283
v 0.222314 0.004109 -0.522950
vn -0.157697 0.023517 0.987207
v 0.302659 0.045725 -0.512630
vn -0.385788 0.922474 0.014457
v 0.238188 0.262970 -0.514565
vn -0.022202 0.126578 -0.991708
v 0.302994 -0.007322 -0.523307
vn 0.195361 -0.459837 -0.866247
v 0.737452 -0.292479 -0.523122
vn 0.345070 -0.614577 -0.709381
v 0.810586 -0.256120 -0.521836
vn 0.617230 -0.682944 0.390660
v 0.911074 -0.200074 -0.516008
vn 0.792755 0.599416 -0.110636
v 0.930392 0.106243 -0.521241
vn 0.041337 0.004075 -0.999137
v 0.943653 0.004006 -0.522967
vn 0.916307 0.235255 -0.324094
v 1.003981 -0.025752 -0.518376
vn 0.032095 0.975614 -0.217136
v 0.584957 0.350362 -0.520012
vn -0.160246 -0.951111 -0.264024
v 0.416899 -0.345190 -0.520961
vn 0.158735 -0.831150 -0.532909
v 0.614789 -0.334779 -0.522883
vn -0.428917 -0.578618 -0.693708
v 0.263310 -0.262405 -0.522572
vn 0.027094 -0.984270 0.174583
v 0.504780 -0.350368 -0.504278
vn 0.617188 0.643225 -0.453146
v 0.793659 0.246395 -0.522363
vn 0.886679 -0.352487 -0.299255
v 1.001248 -0.095163 -0.519566
vn -0.178990 0.809615 -0.559004
v 0.439007 0.329859 -0.521267
vn -0.259058 0.726817 -0.636102
v 0.339383 0.299345 -0.522038
vn 0.429307 0.891335 -0.145661
v 0.704123 0.318249 -0.521636
vn -0.809732 0.516666 -0.278192
v 0.050554 0.140126 -0.509352
vn -0.301900 -0.626871 -0.718254
v 0.351324 -0.317591 -0.523004
vn -0.103138 0.949031 0.297831
v 0.461653 0.293895 -0.430674
vn -0.203569 -0.737876 -0.643505
v -0.460655 -0.289662 -0.404395
vn 0.664308 -0.296584 0.686100
v 0.900122 -0.116989 -0.453763
vn -0.626669 -0.778716 0.029792
v 0.218060 -0.226292 -0.510134
vn 0.309664 -0.884671 0.348520
v 0.578217 -0.306161 -0.425410
vn 0.502185 0.730953 0.462080
v 0.704398 0.252708 -0.441279
vn -0.969954 0.220809 -0.102143
v 0.017811 0.065933 -0.434761
vn -0.265930 0.936936 0.226786
v 0.341727 0.270408 -0.440517
vn 0.438660 -0.443237 -0.781741
v -0.247561 -0.250114 -0.353810
vn -0.265633 -0.930388 0.252622
v 0.419503 -0.297083 -0.401000
vn 0.145575 -0.975230 -0.166536
v -0.314444 -0.282074 -0.338940
vn -0.467783 -0.852838 0.232049
v 0.322872 -0.268660 -0.433781
vn 0.619977 0.586974 0.520663
v 0.810845 0.178137 -0.478102
vn -0.969785 -0.173312 -0.171697
v 0.008269 -0.004757 -0.399074
vn 0.215876 -0.974094 -0.067362
v -0.238870 -0.274715 -0.306926
vn -0.469087 -0.882833 -0.023745
v 0.209973 -0.191244 -0.392316
vn -0.373094 -0.927764 -0.007366
v 0.310577 -0.250499 -0.335519
vn 0.464112 0.833978 0.298464
v 0.636042 0.247470 -0.333305
vn 0.726897 0.108757 0.678081
v 0.896934 -0.012167 -0.433871
vn -0.714695 0.698895 -0.027528
v 0.070174 0.141948 -0.384225
vn 0.124065 -0.992122 0.017396
v -0.378368 -0.264209 -0.252284
vn 0.132603 0.641941 -0.755201
v -0.263787 -0.189596 -0.343957
vn -0.759785 -0.634493 -0.141931
v 0.073510 -0.081396 -0.442041
vn 0.441086 -0.782560 0.439366
v 0.723816 -0.231879 -0.405662
vn 0.715707 0.478672 0.508562
v 0.847384 0.105847 -0.446166
vn -0.753840 -0.221358 -0.618648
v -0.018725 -0.033050 -0.262612
vn -0.546855 0.831434 -0.098318
v 0.077421 0.192416 -0.221255
vn -0.241131 0.877197 -0.415188
v -0.315510 -0.154444 -0.266295
vn -0.532706 -0.828638 -0.171998
v 0.136838 -0.171139 -0.366229
vn -0.944088 -0.020660 0.329047
v -0.466037 -0.256354 -0.290309
vn -0.211456 -0.938291 0.273671
v -0.212101 -0.231282 -0.198266
vn -0.515039 -0.743292 -0.426909
v 0.059047 -0.143512 -0.232428
vn 0.779391 -0.099322 -0.618615
v -0.159966 -0.219632 -0.290383
vn 0.200361 0.906260 0.372222
v 0.587376 0.292803 -0.425717
vn -0.922034 0.280834 -0.266433
v 0.006120 0.022978 -0.300192
vn -0.461849 0.884932 0.059928
v 0.160295 0.203234 -0.425161
vn -0.259320 0.965787 -0.002796
v 0.245025 0.235660 -0.282929
vn 0.661127 -0.542551 0.518218
v 0.796190 -0.149523 -0.365910
vn -0.613474 0.751212 -0.243579
v -0.464922 -0.227405 -0.330826
vn -0.357217 -0.917779 -0.173432
v 0.225631 -0.238230 -0.239231
vn 0.810357 0.324219 0.488062
v 0.750531 0.066086 -0.209043
vn -0.035425 -0.662296 -0.748404
v -0.091784 -0.130676 -0.191720
vn 0.484701 -0.795833 0.362926
v 0.667573 -0.211248 -0.267089
vn -0.678573 0.346861 -0.647477
v -0.046579 0.005128 -0.225710
vn -0.130320 -0.987483 0.088845
v 0.350435 -0.263683 -0.253189
vn 0.118764 -0.947215 0.297789
v 0.506366 -0.267937 -0.243038
vn -0.130065 0.985897 0.105310
v 0.378684 0.264830 -0.296939
vn 0.827746 -0.169630 0.534849
v 0.831733 -0.057978 -0.346871
vn -0.825602 0.532247 -0.187335
v 0.039407 0.120857 -0.267517
vn 0.018315 0.981404 0.191077
v 0.475773 0.270358 -0.294864
vn -0.644277 0.592329 -0.483792
v 0.007114 0.126420 -0.188178
vn 0.456447 -0.817585 -0.351014
v -0.281242 -0.234816 -0.159538
vn 0.783062 -0.353532 0.511692
v 0.737919 -0.064913 -0.188186
vn -0.096126 0.457999 -0.883740
v -0.152927 -0.091532 -0.185488
vn -0.341072 -0.894603 -0.288714
v 0.100619 -0.197279 -0.171696
vn 0.659307 0.653984 0.370971
v 0.731906 0.161369 -0.299626
vn 0.551007 -0.813898 -0.184286
v -0.222070 -0.253797 -0.126153
vn -0.030046 -0.976008 0.215653
v -0.186673 -0.212395 -0.106208
vn 0.363641 0.923697 -0.120620
v -0.301148 0.477077 -0.048331
vn 0.467824 -0.880226 0.079648
v -0.142192 -0.260990 -0.184900
vn -0.134769 0.986695 0.090940
v 0.214492 0.231624 -0.113854
vn 0.183085 -0.960171 -0.211075
v -0.364127 -0.292102 -0.188598
vn 0.173770 0.254203 -0.951412
v -0.186734 0.372616 -0.117188
vn 0.776564 -0.362594 -0.515241
v -0.115421 -0.167296 -0.179242
vn 0.721375 0.690551 0.052516
v -0.134793 0.371583 -0.040149
vn 0.611169 -0.607337 0.507557
v 0.640307 -0.149764 -0.131213
vn 0.799397 0.056788 0.598113
v 0.732003 0.016192 -0.151853
vn -0.198809 -0.972096 0.124515
v -0.369310 -0.292444 -0.153466
vn 0.056800 -0.964618 0.257459
v -0.164717 -0.244021 -0.120501
vn 0.649728 0.588629 0.481009
v 0.652709 0.139790 -0.127643
vn -0.455799 0.799906 -0.390381
v -0.210575 -0.061305 -0.152483
vn 0.363370 0.875330 0.318998
v 0.575476 0.232977 -0.182601
vn -0.801211 0.141564 0.581395
v -0.393264 -0.246840 -0.153373
vn 0.138049 -0.934737 0.327427
v -0.171843 -0.190960 -0.061926
vn -0.779096 -0.036707 -0.625829
v -0.425481 0.517628 -0.026548
vn 0.095339 -0.948476 0.302164
v 0.413079 -0.247743 -0.161452
vn -0.651520 0.748763 0.121962
v -0.332919 -0.147367 -0.191863
vn -0.601590 0.376091 -0.704730
v -0.160902 0.016563 -0.106541
vn -0.363005 -0.033874 -0.931171
v -0.296581 0.383053 -0.089920
vn -0.498072 0.484595 -0.719091
v -0.071032 0.110284 -0.139727
vn 0.334671 0.283959 -0.898534
v -0.114574 0.224035 -0.091810
vn -0.392762 -0.248149 -0.885528
v -0.221736 0.272943 -0.082427
vn -0.909368 0.415978 0.003551
v -0.248026 -0.093378 -0.074546
vn -0.757989 -0.458141 -0.464284
v -0.307076 0.326678 -0.053876
vn -0.459952 0.860214 -0.220173
v 0.051227 0.178493 -0.161046
vn -0.318589 -0.539839 0.779150
v -0.305037 -0.248963 -0.079349
vn 0.535522 -0.798156 -0.275976
v -0.080068 -0.198958 -0.100093
vn 0.388523 0.765036 0.513585
v 0.527770 0.193548 -0.059573
vn 0.014143 -0.969488 -0.244729
v -0.027696 -0.171071 -0.086289
vn 0.717588 0.604497 -0.345906
v -0.082877 0.247951 -0.017184
vn 0.059082 0.966559 0.249547
v 0.409793 0.242987 -0.136506
vn -0.223400 -0.969148 -0.104140
v 0.189438 -0.237848 -0.122101
vn 0.534830 0.740365 0.407206
v -0.281742 0.402921 0.021283
vn 0.344099 -0.824052 0.450039
v 0.548705 -0.203893 -0.115747
vn -0.819722 -0.572695 0.008723
v -0.333590 0.348455 0.011891
vn 0.636612 0.753533 0.164051
v -0.081658 0.306837 0.051792
vn -0.088286 0.853847 -0.512982
v 0.005078 0.188565 -0.098559
vn 0.281946 -0.846015 0.452510
v 0.417869 -0.190160 -0.020668
vn 0.001816 -0.978561 0.205948
v -0.098536 -0.195685 -0.023906
vn -0.100547 0.503051 -0.858388
v -0.435070 -0.243773 -0.039718
vn -0.846851 -0.524825 0.086033
v -0.296831 0.300963 -0.005875
vn -0.460937 -0.869875 -0.175654
v -0.239826 -0.176207 0.000301
vn -0.450956 0.141465 -0.881264
v -0.153116 0.113865 -0.099135
vn 0.542871 -0.365855 -0.755937
v -0.419167 -0.305823 -0.040602
vn 0.453703 0.891027 0.014957
v -0.204671 0.317271 0.042829
vn 0.112069 -0.979106 0.169680
v 0.275633 -0.234127 -0.064748
vn -0.425517 0.403541 -0.809994
v -0.576192 -0.316671 -0.034619
vn -0.400020 0.787756 -0.468428
v -0.502041 -0.267517 -0.024522
vn -0.150737 -0.963188 -0.222593
v -0.031365 -0.197847 0.005231
vn 0.173398 0.887645 0.426638
v 0.419910 0.204309 -0.022661
vn -0.996910 0.001714 0.078535
v -0.585363 -0.382636 -0.020965
vn -0.234474 -0.048914 -0.970891
v -0.551015 -0.383050 -0.052651
vn -0.391970 -0.516384 -0.761385
v -0.612966 -0.502146 0.003333
vn 0.435047 -0.669334 -0.602268
v -0.552403 -0.475933 -0.016201
vn 0.637549 0.371094 0.675144
v 0.607765 0.108994 -0.051550
vn -0.756135 0.182898 -0.628337
v -0.235477 0.029202 -0.039027
vn -0.842551 0.048673 -0.536414
v -0.268248 -0.039015 -0.014237
vn 0.718764 -0.634505 -0.284220
v -0.485677 -0.369649 -0.039200
vn -0.317740 0.541246 0.778521
v -0.426443 0.486294 0.031344
vn -0.929047 -0.091568 -0.358449
v -0.227489 0.150263 -0.024627
vn 0.239822 -0.029249 0.970376
v -0.623740 -0.316361 0.035792
vn 0.455302 -0.625841 0.633264
v 0.538155 -0.146771 -0.035495
vn 0.659050 -0.325508 0.678010
v 0.639922 -0.069171 -0.057192
vn -0.468164 0.311459 -0.826931
v -0.396469 -0.175828 -0.001528
vn -0.290240 0.234426 -0.927796
v -0.282677 -0.110850 0.003885
vn -0.785834 -0.410293 0.462736
v -0.226865 0.224354 0.053937
vn -0.538287 0.299607 -0.787707
v -0.642894 -0.461019 0.024544
vn -0.591167 0.492427 0.638777
v -0.476734 -0.258387 0.032735
vn 0.372855 -0.265661 0.889047
v -0.506863 -0.360895 0.026879
vn -0.586727 -0.362934 0.723900
v -0.325939 0.374495 0.086142
vn 0.838326 -0.425375 0.340977
v -0.555735 -0.484418 0.024122
vn 0.412835 -0.589067 0.694671
v 0.420309 -0.135440 0.047999
vn 0.383783 -0.899501 -0.208825
v -0.605325 -0.535204 0.054425
vn -0.239914 0.519505 0.820095
v -0.587915 -0.312531 0.030368
vn 0.097413 0.942916 0.318464
v 0.249483 0.208203 0.019372
vn -0.793705 -0.436644 -0.423526
v -0.709918 -0.282809 0.049528
vn 0.207767 0.860202 0.465710
v -0.606139 -0.440601 0.050533
vn 0.121595 0.366749 0.922339
v -0.577745 -0.435130 0.039638
vn 0.441745 0.521268 0.730165
v 0.434112 0.127967 0.060655
vn -0.481529 -0.769362 -0.419776
v -0.479450 -0.109368 0.056478
vn 0.433174 0.889522 0.145298
v -0.027238 0.221958 0.067462
vn -0.789891 -0.523564 -0.319299
v -0.686743 -0.488747 0.059732
vn 0.538810 -0.720245 0.436956
v -0.375583 -0.273217 0.025328
vn 0.385985 0.764731 0.515947
v -0.287653 0.409467 0.104941
vn 0.000061 0.995499 0.094768
v 0.093754 0.211810 0.014778
vn -0.467629 -0.034076 -0.883268
v -0.751653 -0.407621 0.067205
vn 0.090654 0.980434 -0.174730
v -0.665604 -0.266891 0.019774
vn -0.855881 -0.333302 0.395446
v -0.413393 -0.162478 0.062601
vn -0.366924 0.221518 -0.903491
v -0.418772 -0.106558 0.035372
vn -0.925668 0.374932 -0.050647
v -0.334140 -0.039228 0.105456
vn 0.549197 -0.619388 -0.561018
v -0.312614 -0.202751 0.029934
vn -0.207271 0.957714 -0.199555
v -0.363377 -0.070318 0.067638
vn -0.096948 -0.993839 0.053716
v -0.253092 -0.170736 0.072494
vn -0.212311 0.555134 -0.804208
v -0.478677 -0.066709 0.054909
vn -0.151345 -0.987990 -0.031135
v -0.148737 -0.189157 0.005672
vn 0.099718 0.983475 0.151104
v -0.483259 -0.054864 0.084826
vn -0.611523 0.468608 0.637531
v -0.106532 0.176944 0.140710
vn -0.659101 -0.752037 0.005196
v -0.751317 -0.439173 0.095320
vn -0.710063 -0.623085 -0.327985
v -0.684124 -0.540242 0.123762
vn -0.096525 -0.606590 0.789133
v -0.343090 -0.183428 0.109692
vn 0.209954 0.474573 0.854809
v -0.230869 0.372124 0.112807
vn 0.362277 0.633708 0.683498
v 0.288103 0.137141 0.133968
vn 0.563453 0.145602 0.813216
v 0.491394 0.036622 0.062976
vn -0.377890 -0.255755 0.889825
v -0.213047 0.263517 0.105596
vn 0.145399 0.629644 0.763156
v -0.183044 0.342090 0.108379
vn 0.623745 0.019452 0.781386
v 0.551450 -0.004472 0.025027
vn 0.332518 0.717665 0.611873
v -0.713936 -0.237680 0.045131
vn 0.131192 0.834644 0.534937
v -0.083884 0.187762 0.149818
vn 0.603704 -0.743082 0.288741
v 0.188395 -0.212066 0.122304
vn -0.828979 0.555193 -0.067478
v -0.231595 0.157093 0.049559
vn 0.381552 -0.899448 0.213099
v -0.646228 -0.560720 0.197717
vn 0.314120 -0.236148 0.919545
v -0.479913 -0.083676 0.114598
vn 0.325167 -0.944640 -0.043847
v 0.149037 -0.237742 0.094630
vn 0.518566 -0.324478 0.791077
v 0.452545 -0.065075 0.078108
vn -0.638874 -0.107350 -0.761785
v -0.828567 -0.347775 0.109822
vn -0.202370 0.027096 0.978934
v -0.398782 -0.109661 0.110867
vn -0.347597 0.775890 0.526471
v -0.145549 0.174895 0.103131
vn -0.541098 -0.004941 -0.840945
v -0.602087 -0.069557 0.125762
vn -0.629124 0.120341 0.767933
v -0.364585 -0.097926 0.122949
vn 0.139958 0.823764 -0.549386
v -0.226146 0.183610 0.127543
vn -0.932961 0.235530 -0.272231
v -0.316268 0.019631 0.091806
vn 0.384630 0.876155 -0.290539
v -0.745838 -0.381383 0.085453
vn 0.032403 -0.005862 0.999458
v -0.720639 -0.430059 0.122233
vn -0.219752 -0.915410 -0.337244
v -0.206065 -0.196370 0.088914
vn -0.883009 -0.088639 -0.460909
v -0.651879 -0.045943 0.150573
vn -0.316464 -0.938078 0.140928
v -0.582687 -0.107328 0.142649
vn 0.777896 0.455637 -0.432751
v -0.245566 0.276686 0.189410
vn 0.107168 0.908279 -0.404405
v -0.840754 -0.306216 0.145166
vn -0.745354 -0.116329 -0.656441
v -0.307426 0.113968 0.144317
vn 0.125109 -0.990959 -0.048452
v 0.136613 -0.261698 0.214187
vn 0.532026 0.846697 -0.007281
v -0.196229 0.160155 0.170280
vn -0.884046 -0.399124 -0.243235
v -0.881247 -0.331543 0.171556
vn 0.865509 0.149192 0.478159
v -0.606878 -0.520773 0.128207
vn 0.140333 0.205180 0.968611
v -0.610748 -0.065192 0.172462
vn -0.074184 0.253467 -0.964495
v -0.295201 0.218274 0.128368
vn -0.447038 -0.205712 -0.870540
v -0.447075 0.174403 0.171413
vn -0.050540 -0.949567 -0.309464
v -0.087341 -0.225055 0.105293
vn 0.135270 0.879409 0.456444
v 0.027816 0.165850 0.173240
vn -0.091435 -0.984039 -0.152667
v 0.033291 -0.237515 0.077657
vn -0.478945 0.450416 -0.753483
v -0.350512 0.211923 0.161067
vn -0.173307 0.433927 -0.884122
v -0.300737 0.324298 0.178752
vn -0.960381 -0.045832 0.274896
v -0.320301 -0.071274 0.201792
vn 0.913260 0.274350 0.301146
v -0.231134 0.245645 0.205010
vn 0.128917 0.871441 0.473255
v 0.140652 0.161835 0.168091
vn 0.336324 0.747121 0.573321
v 0.156413 0.093399 0.245277
vn 0.471831 -0.061947 0.879510
v 0.330519 -0.007704 0.180410
vn 0.391011 -0.417529 0.820232
v -0.826536 -0.355679 0.153843
vn -0.986409 -0.047372 0.157331
v -0.325306 0.048077 0.180468
vn -0.786200 -0.492442 0.373351
v -0.307854 -0.117313 0.166969
vn 0.304971 0.819569 0.485077
v -0.208605 0.170258 0.226539
vn 0.056660 -0.991613 0.116159
v -0.142879 -0.240960 0.161685
vn -0.298103 0.908472 0.292939
v -0.669837 -0.471305 0.154949
vn 0.053139 -0.957323 0.284092
v -0.421302 0.155666 0.202639
vn 0.188562 0.922358 -0.337194
v -0.697792 -0.471444 0.239605
vn 0.128526 0.062720 0.989721
v -0.416921 0.179187 0.215162
vn 0.956635 0.254078 0.142458
v -0.673729 -0.495363 0.277171
vn -0.412005 -0.297554 0.861228
v -0.330204 0.286618 0.250966
vn 0.802406 0.227438 0.551740
v 0.222982 0.018713 0.222246
vn -0.900480 0.131640 -0.414496
v -0.362337 0.291929 0.220428
vn 0.122486 0.852016 0.508985
v -0.074956 0.156510 0.232953
vn -0.330657 -0.914268 0.234053
v -0.089204 -0.260736 0.222209
vn -0.388617 0.917431 0.085422
v -0.465367 0.201539 0.206073
vn -0.483735 0.480653 0.731418
v -0.388972 0.209602 0.204083
vn 0.112323 0.451126 -0.885364
v -0.324586 0.397450 0.213343
vn -0.040156 -0.996732 0.070097
v -0.051348 -0.249830 0.228331
vn -0.017286 0.987001 -0.159784
v -0.895750 -0.269826 0.233934
vn -0.545523 -0.317498 0.775629
v -0.348683 0.140783 0.215523
vn -0.838383 -0.276067 0.470000
v -0.276376 -0.128981 0.275286
vn 0.593104 -0.432270 0.679242
v 0.255035 -0.110152 0.156780
vn -0.830762 -0.088534 0.549541
v -0.262479 -0.061608 0.284503
vn -0.057872 -0.977816 0.201313
v -0.703791 -0.525207 0.315356
vn -0.671523 0.124451 0.730458
v -0.290188 0.069822 0.242224
vn -0.306479 -0.924060 -0.228436
v -0.194136 -0.248715 0.188598
vn -0.871969 -0.203066 -0.445460
v -0.730679 -0.520179 0.230500
vn -0.574146 0.818004 0.035005
v -0.613728 0.135633 0.266118
vn -0.113934 0.054449 0.991995
v -0.296841 0.188714 0.248246
vn -0.838340 0.041669 0.543552
v -0.289032 0.011446 0.286185
vn 0.379849 -0.145058 0.913604
v -0.279703 0.281947 0.248712
vn 0.587698 -0.805462 0.076430
v -0.148287 -0.253517 0.238348
vn -0.615621 -0.726660 0.304919
v -0.106300 -0.230903 0.199221
vn 0.280693 -0.425999 0.860079
v -0.524562 0.124234 0.268187
vn -0.216154 0.141213 -0.966093
v -0.412014 0.446440 0.265891
vn -0.460172 0.812772 -0.357272
v -0.502871 0.466027 0.289306
vn -0.160285 -0.667385 -0.727259
v -0.503677 0.396925 0.278083
vn -0.160609 -0.985466 -0.055335
v -0.113855 -0.227071 0.263418
vn -0.859225 -0.508929 -0.052183
v -0.788747 -0.476678 0.300068
vn -0.188478 -0.601285 -0.776487
v -0.508338 0.120464 0.232856
vn -0.299616 0.429902 -0.851713
v -0.347715 0.443588 0.234779
vn 0.689668 -0.722099 -0.054131
v -0.157202 -0.213956 0.232432
vn -0.071638 -0.925120 0.372856
v -0.087481 -0.205665 0.317519
vn -0.142077 -0.930458 0.337732
v -0.654135 0.113647 0.244498
vn 0.252064 -0.923853 0.288027
v -0.152381 -0.249376 0.261747
vn -0.539232 -0.648589 0.537180
v -0.885806 -0.267034 0.298337
vn -0.242442 -0.772445 0.586985
v -0.601444 0.389422 0.345237
vn -0.173931 0.659297 0.731489
v -0.218301 0.130228 0.269047
vn -0.809240 -0.573970 -0.125254
v -0.384648 0.369833 0.275998
vn -0.357617 0.882161 -0.306436
v -0.364901 0.506107 0.315793
vn 0.851497 0.453472 -0.263278
v -0.298108 0.483861 0.301598
vn 0.104765 0.795700 0.596562
v 0.013281 0.063594 0.334572
vn -0.489193 -0.828923 0.271251
v -0.206899 -0.247462 0.248519
vn -0.061896 0.828250 -0.556930
v -0.746797 -0.433361 0.287149
vn -0.077530 -0.687129 0.722387
v -0.336490 0.378678 0.315622
vn 0.952019 -0.303884 -0.036254
v 0.225910 -0.185994 0.301013
vn -0.229946 -0.940574 -0.249890
v -0.432489 0.401377 0.280817
vn 0.772188 -0.625058 -0.114137
v 0.201182 -0.224340 0.232250
vn 0.984999 -0.166694 0.044611
v 0.221997 -0.119155 0.223359
vn 0.562868 0.692273 0.451594
v 0.190817 0.022198 0.337745
vn -0.874566 -0.318158 -0.365937
v -0.851821 -0.390209 0.322381
vn -0.499149 0.212797 0.839981
v -0.769837 -0.456922 0.334296
vn 0.040603 0.684410 0.727966
v -0.082639 0.109258 0.297456
vn 0.830206 -0.093244 0.549603
v -0.292102 0.413532 0.299382
vn -0.633065 -0.080898 0.769860
v -0.188839 -0.033854 0.389467
vn 0.296897 0.716867 0.630836
v -0.121061 0.124691 0.296611
vn -0.237372 0.574260 0.783505
v -0.071479 0.054504 0.351720
vn -0.199244 -0.508499 0.837694
v -0.472053 0.411451 0.305944
vn 0.398619 -0.911251 -0.103554
v 0.158123 -0.262122 0.350146
vn -0.883961 -0.028113 0.466715
v -0.409926 0.451810 0.353496
vn 0.359302 0.573383 0.736297
v -0.117747 0.032335 0.339325
vn -0.574473 -0.366348 0.731963
v -0.192113 -0.138831 0.365958
vn -0.352089 -0.928383 0.118908
v -0.023907 -0.215967 0.395715
vn 0.117723 0.797132 0.592218
v 0.091733 0.031200 0.377252
vn 0.367247 0.925407 -0.093548
v -0.673851 -0.458559 0.398385
vn -0.894404 -0.217151 0.391008
v -0.705060 -0.494930 0.431900
vn -0.737993 0.569850 -0.361437
v -0.677869 0.512145 0.445162
vn -0.436713 -0.695139 0.571020
v -0.123691 -0.167980 0.389963
vn 0.315760 0.781707 0.537801
v -0.878134 -0.322223 0.383273
vn -0.592776 -0.268505 -0.759290
v -0.423122 0.504834 0.386741
vn 0.094713 0.870249 -0.483421
v -0.330855 0.552574 0.362907
vn -0.473904 0.362349 0.802569
v -0.186580 0.026471 0.384258
vn -0.358106 0.163264 0.919296
v -0.122819 -0.079620 0.416745
vn -0.055584 -0.553832 -0.830771
v -0.700244 0.453318 0.453118
vn -0.263408 0.869206 -0.418447
v -0.545951 0.568942 0.433522
vn 0.988387 0.124101 0.087689
v 0.233055 -0.055261 0.339690
vn 0.997975 -0.063580 -0.001832
v 0.220966 -0.125871 0.344614
vn 0.408335 0.576352 0.707871
v -0.126668 0.065772 0.375316
vn -0.198841 0.677623 0.708018
v 0.017581 -0.009279 0.419028
vn 0.967023 -0.075731 0.243169
v -0.322110 0.527653 0.409066
vn -0.719711 -0.500313 0.481354
v -0.069162 -0.180287 0.444620
vn -0.275225 0.960810 -0.033089
v -0.675455 -0.446554 0.486534
vn -0.267102 0.428636 0.863092
v -0.656350 0.515988 0.491583
vn -0.214506 0.968008 -0.130185
v -0.423910 0.577850 0.445350
vn -0.055643 0.617198 0.784838
v -0.079230 -0.031090 0.382897
vn 0.375752 -0.917609 -0.129632
v -0.642336 -0.509696 0.440817
vn -0.332175 0.662600 0.671283
v -0.026700 -0.035358 0.421772
vn 0.952323 -0.303113 -0.034694
v 0.217664 -0.217607 0.495628
vn 0.499522 0.852075 0.156353
v 0.180270 -0.076428 0.474767
vn 0.962994 0.266751 0.038544
v 0.225343 -0.123979 0.460557
vn 0.421879 -0.856393 -0.297672
v -0.725426 0.332163 0.546854
vn -0.898376 0.400385 0.180590
v -0.746534 0.400460 0.514526
vn -0.323227 -0.883060 0.340190
v -0.438294 0.510841 0.468429
vn 0.135936 -0.022558 0.990461
v -0.677352 0.461282 0.497908
vn 0.045480 0.923599 0.380653
v 0.114237 -0.057663 0.498394
vn 0.114452 -0.970169 -0.213710
v -0.571372 0.506255 0.438080
vn 0.428916 -0.732925 0.528064
v -0.355588 0.486060 0.417150
vn -0.117876 0.747736 0.653450
v 0.064513 -0.028765 0.451822
vn -0.653975 0.233826 0.719473
v -0.435329 0.549849 0.488469
vn -0.691776 -0.613900 0.380226
v -0.690190 -0.476008 0.519615
vn 0.653904 0.588069 -0.476009
v -0.604192 -0.478715 0.470165
vn 0.027697 -0.934479 -0.354940
v -0.523844 -0.554297 0.510314
vn -0.513709 0.477566 0.712765
v -0.043926 -0.095739 0.469092
vn -0.249196 -0.964770 -0.084380
v 0.103071 -0.278423 0.448268
vn 0.100733 0.852482 0.512960
v 0.128117 -0.085949 0.552802
vn 0.214637 -0.130267 0.967968
v -0.624086 -0.483672 0.506094
vn -0.698574 -0.689321 0.191915
v 0.009647 -0.228359 0.542482
vn 0.584807 0.662086 0.468661
v -0.455146 -0.551806 0.530613
vn 0.522293 -0.839573 -0.149424
v 0.179927 -0.268959 0.473567
vn -0.810738 -0.583506 -0.047169
v -0.418747 0.523830 0.541566
vn 0.879105 0.432643 0.199986
v -0.344876 0.565276 0.512911
vn 0.527426 -0.848531 -0.042637
v -0.351791 0.518307 0.539736
vn -0.628659 0.617002 0.473388
v -0.667243 -0.399929 0.638143
vn 0.763185 -0.626696 0.157484
v 0.202156 -0.264148 0.576837
vn -0.361048 0.730215 0.580027
v 0.037914 -0.115777 0.547821
vn -0.049702 -0.938864 0.340681
v 0.101656 -0.296576 0.593095
vn 0.058733 -0.996125 0.065468
v 0.136661 -0.293699 0.538039
vn 0.311070 -0.797581 -0.516817
v -0.363642 0.499332 0.574446
vn 0.425061 -0.866086 0.263092
v 0.119379 -0.265117 0.583854
vn 0.886620 0.168704 0.430632
v 0.214643 -0.166027 0.595315
vn -0.238046 -0.509841 -0.826678
v -0.439282 0.481167 0.611013
vn -0.321467 0.873768 0.364949
v -0.397365 0.554406 0.590895
vn 0.367718 -0.653572 0.661534
v 0.154524 -0.270470 0.632957
vn -0.898542 0.435972 -0.050498
v -0.613275 0.422539 0.666336
vn -0.435614 0.899633 0.030011
v -0.569011 0.475013 0.653554
vn -0.161363 0.427997 0.889259
v 0.099098 -0.150415 0.640427
vn 0.350969 0.391204 0.850752
v 0.172504 -0.162004 0.632445
vn -0.748933 0.202895 0.630819
v 0.018346 -0.170852 0.585562
vn 0.030552 -0.761370 0.647598
v 0.104519 -0.276006 0.638999
vn -0.171462 -0.945859 -0.275594
v -0.492006 0.449003 0.649290
vn 0.953078 0.081855 0.291447
v -0.356462 0.495701 0.618833
vn 0.133970 0.174646 0.975475
v 0.130353 -0.175986 0.619193
vn 0.818995 -0.190652 -0.541202
v -0.373044 0.369116 0.686613
vn -0.217924 -0.084638 -0.972289
v -0.538212 0.462892 0.633304
vn -0.653741 -0.233930 0.719653
v 0.056341 -0.221794 0.634604
vn 0.262091 -0.806829 0.529466
v -0.620164 0.328438 0.658984
vn 0.067164 0.108148 0.991863
v 0.122326 -0.218681 0.655822
vn -0.378853 -0.670663 -0.637716
v -0.425319 0.414957 0.646785
vn -0.021482 -0.356076 0.934210
v -0.559096 0.447469 0.682717
vn -0.455340 -0.636085 0.622946
v -0.471836 0.457017 0.678674
vn -0.142960 0.664557 0.733435
v -0.455447 0.483508 0.680209
vn 0.667469 0.205583 -0.715696
v -0.316498 0.304284 0.745764
vn 0.325123 0.743091 0.584903
v -0.367194 0.345680 0.774008
vn 0.233622 -0.612419 -0.755224
v -0.359417 0.284413 0.734131
vn -0.904995 0.178675 0.386083
v -0.426662 0.336382 0.752927
vn -0.561910 -0.391376 -0.728754
v -0.412580 0.319029 0.725008
vn 0.572539 -0.801525 -0.172504
v -0.439580 0.155197 0.807966
vn 0.621626 0.522046 0.583994
v -0.390146 0.457601 0.680124
vn 0.501481 -0.689804 0.522194
v -0.371957 0.267112 0.780579
vn -0.941463 -0.055966 0.332439
v -0.475919 0.148718 0.822717
vn -0.264874 0.233868 0.935493
v -0.406403 0.299410 0.795594
vn 0.525113 0.733176 0.432100
v -0.210405 0.268691 0.818278
vn 0.199827 -0.959597 -0.198100
v -0.211243 0.230742 0.819848
vn 0.347799 -0.138911 0.927222
v -0.444751 0.180065 0.831518
vn -0.816499 0.408246 -0.408245
v 0.317818 -0.025844 -0.433778
vn -0.275529 0.534943 0.798699
v 0.317818 -0.025844 -0.512052
vn -0.333336 -0.666669 -0.666663
v 0.317818 0.068104 -0.433778
vn 0.333332 -0.666666 0.666668
v 0.130077 0.068104 -0.512052
vn 0.816497 -0.408248 -0.408248
v 0.130077 0.068104 -0.433778
vn 0.534522 0.267261 0.801784
v 0.130077 -0.025844 -0.512052
vn 0.333333 0.666667 -0.666667
v 0.130077 -0.025844 -0.433778
vn 0.355850 -0.112377 0.927762
v 0.223663 0.038117 -0.512052
vn -0.471374 -0.474693 0.743286
v 0.317817 0.068103 -0.512052
vn 0.452804 0.776549 0.438110
v 0.254378 -0.001120 -0.512052
# 419 vertices, 0 vertices normals

f 1//1 4//4 3//3
f 1//1 2//2 4//4
f 3//3 5//5 1//1
f 1//1 5//5 2//2
f 2//2 5//5 4//4
f 4//4 5//5 3//3
f 8//8 6//6 7//7
f 6//6 8//8 9//9
f 6//6 9//9 7//7
f 8//8 7//7 9//9
f 10//10 11//11 14//14
f 12//12 10//10 13//13
f 13//13 10//10 14//14
f 11//11 16//16 14//14
f 15//15 12//12 13//13
f 13//13 14//14 17//17
f 13//13 17//17 30//30
f 42//42 13//13 30//30
f 14//14 16//16 35//35
f 30//30 17//17 20//20
f 16//16 19//19 35//35
f 14//14 20//20 18//18
f 14//14 35//35 34//34
f 38//38 30//30 20//20
f 38//38 20//20 21//21
f 14//14 34//34 20//20
f 21//21 29//29 38//38
f 28//28 38//38 29//29
f 20//20 34//34 27//27
f 20//20 27//27 36//36
f 20//20 36//36 32//32
f 20//20 32//32 21//21
f 22//22 21//21 25//25
f 21//21 32//32 24//24
f 21//21 24//24 25//25
f 23//23 22//22 33//33
f 22//22 25//25 33//33
f 33//33 25//25 26//26
f 26//26 25//25 24//24
f 37//37 11//11 10//10
f 28//28 29//29 31//31
f 24//24 32//32 51//51
f 15//15 13//13 42//42
f 23//23 62//62 22//22
f 51//51 63//63 24//24
f 26//26 24//24 57//57
f 27//27 34//34 39//39
f 43//43 29//29 21//21
f 19//19 46//46 35//35
f 50//50 30//30 38//38
f 29//29 43//43 31//31
f 19//19 74//74 46//46
f 35//35 46//46 34//34
f 31//31 48//48 28//28
f 62//62 43//43 21//21
f 57//57 24//24 63//63
f 45//45 10//10 12//12
f 16//16 74//74 19//19
f 27//27 39//39 72//72
f 32//32 36//36 44//44
f 32//32 44//44 51//51
f 57//57 33//33 26//26
f 45//45 37//37 10//10
f 36//36 27//27 72//72
f 52//52 12//12 61//61
f 42//42 54//54 15//15
f 30//30 50//50 42//42
f 34//34 46//46 39//39
f 33//33 41//41 23//23
f 58//58 37//37 45//45
f 74//74 16//16 11//11
f 41//41 33//33 57//57
f 52//52 45//45 12//12
f 12//12 15//15 61//61
f 72//72 44//44 36//36
f 62//62 21//21 22//22
f 15//15 67//67 61//61
f 48//48 38//38 28//28
f 50//50 54//54 42//42
f 40//40 47//47 49//49
f 56//56 44//44 72//72
f 60//60 47//47 40//40
f 48//48 50//50 38//38
f 11//11 37//37 58//58
f 23//23 76//76 62//62
f 41//41 76//76 23//23
f 60//60 40//40 77//77
f 58//58 74//74 11//11
f 66//66 60//60 77//77
f 49//49 59//59 40//40
f 48//48 31//31 84//84
f 53//53 49//49 47//47
f 15//15 54//54 67//67
f 84//84 31//31 43//43
f 86//86 41//41 57//57
f 46//46 85//85 39//39
f 88//88 72//72 39//39
f 44//44 94//94 51//51
f 51//51 94//94 63//63
f 50//50 55//55 54//54
f 77//77 40//40 68//68
f 50//50 48//48 55//55
f 46//46 75//75 85//85
f 60//60 71//71 47//47
f 75//75 46//46 74//74
f 86//86 76//76 41//41
f 79//79 57//57 63//63
f 59//59 49//49 53//53
f 73//73 45//45 52//52
f 56//56 94//94 44//44
f 64//64 52//52 61//61
f 58//58 45//45 87//87
f 53//53 47//47 71//71
f 64//64 73//73 52//52
f 65//65 58//58 87//87
f 92//92 60//60 66//66
f 67//67 54//54 78//78
f 56//56 110//110 94//94
f 81//81 62//62 76//76
f 79//79 86//86 57//57
f 73//73 87//87 45//45
f 64//64 61//61 70//70
f 78//78 54//54 55//55
f 85//85 88//88 39//39
f 62//62 81//81 43//43
f 68//68 40//40 106//106
f 83//83 55//55 48//48
f 40//40 59//59 106//106
f 115//115 66//66 77//77
f 59//59 53//53 69//69
f 60//60 92//92 71//71
f 94//94 79//79 63//63
f 74//74 58//58 65//65
f 74//74 65//65 75//75
f 98//98 53//53 71//71
f 98//98 69//69 53//53
f 115//115 77//77 68//68
f 67//67 70//70 61//61
f 70//70 67//67 78//78
f 78//78 55//55 83//83
f 71//71 92//92 102//102
f 64//64 80//80 92//92
f 73//73 64//64 82//82
f 84//84 83//83 48//48
f 110//110 56//56 72//72
f 92//92 66//66 109//109
f 102//102 92//92 80//80
f 64//64 92//92 82//82
f 59//59 100//100 106//106
f 81//81 84//84 43//43
f 86//86 91//91 76//76
f 79//79 105//105 86//86
f 76//76 104//104 81//81
f 68//68 111//111 115//115
f 90//90 59//59 69//69
f 98//98 71//71 102//102
f 73//73 89//89 87//87
f 87//87 123//123 65//65
f 110//110 72//72 88//88
f 89//89 73//73 82//82
f 64//64 70//70 80//80
f 87//87 89//89 123//123
f 80//80 70//70 93//93
f 85//85 129//129 88//88
f 105//105 91//91 86//86
f 66//66 115//115 109//109
f 114//114 83//83 84//84
f 107//107 69//69 98//98
f 129//129 110//110 88//88
f 78//78 93//93 70//70
f 132//132 84//84 81//81
f 59//59 90//90 100//100
f 65//65 123//123 99//99
f 108//108 94//94 110//110
f 82//82 92//92 116//116
f 130//130 78//78 83//83
f 99//99 85//85 75//75
f 96//96 90//90 69//69
f 96//96 69//69 107//107
f 123//123 89//89 135//135
f 94//94 108//108 79//79
f 113//113 97//97 117//117
f 80//80 125//125 102//102
f 65//65 99//99 75//75
f 95//95 90//90 96//96
f 97//97 103//103 101//101
f 135//135 89//89 118//118
f 93//93 78//78 130//130
f 85//85 99//99 129//129
f 97//97 101//101 117//117
f 102//102 107//107 98//98
f 104//104 132//132 81//81
f 100//100 90//90 106//106
f 109//109 116//116 92//92
f 111//111 68//68 106//106
f 89//89 82//82 118//118
f 91//91 104//104 76//76
f 90//90 95//95 106//106
f 112//112 95//95 96//96
f 118//118 82//82 116//116
f 124//124 121//121 111//111
f 127//127 80//80 93//93
f 105//105 161//161 91//91
f 135//135 119//119 128//128
f 120//120 101//101 119//119
f 130//130 83//83 144//144
f 144//144 83//83 114//114
f 106//106 95//95 124//124
f 124//124 95//95 112//112
f 111//111 106//106 124//124
f 121//121 115//115 111//111
f 109//109 115//115 121//121
f 125//125 107//107 102//102
f 125//125 80//80 127//127
f 119//119 103//103 128//128
f 161//161 104//104 91//91
f 113//113 117//117 122//122
f 118//118 141//141 135//135
f 119//119 101//101 103//103
f 114//114 84//84 132//132
f 129//129 126//126 110//110
f 107//107 137//137 96//96
f 135//135 141//141 119//119
f 79//79 153//153 105//105
f 140//140 124//124 112//112
f 132//132 136//136 114//114
f 157//157 97//97 113//113
f 117//117 101//101 120//120
f 116//116 109//109 121//121
f 137//137 112//112 96//96
f 125//125 137//137 107//107
f 129//129 148//148 126//126
f 117//117 120//120 122//122
f 108//108 153//153 79//79
f 110//110 126//126 108//108
f 113//113 133//133 157//157
f 118//118 116//116 141//141
f 140//140 121//121 124//124
f 137//137 193//193 112//112
f 127//127 137//137 125//125
f 113//113 122//122 133//133
f 97//97 157//157 131//131
f 97//97 131//131 103//103
f 139//139 133//133 122//122
f 127//127 93//93 130//130
f 103//103 134//134 128//128
f 135//135 183//183 123//123
f 123//123 183//183 99//99
f 114//114 136//136 144//144
f 119//119 141//141 120//120
f 128//128 179//179 135//135
f 99//99 148//148 129//129
f 160//160 132//132 104//104
f 153//153 108//108 126//126
f 103//103 131//131 143//143
f 103//103 143//143 134//134
f 147//147 137//137 127//127
f 127//127 130//130 147//147
f 121//121 154//154 116//116
f 140//140 155//155 121//121
f 156//156 152//152 150//150
f 150//150 142//142 156//156
f 150//150 138//138 142//142
f 141//141 116//116 154//154
f 122//122 120//120 158//158
f 140//140 112//112 193//193
f 179//179 183//183 135//135
f 149//149 145//145 150//150
f 150//150 145//145 146//146
f 146//146 138//138 150//150
f 155//155 154//154 121//121
f 157//157 182//182 131//131
f 104//104 161//161 160//160
f 204//204 105//105 153//153
f 152//152 151//151 150//150
f 156//156 142//142 181//181
f 139//139 122//122 158//158
f 141//141 158//158 120//120
f 160//160 136//136 132//132
f 204//204 161//161 105//105
f 158//158 141//141 154//154
f 182//182 143//143 131//131
f 193//193 137//137 147//147
f 134//134 179//179 128//128
f 173//173 148//148 99//99
f 147//147 130//130 237//237
f 99//99 183//183 173//173
f 165//165 150//150 151//151
f 150//150 165//165 149//149
f 181//181 167//167 156//156
f 142//142 138//138 189//189
f 138//138 162//162 189//189
f 181//181 142//142 189//189
f 168//168 157//157 133//133
f 133//133 139//139 164//164
f 139//139 158//158 164//164
f 156//156 169//169 152//152
f 182//182 199//199 143//143
f 145//145 149//149 174//174
f 145//145 172//172 146//146
f 153//153 201//201 204//204
f 172//172 145//145 185//185
f 167//167 169//169 156//156
f 138//138 146//146 166//166
f 162//162 163//163 189//189
f 155//155 140//140 163//163
f 140//140 189//189 163//163
f 222//222 193//193 147//147
f 177//177 126//126 148//148
f 174//174 185//185 145//145
f 174//174 149//149 159//159
f 175//175 149//149 165//165
f 126//126 177//177 153//153
f 149//149 172//172 159//159
f 176//176 149//149 175//175
f 176//176 172//172 149//149
f 237//237 130//130 144//144
f 160//160 170//170 136//136
f 212//212 160//160 161//161
f 146//146 172//172 166//166
f 162//162 187//187 163//163
f 189//189 140//140 191//191
f 157//157 168//168 182//182
f 153//153 177//177 201//201
f 167//167 172//172 176//176
f 166//166 162//162 138//138
f 207//207 144//144 136//136
f 212//212 170//170 160//160
f 212//212 161//161 204//204
f 180//180 165//165 151//151
f 151//151 152//152 171//171
f 176//176 169//169 167//167
f 164//164 168//168 133//133
f 164//164 158//158 208//208
f 199//199 203//203 143//143
f 170//170 207//207 136//136
f 152//152 169//169 171//171
f 186//186 187//187 162//162
f 155//155 163//163 188//188
f 166//166 172//172 167//167
f 166//166 167//167 181//181
f 222//222 147//147 235//235
f 143//143 203//203 134//134
f 159//159 172//172 185//185
f 193//193 191//191 140//140
f 235//235 147//147 237//237
f 237//237 144//144 211//211
f 200//200 148//148 173//173
f 184//184 165//165 180//180
f 178//178 192//192 187//187
f 186//186 162//162 166//166
f 187//187 186//186 178//178
f 192//192 190//190 187//187
f 154//154 219//219 158//158
f 199//199 182//182 168//168
f 206//206 179//179 134//134
f 197//197 180//180 151//151
f 208//208 215//215 164//164
f 168//168 164//164 202//202
f 168//168 202//202 199//199
f 183//183 242//242 173//173
f 197//197 151//151 171//171
f 176//176 231//231 169//169
f 163//163 187//187 190//190
f 163//163 190//190 188//188
f 202//202 164//164 195//195
f 236//236 183//183 179//179
f 174//174 205//205 185//185
f 159//159 185//185 205//205
f 171//171 169//169 231//231
f 166//166 181//181 198//198
f 183//183 236//236 242//242
f 267//267 207//207 170//170
f 177//177 148//148 200//200
f 184//184 180//180 196//196
f 220//220 165//165 184//184
f 194//194 190//190 192//192
f 219//219 154//154 155//155
f 164//164 215//215 195//195
f 207//207 211//211 144//144
f 165//165 220//220 175//175
f 178//178 216//216 192//192
f 198//198 186//186 166//166
f 198//198 181//181 189//189
f 219//219 155//155 188//188
f 203//203 206//206 134//134
f 175//175 231//231 176//176
f 214//214 178//178 186//186
f 208//208 158//158 219//219
f 191//191 193//193 222//222
f 206//206 236//236 179//179
f 171//171 209//209 197//197
f 208//208 219//219 227//227
f 198//198 189//189 191//191
f 215//215 208//208 218//218
f 202//202 195//195 203//203
f 203//203 199//199 202//202
f 184//184 213//213 220//220
f 220//220 221//221 175//175
f 188//188 190//190 217//217
f 180//180 221//221 196//196
f 209//209 171//171 231//231
f 192//192 216//216 194//194
f 210//210 178//178 214//214
f 195//195 206//206 203//203
f 184//184 196//196 213//213
f 221//221 250//250 175//175
f 194//194 210//210 214//214
f 194//194 214//214 190//190
f 186//186 198//198 217//217
f 250//250 231//231 175//175
f 190//190 214//214 217//217
f 217//217 214//214 186//186
f 213//213 226//226 220//220
f 213//213 196//196 245//245
f 201//201 212//212 204//204
f 191//191 222//222 271//271
f 177//177 200//200 244//244
f 174//174 159//159 205//205
f 218//218 208//208 227//227
f 173//173 242//242 200//200
f 245//245 196//196 221//221
f 250//250 221//221 180//180
f 178//178 224//224 216//216
f 178//178 210//210 224//224
f 210//210 194//194 232//232
f 198//198 191//191 247//247
f 218//218 229//229 215//215
f 213//213 245//245 230//230
f 188//188 240//240 219//219
f 227//227 219//219 246//246
f 230//230 226//226 213//213
f 216//216 223//223 194//194
f 194//194 223//223 232//232
f 232//232 224//224 210//210
f 227//227 233//233 218//218
f 244//244 267//267 170//170
f 226//226 245//245 220//220
f 220//220 245//245 221//221
f 223//223 216//216 224//224
f 233//233 225//225 218//218
f 191//191 271//271 247//247
f 195//195 215//215 229//229
f 237//237 211//211 228//228
f 250//250 180//180 197//197
f 227//227 238//238 233//233
f 177//177 244//244 201//201
f 212//212 244//244 170//170
f 247//247 188//188 217//217
f 240//240 246//246 219//219
f 225//225 233//233 239//239
f 244//244 212//212 201//201
f 232//232 223//223 224//224
f 198//198 247//247 217//217
f 226//226 230//230 264//264
f 258//258 236//236 206//206
f 207//207 303//303 211//211
f 251//251 234//234 227//227
f 238//238 227//227 234//234
f 225//225 229//229 218//218
f 246//246 265//265 227//227
f 188//188 247//247 240//240
f 225//225 241//241 229//229
f 222//222 235//235 271//271
f 235//235 249//249 271//271
f 200//200 242//242 243//243
f 234//234 260//260 238//238
f 238//238 239//239 233//233
f 238//238 260//260 261//261
f 270//270 265//265 246//246
f 267//267 304//304 207//207
f 264//264 245//245 226//226
f 254//254 231//231 250//250
f 265//265 251//251 227//227
f 229//229 248//248 195//195
f 237//237 228//228 263//263
f 245//245 291//291 230//230
f 250//250 197//197 272//272
f 197//197 209//209 272//272
f 257//257 239//239 238//238
f 262//262 239//239 257//257
f 247//247 266//266 240//240
f 248//248 229//229 241//241
f 206//206 195//195 248//248
f 244//244 200//200 256//256
f 259//259 249//249 235//235
f 211//211 303//303 228//228
f 250//250 272//272 252//252
f 253//253 251//251 265//265
f 247//247 271//271 298//298
f 264//264 291//291 245//245
f 257//257 238//238 261//261
f 206//206 248//248 258//258
f 235//235 237//237 263//263
f 250//250 252//252 254//254
f 251//251 285//285 234//234
f 255//255 257//257 261//261
f 207//207 304//304 303//303
f 261//261 253//253 265//265
f 278//278 287//287 249//249
f 278//278 249//249 259//259
f 256//256 267//267 244//244
f 255//255 261//261 265//265
f 298//298 266//266 247//247
f 236//236 243//243 242//242
f 257//257 286//286 262//262
f 274//274 255//255 265//265
f 262//262 225//225 239//239
f 268//268 246//246 240//240
f 266//266 268//268 240//240
f 241//241 276//276 248//248
f 259//259 235//235 263//263
f 243//243 256//256 200//200
f 253//253 279//279 251//251
f 253//253 261//261 260//260
f 262//262 296//296 225//225
f 225//225 309//309 241//241
f 254//254 209//209 231//231
f 260//260 234//234 285//285
f 279//279 285//285 251//251
f 265//265 270//270 274//274
f 268//268 275//275 246//246
f 252//252 272//272 299//299
f 286//286 257//257 294//294
f 275//275 270//270 246//246
f 254//254 269//269 209//209
f 285//285 273//273 260//260
f 274//274 270//270 293//293
f 248//248 274//274 293//293
f 277//277 271//271 249//249
f 287//287 277//277 249//249
f 271//271 277//277 298//298
f 284//284 299//299 272//272
f 269//269 284//284 272//272
f 269//269 272//272 209//209
f 294//294 280//280 286//286
f 262//262 286//286 296//296
f 276//276 274//274 248//248
f 243//243 236//236 297//297
f 285//285 289//289 273//273
f 253//253 260//260 279//279
f 281//281 280//280 282//282
f 294//294 302//302 280//280
f 257//257 255//255 294//294
f 276//276 255//255 274//274
f 278//278 283//283 287//287
f 259//259 263//263 288//288
f 256//256 304//304 267//267
f 230//230 291//291 264//264
f 292//292 281//281 282//282
f 282//282 280//280 302//302
f 296//296 309//309 225//225
f 283//283 278//278 259//259
f 273//273 279//279 260//260
f 280//280 295//295 286//286
f 293//293 258//258 248//248
f 287//287 290//290 277//277
f 306//306 299//299 284//284
f 279//279 289//289 285//285
f 280//280 281//281 295//295
f 276//276 241//241 309//309
f 275//275 327//327 270//270
f 293//293 270//270 327//327
f 290//290 298//298 277//277
f 300//300 276//276 309//309
f 283//283 290//290 287//287
f 308//308 297//297 258//258
f 236//236 258//258 297//297
f 304//304 301//301 303//303
f 310//310 275//275 268//268
f 300//300 302//302 294//294
f 296//296 286//286 295//295
f 300//300 255//255 276//276
f 317//317 266//266 298//298
f 293//293 311//311 258//258
f 313//313 282//282 302//302
f 288//288 283//283 259//259
f 252//252 299//299 320//320
f 254//254 252//252 320//320
f 289//289 279//279 273//273
f 300//300 294//294 255//255
f 327//327 275//275 310//310
f 283//283 288//288 290//290
f 331//331 304//304 256//256
f 299//299 306//306 324//324
f 290//290 317//317 298//298
f 258//258 311//311 308//308
f 320//320 341//341 254//254
f 318//318 263//263 228//228
f 243//243 305//305 256//256
f 300//300 313//313 302//302
f 318//318 288//288 263//263
f 297//297 308//308 312//312
f 228//228 303//303 314//314
f 284//284 307//307 306//306
f 269//269 321//321 284//284
f 292//292 282//282 313//313
f 304//304 332//332 301//301
f 324//324 307//307 299//299
f 299//299 307//307 320//320
f 296//296 295//295 326//326
f 323//323 317//317 290//290
f 319//319 243//243 297//297
f 319//319 305//305 243//243
f 254//254 341//341 269//269
f 317//317 310//310 268//268
f 317//317 268//268 266//266
f 228//228 314//314 318//318
f 256//256 305//305 331//331
f 281//281 292//292 313//313
f 300//300 309//309 352//352
f 303//303 301//301 314//314
f 281//281 313//313 295//295
f 313//313 300//300 315//315
f 352//352 309//309 296//296
f 288//288 323//323 290//290
f 316//316 308//308 311//311
f 321//321 307//307 284//284
f 307//307 321//321 320//320
f 295//295 313//313 315//315
f 316//316 311//311 333//333
f 332//332 304//304 331//331
f 324//324 306//306 307//307
f 351//351 330//330 325//325
f 326//326 295//295 315//315
f 316//316 312//312 308//308
f 346//346 347//347 329//329
f 351//351 329//329 322//322
f 325//325 326//326 315//315
f 335//335 296//296 326//326
f 305//305 345//345 331//331
f 341//341 320//320 356//356
f 322//322 330//330 351//351
f 317//317 328//328 310//310
f 310//310 328//328 327//327
f 293//293 333//333 311//311
f 332//332 343//343 301//301
f 312//312 334//334 297//297
f 347//347 322//322 329//329
f 315//315 300//300 352//352
f 335//335 352//352 296//296
f 333//333 293//293 327//327
f 333//333 340//340 316//316
f 316//316 340//340 312//312
f 330//330 339//339 325//325
f 325//325 339//339 326//326
f 317//317 323//323 328//328
f 319//319 297//297 334//334
f 319//319 353//353 305//305
f 331//331 345//345 332//332
f 321//321 269//269 341//341
f 351//351 325//325 348//348
f 312//312 340//340 334//334
f 314//314 359//359 318//318
f 328//328 333//333 327//327
f 323//323 288//288 318//318
f 342//342 334//334 340//340
f 319//319 334//334 353//353
f 350//350 345//345 305//305
f 321//321 337//337 320//320
f 318//318 336//336 323//323
f 345//345 343//343 332//332
f 322//322 349//349 338//338
f 322//322 338//338 330//330
f 349//349 329//329 351//351
f 352//352 325//325 315//315
f 333//333 328//328 340//340
f 359//359 336//336 318//318
f 343//343 314//314 301//301
f 348//348 325//325 352//352
f 359//359 314//314 364//364
f 305//305 353//353 350//350
f 321//321 355//355 337//337
f 336//336 328//328 323//323
f 340//340 328//328 342//342
f 344//344 345//345 350//350
f 347//347 349//349 322//322
f 346//346 329//329 349//349
f 353//353 342//342 358//358
f 342//342 353//353 334//334
f 342//342 328//328 358//358
f 355//355 321//321 341//341
f 347//347 346//346 349//349
f 336//336 358//358 328//328
f 326//326 366//366 335//335
f 366//366 352//352 335//335
f 359//359 362//362 336//336
f 330//330 354//354 339//339
f 356//356 357//357 341//341
f 330//330 338//338 354//354
f 339//339 366//366 326//326
f 337//337 356//356 320//320
f 338//338 351//351 354//354
f 354//354 351//351 348//348
f 343//343 364//364 314//314
f 364//364 372//372 359//359
f 360//360 344//344 350//350
f 338//338 349//349 351//351
f 348//348 352//352 367//367
f 365//365 348//348 367//367
f 341//341 361//361 355//355
f 357//357 361//361 341//341
f 353//353 358//358 370//370
f 356//356 361//361 363//363
f 383//383 358//358 336//336
f 353//353 370//370 350//350
f 363//363 357//357 356//356
f 344//344 375//375 345//345
f 348//348 365//365 354//354
f 366//366 339//339 377//377
f 366//366 367//367 352//352
f 370//370 358//358 383//383
f 372//372 362//362 359//359
f 375//375 343//343 345//345
f 361//361 357//357 363//363
f 373//373 365//365 367//367
f 377//377 339//339 354//354
f 343//343 369//369 364//364
f 336//336 362//362 383//383
f 361//361 356//356 337//337
f 337//337 368//368 361//361
f 362//362 372//372 371//371
f 361//361 368//368 355//355
f 377//377 354//354 365//365
f 364//364 369//369 372//372
f 360//360 382//382 344//344
f 350//350 370//370 360//360
f 375//375 369//369 343//343
f 368//368 337//337 355//355
f 386//386 367//367 366//366
f 373//373 376//376 365//365
f 366//366 377//377 386//386
f 373//373 367//367 386//386
f 371//371 372//372 374//374
f 344//344 382//382 375//375
f 370//370 381//381 360//360
f 365//365 376//376 377//377
f 369//369 378//378 372//372
f 360//360 381//381 382//382
f 376//376 373//373 388//388
f 390//390 383//383 362//362
f 383//383 381//381 370//370
f 375//375 378//378 369//369
f 393//393 376//376 388//388
f 362//362 371//371 390//390
f 382//382 381//381 387//387
f 372//372 378//378 374//374
f 376//376 393//393 385//385
f 389//389 379//379 380//380
f 385//385 389//389 376//376
f 382//382 378//378 375//375
f 391//391 379//379 389//389
f 371//371 384//384 390//390
f 376//376 389//389 377//377
f 386//386 388//388 373//373
f 374//374 384//384 371//371
f 384//384 374//374 378//378
f 386//386 377//377 403//403
f 383//383 390//390 381//381
f 389//389 396//396 377//377
f 378//378 392//392 384//384
f 392//392 378//378 382//382
f 385//385 393//393 395//395
f 390//390 384//384 392//392
f 387//387 392//392 382//382
f 389//389 380//380 396//396
f 403//403 388//388 386//386
f 392//392 381//381 390//390
f 387//387 381//381 392//392
f 389//389 394//394 391//391
f 393//393 388//388 399//399
f 380//380 379//379 394//394
f 385//385 394//394 389//389
f 377//377 396//396 403//403
f 396//396 380//380 394//394
f 394//394 385//385 395//395
f 396//396 394//394 395//395
f 394//394 379//379 391//391
f 400//400 395//395 393//393
f 393//393 399//399 401//401
f 393//393 401//401 400//400
f 395//395 400//400 396//396
f 388//388 403//403 398//398
f 398//398 396//396 400//400
f 403//403 396//396 398//398
f 399//399 388//388 397//397
f 398//398 397//397 388//388
f 402//402 401//401 399//399
f 397//397 408//408 399//399
f 404//404 402//402 399//399
f 399//399 408//408 404//404
f 397//397 398//398 407//407
f 400//400 401//401 405//405
f 402//402 405//405 401//401
f 398//398 400//400 406//406
f 408//408 397//397 407//407
f 405//405 406//406 400//400
f 398//398 406//406 407//407
f 408//408 406//406 404//404
f 408//408 407//407 406//406
f 406//406 409//409 404//404
f 404//404 409//409 402//402
f 405//405 409//409 406//406
f 409//409 405//405 402//402
f 410//410 418//418 411//411
f 410//410 412//412 418//418
f 412//412 413//413 418//418
f 412//412 414//414 413//413
f 414//414 415//415 413//413
f 414//414 416//416 415//415
f 416//416 411//411 415//415
f 416//416 410//410 411//411
f 416//416 412//412 410//410
f 416//416 414//414 412//412
f 418//418 18//18 411//411
f 18//18 419//419 411//411
f 418//418 413//413 417//417
f 411//411 419//419 415//415
f 413//413 415//415 417//417
f 419//419 417//417 415//415
f 417//417 419//419 14//14
f 17//17 14//14 419//419
f 20//20 17//17 419//419
f 20//20 419//419 18//18
f 418//418 14//14 18//18
f 14//14 418//418 417//417
# 826 faces, 0 coords texture

# End of File
