####
#
# OBJ File Generated by Meshlab
#
####
# Object dragon.obj
#
# Vertices: 270
# Faces: 536
#
####
vn 0.503281 0.115303 0.856395
v 0.290531 0.307334 -0.594111
vn 0.072198 -0.141994 -0.987231
v 0.104820 0.057981 -0.980688
vn 0.824592 -0.451409 -0.340996
v 0.282088 0.074593 -0.768556
vn 0.857722 0.297741 0.419122
v 0.129763 -0.249771 -0.137341
vn 0.393994 -0.918831 -0.022779
v 0.058368 -0.402049 0.477616
vn 0.331766 -0.942670 0.036122
v 0.047653 -0.447573 0.051014
vn 0.306376 -0.794250 -0.524691
v 0.161240 -0.250502 -0.561671
vn 0.137883 0.844808 0.516999
v 0.006196 -0.132380 -0.039654
vn 0.151069 -0.986746 -0.059255
v 0.003052 -0.451672 -0.175087
vn 0.710367 0.608837 0.353123
v 0.049162 0.761493 -0.599125
vn 0.160772 -0.965376 -0.205430
v 0.002341 0.605763 -0.461824
vn -0.272777 0.908967 0.315233
v -0.022204 0.782146 -0.598949
vn -0.342137 0.515218 0.785807
v 0.002388 -0.298708 0.790398
vn 0.874670 0.393400 0.283175
v 0.091965 -0.234731 0.697189
vn 0.165305 -0.960248 0.224939
v 0.055041 -0.581018 0.978735
vn 0.004931 0.536521 0.843872
v 0.024413 -0.471223 0.928025
vn -0.968968 0.234005 -0.079639
v 0.039611 -0.489005 0.800073
vn 0.187689 -0.848354 -0.495043
v -0.046956 -0.328665 0.691600
vn -0.124107 0.874013 0.469786
v 0.047913 -0.419732 0.600590
vn -0.532951 -0.809915 -0.244951
v 0.038483 -0.265831 0.583543
vn -0.874821 0.468247 0.124231
v 0.071170 -0.332906 0.500075
vn -0.088324 0.990797 -0.102564
v 0.007968 -0.389539 0.248066
vn -0.867611 -0.494963 -0.047565
v 0.039805 -0.315638 0.146415
vn -0.817866 -0.487574 -0.305561
v 0.114998 -0.253088 -0.199271
vn -0.581908 0.803328 0.126676
v 0.088693 -0.360045 -0.137331
vn 0.007054 0.903795 0.427907
v -0.015559 -0.275820 -0.345090
vn -0.862458 0.471768 0.183305
v 0.155489 -0.161793 -0.469249
vn -0.040079 -0.836789 -0.546056
v 0.024595 -0.213916 -0.226543
vn -0.818095 -0.168830 -0.549742
v 0.167419 0.003004 -0.464479
vn -0.985117 0.136099 -0.104985
v 0.172121 -0.067948 -0.461892
vn -0.674927 -0.360674 -0.643730
v 0.116861 -0.077227 -0.370370
vn -0.935208 0.315303 0.161153
v 0.181258 -0.015438 -0.515937
vn -0.913260 0.377653 0.152755
v 0.210607 0.050903 -0.546899
vn -0.685683 0.498580 0.530337
v 0.110147 -0.121042 -0.558964
vn -0.935375 0.321027 0.148376
v 0.231196 0.119764 -0.597342
vn -0.831904 -0.551420 -0.062228
v 0.240379 0.269384 -0.661479
vn -0.245942 -0.513482 -0.822100
v 0.141989 0.143911 -0.533475
vn -0.521434 0.571567 0.633575
v 0.066161 -0.081407 -0.635820
vn 0.005186 -0.784605 -0.619974
v 0.032062 0.293363 -0.621665
vn -0.208979 -0.973171 -0.096258
v 0.186438 0.307461 -0.634081
vn -0.312175 0.423969 0.850175
v 0.030436 0.016291 -0.746565
vn -0.051832 -0.524107 0.850073
v 0.073844 0.254002 -0.695717
vn -0.355409 0.117854 0.927251
v 0.111513 0.110014 -0.740890
vn -0.550125 -0.023431 0.834754
v 0.209371 0.194464 -0.715563
vn -0.751611 0.614354 0.240102
v 0.107921 -0.285289 -0.293618
vn 0.051053 0.549371 0.834017
v 0.000770 0.047675 -0.231743
vn 0.761420 0.648224 -0.006690
v 0.279699 -0.063480 -0.499250
vn 0.849159 -0.468493 0.243810
v 0.364941 -0.213287 -0.498089
vn 0.359291 0.724296 0.588477
v 0.239663 0.447140 -0.633691
vn 0.165639 -0.509698 -0.844258
v 0.308094 0.202030 -0.844506
vn 0.637669 -0.367309 -0.677098
v 0.189178 0.123236 -0.980787
vn 0.423618 -0.728442 -0.538442
v 0.109378 -0.248657 -0.692140
vn 0.864386 -0.012610 0.502672
v 0.203676 -0.213047 -0.325261
vn 0.640820 -0.032562 -0.767000
v 0.279427 0.355360 -0.980766
vn 0.810795 0.494633 0.312970
v 0.209216 0.078258 -0.417008
vn 0.915482 0.388510 -0.104655
v 0.386604 0.365926 -0.780937
vn 0.837655 0.161112 0.521897
v 0.408482 0.289970 -0.645317
vn 0.148258 -0.944591 0.292861
v 0.372645 0.050446 -0.702645
vn -0.275763 0.103250 -0.955664
v 0.348668 0.310779 -0.870189
vn 0.491353 0.728100 -0.477956
v 0.277200 0.479077 -0.941367
vn 0.568056 0.723470 0.392306
v 0.314560 0.476562 -0.688187
vn 0.924482 -0.366256 0.105779
v 0.433578 0.108237 -0.783240
vn 0.624678 0.544600 0.559632
v 0.435367 0.272819 -0.902750
vn -0.533246 0.829887 -0.164121
v 0.380499 0.338356 -0.980593
vn -0.871871 -0.424767 0.243748
v 0.335336 0.099281 -0.905458
vn -0.422589 -0.858095 -0.291704
v 0.381967 0.129304 -0.887507
vn 0.492648 -0.278068 -0.824607
v 0.512887 0.133120 -0.980607
vn -0.087259 -0.960342 0.264820
v 0.453306 0.121534 -0.882199
vn 0.905029 0.040297 0.423437
v 0.562974 0.052150 -0.932915
vn 0.167133 -0.833434 -0.526739
v 0.329201 -0.264836 -0.596948
vn 0.495589 0.776230 0.389689
v 0.363833 -0.065405 -0.538422
vn 0.285591 0.139752 0.948107
v 0.144941 -0.073327 -0.237978
vn 0.980962 -0.170721 0.092559
v 0.235308 -0.046891 -0.371086
vn 0.793525 0.509338 -0.333007
v 0.301540 0.033991 -0.225787
vn 0.543329 -0.839518 -0.001937
v 0.319928 0.011559 -0.176260
vn 0.842686 0.462334 -0.275913
v 0.270599 0.046081 -0.197005
vn -0.910577 0.042936 0.411104
v 0.234609 0.060933 -0.172017
vn -0.627912 -0.765915 0.138204
v 0.438981 0.013345 0.215599
vn 0.335555 0.909113 -0.246812
v 0.213442 0.139387 -0.364964
vn -0.842529 0.417819 0.339960
v 0.402417 0.316569 0.111423
vn 0.204202 0.620764 -0.756937
v 0.356889 0.302807 -0.129215
vn -0.926637 0.033247 0.374483
v 0.308837 0.108231 -0.022784
vn 0.725064 0.446944 -0.523950
v 0.582136 0.432263 0.406603
vn 0.000000 0.000000 1.000000
v 0.468529 -0.046686 -0.977249
vn -0.142465 -0.836585 -0.528988
v 0.370613 0.136676 -0.980688
vn 0.625245 -0.779820 0.030814
v 0.138881 -0.329852 -0.352540
vn 0.354839 -0.891972 -0.280134
v 0.071471 -0.391089 -0.393679
vn 0.362131 -0.661651 -0.656566
v 0.133858 -0.045442 -0.862120
vn 0.810586 -0.585472 -0.013178
v 0.304622 0.121678 -0.718863
vn 0.548670 0.543219 -0.635511
v 0.121940 0.726424 -0.981132
vn 0.742390 0.409067 -0.530586
v 0.412934 0.386970 -0.013564
vn 0.962219 0.230082 0.145589
v 0.095330 -0.322382 0.164815
vn -0.281435 0.918713 0.277056
v -0.011051 -0.172454 0.033931
vn 0.008808 0.996518 -0.082914
v 0.002284 -0.200909 0.330837
vn 0.143957 0.546696 0.824864
v 0.011921 0.260036 -0.303053
vn 0.007190 0.721545 0.692330
v 0.003738 0.563903 -0.707055
vn 0.888747 -0.451438 0.079581
v 0.129609 -0.354729 -0.135109
vn 0.316078 0.786102 -0.531167
v 0.271540 -0.098344 -0.587126
vn 0.456198 -0.611854 -0.646157
v 0.138292 -0.157120 -0.738105
vn 0.797445 0.449730 -0.402274
v 0.310963 0.068749 -0.108134
vn 0.877448 0.329122 -0.348947
v 0.372529 0.079945 0.031845
vn 0.731278 0.626878 -0.268805
v 0.440704 0.055107 0.053910
vn 0.416941 0.895302 -0.156826
v 0.488129 0.385290 0.157530
vn -0.848078 0.503755 0.164298
v 0.346873 0.317629 -0.042207
vn 0.974830 -0.125333 -0.184385
v 0.541545 0.192911 0.400957
vn 0.914021 -0.330164 -0.235705
v 0.512395 0.030781 0.316796
vn 0.927206 -0.325696 -0.184962
v 0.498887 0.014042 0.222096
vn -0.425736 0.902198 -0.069188
v 0.485925 0.344151 0.251413
vn -0.214392 -0.862223 0.458920
v 0.495201 -0.080609 0.557511
vn 0.981168 -0.192393 -0.017134
v 0.549072 0.185652 0.593713
vn 0.983256 0.113928 -0.142229
v 0.601534 0.477282 0.520852
vn 0.904657 0.398842 -0.150071
v 0.607633 0.533764 0.700857
vn -0.810182 -0.166928 0.561908
v 0.457272 0.073090 0.633464
vn -0.985625 0.032124 0.165865
v 0.383229 0.115436 0.187692
vn 0.903745 0.263434 -0.337412
v 0.460137 0.037761 0.255499
vn 0.969473 0.244052 0.023694
v 0.690601 0.451198 0.915688
vn -0.780952 0.524544 0.339068
v 0.584442 0.523407 0.738679
vn 0.970885 0.000730 -0.239546
v 0.485317 0.135974 0.264410
vn 0.835071 -0.146318 -0.530328
v 0.477194 0.148567 0.191995
vn 0.601182 -0.673827 0.429578
v 0.508134 0.024345 0.619437
vn -0.752436 0.616813 -0.231046
v 0.466309 0.349830 0.333356
vn -0.925963 0.328125 0.186887
v 0.531358 0.510194 0.625753
vn -0.394964 0.791291 0.466757
v 0.619937 0.530122 0.841515
vn -0.726401 -0.223834 0.649800
v 0.512557 0.151429 0.704857
vn -0.730749 -0.266028 0.628677
v 0.578582 0.354896 0.855117
vn 0.679937 -0.438397 -0.587787
v 0.196854 -0.167437 -0.618594
vn 0.312900 -0.411941 0.855803
v 0.668849 0.373203 0.982062
vn -0.050043 0.985045 -0.164869
v 0.556728 0.571206 0.571271
vn 0.944753 -0.161821 -0.285053
v 0.578097 0.309755 0.782356
vn 0.313993 -0.654365 0.687906
v 0.564592 0.191586 0.770361
vn 0.829981 -0.519361 -0.203460
v 0.642032 0.377338 0.861431
vn 0.290712 0.390986 -0.873279
v 0.205270 0.424944 -0.980651
vn 0.286585 0.958045 0.004324
v 0.232705 0.510422 -0.777404
vn 0.736720 0.553551 0.388361
v 0.141017 0.597016 -0.817764
vn -0.994661 0.043276 0.093679
v -0.236377 -0.043865 -0.375335
vn -0.646664 -0.577308 -0.498539
v -0.200323 -0.055729 -0.799829
vn -0.699024 -0.114183 0.705923
v -0.302457 0.242261 -0.619089
vn -0.077814 -0.691779 -0.717904
v -0.058650 -0.049459 -0.882851
vn -0.657010 -0.379904 0.651161
v -0.182551 -0.095142 -0.289204
vn -0.308647 0.423501 -0.851695
v -0.206452 0.427441 -0.980683
vn -0.898423 -0.363912 0.245772
v -0.120571 -0.358800 -0.064854
vn -0.710860 0.522085 0.471281
v -0.105399 -0.229874 -0.126284
vn -0.990895 0.103964 0.085550
v -0.089101 -0.314155 0.265690
vn -0.920861 0.249764 0.299386
v -0.065461 0.764715 -0.789004
vn -0.886172 0.328241 0.327044
v -0.041971 0.635404 -0.354608
vn 0.343831 -0.389552 0.854417
v 0.003957 0.545243 -0.153414
vn 0.587897 -0.755829 -0.288271
v 0.077331 -0.456685 0.629656
vn -0.086607 -0.898866 -0.429580
v -0.018767 -0.298155 -0.620286
vn -0.336407 -0.086102 -0.937772
v -0.231131 0.285000 -0.980682
vn -0.623529 -0.764617 0.163010
v -0.048390 -0.429909 0.248122
vn 0.045331 0.879562 0.473620
v 0.008779 -0.146171 0.688334
vn -0.813907 0.511036 0.276402
v -0.066947 -0.214260 0.698601
vn -0.168674 0.708990 0.684750
v -0.055974 -0.539594 0.917101
vn 0.924633 0.343799 0.163878
v -0.086871 -0.330576 0.556563
vn 0.296923 -0.954086 -0.039463
v -0.034065 -0.259522 0.465732
vn 0.622416 -0.764126 -0.169437
v -0.027044 -0.295126 0.126246
vn 0.793281 0.593983 -0.133752
v -0.042146 -0.393854 0.030855
vn 0.729109 0.660758 0.178322
v -0.114698 -0.323103 -0.210382
vn 0.881490 -0.360629 -0.304831
v -0.111357 -0.246119 -0.204069
vn 0.531462 -0.460884 -0.710728
v -0.099596 -0.091349 -0.348403
vn 0.886615 0.420212 0.193223
v -0.156063 -0.161163 -0.472724
vn 0.952020 -0.131068 -0.276547
v -0.107991 -0.204319 -0.351576
vn 0.979228 0.162385 -0.121423
v -0.173999 -0.057102 -0.475665
vn 0.981115 0.164176 -0.102276
v -0.197374 0.009908 -0.515554
vn 0.966974 0.243173 0.076343
v -0.210764 0.050847 -0.546965
vn 0.006914 0.812669 0.582684
v -0.004127 -0.132093 -0.619161
vn 0.661761 0.527874 0.532373
v -0.107180 -0.131831 -0.558928
vn 0.602701 0.520059 0.605219
v -0.065957 -0.081421 -0.636424
vn 0.474718 -0.423198 -0.771717
v -0.161740 0.117099 -0.517419
vn 0.355151 0.589341 0.725634
v -0.025296 -0.019733 -0.716452
vn 0.015219 -0.901525 0.432459
v -0.000032 0.296933 -0.658625
vn 0.631040 -0.245228 0.735970
v -0.223008 0.209329 -0.712107
vn 0.978730 0.198867 0.050387
v -0.231818 0.138882 -0.616702
vn 0.503108 -0.862638 -0.052323
v -0.192068 0.304002 -0.631589
vn 0.326428 0.164709 0.930761
v -0.108777 0.107228 -0.741668
vn 0.000222 -0.213154 0.977018
v -0.000110 0.142221 -0.746765
vn 0.066139 -0.529756 0.845567
v -0.157919 0.252053 -0.690985
vn -0.744551 -0.664567 -0.063201
v -0.111594 -0.421048 0.670422
vn 0.440750 0.252161 -0.861484
v -0.259058 -0.155724 -0.637706
vn -0.307987 -0.726697 -0.614048
v -0.078151 -0.216999 -0.720286
vn -0.518985 -0.848694 -0.101851
v -0.166664 -0.321481 -0.406718
vn -0.725228 0.567473 0.389896
v -0.288520 -0.068897 -0.499508
vn -0.875440 -0.227604 0.426382
v -0.190093 -0.226676 -0.312586
vn -0.557331 -0.558854 -0.614056
v -0.202588 -0.161515 -0.607694
vn -0.525262 0.410528 0.745364
v -0.297421 0.411589 -0.619110
vn -0.351258 0.932251 0.086754
v -0.225293 0.529790 -0.768166
vn -0.517583 0.467520 -0.716612
v -0.271879 0.460690 -0.973284
vn -0.735020 0.676469 -0.046210
v -0.346963 0.459924 -0.781042
vn -0.678581 -0.602972 -0.419466
v -0.415578 0.093483 -0.846266
vn -0.392300 -0.460910 0.796029
v -0.417983 0.096589 -0.673993
vn -0.455356 0.609672 0.648807
v -0.198655 0.407330 -0.551113
vn -0.932400 -0.091178 0.349739
v -0.436241 0.216615 -0.874926
vn -0.910219 0.233650 0.341920
v -0.409104 0.309921 -0.658580
vn -0.977674 0.187582 0.094693
v -0.417350 0.312451 -0.795373
vn -0.021288 0.398606 -0.916875
v -0.377619 0.312479 -0.980712
vn 0.630580 -0.573261 0.523203
v -0.343360 0.119544 -0.897367
vn 0.665025 -0.554515 -0.500255
v -0.363367 0.058994 -0.980633
vn -0.934995 0.287748 -0.207332
v -0.426682 0.284636 -0.896746
vn -0.280553 -0.876536 -0.391119
v -0.460695 0.066870 -0.980321
vn -0.392242 -0.689374 0.609024
v -0.475060 0.051259 -0.909919
vn -0.888737 -0.330954 0.317199
v -0.378718 -0.219379 -0.512477
vn 0.567959 0.745818 -0.348106
v -0.334368 0.010034 -0.720088
vn 0.223203 -0.703071 -0.675183
v -0.362190 -0.110447 -0.738435
vn -0.939134 0.304394 0.159285
v -0.404212 -0.065937 -0.637599
vn 0.784767 -0.394026 0.478419
v -0.236451 0.045563 -0.172518
vn -0.758466 0.468758 0.452765
v -0.199874 0.121927 -0.403167
vn -0.991543 0.029434 -0.126393
v -0.484067 0.034310 0.138224
vn -0.560011 0.538125 -0.629928
v -0.263499 0.057227 -0.207821
vn -0.074256 0.591472 0.802899
v -0.157771 0.014637 -0.276825
vn -0.922812 -0.124484 -0.364585
v -0.456488 0.053790 0.246200
vn -0.843729 0.419055 -0.335431
v -0.390426 0.072133 0.068895
vn -0.179408 0.577651 -0.796324
v -0.383236 0.319676 -0.111325
vn -0.961146 -0.074334 -0.265843
v -0.331390 0.095957 -0.064446
vn 0.908567 -0.002213 0.417732
v -0.325259 0.099063 0.013760
vn -0.971510 0.201025 -0.125526
v -0.555185 0.050682 -0.929070
vn -0.466988 0.238648 -0.851451
v -0.130094 0.691077 -0.980688
vn -0.542263 -0.820860 -0.179277
v -0.106674 -0.383509 -0.381541
vn -0.236526 -0.704099 -0.669552
v -0.135842 -0.258125 -0.544468
vn -0.424790 -0.515119 -0.744450
v -0.150325 0.073902 -0.980630
vn -0.549867 -0.827737 -0.111797
v -0.305409 0.109591 -0.708589
vn -0.075275 -0.430754 -0.899325
v -0.339036 0.261312 -0.854933
vn -0.353030 0.932895 0.071249
v -0.468857 0.388275 0.161335
vn -0.621528 0.758398 -0.196305
v -0.099549 0.798946 -0.916951
vn 0.631274 0.745659 0.213273
v 0.063224 0.841548 -0.836477
vn 0.918859 0.321353 0.228975
v -0.273911 0.140268 -0.082347
vn -0.794379 0.375580 -0.477391
v -0.422194 0.383916 0.021506
vn -0.953721 -0.132448 -0.269951
v -0.323807 0.023363 -0.187453
vn 0.988038 -0.017036 0.153267
v -0.399870 0.114619 0.228118
vn -0.978229 -0.172877 -0.114812
v -0.543734 0.162991 0.675970
vn -0.971084 0.069690 -0.228341
v -0.562940 0.296531 0.403894
vn -0.944266 0.293356 -0.149345
v -0.606528 0.553305 0.633670
vn -0.868616 -0.167694 -0.466245
v -0.439560 0.312834 0.079707
vn 0.281372 -0.867927 0.409308
v -0.465535 -0.005906 0.281873
vn -0.850757 -0.221527 -0.476590
v -0.480837 0.181094 0.181472
vn -0.904930 -0.342244 -0.252926
v -0.503914 0.037185 0.332612
vn -0.875235 0.253412 -0.412002
v -0.591869 0.440758 0.427662
vn 0.473290 0.819402 -0.323382
v -0.477014 0.363744 0.297298
vn 0.954576 0.234172 0.184251
v -0.485666 0.361309 0.563496
vn 0.454530 0.881428 -0.128400
v -0.554698 0.569775 0.578464
vn -0.450574 -0.892067 0.034625
v -0.478994 -0.043811 0.525048
vn 0.406248 0.808041 0.426652
v -0.608960 0.562698 0.804399
vn -0.945382 -0.307687 -0.107617
v -0.603107 0.354268 0.820406
vn -0.372773 -0.550240 0.747179
v -0.686910 0.393999 0.931969
vn 0.642611 0.150874 0.751191
v -0.607871 0.410435 0.891664
vn 0.632257 -0.377629 0.676496
v -0.573261 0.335366 0.846425
vn 0.915879 0.113837 0.384976
v -0.540475 0.326523 0.732725
vn 0.847639 -0.190617 0.495150
v -0.461905 0.066082 0.641570
vn -0.411221 -0.593917 0.691491
v -0.557253 0.140376 0.726731
vn 0.067107 -0.011067 0.997684
v -0.000847 0.673825 -0.757927
vn -0.734902 0.526795 0.427090
v -0.140027 0.586175 -0.814157
vn -0.448709 -0.213751 -0.867739
v 0.244342 -0.169821 -0.612094
vn -0.723732 0.664097 -0.187580
v 0.350772 0.008321 -0.781063
vn -0.144519 -0.974070 -0.174072
v 0.356487 -0.112775 -0.750867
vn 0.776798 -0.550442 0.305938
v 0.414024 -0.264433 -0.926919
vn 0.988621 0.123309 -0.086160
v 0.427923 -0.059525 -0.825452
vn -0.749756 -0.292281 0.593665
v 0.328326 -0.231344 -0.917816
vn -0.073724 -0.939200 -0.335364
v 0.373961 -0.325470 -0.977830
vn 0.000000 0.447214 -0.894427
v 0.295969 -0.429250 -0.972941
vn -0.970595 -0.121625 0.207731
v 0.256563 -0.195170 -0.975163
vn 0.250111 0.632422 -0.733135
v 0.355092 -0.108302 -0.980731
vn -1.000000 0.000000 0.000000
v 0.248732 -0.420738 -0.972264
vn -0.826898 0.499436 -0.258463
v -0.383441 -0.029828 -0.794906
vn 0.470624 -0.055935 0.880559
v -0.291482 -0.261900 -0.917260
vn -0.727871 -0.043578 -0.684328
v -0.394523 -0.162644 -0.980727
vn 0.000000 0.000000 0.000000
v -0.438570 -0.396895 -0.974574
vn -0.490325 -0.806775 0.329688
v -0.321736 -0.325011 -0.934653
vn -0.657009 -0.332814 0.676442
v -0.388687 -0.242027 -0.918209
vn 0.608552 -0.630131 -0.482286
v -0.272982 -0.347408 -0.979840
vn 0.904440 0.426578 0.004318
v -0.294664 -0.124167 -0.979042
vn 0.000000 0.000000 0.000000
v -0.182182 -0.284357 -0.972484
# 270 vertices, 0 vertices normals

f 79//79 73//73 47//47
f 88//88 99//99 138//138
f 1//1 95//95 55//55
f 49//49 95//95 1//1
f 46//46 4//4 72//72
f 7//7 86//86 87//87
f 150//150 6//6 5//5
f 5//5 92//92 14//14
f 4//4 46//46 8//8
f 249//249 224//224 11//11
f 11//11 10//10 146//146
f 146//146 10//10 145//145
f 86//86 53//53 97//97
f 151//151 13//13 14//14
f 50//50 2//2 54//54
f 92//92 4//4 8//8
f 94//94 151//151 14//14
f 13//13 16//16 14//14
f 16//16 15//15 14//14
f 15//15 16//16 153//153
f 17//17 153//153 15//15
f 18//18 17//17 15//15
f 17//17 21//21 19//19
f 17//17 20//20 21//21
f 18//18 20//20 17//17
f 20//20 23//23 21//21
f 23//23 20//20 155//155
f 22//22 21//21 23//23
f 23//23 155//155 156//156
f 25//25 157//157 22//22
f 24//24 23//23 156//156
f 23//23 24//24 25//25
f 156//156 28//28 24//24
f 28//28 160//160 31//31
f 31//31 45//45 24//24
f 24//24 28//28 31//31
f 45//45 26//26 25//25
f 30//30 31//31 29//29
f 166//166 26//26 45//45
f 169//169 37//37 160//160
f 160//160 37//37 31//31
f 29//29 32//32 30//30
f 33//33 29//29 35//35
f 33//33 32//32 29//29
f 31//31 37//37 29//29
f 166//166 45//45 27//27
f 27//27 34//34 166//166
f 166//166 34//34 38//38
f 36//36 35//35 29//29
f 44//44 35//35 36//36
f 36//36 29//29 37//37
f 170//170 166//166 38//38
f 37//37 39//39 40//40
f 39//39 171//171 40//40
f 37//37 40//40 36//36
f 170//170 38//38 41//41
f 43//43 176//176 41//41
f 42//42 43//43 44//44
f 44//44 36//36 42//42
f 36//36 40//40 42//42
f 171//171 42//42 40//40
f 176//176 43//43 42//42
f 22//22 23//23 25//25
f 24//24 45//45 25//25
f 27//27 45//45 31//31
f 27//27 31//31 30//30
f 98//98 251//251 126//126
f 47//47 55//55 79//79
f 7//7 52//52 126//126
f 47//47 73//73 53//53
f 47//47 98//98 55//55
f 51//51 2//2 50//50
f 72//72 79//79 55//55
f 72//72 55//55 46//46
f 55//55 95//95 46//46
f 180//180 99//99 52//52
f 56//56 60//60 61//61
f 72//72 53//53 73//73
f 134//134 224//224 249//249
f 53//53 72//72 4//4
f 53//53 4//4 97//97
f 4//4 92//92 97//97
f 14//14 147//147 5//5
f 132//132 60//60 54//54
f 54//54 59//59 50//50
f 53//53 86//86 48//48
f 70//70 7//7 251//251
f 55//55 98//98 89//89
f 1//1 58//58 57//57
f 57//57 56//56 61//61
f 49//49 61//61 133//133
f 56//56 57//57 58//58
f 56//56 58//58 62//62
f 57//57 61//61 1//1
f 58//58 1//1 89//89
f 50//50 58//58 89//89
f 60//60 56//56 54//54
f 54//54 56//56 59//59
f 133//133 61//61 60//60
f 61//61 49//49 1//1
f 62//62 66//66 68//68
f 58//58 66//66 62//62
f 66//66 58//58 50//50
f 133//133 60//60 132//132
f 66//66 50//50 59//59
f 68//68 63//63 64//64
f 62//62 68//68 64//64
f 64//64 56//56 62//62
f 64//64 66//66 59//59
f 56//56 64//64 59//59
f 65//65 64//64 85//85
f 64//64 65//65 66//66
f 64//64 63//63 67//67
f 67//67 63//63 69//69
f 67//67 69//69 68//68
f 69//69 63//63 68//68
f 84//84 85//85 66//66
f 85//85 84//84 66//66
f 65//65 85//85 66//66
f 85//85 68//68 66//66
f 67//67 68//68 85//85
f 47//47 71//71 98//98
f 86//86 7//7 70//70
f 48//48 86//86 70//70
f 48//48 71//71 53//53
f 71//71 47//47 53//53
f 70//70 253//253 48//48
f 71//71 252//252 98//98
f 48//48 255//255 71//71
f 255//255 48//48 253//253
f 252//252 71//71 255//255
f 251//251 98//98 252//252
f 251//251 253//253 70//70
f 75//75 72//72 73//73
f 74//74 73//73 79//79
f 102//102 100//100 101//101
f 102//102 74//74 100//100
f 77//77 75//75 78//78
f 102//102 115//115 107//107
f 77//77 79//79 72//72
f 75//75 77//77 72//72
f 77//77 81//81 79//79
f 79//79 76//76 74//74
f 77//77 78//78 82//82
f 76//76 79//79 81//81
f 103//103 108//108 118//118
f 108//108 83//83 118//118
f 223//223 90//90 216//216
f 97//97 6//6 9//9
f 87//87 86//86 9//9
f 86//86 97//97 9//9
f 7//7 87//87 148//148
f 52//52 7//7 148//148
f 126//126 99//99 3//3
f 89//89 126//126 3//3
f 99//99 180//180 138//138
f 3//3 99//99 88//88
f 51//51 3//3 88//88
f 99//99 126//126 52//52
f 89//89 3//3 50//50
f 51//51 50//50 3//3
f 80//80 114//114 108//108
f 80//80 104//104 82//82
f 224//224 90//90 223//223
f 90//90 224//224 134//134
f 145//145 10//10 12//12
f 104//104 91//91 81//81
f 104//104 103//103 91//91
f 91//91 103//103 101//101
f 104//104 77//77 82//82
f 94//94 92//92 93//93
f 93//93 92//92 8//8
f 49//49 96//96 95//95
f 92//92 6//6 97//97
f 5//5 6//6 92//92
f 15//15 147//147 14//14
f 102//102 107//107 75//75
f 75//75 74//74 102//102
f 118//118 83//83 105//105
f 78//78 75//75 107//107
f 115//115 102//102 101//101
f 75//75 73//73 74//74
f 94//94 14//14 92//92
f 101//101 100//100 91//91
f 76//76 81//81 100//100
f 81//81 91//91 100//100
f 100//100 74//74 76//76
f 82//82 78//78 114//114
f 114//114 80//80 82//82
f 80//80 108//108 103//103
f 104//104 80//80 103//103
f 104//104 81//81 77//77
f 118//118 105//105 106//106
f 131//131 125//125 130//130
f 105//105 111//111 110//110
f 78//78 109//109 114//114
f 106//106 110//110 120//120
f 112//112 110//110 111//111
f 109//109 115//115 120//120
f 115//115 119//119 106//106
f 113//113 117//117 122//122
f 128//128 122//122 117//117
f 128//128 83//83 121//121
f 121//121 83//83 108//108
f 115//115 101//101 103//103
f 115//115 109//109 107//107
f 119//119 118//118 106//106
f 109//109 78//78 107//107
f 106//106 105//105 110//110
f 118//118 119//119 103//103
f 115//115 103//103 119//119
f 105//105 83//83 111//111
f 106//106 120//120 115//115
f 109//109 113//113 114//114
f 128//128 112//112 111//111
f 123//123 112//112 117//117
f 128//128 111//111 83//83
f 114//114 121//121 108//108
f 113//113 122//122 114//114
f 122//122 121//121 114//114
f 122//122 128//128 121//121
f 120//120 110//110 129//129
f 109//109 120//120 113//113
f 125//125 117//117 124//124
f 124//124 113//113 120//120
f 117//117 125//125 123//123
f 130//130 125//125 124//124
f 131//131 130//130 129//129
f 127//127 123//123 125//125
f 127//127 116//116 123//123
f 120//120 130//130 124//124
f 10//10 11//11 224//224
f 126//126 89//89 98//98
f 55//55 89//89 1//1
f 131//131 127//127 125//125
f 131//131 116//116 127//127
f 128//128 117//117 112//112
f 113//113 124//124 117//117
f 112//112 129//129 110//110
f 112//112 131//131 129//129
f 131//131 112//112 116//116
f 129//129 130//130 120//120
f 123//123 116//116 112//112
f 249//249 96//96 134//134
f 96//96 49//49 134//134
f 90//90 134//134 132//132
f 133//133 134//134 49//49
f 133//133 132//132 134//134
f 143//143 5//5 178//178
f 206//206 46//46 95//95
f 220//220 184//184 137//137
f 218//218 217//217 181//181
f 93//93 142//142 143//143
f 150//150 5//5 143//143
f 11//11 144//144 249//249
f 144//144 11//11 145//145
f 145//145 11//11 146//146
f 13//13 151//151 152//152
f 206//206 95//95 191//191
f 141//141 9//9 6//6
f 13//13 152//152 178//178
f 153//153 13//13 178//178
f 15//15 153//153 178//178
f 153//153 18//18 15//15
f 18//18 153//153 154//154
f 153//153 17//17 19//19
f 154//154 153//153 19//19
f 155//155 18//18 154//154
f 20//20 18//18 155//155
f 19//19 21//21 154//154
f 155//155 154//154 156//156
f 154//154 21//21 22//22
f 22//22 156//156 154//154
f 22//22 157//157 156//156
f 158//158 159//159 157//157
f 28//28 156//156 159//159
f 157//157 25//25 158//158
f 25//25 26//26 158//158
f 160//160 28//28 159//159
f 159//159 158//158 162//162
f 158//158 161//161 162//162
f 161//161 163//163 162//162
f 160//160 162//162 163//163
f 159//159 162//162 160//160
f 167//167 161//161 166//166
f 166//166 161//161 158//158
f 166//166 158//158 26//26
f 163//163 164//164 160//160
f 169//169 164//164 165//165
f 165//165 173//173 169//169
f 169//169 160//160 164//164
f 166//166 168//168 167//167
f 169//169 39//39 37//37
f 168//168 166//166 170//170
f 39//39 174//174 171//171
f 39//39 169//169 174//174
f 173//173 172//172 174//174
f 173//173 174//174 169//169
f 41//41 175//175 170//170
f 41//41 176//176 175//175
f 177//177 175//175 176//176
f 42//42 177//177 176//176
f 42//42 171//171 177//177
f 177//177 171//171 174//174
f 177//177 174//174 172//172
f 175//175 177//177 172//172
f 159//159 156//156 157//157
f 182//182 206//206 179//179
f 135//135 206//206 182//182
f 180//180 218//218 184//184
f 209//209 46//46 206//206
f 209//209 142//142 46//46
f 182//182 183//183 135//135
f 184//184 218//218 179//179
f 94//94 93//93 143//143
f 191//191 137//137 206//206
f 46//46 142//142 8//8
f 179//179 206//206 137//137
f 135//135 183//183 139//139
f 139//139 183//183 141//141
f 137//137 191//191 185//185
f 141//141 183//183 217//217
f 150//150 143//143 141//141
f 179//179 218//218 203//203
f 203//203 202//202 179//179
f 182//182 179//179 202//202
f 189//189 192//192 221//221
f 189//189 221//221 220//220
f 188//188 186//186 187//187
f 221//221 187//187 149//149
f 188//188 185//185 186//186
f 190//190 220//220 137//137
f 187//187 221//221 188//188
f 190//190 189//189 220//220
f 188//188 193//193 185//185
f 190//190 193//193 189//189
f 187//187 186//186 140//140
f 185//185 193//193 190//190
f 190//190 137//137 185//185
f 193//193 194//194 189//189
f 193//193 188//188 194//194
f 194//194 192//192 189//189
f 192//192 194//194 198//198
f 198//198 194//194 188//188
f 195//195 221//221 196//196
f 188//188 195//195 198//198
f 221//221 195//195 188//188
f 196//196 197//197 195//195
f 196//196 221//221 192//192
f 192//192 215//215 199//199
f 192//192 199//199 200//200
f 200//200 196//196 192//192
f 192//192 198//198 195//195
f 192//192 195//195 215//215
f 196//196 200//200 199//199
f 197//197 196//196 199//199
f 181//181 183//183 201//201
f 201//201 183//183 182//182
f 204//204 201//201 182//182
f 201//201 203//203 181//181
f 203//203 201//201 204//204
f 204//204 182//182 202//202
f 204//204 202//202 262//262
f 203//203 218//218 181//181
f 139//139 209//209 205//205
f 139//139 227//227 135//135
f 135//135 208//208 206//206
f 212//212 226//226 225//225
f 214//214 205//205 225//225
f 142//142 141//141 143//143
f 143//143 178//178 152//152
f 209//209 139//139 141//141
f 141//141 142//142 209//209
f 227//227 139//139 205//205
f 212//212 208//208 227//227
f 233//233 214//214 228//228
f 209//209 206//206 208//208
f 232//232 213//213 211//211
f 225//225 226//226 222//222
f 212//212 205//205 209//209
f 235//235 230//230 222//222
f 94//94 143//143 152//152
f 178//178 147//147 15//15
f 5//5 147//147 178//178
f 141//141 6//6 150//150
f 9//9 141//141 217//217
f 87//87 9//9 217//217
f 148//148 87//87 217//217
f 217//217 218//218 148//148
f 180//180 52//52 148//148
f 218//218 180//180 148//148
f 136//136 184//184 220//220
f 138//138 180//180 136//136
f 180//180 184//184 136//136
f 138//138 219//219 88//88
f 2//2 88//88 219//219
f 138//138 136//136 219//219
f 136//136 220//220 219//219
f 221//221 219//219 220//220
f 221//221 149//149 219//219
f 214//214 222//222 228//228
f 144//144 12//12 224//224
f 223//223 144//144 224//224
f 12//12 10//10 224//224
f 205//205 212//212 225//225
f 213//213 232//232 226//226
f 16//16 13//13 153//153
f 96//96 191//191 95//95
f 142//142 93//93 8//8
f 186//186 191//191 250//250
f 140//140 186//186 250//250
f 151//151 94//94 152//152
f 191//191 96//96 250//250
f 217//217 183//183 181//181
f 211//211 227//227 207//207
f 227//227 205//205 207//207
f 207//207 205//205 233//233
f 227//227 211//211 213//213
f 135//135 227//227 208//208
f 213//213 226//226 212//212
f 212//212 227//227 213//213
f 233//233 205//205 214//214
f 211//211 210//210 232//232
f 212//212 209//209 208//208
f 222//222 214//214 225//225
f 222//222 226//226 232//232
f 207//207 210//210 211//211
f 245//245 242//242 248//248
f 245//245 243//243 242//242
f 230//230 235//235 229//229
f 230//230 237//237 222//222
f 229//229 231//231 236//236
f 240//240 229//229 235//235
f 236//236 230//230 229//229
f 235//235 234//234 210//210
f 236//236 237//237 230//230
f 246//246 247//247 238//238
f 231//231 241//241 239//239
f 237//237 228//228 222//222
f 232//232 234//234 222//222
f 246//246 239//239 241//241
f 233//233 240//240 210//210
f 233//233 210//210 207//207
f 240//240 235//235 210//210
f 240//240 233//233 228//228
f 247//247 240//240 228//228
f 222//222 234//234 235//235
f 210//210 234//234 232//232
f 239//239 237//237 236//236
f 242//242 229//229 248//248
f 246//246 248//248 247//247
f 231//231 239//239 236//236
f 237//237 238//238 228//228
f 238//238 237//237 239//239
f 246//246 238//238 239//239
f 228//228 238//238 247//247
f 241//241 244//244 245//245
f 245//245 246//246 241//241
f 246//246 245//245 248//248
f 229//229 240//240 248//248
f 243//243 244//244 241//241
f 144//144 145//145 12//12
f 184//184 179//179 137//137
f 243//243 245//245 244//244
f 242//242 241//241 231//231
f 242//242 231//231 229//229
f 240//240 247//247 248//248
f 241//241 242//242 243//243
f 96//96 249//249 250//250
f 250//250 249//249 144//144
f 140//140 250//250 216//216
f 250//250 144//144 223//223
f 223//223 216//216 250//250
f 186//186 185//185 191//191
f 252//252 253//253 251//251
f 255//255 253//253 254//254
f 260//260 252//252 255//255
f 253//253 252//252 256//256
f 260//260 256//256 252//252
f 256//256 254//254 253//253
f 259//259 256//256 260//260
f 254//254 260//260 255//255
f 256//256 257//257 254//254
f 254//254 257//257 260//260
f 259//259 257//257 256//256
f 259//259 256//256 261//261
f 258//258 256//256 257//257
f 256//256 258//258 257//257
f 256//256 259//259 261//261
f 204//204 262//262 203//203
f 267//267 203//203 262//262
f 202//202 203//203 262//262
f 262//262 269//269 264//264
f 269//269 262//262 203//203
f 267//267 269//269 203//203
f 264//264 267//267 262//262
f 267//267 264//264 265//265
f 266//266 263//263 267//267
f 263//263 269//269 267//267
f 265//265 264//264 267//267
f 263//263 266//266 268//268
f 263//263 268//268 269//269
f 264//264 266//266 267//267
f 263//263 269//269 270//270
f 263//263 270//270 269//269
f 266//266 264//264 268//268
f 195//195 197//197 199//199
f 199//199 215//215 195//195
f 85//85 64//64 67//67
f 126//126 251//251 7//7
f 140//140 216//216 2//2
f 2//2 149//149 140//140
f 54//54 2//2 132//132
f 219//219 149//149 2//2
f 140//140 149//149 187//187
f 2//2 51//51 88//88
f 260//260 257//257 259//259
f 269//269 268//268 264//264
f 175//175 172//172 173//173
f 170//170 175//175 173//173
f 170//170 173//173 165//165
f 168//168 170//170 165//165
f 168//168 165//165 164//164
f 167//167 168//168 164//164
f 167//167 164//164 163//163
f 161//161 167//167 163//163
f 35//35 44//44 43//43
f 35//35 43//43 41//41
f 33//33 35//35 41//41
f 33//33 41//41 38//38
f 32//32 33//33 38//38
f 32//32 38//38 34//34
f 30//30 32//32 34//34
f 30//30 34//34 27//27
f 132//132 2//2 216//216
f 132//132 216//216 90//90
# 536 faces, 0 coords texture

# End of File
