####
#
# OBJ File Generated by Meshlab
#
####
# Object bunny0.01.obj
#
# Vertices: 350
# Faces: 696
#
####
v -0.063068 0.886389 -0.133047
v -0.476379 0.695507 -0.145291
v 0.494874 0.244767 0.285297
v -0.135769 -0.541546 0.347482
v 0.026888 -0.513201 0.461520
v -0.254533 -0.490046 0.295069
v 0.168739 -0.517815 0.433212
v -0.445962 0.209424 0.446940
v 0.310640 -0.481326 0.488204
v 0.647028 -0.492194 0.262233
v -0.572954 0.813504 -0.546837
v 0.281585 -0.348523 0.518010
v 0.453201 0.117346 0.378977
v 0.810272 -0.367526 0.243396
v -0.005851 0.330968 0.064892
v 0.585627 0.309329 0.057069
v 0.402342 -0.353077 0.486272
v 0.752708 0.087880 -0.058006
v 0.381696 0.381565 0.168233
v -0.700816 0.388678 -0.022154
v -0.349356 0.662462 0.005110
v 0.146787 -0.249015 0.507668
v -0.186916 -0.273096 0.355947
v 0.099967 0.221350 0.322372
v 0.756625 -0.041717 -0.164712
v 0.234442 -0.221361 0.539808
v -0.332400 -0.251524 0.342014
v -0.163448 -0.093158 0.364791
v -0.052107 -0.121735 0.356610
v -0.541571 0.625970 0.267050
v -0.467209 -0.278918 0.275442
v 0.332616 -0.110993 0.524657
v -0.446305 0.653074 -0.090442
v -0.264173 -0.125980 0.402813
v -0.109892 -0.211789 0.374756
v -0.433253 -0.064351 0.391300
v -0.075217 0.002895 0.392619
v -0.691787 0.456638 0.085929
v 0.018352 0.004910 0.391201
v 0.789605 -0.038643 -0.017379
v -0.306628 -0.022017 0.391526
v 0.125770 -0.010657 0.510145
v -0.158401 0.333689 -0.187726
v 0.259860 0.029808 0.481622
v 0.473912 -0.006042 0.433787
v -0.365265 0.081424 0.365428
v -0.129333 0.069212 0.348985
v -0.416841 0.173699 0.307483
v -0.307337 0.204307 0.282552
v -0.530886 0.130594 0.291007
v -0.215081 0.104108 0.355910
v 0.254780 0.187712 0.370832
v 0.315073 0.075099 0.380791
v 0.485838 -0.633457 0.374459
v 0.208548 -0.654263 0.431835
v -0.246092 0.368716 0.242263
v 0.264123 -0.545201 0.409360
v 0.451146 -0.524401 0.384751
v -0.119113 0.798635 -0.071565
v -0.343158 -0.560449 0.406943
v -0.096681 0.683386 -0.050781
v -0.351171 0.628648 0.268316
v -0.437149 0.285913 0.477464
v -0.363162 0.299054 0.370323
v 0.740583 0.058015 0.179757
v 0.157902 0.740348 -0.231684
v 0.902088 -0.430053 0.181411
v -0.423783 0.584014 0.330623
v 0.529607 -0.427885 0.406119
v 0.589231 0.279167 0.194765
v 0.750459 -0.324423 0.212650
v 0.052419 0.762996 -0.208057
v -0.372468 0.687515 -0.341672
v 0.693586 -0.349110 0.303571
v 0.414545 0.311483 0.267457
v 0.530168 -0.300136 0.413134
v -0.395713 0.448369 0.309643
v 0.676833 -0.236144 0.320612
v 0.179905 0.784487 -0.286592
v 0.777694 -0.118947 0.175484
v -0.261417 0.615564 0.033494
v 0.462749 -0.177487 0.484867
v -0.009351 0.826155 -0.204331
v -0.490948 0.435637 0.445647
v -0.141473 0.709655 -0.078909
v -0.208129 0.282374 0.197414
v 0.705529 -0.097541 -0.269481
v -0.100399 0.609605 -0.098771
v 0.615040 0.073505 0.332135
v 0.564909 -0.021407 0.410388
v 0.608900 -0.173121 0.389024
v 0.673803 -0.045525 0.341071
v 0.108012 0.724190 -0.177546
v -0.359842 0.474286 0.277475
v -0.731691 0.231744 0.125560
v 0.018558 0.700228 -0.102671
v 0.447129 -0.654290 -0.311427
v 0.573594 -0.606327 0.238486
v 0.509674 -0.656925 -0.113396
v 0.190521 0.891267 -0.431094
v 0.491609 -0.583579 -0.338876
v 0.892255 -0.504422 0.113025
v 0.537105 -0.536119 -0.301516
v 0.604899 -0.536193 -0.173209
v 0.914657 -0.479415 -0.009886
v 0.593823 -0.504248 -0.287482
v -0.635716 0.177616 0.185042
v 0.703301 -0.424410 -0.160688
v 0.937537 -0.280045 0.135336
v 0.705323 -0.329756 -0.232603
v 0.913705 -0.269944 -0.056073
v -0.716076 0.224620 0.004667
v -0.251605 0.539426 0.012954
v -0.546666 0.163275 0.397186
v 0.787104 -0.267265 -0.062751
v 0.630624 -0.293477 -0.300137
v -0.379331 0.749759 -0.605461
v 0.730008 -0.189142 -0.190874
v -0.653370 0.151284 0.050867
v -0.266565 0.464824 0.163316
v -0.599171 0.172068 -0.100421
v -0.369494 0.879673 -0.778037
v -0.651528 0.313431 -0.126977
v -0.527789 0.660971 0.153904
v -0.353439 0.659136 0.163990
v 0.154373 0.952348 -0.369335
v -0.494433 0.943908 -0.701544
v -0.019990 0.251384 0.235970
v -0.535341 0.604574 -0.229642
v -0.660142 0.031801 -0.069556
v -0.436812 0.854195 -0.595600
v 0.496307 -0.087981 -0.395426
v -0.547248 0.633466 -0.150650
v -0.177651 0.350558 0.089929
v -0.567403 0.719233 -0.377197
v -0.412756 0.769094 -0.387568
v 0.177712 0.316533 0.261400
v -0.672248 -0.080523 -0.020019
v -0.309902 0.603945 0.224144
v -0.115268 0.293948 0.207429
v 0.030555 0.962620 -0.207016
v -0.529018 0.846158 -0.507015
v -0.413626 0.705368 -0.730794
v 0.876823 -0.241649 0.132978
v -0.541654 0.060738 -0.217715
v -0.532242 0.664053 0.061021
v -0.659965 0.630741 0.098968
v -0.483308 0.808710 -0.379725
v 0.173746 0.379005 0.127202
v -0.437616 -0.631108 0.228996
v -0.004266 -0.627074 0.504143
v -0.511669 -0.655226 -0.017389
v -0.587504 0.545687 0.372440
v -0.311300 0.032562 -0.329271
v -0.470734 -0.576831 -0.086153
v -0.088305 -0.575994 0.423589
v -0.640464 0.416646 0.427556
v -0.441308 -0.549201 -0.011346
v -0.639600 0.257929 0.434406
v -0.573271 0.360915 0.487149
v -0.342337 -0.505681 -0.018890
v -0.250507 -0.434814 0.067820
v -0.107912 -0.497264 0.323294
v -0.597058 -0.130697 0.264514
v -0.223646 0.777125 -0.061378
v -0.515041 0.583600 -0.443258
v -0.008672 -0.328036 0.313116
v 0.029094 -0.466266 0.361139
v -0.274780 -0.406451 0.166557
v -0.317305 -0.407417 0.103481
v -0.280329 -0.360280 0.232828
v -0.541824 0.725333 -0.268571
v 0.152113 0.062518 0.378863
v -0.674860 0.036275 0.164828
v -0.538310 -0.013121 -0.244802
v 0.118431 -0.367191 0.481204
v 0.019724 -0.132200 0.498152
v -0.277900 0.751467 -0.110403
v -0.362585 -0.604176 0.121512
v -0.186343 -0.628661 -0.378990
v -0.276986 -0.550089 0.103040
v -0.398074 -0.537696 0.278983
v -0.469393 0.870542 -0.694868
v -0.616354 0.529775 -0.062934
v -0.698171 0.585600 0.164440
v -0.544190 0.542893 -0.156202
v -0.277448 -0.491487 0.230025
v -0.058079 -0.465268 -0.201646
v -0.336245 -0.407241 -0.045055
v -0.512480 0.759624 -0.526417
v -0.518533 0.657324 -0.340677
v -0.729622 0.344907 0.179555
v -0.565037 0.884341 -0.634179
v 0.177313 0.154101 -0.335589
v -0.574669 0.624424 -0.084056
v -0.700525 0.340892 0.368390
v -0.044902 -0.365667 -0.310044
v 0.265939 0.211652 -0.299667
v -0.513039 -0.298547 -0.087104
v -0.548368 -0.243775 -0.153594
v -0.469433 0.708403 -0.621762
v -0.055025 -0.193929 -0.452997
v -0.617825 -0.203454 -0.053270
v -0.641133 -0.159580 0.100798
v -0.627992 -0.107686 -0.135849
v -0.702883 0.562783 0.045731
v 0.108812 1.006710 -0.341243
v -0.069607 -0.061344 -0.367770
v 0.128476 0.247933 -0.255845
v -0.004650 -0.074867 -0.490052
v -0.140580 -0.539076 -0.342878
v 0.377377 0.322000 -0.196659
v 0.514302 0.234452 -0.233927
v -0.015859 0.190944 -0.287440
v 0.542428 0.160083 -0.260046
v 0.808970 -0.227650 0.021286
v 0.519311 -0.356435 -0.384938
v -0.055605 0.886521 -0.252421
v 0.648109 0.172877 -0.188027
v -0.176326 0.159787 -0.304353
v 0.142422 0.934089 -0.406900
v -0.357648 0.632655 -0.092828
v -0.383275 0.571340 -0.136687
v 0.020530 -0.514749 -0.387154
v -0.065542 -0.575754 -0.422691
v 0.383087 0.047464 -0.338646
v 0.212999 0.342044 -0.177832
v 0.332026 0.219708 -0.306534
v 0.855726 -0.394060 -0.149399
v 0.163165 0.048538 -0.362879
v -0.195190 0.379279 -0.008987
v 0.346475 -0.042891 -0.454404
v 0.501621 0.060971 -0.338845
v -0.252032 0.365602 -0.132840
v 0.323995 0.399460 -0.036890
v -0.017852 0.311137 -0.122359
v 0.462089 0.366375 -0.078878
v 0.954905 -0.369606 -0.017683
v 0.584857 -0.070739 -0.337190
v 0.313679 -0.663879 -0.335461
v 0.167217 -0.664732 -0.362779
v -0.570621 -0.277688 0.044942
v -0.238266 -0.666255 -0.243564
v -0.522835 0.410357 -0.185874
v -0.445699 -0.612304 -0.164586
v 0.341630 -0.638728 -0.359742
v 0.146163 -0.559952 -0.389276
v -0.471609 -0.360015 0.102379
v 0.324701 -0.562214 -0.363284
v -0.374894 0.271897 -0.197943
v -0.532795 0.231955 0.472866
v 0.238063 -0.523802 -0.424849
v -0.197733 -0.533096 -0.215842
v -0.301257 -0.510622 -0.155404
v 0.419253 -0.504905 -0.389717
v -0.023123 -0.487837 -0.333359
v 0.770511 -0.505600 -0.167166
v 0.130994 -0.451264 -0.463080
v 0.536940 -0.446860 -0.371799
v 0.286181 -0.365532 -0.466976
v 0.017387 -0.293153 -0.487030
v 0.622896 -0.368010 -0.305146
v 0.370412 -0.435253 -0.430476
v -0.031933 0.113714 -0.336947
v -0.212426 -0.328214 -0.248665
v -0.538240 0.317755 -0.184248
v -0.432730 0.067602 -0.274654
v 0.223908 -0.280230 -0.484812
v -0.517898 0.201988 -0.166213
v -0.330231 -0.373344 -0.147960
v 0.411958 -0.315135 -0.434278
v -0.331378 0.439971 -0.159747
v -0.413198 -0.320532 -0.169631
v -0.333238 0.205255 -0.268526
v -0.274621 0.513333 -0.095320
v -0.357819 -0.265890 -0.271196
v 0.522207 -0.273667 -0.398738
v 0.127709 -0.305485 -0.514102
v -0.194119 -0.135274 -0.326382
v 0.378784 -0.216778 -0.466422
v 0.054633 -0.658901 -0.399422
v 0.627279 -0.213048 -0.322037
v -0.104506 -0.165227 -0.320221
v -0.493511 -0.172250 -0.267913
v -0.376292 -0.130633 -0.316914
v 0.208096 -0.128925 -0.515504
v -0.149395 0.716352 -0.230669
v 0.129451 -0.005364 -0.480391
v -0.088723 -0.666366 -0.434628
v -0.173784 -0.668561 -0.394427
v 0.413796 -0.661881 -0.253300
v -0.032912 -0.666510 -0.329706
v 0.180797 -0.661938 -0.296799
v 0.361459 -0.607135 -0.199015
v -0.009151 -0.613951 -0.289586
v -0.122368 -0.614160 -0.200207
v 0.252855 -0.608825 -0.249994
v -0.169043 -0.662198 -0.162166
v -0.058390 -0.619761 -0.081061
v 0.529415 -0.659686 -0.082256
v 0.327271 -0.666846 -0.058404
v 0.480504 -0.641733 -0.055135
v 0.375836 -0.639130 -0.036423
v 0.661249 -0.650006 0.006681
v -0.098079 -0.668335 -0.046008
v -0.370137 -0.671289 -0.202440
v 0.345173 -0.666493 0.028524
v 0.808220 -0.574155 -0.036952
v -0.222359 -0.669204 -0.034885
v 0.293061 -0.658518 0.090616
v 0.513725 -0.636282 0.078518
v 0.445384 -0.660764 0.149458
v -0.210824 -0.647163 -0.002318
v -0.159734 -0.645557 0.015418
v 0.233679 -0.618103 0.078785
v 0.410207 -0.656530 0.127897
v 0.542007 -0.654184 0.150083
v 0.755648 -0.509661 0.257511
v -0.067702 -0.668368 0.051663
v 0.426351 -0.653355 0.224457
v -0.401612 -0.653932 0.150986
v 0.001118 -0.623125 0.075825
v 0.481834 -0.653516 0.322944
v 0.670313 -0.615798 0.173401
v -0.293019 -0.671151 0.091241
v -0.097169 -0.646758 0.113045
v -0.030773 -0.665602 0.062481
v -0.132525 -0.654579 0.366312
v -0.688934 0.195995 0.353260
v -0.482693 0.535076 -0.283834
v 0.095272 -0.610393 0.328604
v -0.173819 -0.666371 0.201099
v 0.372650 -0.603193 0.264549
v -0.068775 -0.635976 0.262080
v -0.243698 -0.660507 0.233015
v -0.003949 -0.615761 0.318484
v 0.370624 -0.659533 0.311087
v 0.330673 -0.655916 0.399055
v -0.459751 -0.374380 0.029119
v -0.049711 -0.658782 0.337194
v 0.079938 -0.661912 0.396055
v -0.399211 -0.655847 0.380737
v -0.426609 0.498077 -0.184569
v 0.097589 0.692610 -0.199327
v 0.064858 0.805064 -0.318762
v -0.462198 0.610668 -0.620028
v -0.091695 0.651150 -0.209558
v -0.010485 0.652408 -0.179332
v 0.184341 0.804947 -0.376889
v -0.399744 0.573309 -0.371414
# 350 vertices, 0 vertices normals

f 38 184 20
f 211 253 188
f 236 149 235
f 15 128 137
f 42 44 173
f 138 174 130
f 160 153 157
f 120 94 56
f 95 192 112
f 125 62 139
f 40 25 18
f 251 63 160
f 160 84 153
f 117 131 136
f 244 343 272
f 160 63 84
f 84 68 153
f 143 122 117
f 235 149 19
f 14 109 144
f 63 251 8
f 44 32 45
f 192 20 112
f 48 50 46
f 229 238 105
f 257 105 308
f 58 9 57
f 32 44 42
f 17 32 12
f 58 17 9
f 118 25 40
f 17 82 32
f 27 36 31
f 36 41 46
f 192 38 20
f 344 349 66
f 41 36 27
f 17 12 9
f 34 41 27
f 9 7 57
f 236 15 149
f 46 49 48
f 318 14 71
f 7 9 176
f 127 142 131
f 266 123 244
f 26 32 42
f 82 90 45
f 345 287 218
f 273 284 276
f 41 51 46
f 46 51 49
f 81 165 21
f 34 47 41
f 47 51 41
f 9 12 176
f 90 13 45
f 60 4 6
f 34 28 47
f 49 51 86
f 132 226 233
f 28 34 23
f 140 86 51
f 23 35 28
f 163 6 4
f 6 163 23
f 163 35 23
f 165 81 59
f 32 26 12
f 51 47 140
f 28 37 47
f 13 3 53
f 35 29 28
f 29 37 28
f 128 140 47
f 156 163 4
f 119 112 121
f 167 29 35
f 167 35 163
f 29 39 37
f 40 65 80
f 257 308 304
f 45 13 53
f 81 21 125
f 39 47 37
f 19 149 137
f 198 194 209
f 71 216 80
f 19 16 237
f 318 71 10
f 235 19 237
f 324 318 10
f 24 128 47
f 346 143 117
f 54 58 57
f 115 118 40
f 137 128 24
f 24 47 39
f 124 146 147
f 19 137 75
f 265 283 188
f 7 168 5
f 42 177 22
f 10 98 324
f 7 176 168
f 238 111 109
f 52 24 173
f 204 203 242
f 13 89 3
f 12 22 176
f 22 26 42
f 52 137 24
f 22 12 26
f 92 65 89
f 257 229 105
f 78 91 76
f 70 3 89
f 231 275 113
f 48 64 8
f 64 63 8
f 84 77 68
f 79 126 72
f 63 64 84
f 64 77 84
f 54 10 58
f 90 89 13
f 231 120 134
f 94 68 77
f 94 62 68
f 264 220 214
f 48 49 64
f 66 72 93
f 328 4 60
f 88 96 61
f 139 62 94
f 83 126 141
f 64 56 77
f 91 82 76
f 56 94 77
f 344 93 96
f 120 139 94
f 338 54 57
f 330 350 343
f 86 64 49
f 86 56 64
f 71 80 74
f 72 126 83
f 78 92 91
f 199 339 242
f 72 85 96
f 74 80 78
f 82 45 32
f 348 96 88
f 93 72 96
f 149 15 137
f 80 92 78
f 86 134 56
f 69 78 76
f 79 72 66
f 58 69 17
f 141 1 83
f 72 83 85
f 89 65 70
f 83 59 85
f 315 299 295
f 318 67 14
f 91 92 90
f 96 85 61
f 93 344 66
f 83 1 59
f 17 76 82
f 71 74 10
f 69 74 78
f 55 57 7
f 90 92 89
f 69 10 74
f 61 85 81
f 10 69 58
f 61 81 88
f 59 81 85
f 96 348 344
f 109 14 67
f 40 216 115
f 105 102 308
f 67 318 102
f 55 338 57
f 69 76 17
f 91 90 82
f 173 53 52
f 186 330 343
f 300 257 304
f 117 73 350
f 321 150 179
f 157 185 196
f 259 262 106
f 184 206 195
f 330 166 350
f 338 55 337
f 169 170 162
f 117 350 346
f 73 117 136
f 345 344 348
f 334 340 328
f 111 238 229
f 235 212 198
f 322 336 334
f 227 198 209
f 282 118 116
f 112 20 123
f 184 38 206
f 103 104 99
f 100 126 79
f 155 158 161
f 350 73 223
f 282 87 118
f 106 262 104
f 54 98 10
f 185 147 206
f 101 103 99
f 97 101 99
f 349 100 79
f 180 290 243
f 203 204 138
f 192 196 38
f 104 110 108
f 322 334 327
f 110 116 118
f 110 118 115
f 187 181 179
f 119 121 130
f 106 104 103
f 118 87 25
f 289 290 180
f 113 88 81
f 108 110 115
f 262 110 104
f 204 174 138
f 92 80 65
f 139 120 113
f 116 110 262
f 79 66 349
f 216 40 80
f 67 238 109
f 281 292 289
f 40 18 65
f 102 238 67
f 102 105 238
f 345 349 344
f 122 127 131
f 148 142 172
f 111 144 109
f 2 195 33
f 216 144 111
f 216 71 144
f 147 146 195
f 188 256 211
f 136 131 148
f 147 185 30
f 124 30 62
f 62 30 68
f 146 125 21
f 231 134 15
f 53 44 45
f 120 56 134
f 195 146 33
f 113 120 231
f 207 141 126
f 2 33 73
f 113 275 88
f 174 119 130
f 30 153 68
f 15 134 140
f 18 70 65
f 134 86 140
f 136 148 2
f 221 207 126
f 125 124 62
f 125 146 124
f 18 16 70
f 43 15 236
f 147 30 124
f 117 122 131
f 73 33 223
f 128 15 140
f 18 219 16
f 33 146 222
f 131 142 148
f 30 185 153
f 148 172 2
f 11 142 193
f 231 15 43
f 75 52 53
f 75 53 3
f 81 125 139
f 1 165 59
f 70 75 3
f 293 292 281
f 137 52 75
f 219 237 16
f 173 44 53
f 19 75 70
f 70 16 19
f 2 73 136
f 195 186 184
f 327 334 319
f 294 315 297
f 167 176 177
f 6 23 171
f 127 193 142
f 159 251 160
f 287 345 347
f 29 167 177
f 36 46 50
f 14 144 71
f 42 173 39
f 221 345 218
f 135 133 172
f 168 156 5
f 42 39 177
f 256 224 225
f 166 346 350
f 187 6 171
f 187 171 169
f 177 39 29
f 160 157 159
f 31 36 164
f 172 133 2
f 169 171 170
f 127 122 183
f 168 163 156
f 151 5 156
f 158 155 152
f 24 39 173
f 164 50 174
f 150 182 179
f 156 4 328
f 157 196 159
f 60 182 342
f 182 150 342
f 7 5 151
f 107 119 174
f 186 343 244
f 6 182 60
f 36 50 164
f 343 350 223
f 88 275 347
f 50 107 174
f 161 181 162
f 208 154 264
f 167 168 176
f 195 2 133
f 289 180 225
f 221 126 100
f 347 345 348
f 152 179 158
f 162 189 161
f 157 153 185
f 282 116 217
f 329 159 196
f 158 179 161
f 167 163 168
f 21 165 178
f 179 181 161
f 1 178 165
f 176 22 177
f 123 184 244
f 143 201 183
f 201 143 346
f 127 183 193
f 201 190 183
f 183 11 193
f 183 190 11
f 142 135 172
f 11 135 142
f 166 201 346
f 191 190 201
f 166 191 201
f 178 1 218
f 213 215 228
f 190 135 11
f 190 191 135
f 208 210 202
f 212 228 198
f 196 185 38
f 328 335 332
f 261 197 202
f 224 197 261
f 132 232 226
f 129 191 166
f 164 174 204
f 202 283 208
f 256 197 224
f 129 135 191
f 253 243 306
f 181 187 169
f 218 207 221
f 197 188 283
f 327 319 305
f 330 129 166
f 192 95 107
f 256 188 197
f 169 162 181
f 141 207 218
f 107 329 192
f 206 147 195
f 253 180 243
f 253 211 180
f 119 95 112
f 275 234 272
f 185 206 38
f 330 186 129
f 129 133 135
f 284 205 175
f 212 237 213
f 334 328 332
f 141 218 1
f 107 95 119
f 213 228 212
f 186 133 129
f 341 151 328
f 205 145 175
f 182 187 179
f 130 145 205
f 121 269 145
f 194 264 214
f 200 273 199
f 235 237 212
f 130 121 145
f 254 189 270
f 196 192 329
f 270 199 273
f 200 203 205
f 195 133 186
f 199 203 200
f 184 186 244
f 292 293 295
f 203 138 205
f 138 130 205
f 161 254 155
f 20 184 123
f 161 189 254
f 121 112 123
f 242 203 199
f 230 264 194
f 274 220 154
f 208 230 288
f 146 21 222
f 226 215 233
f 233 25 87
f 236 227 209
f 87 239 233
f 231 234 275
f 215 219 233
f 232 286 288
f 225 281 289
f 229 108 115
f 219 18 25
f 219 213 237
f 132 233 239
f 227 235 198
f 222 223 33
f 217 116 262
f 115 216 111
f 21 178 222
f 245 155 254
f 223 272 343
f 211 256 225
f 347 348 88
f 275 272 223
f 226 232 288
f 209 214 236
f 293 297 295
f 234 274 250
f 194 198 226
f 234 43 274
f 220 274 43
f 230 226 288
f 294 301 315
f 139 113 81
f 231 43 234
f 226 230 194
f 219 215 213
f 219 25 233
f 218 287 178
f 111 229 115
f 214 220 43
f 245 254 253
f 236 235 227
f 209 194 214
f 236 214 43
f 145 269 274
f 222 178 287
f 267 175 145
f 319 332 326
f 250 272 234
f 175 285 284
f 108 229 257
f 261 202 210
f 285 267 154
f 244 272 250
f 269 266 250
f 104 108 257
f 265 188 253
f 283 265 279
f 277 239 282
f 222 287 275
f 285 154 279
f 265 270 276
f 257 300 104
f 282 239 87
f 284 285 276
f 223 222 275
f 267 145 274
f 285 175 267
f 275 287 347
f 300 99 104
f 276 270 273
f 217 277 282
f 276 285 279
f 106 103 259
f 239 277 132
f 259 217 262
f 103 255 259
f 255 263 259
f 205 284 200
f 263 217 259
f 217 271 277
f 277 280 132
f 101 255 103
f 266 244 250
f 320 323 337
f 260 217 263
f 121 266 269
f 217 260 271
f 230 208 264
f 249 255 101
f 271 280 277
f 280 232 132
f 279 208 283
f 308 324 304
f 226 228 215
f 97 246 101
f 101 246 249
f 246 97 240
f 254 265 253
f 271 268 280
f 226 198 228
f 286 232 280
f 249 252 255
f 255 252 263
f 268 271 260
f 280 268 286
f 270 265 254
f 246 247 249
f 240 241 246
f 263 252 260
f 6 187 182
f 246 241 247
f 249 247 252
f 260 252 258
f 154 267 274
f 288 210 208
f 154 208 279
f 258 278 260
f 278 268 260
f 241 281 247
f 274 269 250
f 319 334 332
f 247 258 252
f 268 278 286
f 265 276 279
f 221 349 345
f 221 100 349
f 183 122 143
f 224 258 247
f 261 278 258
f 123 266 121
f 245 152 155
f 154 220 264
f 297 315 295
f 333 331 315
f 286 210 288
f 225 224 247
f 261 210 278
f 210 286 278
f 224 261 258
f 306 245 253
f 320 333 310
f 281 225 247
f 197 283 202
f 273 200 284
f 301 303 307
f 311 317 312
f 312 317 323
f 323 316 312
f 302 300 311
f 323 320 316
f 300 317 311
f 304 317 300
f 54 338 323
f 99 301 291
f 23 27 171
f 320 337 333
f 151 156 328
f 99 291 97
f 306 152 245
f 317 98 323
f 241 293 281
f 151 341 55
f 320 310 307
f 107 50 329
f 324 317 304
f 291 293 240
f 114 159 329
f 114 329 50
f 97 291 240
f 240 293 241
f 341 328 340
f 328 60 342
f 98 54 323
f 204 31 164
f 242 339 248
f 114 251 159
f 242 31 204
f 291 294 297
f 102 324 308
f 199 270 339
f 301 310 315
f 152 321 179
f 31 242 248
f 336 341 340
f 301 99 302
f 114 8 251
f 8 114 50
f 48 8 50
f 293 291 297
f 323 338 337
f 270 189 339
f 151 55 7
f 306 321 152
f 337 55 341
f 339 170 248
f 300 302 99
f 325 321 306
f 339 189 170
f 102 318 324
f 170 171 248
f 31 248 171
f 322 299 315
f 298 306 243
f 321 342 150
f 298 243 290
f 309 325 306
f 171 27 31
f 321 335 342
f 309 313 325
f 335 321 325
f 289 292 290
f 292 298 290
f 298 305 306
f 305 309 306
f 180 211 225
f 296 298 292
f 331 322 315
f 27 23 34
f 301 307 310
f 295 296 292
f 295 299 296
f 309 314 313
f 328 342 335
f 309 319 314
f 319 309 305
f 316 320 307
f 324 98 317
f 333 315 310
f 331 336 322
f 291 301 294
f 170 189 162
f 302 311 312
f 316 307 303
f 302 312 316
f 302 316 303
f 302 303 301
f 299 322 327
f 299 327 305
f 298 296 299
f 305 298 299
f 314 319 326
f 314 326 332
f 332 335 325
f 332 325 313
f 314 332 313
f 340 334 336
f 341 336 331
f 337 331 333
f 337 341 331
# 696 faces, 0 coords texture

# End of File
